<svg width="558" height="294" viewBox="0 0 558 294" fill="none" xmlns="http://www.w3.org/2000/svg">
<path d="M26.212 195.264V227.808H29.092V195.264H26.212ZM15.484 207.648V210.276H20.884V207.648H15.484ZM19.912 196.056V226.116H22.756V196.056H19.912ZM1.588 199.368V201.816H16.456V199.368H1.588ZM1.3 219.816C5.476 219.816 12.28 219.672 17.356 218.7L17.14 216.504C12.208 217.152 5.152 217.296 0.940002 217.296L1.3 219.816ZM4.252 200.952V217.98H6.988V200.952H4.252ZM11.02 200.952V217.98H13.756V200.952H11.02Z" fill="black"/>
<path d="M58.0332 195.228V227.844H61.0212V195.228H58.0332ZM43.8492 197.748C39.0612 197.748 35.6052 202.176 35.6052 209.088C35.6052 216.036 39.0612 220.464 43.8492 220.464C48.6732 220.464 52.1292 216.036 52.1292 209.088C52.1292 202.176 48.6732 197.748 43.8492 197.748ZM43.8492 200.448C47.0532 200.448 49.2492 203.832 49.2492 209.088C49.2492 214.38 47.0532 217.836 43.8492 217.836C40.6812 217.836 38.4492 214.38 38.4492 209.088C38.4492 203.832 40.6812 200.448 43.8492 200.448Z" fill="black"/>
<path d="M76.1384 199.908V205.2C76.1384 210.816 72.2144 216.936 67.4984 219.168L69.2264 221.544C74.4104 218.988 78.5504 212.076 78.5504 205.2V199.908H76.1384ZM76.7144 199.908V205.2C76.7144 211.968 80.8904 218.304 86.1464 220.752L87.8384 218.376C83.0504 216.324 79.1264 210.708 79.1264 205.2V199.908H76.7144ZM68.5784 198.576V201.096H86.7584V198.576H68.5784ZM91.1504 195.264V227.808H94.1384V195.264H91.1504Z" fill="black"/>
<path d="M100.616 210.384V212.652H130.136V210.384H100.616ZM104.108 215.28V217.404H123.512V220.176H104.216V226.044H107.168V222.228H126.428V215.28H104.108ZM104.216 225.252V227.412H127.472V225.252H104.216ZM104.36 196.2V198.324H123.404V200.952H104.432V206.496H107.384V202.968H126.32V196.2H104.36ZM104.432 205.776V207.936H126.932V205.776H104.432Z" fill="black"/>
<path d="M149.252 200.628V202.032C149.252 206.28 145.976 209.988 141.152 211.464L142.556 213.804C148.028 212.076 151.7 207.576 151.7 202.032V200.628H149.252ZM149.792 200.628V202.032C149.792 207.216 153.356 211.536 158.792 213.156L160.196 210.852C155.408 209.448 152.24 205.92 152.24 202.032V200.628H149.792ZM142.052 199.044V201.456H159.404V199.044H142.052ZM149.252 195.12V200.052H152.24V195.12H149.252ZM163.4 195.264V214.164H166.388V195.264H163.4ZM165.56 203.292V205.776H171.212V203.292H165.56ZM154.724 216.864V217.728C154.724 221.364 149.972 224.532 144.356 225.396L145.508 227.7C151.88 226.62 157.28 222.84 157.28 217.728V216.864H154.724ZM155.3 216.864V217.728C155.3 222.732 160.7 226.656 167.072 227.736L168.188 225.432C162.68 224.532 157.856 221.292 157.856 217.728V216.864H155.3ZM145.616 215.928V218.34H166.964V215.928H145.616Z" fill="black"/>
<path d="M188.957 195.804C181.757 195.804 177.509 197.82 177.509 201.456C177.509 205.092 181.757 207.108 188.957 207.108C196.121 207.108 200.405 205.092 200.405 201.456C200.405 197.82 196.121 195.804 188.957 195.804ZM188.957 198.072C194.249 198.072 197.309 199.296 197.309 201.456C197.309 203.616 194.249 204.84 188.957 204.84C183.629 204.84 180.569 203.616 180.569 201.456C180.569 199.296 183.629 198.072 188.957 198.072ZM174.233 209.268V211.68H203.645V209.268H174.233ZM177.797 214.452V216.756H196.949V219.636H177.869V225.756H180.821V221.796H199.901V214.452H177.797ZM177.869 225.108V227.448H200.873V225.108H177.869Z" fill="black"/>
<path d="M227.909 196.416V198.216C227.909 202.86 222.185 206.748 216.245 207.648L217.433 210.06C224.201 208.908 230.537 204.444 230.537 198.216V196.416H227.909ZM228.449 196.416V198.216C228.449 204.372 234.821 208.908 241.517 210.06L242.705 207.648C236.837 206.748 231.041 202.752 231.041 198.216V196.416H228.449ZM227.909 215.424V227.808H230.861V215.424H227.909ZM214.769 213.588V216.072H244.181V213.588H214.769Z" fill="black"/>
<path d="M258.977 214.344V227.376H270.245V214.344H267.473V218.412H261.785V214.344H258.977ZM261.785 220.644H267.473V225.036H261.785V220.644ZM276.545 214.164V216.864C276.545 220.176 274.529 223.74 270.605 225.396L272.117 227.664C276.617 225.756 278.849 221.292 278.849 216.864V214.164H276.545ZM277.157 214.164V216.864C277.157 221.472 279.353 225.792 283.889 227.664L285.401 225.396C281.477 223.884 279.461 220.356 279.461 216.864V214.164H277.157ZM271.613 202.896V205.38H280.361V202.896H271.613ZM264.125 196.704C259.265 196.704 255.737 199.728 255.737 204.192C255.737 208.62 259.265 211.68 264.125 211.68C268.985 211.68 272.513 208.62 272.513 204.192C272.513 199.728 268.985 196.704 264.125 196.704ZM264.125 199.188C267.329 199.188 269.633 201.24 269.633 204.192C269.633 207.108 267.329 209.196 264.125 209.196C260.921 209.196 258.617 207.108 258.617 204.192C258.617 201.24 260.921 199.188 264.125 199.188ZM279.029 195.264V212.508H282.017V195.264H279.029Z" fill="black"/>
<path d="M292.094 214.776V227.376H313.946V214.776H310.958V218.556H295.046V214.776H292.094ZM295.046 220.86H310.958V224.964H295.046V220.86ZM288.35 210.096V212.508H317.762V210.096H288.35ZM301.562 195.624V197.064C301.562 201.168 295.91 204.66 290.042 205.452L291.122 207.792C297.818 206.784 304.118 202.716 304.118 197.064V195.624H301.562ZM302.03 195.624V197.064C302.03 202.644 308.366 206.784 314.99 207.792L316.106 205.452C310.31 204.66 304.586 201.096 304.586 197.064V195.624H302.03Z" fill="black"/>
<path d="M345.155 195.264V227.808H348.143V195.264H345.155ZM323.555 198.432V218.592H326.507V198.432H323.555ZM323.555 216.828V219.42H326.219C331.367 219.42 336.515 219.024 342.167 217.872L341.807 215.316C336.299 216.468 331.151 216.828 326.219 216.828H323.555Z" fill="black"/>
<path d="M376.616 195.228V227.844H379.64V195.228H376.616ZM378.92 208.08V210.6H384.968V208.08H378.92ZM355.988 217.224V219.744H358.544C364.664 219.744 368.948 219.564 373.952 218.628L373.628 216.108C368.768 217.008 364.556 217.224 358.544 217.224H355.988ZM355.988 198.396V218.34H358.94V200.844H371.108V198.396H355.988Z" fill="black"/>
<path d="M389.805 225.246C390.367 225.246 390.842 225.053 391.229 224.666C391.615 224.279 391.809 223.805 391.809 223.242C391.809 222.68 391.615 222.205 391.229 221.818C390.842 221.432 390.367 221.238 389.805 221.238C389.242 221.238 388.768 221.432 388.381 221.818C387.994 222.205 387.801 222.68 387.801 223.242C387.801 223.805 387.994 224.279 388.381 224.666C388.768 225.053 389.242 225.246 389.805 225.246Z" fill="black"/>
<path d="M406.703 230.469H408.984C408.422 229.813 407.901 228.964 407.422 227.922C406.943 226.88 406.521 225.724 406.156 224.453C405.802 223.172 405.526 221.844 405.328 220.469C405.13 219.094 405.031 217.755 405.031 216.453C405.031 215.151 405.13 213.818 405.328 212.453C405.526 211.078 405.802 209.755 406.156 208.484C406.521 207.203 406.943 206.042 407.422 205C407.901 203.958 408.422 203.109 408.984 202.453H406.703C405.693 203.745 404.859 205.12 404.203 206.578C403.547 208.026 403.057 209.573 402.734 211.219C402.422 212.854 402.266 214.599 402.266 216.453C402.266 218.307 402.422 220.057 402.734 221.703C403.057 223.349 403.542 224.896 404.188 226.344C404.844 227.802 405.682 229.177 406.703 230.469Z" fill="black"/>
<path d="M411.797 225H414.578V207.203H415.828L412.266 203.766L427.062 225H429.797V202.453H427.016V220.25H425.766L429.328 223.688L414.531 202.453H411.797V225Z" fill="black"/>
<path d="M440.484 225.313C441.984 225.313 443.297 224.969 444.422 224.281C445.547 223.594 446.422 222.62 447.047 221.359C447.682 220.099 448 218.604 448 216.875V216.844C448 215.115 447.682 213.625 447.047 212.375C446.422 211.115 445.542 210.146 444.406 209.469C443.281 208.781 441.969 208.438 440.469 208.438C438.979 208.438 437.667 208.781 436.531 209.469C435.406 210.146 434.526 211.115 433.891 212.375C433.266 213.625 432.953 215.115 432.953 216.844V216.875C432.953 218.594 433.266 220.089 433.891 221.359C434.526 222.62 435.406 223.594 436.531 224.281C437.667 224.969 438.984 225.313 440.484 225.313ZM440.5 222.906C439.542 222.906 438.703 222.672 437.984 222.203C437.276 221.724 436.724 221.037 436.328 220.141C435.932 219.234 435.734 218.146 435.734 216.875V216.844C435.734 215.573 435.932 214.495 436.328 213.609C436.724 212.714 437.276 212.031 437.984 211.563C438.703 211.083 439.531 210.844 440.469 210.844C441.427 210.844 442.26 211.078 442.969 211.547C443.688 212.016 444.24 212.698 444.625 213.594C445.021 214.49 445.219 215.573 445.219 216.844V216.875C445.219 218.146 445.021 219.234 444.625 220.141C444.24 221.037 443.693 221.724 442.984 222.203C442.286 222.672 441.458 222.906 440.5 222.906Z" fill="black"/>
<path d="M456.031 225.313C456.302 225.313 456.568 225.297 456.828 225.266C457.099 225.245 457.318 225.224 457.484 225.203V223C457.37 223.011 457.234 223.026 457.078 223.047C456.932 223.057 456.776 223.063 456.609 223.063C455.88 223.063 455.328 222.912 454.953 222.609C454.578 222.297 454.391 221.708 454.391 220.844V211H457.484V208.75H454.391V204.359H451.578V208.75H449.203V211H451.578V220.859C451.578 222.412 451.948 223.542 452.688 224.25C453.427 224.958 454.542 225.313 456.031 225.313Z" fill="black"/>
<path d="M467.391 225H470.203V215.234H480.188V212.734H470.203V204.984H481.078V202.453H467.391V225Z" fill="black"/>
<path d="M489.984 225.313C491.484 225.313 492.797 224.969 493.922 224.281C495.047 223.594 495.922 222.62 496.547 221.359C497.182 220.099 497.5 218.604 497.5 216.875V216.844C497.5 215.115 497.182 213.625 496.547 212.375C495.922 211.115 495.042 210.146 493.906 209.469C492.781 208.781 491.469 208.438 489.969 208.438C488.479 208.438 487.167 208.781 486.031 209.469C484.906 210.146 484.026 211.115 483.391 212.375C482.766 213.625 482.453 215.115 482.453 216.844V216.875C482.453 218.594 482.766 220.089 483.391 221.359C484.026 222.62 484.906 223.594 486.031 224.281C487.167 224.969 488.484 225.313 489.984 225.313ZM490 222.906C489.042 222.906 488.203 222.672 487.484 222.203C486.776 221.724 486.224 221.037 485.828 220.141C485.432 219.234 485.234 218.146 485.234 216.875V216.844C485.234 215.573 485.432 214.495 485.828 213.609C486.224 212.714 486.776 212.031 487.484 211.563C488.203 211.083 489.031 210.844 489.969 210.844C490.927 210.844 491.76 211.078 492.469 211.547C493.188 212.016 493.74 212.698 494.125 213.594C494.521 214.49 494.719 215.573 494.719 216.844V216.875C494.719 218.146 494.521 219.234 494.125 220.141C493.74 221.037 493.193 221.724 492.484 222.203C491.786 222.672 490.958 222.906 490 222.906Z" fill="black"/>
<path d="M505.797 225.313C506.62 225.313 507.354 225.198 508 224.969C508.646 224.74 509.198 224.427 509.656 224.031C510.125 223.636 510.505 223.188 510.797 222.688H510.859V225H513.578V208.75H510.859V218.313C510.859 219 510.76 219.63 510.562 220.203C510.365 220.766 510.078 221.25 509.703 221.656C509.328 222.052 508.88 222.359 508.359 222.578C507.849 222.797 507.271 222.906 506.625 222.906C505.375 222.906 504.438 222.557 503.812 221.859C503.198 221.151 502.891 220.136 502.891 218.813V208.75H500.172V219.297C500.172 220.526 500.391 221.594 500.828 222.5C501.276 223.396 501.917 224.089 502.75 224.578C503.594 225.068 504.609 225.313 505.797 225.313Z" fill="black"/>
<path d="M517.125 225H519.844V215.438C519.844 214.511 520.016 213.703 520.359 213.016C520.714 212.328 521.208 211.797 521.844 211.422C522.479 211.037 523.224 210.844 524.078 210.844C525.328 210.844 526.26 211.198 526.875 211.906C527.5 212.604 527.812 213.615 527.812 214.938V225H530.531V214.453C530.531 212.599 530.036 211.136 529.047 210.063C528.068 208.979 526.688 208.438 524.906 208.438C523.677 208.438 522.646 208.688 521.812 209.188C520.979 209.677 520.344 210.302 519.906 211.063H519.844V208.75H517.125V225Z" fill="black"/>
<path d="M540.109 225.313C540.891 225.313 541.604 225.188 542.25 224.938C542.906 224.688 543.49 224.339 544 223.891C544.51 223.432 544.932 222.886 545.266 222.25H545.328V225H548.047V202.453H545.328V211.469H545.266C544.932 210.844 544.505 210.307 543.984 209.859C543.464 209.401 542.87 209.052 542.203 208.813C541.547 208.563 540.833 208.438 540.062 208.438C538.708 208.438 537.516 208.787 536.484 209.484C535.453 210.172 534.646 211.146 534.062 212.406C533.49 213.667 533.203 215.151 533.203 216.859V216.875C533.203 218.583 533.49 220.073 534.062 221.344C534.635 222.604 535.438 223.583 536.469 224.281C537.51 224.969 538.724 225.313 540.109 225.313ZM540.641 222.906C539.682 222.906 538.854 222.667 538.156 222.188C537.458 221.698 536.922 221 536.547 220.094C536.172 219.188 535.984 218.115 535.984 216.875V216.859C535.984 215.62 536.172 214.552 536.547 213.656C536.922 212.761 537.458 212.068 538.156 211.578C538.854 211.089 539.682 210.844 540.641 210.844C541.557 210.844 542.365 211.094 543.062 211.594C543.771 212.094 544.328 212.797 544.734 213.703C545.141 214.599 545.344 215.651 545.344 216.859V216.875C545.344 218.083 545.141 219.141 544.734 220.047C544.339 220.953 543.786 221.656 543.078 222.156C542.37 222.656 541.557 222.906 540.641 222.906Z" fill="black"/>
<path d="M552.859 230.469C553.88 229.188 554.714 227.818 555.359 226.359C556.016 224.901 556.5 223.349 556.812 221.703C557.135 220.057 557.297 218.307 557.297 216.453C557.297 214.599 557.135 212.854 556.812 211.219C556.5 209.573 556.016 208.026 555.359 206.578C554.714 205.12 553.88 203.745 552.859 202.453H550.578C551.141 203.109 551.661 203.958 552.141 205C552.62 206.042 553.036 207.203 553.391 208.484C553.755 209.755 554.036 211.078 554.234 212.453C554.432 213.818 554.531 215.151 554.531 216.453C554.531 217.755 554.432 219.094 554.234 220.469C554.036 221.833 553.755 223.156 553.391 224.438C553.036 225.719 552.62 226.88 552.141 227.922C551.661 228.964 551.141 229.813 550.578 230.469H552.859Z" fill="black"/>
<path d="M149.203 200.628V202.032C149.203 206.28 145.927 209.988 141.103 211.464L142.507 213.804C147.979 212.076 151.651 207.576 151.651 202.032V200.628H149.203ZM149.743 200.628V202.032C149.743 207.216 153.307 211.536 158.743 213.156L160.147 210.852C155.359 209.448 152.191 205.92 152.191 202.032V200.628H149.743ZM142.003 199.044V201.456H159.355V199.044H142.003ZM149.203 195.12V200.052H152.191V195.12H149.203ZM163.351 195.264V214.164H166.339V195.264H163.351ZM165.511 203.292V205.776H171.163V203.292H165.511ZM154.675 216.864V217.728C154.675 221.364 149.923 224.532 144.307 225.396L145.459 227.7C151.831 226.62 157.231 222.84 157.231 217.728V216.864H154.675ZM155.251 216.864V217.728C155.251 222.732 160.651 226.656 167.023 227.736L168.139 225.432C162.631 224.532 157.807 221.292 157.807 217.728V216.864H155.251ZM145.567 215.928V218.34H166.915V215.928H145.567Z" fill="#1F58C2"/>
<path d="M188.908 195.804C181.708 195.804 177.46 197.82 177.46 201.456C177.46 205.092 181.708 207.108 188.908 207.108C196.072 207.108 200.356 205.092 200.356 201.456C200.356 197.82 196.072 195.804 188.908 195.804ZM188.908 198.072C194.2 198.072 197.26 199.296 197.26 201.456C197.26 203.616 194.2 204.84 188.908 204.84C183.58 204.84 180.52 203.616 180.52 201.456C180.52 199.296 183.58 198.072 188.908 198.072ZM174.184 209.268V211.68H203.596V209.268H174.184ZM177.748 214.452V216.756H196.9V219.636H177.82V225.756H180.772V221.796H199.852V214.452H177.748ZM177.82 225.108V227.448H200.824V225.108H177.82Z" fill="#1F58C2"/>
<path d="M227.86 196.416V198.216C227.86 202.86 222.136 206.748 216.196 207.648L217.384 210.06C224.152 208.908 230.488 204.444 230.488 198.216V196.416H227.86ZM228.4 196.416V198.216C228.4 204.372 234.772 208.908 241.468 210.06L242.656 207.648C236.788 206.748 230.992 202.752 230.992 198.216V196.416H228.4ZM227.86 215.424V227.808H230.812V215.424H227.86ZM214.72 213.588V216.072H244.132V213.588H214.72Z" fill="#1F58C2"/>
<path d="M258.928 214.344V227.376H270.196V214.344H267.424V218.412H261.736V214.344H258.928ZM261.736 220.644H267.424V225.036H261.736V220.644ZM276.496 214.164V216.864C276.496 220.176 274.48 223.74 270.556 225.396L272.068 227.664C276.568 225.756 278.8 221.292 278.8 216.864V214.164H276.496ZM277.108 214.164V216.864C277.108 221.472 279.304 225.792 283.84 227.664L285.352 225.396C281.428 223.884 279.412 220.356 279.412 216.864V214.164H277.108ZM271.564 202.896V205.38H280.312V202.896H271.564ZM264.076 196.704C259.216 196.704 255.688 199.728 255.688 204.192C255.688 208.62 259.216 211.68 264.076 211.68C268.936 211.68 272.464 208.62 272.464 204.192C272.464 199.728 268.936 196.704 264.076 196.704ZM264.076 199.188C267.28 199.188 269.584 201.24 269.584 204.192C269.584 207.108 267.28 209.196 264.076 209.196C260.872 209.196 258.568 207.108 258.568 204.192C258.568 201.24 260.872 199.188 264.076 199.188ZM278.98 195.264V212.508H281.968V195.264H278.98Z" fill="#1F58C2"/>
<path d="M292.046 214.776V227.376H313.898V214.776H310.91V218.556H294.998V214.776H292.046ZM294.998 220.86H310.91V224.964H294.998V220.86ZM288.302 210.096V212.508H317.714V210.096H288.302ZM301.514 195.624V197.064C301.514 201.168 295.862 204.66 289.994 205.452L291.074 207.792C297.77 206.784 304.07 202.716 304.07 197.064V195.624H301.514ZM301.982 195.624V197.064C301.982 202.644 308.318 206.784 314.942 207.792L316.058 205.452C310.262 204.66 304.538 201.096 304.538 197.064V195.624H301.982Z" fill="#1F58C2"/>
<path d="M345.107 195.264V227.808H348.095V195.264H345.107ZM323.507 198.432V218.592H326.459V198.432H323.507ZM323.507 216.828V219.42H326.171C331.319 219.42 336.467 219.024 342.119 217.872L341.759 215.316C336.251 216.468 331.103 216.828 326.171 216.828H323.507Z" fill="#1F58C2"/>
<path d="M376.568 195.228V227.844H379.592V195.228H376.568ZM378.872 208.08V210.6H384.92V208.08H378.872ZM355.94 217.224V219.744H358.496C364.616 219.744 368.9 219.564 373.904 218.628L373.58 216.108C368.72 217.008 364.508 217.224 358.496 217.224H355.94ZM355.94 198.396V218.34H358.892V200.844H371.06V198.396H355.94Z" fill="#1F58C2"/>
<path d="M122.769 260.227V274.691H124.049V260.227H122.769ZM118.001 265.731V266.899H120.401V265.731H118.001ZM119.969 260.579V273.939H121.233V260.579H119.969ZM111.825 262.051V263.139H118.433V262.051H111.825ZM111.697 271.139C113.553 271.139 116.577 271.075 118.833 270.643L118.737 269.667C116.545 269.955 113.409 270.019 111.537 270.019L111.697 271.139ZM113.009 262.755V270.323H114.225V262.755H113.009ZM116.017 262.755V270.323H117.233V262.755H116.017Z" fill="#525252"/>
<path d="M136.911 260.211V274.707H138.239V260.211H136.911ZM130.607 261.331C128.479 261.331 126.943 263.299 126.943 266.371C126.943 269.459 128.479 271.427 130.607 271.427C132.751 271.427 134.287 269.459 134.287 266.371C134.287 263.299 132.751 261.331 130.607 261.331ZM130.607 262.531C132.031 262.531 133.007 264.035 133.007 266.371C133.007 268.723 132.031 270.259 130.607 270.259C129.199 270.259 128.207 268.723 128.207 266.371C128.207 264.035 129.199 262.531 130.607 262.531Z" fill="#525252"/>
<path d="M144.958 262.291V264.643C144.958 267.139 143.214 269.859 141.118 270.851L141.886 271.907C144.19 270.771 146.03 267.699 146.03 264.643V262.291H144.958ZM145.214 262.291V264.643C145.214 267.651 147.07 270.467 149.406 271.555L150.158 270.499C148.03 269.587 146.286 267.091 146.286 264.643V262.291H145.214ZM141.598 261.699V262.819H149.678V261.699H141.598ZM151.63 260.227V274.691H152.958V260.227H151.63Z" fill="#525252"/>
<path d="M165.629 260.211V274.691H166.973V260.211H165.629ZM166.605 266.083V267.187H169.277V266.083H166.605ZM161.933 261.779V261.987C161.933 265.811 159.933 268.899 155.933 270.931L156.669 271.955C161.341 269.603 163.229 265.891 163.229 261.779H161.933ZM156.605 261.779V262.867H162.621V261.779H156.605Z" fill="#525252"/>
<path d="M179.517 261.587V262.019C179.517 263.795 177.197 265.235 174.637 265.571L175.133 266.643C178.093 266.195 180.701 264.467 180.701 262.019V261.587H179.517ZM180.077 261.587V262.019C180.077 264.467 182.685 266.195 185.629 266.643L186.141 265.571C183.581 265.235 181.245 263.779 181.245 262.019V261.587H180.077ZM175.037 260.931V262.003H185.741V260.931H175.037ZM175.533 273.283V274.371H185.469V273.283H175.533ZM175.533 270.291V273.715H176.861V270.291H175.533ZM173.837 268.035V269.107H186.957V268.035H173.837ZM179.709 265.635V268.467H181.021V265.635H179.709Z" fill="#525252"/>
<path d="M199.628 260.227V274.691H200.892V260.227H199.628ZM197.34 266.051V267.171H200.124V266.051H197.34ZM196.476 260.531V273.971H197.724V260.531H196.476ZM191.548 262.467V264.131C191.548 267.075 190.492 269.539 188.412 270.691L189.228 271.715C191.452 270.387 192.588 267.603 192.588 264.131V262.467H191.548ZM191.788 262.467V264.131C191.788 267.315 192.94 269.987 195.148 271.203L195.932 270.179C193.9 269.139 192.828 266.787 192.828 264.131V262.467H191.788ZM188.748 261.923V263.027H195.468V261.923H188.748Z" fill="#525252"/>
<path d="M213.082 260.227V274.691H214.41V260.227H213.082ZM214.09 266.163V267.283H216.778V266.163H214.09ZM203.21 262.531V263.619H211.738V262.531H203.21ZM207.53 264.819C205.498 264.819 204.01 266.195 204.01 268.147C204.01 270.099 205.498 271.475 207.53 271.475C209.578 271.475 211.05 270.099 211.05 268.147C211.05 266.195 209.578 264.819 207.53 264.819ZM207.53 265.923C208.842 265.923 209.786 266.835 209.786 268.147C209.786 269.443 208.842 270.371 207.53 270.371C206.218 270.371 205.274 269.443 205.274 268.147C205.274 266.835 206.218 265.923 207.53 265.923ZM206.842 260.403V263.027H208.17V260.403H206.842Z" fill="#525252"/>
<path d="M221.833 262.291V264.643C221.833 267.139 220.089 269.859 217.993 270.851L218.761 271.907C221.065 270.771 222.905 267.699 222.905 264.643V262.291H221.833ZM222.089 262.291V264.643C222.089 267.651 223.945 270.467 226.281 271.555L227.033 270.499C224.905 269.587 223.161 267.091 223.161 264.643V262.291H222.089ZM218.473 261.699V262.819H226.553V261.699H218.473ZM228.505 260.227V274.691H229.833V260.227H228.505Z" fill="#525252"/>
<path d="M239.993 261.043C237.849 261.043 236.265 262.419 236.265 264.387C236.265 266.355 237.849 267.731 239.993 267.731C242.153 267.731 243.737 266.355 243.737 264.387C243.737 262.419 242.153 261.043 239.993 261.043ZM239.993 262.131C241.401 262.131 242.457 263.075 242.457 264.387C242.457 265.699 241.401 266.643 239.993 266.643C238.617 266.643 237.561 265.699 237.561 264.387C237.561 263.075 238.617 262.131 239.993 262.131ZM245.897 260.227V267.427H247.225V260.227H245.897ZM246.649 263.475V264.563H249.369V263.475H246.649ZM237.513 273.219V274.307H238.201C239.193 274.307 240.521 274.243 241.913 273.795L241.689 272.723C240.457 273.139 239.065 273.219 238.201 273.219H237.513ZM237.513 268.995V273.603H238.809V268.995H237.513ZM241.385 269.091V270.083H248.649V269.091H241.385ZM245.033 270.595C243.449 270.595 242.345 271.379 242.345 272.627C242.345 273.891 243.449 274.675 245.033 274.675C246.601 274.675 247.705 273.891 247.705 272.627C247.705 271.379 246.601 270.595 245.033 270.595ZM245.033 271.539C245.897 271.539 246.521 271.971 246.521 272.627C246.521 273.299 245.897 273.731 245.033 273.731C244.137 273.731 243.529 273.299 243.529 272.627C243.529 271.971 244.137 271.539 245.033 271.539ZM244.377 267.795V269.859H245.673V267.795H244.377Z" fill="#525252"/>
<path d="M261.288 260.227V274.691H262.616V260.227H261.288ZM257.912 266.019V267.123H261.88V266.019H257.912ZM256.648 261.779V262.003C256.648 265.779 254.92 268.851 250.712 270.915L251.448 271.955C256.248 269.555 257.96 265.907 257.96 261.779H256.648ZM251.336 261.779V262.867H257.352V261.779H251.336Z" fill="#525252"/>
<path d="M276.199 265.987V267.107H278.871V265.987H276.199ZM275.223 260.211V274.691H276.567V260.211H275.223ZM266.007 261.635V270.595H267.335V261.635H266.007ZM266.007 269.907V271.027H267.159C269.351 271.027 271.575 270.883 274.039 270.371L273.879 269.267C271.495 269.763 269.303 269.907 267.159 269.907H266.007Z" fill="#525252"/>
<path d="M281.373 271.631C281.006 271.631 280.787 271.795 280.701 272.225L280.147 275.123C280.139 275.17 280.123 275.248 280.123 275.365C280.123 275.678 280.365 275.857 280.678 275.857C281.006 275.857 281.186 275.701 281.272 275.365L281.99 272.678C282.037 272.506 282.053 272.389 282.053 272.248C282.053 271.865 281.772 271.631 281.373 271.631Z" fill="#525252"/>
<path d="M290.264 261.475V264.067C290.264 266.707 288.616 269.491 286.52 270.547L287.336 271.603C289.624 270.387 291.352 267.267 291.352 264.067V261.475H290.264ZM290.504 261.475V264.067C290.504 267.171 292.184 270.131 294.424 271.331L295.24 270.275C293.192 269.251 291.576 266.611 291.576 264.067V261.475H290.504ZM296.504 260.227V274.691H297.848V260.227H296.504ZM297.528 266.083V267.203H300.216V266.083H297.528Z" fill="#525252"/>
<path d="M304.663 265.123V267.859H305.975V265.123H304.663ZM309.975 265.123V267.859H311.287V265.123H309.975ZM301.431 267.379V268.451H314.503V267.379H301.431ZM307.959 269.539C304.855 269.539 302.999 270.451 302.999 272.099C302.999 273.747 304.855 274.675 307.959 274.675C311.063 274.675 312.919 273.747 312.919 272.099C312.919 270.451 311.063 269.539 307.959 269.539ZM307.959 270.563C310.231 270.563 311.575 271.123 311.575 272.099C311.575 273.091 310.231 273.635 307.959 273.635C305.703 273.635 304.343 273.091 304.343 272.099C304.343 271.123 305.703 270.563 307.959 270.563ZM307.975 260.483C304.823 260.483 302.887 261.491 302.887 263.187C302.887 264.867 304.823 265.859 307.975 265.859C311.111 265.859 313.063 264.867 313.063 263.187C313.063 261.491 311.111 260.483 307.975 260.483ZM307.975 261.523C310.279 261.523 311.703 262.131 311.703 263.187C311.703 264.227 310.279 264.835 307.975 264.835C305.671 264.835 304.247 264.227 304.247 263.187C304.247 262.131 305.671 261.523 307.975 261.523Z" fill="#525252"/>
<path d="M326.053 260.179V268.163H327.381V260.179H326.053ZM326.821 263.651V264.771H329.525V263.651H326.821ZM318.197 268.899V269.907H326.085V271.171H318.229V273.891H319.541V272.131H327.381V268.899H318.197ZM318.229 273.507V274.531H327.909V273.507H318.229ZM316.197 261.523V262.563H324.741V261.523H316.197ZM320.469 263.203C318.357 263.203 316.997 264.115 316.997 265.587C316.997 267.043 318.357 267.939 320.469 267.939C322.549 267.939 323.925 267.043 323.925 265.587C323.925 264.115 322.549 263.203 320.469 263.203ZM320.469 264.179C321.797 264.179 322.661 264.723 322.661 265.587C322.661 266.435 321.797 266.979 320.469 266.979C319.125 266.979 318.261 266.435 318.261 265.587C318.261 264.723 319.125 264.179 320.469 264.179ZM319.797 260.067V262.243H321.125V260.067H319.797Z" fill="#525252"/>
<path d="M340.005 260.739V261.539C340.005 263.603 337.461 265.331 334.821 265.731L335.349 266.803C338.357 266.291 341.173 264.307 341.173 261.539V260.739H340.005ZM340.245 260.739V261.539C340.245 264.275 343.077 266.291 346.053 266.803L346.581 265.731C343.973 265.331 341.397 263.555 341.397 261.539V260.739H340.245ZM340.005 269.187V274.691H341.317V269.187H340.005ZM334.165 268.371V269.475H347.237V268.371H334.165Z" fill="#525252"/>
<path d="M353.813 268.707V274.499H358.821V268.707H357.589V270.515H355.061V268.707H353.813ZM355.061 271.507H357.589V273.459H355.061V271.507ZM361.621 268.627V269.827C361.621 271.299 360.725 272.883 358.981 273.619L359.653 274.627C361.653 273.779 362.645 271.795 362.645 269.827V268.627H361.621ZM361.893 268.627V269.827C361.893 271.875 362.869 273.795 364.885 274.627L365.557 273.619C363.813 272.947 362.917 271.379 362.917 269.827V268.627H361.893ZM359.429 263.619V264.723H363.317V263.619H359.429ZM356.101 260.867C353.941 260.867 352.373 262.211 352.373 264.195C352.373 266.163 353.941 267.523 356.101 267.523C358.261 267.523 359.829 266.163 359.829 264.195C359.829 262.211 358.261 260.867 356.101 260.867ZM356.101 261.971C357.525 261.971 358.549 262.883 358.549 264.195C358.549 265.491 357.525 266.419 356.101 266.419C354.677 266.419 353.653 265.491 353.653 264.195C353.653 262.883 354.677 261.971 356.101 261.971ZM362.725 260.227V267.891H364.053V260.227H362.725Z" fill="#525252"/>
<path d="M368.644 264.563V265.651H378.468V264.563H368.644ZM366.868 267.587V268.675H379.988V267.587H366.868ZM368.644 260.755V265.107H369.956V260.755H368.644ZM368.548 273.251V274.339H378.548V273.251H368.548ZM368.548 270.115V273.539H369.86V270.115H368.548Z" fill="#525252"/>
<path d="M395.956 260.227V274.691H397.236V260.227H395.956ZM391.188 265.731V266.899H393.588V265.731H391.188ZM393.156 260.579V273.939H394.42V260.579H393.156ZM385.012 262.051V263.139H391.62V262.051H385.012ZM384.884 271.139C386.74 271.139 389.764 271.075 392.02 270.643L391.924 269.667C389.732 269.955 386.596 270.019 384.724 270.019L384.884 271.139ZM386.196 262.755V270.323H387.412V262.755H386.196ZM389.204 262.755V270.323H390.42V262.755H389.204Z" fill="#525252"/>
<path d="M410.099 260.211V274.707H411.427V260.211H410.099ZM403.795 261.331C401.667 261.331 400.131 263.299 400.131 266.371C400.131 269.459 401.667 271.427 403.795 271.427C405.939 271.427 407.475 269.459 407.475 266.371C407.475 263.299 405.939 261.331 403.795 261.331ZM403.795 262.531C405.219 262.531 406.195 264.035 406.195 266.371C406.195 268.723 405.219 270.259 403.795 270.259C402.387 270.259 401.395 268.723 401.395 266.371C401.395 264.035 402.387 262.531 403.795 262.531Z" fill="#525252"/>
<path d="M418.146 262.291V264.643C418.146 267.139 416.402 269.859 414.306 270.851L415.074 271.907C417.378 270.771 419.218 267.699 419.218 264.643V262.291H418.146ZM418.402 262.291V264.643C418.402 267.651 420.258 270.467 422.594 271.555L423.346 270.499C421.218 269.587 419.474 267.091 419.474 264.643V262.291H418.402ZM414.786 261.699V262.819H422.866V261.699H414.786ZM424.818 260.227V274.691H426.146V260.227H424.818Z" fill="#525252"/>
<path d="M439.552 260.227V267.987H440.896V260.227H439.552ZM431.568 268.707V274.499H440.896V268.707H439.584V270.467H432.88V268.707H431.568ZM432.88 271.523H439.584V273.427H432.88V271.523ZM433.136 260.915C430.944 260.915 429.36 262.275 429.36 264.243C429.36 266.227 430.944 267.587 433.136 267.587C435.328 267.587 436.896 266.227 436.896 264.243C436.896 262.275 435.328 260.915 433.136 260.915ZM433.136 262.019C434.576 262.019 435.616 262.931 435.616 264.243C435.616 265.555 434.576 266.467 433.136 266.467C431.696 266.467 430.656 265.555 430.656 264.243C430.656 262.931 431.696 262.019 433.136 262.019Z" fill="#525252"/>
<path d="M454.271 260.227V274.691H455.599V260.227H454.271ZM444.671 261.635V270.595H445.983V261.635H444.671ZM444.671 269.811V270.963H445.855C448.143 270.963 450.431 270.787 452.943 270.275L452.783 269.139C450.335 269.651 448.047 269.811 445.855 269.811H444.671Z" fill="#525252"/>
<path d="M468.254 260.211V274.707H469.598V260.211H468.254ZM469.278 265.923V267.043H471.966V265.923H469.278ZM459.086 269.987V271.107H460.222C462.942 271.107 464.846 271.027 467.07 270.611L466.926 269.491C464.766 269.891 462.894 269.987 460.222 269.987H459.086ZM459.086 261.619V270.483H460.398V262.707H465.806V261.619H459.086Z" fill="#525252"/>
<path d="M474.428 273.522C474.928 273.522 475.319 273.131 475.319 272.631C475.319 272.131 474.928 271.74 474.428 271.74C473.928 271.74 473.537 272.131 473.537 272.631C473.537 273.131 473.928 273.522 474.428 273.522Z" fill="#525252"/>
<path d="M107.49 279.227V286.987H108.834V279.227H107.49ZM99.5059 287.707V293.499H108.834V287.707H107.522V289.467H100.818V287.707H99.5059ZM100.818 290.523H107.522V292.427H100.818V290.523ZM101.074 279.915C98.8819 279.915 97.2979 281.275 97.2979 283.243C97.2979 285.227 98.8819 286.587 101.074 286.587C103.266 286.587 104.834 285.227 104.834 283.243C104.834 281.275 103.266 279.915 101.074 279.915ZM101.074 281.019C102.514 281.019 103.554 281.931 103.554 283.243C103.554 284.555 102.514 285.467 101.074 285.467C99.6339 285.467 98.5939 284.555 98.5939 283.243C98.5939 281.931 99.6339 281.019 101.074 281.019Z" fill="#525252"/>
<path d="M112.289 286.395V287.483H113.329C116.225 287.483 117.665 287.435 119.457 287.115L119.313 286.043C117.585 286.347 116.177 286.395 113.329 286.395H112.289ZM112.257 280.091V281.179H117.185V283.163H112.289V287.051H113.601V284.203H118.497V280.091H112.257ZM122.257 279.243V288.123H123.585V279.243H122.257ZM119.457 281.371V282.459H122.561V281.371H119.457ZM119.457 284.363V285.451H122.561V284.363H119.457ZM113.905 288.907V289.995H122.257V293.723H123.585V288.907H113.905Z" fill="#525252"/>
<path d="M136.207 279.227V293.691H137.535V279.227H136.207ZM137.215 285.163V286.283H139.903V285.163H137.215ZM126.335 281.531V282.619H134.863V281.531H126.335ZM130.655 283.819C128.623 283.819 127.135 285.195 127.135 287.147C127.135 289.099 128.623 290.475 130.655 290.475C132.703 290.475 134.175 289.099 134.175 287.147C134.175 285.195 132.703 283.819 130.655 283.819ZM130.655 284.923C131.967 284.923 132.911 285.835 132.911 287.147C132.911 288.443 131.967 289.371 130.655 289.371C129.343 289.371 128.399 288.443 128.399 287.147C128.399 285.835 129.343 284.923 130.655 284.923ZM129.967 279.403V282.027H131.295V279.403H129.967Z" fill="#525252"/>
<path d="M151.646 279.243V289.835H152.99V279.243H151.646ZM143.694 292.283V293.371H153.422V292.283H143.694ZM143.694 288.859V292.795H145.006V288.859H143.694ZM144.894 280.027V281.499C144.894 283.739 143.454 285.851 141.278 286.699L141.966 287.771C144.398 286.779 145.998 284.315 145.998 281.499V280.027H144.894ZM145.134 280.027V281.499C145.134 284.251 146.734 286.571 149.134 287.499L149.838 286.427C147.678 285.643 146.222 283.675 146.222 281.499V280.027H145.134Z" fill="#525252"/>
<path d="M164.926 280.651V281.259C164.926 283.163 162.446 284.827 159.902 285.195L160.414 286.251C163.326 285.755 166.078 283.851 166.078 281.259V280.651H164.926ZM165.262 280.651V281.259C165.262 283.851 167.998 285.755 170.926 286.251L171.422 285.195C168.894 284.827 166.398 283.163 166.398 281.259V280.651H165.262ZM164.974 288.171V293.691H166.286V288.171H164.974ZM159.134 287.467V288.555H172.206V287.467H159.134ZM160.35 280.123V281.195H170.942V280.123H160.35Z" fill="#525252"/>
<path d="M173.853 290.715V291.819H186.957V290.715H173.853ZM179.677 287.211V291.083H180.989V287.211H179.677ZM179.645 280.187V281.307C179.645 283.691 176.909 285.819 174.365 286.283L174.925 287.387C177.837 286.779 180.797 284.395 180.797 281.307V280.187H179.645ZM179.885 280.187V281.307C179.885 284.395 182.845 286.779 185.757 287.387L186.333 286.283C183.789 285.819 181.037 283.707 181.037 281.307V280.187H179.885Z" fill="#525252"/>
<path d="M198.348 279.211V293.691H199.692V279.211H198.348ZM199.324 285.083V286.187H201.996V285.083H199.324ZM194.652 280.779V280.987C194.652 284.811 192.652 287.899 188.652 289.931L189.388 290.955C194.06 288.603 195.948 284.891 195.948 280.779H194.652ZM189.324 280.779V281.867H195.34V280.779H189.324Z" fill="#525252"/>
<path d="M214.284 282.971V284.075H217.548V282.971H214.284ZM217.132 279.227V287.851H218.46V279.227H217.132ZM213.708 288.283C210.716 288.283 208.876 289.291 208.876 290.987C208.876 292.699 210.716 293.675 213.708 293.675C216.684 293.675 218.524 292.699 218.524 290.987C218.524 289.291 216.684 288.283 213.708 288.283ZM213.708 289.323C215.884 289.323 217.212 289.931 217.212 290.987C217.212 292.027 215.884 292.635 213.708 292.635C211.532 292.635 210.204 292.027 210.204 290.987C210.204 289.931 211.532 289.323 213.708 289.323ZM210.252 280.683V281.851C210.252 283.931 208.764 285.867 206.62 286.651L207.308 287.707C209.708 286.811 211.34 284.523 211.34 281.851V280.683H210.252ZM210.508 280.683V281.851C210.508 284.283 212.06 286.459 214.412 287.307L215.084 286.251C212.988 285.515 211.58 283.723 211.58 281.851V280.683H210.508ZM207.02 280.283V281.371H214.748V280.283H207.02Z" fill="#525252"/>
<path d="M225.066 286.011V287.867H226.394V286.011H225.066ZM231.162 279.243V288.939H232.49V279.243H231.162ZM231.93 283.611V284.715H234.602V283.611H231.93ZM221.37 288.523C223.898 288.507 227.322 288.491 230.41 287.947L230.298 287.003C227.306 287.435 223.786 287.435 221.194 287.435L221.37 288.523ZM222.986 289.659V290.715H231.162V293.691H232.49V289.659H222.986ZM221.562 280.539V281.531H229.866V280.539H221.562ZM225.722 282.091C223.674 282.091 222.346 282.907 222.346 284.235C222.346 285.563 223.674 286.379 225.722 286.379C227.754 286.379 229.082 285.563 229.082 284.235C229.082 282.907 227.754 282.091 225.722 282.091ZM225.722 283.003C227.002 283.003 227.834 283.467 227.834 284.235C227.834 284.971 227.002 285.451 225.722 285.451C224.426 285.451 223.594 284.971 223.594 284.235C223.594 283.467 224.426 283.003 225.722 283.003ZM225.066 279.115V281.019H226.394V279.115H225.066Z" fill="#525252"/>
<path d="M245.897 279.243V290.091H247.225V279.243H245.897ZM246.809 283.979V285.099H249.369V283.979H246.809ZM236.041 280.987V282.059H244.585V280.987H236.041ZM240.313 282.859C238.249 282.859 236.841 283.931 236.841 285.563C236.841 287.179 238.249 288.251 240.313 288.251C242.361 288.251 243.769 287.179 243.769 285.563C243.769 283.931 242.361 282.859 240.313 282.859ZM240.313 283.899C241.609 283.899 242.505 284.555 242.505 285.563C242.505 286.555 241.609 287.211 240.313 287.211C239.001 287.211 238.105 286.555 238.105 285.563C238.105 284.555 239.001 283.899 240.313 283.899ZM239.641 279.227V281.547H240.969V279.227H239.641ZM238.217 292.283V293.371H247.881V292.283H238.217ZM238.217 289.227V292.747H239.545V289.227H238.217Z" fill="#525252"/>
<path d="M254.552 281.291V283.643C254.552 286.139 252.808 288.859 250.712 289.851L251.48 290.907C253.784 289.771 255.624 286.699 255.624 283.643V281.291H254.552ZM254.808 281.291V283.643C254.808 286.651 256.664 289.467 259 290.555L259.752 289.499C257.624 288.587 255.88 286.091 255.88 283.643V281.291H254.808ZM251.192 280.699V281.819H259.272V280.699H251.192ZM261.224 279.227V293.691H262.552V279.227H261.224Z" fill="#525252"/>
<path d="M278.504 279.211V293.707H279.848V279.211H278.504ZM279.528 284.923V286.043H282.216V284.923H279.528ZM269.336 288.987V290.107H270.472C273.192 290.107 275.096 290.027 277.32 289.611L277.176 288.491C275.016 288.891 273.144 288.987 270.472 288.987H269.336ZM269.336 280.619V289.483H270.648V281.707H276.056V280.619H269.336Z" fill="#525252"/>
<path d="M287.255 280.475V283.067C287.255 285.803 285.511 288.571 283.367 289.595L284.183 290.683C286.551 289.483 288.343 286.395 288.343 283.067V280.475H287.255ZM287.479 280.475V283.067C287.479 286.283 289.287 289.259 291.639 290.411L292.439 289.355C290.295 288.363 288.567 285.707 288.567 283.067V280.475H287.479ZM293.943 279.211V293.707H295.271V279.211H293.943Z" fill="#525252"/>
<path d="M311.335 279.243V290.091H312.663V279.243H311.335ZM312.247 283.979V285.099H314.807V283.979H312.247ZM301.479 280.987V282.059H310.023V280.987H301.479ZM305.751 282.859C303.687 282.859 302.279 283.931 302.279 285.563C302.279 287.179 303.687 288.251 305.751 288.251C307.799 288.251 309.207 287.179 309.207 285.563C309.207 283.931 307.799 282.859 305.751 282.859ZM305.751 283.899C307.047 283.899 307.943 284.555 307.943 285.563C307.943 286.555 307.047 287.211 305.751 287.211C304.439 287.211 303.543 286.555 303.543 285.563C303.543 284.555 304.439 283.899 305.751 283.899ZM305.079 279.227V281.547H306.407V279.227H305.079ZM303.655 292.283V293.371H313.319V292.283H303.655ZM303.655 289.227V292.747H304.983V289.227H303.655Z" fill="#525252"/>
<path d="M322.981 283.307V284.395H327.141V283.307H322.981ZM326.725 279.243V289.947H328.053V279.243H326.725ZM318.757 292.283V293.371H328.405V292.283H318.757ZM318.757 288.907V292.843H320.085V288.907H318.757ZM316.869 280.187V287.483H323.397V280.187H322.101V282.747H318.181V280.187H316.869ZM318.181 283.787H322.101V286.395H318.181V283.787Z" fill="#525252"/>
<path d="M337.941 286.011V287.867H339.269V286.011H337.941ZM344.037 279.243V288.939H345.365V279.243H344.037ZM344.805 283.611V284.715H347.477V283.611H344.805ZM334.245 288.523C336.773 288.507 340.197 288.491 343.285 287.947L343.173 287.003C340.181 287.435 336.661 287.435 334.069 287.435L334.245 288.523ZM335.861 289.659V290.715H344.037V293.691H345.365V289.659H335.861ZM334.437 280.539V281.531H342.741V280.539H334.437ZM338.597 282.091C336.549 282.091 335.221 282.907 335.221 284.235C335.221 285.563 336.549 286.379 338.597 286.379C340.629 286.379 341.957 285.563 341.957 284.235C341.957 282.907 340.629 282.091 338.597 282.091ZM338.597 283.003C339.877 283.003 340.709 283.467 340.709 284.235C340.709 284.971 339.877 285.451 338.597 285.451C337.301 285.451 336.469 284.971 336.469 284.235C336.469 283.467 337.301 283.003 338.597 283.003ZM337.941 279.115V281.019H339.269V279.115H337.941Z" fill="#525252"/>
<path d="M359.396 279.243V289.803H360.74V279.243H359.396ZM351.444 292.283V293.371H361.172V292.283H351.444ZM351.444 288.715V292.651H352.756V288.715H351.444ZM352.98 280.235C350.82 280.235 349.204 281.707 349.204 283.803C349.204 285.883 350.82 287.371 352.98 287.371C355.14 287.371 356.74 285.883 356.74 283.803C356.74 281.707 355.14 280.235 352.98 280.235ZM352.98 281.387C354.388 281.387 355.46 282.379 355.46 283.803C355.46 285.211 354.388 286.203 352.98 286.203C351.572 286.203 350.5 285.211 350.5 283.803C350.5 282.379 351.572 281.387 352.98 281.387Z" fill="#525252"/>
<path d="M363.571 281.691V282.779H370.739V281.691H363.571ZM367.155 283.739C365.363 283.739 364.051 285.099 364.051 287.051C364.051 288.987 365.363 290.347 367.155 290.347C368.963 290.347 370.275 288.987 370.275 287.051C370.275 285.099 368.963 283.739 367.155 283.739ZM367.155 284.875C368.275 284.875 369.091 285.771 369.091 287.051C369.091 288.331 368.275 289.227 367.155 289.227C366.051 289.227 365.251 288.331 365.251 287.051C365.251 285.771 366.051 284.875 367.155 284.875ZM374.563 279.227V293.691H375.843V279.227H374.563ZM372.259 285.307V286.411H374.995V285.307H372.259ZM371.475 279.547V292.987H372.723V279.547H371.475ZM366.515 279.643V282.363H367.827V279.643H366.515Z" fill="#525252"/>
<path d="M387.395 280.651V281.259C387.395 283.163 384.915 284.827 382.371 285.195L382.883 286.251C385.795 285.755 388.547 283.851 388.547 281.259V280.651H387.395ZM387.731 280.651V281.259C387.731 283.851 390.467 285.755 393.395 286.251L393.891 285.195C391.363 284.827 388.867 283.163 388.867 281.259V280.651H387.731ZM387.443 288.171V293.691H388.755V288.171H387.443ZM381.603 287.467V288.555H394.675V287.467H381.603ZM382.819 280.123V281.195H393.411V280.123H382.819Z" fill="#525252"/>
<path d="M400.13 280.475V283.067C400.13 285.803 398.386 288.571 396.242 289.595L397.058 290.683C399.426 289.483 401.218 286.395 401.218 283.067V280.475H400.13ZM400.354 280.475V283.067C400.354 286.283 402.162 289.259 404.514 290.411L405.314 289.355C403.17 288.363 401.442 285.707 401.442 283.067V280.475H400.354ZM406.818 279.211V293.707H408.146V279.211H406.818Z" fill="#525252"/>
<path d="M421.568 279.227V293.691H422.896V279.227H421.568ZM417.328 280.779V281.003C417.328 284.843 415.392 287.915 411.216 289.931L411.92 291.003C416.752 288.635 418.64 284.971 418.64 280.779H417.328ZM411.872 280.779V281.867H417.904V280.779H411.872Z" fill="#525252"/>
<path d="M438.816 279.227V293.691H440.16V279.227H438.816ZM439.84 284.907V286.043H442.528V284.907H439.84ZM429.6 280.443V290.219H436.352V280.443H435.04V284.267H430.912V280.443H429.6ZM430.912 285.323H435.04V289.131H430.912V285.323Z" fill="#525252"/>
<path d="M453.647 279.243V287.211H454.975V279.243H453.647ZM454.575 282.715V283.819H457.119V282.715H454.575ZM445.887 287.867V293.499H454.975V287.867H453.663V289.611H447.183V287.867H445.887ZM447.183 290.667H453.663V292.411H447.183V290.667ZM444.383 285.787V286.875H445.519C448.191 286.875 450.095 286.795 452.383 286.411L452.271 285.307C450.015 285.707 448.143 285.787 445.519 285.787H444.383ZM444.351 279.931V281.019H449.551V282.795H444.383V286.459H445.679V283.819H450.863V279.931H444.351Z" fill="#525252"/>
<path d="M468.99 279.227V293.691H470.318V279.227H468.99ZM459.39 280.635V289.595H460.702V280.635H459.39ZM459.39 288.811V289.963H460.574C462.862 289.963 465.15 289.787 467.662 289.275L467.502 288.139C465.054 288.651 462.766 288.811 460.574 288.811H459.39Z" fill="#525252"/>
<path d="M482.973 279.211V293.707H484.317V279.211H482.973ZM483.997 284.923V286.043H486.685V284.923H483.997ZM473.805 288.987V290.107H474.941C477.661 290.107 479.565 290.027 481.789 289.611L481.645 288.491C479.485 288.891 477.613 288.987 474.941 288.987H473.805ZM473.805 280.619V289.483H475.117V281.707H480.525V280.619H473.805Z" fill="#525252"/>
<path d="M489.147 292.522C489.647 292.522 490.037 292.131 490.037 291.631C490.037 291.131 489.647 290.74 489.147 290.74C488.647 290.74 488.256 291.131 488.256 291.631C488.256 292.131 488.647 292.522 489.147 292.522Z" fill="#525252"/>
<path d="M215.727 61.8944H178V44.863L215.727 0.012207H233.781V45.8302H243.137V61.8944H233.781V75.832H215.727V61.8944ZM215.727 45.8302V22.3694L195.788 45.8302H215.727Z" fill="#1F58C2"/>
<path d="M249.591 38.254C249.591 24.0808 252.142 14.1608 257.242 8.494C262.343 2.8272 270.115 -0.00412881 280.56 4.51895e-06C285.574 4.51895e-06 289.693 0.620005 292.917 1.86C295.846 2.91532 298.528 4.55899 300.797 6.68981C302.71 8.5163 304.331 10.6262 305.602 12.9456C306.86 15.3672 307.808 17.9377 308.423 20.5964C309.825 26.2761 310.525 32.1063 310.506 37.9564C310.506 51.4807 308.219 61.3779 303.643 67.6482C299.067 73.9185 291.187 77.0557 280.002 77.0598C273.728 77.0598 268.658 76.0595 264.794 74.059C260.898 72.026 257.617 68.9885 255.289 65.2612C253.491 62.5167 252.092 58.7615 251.092 53.9958C250.053 48.8138 249.551 43.5388 249.591 38.254ZM270.138 38.3036C270.138 47.8103 270.975 54.2934 272.649 57.753C274.323 61.2126 276.756 62.9507 279.947 62.9672C280.959 62.9785 281.964 62.7887 282.903 62.4088C283.841 62.0288 284.695 61.4663 285.415 60.7538C286.961 59.2782 288.098 56.947 288.825 53.7602C289.552 50.5734 289.916 45.6134 289.916 38.8802C289.916 28.985 289.077 22.3324 287.399 18.9224C285.721 15.5124 283.204 13.8095 279.847 13.8136C276.425 13.8136 273.945 15.5517 272.407 19.0278C270.87 22.5039 270.113 28.9292 270.138 38.3036Z" fill="#1F58C2"/>
<path d="M354.644 61.8944H316.917V44.863L354.644 0.012207H372.699V45.8302H382.085V61.8944H372.699V75.832H354.644V61.8944ZM354.644 45.8302V22.3694L334.711 45.8302H354.644Z" fill="#1F58C2"/>
</svg>
