<svg width="100" height="100" viewBox="0 0 100 100" fill="none" xmlns="http://www.w3.org/2000/svg">
<path d="M55.2543 32.1001H70.3233C71.8103 32.1001 73 33.292 73 34.7819V88.4183C73 89.9082 71.8103 91.1001 70.3233 91.1001H29.6767C28.1897 91.1001 27 89.9082 27 88.4183V34.7819C27 33.292 28.1897 32.1001 29.6767 32.1001H44.7457" stroke="#565555" stroke-width="2.5" stroke-miterlimit="10" stroke-linecap="round" stroke-linejoin="round"/>
<path d="M55.4027 36C56.2483 36 57 36.7059 57 37.5C57 38.2941 56.2483 39 55.4027 39H44.5973C43.7517 39 43 38.2941 43 37.5C43 36.7059 43.7517 36 44.5973 36" stroke="#565555" stroke-width="2.5" stroke-miterlimit="10"/>
<path d="M39 10.5L46.4 26.8" stroke="#565555" stroke-width="2.5" stroke-miterlimit="10" stroke-linecap="round" stroke-linejoin="round"/>
<path d="M48.2002 10.5L55.2002 26.8L63.2002 10.5" stroke="#565555" stroke-width="2.5" stroke-miterlimit="10" stroke-linecap="round" stroke-linejoin="round"/>
<path d="M54 10.5L51.5 15.4" stroke="#565555" stroke-width="2.5" stroke-miterlimit="10" stroke-linecap="round" stroke-linejoin="round"/>
<path d="M54.3 38.1998H46C45.4 38.1998 45 37.6998 45 37.1998V27.7998C45 27.1998 45.5 26.7998 46 26.7998H54.3C54.9 26.7998 55.3 27.2998 55.3 27.7998V37.1998C55.4 37.7998 54.9 38.1998 54.3 38.1998Z" stroke="#565555" stroke-width="2.5" stroke-miterlimit="10" stroke-linecap="round" stroke-linejoin="round"/>
<path d="M37.9004 75.1001H63.7004" stroke="#3090CF" stroke-width="2.5" stroke-miterlimit="10" stroke-linecap="round" stroke-linejoin="round"/>
<path d="M37.9004 81H55.2004" stroke="#3090CF" stroke-width="2.5" stroke-miterlimit="10" stroke-linecap="round" stroke-linejoin="round"/>
<path d="M49.7 57.2999C52.848 57.2999 55.4 54.7479 55.4 51.5999C55.4 48.4519 52.848 45.8999 49.7 45.8999C46.552 45.8999 44 48.4519 44 51.5999C44 54.7479 46.552 57.2999 49.7 57.2999Z" stroke="#3090CF" stroke-width="2.5" stroke-miterlimit="10" stroke-linecap="round" stroke-linejoin="round"/>
<path d="M40 68.3001C40 64.0001 43.3 61.1001 47.3 61.1001H52.7C56.7 61.1001 59.8 64.0001 59.8 68.3001" stroke="#3090CF" stroke-width="2.5" stroke-miterlimit="10" stroke-linecap="round" stroke-linejoin="round"/>
</svg>
