<svg width="320" height="793" viewBox="0 0 320 793" fill="none" xmlns="http://www.w3.org/2000/svg">
<path d="M230.016 193.937L228.969 193.937C227.937 193.945 226.703 193.945 225.078 193.617L225.078 195.562L223.875 195.562L223.875 189.875L221.484 189.875L221.484 194L216.672 194L216.672 192.516L220.297 192.516L220.297 184.062L221.484 184.062L221.484 188.391L223.875 188.391L223.875 182.75L225.078 182.75L225.078 192.125C226.648 192.453 227.812 192.469 228.812 192.469L228.812 184.359L230.016 184.359L230.016 193.937ZM230.672 207.164L225.094 207.164L225.094 209.336L223.859 209.336L223.859 207.164L216.687 207.164L216.687 205.68L230.672 205.68L230.672 207.164ZM220.422 196.274C222.172 199.782 224.703 201.688 227.969 201.992L227.969 196.977L229.203 196.977L229.203 203.508C225.156 203.492 221.539 201.711 219.266 197.102L220.422 196.274ZM230.656 224.993L220.047 224.993L220.047 223.509L221.391 223.509L221.391 220.696L222.437 220.696L222.437 223.509L230.656 223.509L230.656 224.993ZM224.266 213.29C224.289 215.876 224.312 219.368 224.687 222.352L223.625 222.446C223.422 221.251 223.297 219.993 223.211 218.759L220.484 218.759L220.484 217.274L223.133 217.274C223.078 215.915 223.078 214.61 223.078 213.477L224.266 213.29ZM227.656 214.384C229.141 214.376 230.125 215.79 230.125 217.868C230.125 219.915 229.141 221.337 227.656 221.337C226.164 221.337 225.219 219.915 225.219 217.868C225.219 215.798 226.164 214.376 227.656 214.384ZM216.969 215.227L221.078 215.227L221.078 216.696L218.172 216.696L218.172 225.337L216.969 225.337L216.969 215.227ZM227.656 215.79C226.828 215.782 226.312 216.626 226.312 217.868C226.312 219.063 226.828 219.923 227.656 219.931C228.492 219.923 229.031 219.063 229.016 217.868C229.031 216.626 228.492 215.782 227.656 215.79ZM227.344 231.767C225.578 231.767 223.953 233.087 223.281 235.236L222.109 234.517C222.617 232.907 223.68 231.697 225.047 231.056C223.586 230.447 222.437 229.236 221.891 227.579L223.047 226.861C223.734 229.001 225.461 230.298 227.344 230.298L227.672 230.298L227.672 227.251L228.875 227.251L228.875 230.298L230.578 230.298L230.578 231.782L228.875 231.782L228.875 234.814L227.672 234.814L227.672 231.767L227.344 231.767ZM216.969 229.439L221.156 229.439L221.156 230.923L218.172 230.923L218.172 238.907L216.969 238.907L216.969 229.439ZM225.219 234.329L226.422 234.329L226.422 237.048L230.656 237.048L230.656 238.532L220.234 238.532L220.234 237.048L225.219 237.048L225.219 234.329ZM230.672 252.009L216.672 252.009L216.672 250.509L230.672 250.509L230.672 252.009ZM220.422 240.509C222.195 244.228 224.719 246.048 227.984 246.337L227.984 241.181L229.172 241.181L229.172 247.837C225.07 247.837 221.523 246.095 219.219 241.291L220.422 240.509ZM230.141 261.018C228.531 261.025 227.18 263.244 226.875 265.971L225.75 265.455C226.031 263.158 227 261.15 228.43 260.252C227 259.346 226.031 257.338 225.75 255.064L226.875 254.549C227.18 257.283 228.531 259.494 230.141 259.502L230.609 259.502L230.609 261.018L230.141 261.018ZM223.75 253.877L224.937 253.877L224.937 266.643L223.75 266.643L223.75 260.986L222.5 260.986L222.5 265.033L219.187 265.033L219.187 256.877L217.953 256.877L217.953 265.424L216.812 265.424L216.812 255.424L220.266 255.424L220.266 263.564L221.359 263.564L221.359 255.408L222.5 255.408L222.5 259.502L223.75 259.502L223.75 253.877ZM230.656 281.987L226.5 281.987L226.5 283.987L225.281 283.987L225.281 281.987L221.234 281.987L221.234 280.503L230.656 280.503L230.656 281.987ZM222.797 270.878C222.797 271.963 222.797 273.221 222.828 274.534L223.773 274.534C223.953 272.94 224.703 271.924 225.828 271.94C227.109 271.924 227.906 273.26 227.891 275.268C227.906 277.276 227.109 278.588 225.828 278.596C224.711 278.588 223.961 277.596 223.773 276.018L222.883 276.018C222.945 277.268 223.047 278.534 223.219 279.706L222.156 279.831C221.633 276.823 221.609 273.503 221.609 271.034L222.797 270.878ZM228.359 271.237L229.469 271.237L229.469 274.534L230.781 274.534L230.781 276.018L229.469 276.018L229.469 279.315L228.359 279.315L228.359 271.237ZM219.422 272.628L220.578 272.628L220.578 281.987L216.672 281.987L216.672 280.503L219.422 280.503L219.422 272.628ZM225.828 273.346C225.172 273.346 224.742 274.073 224.75 275.268C224.742 276.448 225.172 277.182 225.828 277.174C226.5 277.182 226.891 276.448 226.875 275.268C226.891 274.073 226.5 273.346 225.828 273.346ZM219.641 297.292L218.406 297.292L218.406 284.479L219.641 284.479L219.641 290.12L222.516 290.12L222.516 285.948L229.719 285.948L229.719 287.432L227.312 287.432L227.312 294.307L229.719 294.307L229.719 295.776L222.516 295.776L222.516 291.589L219.641 291.589L219.641 297.292ZM223.719 287.432L223.719 294.307L226.109 294.307L226.109 287.432L223.719 287.432Z" fill="#333333"/>
<path d="M153.656 213.366L143.344 213.366L143.344 211.882L146.984 211.882L146.984 208.405C146.195 207.749 145.719 206.733 145.719 205.569C145.719 203.46 147.195 201.889 149.25 201.897C151.32 201.889 152.797 203.46 152.812 205.569C152.805 206.725 152.328 207.733 151.547 208.389L151.547 211.882L153.656 211.882L153.656 213.366ZM149.25 203.319C147.93 203.311 147.023 204.257 147.031 205.569C147.023 206.827 147.93 207.788 149.25 207.788C150.57 207.788 151.477 206.827 151.484 205.569C151.477 204.257 150.57 203.311 149.25 203.319ZM139.969 204.272L144.422 204.272L144.422 205.757L141.172 205.757L141.172 213.741L139.969 213.741L139.969 204.272ZM150.344 209.046C150 209.155 149.641 209.21 149.25 209.21C148.875 209.21 148.516 209.155 148.187 209.053L148.187 211.882L150.344 211.882L150.344 209.046ZM152.797 226.343L151.562 226.343C150.234 226.343 148.789 226.343 146.797 225.952L146.797 227.968L145.578 227.968L145.578 222.296L139.656 222.296L139.656 220.796L145.578 220.796L145.578 215.202L146.797 215.202L146.797 224.452C148.797 224.866 150.258 224.866 151.562 224.874L151.578 224.874L151.578 216.765L152.797 216.765L152.797 226.343ZM153.672 240.304L139.641 240.304L139.641 238.82L153.672 238.82L153.672 240.304ZM143 229.492L152.5 229.492L152.5 230.976L148.906 230.976L148.906 234.742L152.5 234.742L152.5 236.21L143 236.21L143 229.492ZM144.219 230.976L144.219 234.742L147.734 234.742L147.734 230.976L144.219 230.976ZM145.266 258.602L144.047 258.602L144.047 252.914L139.672 252.914L139.672 251.445L144.047 251.445L144.047 245.789L145.266 245.789L145.266 258.602ZM146.562 247.477L153.047 247.477L153.047 257.023L151.859 257.023L151.859 248.93L150.422 248.93L150.422 256.711L149.266 256.711L149.266 248.93L147.75 248.93L147.75 257.18L146.562 257.18L146.562 247.477ZM149.547 264.188C147.336 264.18 144.867 265.641 143.859 267.766L142.703 266.922C143.453 265.352 145.031 264.102 146.859 263.469C144.867 262.828 143.141 261.516 142.344 259.922L143.516 259.047C144.539 261.172 147.18 262.711 149.547 262.719L151.031 262.719L151.031 259.563L152.266 259.563L152.266 267.235L151.031 267.235L151.031 264.188L149.547 264.188ZM139.672 268.735L153.672 268.735L153.672 270.219L148.125 270.219L148.125 272.469L146.875 272.469L146.875 270.219L139.672 270.219L139.672 268.735ZM127.094 186.322C125.312 186.315 123.687 187.557 123.016 189.682L121.859 188.979C122.367 187.385 123.422 186.221 124.75 185.604C123.219 184.994 122.008 183.768 121.422 182.088L122.609 181.322C123.328 183.51 125.133 184.83 127.078 184.838L127.469 184.838L127.469 181.76L128.672 181.76L128.672 189.338L127.469 189.338L127.469 186.322L127.094 186.322ZM118.328 183.213C119.969 183.213 120.93 185.002 120.922 187.916C120.93 190.799 119.969 192.557 118.328 192.557C116.664 192.557 115.695 190.799 115.703 187.916C115.695 185.002 116.664 183.213 118.328 183.213ZM118.328 184.697C117.391 184.69 116.867 185.893 116.875 187.916C116.867 189.924 117.391 191.112 118.328 191.104C119.242 191.112 119.758 189.924 119.75 187.916C119.758 185.893 119.242 184.69 118.328 184.697ZM121.266 190.947L129.672 190.947L129.672 192.432L126.203 192.432L126.203 194.463L124.984 194.463L124.984 192.432L121.266 192.432L121.266 190.947ZM129.672 206.581L115.672 206.581L115.672 205.081L129.672 205.081L129.672 206.581ZM119.422 195.081C121.195 198.799 123.719 200.62 126.984 200.909L126.984 195.752L128.172 195.752L128.172 202.409C124.07 202.409 120.523 200.667 118.219 195.862L119.422 195.081ZM129.656 220.12L119.344 220.12L119.344 218.636L122.984 218.636L122.984 215.159C122.195 214.503 121.719 213.487 121.719 212.323C121.719 210.214 123.195 208.643 125.25 208.651C127.32 208.643 128.797 210.214 128.812 212.323C128.805 213.479 128.328 214.487 127.547 215.143L127.547 218.636L129.656 218.636L129.656 220.12ZM125.25 210.073C123.93 210.065 123.023 211.011 123.031 212.323C123.023 213.581 123.93 214.542 125.25 214.542C126.57 214.542 127.477 213.581 127.484 212.323C127.477 211.011 126.57 210.065 125.25 210.073ZM115.969 211.026L120.422 211.026L120.422 212.511L117.172 212.511L117.172 220.495L115.969 220.495L115.969 211.026ZM126.344 215.8C126 215.909 125.641 215.964 125.25 215.964C124.875 215.964 124.516 215.909 124.187 215.807L124.187 218.636L126.344 218.636L126.344 215.8ZM128.797 233.097L127.562 233.097C126.234 233.097 124.789 233.097 122.797 232.706L122.797 234.722L121.578 234.722L121.578 229.05L115.656 229.05L115.656 227.55L121.578 227.55L121.578 221.956L122.797 221.956L122.797 231.206C124.797 231.62 126.258 231.62 127.562 231.628L127.578 231.628L127.578 223.519L128.797 223.519L128.797 233.097ZM129.672 246.48L124.875 246.48L124.875 248.48L123.641 248.48L123.641 246.48L118.734 246.48L118.734 244.996L129.672 244.996L129.672 246.48ZM121.453 235.371C121.453 236.449 121.453 237.707 121.5 239.027L122.477 239.027C122.664 237.433 123.43 236.417 124.578 236.433C125.937 236.417 126.75 237.753 126.734 239.761C126.75 241.769 125.937 243.082 124.578 243.089C123.43 243.082 122.664 242.089 122.484 240.511L121.57 240.511C121.641 241.761 121.758 243.027 121.937 244.199L120.891 244.324C120.328 241.339 120.289 237.972 120.266 235.527L121.453 235.371ZM127.281 235.73L128.375 235.73L128.375 239.027L129.719 239.027L129.719 240.511L128.375 240.511L128.375 243.808L127.281 243.808L127.281 235.73ZM115.969 237.433L119.469 237.433L119.469 238.917L117.172 238.917L117.172 246.98L115.969 246.98L115.969 237.433ZM124.578 237.839C123.898 237.839 123.469 238.566 123.469 239.761C123.469 240.941 123.898 241.675 124.578 241.667C125.305 241.675 125.727 240.941 125.719 239.761C125.727 238.566 125.305 237.839 124.578 237.839ZM129.656 260.644L121.375 260.644L121.375 259.16L123.078 259.16L123.078 255.629L124.297 255.629L124.297 259.16L126 259.16L126 255.777C123.75 254.871 122.164 252.769 121.297 249.738L122.453 249.144C123.398 252.457 125.18 254.394 127.437 254.66L127.437 249.863L128.656 249.863L128.656 256.269C128.141 256.269 127.641 256.215 127.172 256.121L127.172 259.16L129.656 259.16L129.656 260.644ZM118.484 251.316C120.18 251.316 121.211 253.16 121.219 256.035C121.211 258.871 120.18 260.73 118.484 260.738C116.781 260.73 115.734 258.871 115.734 256.035C115.734 253.16 116.781 251.316 118.484 251.316ZM118.484 252.785C117.5 252.785 116.93 254.035 116.922 256.035C116.93 257.996 117.5 259.246 118.484 259.254C119.484 259.246 120.055 257.996 120.047 256.035C120.055 254.035 119.484 252.785 118.484 252.785ZM118.641 278.879L117.422 278.879L117.422 266.067L118.641 266.067L118.641 271.723L121.953 271.723L121.953 273.207L118.641 273.207L118.641 278.879ZM122.594 266.661C123.031 269.262 124.977 271.676 127.125 271.676L127.25 271.676L127.25 267.129L128.469 267.129L128.469 277.77L127.25 277.77L127.25 273.223L127.125 273.223C124.977 273.223 123.07 275.653 122.656 278.317L121.484 277.723C121.906 275.457 123.219 273.372 125.062 272.457C123.195 271.559 121.859 269.489 121.422 267.27L122.594 266.661ZM127.578 284.544C125.617 284.536 123.867 285.809 123.172 287.934L122.016 287.122C122.578 285.583 123.656 284.45 125.062 283.841C123.461 283.239 122.203 282.02 121.594 280.325L122.781 279.528C123.547 281.762 125.414 283.059 127.516 283.075L128.891 283.075L128.891 284.544L127.578 284.544ZM118.344 281.825C120.039 281.817 121.023 283.614 121.016 286.559C121.023 289.489 120.039 291.286 118.344 291.294C116.656 291.286 115.695 289.489 115.703 286.559C115.695 283.614 116.656 281.817 118.344 281.825ZM118.344 283.294C117.414 283.286 116.867 284.505 116.875 286.559C116.867 288.598 117.414 289.817 118.344 289.825C119.305 289.817 119.859 288.598 119.859 286.559C119.859 284.505 119.305 283.286 118.344 283.294ZM125.609 286.809L126.828 286.809L126.828 289.762L129.672 289.762L129.672 291.247L121.406 291.247L121.406 289.762L125.609 289.762L125.609 286.809Z" fill="#333333"/>
<path d="M129.672 512.702L115.672 512.702L115.672 511.202L129.672 511.202L129.672 512.702ZM119.422 501.202C121.195 504.921 123.719 506.741 126.984 507.03L126.984 501.874L128.172 501.874L128.172 508.53C124.07 508.53 120.523 506.788 118.219 501.983L119.422 501.202ZM129.141 521.71C127.531 521.718 126.18 523.937 125.875 526.663L124.75 526.148C125.031 523.851 126 521.843 127.43 520.945C126 520.038 125.031 518.031 124.75 515.757L125.875 515.242C126.18 517.976 127.531 520.187 129.141 520.195L129.609 520.195L129.609 521.71L129.141 521.71ZM122.75 514.57L123.937 514.57L123.937 527.335L122.75 527.335L122.75 521.679L121.5 521.679L121.5 525.726L118.187 525.726L118.187 517.57L116.953 517.57L116.953 526.117L115.812 526.117L115.812 516.117L119.266 516.117L119.266 524.257L120.359 524.257L120.359 516.101L121.5 516.101L121.5 520.195L122.75 520.195L122.75 514.57ZM129.656 539.75L121.375 539.75L121.375 538.265L123.078 538.265L123.078 534.734L124.297 534.734L124.297 538.265L126 538.265L126 534.882C123.75 533.976 122.164 531.875 121.297 528.843L122.453 528.25C123.398 531.562 125.18 533.5 127.437 533.765L127.437 528.968L128.656 528.968L128.656 535.375C128.141 535.375 127.641 535.32 127.172 535.226L127.172 538.265L129.656 538.265L129.656 539.75ZM118.484 530.422C120.18 530.422 121.211 532.265 121.219 535.14C121.211 537.976 120.18 539.836 118.484 539.843C116.781 539.836 115.734 537.976 115.734 535.14C115.734 532.265 116.781 530.422 118.484 530.422ZM118.484 531.89C117.5 531.89 116.93 533.14 116.922 535.14C116.93 537.101 117.5 538.351 118.484 538.359C119.484 538.351 120.055 537.101 120.047 535.14C120.055 533.14 119.484 531.89 118.484 531.89ZM126.875 545.82C125.203 545.805 123.727 546.711 123.047 548.492L121.906 547.711C122.398 546.453 123.305 545.602 124.453 545.125C123.164 544.625 122.094 543.703 121.531 542.367L122.687 541.555C123.469 543.43 125.156 544.391 126.875 544.383L127.344 544.383L127.344 541.898L128.547 541.898L128.547 548.211L127.344 548.211L127.344 545.82L126.875 545.82ZM118.266 544.102C119.875 544.086 120.828 545.906 120.828 548.836C120.828 551.758 119.875 553.594 118.266 553.602C116.656 553.594 115.695 551.758 115.703 548.836C115.695 545.906 116.656 544.086 118.266 544.102ZM118.266 545.57C117.352 545.555 116.852 546.797 116.844 548.836C116.852 550.867 117.352 552.109 118.266 552.117C119.156 552.109 119.687 550.867 119.687 548.836C119.687 546.797 119.156 545.555 118.266 545.57ZM121.562 549.102L129.406 549.102L129.406 550.523L126.047 550.523L126.047 552.117L129.656 552.117L129.656 553.523L121.125 553.523L121.125 552.117L124.828 552.117L124.828 550.523L121.562 550.523L121.562 549.102ZM128.828 561.766L124.75 561.766L124.75 557.141L122.812 557.141C122.812 559.578 122.867 560.907 123.156 562.485L121.953 562.625C121.664 560.914 121.617 559.477 121.609 556.688L121.609 555.672L125.875 555.672L125.875 560.282L127.641 560.282L127.641 555.657L128.828 555.657L128.828 561.766ZM119.141 557.266L120.344 557.266L120.344 566.766L115.656 566.766L115.656 565.282L119.141 565.282L119.141 557.266ZM123.516 562.657L124.703 562.657L124.703 565.282L126.437 565.282L126.437 562.657L127.625 562.657L127.625 565.282L129.656 565.282L129.656 566.766L121.047 566.766L121.047 565.282L123.516 565.282L123.516 562.657ZM129.656 583.204L125.5 583.204L125.5 585.204L124.281 585.204L124.281 583.204L120.234 583.204L120.234 581.72L129.656 581.72L129.656 583.204ZM121.797 572.095C121.797 573.181 121.797 574.438 121.828 575.751L122.773 575.751C122.953 574.157 123.703 573.142 124.828 573.157C126.109 573.142 126.906 574.477 126.891 576.485C126.906 578.493 126.109 579.806 124.828 579.813C123.711 579.806 122.961 578.813 122.773 577.235L121.883 577.235C121.945 578.485 122.047 579.751 122.219 580.923L121.156 581.048C120.633 578.04 120.609 574.72 120.609 572.251L121.797 572.095ZM127.359 572.454L128.469 572.454L128.469 575.751L129.781 575.751L129.781 577.235L128.469 577.235L128.469 580.532L127.359 580.532L127.359 572.454ZM118.422 573.845L119.578 573.845L119.578 583.204L115.672 583.204L115.672 581.72L118.422 581.72L118.422 573.845ZM124.828 574.563C124.172 574.563 123.742 575.29 123.75 576.485C123.742 577.665 124.172 578.399 124.828 578.392C125.5 578.399 125.891 577.665 125.875 576.485C125.891 575.29 125.5 574.563 124.828 574.563ZM118.641 598.509L117.406 598.509L117.406 585.697L118.641 585.697L118.641 591.337L121.516 591.337L121.516 587.165L128.719 587.165L128.719 588.65L126.312 588.65L126.312 595.525L128.719 595.525L128.719 596.993L121.516 596.993L121.516 592.806L118.641 592.806L118.641 598.509ZM122.719 588.65L122.719 595.525L125.109 595.525L125.109 588.65L122.719 588.65Z" fill="#333333"/>
<path d="M218 498.107L229.312 498.107L229.312 502.139C229.312 504.772 227.852 506.061 225.766 506.061C224.242 506.061 223.094 505.373 222.57 503.998L218 506.498L218 504.545L222.266 502.248L222.266 502.139L222.266 499.826L218 499.826L218 498.107ZM223.75 499.826L223.75 501.967C223.758 503.631 224.492 504.326 225.766 504.326C227.039 504.326 227.836 503.631 227.844 501.967L227.844 499.826L223.75 499.826ZM217.844 510.803C217.844 508.53 219.187 507.131 221 507.131C222.359 507.131 223.187 508.022 224.07 509.319C224.945 508.6 225.742 508.077 226.75 508.069C228.32 508.077 229.437 509.202 229.437 510.928C229.437 512.67 228.297 513.741 226.969 513.741C225.891 513.741 225.102 513.178 224.422 512.241L223.852 511.459L221.148 513.725C221.711 514.014 222.383 514.194 223.141 514.194L223.141 515.694C221.57 515.694 220.562 515.241 219.922 514.748L218 516.366L218 514.491L218.898 513.725C218.18 512.952 217.844 511.827 217.844 510.803ZM221.047 508.803C220.078 508.795 219.25 509.592 219.25 510.819C219.25 511.506 219.516 512.209 219.992 512.787L222.961 510.256L222.75 509.975C222.094 509.084 221.406 508.795 221.047 508.803ZM226.734 509.631C226.156 509.631 225.578 510.037 224.945 510.553L225.437 511.241C225.844 511.858 226.258 512.225 226.922 512.225C227.453 512.225 228.047 511.725 228.047 510.959C228.039 510.178 227.383 509.631 226.734 509.631ZM218 520.952L218 517.28L229.312 517.28L229.312 521.061C229.312 524.397 227.195 526.382 223.672 526.389C220.141 526.382 218 524.397 218 520.952ZM219.5 518.999L219.5 520.858C219.508 523.421 221 524.686 223.672 524.686C226.336 524.686 227.812 523.421 227.812 520.952L227.812 518.999L219.5 518.999ZM227.984 535.234C226.453 535.234 224.906 536.21 224.219 538.031L223.078 537.249C223.578 535.945 224.531 535.031 225.68 534.531C224.383 534.015 223.258 533.062 222.672 531.702L223.828 530.89C224.648 532.781 226.43 533.796 227.984 533.796L229.797 533.796L229.797 535.234L227.984 535.234ZM219.234 533.468C220.828 533.452 221.773 535.273 221.781 538.202C221.773 541.124 220.828 542.96 219.234 542.968C217.641 542.96 216.695 541.124 216.703 538.202C216.695 535.273 217.641 533.452 219.234 533.468ZM219.234 534.937C218.344 534.921 217.828 536.163 217.844 538.202C217.828 540.234 218.344 541.476 219.234 541.484C220.133 541.476 220.648 540.234 220.641 538.202C220.648 536.163 220.133 534.921 219.234 534.937ZM222.484 538.468L230.406 538.468L230.406 539.843L227.016 539.843L227.016 541.484L230.656 541.484L230.656 542.89L222.047 542.89L222.047 541.484L225.797 541.484L225.797 539.843L222.484 539.843L222.484 538.468ZM229.109 550.601L227.922 550.601L227.922 546.414L225.422 546.414L225.422 550.367L224.25 550.367L224.25 546.414L221.297 546.414C221.312 548.312 221.375 549.562 221.625 551.039L220.406 551.164C220.109 549.523 220.047 548.164 220.047 545.929L220.047 544.992L229.109 544.992L229.109 550.601ZM217.359 551.976L230.406 551.976L230.406 553.398L225.109 553.398L225.109 555.086L230.672 555.086L230.672 556.507L216.672 556.507L216.672 555.086L223.906 555.086L223.906 553.398L217.359 553.398L217.359 551.976ZM230.672 570L216.672 570L216.672 568.594L230.672 568.594L230.672 570ZM220.719 557.891C222.484 560.867 224.836 562.289 227.719 562.547L227.719 558.578L228.937 558.578L228.937 564.016C228.219 564.016 227.523 563.961 226.844 563.852L226.844 565.734L230.312 565.734L230.312 567.141L217.359 567.141L217.359 565.734L222.125 565.734L222.125 563.344L223.344 563.344L223.344 565.734L225.625 565.734L225.625 563.578C223.273 562.898 221.227 561.406 219.656 558.766L220.719 557.891ZM219.641 587.876L218.422 587.876L218.422 575.063L219.641 575.063L219.641 580.719L222.953 580.719L222.953 582.204L219.641 582.204L219.641 587.876ZM223.594 575.657C224.031 578.258 225.977 580.672 228.125 580.672L228.25 580.672L228.25 576.126L229.469 576.126L229.469 586.766L228.25 586.766L228.25 582.219L228.125 582.219C225.977 582.219 224.07 584.649 223.656 587.313L222.484 586.719C222.906 584.454 224.219 582.368 226.062 581.454C224.195 580.555 222.859 578.485 222.422 576.266L223.594 575.657ZM228.578 593.54C226.617 593.532 224.867 594.806 224.172 596.931L223.016 596.118C223.578 594.579 224.656 593.446 226.062 592.837C224.461 592.235 223.203 591.017 222.594 589.321L223.781 588.524C224.547 590.759 226.414 592.056 228.516 592.071L229.891 592.071L229.891 593.54L228.578 593.54ZM219.344 590.821C221.039 590.813 222.023 592.61 222.016 595.556C222.023 598.485 221.039 600.282 219.344 600.29C217.656 600.282 216.695 598.485 216.703 595.556C216.695 592.61 217.656 590.813 219.344 590.821ZM219.344 592.29C218.414 592.282 217.867 593.501 217.875 595.556C217.867 597.595 218.414 598.813 219.344 598.821C220.305 598.813 220.859 597.595 220.859 595.556C220.859 593.501 220.305 592.282 219.344 592.29ZM226.609 595.806L227.828 595.806L227.828 598.759L230.672 598.759L230.672 600.243L222.406 600.243L222.406 598.759L226.609 598.759L226.609 595.806Z" fill="#333333"/>
<path d="M159.223 480.94C112.006 480.94 73.7289 442.684 73.7289 395.493C73.7289 348.302 112.006 310.045 159.223 310.045C206.44 310.045 244.717 348.302 244.717 395.493C244.717 442.684 206.44 480.94 159.223 480.94Z" stroke="#39A3ED"/>
<ellipse cx="159.223" cy="395.493" rx="61.7748" ry="61.8082" transform="rotate(90 159.223 395.493)" fill="#0094EA"/>
<ellipse cx="157.878" cy="709.067" rx="61.7748" ry="61.8082" transform="rotate(90 157.878 709.067)" fill="#0094EA"/>
<path d="M243.202 691.28L254.624 689.586L247.446 680.541L243.202 691.28ZM292.589 199.596L292.589 591.732L294.589 591.732L294.589 199.596L292.589 199.596ZM292.589 591.732C292.589 629.036 275.913 662.446 249.602 684.925L250.901 686.446C277.638 663.603 294.589 629.646 294.589 591.732L292.589 591.732ZM294.589 199.596C294.589 158.423 274.599 121.917 243.795 99.243L242.609 100.854C272.924 123.167 292.589 159.086 292.589 199.596L294.589 199.596Z" fill="#0094EA"/>
<rect x="320" y="293.841" width="198.893" height="47" rx="23.5" transform="rotate(90 320 293.841)" fill="white"/>
<path d="M305.656 331.133L295.047 331.133L295.047 329.649L296.391 329.649L296.391 326.836L297.437 326.836L297.437 329.649L305.656 329.649L305.656 331.133ZM299.266 319.43C299.289 322.016 299.312 325.508 299.687 328.493L298.625 328.586C298.422 327.391 298.297 326.133 298.211 324.899L295.484 324.899L295.484 323.415L298.133 323.415C298.078 322.055 298.078 320.751 298.078 319.618L299.266 319.43ZM302.656 320.524C304.141 320.516 305.125 321.93 305.125 324.008C305.125 326.055 304.141 327.477 302.656 327.477C301.164 327.477 300.219 326.055 300.219 324.008C300.219 321.938 301.164 320.516 302.656 320.524ZM291.969 321.368L296.078 321.368L296.078 322.836L293.172 322.836L293.172 331.477L291.969 331.477L291.969 321.368ZM302.656 321.93C301.828 321.922 301.312 322.766 301.312 324.008C301.312 325.204 301.828 326.063 302.656 326.071C303.492 326.063 304.031 325.204 304.016 324.008C304.031 322.766 303.492 321.922 302.656 321.93ZM302.344 337.907C300.578 337.907 298.953 339.227 298.281 341.376L297.109 340.657C297.617 339.048 298.68 337.837 300.047 337.196C298.586 336.587 297.437 335.376 296.891 333.72L298.047 333.001C298.734 335.141 300.461 336.438 302.344 336.438L302.672 336.438L302.672 333.391L303.875 333.391L303.875 336.438L305.578 336.438L305.578 337.923L303.875 337.923L303.875 340.954L302.672 340.954L302.672 337.907L302.344 337.907ZM291.969 335.579L296.156 335.579L296.156 337.063L293.172 337.063L293.172 345.048L291.969 345.048L291.969 335.579ZM300.219 340.47L301.422 340.47L301.422 343.188L305.656 343.188L305.656 344.673L295.234 344.673L295.234 343.188L300.219 343.188L300.219 340.47ZM305.672 358.15L291.672 358.15L291.672 356.65L305.672 356.65L305.672 358.15ZM295.422 346.65C297.195 350.368 299.719 352.189 302.984 352.478L302.984 347.321L304.172 347.321L304.172 353.978C300.07 353.978 296.523 352.236 294.219 347.431L295.422 346.65ZM305.141 367.158C303.531 367.166 302.18 369.384 301.875 372.111L300.75 371.595C301.031 369.298 302 367.291 303.43 366.392C302 365.486 301.031 363.478 300.75 361.205L301.875 360.689C302.18 363.423 303.531 365.634 305.141 365.642L305.609 365.642L305.609 367.158L305.141 367.158ZM298.75 360.017L299.937 360.017L299.937 372.783L298.75 372.783L298.75 367.126L297.5 367.126L297.5 371.173L294.187 371.173L294.187 363.017L292.953 363.017L292.953 371.564L291.812 371.564L291.812 361.564L295.266 361.564L295.266 369.705L296.359 369.705L296.359 361.548L297.5 361.548L297.5 365.642L298.75 365.642L298.75 360.017ZM292.844 377.322C292.844 375.049 294.187 373.65 296 373.65C297.359 373.65 298.187 374.541 299.07 375.838C299.945 375.119 300.742 374.596 301.75 374.588C303.32 374.596 304.437 375.721 304.437 377.447C304.437 379.189 303.297 380.26 301.969 380.26C300.891 380.26 300.102 379.697 299.422 378.76L298.852 377.978L296.148 380.244C296.711 380.533 297.383 380.713 298.141 380.713L298.141 382.213C296.57 382.213 295.562 381.76 294.922 381.267L293 382.885L293 381.01L293.898 380.244C293.18 379.471 292.844 378.346 292.844 377.322ZM296.047 375.322C295.078 375.314 294.25 376.111 294.25 377.338C294.25 378.025 294.516 378.728 294.992 379.306L297.961 376.775L297.75 376.494C297.094 375.603 296.406 375.314 296.047 375.322ZM301.734 376.15C301.156 376.15 300.578 376.556 299.945 377.072L300.437 377.76C300.844 378.377 301.258 378.744 301.922 378.744C302.453 378.744 303.047 378.244 303.047 377.478C303.039 376.697 302.383 376.15 301.734 376.15ZM305.656 394.83L295.406 394.83L295.406 393.346L300.672 393.346L300.672 390.674L301.875 390.674L301.875 393.346L305.656 393.346L305.656 394.83ZM298.328 383.174C299.055 385.322 300.898 386.666 302.828 386.658L303.375 386.658L303.375 383.627L304.594 383.627L304.594 391.174L303.375 391.174L303.375 388.174L302.828 388.174C301.086 388.166 299.328 389.432 298.625 391.549L297.437 390.783C297.984 389.213 299.109 388.049 300.5 387.44C298.953 386.83 297.719 385.604 297.125 383.94L298.328 383.174ZM291.969 385.736L296.328 385.736L296.328 387.221L293.172 387.221L293.172 395.205L291.969 395.205L291.969 385.736ZM298.594 409.463L297.391 409.463L297.391 403.901L294.672 403.901L294.672 402.432L297.391 402.432L297.391 396.651L298.594 396.651L298.594 409.463ZM291.969 398.245L296 398.245L296 399.729L293.172 399.729L293.172 408.041L291.969 408.041L291.969 398.245ZM300.047 398.291L305.016 398.291L305.016 407.807L300.047 407.807L300.047 398.291ZM301.219 399.745L301.219 406.338L303.844 406.338L303.844 399.745L301.219 399.745ZM305.656 421.784L295.484 421.784L295.484 420.3L305.656 420.3L305.656 421.784ZM301.25 410.456C303.273 410.464 304.711 412.073 304.719 414.19C304.711 416.3 303.273 417.909 301.25 417.909C299.195 417.909 297.766 416.3 297.766 414.19C297.766 412.073 299.195 410.464 301.25 410.456ZM301.25 411.909C299.93 411.901 299.062 412.886 299.062 414.19C299.062 415.471 299.93 416.456 301.25 416.456C302.539 416.456 303.422 415.471 303.422 414.19C303.422 412.886 302.539 411.901 301.25 411.909ZM291.969 412.628L296.516 412.628L296.516 414.128L293.172 414.128L293.172 422.206L291.969 422.206L291.969 412.628ZM304.828 430.355L300.75 430.355L300.75 425.73L298.812 425.73C298.812 428.167 298.867 429.495 299.156 431.073L297.953 431.214C297.664 429.503 297.617 428.066 297.609 425.276L297.609 424.261L301.875 424.261L301.875 428.87L303.641 428.87L303.641 424.245L304.828 424.245L304.828 430.355ZM295.141 425.855L296.344 425.855L296.344 435.355L291.656 435.355L291.656 433.87L295.141 433.87L295.141 425.855ZM299.516 431.245L300.703 431.245L300.703 433.87L302.437 433.87L302.437 431.245L303.625 431.245L303.625 433.87L305.656 433.87L305.656 435.355L297.047 435.355L297.047 433.87L299.516 433.87L299.516 431.245ZM296.875 447.09C296.875 450.121 295.914 452.035 294.281 452.043C292.656 452.035 291.695 450.121 291.703 447.09C291.695 444.09 292.656 442.168 294.281 442.168C295.914 442.168 296.875 444.09 296.875 447.09ZM298.031 440.793L299.234 440.793L299.234 445.902L301.859 445.902L301.859 447.355L299.234 447.355L299.234 453.527L298.031 453.527L298.031 440.793ZM303.797 442.277L304.984 442.277L304.984 451.933L303.812 451.933C302.695 451.941 301.539 451.941 300.094 451.543L300.25 450.09C301.68 450.465 302.711 450.465 303.797 450.465L303.797 442.277ZM294.281 443.652C293.375 443.636 292.852 444.972 292.844 447.09C292.852 449.23 293.375 450.558 294.281 450.574C295.203 450.558 295.742 449.23 295.75 447.09C295.742 444.972 295.203 443.636 294.281 443.652ZM297.687 457.379L295.937 457.379L295.937 463.988L297.687 463.988L297.687 465.441L291.844 465.441L291.844 455.91L297.687 455.91L297.687 457.379ZM298.828 454.285L300.031 454.285L300.031 463.652C301.633 463.988 302.82 464.004 303.844 464.004L303.844 455.895L305.062 455.895L305.062 465.473L304 465.473C302.937 465.481 301.727 465.481 300.031 465.113L300.031 467.098L298.828 467.098L298.828 454.285ZM293.062 457.379L293.062 463.988L294.781 463.988L294.781 457.379L293.062 457.379Z" fill="#333333"/>
<path d="M158.073 390.423L158.073 399.862L156.121 399.862L156.121 395.978L153.414 395.978L153.414 394.378L156.121 394.378L156.121 390.423L158.073 390.423ZM144.713 398.28C147.271 397.401 148.616 395.266 148.616 393.165L148.616 393.042L145.311 393.042L145.311 391.46L153.889 391.46L153.889 393.042L150.602 393.042L150.602 393.147C150.602 395.081 151.885 397.032 154.346 397.858L153.362 399.405C151.595 398.808 150.347 397.595 149.644 396.101C148.95 397.788 147.622 399.159 145.733 399.827L144.713 398.28ZM147.297 403.29C147.28 401.383 149.345 400.267 152.694 400.267C156.06 400.267 158.117 401.383 158.125 403.29C158.117 405.197 156.06 406.305 152.694 406.313C149.345 406.305 147.28 405.197 147.297 403.29ZM149.231 403.29C149.222 404.274 150.488 404.811 152.694 404.802C154.917 404.811 156.174 404.274 156.174 403.29C156.174 402.297 154.917 401.761 152.694 401.761C150.488 401.761 149.222 402.297 149.231 403.29ZM174.465 399.669L174.465 401.216L168.136 401.216L168.136 406.313L166.203 406.313L166.203 401.216L159.945 401.216L159.945 399.669L174.465 399.669ZM161.703 398.017L161.703 391.056L163.636 391.056L163.636 393.007L170.738 393.007L170.738 391.056L172.707 391.056L172.707 398.017L161.703 398.017ZM163.636 396.435L170.738 396.435L170.738 394.554L163.636 394.554L163.636 396.435Z" fill="white"/>
<path d="M159.223 171.395C112.006 171.395 73.7289 133.139 73.7289 85.9475C73.7289 38.7564 112.006 0.499994 159.223 0.499996C206.44 0.499998 244.717 38.7564 244.717 85.9475C244.717 133.139 206.44 171.395 159.223 171.395Z" stroke="#39A3ED"/>
<ellipse cx="159.192" cy="85.7619" rx="61.7748" ry="61.8082" transform="rotate(90 159.192 85.7619)" fill="#5FB3EF"/>
<path d="M142.261 80.6509L142.261 92.3052L140.31 92.3052L140.31 88.3677L136.521 88.3677C135.766 89.2202 134.641 89.73 133.366 89.7388C130.967 89.73 129.165 88.0249 129.165 85.6782C129.165 83.3052 130.967 81.6089 133.366 81.6001C134.632 81.6089 135.757 82.1099 136.513 82.9536L140.31 82.9536L140.31 80.6509L142.261 80.6509ZM131.028 85.6782C131.028 87.0933 132.004 87.9985 133.366 87.9985C134.667 87.9985 135.66 87.0933 135.669 85.6782C135.66 84.2544 134.667 83.3403 133.366 83.3403C132.004 83.3403 131.028 84.2544 131.028 85.6782ZM131.837 96.2075L131.837 91.1099L133.788 91.1099L133.788 94.6255L142.665 94.6255L142.665 96.2075L131.837 96.2075ZM137.374 84.5356C137.471 84.896 137.532 85.2739 137.532 85.6782C137.532 86.0649 137.479 86.4341 137.383 86.7856L140.31 86.7856L140.31 84.5356L137.374 84.5356ZM156.86 81.6001L156.86 83.0239C156.851 84.5093 156.851 86.1353 156.438 88.3853L158.635 88.3853L158.635 89.9673L152.325 89.9673L152.325 96.5415L150.356 96.5415L150.356 89.9673L144.151 89.9673L144.151 88.3853L154.451 88.3853C154.891 86.2231 154.909 84.5972 154.909 83.1821L145.856 83.1821L145.856 81.6001L156.86 81.6001ZM172.619 80.6333L172.619 96.5239L170.65 96.5239L170.65 80.6333L172.619 80.6333ZM159.453 92.147C163.619 90.1694 165.535 87.48 165.886 83.8677L160.261 83.8677L160.261 82.3208L167.873 82.3208C167.873 87.0493 166.036 91.0659 160.472 93.7114L159.453 92.147ZM183.421 81.811L183.421 82.7603C183.403 83.8413 183.403 85.4233 183.034 87.436L181.101 87.2603C181.417 85.6255 181.479 84.4038 181.496 83.4282L175.317 83.4282L175.317 81.811L183.421 81.811ZM174.368 88.7017C175.309 88.6929 176.363 88.6841 177.48 88.6665L177.48 85.4321L179.413 85.4321L179.413 88.605C181.057 88.5347 182.744 88.4116 184.282 88.1919L184.388 89.5981C181.083 90.1958 177.33 90.2573 174.544 90.2661L174.368 88.7017ZM176.741 96.2075L176.741 91.479L178.71 91.479L178.71 94.6255L187.728 94.6255L187.728 96.2075L176.741 96.2075ZM185.214 92.5337L185.214 80.6333L187.218 80.6333L187.218 85.5903L189.274 85.5903L189.274 87.2251L187.218 87.2251L187.218 92.5337L185.214 92.5337Z" fill="white"/>
<path d="M158.979 696.862C156.202 696.839 153.542 698.596 152.464 701.925L150.401 700.565C151.198 698.221 152.792 696.546 154.831 695.62C152.581 694.682 150.823 692.936 149.956 690.464L152.019 689.01C153.155 692.491 155.991 694.237 159.003 694.237L161.417 694.237L161.417 696.862L158.979 696.862ZM141.964 692.409L148.69 692.409L148.69 695.081L144.073 695.081L144.073 706.823L141.964 706.823L141.964 692.409ZM147.167 703.378L162.729 703.378L162.729 705.979L156.472 705.979L156.472 708.932L154.269 708.932L154.269 705.979L147.167 705.979L147.167 703.378ZM161.792 715.413C161.804 718.155 160.222 720.312 157.901 720.839L157.901 724.671L162.729 724.671L162.729 727.273L151.362 727.273L151.362 724.671L155.792 724.671L155.792 720.863C153.413 720.359 151.808 718.179 151.808 715.413C151.808 712.167 153.894 709.812 156.823 709.812C159.718 709.812 161.804 712.167 161.792 715.413ZM156.823 712.296C155.124 712.296 153.999 713.585 154.011 715.413C153.999 717.195 155.124 718.472 156.823 718.484C158.522 718.472 159.624 717.195 159.612 715.413C159.624 713.585 158.522 712.296 156.823 712.296ZM141.8 713.304L150.378 713.304L150.378 715.882L148.128 715.882L148.128 724.671L150.378 724.671L150.378 727.273L141.8 727.273L141.8 713.304ZM143.909 715.882L143.909 724.671L146.112 724.671L146.112 715.882L143.909 715.882ZM130.729 717.681L109.542 717.681L109.542 715.196L130.729 715.196L130.729 717.681ZM115.87 699.188C118.46 703.571 121.776 705.587 126.042 705.985L126.042 700.313L128.151 700.313L128.151 708.563C127.085 708.563 126.042 708.493 125.034 708.341L125.034 710.813L130.214 710.813L130.214 713.298L110.55 713.298L110.55 710.813L117.628 710.813L117.628 707.509L119.761 707.509L119.761 710.813L122.901 710.813L122.901 707.895C119.386 706.888 116.362 704.685 114.019 700.712L115.87 699.188Z" fill="white"/>
<path d="M73.2285 100.048L61.8063 101.742L68.9839 110.787L73.2285 100.048ZM23.8414 591.732L23.8414 199.596L21.8414 199.596L21.8414 591.732L23.8414 591.732ZM73.8213 690.474C43.5068 668.161 23.8414 632.242 23.8414 591.732L21.8414 591.732C21.8414 632.905 41.8314 669.411 72.6357 692.085L73.8213 690.474ZM23.8414 199.596C23.8414 162.292 40.5169 128.882 66.8279 106.403L65.5288 104.882C38.7922 127.725 21.8414 161.683 21.8414 199.596L23.8414 199.596Z" fill="#0094EA"/>
<path d="M159.223 792.5C112.006 792.5 73.7289 754.244 73.7289 707.053C73.7289 659.861 112.006 621.605 159.223 621.605C206.44 621.605 244.717 659.861 244.717 707.053C244.717 754.244 206.44 792.5 159.223 792.5Z" stroke="#39A3ED"/>
<ellipse cx="159.223" cy="707.053" rx="61.7748" ry="61.8082" transform="rotate(90 159.223 707.053)" fill="#5FB3EF"/>
<path d="M141.643 704.795C141.626 706.878 142.944 708.874 145.44 709.682L144.421 711.229C142.663 710.631 141.406 709.436 140.712 707.907C140.008 709.594 138.699 710.913 136.844 711.563L135.755 710.016C138.365 709.164 139.674 707.037 139.674 704.778L139.674 702.967L141.643 702.967L141.643 704.795ZM138.303 717.557L138.303 712.512L140.307 712.512L140.307 715.975L149.114 715.975L149.114 717.557L138.303 717.557ZM146.53 713.655L146.53 701.983L148.481 701.983L148.481 706.676L150.696 706.676L150.696 708.329L148.481 708.329L148.481 713.655L146.53 713.655ZM155.557 702.686C157.613 702.677 159.23 703.864 159.626 705.604L162.5 705.604L162.5 701.983L164.451 701.983L164.451 710.508L162.5 710.508L162.5 707.186L159.644 707.186C159.266 708.97 157.631 710.174 155.557 710.174C153.122 710.174 151.355 708.61 151.355 706.413C151.355 704.242 153.122 702.677 155.557 702.686ZM153.219 706.413C153.219 707.687 154.186 708.531 155.557 708.522C156.893 708.531 157.851 707.687 157.859 706.413C157.851 705.138 156.893 704.312 155.557 704.321C154.186 704.312 153.219 705.138 153.219 706.413ZM153.975 717.68L153.975 711.247L155.908 711.247L155.908 712.934L162.5 712.934L162.5 711.247L164.451 711.247L164.451 717.68L153.975 717.68ZM155.908 716.098L162.5 716.098L162.5 714.446L155.908 714.446L155.908 716.098ZM180.052 701.983L180.052 717.874L178.189 717.874L178.189 701.983L180.052 701.983ZM166.183 713.127C169.47 711.185 170.982 708.698 171.281 705.499L167.027 705.499L167.027 703.917L173.214 703.917C173.214 704.716 173.161 705.499 173.047 706.254L174.902 706.254L174.902 702.37L176.765 702.37L176.765 717.118L174.902 717.118L174.902 711.809L172.423 711.809L172.423 710.209L174.902 710.209L174.902 707.854L172.713 707.854C171.957 710.491 170.305 712.758 167.326 714.516L166.183 713.127Z" fill="white"/>
<rect x="47" y="233.874" width="323.825" height="47" rx="23.5" transform="rotate(90 47 233.874)" fill="white"/>
<path d="M32.6562 274.192L22.3437 274.192L22.3437 272.708L25.9844 272.708L25.9844 269.231C25.1953 268.575 24.7187 267.559 24.7187 266.395C24.7187 264.286 26.1953 262.716 28.25 262.724C30.3203 262.716 31.7969 264.286 31.8125 266.395C31.8047 267.552 31.3281 268.559 30.5469 269.216L30.5469 272.708L32.6562 272.708L32.6562 274.192ZM28.25 264.145C26.9297 264.138 26.0234 265.083 26.0312 266.395C26.0234 267.653 26.9297 268.614 28.25 268.614C29.5703 268.614 30.4766 267.653 30.4844 266.395C30.4766 265.083 29.5703 264.138 28.25 264.145ZM18.9687 265.099L23.4219 265.099L23.4219 266.583L20.1719 266.583L20.1719 274.567L18.9687 274.567L18.9687 265.099ZM29.3437 269.872C29 269.981 28.6406 270.036 28.25 270.036C27.875 270.036 27.5156 269.981 27.1875 269.88L27.1875 272.708L29.3437 272.708L29.3437 269.872ZM31.7969 287.169L30.5625 287.169C29.2344 287.169 27.7891 287.169 25.7969 286.779L25.7969 288.794L24.5781 288.794L24.5781 283.122L18.6562 283.122L18.6562 281.622L24.5781 281.622L24.5781 276.029L25.7969 276.029L25.7969 285.279C27.7969 285.693 29.2578 285.693 30.5625 285.7L30.5781 285.7L30.5781 277.591L31.7969 277.591L31.7969 287.169ZM32.6719 301.13L18.6406 301.13L18.6406 299.646L32.6719 299.646L32.6719 301.13ZM22 290.318L31.5 290.318L31.5 291.802L27.9062 291.802L27.9062 295.568L31.5 295.568L31.5 297.037L22 297.037L22 290.318ZM23.2187 291.802L23.2187 295.568L26.7344 295.568L26.7344 291.802L23.2187 291.802ZM24.2656 319.428L23.0469 319.428L23.0469 313.74L18.6719 313.74L18.6719 312.272L23.0469 312.272L23.0469 306.615L24.2656 306.615L24.2656 319.428ZM25.5625 308.303L32.0469 308.303L32.0469 317.85L30.8594 317.85L30.8594 309.756L29.4219 309.756L29.4219 317.537L28.2656 317.537L28.2656 309.756L26.75 309.756L26.75 318.006L25.5625 318.006L25.5625 308.303ZM28.5469 325.014C26.3359 325.006 23.8672 326.467 22.8594 328.592L21.7031 327.749C22.4531 326.178 24.0312 324.928 25.8594 324.295C23.8672 323.655 22.1406 322.342 21.3437 320.749L22.5156 319.874C23.5391 321.999 26.1797 323.538 28.5469 323.545L30.0312 323.545L30.0312 320.389L31.2656 320.389L31.2656 328.061L30.0312 328.061L30.0312 325.014L28.5469 325.014ZM18.6719 329.561L32.6719 329.561L32.6719 331.045L27.125 331.045L27.125 333.295L25.875 333.295L25.875 331.045L18.6719 331.045L18.6719 329.561ZM31.7812 344.624L26.0312 344.624L26.0312 337.968L31.7812 337.968L31.7812 344.624ZM19.8594 338.89C20.1094 341.437 21.3828 343.429 22.6406 343.53L22.6406 339.452L23.7656 339.452L23.7656 343.562L25.0781 343.562L25.0781 345.03L23.7656 345.03L23.7656 349.155L22.6406 349.155L22.6406 345.062C21.4219 345.163 20.1406 347.109 19.8594 349.655L18.7187 349.155C18.9844 346.96 19.9219 345.148 21.1562 344.304C19.9062 343.444 18.9844 341.609 18.7187 339.405L19.8594 338.89ZM27.1875 339.421L27.1875 343.155L30.5937 343.155L30.5937 339.421L27.1875 339.421ZM24.6719 347.359L32.6719 347.359L32.6719 348.827L24.6719 348.827L24.6719 347.359ZM32.0312 358.203C32.0469 360.047 30.9766 361.476 29.4062 361.781L29.4062 364.515L32.6719 364.515L32.6719 366L25.1562 366L25.1562 364.515L28.1875 364.515L28.1875 361.789C26.5781 361.5 25.5 360.062 25.5 358.203C25.5 356.062 26.8516 354.523 28.7812 354.531C30.6875 354.523 32.0469 356.062 32.0312 358.203ZM28.7812 355.953C27.5859 355.945 26.75 356.883 26.75 358.203C26.75 359.5 27.5859 360.422 28.7812 360.422C29.9844 360.422 30.8047 359.5 30.7969 358.203C30.8047 356.883 29.9844 355.945 28.7812 355.953ZM18.8437 356.875L24.4844 356.875L24.4844 358.344L22.8594 358.344L22.8594 364.515L24.4844 364.515L24.4844 366L18.8437 366L18.8437 356.875ZM20.0625 358.344L20.0625 364.515L21.6875 364.515L21.6875 358.344L20.0625 358.344ZM32.6719 379.867L18.6719 379.867L18.6719 378.461L32.6719 378.461L32.6719 379.867ZM22.7187 367.758C24.4844 370.734 26.8359 372.156 29.7187 372.414L29.7187 368.445L30.9375 368.445L30.9375 373.883C30.2187 373.883 29.5234 373.828 28.8437 373.719L28.8437 375.602L32.3125 375.602L32.3125 377.008L19.3594 377.008L19.3594 375.602L24.125 375.602L24.125 373.211L25.3437 373.211L25.3437 375.602L27.625 375.602L27.625 373.445C25.2734 372.766 23.2266 371.274 21.6562 368.633L22.7187 367.758ZM32.6562 396.602L22.4062 396.602L22.4062 395.118L27.6719 395.118L27.6719 392.446L28.875 392.446L28.875 395.118L32.6562 395.118L32.6562 396.602ZM25.3281 384.946C26.0547 387.094 27.8984 388.438 29.8281 388.43L30.375 388.43L30.375 385.399L31.5937 385.399L31.5937 392.946L30.375 392.946L30.375 389.946L29.8281 389.946C28.0859 389.938 26.3281 391.204 25.625 393.321L24.4375 392.555C24.9844 390.985 26.1094 389.821 27.5 389.212C25.9531 388.602 24.7187 387.376 24.125 385.712L25.3281 384.946ZM18.9687 387.509L23.3281 387.509L23.3281 388.993L20.1719 388.993L20.1719 396.977L18.9687 396.977L18.9687 387.509ZM25.5937 411.235L24.3906 411.235L24.3906 405.673L21.6719 405.673L21.6719 404.204L24.3906 404.204L24.3906 398.423L25.5937 398.423L25.5937 411.235ZM18.9687 400.017L23 400.017L23 401.501L20.1719 401.501L20.1719 409.814L18.9687 409.814L18.9687 400.017ZM27.0469 400.064L32.0156 400.064L32.0156 409.579L27.0469 409.579L27.0469 400.064ZM28.2187 401.517L28.2187 408.11L30.8437 408.11L30.8437 401.517L28.2187 401.517ZM32.6719 422.853L27.0937 422.853L27.0937 425.025L25.8594 425.025L25.8594 422.853L18.6875 422.853L18.6875 421.369L32.6719 421.369L32.6719 422.853ZM22.4219 411.962C24.1719 415.47 26.7031 417.376 29.9687 417.681L29.9687 412.665L31.2031 412.665L31.2031 419.197C27.1562 419.181 23.5391 417.4 21.2656 412.79L22.4219 411.962ZM32.6719 441.025L18.6719 441.025L18.6719 439.604L25.9375 439.604L25.9375 437.869L19.3437 437.869L19.3437 436.479L32.2969 436.479L32.2969 437.869L27.1406 437.869L27.1406 439.604L32.6719 439.604L32.6719 441.025ZM22.6719 428.994C24.4375 432.104 26.8203 433.408 29.6719 433.643L29.6719 429.588L30.8906 429.588L30.8906 435.088C27.2109 435.08 23.8984 433.861 21.6406 429.854L22.6719 428.994ZM32.0781 444.549L30.1719 444.549L30.1719 448.221L32.0781 448.221L32.0781 449.69L25.9687 449.69L25.9687 443.096L32.0781 443.096L32.0781 444.549ZM23.6875 444.502L24.8594 444.502L24.8594 453.549L21.3281 453.549L21.3281 445.987L20 445.987L20 454.034L18.8125 454.034L18.8125 444.534L22.4219 444.534L22.4219 452.08L23.6875 452.08L23.6875 444.502ZM27.1562 444.549L27.1562 448.221L29.0312 448.221L29.0312 444.549L27.1562 444.549ZM25.4687 452.065L32.6719 452.065L32.6719 453.549L29.7344 453.549L29.7344 455.58L28.5312 455.58L28.5312 453.549L25.4687 453.549L25.4687 452.065ZM20 460.284L31.3125 460.284L31.3125 467.3L29.8281 467.3L29.8281 462.003L26.4062 462.003L26.4062 466.8L24.9375 466.8L24.9375 462.003L20 462.003L20 460.284ZM19.8281 471.73C19.8281 469.324 21.5781 467.753 24.2031 467.761C26.8437 467.753 28.5937 469.324 28.5937 471.73C28.5937 474.12 26.8437 475.683 24.2031 475.683C21.5781 475.683 19.8281 474.12 19.8281 471.73ZM24.2031 469.433C22.5859 469.433 21.2187 470.175 21.2187 471.73C21.2187 473.261 22.5859 473.995 24.2031 473.995C25.8281 473.995 27.2109 473.261 27.2187 471.73C27.2109 470.175 25.8281 469.433 24.2031 469.433ZM31.3125 478.675L20 478.675L20 477.004L31.3125 477.004L31.3125 478.675ZM31.3125 482.059L20 482.059L20 480.387L31.3125 480.387L31.3125 482.059ZM19.8281 487.364C19.8281 484.957 21.5781 483.387 24.2031 483.395C26.8437 483.387 28.5937 484.957 28.5937 487.364C28.5937 489.754 26.8437 491.317 24.2031 491.317C21.5781 491.317 19.8281 489.754 19.8281 487.364ZM24.2031 485.067C22.5859 485.067 21.2187 485.809 21.2187 487.364C21.2187 488.895 22.5859 489.629 24.2031 489.629C25.8281 489.629 27.2109 488.895 27.2187 487.364C27.2109 485.809 25.8281 485.067 24.2031 485.067ZM20 494.2L28.4844 491.715L28.4844 493.434L22.2656 495.09L22.2656 495.184L28.4844 496.84L28.4844 498.559L22.2969 500.2L22.2969 500.294L28.4844 501.934L28.4844 503.653L20 501.169L20 499.465L26.1094 497.747L26.1094 497.622L20 495.919L20 494.2ZM25.5 509.708L24.0625 509.708L24.0625 504.692L25.5 504.692L25.5 509.708ZM23.5312 516.794L28.4844 516.794L28.4844 518.45L20 518.45L20 516.825L21.4687 516.825L21.4687 516.732C20.5625 516.341 19.8906 515.474 19.8906 514.2C19.8906 512.56 20.9922 511.404 23.0937 511.404L28.4844 511.404L28.4844 513.075L23.2969 513.075C22.1406 513.075 21.4062 513.779 21.4062 514.794C21.4062 515.724 22.0859 516.794 23.5312 516.794ZM16.8125 520.162L28.4844 520.162L28.4844 521.787L27.1094 521.787L27.1094 521.927C27.6406 522.224 28.5937 522.794 28.5937 524.365C28.5937 526.419 26.9844 527.927 24.2187 527.927C21.4844 527.927 19.8359 526.435 19.8281 524.38C19.8359 522.841 20.7734 522.232 21.3281 521.927L21.3281 521.833L16.8125 521.833L16.8125 520.162ZM24.25 521.802C22.4687 521.802 21.2578 522.583 21.25 524.005C21.2578 525.474 22.5469 526.24 24.25 526.24C25.9219 526.24 27.1797 525.498 27.1719 524.005C27.1797 522.568 26.0156 521.802 24.25 521.802Z" fill="#333333"/>
<path d="M196 302.836L201.773 292.836L190.226 292.836L196 302.836ZM195 176.904L195 293.836L197 293.836L197 176.904L195 176.904Z" fill="#0094EA"/>
<path d="M95 176.904L89.2265 186.904L100.774 186.904L95 176.904ZM94 185.904L94 302.836L96 302.836L96 185.904L94 185.904Z" fill="#0094EA"/>
<path d="M196 611.67L201.773 601.67L190.226 601.67L196 611.67ZM195 485.738L195 602.67L197 602.67L197 485.738L195 485.738Z" fill="#0094EA"/>
<path d="M95 485.738L89.2265 495.738L100.774 495.738L95 485.738ZM94 494.738L94 611.67L96 611.67L96 494.738L94 494.738Z" fill="#0094EA"/>
</svg>
