<svg width="262" height="810" viewBox="0 0 262 810" fill="none" xmlns="http://www.w3.org/2000/svg">
<path d="M131 285.5C79.3614 285.5 37.5 243.639 37.5 192C37.5 140.361 79.3614 98.5 131 98.5C182.639 98.5 224.5 140.361 224.5 192C224.5 243.639 182.639 285.5 131 285.5Z" stroke="#39A3ED"/>
<path d="M131 447.5C79.3614 447.5 37.5 405.639 37.5 354C37.5 302.361 79.3614 260.5 131 260.5C182.639 260.5 224.5 302.361 224.5 354C224.5 405.639 182.639 447.5 131 447.5Z" stroke="#39A3ED"/>
<path d="M131 607.5C79.3614 607.5 37.5 565.639 37.5 514C37.5 462.361 79.3614 420.5 131 420.5C182.639 420.5 224.5 462.361 224.5 514C224.5 565.639 182.639 607.5 131 607.5Z" stroke="#39A3ED"/>
<path d="M131 769.5C79.3614 769.5 37.5 727.639 37.5 676C37.5 624.361 79.3614 582.5 131 582.5C182.639 582.5 224.5 624.361 224.5 676C224.5 727.639 182.639 769.5 131 769.5Z" stroke="#39A3ED"/>
<circle cx="130.5" cy="192.5" r="67.5" transform="rotate(90 130.5 192.5)" fill="#5FB3EF"/>
<path d="M113.564 171.488C113.547 174.406 115.085 177.324 117.66 178.432L116.5 179.996C114.672 179.152 113.336 177.474 112.597 175.399C111.868 177.632 110.497 179.46 108.572 180.365L107.377 178.73C110.022 177.588 111.569 174.556 111.578 171.488V168.957H113.564V171.488ZM118.802 183.582V167.674H120.771V183.582H118.802ZM130.958 169.854C130.958 172.306 133.357 174.775 136.688 175.355L135.81 176.99C133.146 176.437 130.967 174.819 129.93 172.684C128.884 174.802 126.704 176.428 124.05 176.99L123.188 175.355C126.467 174.758 128.875 172.297 128.884 169.854V168.676H130.958V169.854ZM122.749 181.543V179.926H137.269V181.543H122.749ZM144.661 168.658V170.24H140.494V171.734H144.063V173.246H140.494V174.881C142.393 174.863 143.711 174.784 145.258 174.512L145.469 176.041C143.632 176.375 142.12 176.445 139.668 176.445H138.614V168.658H144.661ZM140.811 183.371V177.852H151.534V183.371H140.811ZM142.762 181.789H149.6V179.398H142.762V181.789ZM144.748 173.141V171.559H146.541V167.938H148.405V177.061H146.541V173.141H144.748ZM149.67 177.184V167.674H151.534V177.184H149.67ZM120.086 195.691V200.279H122.3V201.896H120.086V207.381H118.134V195.691H120.086ZM108.097 204.797V196.816H110.031V199.242H113.74V196.816H115.673V204.797H108.097ZM109.908 211.248V206.203H111.859V209.666H120.718V211.248H109.908ZM110.031 203.25H113.74V200.754H110.031V203.25ZM135.651 202.898V204.445H130.94V208.084H137.269V209.684H122.749V208.084H129.007V204.445H124.507V196.852H135.528V198.416H126.458V202.898H135.651ZM142.797 200.525C142.797 202.986 143.808 205.465 146.032 206.66L144.942 208.102C143.465 207.319 142.463 205.922 141.892 204.252C141.329 206.054 140.328 207.601 138.842 208.471L137.7 206.994C139.95 205.693 140.943 203.039 140.952 200.525V200.033H138.244V198.451H140.952V196.236H142.797V198.451H145.452V200.033H142.797V200.525ZM144.467 203.391V201.773H146.541V195.973H148.387V210.791H146.541V203.391H144.467ZM149.758 211.564V195.674H151.621V211.564H149.758Z" fill="white"/>
<circle cx="130.5" cy="352.5" r="67.5" transform="rotate(90 130.5 352.5)" fill="#0094EA"/>
<path d="M114.285 329.396V333.527H116.131V327.955H117.994V342.791H116.131V335.109H114.285V339.469H108.045V329.396H114.285ZM109.873 337.922H112.457V330.943H109.873V337.922ZM119.382 343.564V327.674H121.263V343.564H119.382ZM137.269 340.031V341.631H122.749V340.031H129.007V336.568H124.349V328.904H135.599V336.568H130.94V340.031H137.269ZM126.265 335.039H133.665V330.469H126.265V335.039ZM151.182 327.674V343.582H149.248V327.674H151.182ZM138.807 330.645V329.062H146.295V335.021H140.828V338.221C143.333 338.203 145.487 338.071 147.965 337.658L148.141 339.258C145.443 339.724 143.07 339.829 140.213 339.82H138.825V333.475H144.309V330.645H138.807ZM120.086 355.691V360.279H122.3V361.896H120.086V367.381H118.134V355.691H120.086ZM108.097 364.797V356.816H110.031V359.242H113.74V356.816H115.673V364.797H108.097ZM109.908 371.248V366.203H111.859V369.666H120.718V371.248H109.908ZM110.031 363.25H113.74V360.754H110.031V363.25ZM135.651 362.898V364.445H130.94V368.084H137.269V369.684H122.749V368.084H129.007V364.445H124.507V356.852H135.528V358.416H126.458V362.898H135.651ZM142.797 360.525C142.797 362.986 143.808 365.465 146.032 366.66L144.942 368.102C143.465 367.319 142.463 365.922 141.892 364.252C141.329 366.054 140.328 367.601 138.842 368.471L137.7 366.994C139.95 365.693 140.943 363.039 140.952 360.525V360.033H138.244V358.451H140.952V356.236H142.797V358.451H145.452V360.033H142.797V360.525ZM144.467 363.391V361.773H146.541V355.973H148.387V370.791H146.541V363.391H144.467ZM149.758 371.564V355.674H151.621V371.564H149.758Z" fill="white"/>
<ellipse cx="130.5" cy="514" rx="68" ry="67.5" transform="rotate(90 130.5 514)" fill="#5FB3EF"/>
<path d="M120.086 489.691V494.279H122.3V495.896H120.086V501.381H118.134V489.691H120.086ZM108.097 498.797V490.816H110.031V493.242H113.74V490.816H115.673V498.797H108.097ZM109.908 505.248V500.203H111.859V503.666H120.718V505.248H109.908ZM110.031 497.25H113.74V494.754H110.031V497.25ZM135.651 496.898V498.445H130.94V502.084H137.269V503.684H122.749V502.084H129.007V498.445H124.507V490.852H135.528V492.416H126.458V496.898H135.651ZM142.797 494.525C142.797 496.986 143.808 499.465 146.032 500.66L144.942 502.102C143.465 501.319 142.463 499.922 141.892 498.252C141.329 500.054 140.328 501.601 138.842 502.471L137.7 500.994C139.95 499.693 140.943 497.039 140.952 494.525V494.033H138.244V492.451H140.952V490.236H142.797V492.451H145.452V494.033H142.797V494.525ZM144.467 497.391V495.773H146.541V489.973H148.387V504.791H146.541V497.391H144.467ZM149.758 505.564V489.674H151.621V505.564H149.758ZM129.67 530.014V531.596H115.151V530.014H121.373V526.34H123.307V530.014H129.67ZM115.573 525.109C118.895 524.573 121.277 522.191 121.285 519.801V518.641H123.36V519.801C123.36 522.2 125.759 524.573 129.108 525.109L128.264 526.727C125.583 526.217 123.377 524.679 122.323 522.596C121.277 524.67 119.097 526.226 116.416 526.727L115.573 525.109ZM144.129 517.674V533.564H142.265V525.514H140.631V532.791H138.785V517.955H140.631V523.896H142.265V517.674H144.129ZM130.084 528.941C132.439 527.605 133.388 524.837 133.388 521.734V520.979H130.558V519.414H137.888V520.979H135.287V521.734C135.287 524.556 136.236 527.166 138.591 528.379L137.449 529.873C135.937 529.056 134.944 527.658 134.382 525.936C133.845 527.913 132.852 529.504 131.279 530.436L130.084 528.941Z" fill="white"/>
<circle cx="130.5" cy="675.5" r="67.5" transform="rotate(90 130.5 675.5)" fill="#0094EA"/>
<path d="M120.086 650.691V655.279H122.3V656.896H120.086V662.381H118.134V650.691H120.086ZM108.097 659.797V651.816H110.031V654.242H113.74V651.816H115.673V659.797H108.097ZM109.908 666.248V661.203H111.859V664.666H120.718V666.248H109.908ZM110.031 658.25H113.74V655.754H110.031V658.25ZM135.651 657.898V659.445H130.94V663.084H137.269V664.684H122.749V663.084H129.007V659.445H124.507V651.852H135.528V653.416H126.458V657.898H135.651ZM142.797 655.525C142.797 657.986 143.808 660.465 146.032 661.66L144.942 663.102C143.465 662.319 142.463 660.922 141.892 659.252C141.329 661.054 140.327 662.601 138.842 663.471L137.7 661.994C139.95 660.693 140.943 658.039 140.952 655.525V655.033H138.244V653.451H140.952V651.236H142.797V653.451H145.452V655.033H142.797V655.525ZM144.467 658.391V656.773H146.541V650.973H148.387V665.791H146.541V658.391H144.467ZM149.758 666.564V650.674H151.621V666.564H149.758ZM107.108 688.605C110.562 688.614 112.742 689.704 112.751 691.594C112.742 693.439 110.562 694.547 107.108 694.547C103.689 694.547 101.483 693.439 101.483 691.594C101.483 689.704 103.689 688.614 107.108 688.605ZM99.9892 687.463V685.881H105.579V682.998H107.513V685.881H114.403V687.463H99.9892ZM101.642 680.977V679.43H112.645V680.748C112.654 682.005 112.654 683.341 112.206 684.967L110.272 684.791C110.668 683.253 110.694 682.128 110.694 680.977H101.642ZM103.452 691.594C103.435 692.525 104.814 693.035 107.108 693.035C109.411 693.035 110.8 692.525 110.817 691.594C110.8 690.627 109.411 690.082 107.108 690.082C104.814 690.082 103.435 690.627 103.452 691.594ZM128.457 678.674V688.113H126.506V684.229H123.799V682.629H126.506V678.674H128.457ZM115.098 686.531C117.656 685.652 119 683.517 119 681.416V681.293H115.696V679.711H124.274V681.293H120.987V681.398C120.987 683.332 122.27 685.283 124.731 686.109L123.746 687.656C121.98 687.059 120.732 685.846 120.029 684.352C119.334 686.039 118.007 687.41 116.118 688.078L115.098 686.531ZM117.682 691.541C117.664 689.634 119.73 688.518 123.078 688.518C126.445 688.518 128.501 689.634 128.51 691.541C128.501 693.448 126.445 694.556 123.078 694.564C119.73 694.556 117.664 693.448 117.682 691.541ZM119.616 691.541C119.607 692.525 120.872 693.062 123.078 693.053C125.302 693.062 126.559 692.525 126.559 691.541C126.559 690.548 125.302 690.012 123.078 690.012C120.872 690.012 119.607 690.548 119.616 691.541ZM136.043 681.539C136.043 683.481 137.299 685.31 139.787 686.074L138.855 687.604C137.071 687.041 135.805 685.907 135.111 684.475C134.408 686.145 133.072 687.472 131.156 688.113L130.172 686.566C132.729 685.731 134.074 683.666 134.074 681.557V681.363H130.716V679.781H139.347V681.363H136.043V681.539ZM132.334 691.506C132.334 689.607 134.39 688.5 137.713 688.5C141.008 688.5 143.03 689.607 143.039 691.506C143.03 693.422 141.008 694.547 137.713 694.547C134.39 694.547 132.334 693.422 132.334 691.506ZM134.285 691.506C134.285 692.49 135.533 693.009 137.713 693.018C139.883 693.009 141.105 692.49 141.105 691.506C141.105 690.539 139.883 690.029 137.713 690.029C135.533 690.029 134.285 690.539 134.285 691.506ZM140.929 688.148V678.674H142.881V682.488H145.095V684.088H142.881V688.148H140.929ZM158.763 678.674V694.582H156.794V678.674H158.763ZM146.388 690.838V679.975H148.339V683.947H152.189V679.975H154.122V690.838H146.388ZM148.339 689.238H152.189V685.477H148.339V689.238Z" fill="white"/>
<rect x="261" y="64" width="745" height="260" rx="130" transform="rotate(90 261 64)" stroke="#0094EA" stroke-width="2"/>
<rect x="7" width="248" height="79" rx="39.5" fill="white"/>
<path d="M82.6832 20.2886V25.3862H85.1441V27.1831H82.6832V33.2769H80.5152V20.2886H82.6832ZM69.3629 30.4058V21.5386H71.5113V24.2339H75.6324V21.5386H77.7809V30.4058H69.3629ZM71.3746 37.5737V31.9683H73.5426V35.8159H83.3863V37.5737H71.3746ZM71.5113 28.687H75.6324V25.9136H71.5113V28.687ZM99.9785 28.2964V30.0151H94.7441V34.0581H101.775V35.8354H85.6426V34.0581H92.5957V30.0151H87.5957V21.5776H99.8418V23.3159H89.7637V28.2964H99.9785ZM107.918 25.6597C107.918 28.394 109.041 31.1479 111.512 32.4761L110.301 34.0776C108.661 33.2085 107.547 31.6558 106.913 29.8003C106.288 31.8022 105.174 33.521 103.524 34.4878L102.254 32.8472C104.754 31.4019 105.858 28.4526 105.868 25.6597V25.1128H102.86V23.355H105.868V20.894H107.918V23.355H110.868V25.1128H107.918V25.6597ZM109.774 28.8433V27.0464H112.079V20.6011H114.129V37.0659H112.079V28.8433H109.774ZM115.653 37.9253V20.269H117.723V37.9253H115.653ZM133.093 21.487C131.433 23.847 128.373 26.547 125.093 28.367C124.773 27.807 124.093 26.927 123.573 26.427C127.013 24.687 130.253 21.607 131.733 19.127H134.233C136.373 22.207 139.633 24.827 142.813 26.187C142.213 26.807 141.673 27.607 141.233 28.347C138.153 26.647 134.793 23.867 133.093 21.487ZM126.293 30.867H139.973V32.947H126.293V30.867ZM127.313 26.447H139.053V28.547H127.313V26.447ZM124.693 35.367H141.773V37.507H124.693V35.367ZM131.833 27.387H134.373V36.567H131.833V27.387ZM159.472 29.4097V31.1479H152.656V34.1948H150.507V31.1479H143.339V29.4097H159.472ZM145.293 37.5737V32.7104H147.441V35.8159H157.695V37.5737H145.293ZM145.449 28.0229V20.8354H147.597V22.8276H155.214V20.8354H157.363V28.0229H145.449ZM147.597 26.3042H155.214V24.4487H147.597V26.3042ZM164.99 21.5581C167.646 21.5581 169.561 23.98 169.58 27.7886C169.561 31.6265 167.646 34.0386 164.99 34.0386C162.305 34.0386 160.391 31.6265 160.4 27.7886C160.391 23.98 162.305 21.5581 164.99 21.5581ZM162.49 27.7886C162.48 30.5034 163.506 32.0757 164.99 32.0854C166.484 32.0757 167.48 30.5034 167.49 27.7886C167.48 25.0933 166.484 23.5112 164.99 23.5112C163.506 23.5112 162.48 25.0933 162.49 27.7886ZM171.904 37.9253V20.269H174.072V24.4878H176.689V26.3042H174.072V29.7026H176.689V31.48H174.072V37.9253H171.904ZM182.852 21.4995C185.655 21.4897 187.696 23.2573 187.715 25.7573C187.696 28.2671 185.655 30.0249 182.852 30.0347C180.079 30.0249 177.998 28.2671 178.008 25.7573C177.998 23.2573 180.079 21.4897 182.852 21.4995ZM177.207 32.4761C180.391 32.4761 184.795 32.437 188.614 31.8901L188.789 33.4722C184.834 34.2241 180.596 34.2534 177.481 34.2534L177.207 32.4761ZM180.157 25.7573C180.147 27.2319 181.309 28.1401 182.852 28.1401C184.414 28.1401 185.577 27.2319 185.586 25.7573C185.577 24.2925 184.424 23.3745 182.852 23.3745C181.309 23.3745 180.147 24.2925 180.157 25.7573ZM189.668 37.9448V20.269H191.836V37.9448H189.668ZM86.2281 60.1714V61.9292H82.3023V67.9253H80.0953V61.9292H76.1891V67.9253H73.9625V61.9292H70.0953V60.1714H86.2281ZM71.7945 54.8394C71.7848 52.437 74.3629 50.9038 78.1227 50.894C81.8824 50.9038 84.4801 52.437 84.4898 54.8394C84.4801 57.2124 81.8824 58.7065 78.1227 58.7065C74.3629 58.7065 71.7848 57.2124 71.7945 54.8394ZM74.0211 54.8394C74.0113 56.187 75.6324 56.978 78.1227 56.9878C80.6227 56.978 82.2438 56.187 82.2438 54.8394C82.2438 53.4526 80.6227 52.6519 78.1227 52.6519C75.6324 52.6519 74.0113 53.4526 74.0211 54.8394ZM95.9648 51.5776V59.3511H87.6055V51.5776H95.9648ZM89.207 64.4878C89.207 62.3589 91.5313 61.0698 95.1836 61.0698C98.8066 61.0698 101.092 62.3589 101.102 64.4878C101.092 66.6558 98.8066 67.9155 95.1836 67.9253C91.5313 67.9155 89.207 66.6558 89.207 64.4878ZM89.7344 57.5933H93.8359V53.2964H89.7344V57.5933ZM91.375 64.4878C91.375 65.6206 92.7617 66.187 95.1836 66.187C97.5957 66.187 98.9531 65.6206 98.9531 64.4878C98.9531 63.4038 97.5957 62.8081 95.1836 62.8081C92.7617 62.8081 91.375 63.4038 91.375 64.4878ZM98.7578 60.562V50.269H100.926V54.4097H103.387V56.1675H100.926V60.562H98.7578ZM108.631 51.5581C111.288 51.5581 113.202 53.98 113.221 57.7886C113.202 61.6265 111.288 64.0386 108.631 64.0386C105.946 64.0386 104.032 61.6265 104.041 57.7886C104.032 53.98 105.946 51.5581 108.631 51.5581ZM106.131 57.7886C106.121 60.5034 107.147 62.0757 108.631 62.0854C110.125 62.0757 111.121 60.5034 111.131 57.7886C111.121 55.0933 110.125 53.5112 108.631 53.5112C107.147 53.5112 106.121 55.0933 106.131 57.7886ZM115.545 67.9253V50.269H117.713V57.0464H120.428V58.8823H117.713V67.9253H115.545ZM135.458 50.269V67.9448H133.27V50.269H135.458ZM121.337 57.7886C121.327 53.98 123.27 51.5581 125.946 51.5581C128.593 51.5581 130.546 53.98 130.555 57.7886C130.546 61.6265 128.593 64.0386 125.946 64.0386C123.27 64.0386 121.327 61.6265 121.337 57.7886ZM123.427 57.7886C123.427 60.5034 124.452 62.0757 125.946 62.0854C127.43 62.0757 128.446 60.5034 128.446 57.7886C128.446 55.0933 127.43 53.5112 125.946 53.5112C124.452 53.5112 123.427 55.0933 123.427 57.7886ZM145.116 51.3628V53.1206H140.488V54.7808H144.452V56.4604H140.488V58.2769C142.597 58.2573 144.062 58.1694 145.78 57.8667L146.015 59.5659C143.974 59.937 142.294 60.0151 139.57 60.0151H138.398V51.3628H145.116ZM140.839 67.7104V61.5776H152.753V67.7104H140.839ZM143.007 65.9526H150.605V63.2964H143.007V65.9526ZM145.214 56.3433V54.5854H147.206V50.562H149.277V60.6987H147.206V56.3433H145.214ZM150.683 60.8354V50.269H152.753V60.8354H150.683ZM174.043 50.269V67.9253H171.953V58.8628H170.059V67.105H168.027V50.7378H170.059V57.105H171.953V50.269H174.043ZM158.75 62.73C162.51 60.562 164.102 57.769 164.414 54.2339H159.57V52.4956H166.523C166.523 57.271 165.02 61.3726 160 64.2339L158.75 62.73ZM178.526 51.0503V53.2964H182.647V51.0503H184.795V58.7456H176.377V51.0503H178.526ZM178.155 61.7144V60.0151H189.698V64.644H180.323V66.0503H190.245V67.769H178.174V63.062H187.53V61.7144H178.155ZM178.526 57.0269H182.647V54.937H178.526V57.0269ZM187.53 59.312V50.269H189.698V53.8433H192.159V55.6011H189.698V59.312H187.53Z" fill="#333333"/>
</svg>
