<svg width="149" height="40" viewBox="0 0 149 40" fill="none" xmlns="http://www.w3.org/2000/svg">
<g id="Group 819182">
<path id="Vector" d="M22 30.9149V37.845C22 38.3647 21.7187 39 20.9309 39H15.5294C14.8542 39 14.2353 38.5957 14.2353 37.7872V31.7234C14.2353 26.9878 12.7724 23.696 7.65217 23.5228V37.9027C7.65217 38.538 7.37084 38.9422 6.75192 38.9422H1.01279C0.337596 38.9422 0 38.538 0 37.9027V2.03951C0 1.40426 0.337596 1 1.01279 1H6.75192C7.42711 1 7.70844 1.40426 7.70844 2.09726V16.6505C12.491 16.2462 13.8977 13.0699 13.8977 8.44985V2.27052C13.8977 1.46201 14.5166 1 15.1918 1H20.5371C21.3248 1 21.6061 1.69301 21.6061 2.15502V9.20061C21.6061 13.8784 19.8056 17.459 16.7673 19.8845C20.087 22.31 22 26.0061 22 30.9149Z" fill="black"/>
<path id="Vector_2" d="M34 23.0893C34 23.7857 33.3016 24 32.9841 24H26.9524C26.6349 24 26 23.8393 26 23.0893V18.9643C26 18.3214 26.5079 18 26.9524 18H32.9841C33.8095 18 34 18.5357 34 18.9643V23.0893Z" fill="black"/>
<path id="Vector_3" d="M59.817 12.5664C59.817 13.4513 59.634 13.8053 58.8408 13.8053H52.9841C52.252 13.8053 52.008 13.4513 52.008 12.6844V10.0885C52.008 8.43658 50.8488 6.72566 48.7745 6.72566C46.7613 6.72566 45.3581 8.25959 45.3581 10.0295V29.8525C45.3581 31.6224 46.6393 33.2153 48.7745 33.2153C51.0928 33.2153 52.191 31.5634 52.191 29.8525V26.4897C52.191 25.6637 52.435 25.3687 53.1061 25.3687H58.9629C59.695 25.3687 60 25.5457 60 26.4307V30.2655C60 36.3422 54.9973 40 48.7135 40C42.4297 40 37 36.3422 37 30.2655V9.73451C37 4.18879 41.8806 0 48.7135 0C56.3395 0 59.817 4.95575 59.817 9.85251V12.5664Z" fill="black"/>
<path id="Vector_4" d="M84.9457 1.05775C85.5039 1.05775 86 1.28875 86 2.09726V37.9605C86 38.5957 85.6899 39 84.8217 39H78.5581C77.876 39 77.5039 38.5957 77.5039 37.9605V22.8875H70.4961V37.9605C70.4961 38.5957 70.186 39 69.4419 39H63.0543C62.3101 39 62 38.5957 62 37.9605V2.09726C62 1.46201 62.3721 1 63.0543 1H69.4419C70.186 1 70.4961 1.40426 70.4961 2.09726V16.2462H77.5039V2.09726C77.5039 1.51976 77.876 1 78.5581 1H84.9457V1.05775Z" fill="black"/>
<path id="Vector_5" d="M98 37.9605C98 38.5957 97.6715 39 96.8832 39H90.1168C89.3285 39 89 38.5957 89 37.9605V2.09726C89 1.46201 89.3942 1 90.1168 1H96.8832C97.6715 1 98 1.40426 98 2.09726V37.9605Z" fill="black"/>
<path id="Vector_6" d="M102 2.09893C102 1.46271 102.436 1 103.06 1H114.405C121.013 1 126 5.3379 126 10.8326V19.624C126 25.1187 121.013 29.5723 114.405 29.5723H110.54V37.9589C110.54 38.5951 110.229 39 109.481 39H103.122C102.374 39 102.062 38.5951 102.062 37.9589V2.09893H102ZM117.46 11.0639C117.46 9.09741 115.964 7.76712 113.782 7.76712H110.603V23.0365H113.844C116.088 23.0365 117.522 21.6484 117.522 19.7976V11.0639H117.46Z" fill="black"/>
<path id="Vector_7" d="M141.348 10.2655C141.348 8.31858 140.287 6.72566 138.221 6.72566C136.769 6.72566 135.093 7.72861 135.093 10.2655C135.093 12.9204 136.769 14.1593 139.338 16.0472C144.699 20.118 149 23.1858 149 30.2655C149 35.5162 144.755 40 138.388 40C131.463 40 128 35.2212 128 29.9705V28.4956C128 27.5516 128.168 27.1386 128.949 27.1386H134.199C134.981 27.1386 135.205 27.4336 135.205 28.2596V29.4985C135.205 32.2714 136.992 33.2153 138.5 33.2153C140.287 33.2153 141.795 31.9174 141.795 29.8525C141.795 27.1386 140.287 25.8997 136.769 23.0678C130.737 18.2891 128.056 16.4602 128.056 10.0295C128.056 2.77286 134.255 0 138.277 0C144.253 0 148.497 4.0118 148.497 10.2065V11.7994C148.497 12.5664 148.274 12.8614 147.38 12.8614H142.242C141.516 12.8614 141.404 12.5664 141.404 11.7994V10.2655H141.348Z" fill="black"/>
</g>
</svg>
