<svg width="214" height="173" viewBox="0 0 214 173" fill="none" xmlns="http://www.w3.org/2000/svg">
<g clip-path="url(#clip0_221_9950)">
<path fill-rule="evenodd" clip-rule="evenodd" d="M37.9364 119.76C27.8443 81.6267 50.4603 42.3971 88.3966 32.1633C126.455 21.9295 165.607 44.5901 175.82 82.7232C186.034 120.856 163.418 160.086 125.36 170.32C87.3023 180.553 48.15 157.893 37.9364 119.76Z" fill="white"/>
<path fill-rule="evenodd" clip-rule="evenodd" d="M144.207 154.847L102.136 129.019L78.9125 160.086C92.4091 166.543 108.216 168.492 123.78 164.228C131.318 162.279 138.127 159.111 144.207 154.847Z" fill="#FCD60B"/>
<path fill-rule="evenodd" clip-rule="evenodd" d="M170.349 87.231L84.6273 110.257L150.043 150.218C167.309 134.867 175.699 110.988 170.349 87.231Z" fill="#ED0874"/>
<path fill-rule="evenodd" clip-rule="evenodd" d="M72.4682 156.675L95.8137 125.364L75.1432 112.815L44.7455 120.978C49.7307 136.329 59.7012 148.634 72.4682 156.675Z" fill="#0099D8"/>
<path fill-rule="evenodd" clip-rule="evenodd" d="M168.403 80.043C157.339 48.0014 123.293 29.6049 90.0989 38.4986C56.9046 47.3923 36.5989 80.5303 43.0432 113.668L168.403 80.043Z" fill="#00B5AF"/>
<path fill-rule="evenodd" clip-rule="evenodd" d="M87.9103 62.6211C86.9375 58.8444 82.925 56.5296 79.1557 57.6261C75.3864 58.6007 73.0762 62.6211 74.0489 66.3979L77.8182 80.6521C78.791 84.4289 82.8034 86.7437 86.5728 85.6472C90.3421 84.6725 92.6523 80.6521 91.558 76.8754L87.9103 62.6211Z" fill="white"/>
<path fill-rule="evenodd" clip-rule="evenodd" d="M117.943 54.5802C116.97 50.8035 112.958 48.4887 109.189 49.5852C105.419 50.5598 103.109 54.5802 104.203 58.357L107.973 72.6112C108.945 76.388 112.958 78.7028 116.727 77.6063C120.497 76.6317 122.807 72.6112 121.712 68.8345L117.943 54.5802Z" fill="white"/>
<path d="M35.2614 0V173" stroke="#010101" stroke-width="0.25" stroke-miterlimit="10"/>
<path d="M41.3409 0V173" stroke="#010101" stroke-width="0.25" stroke-miterlimit="10"/>
<path d="M171.443 0V173" stroke="#010101" stroke-width="0.25" stroke-miterlimit="10"/>
<path d="M214.365 29.7268H0" stroke="#010101" stroke-width="0.25" stroke-miterlimit="10"/>
<path d="M214.365 172.756H0" stroke="#010101" stroke-width="0.25" stroke-miterlimit="10"/>
<path d="M178.739 0V173" stroke="#010101" stroke-width="0.25" stroke-miterlimit="10"/>
<path d="M21.4 31.9198V170.563" stroke="#010101" stroke-width="0.25" stroke-miterlimit="10"/>
<path d="M19.9409 32.4071L21.4 29.7268L22.9807 32.4071H19.9409Z" fill="#010101"/>
<path d="M19.9409 170.198L21.4 172.756L22.9807 170.198H19.9409Z" fill="#010101"/>
<path d="M176.064 12.5487H37.6932" stroke="#010101" stroke-width="0.25" stroke-miterlimit="10"/>
<path d="M175.699 10.9648L178.252 12.5486L175.699 14.0106V10.9648Z" fill="#010101"/>
<path d="M38.1795 10.9648L35.5045 12.5486L38.1795 14.0106V10.9648Z" fill="#010101"/>
<path d="M100.069 20.3457C99.583 20.3457 99.2182 20.2239 98.975 19.8584C98.8534 19.6147 98.4886 19.2492 98.6102 18.6401C98.7318 17.1781 99.7045 15.9598 101.042 14.4978C101.772 13.7668 102.866 12.914 103.839 12.183C103.595 10.7211 103.474 9.74641 103.231 9.13726C102.866 9.62458 102.38 10.2337 102.015 11.0866C101.772 11.6957 101.164 12.0612 100.556 12.0612C99.9477 12.0612 99.4614 11.6957 99.2182 11.0866C98.8534 10.1119 99.2182 8.8936 99.4614 8.40627C100.191 6.57881 102.38 4.75134 104.69 4.75134C104.933 4.75134 105.055 4.75134 105.298 4.75134C107.243 5.11684 107.851 6.57881 108.094 7.91895C108.094 8.16261 108.216 8.40627 108.216 8.77176C109.675 7.55345 110.769 6.45698 111.742 5.48233C112.228 4.87317 112.836 4.75134 113.201 4.75134C113.931 4.75134 114.66 5.3605 114.66 6.33515C114.66 7.91895 113.566 9.25909 112.472 10.4774C111.742 11.2084 110.526 12.183 109.067 13.2795C109.189 13.645 109.189 14.0105 109.189 14.376C109.31 14.9851 109.432 15.5943 109.432 16.0816C109.553 16.4471 109.553 16.6908 109.675 16.8126C110.04 16.5689 110.891 15.5943 112.107 13.2795C112.35 12.7922 112.958 12.4267 113.444 12.4267C114.052 12.4267 114.539 12.7922 114.782 13.4013C115.147 14.2542 115.025 15.4725 114.417 16.4471C113.08 18.8837 110.769 20.4675 108.702 20.4675C105.906 20.4675 104.933 18.6401 104.447 16.8126C103.231 17.9091 102.136 18.8837 101.285 19.8584C101.164 20.102 100.556 20.3457 100.069 20.3457Z" fill="black"/>
<path d="M104.811 5.84787C104.933 5.84787 105.055 5.84787 105.176 5.84787C106.27 6.09154 106.757 6.70069 107 8.16266C107.122 8.89365 107.365 9.8683 107.486 10.9648C109.432 9.5028 111.256 7.919 112.715 6.21337C112.836 5.96971 113.08 5.84787 113.201 5.84787C113.323 5.84787 113.444 5.96971 113.444 6.21337C113.444 7.30985 112.715 8.28449 111.499 9.5028C110.769 10.3556 109.31 11.3303 107.608 12.5486C107.851 13.8887 107.973 15.2289 108.216 16.0817C108.459 17.4218 108.945 17.7873 109.31 17.9091C110.648 17.9091 112.107 15.5944 113.08 13.6451C113.201 13.5232 113.323 13.4014 113.323 13.4014C113.444 13.4014 113.444 13.4014 113.566 13.5232C113.688 13.8887 113.688 14.7415 113.201 15.5944C112.107 17.5436 110.283 19.0056 108.581 19.0056C106.757 19.0056 105.784 18.031 105.298 15.3507C105.298 15.107 105.176 14.7415 105.176 14.376C103.474 15.7162 101.772 17.1782 100.313 18.8838C100.191 19.0056 99.9477 19.1275 99.7046 19.1275C99.583 19.1275 99.4614 19.0056 99.4614 18.762C99.583 17.6655 100.313 16.6908 101.528 15.3507C102.38 14.4979 103.595 13.6451 104.811 12.6704C104.447 10.2338 103.839 7.18802 103.474 7.18802C102.988 7.18802 101.65 8.40632 100.556 10.5993C100.434 10.7211 100.313 10.8429 100.191 10.8429C100.069 10.8429 99.9477 10.8429 99.9477 10.7211C99.8261 10.2338 99.9477 9.5028 100.191 9.01548C101.285 7.43168 103.109 5.84787 104.811 5.84787ZM104.811 3.41125C102.015 3.41125 99.4614 5.72604 98.4886 7.79717C98.1239 8.52816 97.7591 9.99013 98.2455 11.4521C98.7318 12.5486 99.7046 13.1577 100.799 13.1577C100.677 13.2796 100.434 13.5232 100.313 13.6451C98.7318 15.2289 97.6375 16.569 97.5159 18.5183C97.3943 19.3711 97.6375 20.1021 98.1239 20.7113C98.6102 21.3204 99.3398 21.5641 100.191 21.5641C101.042 21.5641 101.893 21.1986 102.501 20.5894C102.988 19.9803 103.595 19.4929 104.203 18.8838C105.176 20.7113 106.757 21.6859 108.945 21.6859C111.499 21.6859 114.174 19.8584 115.755 17.0563C116.606 15.5944 116.727 14.1324 116.119 12.9141C115.633 11.9394 114.782 11.2084 113.688 11.2084C114.903 9.8683 115.998 8.40633 115.998 6.45703C115.998 4.62957 114.66 3.65492 113.323 3.65492C112.472 3.65492 111.62 4.02041 111.013 4.87323C110.526 5.48238 109.918 6.09154 109.189 6.82252C108.824 5.60421 107.851 4.14224 105.663 3.77675C105.298 3.41125 105.055 3.41125 104.811 3.41125ZM110.405 13.6451C110.526 13.5232 110.526 13.5232 110.648 13.5232C110.526 13.6451 110.526 13.7669 110.405 13.8887C110.405 13.7669 110.405 13.7669 110.405 13.6451Z" fill="white"/>
<path d="M14.5909 109.161C14.1046 109.161 13.7398 109.039 13.4966 108.673C13.375 108.43 13.0102 108.064 13.1318 107.455C13.2534 105.993 14.2262 104.775 15.5637 103.313C16.2932 102.582 17.3875 101.729 18.3602 100.998C18.1171 99.5359 17.9955 98.5612 17.7523 97.9521C17.3875 98.4394 16.9012 99.0486 16.5364 99.9014C16.2932 100.511 15.6852 100.876 15.0773 100.876C14.4693 100.876 13.983 100.511 13.7398 99.9014C13.375 98.9267 13.7398 97.7084 13.983 97.2211C14.7125 95.3936 16.9012 93.5662 19.2114 93.5662C19.4546 93.5662 19.5761 93.5662 19.8193 93.5662C21.7648 93.9317 22.3727 95.3936 22.6159 96.7338C22.6159 96.9774 22.7375 97.2211 22.7375 97.5866C24.1966 96.3683 25.2909 95.2718 26.2637 94.2971C26.75 93.688 27.358 93.5662 27.7227 93.5662C28.4523 93.5662 29.1818 94.1753 29.1818 95.15C29.1818 96.7338 28.0875 98.0739 26.9932 99.2922C26.2637 100.023 25.0477 100.998 23.5887 102.094C23.7102 102.46 23.7102 102.825 23.7102 103.191C23.8318 103.8 23.9534 104.409 23.9534 104.896C24.075 105.262 24.075 105.506 24.1966 105.627C24.5614 105.384 25.4125 104.409 26.6284 102.094C26.8716 101.607 27.4796 101.242 27.9659 101.242C28.5739 101.242 29.0602 101.607 29.3034 102.216C29.6682 103.069 29.5466 104.287 28.9387 105.262C27.6011 107.699 25.2909 109.282 23.2239 109.282C20.4273 109.282 19.4546 107.455 18.9682 105.627C17.7523 106.724 16.658 107.699 15.8068 108.673C15.6852 108.917 15.0773 109.161 14.5909 109.161Z" fill="black"/>
<path d="M19.2114 94.6627C19.333 94.6627 19.4546 94.6627 19.5762 94.6627C20.6705 94.9064 21.1568 95.5155 21.4 96.9775C21.5216 97.7085 21.7648 98.6831 21.8864 99.7796C23.8318 98.3176 25.6557 96.7338 27.1148 95.0282C27.2364 94.7845 27.4796 94.6627 27.6012 94.6627C27.7228 94.6627 27.8443 94.7845 27.8443 95.0282C27.8443 96.1247 27.1148 97.0993 25.8989 98.3176C25.1693 99.1704 23.7103 100.145 22.008 101.363C22.2512 102.704 22.3728 104.044 22.6159 104.896C22.8591 106.237 23.3455 106.602 23.7103 106.724C25.0478 106.724 26.5068 104.409 27.4796 102.46C27.6012 102.338 27.7227 102.216 27.7227 102.216C27.8443 102.216 27.8443 102.216 27.9659 102.338C28.0875 102.704 28.0875 103.556 27.6012 104.409C26.5068 106.358 24.683 107.82 22.9807 107.82C21.1568 107.82 20.1841 106.846 19.6978 104.166C19.6978 103.922 19.5762 103.556 19.5762 103.191C17.8739 104.531 16.1716 105.993 14.7125 107.699C14.5909 107.82 14.3478 107.942 14.1046 107.942C13.983 107.942 13.8614 107.82 13.8614 107.577C13.983 106.48 14.7125 105.506 15.9284 104.166C16.7796 103.313 17.9955 102.46 19.2114 101.485C18.8466 99.0486 18.2387 96.0028 17.8739 96.0028C17.3875 96.0028 16.05 97.2211 14.9557 99.4141C14.8341 99.5359 14.7125 99.6578 14.5909 99.6578C14.4693 99.6578 14.3478 99.6578 14.3478 99.5359C14.2262 99.0486 14.3478 98.3176 14.5909 97.8303C15.8068 96.1247 17.6307 94.6627 19.2114 94.6627ZM19.2114 92.2261C16.4148 92.2261 13.8614 94.5409 12.8887 96.612C12.5239 97.343 12.1591 98.805 12.6455 100.267C13.1318 101.363 14.1046 101.973 15.1989 101.973C15.0773 102.094 14.8341 102.338 14.7125 102.46C13.1318 104.044 12.0375 105.384 11.9159 107.333C11.7943 108.186 12.0375 108.917 12.5239 109.526C13.0103 110.135 13.7398 110.379 14.5909 110.379C15.4421 110.379 16.2932 110.013 16.9012 109.404C17.3875 108.795 17.9955 108.308 18.6034 107.699C19.5762 109.526 21.1568 110.501 23.3455 110.501C25.8989 110.501 28.5739 108.673 30.1546 105.871C31.0057 104.409 31.1273 102.947 30.5193 101.729C30.033 100.754 29.1818 100.023 28.0875 100.023C29.3034 98.6831 30.3978 97.2211 30.3978 95.2718C30.3978 93.4444 29.0602 92.4697 27.7227 92.4697C26.8716 92.4697 26.0205 92.8352 25.4125 93.6881C24.9262 94.2972 24.3182 94.9064 23.5887 95.6373C23.2239 94.419 22.2512 92.9571 20.0625 92.5916C19.8193 92.2261 19.5762 92.2261 19.2114 92.2261ZM24.9262 102.46C25.0478 102.338 25.0478 102.338 25.1693 102.338C25.0478 102.46 25.0478 102.582 24.9262 102.704C24.9262 102.582 24.9262 102.46 24.9262 102.46Z" fill="white"/>
</g>
<defs>
<clipPath id="clip0_221_9950">
<rect width="214" height="173" fill="white"/>
</clipPath>
</defs>
</svg>
