<svg width="214" height="220" viewBox="0 0 214 220" fill="none" xmlns="http://www.w3.org/2000/svg">
<g clip-path="url(#clip0_221_10112)">
<path d="M62.5113 212.011V218.063C62.5113 218.547 62.2693 219.032 61.5431 219.032H56.7022C56.0971 219.032 55.492 218.668 55.492 217.942V212.737C55.492 208.621 54.1607 205.716 49.5619 205.474V218.063C49.5619 218.668 49.3198 219.032 48.7147 219.032H43.5107C42.9056 219.032 42.6636 218.668 42.6636 218.063V186.591C42.6636 185.985 43.0266 185.622 43.5107 185.622H48.7147C49.3198 185.622 49.5619 185.985 49.5619 186.591V199.422C53.9187 199.059 55.1289 196.275 55.1289 192.159V186.712C55.1289 185.985 55.734 185.622 56.3391 185.622H61.18C61.9062 185.622 62.1482 186.228 62.1482 186.712V192.885C62.1482 197.001 60.5749 200.148 57.7914 202.206C60.817 204.385 62.5113 207.653 62.5113 212.011Z" fill="#282829"/>
<path d="M71.9511 204.627C71.9511 205.232 71.346 205.474 71.1039 205.474H66.263C66.021 205.474 65.5369 205.353 65.5369 204.627V200.632C65.5369 200.027 65.8999 199.785 66.263 199.785H71.1039C71.709 199.785 71.9511 200.269 71.9511 200.632V204.627Z" fill="#282829"/>
<path d="M94.0982 196.032C94.0982 196.759 93.9772 197.122 93.2511 197.122H88.4101C87.805 197.122 87.563 196.88 87.563 196.154V193.854C87.563 192.401 86.5948 190.948 84.9005 190.948C83.2062 190.948 81.9959 192.28 81.9959 193.733V210.8C81.9959 212.374 83.0851 213.706 84.9005 213.706C86.8368 213.706 87.684 212.253 87.684 210.8V207.895C87.684 207.169 87.9261 206.927 88.4101 206.927H93.2511C93.8562 206.927 94.0982 207.048 94.0982 207.774V211.042C94.0982 216.248 89.8624 219.395 84.6584 219.395C79.4545 219.395 74.9766 216.248 74.9766 211.042V193.369C74.9766 188.649 78.9704 185.017 84.6584 185.017C90.9516 185.017 93.8562 189.254 93.8562 193.49V196.032H94.0982Z" fill="#282829"/>
<path d="M115.882 185.743C116.366 185.743 116.729 185.985 116.729 186.712V218.184C116.729 218.79 116.487 219.153 115.761 219.153H110.678C110.073 219.153 109.831 218.79 109.831 218.184V204.99H104.143V218.184C104.143 218.79 103.901 219.153 103.296 219.153H98.092C97.4869 219.153 97.2448 218.79 97.2448 218.184V186.712C97.2448 186.107 97.4869 185.743 98.092 185.743H103.296C103.901 185.743 104.143 186.107 104.143 186.712V199.18H109.831V186.712C109.831 186.228 110.073 185.743 110.678 185.743H115.882Z" fill="#282829"/>
<path d="M127.5 218.184C127.5 218.79 127.258 219.153 126.653 219.153H121.449C120.844 219.153 120.602 218.79 120.602 218.184V186.712C120.602 186.107 120.965 185.743 121.449 185.743H126.653C127.258 185.743 127.5 186.107 127.5 186.712V218.184Z" fill="#282829"/>
<path d="M131.252 186.591C131.252 185.985 131.615 185.622 132.099 185.622H141.297C146.622 185.622 150.737 189.375 150.737 194.217V201.964C150.737 206.806 146.743 210.679 141.297 210.679H138.15V218.063C138.15 218.668 137.908 219.032 137.303 219.032H132.099C131.494 219.032 131.252 218.668 131.252 218.063V186.591ZM143.839 194.459C143.839 192.764 142.628 191.554 140.813 191.554H138.15V204.99H140.813C142.628 204.99 143.839 203.78 143.839 202.085V194.459Z" fill="#282829"/>
<path d="M164.533 193.975C164.533 192.28 163.565 190.948 161.75 190.948C160.419 190.948 158.966 191.796 158.966 193.975C158.966 196.275 160.54 197.243 162.839 198.938C167.68 202.448 171.674 205.111 171.674 211.164C171.674 215.642 167.801 219.516 161.992 219.516C155.699 219.516 152.552 215.4 152.552 210.921V209.59C152.552 208.743 152.673 208.379 153.399 208.379H158.119C158.845 208.379 158.966 208.622 158.966 209.348V210.437C158.966 212.858 160.661 213.584 161.992 213.584C163.686 213.584 165.018 212.495 165.018 210.679C165.018 208.379 163.686 207.29 160.419 204.869C154.973 200.753 152.552 199.18 152.552 193.612C152.552 187.317 158.119 185.017 161.871 185.017C167.317 185.017 171.19 188.527 171.19 193.854V195.185C171.19 195.911 170.948 196.154 170.222 196.154H165.26C164.654 196.154 164.533 195.911 164.533 195.185V193.975Z" fill="#282829"/>
<path fill-rule="evenodd" clip-rule="evenodd" d="M170.222 85.7574L84.9005 108.636L150.011 148.339C167.196 133.208 175.547 109.483 170.222 85.7574ZM144.202 153.06L102.207 127.519L79.2125 158.265C92.646 164.681 108.379 166.618 123.87 162.381C131.373 160.444 138.151 157.176 144.202 153.06ZM168.285 78.6155C157.272 46.7799 123.386 28.5016 90.3465 37.3381C57.3073 46.1746 37.0965 79.0997 43.5107 112.025L168.285 78.6155ZM72.7982 154.876L96.0346 123.767L75.4607 111.299L45.2051 119.409C50.167 134.54 60.0909 146.887 72.7982 154.876ZM38.4278 118.198C28.2619 80.3102 50.7721 41.3327 88.6522 31.1646C126.532 20.9966 165.502 43.5116 175.668 81.3997C185.833 119.288 163.323 158.265 125.443 168.433C87.563 178.601 48.5937 156.086 38.4278 118.198Z" fill="#282829"/>
<path fill-rule="evenodd" clip-rule="evenodd" d="M88.2891 62.2742C87.321 58.5217 83.3272 56.2218 79.5755 57.3112C75.8238 58.2796 73.5244 62.2742 74.6136 66.0267L78.3653 80.1893C79.3335 83.9418 83.3272 86.2417 87.0789 85.2733C90.8306 84.305 93.13 80.3104 92.0408 76.5579L88.2891 62.2742Z" fill="#282829"/>
<path fill-rule="evenodd" clip-rule="evenodd" d="M118.303 54.2849C117.335 50.5324 113.341 48.2325 109.589 49.3219C105.837 50.2903 103.538 54.2849 104.627 58.0374L108.379 72.2001C109.347 75.9526 113.341 78.2525 117.093 77.2841C120.844 76.3157 123.144 72.3211 122.054 68.5686L118.303 54.2849Z" fill="#282829"/>
<path d="M35.7654 28.7438V170.37" stroke="#010101" stroke-width="0.25" stroke-miterlimit="10"/>
<path d="M41.8165 28.7438V206.685" stroke="#010101" stroke-width="0.25" stroke-miterlimit="10"/>
<path d="M171.311 28.7438V206.685" stroke="#010101" stroke-width="0.25" stroke-miterlimit="10"/>
<path d="M214.032 28.7438H0.668762" stroke="#010101" stroke-width="0.25" stroke-miterlimit="10"/>
<path d="M214.032 35.1594H0.668762" stroke="#010101" stroke-width="0.25" stroke-miterlimit="10"/>
<path d="M214.032 164.56H0.668762" stroke="#010101" stroke-width="0.25" stroke-miterlimit="10"/>
<path d="M214.032 170.854H0.668762" stroke="#010101" stroke-width="0.25" stroke-miterlimit="10"/>
<path d="M178.572 28.7438V170.37" stroke="#010101" stroke-width="0.25" stroke-miterlimit="10"/>
<path d="M21.9688 30.9226V168.676" stroke="#010101" stroke-width="0.25" stroke-miterlimit="10"/>
<path d="M20.5165 31.4068L21.9688 28.7438L23.5421 31.4068H20.5165Z" fill="#010101"/>
<path d="M20.5165 168.191L21.9688 170.854L23.5421 168.191H20.5165Z" fill="#010101"/>
<path d="M15.1915 107.667C14.7074 107.667 14.3444 107.546 14.1023 107.183C13.9813 106.941 13.6182 106.578 13.7393 105.972C13.8603 104.52 14.8285 103.309 16.1597 101.857C16.8859 101.131 17.854 100.404 18.9432 99.5569C18.7012 98.1043 18.5802 97.136 18.3381 96.5307C17.9751 97.0149 17.491 97.6202 17.1279 98.4675C16.8859 99.0727 16.2807 99.4359 15.6756 99.4359C15.0705 99.4359 14.5864 99.0727 14.3444 98.4675C13.9813 97.4991 14.3444 96.2886 14.5864 95.8044C15.3126 93.9887 17.491 92.173 19.7904 92.173C20.0324 92.173 20.1535 92.173 20.3955 92.173C22.3319 92.5361 22.937 93.9887 23.179 95.3202C23.179 95.5623 23.3001 95.8044 23.3001 96.1676C24.7523 94.9571 25.8415 93.8677 26.8097 92.8993C27.2938 92.294 27.8989 92.173 28.262 92.173C28.9881 92.173 29.7143 92.7782 29.7143 93.7466C29.7143 95.3202 28.6251 96.6518 27.5359 97.8623C26.8097 98.5885 25.5995 99.5569 24.1472 100.646C24.2682 101.009 24.2682 101.373 24.2682 101.736C24.3893 102.341 24.5103 102.946 24.5103 103.43C24.6313 103.794 24.6313 104.036 24.7523 104.157C25.1154 103.915 25.9626 102.946 27.1728 100.646C27.4148 100.162 28.0199 99.799 28.504 99.799C29.1091 99.799 29.5932 100.162 29.8353 100.767C30.1984 101.615 30.0773 102.825 29.4722 103.794C28.141 106.215 25.8415 107.788 23.7841 107.788C21.0006 107.788 20.0324 105.972 19.5484 104.157C18.3381 105.246 17.2489 106.215 16.4018 107.183C16.2807 107.425 15.6756 107.667 15.1915 107.667Z" fill="black"/>
<path d="M19.7904 93.1414C19.9114 93.1414 20.0324 93.1414 20.1534 93.1414C21.2426 93.3835 21.7267 93.9888 21.9688 95.4414C22.0898 96.1676 22.3319 97.136 22.4529 98.2254C24.3892 96.7729 26.2046 95.1992 27.6568 93.5046C27.7779 93.2625 28.0199 93.1414 28.1409 93.1414C28.262 93.1414 28.383 93.2625 28.383 93.5046C28.383 94.594 27.6568 95.5624 26.4466 96.7729C25.7205 97.6202 24.2682 98.5886 22.5739 99.7991C22.8159 101.131 22.937 102.462 23.179 103.309C23.4211 104.641 23.9051 105.004 24.2682 105.125C25.5995 105.125 27.0517 102.825 28.0199 100.889C28.1409 100.767 28.262 100.646 28.262 100.646C28.383 100.646 28.383 100.646 28.504 100.767C28.625 101.131 28.625 101.978 28.1409 102.825C27.0517 104.762 25.2364 106.215 23.5421 106.215C21.7267 106.215 20.7586 105.246 20.2745 102.583C20.2745 102.341 20.1534 101.978 20.1534 101.615C18.4591 102.946 16.7648 104.399 15.3125 106.094C15.1915 106.215 14.9495 106.336 14.7074 106.336C14.5864 106.336 14.4654 106.215 14.4654 105.973C14.5864 104.883 15.3125 103.915 16.5228 102.583C17.3699 101.736 18.5801 100.889 19.7904 99.9201C19.4273 97.4992 18.8222 94.473 18.4591 94.473C17.975 94.473 16.6438 95.6834 15.5546 97.8623C15.4336 97.9834 15.3125 98.1044 15.1915 98.1044C15.0705 98.1044 14.9495 98.1044 14.9495 97.9834C14.8284 97.4992 14.9495 96.7729 15.1915 96.2887C16.4017 94.7151 18.2171 93.1414 19.7904 93.1414ZM19.7904 90.7205C17.0069 90.7205 14.4654 93.0204 13.4972 95.0782C13.1341 95.8045 12.7711 97.2571 13.2551 98.7097C13.7392 99.7991 14.7074 100.404 15.7966 100.404C15.6756 100.525 15.4336 100.767 15.3125 100.889C13.7392 102.462 12.65 103.794 12.529 105.73C12.408 106.578 12.65 107.304 13.1341 107.909C13.6182 108.515 14.3444 108.757 15.1915 108.757C16.0387 108.757 16.8858 108.393 17.4909 107.788C17.975 107.183 18.5801 106.699 19.1853 106.094C20.1534 107.909 21.7267 108.878 23.9051 108.878C26.4466 108.878 29.1091 107.062 30.6824 104.278C31.5296 102.825 31.6506 101.373 31.0455 100.162C30.5614 99.1938 29.7142 98.4676 28.625 98.4676C29.8353 97.136 30.9245 95.6834 30.9245 93.7467C30.9245 91.9309 29.5932 90.9626 28.262 90.9626C27.4148 90.9626 26.5676 91.3257 25.9625 92.173C25.4784 92.7783 24.8733 93.3835 24.1472 94.1098C23.7841 92.8993 22.8159 91.4468 20.6375 91.0836C20.3955 90.8415 20.1534 90.7205 19.7904 90.7205ZM25.4784 101.01C25.5995 100.889 25.5995 100.889 25.7205 100.889C25.5995 101.01 25.5995 101.131 25.4784 101.252C25.4784 101.131 25.4784 101.01 25.4784 101.01Z" fill="white"/>
</g>
<path d="M35.5233 0V171.91" stroke="#010101" stroke-width="0.25" stroke-miterlimit="10"/>
<path d="M41.6091 0V171.91" stroke="#010101" stroke-width="0.25" stroke-miterlimit="10"/>
<path d="M171.069 0V171.91" stroke="#010101" stroke-width="0.25" stroke-miterlimit="10"/>
<path d="M178.814 0V171.91" stroke="#010101" stroke-width="0.25" stroke-miterlimit="10"/>
<path d="M175.885 12.4506H38.2045" stroke="#010101" stroke-width="0.25" stroke-miterlimit="10"/>
<path d="M175.522 10.8792L178.063 12.4506L175.522 13.9011V10.8792Z" fill="#010101"/>
<path d="M38.6882 10.8792L36.0266 12.4506L38.6882 13.9011V10.8792Z" fill="#010101"/>
<path d="M100.27 20.1869C99.7859 20.1869 99.4229 20.066 99.1809 19.7034C99.06 19.4616 98.697 19.099 98.818 18.4946C98.939 17.044 99.9069 15.8352 101.238 14.3847C101.964 13.6594 103.052 12.8133 104.02 12.088C103.778 10.6374 103.657 9.6704 103.415 9.066C103.052 9.54952 102.569 10.1539 102.206 11.0001C101.964 11.6045 101.359 11.9671 100.754 11.9671C100.149 11.9671 99.6649 11.6045 99.4229 11.0001C99.06 10.033 99.4229 8.82425 99.6649 8.34073C100.391 6.52754 102.569 4.71436 104.867 4.71436C105.109 4.71436 105.23 4.71436 105.472 4.71436C107.408 5.07699 108.013 6.52754 108.255 7.85721C108.255 8.09897 108.376 8.34073 108.376 8.70337C109.828 7.49457 110.916 6.40666 111.884 5.43963C112.368 4.83523 112.973 4.71436 113.336 4.71436C114.062 4.71436 114.788 5.31875 114.788 6.28578C114.788 7.85721 113.699 9.18688 112.61 10.3957C111.884 11.1209 110.674 12.088 109.223 13.1759C109.344 13.5385 109.344 13.9012 109.344 14.2638C109.465 14.8682 109.586 15.4726 109.586 15.9561C109.707 16.3187 109.707 16.5605 109.828 16.6814C110.191 16.4396 111.037 15.4726 112.247 13.1759C112.489 12.6924 113.094 12.3297 113.578 12.3297C114.183 12.3297 114.667 12.6924 114.909 13.2968C115.272 14.1429 115.151 15.3517 114.546 16.3188C113.215 18.7363 110.916 20.3078 108.86 20.3078C106.077 20.3078 105.109 18.4946 104.625 16.6814C103.415 17.7693 102.327 18.7363 101.48 19.7034C101.359 19.9451 100.754 20.1869 100.27 20.1869Z" fill="black"/>
<path d="M104.988 5.80235C105.109 5.80235 105.23 5.80235 105.351 5.80235C106.44 6.04411 106.924 6.6485 107.166 8.09905C107.287 8.82433 107.529 9.79136 107.65 10.8793C109.585 9.42872 111.4 7.85729 112.852 6.16499C112.973 5.92323 113.215 5.80235 113.336 5.80235C113.457 5.80235 113.578 5.92323 113.578 6.16499C113.578 7.2529 112.852 8.21993 111.642 9.42872C110.916 10.2749 109.464 11.2419 107.771 12.4507C108.013 13.7804 108.134 15.11 108.376 15.9562C108.618 17.2859 109.102 17.6485 109.464 17.7694C110.795 17.7694 112.247 15.4727 113.215 13.5386C113.336 13.4177 113.457 13.2969 113.457 13.2969C113.578 13.2969 113.578 13.2969 113.699 13.4177C113.82 13.7804 113.82 14.6265 113.336 15.4727C112.247 17.4067 110.432 18.8573 108.739 18.8573C106.924 18.8573 105.956 17.8903 105.472 15.2309C105.472 14.9892 105.351 14.6265 105.351 14.2639C103.657 15.5936 101.963 17.0441 100.512 18.7364C100.391 18.8573 100.149 18.9782 99.9067 18.9782C99.7857 18.9782 99.6647 18.8573 99.6647 18.6155C99.7857 17.5276 100.512 16.5606 101.721 15.2309C102.568 14.3848 103.778 13.5386 104.988 12.5716C104.625 10.154 104.02 7.13202 103.657 7.13202C103.173 7.13202 101.842 8.34081 100.754 10.5166C100.633 10.6375 100.512 10.7584 100.391 10.7584C100.27 10.7584 100.149 10.7584 100.149 10.6375C100.028 10.154 100.149 9.42872 100.391 8.94521C101.479 7.37378 103.294 5.80235 104.988 5.80235ZM104.988 3.38477C102.205 3.38477 99.6647 5.68147 98.6968 7.73641C98.3339 8.46169 97.9709 9.91224 98.4549 11.3628C98.9388 12.4507 99.9067 13.0551 100.996 13.0551C100.875 13.176 100.633 13.4177 100.512 13.5386C98.9388 15.11 97.8499 16.4397 97.729 18.3738C97.608 19.2199 97.8499 19.9452 98.3339 20.5496C98.8178 21.154 99.5437 21.3958 100.391 21.3958C101.238 21.3958 102.084 21.0331 102.689 20.4287C103.173 19.8243 103.778 19.3408 104.383 18.7364C105.351 20.5496 106.924 21.5166 109.102 21.5166C111.642 21.5166 114.304 19.7034 115.877 16.9232C116.724 15.4727 116.845 14.0221 116.24 12.8133C115.756 11.8463 114.909 11.121 113.82 11.121C115.03 9.79136 116.119 8.34081 116.119 6.40674C116.119 4.59356 114.788 3.62652 113.457 3.62652C112.61 3.62652 111.763 3.98916 111.158 4.83531C110.674 5.43971 110.069 6.04411 109.343 6.76938C108.981 5.56059 108.013 4.11004 105.835 3.7474C105.472 3.38477 105.23 3.38477 104.988 3.38477ZM110.553 13.5386C110.674 13.4177 110.674 13.4177 110.795 13.4177C110.674 13.5386 110.674 13.6595 110.553 13.7804C110.553 13.6595 110.553 13.6595 110.553 13.5386Z" fill="white"/>
<defs>
<clipPath id="clip0_221_10112">
<rect width="213" height="191.256" fill="white" transform="translate(0.668762 28.7438)"/>
</clipPath>
</defs>
</svg>
