<svg width="256" height="154" viewBox="0 0 256 154" fill="none" xmlns="http://www.w3.org/2000/svg">
<g clip-path="url(#clip0_221_10549)">
<path d="M108.854 93.7902V96.4638C108.854 96.6777 108.746 96.8916 108.424 96.8916H106.272C106.057 96.8916 105.734 96.7847 105.734 96.4638V94.111C105.734 92.293 105.197 91.0097 103.153 91.0097V96.4638C103.153 96.6777 103.045 96.8916 102.83 96.8916H100.571C100.356 96.8916 100.141 96.7847 100.141 96.4638V82.8819C100.141 82.668 100.249 82.4541 100.571 82.4541H102.83C103.045 82.4541 103.153 82.561 103.153 82.8819V88.443C104.982 88.336 105.627 87.0527 105.627 85.3416V82.9888C105.627 82.668 105.842 82.561 106.165 82.561H108.316C108.639 82.561 108.746 82.7749 108.746 82.9888V85.5555C108.746 87.3735 107.993 88.6569 106.81 89.6194C108.101 90.5819 108.854 91.9722 108.854 93.7902Z" fill="#282829"/>
<path d="M112.941 90.6889C112.941 91.0098 112.726 91.0098 112.618 91.0098H110.575C110.467 91.0098 110.252 90.9028 110.252 90.6889V88.9778C110.252 88.7639 110.467 88.55 110.575 88.55H112.726C113.049 88.55 113.049 88.7639 113.049 88.9778V90.6889H112.941Z" fill="#282829"/>
<path d="M122.622 86.9458C122.622 87.2666 122.514 87.3736 122.299 87.3736H120.148C119.825 87.3736 119.825 87.2666 119.825 86.9458V85.9833C119.825 85.3416 119.395 84.7 118.642 84.7C117.889 84.7 117.351 85.2347 117.351 85.9833V93.3625C117.351 94.0041 117.782 94.6458 118.642 94.6458C119.503 94.6458 119.825 94.0041 119.825 93.3625V92.0791C119.825 91.7583 119.933 91.6514 120.148 91.6514H122.299C122.514 91.6514 122.622 91.7583 122.622 92.0791V93.4694C122.622 95.7152 120.793 97.1055 118.534 97.1055C116.276 97.1055 114.232 95.7152 114.232 93.4694V85.7694C114.232 83.7375 115.953 82.1333 118.534 82.1333C121.331 82.1333 122.514 83.9514 122.514 85.7694V86.9458H122.622Z" fill="#282829"/>
<path d="M132.087 82.4541C132.302 82.4541 132.41 82.561 132.41 82.8819V96.5708C132.41 96.7847 132.302 96.9985 131.98 96.9985H129.721C129.506 96.9985 129.291 96.8916 129.291 96.5708V90.7958H126.924V96.5708C126.924 96.7847 126.817 96.9985 126.602 96.9985H124.343C124.128 96.9985 124.02 96.8916 124.02 96.5708V82.8819C124.02 82.668 124.128 82.4541 124.343 82.4541H126.602C126.817 82.4541 126.924 82.561 126.924 82.8819V88.2291H129.398V82.8819C129.398 82.668 129.506 82.4541 129.829 82.4541H132.087Z" fill="#282829"/>
<path d="M137.143 96.4638C137.143 96.6777 137.035 96.8916 136.82 96.8916H134.454C134.239 96.8916 134.131 96.7847 134.131 96.4638V82.8819C134.131 82.668 134.239 82.4541 134.454 82.4541H136.713C136.928 82.4541 137.035 82.561 137.035 82.8819V96.4638H137.143Z" fill="#282829"/>
<path d="M138.756 82.8819C138.756 82.668 138.864 82.4541 139.187 82.4541H143.166C145.533 82.4541 147.254 84.0583 147.254 86.1972V89.5124C147.254 91.6513 145.533 93.2555 143.166 93.2555H141.768V96.4638C141.768 96.6777 141.66 96.8916 141.445 96.8916H139.187C138.971 96.8916 138.756 96.7847 138.756 96.4638V82.8819ZM144.242 86.3041C144.242 85.5555 143.704 85.0208 142.951 85.0208H141.768V90.7958H142.951C143.704 90.7958 144.242 90.261 144.242 89.5124V86.3041Z" fill="#282829"/>
<path d="M153.277 86.0902C153.277 85.3416 152.847 84.8069 152.094 84.8069C151.556 84.8069 150.911 85.1277 150.911 86.0902C150.911 87.0527 151.556 87.4805 152.632 88.2291C154.783 89.7263 156.504 90.9027 156.504 93.5763C156.504 95.5013 154.783 97.2125 152.309 97.2125C149.513 97.2125 148.222 95.3944 148.222 93.4694V92.9347C148.222 92.6138 148.329 92.4 148.652 92.4H150.696C151.019 92.4 151.126 92.5069 151.126 92.8277V93.2555C151.126 94.325 151.879 94.6458 152.417 94.6458C153.17 94.6458 153.708 94.218 153.708 93.3625C153.708 92.4 153.062 91.8652 151.664 90.7958C149.297 88.9777 148.222 88.3361 148.222 85.9833C148.222 83.3097 150.696 82.2402 152.309 82.2402C154.676 82.2402 156.397 83.7375 156.397 86.0902V86.625C156.397 86.9458 156.289 87.0527 155.966 87.0527H153.923C153.6 87.0527 153.6 86.9458 153.6 86.625V86.0902H153.277Z" fill="#282829"/>
<path d="M255.892 0.106934H0.107544V153.893H255.892V0.106934Z" fill="white" stroke="#010101" stroke-width="0.25" stroke-miterlimit="10" stroke-linecap="round" stroke-linejoin="round"/>
<path d="M255.892 0.106934H0.107544V153.893H255.892V0.106934Z" fill="white" stroke="#010101" stroke-width="0.25" stroke-miterlimit="10" stroke-linecap="round" stroke-linejoin="round"/>
<path d="M64.4302 104.806C64.5378 104.806 64.5378 104.913 64.5378 105.02V106.303C64.5378 107.372 64.1075 108.121 63.247 108.442C64.1075 108.763 64.5378 109.511 64.5378 110.581V111.757C64.5378 111.864 64.5378 111.971 64.4302 111.971H64.1075C64 111.971 63.8924 111.864 63.8924 111.757V110.581C63.8924 109.404 63.3546 108.656 61.9563 108.656H61.6336V111.757C61.6336 111.864 61.6336 111.971 61.526 111.971H61.2033C61.0958 111.971 60.9882 111.864 60.9882 111.757V104.913C60.9882 104.806 61.0958 104.699 61.0958 104.699H61.4185C61.526 104.699 61.526 104.806 61.526 104.913V108.121H61.8487C63.247 108.121 63.7849 107.372 63.7849 106.196V104.913C63.7849 104.806 63.8924 104.699 64 104.699H64.4302V104.806Z" fill="#282829"/>
<path d="M68.6252 110.688C68.6252 111.436 67.9798 112.078 67.1193 112.078C66.2588 112.078 65.6134 111.436 65.6134 110.688V107.907C65.6134 107.159 66.2588 106.517 67.1193 106.517C67.9798 106.517 68.6252 107.159 68.6252 107.907V110.688ZM66.1512 107.907V110.688C66.1512 111.115 66.5815 111.543 67.1193 111.543C67.6571 111.543 68.0874 111.115 68.0874 110.688V107.907C68.0874 107.479 67.6571 107.052 67.1193 107.052C66.5815 107.052 66.1512 107.479 66.1512 107.907Z" fill="#282829"/>
<path d="M71.7445 106.945C71.7445 107.052 71.6369 107.052 71.5294 107.052C71.4218 107.052 71.2067 107.052 71.0991 107.052C70.4537 107.052 70.0235 107.586 70.0235 108.121V111.864C70.0235 111.971 69.9159 112.078 69.8084 112.078H69.4857C69.3781 112.078 69.3781 111.971 69.3781 111.971V108.228C69.3781 107.158 70.2386 106.731 70.9916 106.731C71.2067 106.731 71.4218 106.731 71.5294 106.731C71.6369 106.731 71.7445 106.838 71.7445 106.838V106.945Z" fill="#282829"/>
<path d="M75.2941 110.688C75.2941 111.436 74.6487 112.078 73.7882 112.078C72.9277 112.078 72.2823 111.436 72.2823 110.688V107.907C72.2823 107.159 72.9277 106.517 73.7882 106.517C74.6487 106.517 75.2941 107.159 75.2941 107.907V109.297C75.2941 109.404 75.1866 109.404 75.1866 109.404H72.9277V110.688C72.9277 111.115 73.358 111.543 73.8958 111.543C74.4336 111.543 74.7563 111.115 74.7563 110.688V110.474C74.7563 110.367 74.8639 110.367 74.8639 110.367H75.1866C75.1866 110.367 75.2941 110.367 75.2941 110.474V110.688ZM72.8202 107.907V108.977H74.6487V107.907C74.6487 107.479 74.2185 107.052 73.7882 107.052C73.2504 107.052 72.8202 107.479 72.8202 107.907Z" fill="#282829"/>
<path d="M78.521 108.763V108.014C78.521 107.693 78.1983 107.052 77.4453 107.052C76.9075 107.052 76.6924 107.265 76.4773 107.479H76.3697H76.2621L76.1546 107.265C76.1546 107.159 76.1546 107.159 76.2621 107.052C76.5848 106.838 76.9075 106.624 77.5529 106.624C78.521 106.624 79.0588 107.265 79.0588 108.014V110.795C79.0588 111.864 78.0907 112.185 77.5529 112.185C76.8 112.185 75.9395 111.757 75.9395 110.688V110.581C75.9395 109.618 76.5848 108.977 77.6605 108.977H78.521V108.763ZM78.521 109.19H77.8756C76.8 109.19 76.4773 109.725 76.4773 110.367V110.474C76.4773 111.222 77.1226 111.543 77.5529 111.543C77.8756 111.543 78.521 111.329 78.521 110.688V109.19Z" fill="#282829"/>
<path d="M85.8353 106.624C85.8353 106.731 85.8353 106.838 85.7277 106.838H85.405C85.2975 106.838 85.2975 106.838 85.2975 106.624V106.303C85.2975 105.661 84.8672 105.233 84.2218 105.233C83.5764 105.233 83.0386 105.768 83.0386 106.303V110.474C83.0386 111.115 83.5764 111.543 84.2218 111.543C84.8672 111.543 85.405 111.008 85.405 110.474V110.046C85.405 109.939 85.405 109.832 85.5126 109.832H85.8353C85.9428 109.832 85.9428 109.832 85.9428 110.046V110.474C85.9428 111.436 85.1899 112.078 84.2218 112.078C83.2538 112.078 82.3932 111.436 82.3932 110.474V106.303C82.3932 105.447 83.1462 104.699 84.2218 104.699C85.2975 104.699 85.9428 105.447 85.9428 106.303V106.624H85.8353Z" fill="#282829"/>
<path d="M89.7076 110.688C89.7076 111.436 89.0622 112.078 88.2017 112.078C87.3412 112.078 86.6958 111.436 86.6958 110.688V107.907C86.6958 107.159 87.3412 106.517 88.2017 106.517C89.0622 106.517 89.7076 107.159 89.7076 107.907V110.688ZM87.2336 107.907V110.688C87.2336 111.115 87.6639 111.543 88.2017 111.543C88.7395 111.543 89.1698 111.115 89.1698 110.688V107.907C89.1698 107.479 88.7395 107.052 88.2017 107.052C87.6639 107.052 87.2336 107.479 87.2336 107.907Z" fill="#282829"/>
<path d="M92.1815 111.864C92.1815 111.864 92.1815 111.971 91.9664 111.971H91.6437C90.9983 111.971 90.6756 111.65 90.6756 110.902V104.806C90.6756 104.699 90.6756 104.699 90.7832 104.699H91.1058C91.2134 104.699 91.2134 104.806 91.2134 104.806V110.795C91.2134 111.115 91.4285 111.329 91.7512 111.329H91.9664C92.0739 111.329 92.0739 111.436 92.0739 111.436V111.864H92.1815Z" fill="#282829"/>
<path d="M94.4403 111.864C94.4403 111.864 94.4403 111.971 94.2252 111.971H93.9025C93.2571 111.971 92.9344 111.65 92.9344 110.902V104.806C92.9344 104.699 92.9344 104.699 93.042 104.699H93.3647C93.4723 104.699 93.4723 104.806 93.4723 104.806V110.795C93.4723 111.115 93.6874 111.329 94.0101 111.329H94.2252C94.3328 111.329 94.3328 111.436 94.3328 111.436V111.864H94.4403Z" fill="#282829"/>
<path d="M97.5597 108.763V108.014C97.5597 107.693 97.237 107.052 96.484 107.052C95.9462 107.052 95.7311 107.265 95.516 107.479H95.4084H95.3008L95.1933 107.265C95.1933 107.159 95.1933 107.159 95.3008 107.052C95.6235 106.838 95.9462 106.624 96.5916 106.624C97.5597 106.624 98.0975 107.265 98.0975 108.014V110.795C98.0975 111.864 97.1294 112.185 96.5916 112.185C95.8387 112.185 94.9781 111.757 94.9781 110.688V110.581C94.9781 109.618 95.6235 108.977 96.6992 108.977H97.5597V108.763ZM97.5597 109.19H96.9143C95.8386 109.19 95.516 109.725 95.516 110.367V110.474C95.516 111.222 96.1613 111.543 96.5916 111.543C96.9143 111.543 97.5597 111.329 97.5597 110.688V109.19Z" fill="#282829"/>
<path d="M102.077 110.688C102.077 111.436 101.432 112.078 100.571 112.078C99.7109 112.078 99.0656 111.436 99.0656 110.688V104.913C99.0656 104.806 99.0656 104.806 99.1731 104.806H99.4958C99.6034 104.806 99.6034 104.913 99.6034 104.913V106.945C99.9261 106.731 100.249 106.624 100.571 106.624C101.432 106.624 102.077 107.265 102.077 108.014V110.688ZM99.6034 110.688C99.6034 111.115 100.034 111.543 100.571 111.543C101.109 111.543 101.54 111.115 101.54 110.688V107.907C101.54 107.479 101.109 107.051 100.571 107.051C100.034 107.051 99.6034 107.479 99.6034 107.907V110.688Z" fill="#282829"/>
<path d="M105.95 110.688C105.95 111.436 105.304 112.078 104.444 112.078C103.583 112.078 102.938 111.436 102.938 110.688V107.907C102.938 107.159 103.583 106.517 104.444 106.517C105.304 106.517 105.95 107.159 105.95 107.907V110.688ZM103.476 107.907V110.688C103.476 111.115 103.906 111.543 104.444 111.543C104.982 111.543 105.412 111.115 105.412 110.688V107.907C105.412 107.479 104.982 107.052 104.444 107.052C103.906 107.052 103.476 107.479 103.476 107.907Z" fill="#282829"/>
<path d="M109.176 106.945C109.176 107.052 109.069 107.052 108.961 107.052C108.854 107.052 108.639 107.052 108.531 107.052C107.886 107.052 107.455 107.586 107.455 108.121V111.864C107.455 111.971 107.348 112.078 107.24 112.078H106.918C106.81 112.078 106.81 111.971 106.81 111.971V108.228C106.81 107.158 107.671 106.731 108.424 106.731C108.639 106.731 108.854 106.731 108.961 106.731C109.069 106.731 109.176 106.838 109.176 106.838V106.945Z" fill="#282829"/>
<path d="M111.973 108.763V108.014C111.973 107.693 111.65 107.052 110.897 107.052C110.36 107.052 110.145 107.265 109.929 107.479H109.822H109.714L109.607 107.265C109.607 107.159 109.607 107.159 109.714 107.052C110.037 106.838 110.36 106.624 111.005 106.624C111.973 106.624 112.511 107.265 112.511 108.014V110.795C112.511 111.864 111.543 112.185 111.005 112.185C110.252 112.185 109.392 111.757 109.392 110.688V110.581C109.392 109.618 110.037 108.977 111.113 108.977H111.973V108.763ZM111.973 109.19H111.328C110.252 109.19 109.929 109.725 109.929 110.367V110.474C109.929 111.222 110.575 111.543 111.005 111.543C111.328 111.543 111.973 111.329 111.973 110.688V109.19Z" fill="#282829"/>
<path d="M114.77 111.971C114.124 111.971 113.802 111.65 113.802 110.901V107.051H113.264C113.264 107.051 113.156 107.051 113.156 106.944V106.731C113.156 106.624 113.264 106.624 113.264 106.624H113.802V105.768C113.802 105.661 113.909 105.661 113.909 105.554L114.232 105.447C114.34 105.447 114.34 105.447 114.34 105.554V106.517H115.2C115.308 106.517 115.308 106.517 115.308 106.624V106.838C115.308 106.944 115.308 106.944 115.2 106.944H114.34V110.794C114.34 111.115 114.555 111.329 114.877 111.329H115.092C115.2 111.329 115.2 111.436 115.2 111.436V111.65C115.2 111.65 115.2 111.757 114.985 111.757H114.77V111.971Z" fill="#282829"/>
<path d="M116.706 105.875C116.706 105.982 116.598 105.982 116.598 105.982H116.168C116.061 105.982 115.953 105.982 115.953 105.875V105.554C115.953 105.447 115.953 105.447 116.061 105.447H116.491C116.598 105.447 116.598 105.447 116.598 105.554V105.875H116.706ZM115.953 106.838C115.953 106.731 115.953 106.731 116.061 106.731H116.383C116.491 106.731 116.491 106.838 116.491 106.838V111.864C116.491 111.971 116.491 111.971 116.383 111.971H116.168C116.061 111.971 116.061 111.864 116.061 111.864V106.838H115.953Z" fill="#282829"/>
<path d="M119.18 110.902L120.255 106.838C120.255 106.731 120.363 106.731 120.471 106.731H120.793C120.901 106.731 120.901 106.838 120.901 106.945L119.503 111.971C119.503 112.078 119.395 112.078 119.395 112.078H119.072C118.965 112.078 118.965 112.078 118.965 111.971L117.566 106.945C117.566 106.838 117.674 106.731 117.674 106.731H117.997C118.104 106.731 118.104 106.731 118.104 106.838L119.18 110.902Z" fill="#282829"/>
<path d="M124.235 110.688C124.235 111.436 123.59 112.078 122.729 112.078C121.869 112.078 121.224 111.436 121.224 110.688V107.907C121.224 107.159 121.869 106.517 122.729 106.517C123.59 106.517 124.235 107.159 124.235 107.907V109.297C124.235 109.404 124.128 109.404 124.128 109.404H121.869V110.688C121.869 111.115 122.299 111.543 122.837 111.543C123.375 111.543 123.697 111.115 123.697 110.688V110.474C123.697 110.367 123.805 110.367 123.805 110.367H124.128C124.128 110.367 124.235 110.367 124.235 110.474V110.688ZM121.869 107.907V108.977H123.697V107.907C123.697 107.479 123.267 107.052 122.837 107.052C122.192 107.052 121.869 107.479 121.869 107.907Z" fill="#282829"/>
<path d="M130.151 107.158C130.259 107.158 130.259 107.265 130.259 107.265V107.907H130.904C131.012 107.907 131.012 107.907 131.012 108.014V108.228C131.012 108.335 131.012 108.335 130.904 108.335H130.259V110.474C130.259 111.329 129.613 111.971 128.645 111.971C127.677 111.971 127.032 111.436 127.032 110.474V109.19C127.032 108.549 127.355 108.228 127.785 108.014C127.462 107.8 127.139 107.372 127.139 106.838V106.089C127.139 105.02 128 104.592 128.645 104.592C129.398 104.592 130.151 104.913 130.151 106.089C130.151 106.196 130.151 106.303 130.044 106.303H129.721C129.613 106.303 129.613 106.196 129.613 106.089C129.613 105.34 129.291 105.127 128.753 105.127C128.323 105.127 127.785 105.34 127.785 106.089V106.945C127.785 107.372 128 107.907 128.43 107.907H129.613V107.265C129.613 107.265 129.613 107.158 129.721 107.158H130.151ZM129.721 108.442H128.538C127.892 108.442 127.677 108.977 127.677 109.297V110.581C127.677 111.329 128.108 111.543 128.753 111.543C129.291 111.543 129.721 111.222 129.721 110.581V108.442Z" fill="#282829"/>
<path d="M137.681 104.806C137.788 104.806 137.788 104.913 137.788 105.02V111.864C137.788 111.971 137.788 112.078 137.681 112.078H137.358C137.25 112.078 137.25 111.971 137.25 111.864V108.656H134.884V111.864C134.884 111.971 134.884 112.078 134.776 112.078H134.454C134.346 112.078 134.346 111.971 134.346 111.864V105.02C134.346 104.913 134.346 104.806 134.454 104.806H134.776C134.884 104.806 134.884 104.913 134.884 105.02V108.121H137.25V105.02C137.25 104.913 137.25 104.806 137.358 104.806H137.681Z" fill="#282829"/>
<path d="M139.724 105.875C139.724 105.982 139.617 105.982 139.617 105.982H139.187C139.079 105.982 138.971 105.982 138.971 105.875V105.554C138.971 105.447 138.971 105.447 139.079 105.447H139.509C139.617 105.447 139.617 105.447 139.617 105.554V105.875H139.724ZM139.079 106.838C139.079 106.731 139.079 106.731 139.187 106.731H139.509C139.617 106.731 139.617 106.838 139.617 106.838V111.864C139.617 111.971 139.617 111.971 139.509 111.971H139.187C139.079 111.971 139.079 111.864 139.079 111.864V106.838Z" fill="#282829"/>
<path d="M142.521 111.65C143.382 111.65 143.919 111.864 143.919 112.72V113.575C143.919 113.682 143.919 113.682 143.812 113.682H143.489C143.382 113.682 143.382 113.575 143.382 113.575V112.827C143.382 112.292 143.059 112.078 142.521 112.078H141.768H141.661C141.015 112.078 140.585 111.543 140.585 111.115V111.009C140.585 110.581 140.8 110.26 141.015 110.046C140.8 109.832 140.692 109.511 140.692 109.084V108.014C140.692 107.159 141.338 106.624 142.198 106.624C142.413 106.624 142.629 106.624 142.736 106.731H143.812C143.919 106.731 144.027 106.838 144.027 106.838V107.052C144.027 107.159 144.027 107.159 143.812 107.159H143.489C143.704 107.372 143.812 107.693 143.812 108.014V109.19C143.812 110.046 143.166 110.581 142.306 110.581C141.983 110.581 141.768 110.474 141.553 110.367C141.338 110.581 141.338 110.688 141.338 111.009C141.338 111.329 141.661 111.65 141.983 111.65H142.521ZM143.059 107.907C143.059 107.479 142.629 107.052 142.091 107.052C141.553 107.052 141.123 107.479 141.123 107.907V109.19C141.123 109.618 141.553 110.046 142.091 110.046C142.629 110.046 143.059 109.618 143.059 109.19V107.907Z" fill="#282829"/>
<path d="M147.899 111.864C147.899 111.971 147.792 111.971 147.792 111.971H147.361C147.254 111.971 147.254 111.971 147.254 111.864V107.907C147.254 107.479 146.824 107.051 146.286 107.051C145.748 107.051 145.318 107.479 145.318 108.014V111.864C145.318 111.971 145.318 111.971 145.102 111.971H144.78C144.672 111.971 144.672 111.971 144.672 111.864V104.913C144.672 104.806 144.672 104.806 144.78 104.806H145.102C145.21 104.806 145.21 104.913 145.21 104.913V106.945C145.425 106.731 145.855 106.517 146.286 106.517C147.146 106.517 147.684 107.158 147.684 107.907V111.864H147.899Z" fill="#282829"/>
<path d="M151.341 108.442C151.341 108.549 151.234 108.549 151.234 108.549H148.975C148.867 108.549 148.867 108.549 148.867 108.442V108.228C148.867 108.121 148.975 108.121 148.975 108.121H151.234C151.341 108.121 151.341 108.121 151.341 108.228V108.442Z" fill="#282829"/>
<path d="M153.492 111.971C152.847 111.971 152.524 111.65 152.524 110.901V107.051H151.987C151.987 107.051 151.879 107.051 151.879 106.944V106.731C151.879 106.624 151.987 106.624 151.987 106.624H152.524V105.768C152.524 105.661 152.632 105.661 152.632 105.554L152.955 105.447C153.062 105.447 153.062 105.447 153.062 105.554V106.517H153.923C154.03 106.517 154.03 106.517 154.03 106.624V106.838C154.03 106.944 154.03 106.944 153.923 106.944H153.062V110.794C153.062 111.115 153.277 111.329 153.6 111.329H153.815C153.923 111.329 153.923 111.436 153.923 111.436V111.65C153.923 111.65 153.923 111.757 153.708 111.757H153.492V111.971Z" fill="#282829"/>
<path d="M157.687 110.688C157.687 111.436 157.042 112.078 156.182 112.078C155.321 112.078 154.676 111.436 154.676 110.688V107.907C154.676 107.159 155.321 106.517 156.182 106.517C157.042 106.517 157.687 107.159 157.687 107.907V109.297C157.687 109.404 157.58 109.404 157.58 109.404H155.321V110.688C155.321 111.115 155.751 111.543 156.289 111.543C156.827 111.543 157.15 111.115 157.15 110.688V110.474C157.15 110.367 157.257 110.367 157.257 110.367H157.58C157.58 110.367 157.687 110.367 157.687 110.474V110.688ZM155.213 107.907V108.977H157.042V107.907C157.042 107.479 156.612 107.052 156.182 107.052C155.751 107.052 155.213 107.479 155.213 107.907Z" fill="#282829"/>
<path d="M161.345 110.367C161.452 110.367 161.452 110.367 161.452 110.581V110.795C161.452 111.543 160.807 112.185 159.946 112.185C159.086 112.185 158.44 111.543 158.44 110.795V108.014C158.44 107.265 159.086 106.624 159.946 106.624C160.807 106.624 161.452 107.265 161.452 108.014V108.335C161.452 108.442 161.345 108.549 161.345 108.549H161.022C160.914 108.549 160.914 108.549 160.914 108.442V108.121C160.914 107.693 160.592 107.265 160.054 107.265C159.516 107.265 159.086 107.693 159.086 108.121V110.902C159.086 111.329 159.516 111.757 160.054 111.757C160.592 111.757 160.914 111.329 160.914 110.902V110.688C160.914 110.581 161.022 110.474 161.022 110.474H161.345V110.367Z" fill="#282829"/>
<path d="M165.432 111.864C165.432 111.971 165.324 111.971 165.324 111.971H165.002C164.894 111.971 164.894 111.971 164.894 111.864V107.907C164.894 107.479 164.464 107.051 163.926 107.051C163.388 107.051 162.958 107.479 162.958 108.014V111.864C162.958 111.971 162.958 111.971 162.743 111.971H162.42C162.313 111.971 162.313 111.971 162.313 111.864V104.913C162.313 104.806 162.313 104.806 162.42 104.806H162.743C162.85 104.806 162.85 104.913 162.85 104.913V106.945C163.066 106.731 163.496 106.517 163.926 106.517C164.787 106.517 165.324 107.158 165.324 107.907V111.864H165.432Z" fill="#282829"/>
<path d="M169.519 111.864C169.519 111.971 169.519 112.078 169.412 112.078H169.089C168.981 112.078 168.982 111.971 168.982 111.864V105.02C168.982 104.913 168.981 104.806 169.089 104.806H169.412C169.519 104.806 169.519 104.913 169.519 105.02V111.864Z" fill="#282829"/>
<path d="M173.392 111.971C173.284 111.971 173.284 111.971 173.284 111.864V108.014C173.284 107.586 172.961 107.159 172.316 107.159C171.778 107.159 171.348 107.586 171.348 108.014V111.971C171.348 112.078 171.24 112.078 171.24 112.078H170.918C170.81 112.078 170.81 111.971 170.81 111.971V108.014C170.81 107.265 171.455 106.624 172.316 106.624C173.284 106.624 173.822 107.265 173.822 108.014V111.864C173.822 111.971 173.714 111.971 173.714 111.971H173.392Z" fill="#282829"/>
<path d="M175.543 105.875C175.543 105.982 175.435 105.982 175.435 105.982H175.005C174.897 105.982 174.79 105.982 174.79 105.875V105.554C174.79 105.447 174.79 105.447 174.897 105.447H175.328C175.435 105.447 175.435 105.447 175.435 105.554V105.875H175.543ZM174.897 106.838C174.897 106.731 174.897 106.731 175.005 106.731H175.328C175.435 106.731 175.435 106.838 175.435 106.838V111.864C175.435 111.971 175.435 111.971 175.328 111.971H175.005C174.897 111.971 174.897 111.864 174.897 111.864V106.838Z" fill="#282829"/>
<path d="M177.802 111.971C177.156 111.971 176.834 111.65 176.834 110.901V107.051H176.296C176.296 107.051 176.188 107.051 176.188 106.944V106.731C176.188 106.624 176.296 106.624 176.296 106.624H176.834V105.768C176.834 105.661 176.941 105.661 176.941 105.554L177.264 105.447C177.371 105.447 177.371 105.447 177.371 105.554V106.517H178.232C178.339 106.517 178.339 106.517 178.339 106.624V106.838C178.339 106.944 178.339 106.944 178.232 106.944H177.371V110.794C177.371 111.115 177.587 111.329 177.909 111.329H178.124C178.232 111.329 178.232 111.436 178.232 111.436V111.65C178.232 111.65 178.232 111.757 178.017 111.757H177.802V111.971Z" fill="#282829"/>
<path d="M179.738 105.875C179.738 105.982 179.63 105.982 179.63 105.982H179.2C179.092 105.982 178.985 105.982 178.985 105.875V105.554C178.985 105.447 178.985 105.447 179.092 105.447H179.523C179.63 105.447 179.63 105.447 179.63 105.554V105.875H179.738ZM178.985 106.838C178.985 106.731 178.985 106.731 179.092 106.731H179.415C179.523 106.731 179.523 106.838 179.523 106.838V111.864C179.523 111.971 179.523 111.971 179.415 111.971H179.092C178.985 111.971 178.985 111.864 178.985 111.864V106.838Z" fill="#282829"/>
<path d="M183.072 108.763V108.014C183.072 107.693 182.75 107.052 181.997 107.052C181.459 107.052 181.244 107.265 181.029 107.479H180.921H180.813L180.706 107.265C180.706 107.159 180.706 107.159 180.813 107.052C181.136 106.838 181.459 106.624 182.104 106.624C183.072 106.624 183.61 107.265 183.61 108.014V110.795C183.61 111.864 182.642 112.185 182.104 112.185C181.351 112.185 180.491 111.757 180.491 110.688V110.581C180.491 109.618 181.136 108.977 182.212 108.977H183.072V108.763ZM183.072 109.19H182.427C181.351 109.19 181.029 109.725 181.029 110.367V110.474C181.029 111.222 181.674 111.543 182.104 111.543C182.427 111.543 183.072 111.329 183.072 110.688V109.19Z" fill="#282829"/>
<path d="M185.761 111.971C185.116 111.971 184.793 111.65 184.793 110.901V107.051H184.255C184.255 107.051 184.148 107.051 184.148 106.944V106.731C184.148 106.624 184.255 106.624 184.255 106.624H184.793V105.768C184.793 105.661 184.901 105.661 184.901 105.554L185.224 105.447C185.331 105.447 185.331 105.447 185.331 105.554V106.517H186.192C186.299 106.517 186.299 106.517 186.299 106.624V106.838C186.299 106.944 186.299 106.944 186.192 106.944H185.331V110.794C185.331 111.115 185.546 111.329 185.869 111.329H186.084C186.192 111.329 186.192 111.436 186.192 111.436V111.65C186.192 111.65 186.192 111.757 185.976 111.757H185.761V111.971Z" fill="#282829"/>
<path d="M187.697 105.875C187.697 105.982 187.59 105.982 187.59 105.982H187.16C187.052 105.982 186.945 105.982 186.945 105.875V105.554C186.945 105.447 186.945 105.447 187.052 105.447H187.482C187.59 105.447 187.59 105.447 187.59 105.554V105.875H187.697ZM187.052 106.838C187.052 106.731 187.052 106.731 187.16 106.731H187.482C187.59 106.731 187.59 106.838 187.59 106.838V111.864C187.59 111.971 187.59 111.971 187.482 111.971H187.16C187.052 111.971 187.052 111.864 187.052 111.864V106.838Z" fill="#282829"/>
<path d="M190.171 110.902L191.247 106.838C191.247 106.731 191.355 106.731 191.462 106.731H191.785C191.892 106.731 191.892 106.838 191.892 106.945L190.494 111.971C190.494 112.078 190.387 112.078 190.387 112.078H190.064C189.956 112.078 189.956 112.078 189.956 111.971L188.558 106.945C188.558 106.838 188.666 106.731 188.666 106.731H188.988C189.096 106.731 189.096 106.731 189.096 106.838L190.171 110.902Z" fill="#282829"/>
<path d="M195.334 110.688C195.334 111.436 194.689 112.078 193.829 112.078C192.968 112.078 192.323 111.436 192.323 110.688V107.907C192.323 107.159 192.968 106.517 193.829 106.517C194.689 106.517 195.334 107.159 195.334 107.907V109.297C195.334 109.404 195.227 109.404 195.227 109.404H192.968V110.688C192.968 111.115 193.398 111.543 193.936 111.543C194.474 111.543 194.797 111.115 194.797 110.688V110.474C194.797 110.367 194.904 110.367 194.904 110.367H195.227C195.227 110.367 195.334 110.367 195.334 110.474V110.688ZM192.861 107.907V108.977H194.689V107.907C194.689 107.479 194.259 107.052 193.829 107.052C193.291 107.052 192.861 107.479 192.861 107.907Z" fill="#282829"/>
<path d="M64.3227 119.457C64.4302 119.457 64.4303 119.457 64.4303 119.564V119.778C64.4303 119.885 64.3227 119.885 64.3227 119.885H63.4622V124.59C63.4622 124.697 63.4622 124.697 63.3546 124.697H63.0319C62.9244 124.697 62.9244 124.59 62.9244 124.59V119.885H62.3866C62.279 119.885 62.279 119.885 62.279 119.778V119.564C62.279 119.457 62.3866 119.457 62.3866 119.457H62.9244V119.029C62.9244 117.853 63.4622 117.532 64.3227 117.532C64.4302 117.532 64.5378 117.532 64.5378 117.639V117.853C64.5378 117.96 64.4302 117.96 64.3227 117.96C63.6773 117.96 63.4622 118.174 63.4622 119.029V119.35H64.3227V119.457Z" fill="#282829"/>
<path d="M67.9798 123.521C67.9798 124.27 67.3345 124.911 66.474 124.911C65.6135 124.911 64.9681 124.27 64.9681 123.521V120.74C64.9681 119.992 65.6135 119.35 66.474 119.35C67.3345 119.35 67.9798 119.992 67.9798 120.74V123.521ZM65.5059 120.74V123.521C65.5059 123.949 65.9361 124.376 66.474 124.376C67.0118 124.376 67.442 123.949 67.442 123.521V120.74C67.442 120.313 67.0118 119.885 66.474 119.885C65.9361 119.885 65.5059 120.313 65.5059 120.74Z" fill="#282829"/>
<path d="M71.2067 119.778C71.2067 119.885 71.0992 119.885 70.9916 119.885C70.884 119.885 70.6689 119.885 70.5613 119.885C69.916 119.885 69.4857 120.42 69.4857 120.954V124.697C69.4857 124.804 69.3781 124.911 69.2706 124.911H68.9479C68.8403 124.911 68.8403 124.804 68.8403 124.804V121.061C68.8403 119.992 69.7008 119.564 70.4538 119.564C70.6689 119.564 70.884 119.564 70.9916 119.564C71.0992 119.564 71.2067 119.671 71.2067 119.671V119.778Z" fill="#282829"/>
<path d="M74.1109 117.746C74.1109 117.639 74.2185 117.532 74.326 117.532H75.9395C77.0151 117.532 77.6605 118.281 77.6605 119.243V120.74C77.6605 121.703 76.9075 122.451 75.9395 122.451H74.7563V124.483C74.7563 124.59 74.7563 124.697 74.6487 124.697H74.326C74.2185 124.697 74.2185 124.59 74.2185 124.483V117.746H74.1109ZM77.1227 119.35C77.1227 118.708 76.6924 118.174 75.9395 118.174H74.7563V122.024H75.9395C76.6924 122.024 77.1227 121.489 77.1227 120.847V119.35Z" fill="#282829"/>
<path d="M80.7798 119.778C80.7798 119.885 80.6723 119.885 80.5647 119.885C80.4571 119.885 80.242 119.885 80.1345 119.885C79.4891 119.885 79.0588 120.42 79.0588 120.954V124.697C79.0588 124.804 78.9513 124.911 78.8437 124.911H78.521C78.4135 124.911 78.4135 124.804 78.4135 124.804V121.061C78.4135 119.992 79.274 119.564 80.0269 119.564C80.242 119.564 80.4571 119.564 80.5647 119.564C80.6723 119.564 80.7798 119.671 80.7798 119.671V119.778Z" fill="#282829"/>
<path d="M84.2219 123.521C84.2219 124.27 83.5765 124.911 82.716 124.911C81.8555 124.911 81.2101 124.27 81.2101 123.521V120.74C81.2101 119.992 81.8555 119.35 82.716 119.35C83.5765 119.35 84.2219 119.992 84.2219 120.74V123.521ZM81.7479 120.74V123.521C81.7479 123.949 82.1782 124.376 82.716 124.376C83.2538 124.376 83.684 123.949 83.684 123.521V120.74C83.684 120.313 83.2538 119.885 82.716 119.885C82.1782 119.885 81.7479 120.313 81.7479 120.74Z" fill="#282829"/>
<path d="M87.3411 120.74C87.3411 120.313 86.9109 119.885 86.3731 119.885C85.8353 119.885 85.5126 120.313 85.5126 120.74C85.5126 121.275 85.7277 121.382 86.4806 121.81C87.126 122.238 87.9865 122.665 87.9865 123.521C87.9865 124.27 87.3411 124.911 86.4806 124.911C85.405 124.911 84.8672 124.27 84.8672 123.521V123.307C84.8672 123.2 84.9747 123.2 85.0823 123.2H85.405C85.5126 123.2 85.5126 123.307 85.5126 123.307V123.521C85.5126 123.949 85.9428 124.376 86.4806 124.376C87.0184 124.376 87.4487 123.949 87.4487 123.521C87.4487 123.093 87.0184 122.772 86.1579 122.131C85.6201 121.81 85.0823 121.382 85.0823 120.74C85.0823 119.992 85.7277 119.35 86.5882 119.35C87.4487 119.35 88.0941 119.992 88.0941 120.74V120.954C88.0941 121.061 88.0941 121.061 87.9865 121.061H87.7714C87.6638 121.061 87.6638 121.061 87.6638 120.954V120.74H87.3411Z" fill="#282829"/>
<path d="M91.8588 123.521C91.8588 124.27 91.2134 124.911 90.3529 124.911C90.0302 124.911 89.6 124.804 89.3849 124.59V126.408C89.3849 126.515 89.3849 126.515 89.2773 126.515H88.9546C88.847 126.515 88.847 126.408 88.847 126.408V120.74C88.847 119.992 89.4924 119.35 90.3529 119.35C91.2134 119.35 91.8588 119.992 91.8588 120.74V123.521ZM89.3849 123.521C89.3849 123.949 89.8151 124.376 90.3529 124.376C90.8907 124.376 91.321 123.949 91.321 123.521V120.74C91.321 120.313 90.8907 119.885 90.3529 119.885C89.8151 119.885 89.3849 120.313 89.3849 120.74V123.521Z" fill="#282829"/>
<path d="M95.7311 123.521C95.7311 124.27 95.0857 124.911 94.2252 124.911C93.3647 124.911 92.7193 124.27 92.7193 123.521V120.74C92.7193 119.992 93.3647 119.35 94.2252 119.35C95.0857 119.35 95.7311 119.992 95.7311 120.74V122.131C95.7311 122.238 95.6235 122.238 95.6235 122.238H93.3647V123.521C93.3647 123.949 93.7949 124.376 94.3327 124.376C94.8706 124.376 95.1933 123.949 95.1933 123.521V123.307C95.1933 123.2 95.3008 123.2 95.3008 123.2H95.6235C95.6235 123.2 95.7311 123.2 95.7311 123.307V123.521ZM93.2571 120.74V121.81H95.0857V120.74C95.0857 120.313 94.6554 119.885 94.2252 119.885C93.6874 119.885 93.2571 120.313 93.2571 120.74Z" fill="#282829"/>
<path d="M99.3882 123.2C99.4958 123.2 99.4958 123.2 99.4958 123.414V123.628C99.4958 124.376 98.8504 125.018 97.9899 125.018C97.1294 125.018 96.484 124.376 96.484 123.628V120.847C96.484 120.099 97.1294 119.457 97.9899 119.457C98.8504 119.457 99.4958 120.099 99.4958 120.847V121.168C99.4958 121.275 99.3882 121.382 99.3882 121.382H99.0655C98.958 121.382 98.958 121.382 98.958 121.275V120.954C98.958 120.526 98.6353 120.099 98.0975 120.099C97.5596 120.099 97.1294 120.526 97.1294 120.954V123.735C97.1294 124.163 97.5596 124.59 98.0975 124.59C98.6353 124.59 98.958 124.163 98.958 123.735V123.521C98.958 123.414 99.0655 123.307 99.0655 123.307H99.3882V123.2Z" fill="#282829"/>
<path d="M101.647 124.804C101.002 124.804 100.679 124.484 100.679 123.735V119.885H100.141C100.141 119.885 100.034 119.885 100.034 119.778V119.564C100.034 119.457 100.141 119.457 100.141 119.457H100.679V118.602C100.679 118.495 100.787 118.495 100.787 118.388L101.109 118.281C101.217 118.281 101.217 118.281 101.217 118.388V119.35H102.077C102.185 119.35 102.185 119.35 102.185 119.457V119.671C102.185 119.778 102.185 119.778 102.077 119.778H101.217V123.628C101.217 123.949 101.432 124.163 101.755 124.163H101.97C102.077 124.163 102.077 124.27 102.077 124.27V124.484C102.077 124.484 102.077 124.59 101.862 124.59H101.647V124.804Z" fill="#282829"/>
<path d="M103.476 118.709C103.476 118.815 103.368 118.815 103.368 118.815H102.938C102.83 118.815 102.723 118.815 102.723 118.709V118.388C102.723 118.281 102.723 118.281 102.83 118.281H103.26C103.368 118.281 103.368 118.281 103.368 118.388V118.709H103.476ZM102.83 119.671C102.83 119.564 102.83 119.564 102.938 119.564H103.26C103.368 119.564 103.368 119.671 103.368 119.671V124.697C103.368 124.804 103.368 124.804 103.26 124.804H102.938C102.83 124.804 102.83 124.697 102.83 124.697V119.671Z" fill="#282829"/>
<path d="M106.057 123.735L107.133 119.671C107.133 119.564 107.24 119.564 107.348 119.564H107.671C107.778 119.564 107.778 119.671 107.778 119.778L106.38 124.804C106.38 124.911 106.272 124.911 106.272 124.911H105.95C105.842 124.911 105.842 124.911 105.842 124.804L104.444 119.778C104.444 119.671 104.551 119.564 104.551 119.564H104.874C104.981 119.564 104.981 119.564 104.981 119.671L106.057 123.735Z" fill="#282829"/>
<path d="M111.113 123.521C111.113 124.27 110.467 124.911 109.607 124.911C108.746 124.911 108.101 124.27 108.101 123.521V120.74C108.101 119.992 108.746 119.35 109.607 119.35C110.467 119.35 111.113 119.992 111.113 120.74V122.131C111.113 122.238 111.005 122.238 111.005 122.238H108.639V123.521C108.639 123.949 109.069 124.376 109.607 124.376C110.145 124.376 110.467 123.949 110.467 123.521V123.307C110.467 123.2 110.575 123.2 110.575 123.2H110.897C110.897 123.2 111.005 123.2 111.005 123.307V123.521H111.113ZM108.639 120.74V121.81H110.467V120.74C110.467 120.313 110.037 119.885 109.607 119.885C109.069 119.885 108.639 120.313 108.639 120.74Z" fill="#282829"/>
<path d="M117.029 119.136C117.029 118.601 116.598 118.067 115.953 118.067C115.523 118.067 114.77 118.281 114.77 119.243C114.77 119.992 115.523 120.419 115.953 120.847C117.029 121.703 117.782 122.131 117.782 123.414C117.782 124.269 117.029 125.018 115.953 125.018C115.092 125.018 114.232 124.376 114.232 123.307V122.986C114.232 122.879 114.232 122.772 114.34 122.772H114.662C114.77 122.772 114.77 122.879 114.77 122.986V123.2C114.77 124.056 115.523 124.376 115.953 124.376C116.598 124.376 117.136 123.949 117.136 123.307C117.136 122.451 116.706 122.131 115.738 121.382C114.877 120.74 114.232 120.313 114.232 119.243C114.232 117.746 115.523 117.532 115.953 117.532C117.029 117.532 117.674 118.281 117.674 119.136V119.457C117.674 119.564 117.674 119.671 117.566 119.671H117.244C117.136 119.671 117.136 119.564 117.136 119.457V119.136H117.029Z" fill="#282829"/>
<path d="M121.546 123.521C121.546 124.27 120.901 124.911 120.04 124.911C119.18 124.911 118.534 124.27 118.534 123.521V120.74C118.534 119.992 119.18 119.35 120.04 119.35C120.901 119.35 121.546 119.992 121.546 120.74V122.131C121.546 122.238 121.439 122.238 121.439 122.238H119.18V123.521C119.18 123.949 119.61 124.376 120.148 124.376C120.686 124.376 121.008 123.949 121.008 123.521V123.307C121.008 123.2 121.116 123.2 121.116 123.2H121.439C121.439 123.2 121.546 123.2 121.546 123.307V123.521ZM119.18 120.74V121.81H121.008V120.74C121.008 120.313 120.578 119.885 120.148 119.885C119.718 119.885 119.18 120.313 119.18 120.74Z" fill="#282829"/>
<path d="M127.462 120.847C127.462 120.099 126.817 119.885 126.494 119.885H126.387C126.064 119.885 125.526 120.099 125.526 120.847V124.59C125.526 124.697 125.526 124.804 125.418 124.804H125.096C124.988 124.804 124.988 124.697 124.988 124.59V120.847C124.988 119.992 124.343 119.885 124.02 119.885C123.697 119.885 123.16 120.099 123.16 120.847V124.59C123.16 124.59 123.16 124.804 123.052 124.804H122.622C122.514 124.804 122.514 124.697 122.514 124.59V120.847C122.514 119.671 123.375 119.35 124.02 119.35C124.45 119.35 124.988 119.564 125.311 119.992C125.526 119.457 126.064 119.35 126.494 119.35C127.462 119.35 128.108 119.992 128.108 120.847V124.59C128.108 124.697 128.108 124.804 128 124.804H127.677C127.57 124.804 127.57 124.697 127.57 124.59V120.847H127.462Z" fill="#282829"/>
<path d="M129.829 118.709C129.829 118.815 129.721 118.815 129.721 118.815H129.291C129.183 118.815 129.076 118.815 129.076 118.709V118.388C129.076 118.281 129.076 118.281 129.183 118.281H129.613C129.721 118.281 129.721 118.281 129.721 118.388V118.709H129.829ZM129.183 119.671C129.183 119.564 129.183 119.564 129.291 119.564H129.613C129.721 119.564 129.721 119.671 129.721 119.671V124.697C129.721 124.804 129.721 124.804 129.613 124.804H129.291C129.183 124.804 129.183 124.697 129.183 124.697V119.671Z" fill="#282829"/>
<path d="M133.593 123.2C133.701 123.2 133.701 123.2 133.701 123.414V123.628C133.701 124.376 133.055 125.018 132.195 125.018C131.334 125.018 130.689 124.376 130.689 123.628V120.847C130.689 120.099 131.334 119.457 132.195 119.457C133.055 119.457 133.701 120.099 133.701 120.847V121.168C133.701 121.275 133.593 121.382 133.593 121.382H133.271C133.163 121.382 133.163 121.382 133.163 121.275V120.954C133.163 120.526 132.84 120.099 132.303 120.099C131.765 120.099 131.334 120.526 131.334 120.954V123.735C131.334 124.163 131.765 124.59 132.303 124.59C132.84 124.59 133.163 124.163 133.163 123.735V123.521C133.163 123.414 133.271 123.307 133.271 123.307H133.593V123.2Z" fill="#282829"/>
<path d="M137.573 123.521C137.573 124.27 136.928 124.911 136.067 124.911C135.207 124.911 134.561 124.27 134.561 123.521V120.74C134.561 119.992 135.207 119.35 136.067 119.35C136.928 119.35 137.573 119.992 137.573 120.74V123.521ZM134.992 120.74V123.521C134.992 123.949 135.422 124.376 135.96 124.376C136.497 124.376 136.928 123.949 136.928 123.521V120.74C136.928 120.313 136.497 119.885 135.96 119.885C135.422 119.885 134.992 120.313 134.992 120.74Z" fill="#282829"/>
<path d="M141.123 124.804C141.015 124.804 141.015 124.804 141.015 124.697V120.847C141.015 120.42 140.692 119.992 140.047 119.992C139.509 119.992 139.079 120.42 139.079 120.847V124.804C139.079 124.911 138.971 124.911 138.971 124.911H138.649C138.541 124.911 138.541 124.804 138.541 124.804V120.847C138.541 120.099 139.187 119.457 140.047 119.457C141.015 119.457 141.553 120.099 141.553 120.847V124.697C141.553 124.804 141.445 124.804 141.445 124.804H141.123Z" fill="#282829"/>
<path d="M145.533 123.521C145.533 124.269 144.887 124.911 144.027 124.911C143.166 124.911 142.521 124.269 142.521 123.521V120.74C142.521 119.992 143.166 119.35 144.027 119.35C144.35 119.35 144.78 119.457 144.995 119.671V117.639C144.995 117.532 144.995 117.532 145.103 117.532H145.425C145.533 117.532 145.533 117.639 145.533 117.639V123.521ZM143.059 123.521C143.059 123.949 143.489 124.376 144.027 124.376C144.565 124.376 144.995 123.949 144.995 123.521V120.74C144.995 120.313 144.565 119.885 144.027 119.885C143.489 119.885 143.059 120.313 143.059 120.74V123.521Z" fill="#282829"/>
<path d="M148.975 119.671C148.975 119.564 149.082 119.564 149.082 119.564H149.405C149.513 119.564 149.513 119.564 149.513 119.671V123.521C149.513 124.27 148.975 124.911 148.007 124.911C147.146 124.911 146.501 124.27 146.501 123.521V119.671C146.501 119.564 146.608 119.564 146.608 119.564H146.931C147.039 119.564 147.039 119.671 147.039 119.671V123.521C147.039 124.056 147.469 124.376 148.007 124.376C148.652 124.376 148.975 123.949 148.975 123.521V119.671Z" fill="#282829"/>
<path d="M153.492 123.2C153.6 123.2 153.6 123.2 153.6 123.414V123.628C153.6 124.376 152.955 125.018 152.094 125.018C151.234 125.018 150.588 124.376 150.588 123.628V120.847C150.588 120.099 151.234 119.457 152.094 119.457C152.955 119.457 153.6 120.099 153.6 120.847V121.168C153.6 121.275 153.492 121.382 153.492 121.382H153.17C153.062 121.382 153.062 121.382 153.062 121.275V120.954C153.062 120.526 152.739 120.099 152.202 120.099C151.664 120.099 151.234 120.526 151.234 120.954V123.735C151.234 124.163 151.664 124.59 152.202 124.59C152.739 124.59 153.062 124.163 153.062 123.735V123.521C153.062 123.414 153.17 123.307 153.17 123.307H153.492V123.2Z" fill="#282829"/>
<path d="M155.644 124.804C154.998 124.804 154.676 124.484 154.676 123.735V119.885H154.138C154.138 119.885 154.03 119.885 154.03 119.778V119.564C154.03 119.457 154.138 119.457 154.138 119.457H154.676V118.602C154.676 118.495 154.783 118.495 154.783 118.388L155.106 118.281C155.213 118.281 155.213 118.281 155.213 118.388V119.35H156.074C156.182 119.35 156.182 119.35 156.182 119.457V119.671C156.182 119.778 156.182 119.778 156.074 119.778H155.213V123.628C155.213 123.949 155.429 124.163 155.751 124.163H155.966C156.074 124.163 156.074 124.27 156.074 124.27V124.484C156.074 124.484 156.074 124.59 155.859 124.59H155.644V124.804Z" fill="#282829"/>
<path d="M159.839 123.521C159.839 124.27 159.193 124.911 158.333 124.911C157.472 124.911 156.827 124.27 156.827 123.521V120.74C156.827 119.992 157.472 119.35 158.333 119.35C159.193 119.35 159.839 119.992 159.839 120.74V123.521ZM157.365 120.74V123.521C157.365 123.949 157.795 124.376 158.333 124.376C158.871 124.376 159.301 123.949 159.301 123.521V120.74C159.301 120.313 158.871 119.885 158.333 119.885C157.795 119.885 157.365 120.313 157.365 120.74Z" fill="#282829"/>
<path d="M163.066 119.778C163.066 119.885 162.958 119.885 162.85 119.885C162.743 119.885 162.528 119.885 162.42 119.885C161.775 119.885 161.345 120.42 161.345 120.954V124.697C161.345 124.804 161.237 124.911 161.129 124.911H160.807C160.699 124.911 160.699 124.804 160.699 124.804V121.061C160.699 119.992 161.56 119.564 162.313 119.564C162.528 119.564 162.743 119.564 162.85 119.564C162.958 119.564 163.066 119.671 163.066 119.671V119.778Z" fill="#282829"/>
<path d="M168.121 119.778C168.121 119.885 168.013 119.885 167.906 119.885C167.798 119.885 167.583 119.885 167.476 119.885C166.83 119.885 166.4 120.42 166.4 120.954V124.697C166.4 124.804 166.292 124.911 166.185 124.911H165.862C165.755 124.911 165.755 124.804 165.755 124.804V121.061C165.755 119.992 166.615 119.564 167.368 119.564C167.583 119.564 167.798 119.564 167.906 119.564C168.013 119.564 168.121 119.671 168.121 119.671V119.778Z" fill="#282829"/>
<path d="M171.455 123.521C171.455 124.27 170.81 124.911 169.95 124.911C169.089 124.911 168.444 124.27 168.444 123.521V120.74C168.444 119.992 169.089 119.35 169.95 119.35C170.81 119.35 171.455 119.992 171.455 120.74V122.131C171.455 122.238 171.348 122.238 171.348 122.238H169.089V123.521C169.089 123.949 169.519 124.376 170.057 124.376C170.595 124.376 170.918 123.949 170.918 123.521V123.307C170.918 123.2 171.025 123.2 171.025 123.2H171.348C171.348 123.2 171.455 123.2 171.455 123.307V123.521ZM169.089 120.74V121.81H170.918V120.74C170.918 120.313 170.487 119.885 170.057 119.885C169.519 119.885 169.089 120.313 169.089 120.74Z" fill="#282829"/>
<path d="M174.575 120.74C174.575 120.313 174.145 119.885 173.607 119.885C173.069 119.885 172.746 120.313 172.746 120.74C172.746 121.275 172.961 121.382 173.714 121.81C174.36 122.238 175.113 122.665 175.113 123.521C175.113 124.27 174.467 124.911 173.607 124.911C172.531 124.911 171.993 124.27 171.993 123.521V123.307C171.993 123.2 172.101 123.2 172.208 123.2H172.531C172.639 123.2 172.639 123.307 172.639 123.307V123.521C172.639 123.949 173.069 124.376 173.607 124.376C174.145 124.376 174.575 123.949 174.575 123.521C174.575 123.093 174.145 122.772 173.284 122.131C172.746 121.81 172.208 121.382 172.208 120.74C172.208 119.992 172.854 119.35 173.714 119.35C174.575 119.35 175.22 119.992 175.22 120.74V120.954C175.22 121.061 175.22 121.061 175.113 121.061H174.898C174.79 121.061 174.79 121.061 174.79 120.954V120.74H174.575Z" fill="#282829"/>
<path d="M178.985 123.521C178.985 124.27 178.339 124.911 177.479 124.911C176.618 124.911 175.973 124.27 175.973 123.521V120.74C175.973 119.992 176.618 119.35 177.479 119.35C178.339 119.35 178.985 119.992 178.985 120.74V122.131C178.985 122.238 178.877 122.238 178.877 122.238H176.618V123.521C176.618 123.949 177.049 124.376 177.587 124.376C178.124 124.376 178.447 123.949 178.447 123.521V123.307C178.447 123.2 178.555 123.2 178.555 123.2H178.877C178.877 123.2 178.985 123.2 178.985 123.307V123.521ZM176.618 120.74V121.81H178.447V120.74C178.447 120.313 178.017 119.885 177.587 119.885C176.941 119.885 176.618 120.313 176.618 120.74Z" fill="#282829"/>
<path d="M182.212 121.596V120.847C182.212 120.526 181.889 119.885 181.136 119.885C180.598 119.885 180.383 120.099 180.168 120.313H180.06H179.953L179.845 120.099C179.845 119.992 179.845 119.992 179.953 119.885C180.276 119.671 180.598 119.457 181.244 119.457C182.212 119.457 182.75 120.099 182.75 120.847V123.628C182.75 124.697 181.782 125.018 181.244 125.018C180.491 125.018 179.63 124.59 179.63 123.521V123.414C179.63 122.451 180.276 121.81 181.351 121.81H182.212V121.596ZM182.212 122.024H181.566C180.491 122.024 180.168 122.558 180.168 123.2V123.307C180.168 124.056 180.813 124.376 181.244 124.376C181.566 124.376 182.212 124.163 182.212 123.521V122.024Z" fill="#282829"/>
<path d="M186.084 119.778C186.084 119.885 185.976 119.885 185.869 119.885C185.761 119.885 185.546 119.885 185.439 119.885C184.793 119.885 184.363 120.42 184.363 120.954V124.697C184.363 124.804 184.255 124.911 184.148 124.911H183.825C183.718 124.911 183.718 124.804 183.718 124.804V121.061C183.718 119.992 184.578 119.564 185.331 119.564C185.546 119.564 185.761 119.564 185.869 119.564C185.976 119.564 186.084 119.671 186.084 119.671V119.778Z" fill="#282829"/>
<path d="M189.311 123.2C189.418 123.2 189.418 123.2 189.418 123.414V123.628C189.418 124.376 188.773 125.018 187.913 125.018C187.052 125.018 186.407 124.376 186.407 123.628V120.847C186.407 120.099 187.052 119.457 187.913 119.457C188.773 119.457 189.418 120.099 189.418 120.847V121.168C189.418 121.275 189.311 121.382 189.311 121.382H188.988C188.881 121.382 188.881 121.382 188.881 121.275V120.954C188.881 120.526 188.558 120.099 188.02 120.099C187.482 120.099 187.052 120.526 187.052 120.954V123.735C187.052 124.163 187.482 124.59 188.02 124.59C188.558 124.59 188.881 124.163 188.881 123.735V123.521C188.881 123.414 188.988 123.307 188.988 123.307H189.311V123.2Z" fill="#282829"/>
<path d="M193.398 124.697C193.398 124.804 193.291 124.804 193.291 124.804H192.968C192.861 124.804 192.861 124.804 192.861 124.697V120.74C192.861 120.313 192.43 119.885 191.892 119.885C191.355 119.885 190.924 120.313 190.924 120.847V124.697C190.924 124.804 190.924 124.804 190.709 124.804H190.387C190.279 124.804 190.279 124.804 190.279 124.697V117.746C190.279 117.639 190.279 117.639 190.387 117.639H190.709C190.817 117.639 190.817 117.746 190.817 117.746V119.778C191.032 119.564 191.462 119.35 191.892 119.35C192.753 119.35 193.291 119.992 193.291 120.74V124.697H193.398Z" fill="#282829"/>
<path d="M133.935 74.0837C146.157 70.8278 153.41 58.3376 150.136 46.186C146.861 34.0344 134.298 26.823 122.077 30.0789C109.855 33.3347 102.602 45.8249 105.876 57.9765C109.151 70.1281 121.713 77.3395 133.935 74.0837Z" fill="white"/>
<path fill-rule="evenodd" clip-rule="evenodd" d="M139.94 69.086L126.387 60.8513L118.965 70.6902C123.267 72.7221 128.323 73.3638 133.378 71.9735C135.852 71.4388 138.003 70.4763 139.94 69.086Z" fill="#FCD60B"/>
<path fill-rule="evenodd" clip-rule="evenodd" d="M148.329 47.5903L120.793 54.8626L141.768 67.5889C147.361 62.7764 150.05 55.0764 148.329 47.5903Z" fill="#ED0874"/>
<path fill-rule="evenodd" clip-rule="evenodd" d="M117.029 69.6208L124.558 59.675L117.997 55.718L108.208 58.2847C109.714 63.2041 112.941 67.1611 117.029 69.6208Z" fill="#0099D8"/>
<path fill-rule="evenodd" clip-rule="evenodd" d="M147.684 45.2374C144.134 35.0777 133.271 29.1958 122.622 31.9763C111.973 34.7569 105.519 45.3444 107.563 55.9319L147.684 45.2374Z" fill="#00B5AF"/>
<path fill-rule="evenodd" clip-rule="evenodd" d="M121.869 39.7834C121.546 38.607 120.255 37.8584 119.072 38.1793C117.889 38.5001 117.136 39.7834 117.459 40.9598L118.642 45.4515C118.965 46.6279 120.255 47.3765 121.439 47.0556C122.622 46.7348 123.375 45.4515 123.052 44.2751L121.869 39.7834Z" fill="white"/>
<path fill-rule="evenodd" clip-rule="evenodd" d="M131.55 37.2168C131.227 36.0404 129.936 35.2918 128.753 35.6126C127.57 35.9334 126.817 37.2168 127.139 38.3932L128.323 42.8848C128.645 44.0612 129.936 44.8098 131.119 44.489C132.302 44.1682 133.055 42.8848 132.733 41.7084L131.55 37.2168Z" fill="white"/>
</g>
<defs>
<clipPath id="clip0_221_10549">
<rect width="256" height="154" fill="white"/>
</clipPath>
</defs>
</svg>
