<svg width="222" height="112" viewBox="0 0 222 112" fill="none" xmlns="http://www.w3.org/2000/svg">
<g clip-path="url(#clip0_136_1971)">
<path d="M30.8697 41.3941V50.8019C30.8697 51.5075 30.4749 52.3699 29.3696 52.3699H21.7904C20.8429 52.3699 19.9745 51.8211 19.9745 50.7235V42.4917C19.9745 36.0631 17.9218 31.5944 10.7373 31.3592V50.8803C10.7373 51.7427 10.3425 52.2915 9.47407 52.2915H1.42111C0.473703 52.2915 0 51.7427 0 50.8803V2.1951C0 1.33272 0.473703 0.783936 1.42111 0.783936H9.47407C10.4215 0.783936 10.8162 1.33272 10.8162 2.2735V22.0298C17.527 21.481 19.5008 17.1691 19.5008 10.8973V2.50869C19.5008 1.41112 20.3692 0.783936 21.3167 0.783936H28.817C29.9223 0.783936 30.317 1.72471 30.317 2.3519V11.9165C30.317 18.2667 27.7906 23.1274 23.5273 26.4201C28.1853 29.7128 30.8697 34.7303 30.8697 41.3941Z" fill="#282727"/>
<path d="M45.5545 31.908C45.5545 32.9272 44.686 33.2408 44.2913 33.2408H36.7909C36.3962 33.2408 35.6067 33.0056 35.6067 31.908V25.8714C35.6067 24.9306 36.2383 24.4602 36.7909 24.4602H44.2913C45.3176 24.4602 45.5545 25.2442 45.5545 25.8714V31.908Z" fill="#282727"/>
<path d="M79.9769 16.6988C79.9769 17.8748 79.7401 18.3452 78.7137 18.3452H71.1344C70.187 18.3452 69.8712 17.8748 69.8712 16.8556V13.4061C69.8712 11.2109 68.3712 8.93738 65.6869 8.93738C63.0815 8.93738 61.2656 10.9757 61.2656 13.3277V39.6694C61.2656 42.0214 62.9236 44.1381 65.6869 44.1381C68.687 44.1381 70.1081 41.943 70.1081 39.6694V35.2007C70.1081 34.1032 70.4239 33.7112 71.2924 33.7112H78.8716C79.819 33.7112 80.2138 33.9464 80.2138 35.1223V40.2182C80.2138 48.2932 73.7398 53.1539 65.6079 53.1539C57.476 53.1539 50.4494 48.2932 50.4494 40.2182V12.9357C50.4494 5.56626 56.7654 0 65.6079 0C75.4767 0 79.9769 6.58544 79.9769 13.0925V16.6988Z" fill="#282727"/>
<path d="M113.926 0.783965C114.636 0.783965 115.268 1.09756 115.268 2.19513V50.8803C115.268 51.7427 114.873 52.2915 113.768 52.2915H105.794C104.925 52.2915 104.452 51.7427 104.452 50.8803V30.4184H95.5302V50.8803C95.5302 51.7427 95.1354 52.2915 94.188 52.2915H86.0561C85.1087 52.2915 84.7139 51.7427 84.7139 50.8803V2.19513C84.7139 1.33275 85.1876 0.705566 86.0561 0.705566H94.188C95.1354 0.705566 95.5302 1.25435 95.5302 2.19513V21.4027H104.452V2.19513C104.452 1.41115 104.925 0.705566 105.794 0.705566H113.926V0.783965Z" fill="#282727"/>
<path d="M131.926 50.8803C131.926 51.7427 131.532 52.2915 130.584 52.2915H122.452C121.505 52.2915 121.11 51.7427 121.11 50.8803V2.19513C121.11 1.33275 121.584 0.705566 122.452 0.705566H130.584C131.532 0.705566 131.926 1.25435 131.926 2.19513V50.8803Z" fill="#282727"/>
<path d="M137.848 2.19513C137.848 1.33275 138.4 0.705566 139.19 0.705566H153.559C161.928 0.705566 168.244 6.58542 168.244 14.0332V25.9497C168.244 33.3976 161.928 39.4342 153.559 39.4342H148.664V50.8019C148.664 51.6643 148.269 52.2131 147.322 52.2131H139.269C138.321 52.2131 137.927 51.6643 137.927 50.8019V2.19513H137.848ZM157.427 14.3468C157.427 11.6813 155.533 9.87814 152.769 9.87814H148.743V30.5752H152.848C155.69 30.5752 157.506 28.6937 157.506 26.1849V14.3468H157.427Z" fill="#282727"/>
<path d="M189.639 13.6413C189.639 11.0541 188.139 8.93738 185.218 8.93738C183.165 8.93738 180.797 10.2701 180.797 13.6413C180.797 17.1692 183.165 18.8155 186.797 21.3243C194.376 26.7337 200.455 30.8104 200.455 40.2182C200.455 47.1956 194.455 53.1539 185.455 53.1539C175.665 53.1539 170.77 46.8037 170.77 39.8262V37.8663C170.77 36.6119 171.007 36.0631 172.112 36.0631H179.534C180.639 36.0631 180.955 36.4551 180.955 37.5527V39.199C180.955 42.8838 183.481 44.1381 185.613 44.1381C188.139 44.1381 190.271 42.4134 190.271 39.6694C190.271 36.0631 188.139 34.4168 183.165 30.6537C174.639 24.3034 170.849 21.8731 170.849 13.3277C170.849 3.68471 179.613 0 185.297 0C193.745 0 199.745 5.33107 199.745 13.5629V15.6796C199.745 16.6988 199.429 17.0908 198.166 17.0908H190.902C189.876 17.0908 189.718 16.6988 189.718 15.6796V13.6413H189.639Z" fill="#282727"/>
</g>
<path d="M157.319 97.4774H0V112H157.319V97.4774Z" fill="#282727"/>
<path d="M6.71293 101.303C6.71293 101.381 6.63395 101.459 6.55497 101.459H4.42265V104.192H6.08114C6.16012 104.192 6.23908 104.192 6.23908 104.348V104.583C6.23908 104.661 6.16012 104.739 6.08114 104.739H4.42265V107.862C4.42265 107.94 4.42264 108.018 4.26469 108.018H3.94879C3.86982 108.018 3.79083 107.94 3.79083 107.862V101.147C3.79083 101.069 3.86982 100.991 3.94879 100.991H6.55497C6.63395 100.991 6.71293 100.991 6.71293 101.147V101.303Z" fill="#FFFFFC"/>
<path d="M10.3458 106.769C10.3458 107.55 9.63503 108.096 8.84528 108.096C7.97655 108.096 7.34473 107.55 7.34473 106.769V104.036C7.34473 103.333 8.05552 102.709 8.84528 102.709C9.71401 102.709 10.3458 103.255 10.3458 104.036V106.769ZM7.89756 104.036V106.769C7.89756 107.237 8.29245 107.628 8.84528 107.628C9.39811 107.628 9.79297 107.237 9.79297 106.769V104.036C9.79297 103.568 9.39811 103.177 8.84528 103.177C8.29245 103.177 7.89756 103.568 7.89756 104.036Z" fill="#FFFFFC"/>
<path d="M13.8207 108.018C13.7417 108.018 13.6628 107.94 13.6628 107.862V104.036C13.6628 103.568 13.3469 103.177 12.7151 103.177C12.1622 103.177 11.7674 103.568 11.7674 104.036V107.862C11.7674 107.94 11.6884 108.018 11.6094 108.018H11.2935C11.2145 108.018 11.1356 107.94 11.1356 107.862V104.036C11.1356 103.255 11.7674 102.631 12.6361 102.631C13.5838 102.631 14.1366 103.255 14.1366 104.036V107.862C14.1366 107.94 14.0577 108.018 13.9787 108.018H13.8207Z" fill="#FFFFFC"/>
<path d="M16.5058 108.018C15.874 108.018 15.4792 107.706 15.4792 107.003V103.255H15.0053C14.9263 103.255 14.8474 103.177 14.8474 103.099V102.865C14.8474 102.787 14.9263 102.709 15.0053 102.709H15.4792V101.85C15.4792 101.772 15.5581 101.694 15.6371 101.694L15.953 101.616C16.032 101.616 16.111 101.694 16.111 101.772V102.709H16.9007C16.9797 102.709 17.0587 102.787 17.0587 102.865V103.099C17.0587 103.177 16.9797 103.255 16.9007 103.255H16.111V107.003C16.111 107.315 16.2689 107.472 16.6638 107.472H16.9007C17.0587 107.472 17.0587 107.55 17.0587 107.628V107.862C17.0587 107.94 17.0587 108.018 16.9007 108.018H16.5058Z" fill="#FFFFFC"/>
<path d="M18.5592 103.255C18.5592 103.333 18.4802 103.411 18.4013 103.411H17.9274C17.8485 103.411 17.7695 103.333 17.7695 103.255V102.865C17.7695 102.709 17.8485 102.709 17.9274 102.709H18.4013C18.4802 102.709 18.5592 102.787 18.5592 102.865V103.255ZM18.5592 107.862C18.5592 107.94 18.4802 108.018 18.4013 108.018H17.9274C17.8485 108.018 17.7695 107.94 17.7695 107.862V107.472C17.7695 107.315 17.8485 107.315 17.9274 107.315H18.4013C18.4802 107.315 18.5592 107.393 18.5592 107.472V107.862Z" fill="#FFFFFC"/>
<path d="M24.5614 102.396C24.5614 101.85 24.1665 101.303 23.4557 101.303C23.0609 101.303 22.2711 101.538 22.2711 102.474C22.2711 103.255 22.9819 103.646 23.4557 104.036C24.5614 104.895 25.2722 105.207 25.2722 106.535C25.2722 107.315 24.4824 108.096 23.4557 108.096C22.587 108.096 21.7183 107.55 21.7183 106.456V106.222C21.7183 106.144 21.7183 106.066 21.8762 106.066H22.1921C22.2711 106.066 22.3501 106.144 22.3501 106.222V106.456C22.3501 107.315 23.0608 107.628 23.5347 107.628C24.1665 107.628 24.7193 107.159 24.7193 106.535C24.7193 105.676 24.3245 105.441 23.2978 104.583C22.508 103.958 21.7972 103.489 21.7972 102.474C21.7972 100.991 23.1398 100.757 23.5347 100.757C24.5614 100.757 25.2722 101.459 25.2722 102.396V102.709C25.2722 102.787 25.2721 102.865 25.1142 102.865H24.7983C24.7193 102.865 24.6404 102.787 24.6404 102.709V102.396H24.5614Z" fill="#FFFFFC"/>
<path d="M28.5891 102.865C28.5891 102.787 28.6681 102.709 28.747 102.709H29.0629C29.1419 102.709 29.2209 102.787 29.2209 102.865V106.691C29.2209 107.472 28.6681 108.096 27.7204 108.096C26.8516 108.096 26.2198 107.472 26.2198 106.691V102.865C26.2198 102.787 26.2988 102.709 26.3778 102.709H26.6937C26.7727 102.709 26.8516 102.787 26.8516 102.865V106.691C26.8516 107.159 27.2465 107.55 27.7994 107.55C28.3522 107.55 28.747 107.159 28.747 106.691V102.865H28.5891Z" fill="#FFFFFC"/>
<path d="M31.985 107.706C32.7748 107.706 33.3276 107.94 33.3276 108.799V109.58C33.3276 109.658 33.2486 109.736 33.1696 109.736H32.8537C32.7748 109.736 32.7748 109.658 32.7748 109.58V108.877C32.7748 108.331 32.4589 108.174 31.906 108.174H31.1953H31.1163C30.4055 108.174 30.0896 107.628 30.0896 107.159V107.081C30.0896 106.613 30.2476 106.301 30.4845 106.066C30.2476 105.832 30.1686 105.52 30.1686 105.129V103.958C30.1686 103.177 30.8794 102.553 31.6691 102.553C31.8271 102.553 32.064 102.553 32.2219 102.631H33.2486C33.4066 102.631 33.4066 102.709 33.4066 102.787V103.021C33.4066 103.099 33.3276 103.177 33.2486 103.177H32.9327C33.0907 103.412 33.2486 103.724 33.2486 104.036V105.207C33.2486 105.988 32.5378 106.613 31.7481 106.613C31.4322 106.613 31.1953 106.535 30.9583 106.457C30.8004 106.613 30.7214 106.769 30.7214 107.081C30.7214 107.394 31.0373 107.706 31.4322 107.706H31.985ZM32.5378 104.036C32.5378 103.568 32.143 103.177 31.5901 103.177C31.0373 103.177 30.6424 103.568 30.6424 104.036V105.285C30.6424 105.754 31.0373 106.144 31.5901 106.144C32.143 106.144 32.5378 105.754 32.5378 105.285V104.036Z" fill="#FFFFFC"/>
<path d="M37.1974 106.769C37.1974 107.55 36.4867 108.096 35.6969 108.096C34.8282 108.096 34.1964 107.55 34.1964 106.769V104.036C34.1964 103.333 34.9071 102.709 35.6969 102.709C36.5656 102.709 37.1974 103.255 37.1974 104.036V106.769ZM34.6702 104.036V106.769C34.6702 107.237 35.0651 107.628 35.6179 107.628C36.1708 107.628 36.5656 107.237 36.5656 106.769V104.036C36.5656 103.568 36.1708 103.177 35.6179 103.177C35.0651 103.177 34.6702 103.568 34.6702 104.036Z" fill="#FFFFFC"/>
<path d="M40.5144 101.069C40.5144 100.991 40.5934 100.913 40.6724 100.913H42.3309C43.3575 100.913 44.0683 101.694 44.0683 102.631V104.114C44.0683 105.051 43.3575 105.832 42.3309 105.832H41.1462V107.862C41.1462 107.94 41.1462 108.018 40.9883 108.018H40.6724C40.5934 108.018 40.5144 107.94 40.5144 107.862V101.069ZM43.3575 102.631C43.3575 101.928 42.9626 101.46 42.1729 101.46H41.0672V105.285H42.1729C42.8837 105.285 43.3575 104.817 43.3575 104.114V102.631Z" fill="#FFFFFC"/>
<path d="M46.9904 103.021C46.9904 103.177 46.9115 103.177 46.7535 103.177C46.5956 103.177 46.4376 103.177 46.3586 103.177C45.7268 103.177 45.3319 103.646 45.3319 104.192V107.862C45.3319 107.94 45.253 108.018 45.174 108.018H44.8581C44.7791 108.018 44.7001 107.94 44.7001 107.862V104.114C44.7001 103.099 45.5689 102.631 46.2796 102.631C46.5166 102.631 46.7535 102.631 46.8325 102.631C46.9114 102.631 46.9904 102.709 46.9904 102.787V103.021Z" fill="#FFFFFC"/>
<path d="M50.5443 106.769C50.5443 107.55 49.8335 108.096 49.0437 108.096C48.175 108.096 47.5432 107.55 47.5432 106.769V104.036C47.5432 103.333 48.254 102.709 49.0437 102.709C49.9125 102.709 50.5443 103.255 50.5443 104.036V106.769ZM48.017 104.036V106.769C48.017 107.237 48.4119 107.628 48.9648 107.628C49.5176 107.628 49.9125 107.237 49.9125 106.769V104.036C49.9125 103.568 49.5176 103.177 48.9648 103.177C48.4909 103.177 48.017 103.568 48.017 104.036Z" fill="#FFFFFC"/>
<path d="M53.8613 101.069C53.8613 100.991 53.9402 100.913 54.0192 100.913H55.6777C56.7044 100.913 57.4152 101.616 57.4152 102.553V106.301C57.4152 107.316 56.7044 107.94 55.6777 108.018H54.0982C54.0192 108.018 53.9402 107.94 53.9402 107.862V101.069H53.8613ZM56.7044 102.631C56.7044 101.928 56.3095 101.46 55.5987 101.46H54.4931V107.472H55.5987C56.3095 107.472 56.7833 107.003 56.7833 106.301V102.631H56.7044Z" fill="#FFFFFC"/>
<path d="M59.0736 102.006C59.0736 102.084 58.9947 102.162 58.9157 102.162H58.5208C58.3629 102.162 58.3629 102.084 58.3629 102.006V101.616C58.3629 101.537 58.4418 101.459 58.5208 101.459H58.9157C58.9947 101.459 59.0736 101.537 59.0736 101.616V102.006ZM58.3629 102.865C58.3629 102.787 58.4418 102.709 58.5208 102.709H58.8367C58.9157 102.709 58.9947 102.787 58.9947 102.865V107.862C58.9947 107.94 58.9157 108.018 58.8367 108.018H58.5208C58.4418 108.018 58.3629 107.94 58.3629 107.862V102.865Z" fill="#FFFFFC"/>
<path d="M62.2327 103.958C62.2327 103.49 61.8378 103.099 61.285 103.099C60.7322 103.099 60.4163 103.49 60.4163 103.958C60.4163 104.426 60.6532 104.583 61.364 105.051C61.9958 105.441 62.7855 105.91 62.7855 106.691C62.7855 107.472 62.1537 108.018 61.285 108.018C60.2583 108.018 59.7845 107.393 59.7845 106.691V106.535C59.7845 106.457 59.8634 106.378 59.9424 106.378H60.1794C60.2583 106.378 60.3373 106.457 60.3373 106.535V106.769C60.3373 107.237 60.7322 107.628 61.285 107.628C61.8378 107.628 62.2327 107.237 62.2327 106.769C62.2327 106.3 61.7589 105.988 60.8901 105.441C60.3373 105.129 59.7845 104.739 59.7845 104.036C59.7845 103.255 60.4163 102.709 61.206 102.709C62.0748 102.709 62.7066 103.255 62.7066 104.036V104.192C62.7066 104.27 62.6276 104.348 62.5486 104.348H62.3117C62.2327 104.348 62.1537 104.27 62.1537 104.192V103.958H62.2327Z" fill="#FFFFFC"/>
<path d="M66.6553 106.769C66.6553 107.55 66.0235 108.096 65.1548 108.096C64.7599 108.096 64.444 107.94 64.2071 107.784V109.58C64.2071 109.658 64.1281 109.736 64.0491 109.736H63.7332C63.6542 109.736 63.5753 109.658 63.5753 109.58V104.036C63.5753 103.255 64.286 102.709 65.0758 102.709C65.9445 102.709 66.5763 103.255 66.5763 104.036V106.769H66.6553ZM64.2071 106.769C64.2071 107.237 64.6019 107.628 65.1548 107.628C65.7076 107.628 66.1025 107.237 66.1025 106.769V104.036C66.1025 103.568 65.7076 103.177 65.1548 103.177C64.6019 103.177 64.2071 103.568 64.2071 104.036V106.769Z" fill="#FFFFFC"/>
<path d="M69.1035 107.862C69.1035 107.94 69.1035 108.018 68.9455 108.018H68.7086C68.0768 108.018 67.6819 107.706 67.6819 107.003V101.069C67.6819 100.991 67.7609 100.913 67.8399 100.913H68.1558C68.2348 100.913 68.3137 100.991 68.3137 101.069V107.003C68.3137 107.316 68.4717 107.472 68.7876 107.472H69.0245C69.1825 107.472 69.1825 107.55 69.1825 107.628V107.862H69.1035Z" fill="#FFFFFC"/>
<path d="M72.1046 104.817V104.036C72.1046 103.646 71.8677 103.099 71.0779 103.099C70.5251 103.099 70.3671 103.333 70.1302 103.49L70.0513 103.568C70.0513 103.568 69.9723 103.568 69.9723 103.49L69.8933 103.333C69.8933 103.255 69.8933 103.177 69.9723 103.099C70.2092 102.865 70.5251 102.631 71.2359 102.631C72.1836 102.631 72.7364 103.333 72.7364 104.036V106.769C72.7364 107.784 71.7887 108.096 71.2359 108.096C70.5251 108.096 69.5774 107.628 69.5774 106.613V106.457C69.5774 105.52 70.2092 104.895 71.3148 104.895H72.1046V104.817ZM72.1046 105.285H71.4728C70.4461 105.285 70.1302 105.832 70.1302 106.457V106.613C70.1302 107.394 70.762 107.628 71.1569 107.628C71.5518 107.628 72.1046 107.394 72.1046 106.769V105.285Z" fill="#FFFFFC"/>
<path d="M76.0534 102.943C76.0534 102.865 76.1324 102.787 76.2113 102.787H76.5272C76.6062 102.787 76.6852 102.865 76.6852 102.943V108.252C76.6852 109.189 75.9744 109.736 75.1847 109.736C74.6318 109.736 74.158 109.58 73.8421 109.345C73.7631 109.267 73.7631 109.189 73.8421 109.189L73.9211 109.033L74 108.955C74.079 108.955 74.079 108.955 74.158 109.033C74.3159 109.189 74.7108 109.345 75.1057 109.345C75.6585 109.345 76.0534 109.033 76.0534 108.33V107.472C75.8165 107.706 75.4216 107.862 75.0267 107.862C74.158 107.862 73.6052 107.237 73.6052 106.457V102.865C73.6052 102.787 73.6841 102.709 73.7631 102.709H74.079C74.158 102.709 74.237 102.787 74.237 102.865V106.378C74.237 106.847 74.5529 107.237 75.1847 107.237C75.6585 107.237 76.1324 106.847 76.1324 106.3V102.943H76.0534Z" fill="#FFFFFC"/>
<path d="M82.2925 104.505C82.2925 104.583 82.2135 104.661 82.1345 104.661H79.9232C79.8442 104.661 79.7653 104.583 79.7653 104.505V104.27C79.7653 104.192 79.8442 104.114 79.9232 104.114H82.1345C82.2135 104.114 82.2925 104.192 82.2925 104.27V104.505Z" fill="#FFFFFC"/>
<path d="M88.6895 101.304C88.6895 101.382 88.6105 101.46 88.5315 101.46H86.2413V104.114H88.0577C88.1367 104.114 88.2156 104.114 88.2156 104.271V104.505C88.2156 104.583 88.1367 104.661 88.0577 104.661H86.2413V107.55H88.5315C88.6105 107.55 88.6895 107.55 88.6895 107.706V107.94C88.6895 108.018 88.6105 108.096 88.5315 108.096H85.7674C85.6884 108.096 85.6094 108.018 85.6094 107.94V101.225C85.6094 101.147 85.6884 101.069 85.7674 101.069H88.5315C88.6105 101.069 88.6895 101.069 88.6895 101.225V101.304Z" fill="#FFFFFC"/>
<path d="M91.1377 105.363L92.2434 107.784C92.3223 107.94 92.2434 108.018 92.1644 108.018H91.8485C91.7695 108.018 91.6905 108.018 91.6905 107.94L90.7428 105.988L90.6639 105.832L90.5849 105.988L89.6372 107.94C89.6372 108.018 89.5582 108.018 89.4792 108.018H89.1633C89.0054 108.018 89.0054 107.94 89.0843 107.784L90.19 105.363L89.0843 102.943C89.0843 102.865 89.0843 102.787 89.1633 102.787H89.4792C89.5582 102.787 89.6372 102.787 89.6372 102.865L90.5059 104.817V104.973L90.5849 104.817L91.4536 102.865C91.4536 102.787 91.5326 102.787 91.6116 102.787H91.9275C92.0064 102.787 92.0854 102.865 92.0064 102.943L91.1377 105.363Z" fill="#FFFFFC"/>
<path d="M94.2177 108.018C93.5859 108.018 93.191 107.706 93.191 107.003V103.255H92.7171C92.6382 103.255 92.5592 103.177 92.5592 103.099V102.865C92.5592 102.787 92.6382 102.709 92.7171 102.709H93.191V101.85C93.191 101.772 93.27 101.694 93.349 101.694L93.6649 101.616C93.7438 101.616 93.8228 101.694 93.8228 101.772V102.709H94.6125C94.6915 102.709 94.7705 102.787 94.7705 102.865V103.099C94.7705 103.177 94.6915 103.255 94.6125 103.255H93.8228V107.003C93.8228 107.315 93.9808 107.472 94.3756 107.472H94.6125C94.7705 107.472 94.7705 107.55 94.7705 107.628V107.862C94.7705 107.94 94.7705 108.018 94.6125 108.018H94.2177Z" fill="#FFFFFC"/>
<path d="M97.6927 103.021C97.6927 103.177 97.6137 103.177 97.4557 103.177C97.2978 103.177 97.1398 103.177 97.0608 103.177C96.429 103.177 96.0342 103.646 96.0342 104.192V107.862C96.0342 107.94 95.9552 108.018 95.8762 108.018H95.5603C95.4813 108.018 95.4023 107.94 95.4023 107.862V104.114C95.4023 103.099 96.2711 102.631 96.9819 102.631C97.2188 102.631 97.4557 102.631 97.5347 102.631C97.6137 102.631 97.6927 102.709 97.6927 102.787V103.021Z" fill="#FFFFFC"/>
<path d="M100.536 104.817V104.036C100.536 103.646 100.299 103.099 99.5091 103.099C98.9562 103.099 98.7983 103.333 98.5614 103.49C98.5614 103.49 98.4824 103.568 98.4034 103.568C98.4034 103.568 98.3244 103.568 98.3244 103.49L98.2455 103.333C98.2455 103.255 98.2455 103.177 98.3244 103.099C98.5614 102.865 98.8773 102.631 99.5881 102.631C100.536 102.631 101.089 103.333 101.089 104.036V106.769C101.089 107.784 100.141 108.096 99.5881 108.096C98.8773 108.096 97.9296 107.628 97.9296 106.613V106.457C97.9296 105.52 98.5614 104.895 99.667 104.895H100.536V104.817ZM100.536 105.285H99.904C98.8773 105.285 98.5614 105.832 98.5614 106.457V106.613C98.5614 107.394 99.1932 107.628 99.5881 107.628C99.9829 107.628 100.536 107.394 100.536 106.769V105.285Z" fill="#FFFFFC"/>
<path d="M104.642 108.018C104.563 108.018 104.484 107.94 104.484 107.862V101.147C104.484 101.069 104.563 100.991 104.642 100.991H104.958C105.037 100.991 105.116 101.069 105.116 101.147V107.55H107.249C107.328 107.55 107.407 107.55 107.407 107.706V107.94C107.407 108.018 107.328 108.096 107.249 108.096H104.642V108.018Z" fill="#FFFFFC"/>
<path d="M108.749 102.006C108.749 102.084 108.67 102.162 108.591 102.162H108.196C108.117 102.162 108.038 102.084 108.038 102.006V101.616C108.038 101.537 108.117 101.459 108.196 101.459H108.591C108.67 101.459 108.749 101.537 108.749 101.616V102.006ZM108.117 102.865C108.117 102.787 108.196 102.709 108.275 102.709H108.591C108.67 102.709 108.749 102.787 108.749 102.865V107.862C108.749 107.94 108.67 108.018 108.591 108.018H108.275C108.196 108.018 108.117 107.94 108.117 107.862V102.865Z" fill="#FFFFFC"/>
<path d="M111.513 107.706C112.303 107.706 112.856 107.94 112.856 108.799V109.58C112.856 109.658 112.777 109.736 112.698 109.736H112.382C112.303 109.736 112.303 109.658 112.303 109.58V108.877C112.303 108.331 111.987 108.174 111.434 108.174H110.724H110.645C109.934 108.174 109.618 107.628 109.618 107.159V107.081C109.618 106.613 109.776 106.301 110.013 106.066C109.776 105.832 109.697 105.52 109.697 105.129V103.958C109.697 103.177 110.408 102.553 111.197 102.553C111.355 102.553 111.592 102.553 111.75 102.631H112.777C112.856 102.631 112.935 102.709 112.935 102.787V103.021C112.935 103.099 112.856 103.177 112.777 103.177H112.461C112.619 103.412 112.777 103.724 112.777 104.036V105.207C112.777 105.988 112.066 106.613 111.276 106.613C110.961 106.613 110.724 106.535 110.487 106.457C110.329 106.613 110.25 106.769 110.25 107.081C110.25 107.394 110.566 107.706 110.961 107.706H111.513ZM112.066 104.036C112.066 103.568 111.671 103.177 111.118 103.177C110.566 103.177 110.171 103.568 110.171 104.036V105.285C110.171 105.754 110.566 106.144 111.118 106.144C111.671 106.144 112.066 105.754 112.066 105.285V104.036Z" fill="#FFFFFC"/>
<path d="M116.805 107.862C116.805 107.94 116.726 108.018 116.647 108.018H116.331C116.252 108.018 116.173 107.94 116.173 107.862V104.036C116.173 103.568 115.778 103.177 115.225 103.177C114.672 103.177 114.278 103.646 114.278 104.114V107.862C114.278 107.94 114.199 108.018 114.12 108.018H113.804C113.725 108.018 113.646 107.94 113.646 107.862V101.069C113.646 100.991 113.725 100.913 113.804 100.913H114.12C114.199 100.913 114.278 100.991 114.278 101.069V103.099C114.514 102.865 114.909 102.631 115.304 102.631C116.094 102.631 116.726 103.255 116.726 104.036V107.862H116.805Z" fill="#FFFFFC"/>
<path d="M119.016 108.018C118.384 108.018 117.989 107.706 117.989 107.003V103.255H117.515C117.437 103.255 117.358 103.177 117.358 103.099V102.865C117.358 102.787 117.437 102.709 117.515 102.709H117.989V101.85C117.989 101.772 118.068 101.694 118.147 101.694L118.463 101.616C118.542 101.616 118.621 101.694 118.621 101.772V102.709H119.411C119.49 102.709 119.569 102.787 119.569 102.865V103.099C119.569 103.177 119.49 103.255 119.411 103.255H118.621V107.003C118.621 107.315 118.779 107.472 119.174 107.472H119.411C119.569 107.472 119.569 107.55 119.569 107.628V107.862C119.569 107.94 119.569 108.018 119.411 108.018H119.016Z" fill="#FFFFFC"/>
<path d="M121.069 107.862C121.069 108.253 120.911 108.487 120.754 108.565L120.675 108.643C120.675 108.643 120.675 108.643 120.596 108.643L120.438 108.565C120.359 108.487 120.438 108.487 120.438 108.409C120.517 108.331 120.596 108.174 120.596 108.096C120.596 108.018 120.596 108.018 120.517 108.018H120.438C120.359 108.018 120.28 107.94 120.28 107.862V107.55C120.28 107.472 120.28 107.394 120.438 107.394H120.833C120.99 107.394 120.99 107.472 120.99 107.55V107.862H121.069Z" fill="#FFFFFC"/>
<path d="M127.861 106.925V107.862C127.861 107.94 127.861 108.018 127.703 108.018H127.387C127.308 108.018 127.23 107.94 127.23 107.862V106.769C127.23 105.285 126.519 104.817 125.413 104.817H125.018V107.784C125.018 107.862 124.939 107.94 124.86 107.94H124.544C124.465 107.94 124.386 107.862 124.386 107.784V100.991C124.386 100.913 124.465 100.835 124.544 100.835H126.203C127.229 100.835 127.94 101.538 127.94 102.474V103.177C127.94 103.88 127.466 104.426 126.835 104.661C127.545 105.051 127.861 105.676 127.861 106.925ZM127.387 102.631C127.387 101.928 126.993 101.459 126.203 101.459H125.097V104.348H126.124C126.993 104.348 127.387 103.958 127.387 103.255V102.631Z" fill="#FFFFFC"/>
<path d="M131.889 106.769C131.889 107.55 131.257 108.096 130.388 108.096C129.52 108.096 128.888 107.472 128.888 106.769V104.036C128.888 103.333 129.599 102.709 130.388 102.709C131.257 102.709 131.889 103.333 131.889 104.036V105.363C131.889 105.441 131.81 105.52 131.731 105.52H129.441V106.769C129.441 107.237 129.836 107.628 130.388 107.628C130.941 107.628 131.257 107.237 131.257 106.769V106.535C131.257 106.457 131.336 106.378 131.415 106.378H131.731C131.81 106.378 131.889 106.378 131.889 106.535V106.769ZM129.52 104.036V105.051H131.336V104.036C131.336 103.568 130.941 103.177 130.467 103.177C129.915 103.177 129.52 103.568 129.52 104.036Z" fill="#FFFFFC"/>
<path d="M134.574 107.706C135.364 107.706 135.917 107.94 135.917 108.799V109.58C135.917 109.658 135.838 109.736 135.759 109.736H135.443C135.364 109.736 135.364 109.658 135.364 109.58V108.877C135.364 108.331 135.048 108.174 134.495 108.174H133.784H133.705C132.995 108.174 132.679 107.628 132.679 107.159V107.081C132.679 106.613 132.837 106.301 133.074 106.066C132.837 105.832 132.758 105.52 132.758 105.129V103.958C132.758 103.177 133.469 102.553 134.258 102.553C134.416 102.553 134.653 102.553 134.811 102.631H135.838C135.917 102.631 135.996 102.709 135.996 102.787V103.021C135.996 103.099 135.917 103.177 135.838 103.177H135.443C135.601 103.412 135.759 103.724 135.759 104.036V105.207C135.759 105.988 135.048 106.613 134.258 106.613C133.942 106.613 133.705 106.535 133.469 106.457C133.311 106.613 133.232 106.769 133.232 107.081C133.232 107.394 133.548 107.706 133.942 107.706H134.574ZM135.127 104.036C135.127 103.568 134.732 103.177 134.179 103.177C133.627 103.177 133.232 103.568 133.232 104.036V105.285C133.232 105.754 133.627 106.144 134.179 106.144C134.732 106.144 135.127 105.754 135.127 105.285V104.036Z" fill="#FFFFFC"/>
<path d="M139.234 102.865C139.234 102.787 139.313 102.709 139.392 102.709H139.708C139.787 102.709 139.866 102.787 139.866 102.865V106.691C139.866 107.472 139.313 108.096 138.365 108.096C137.496 108.096 136.864 107.472 136.864 106.691V102.865C136.864 102.787 136.943 102.709 137.022 102.709H137.338C137.417 102.709 137.496 102.787 137.496 102.865V106.691C137.496 107.159 137.891 107.55 138.444 107.55C138.997 107.55 139.392 107.159 139.392 106.691V102.865H139.234Z" fill="#FFFFFC"/>
<path d="M142.393 107.862C142.393 107.94 142.393 108.018 142.235 108.018H141.998C141.366 108.018 140.971 107.706 140.971 107.003V101.069C140.971 100.991 141.05 100.913 141.129 100.913H141.445C141.524 100.913 141.603 100.991 141.603 101.069V107.003C141.603 107.316 141.761 107.472 142.077 107.472H142.314C142.472 107.472 142.472 107.55 142.472 107.628V107.862H142.393Z" fill="#FFFFFC"/>
<path d="M145.394 104.817V104.036C145.394 103.646 145.157 103.099 144.367 103.099C143.814 103.099 143.656 103.333 143.419 103.49L143.34 103.568C143.34 103.568 143.261 103.568 143.261 103.49L143.182 103.333C143.103 103.255 143.182 103.177 143.261 103.099C143.498 102.865 143.814 102.631 144.525 102.631C145.473 102.631 146.026 103.333 146.026 104.036V106.769C146.026 107.784 145.078 108.096 144.525 108.096C143.814 108.096 142.867 107.628 142.867 106.613V106.457C142.867 105.52 143.498 104.895 144.604 104.895H145.394V104.817ZM145.394 105.285H144.762C143.735 105.285 143.419 105.832 143.419 106.457V106.613C143.419 107.394 144.051 107.628 144.446 107.628C144.841 107.628 145.394 107.394 145.394 106.769V105.285Z" fill="#FFFFFC"/>
<path d="M149.185 103.021C149.185 103.177 149.106 103.177 148.948 103.177C148.79 103.177 148.632 103.177 148.553 103.177C147.921 103.177 147.526 103.646 147.526 104.192V107.862C147.526 107.94 147.447 108.018 147.368 108.018H147.052C146.973 108.018 146.894 107.94 146.894 107.862V104.114C146.894 103.099 147.763 102.631 148.474 102.631C148.711 102.631 148.948 102.631 149.027 102.631C149.106 102.631 149.185 102.709 149.185 102.787V103.021Z" fill="#FFFFFC"/>
<path d="M6.63391 61.7954C6.87084 61.7954 6.87085 61.9516 6.87085 62.1077V64.1378C6.87085 65.6213 6.23904 66.7144 5.21236 67.339C6.31802 67.9636 6.94981 69.1348 6.94981 70.6183V72.5703C6.94981 72.7264 6.87084 72.8826 6.63391 72.8826H5.60724C5.44929 72.8826 5.29134 72.8045 5.29134 72.5703V70.8525C5.29134 69.2129 4.65953 68.1198 2.68514 68.1198H2.5272V72.6483C2.5272 72.8045 2.44821 72.9607 2.29026 72.9607H1.18461C1.02666 72.9607 0.868713 72.8826 0.868713 72.6483V62.1077C0.868713 61.9516 0.947679 61.7954 1.10563 61.7954H2.21128C2.36923 61.7954 2.44822 61.9516 2.44822 62.1077V66.7144H2.5272C4.42261 66.7144 5.13338 65.6213 5.13338 63.9816V62.1077C5.13338 61.8735 5.29133 61.7954 5.44928 61.7954H6.63391Z" fill="#282727"/>
<path d="M13.4259 70.7744C13.4259 72.1017 12.2412 73.0387 10.7407 73.0387C9.24017 73.0387 8.05554 72.1017 8.05554 70.7744V66.7924C8.05554 65.5431 9.24017 64.5281 10.7407 64.5281C12.2412 64.5281 13.4259 65.465 13.4259 66.7924V70.7744ZM9.63505 66.8704V70.7744C9.63505 71.3209 10.1089 71.7894 10.7407 71.7894C11.3725 71.7894 11.8464 71.3209 11.8464 70.7744V66.8704C11.8464 66.3239 11.3725 65.8554 10.7407 65.8554C10.1089 65.8554 9.63505 66.3239 9.63505 66.8704Z" fill="#282727"/>
<path d="M18.4803 65.6212C18.4803 65.8554 18.3223 65.8554 18.0854 65.8554C17.8485 65.8554 17.6905 65.8554 17.5326 65.8554C16.6638 65.8554 16.111 66.48 16.111 67.2608V72.5702C16.111 72.8044 15.9531 72.8825 15.7951 72.8825H14.7684C14.6105 72.8825 14.5315 72.8044 14.5315 72.6483V67.1047C14.5315 65.3089 16.032 64.5281 17.2956 64.5281C17.6905 64.5281 18.0064 64.5281 18.2434 64.6062C18.4013 64.6062 18.4803 64.7623 18.4803 64.8404V65.6212Z" fill="#282727"/>
<path d="M24.3244 70.7744C24.3244 72.0236 23.2978 73.0387 21.7972 73.0387C20.2967 73.0387 19.1121 72.0236 19.1121 70.7744V66.7924C19.1121 65.5431 20.2967 64.5281 21.7972 64.5281C23.2978 64.5281 24.4034 65.5431 24.4034 66.7924V68.8224C24.4034 68.9786 24.3244 69.0566 24.1665 69.0566H20.7705V70.7744C20.7705 71.3209 21.2444 71.7894 21.8762 71.7894C22.508 71.7894 22.9819 71.3209 22.9819 70.7744V70.4621C22.9819 70.3059 23.0608 70.3059 23.2188 70.3059H24.2455C24.3244 70.3059 24.4824 70.3059 24.4824 70.5401V70.7744H24.3244ZM20.6126 66.7924V68.0416H22.8239V66.7924C22.8239 66.2458 22.35 65.7773 21.7182 65.7773C21.0864 65.7773 20.6126 66.2458 20.6126 66.7924Z" fill="#282727"/>
<path d="M29.063 67.8856V66.9487C29.063 66.4021 28.6681 65.6994 27.7204 65.6994C26.9306 65.6994 26.5358 65.9337 26.2199 66.246C26.1409 66.3241 26.0619 66.3241 25.9829 66.3241C25.904 66.3241 25.825 66.3241 25.825 66.246L25.5091 65.6994C25.4301 65.5433 25.4301 65.4652 25.667 65.309C26.2199 64.9967 26.7727 64.6063 27.9573 64.6063C29.4579 64.6063 30.6425 65.5433 30.6425 66.9487V70.7745C30.6425 72.5703 28.826 73.0388 27.9573 73.0388C26.6937 73.0388 25.1142 72.3361 25.1142 70.5403V70.3841C25.1142 68.7445 26.2988 67.8856 27.8783 67.9637H29.063V67.8856ZM29.063 68.9787H28.3522C27.0886 68.9787 26.6937 69.6034 26.6937 70.3841V70.5403C26.6937 71.4772 27.4045 71.7896 27.9573 71.7896C28.4312 71.7896 29.063 71.4772 29.063 70.6965V68.9787Z" fill="#282727"/>
<path d="M41.4621 64.9968C41.4621 65.231 41.3831 65.3091 41.2252 65.3091H40.1985C40.0405 65.3091 39.9616 65.231 39.9616 64.9968V64.3722C39.9616 63.6695 39.4087 63.0448 38.619 63.0448C37.8292 63.0448 37.2764 63.6695 37.2764 64.3722V70.3842C37.2764 71.0869 37.8292 71.7116 38.619 71.7116C39.4087 71.7116 39.9616 71.0869 39.9616 70.3842V69.6034C39.9616 69.3692 40.0405 69.2911 40.1985 69.2911H41.2252C41.3831 69.2911 41.4621 69.3692 41.4621 69.6034V70.4623C41.4621 72.0239 40.1195 73.117 38.54 73.117C36.8815 73.117 35.5389 72.1019 35.5389 70.4623V64.2941C35.5389 62.8106 36.8025 61.6394 38.54 61.6394C40.4354 61.6394 41.4621 62.8887 41.4621 64.2941V64.9968Z" fill="#282727"/>
<path d="M47.8591 70.7744C47.8591 72.1017 46.6745 73.0387 45.174 73.0387C43.6734 73.0387 42.4888 72.1017 42.4888 70.7744V66.7924C42.4888 65.5431 43.6734 64.5281 45.174 64.5281C46.6745 64.5281 47.8591 65.465 47.8591 66.7924V70.7744ZM44.0683 66.8704V70.7744C44.0683 71.3209 44.5422 71.7894 45.174 71.7894C45.8058 71.7894 46.2796 71.3209 46.2796 70.7744V66.8704C46.2796 66.3239 45.8058 65.8554 45.174 65.8554C44.5422 65.8554 44.0683 66.3239 44.0683 66.8704Z" fill="#282727"/>
<path d="M51.9658 72.6484C51.9658 72.7265 51.9658 72.8826 51.571 72.8826H51.0971C49.9125 72.8826 49.1227 72.3361 49.1227 70.9307V62.1078C49.1227 61.9516 49.2017 61.8735 49.3597 61.8735H50.4653C50.6233 61.8735 50.7023 61.9516 50.7023 62.1078V70.8526C50.7023 71.3211 50.9392 71.6334 51.492 71.6334H51.7289C51.9658 71.6334 51.9658 71.7895 51.9658 71.8676V72.6484Z" fill="#282727"/>
<path d="M55.8357 72.6484C55.8357 72.7265 55.8357 72.8826 55.4408 72.8826H54.9669C53.7823 72.8826 52.9926 72.3361 52.9926 70.9307V62.1078C52.9926 61.9516 53.0715 61.8735 53.2295 61.8735H54.3351C54.4931 61.8735 54.5721 61.9516 54.5721 62.1078V70.8526C54.5721 71.3211 54.809 71.6334 55.3618 71.6334H55.5987C55.8357 71.6334 55.8357 71.7895 55.8357 71.8676V72.6484Z" fill="#282727"/>
<path d="M60.4162 67.8856V66.9487C60.4162 66.4021 60.0214 65.6994 59.0736 65.6994C58.2839 65.6994 57.889 65.9337 57.5731 66.246C57.4941 66.3241 57.4152 66.3241 57.3362 66.3241C57.2572 66.3241 57.1782 66.3241 57.1782 66.246L56.8623 65.6994C56.7834 65.5433 56.7834 65.4652 57.0203 65.309C57.5731 64.9967 58.126 64.6063 59.3106 64.6063C60.8111 64.6063 61.9958 65.5433 61.9958 66.9487V70.7745C61.9958 72.5703 60.1793 73.0388 59.3106 73.0388C58.047 73.0388 56.4675 72.3361 56.4675 70.5403V70.3841C56.4675 68.7445 57.6521 67.8856 59.2316 67.9637H60.4162V67.8856ZM60.4162 68.9787H59.7055C58.4419 68.9787 58.047 69.6034 58.047 70.3841V70.5403C58.047 71.4772 58.7578 71.7896 59.3106 71.7896C59.7844 71.7896 60.4162 71.4772 60.4162 70.6965V68.9787Z" fill="#282727"/>
<path d="M68.3927 70.7745C68.3927 72.1018 67.2081 73.0388 65.7075 73.0388C64.207 73.0388 63.0223 72.1018 63.0223 70.7745V62.1078C63.0223 61.9516 63.1013 61.8735 63.2593 61.8735H64.3649C64.5229 61.8735 64.6018 61.9516 64.6018 62.1078V64.9186C64.9967 64.6844 65.4706 64.6063 65.8655 64.6063C67.287 64.6063 68.3927 65.5432 68.3927 66.8706V70.7745ZM64.6018 70.7745C64.6018 71.3211 65.0757 71.7895 65.7075 71.7895C66.3393 71.7895 66.8132 71.3211 66.8132 70.7745V66.8706C66.8132 66.324 66.3393 65.8555 65.7075 65.8555C65.0757 65.8555 64.6018 66.324 64.6018 66.8706V70.7745Z" fill="#282727"/>
<path d="M74.8687 70.7744C74.8687 72.1017 73.6841 73.0387 72.1836 73.0387C70.683 73.0387 69.4984 72.1017 69.4984 70.7744V66.7924C69.4984 65.5431 70.683 64.5281 72.1836 64.5281C73.6841 64.5281 74.8687 65.465 74.8687 66.7924V70.7744ZM70.9989 66.8704V70.7744C70.9989 71.3209 71.4728 71.7894 72.1046 71.7894C72.7364 71.7894 73.2103 71.3209 73.2103 70.7744V66.8704C73.2103 66.3239 72.7364 65.8554 72.1046 65.8554C71.4728 65.8554 70.9989 66.3239 70.9989 66.8704Z" fill="#282727"/>
<path d="M79.8442 65.6212C79.8442 65.8554 79.6862 65.8554 79.4493 65.8554C79.2124 65.8554 79.0544 65.8554 78.8964 65.8554C78.0277 65.8554 77.4749 66.48 77.4749 67.2608V72.5702C77.4749 72.8044 77.3169 72.8825 77.159 72.8825H76.1323C75.9744 72.8825 75.8954 72.8044 75.8954 72.6483V67.1047C75.8954 65.3089 77.3959 64.5281 78.6595 64.5281C79.0544 64.5281 79.3703 64.5281 79.6072 64.6062C79.7652 64.6062 79.8442 64.7623 79.8442 64.8404V65.6212Z" fill="#282727"/>
<path d="M84.1088 67.8856V66.9487C84.1088 66.4021 83.7139 65.6994 82.7662 65.6994C81.9765 65.6994 81.5816 65.9337 81.2657 66.246C81.1867 66.3241 81.1077 66.3241 81.0288 66.3241C80.9498 66.3241 80.8708 66.3241 80.8708 66.246L80.5549 65.6994C80.4759 65.5433 80.4759 65.4652 80.7129 65.309C81.2657 64.9967 81.8185 64.6063 83.0032 64.6063C84.5037 64.6063 85.6883 65.5433 85.6883 66.9487V70.7745C85.6883 72.5703 83.8719 73.0388 83.0032 73.0388C81.7395 73.0388 80.16 72.3361 80.16 70.5403V70.3841C80.16 68.7445 81.3447 67.8856 82.9242 67.9637H84.1088V67.8856ZM84.1088 68.9787H83.398C82.1344 68.9787 81.7395 69.6034 81.7395 70.3841V70.5403C81.7395 71.4772 82.4503 71.7896 83.0032 71.7896C83.477 71.7896 84.1088 71.4772 84.1088 70.6965V68.9787Z" fill="#282727"/>
<path d="M89.1633 72.8825C87.9787 72.8825 87.1889 72.3359 87.1889 70.9305V66.0115H86.4781C86.3992 66.0115 86.2412 65.9335 86.2412 65.7773V64.9965C86.2412 64.8403 86.3992 64.7623 86.4781 64.7623H87.1099V63.4349C87.1099 63.2788 87.1889 63.2007 87.3469 63.1226L88.3735 62.8103C88.5315 62.8103 88.6894 62.8884 88.6894 63.0445V64.6842H89.7951C89.8741 64.6842 90.032 64.7623 90.032 64.9184V65.6992C90.032 65.8554 89.9531 65.9335 89.7951 65.9335H88.7684V70.8524C88.7684 71.3209 89.0053 71.6332 89.5582 71.6332H89.7951C90.032 71.6332 90.032 71.7894 90.032 71.8674V72.7263C90.032 72.8044 90.032 72.9605 89.6371 72.9605H89.1633V72.8825Z" fill="#282727"/>
<path d="M92.7172 63.5911C92.7172 63.8254 92.5592 63.9035 92.4013 63.9035H91.3746C91.1377 63.9035 90.9797 63.8254 90.9797 63.5911V62.8104C90.9797 62.6542 91.0587 62.498 91.3746 62.498H92.4013C92.6382 62.498 92.7172 62.6542 92.7172 62.8104V63.5911ZM91.0587 64.9185C91.0587 64.7623 91.1377 64.6842 91.2956 64.6842H92.3223C92.4803 64.6842 92.6382 64.8404 92.6382 64.9185V72.6483C92.6382 72.8044 92.5592 72.8825 92.3223 72.8825H91.2956C91.1377 72.8825 91.0587 72.8044 91.0587 72.6483V64.9185Z" fill="#282727"/>
<path d="M96.587 70.3061L97.9296 64.8406C97.9296 64.6844 98.0875 64.6063 98.2455 64.6063H99.3511C99.5881 64.6063 99.6671 64.7625 99.5881 64.9967L97.4557 72.6484C97.3768 72.8046 97.2978 72.8827 97.2188 72.8827H95.9552C95.7973 72.8827 95.7183 72.8046 95.7183 72.6484L93.5859 64.9967C93.507 64.7625 93.6649 64.6063 93.8229 64.6063H94.9285C95.0865 64.6063 95.1655 64.6844 95.2444 64.8406L96.587 70.3061Z" fill="#282727"/>
<path d="M105.195 70.7744C105.195 72.0236 104.169 73.0387 102.668 73.0387C101.168 73.0387 99.9829 72.0236 99.9829 70.7744V66.7924C99.9829 65.5431 101.168 64.5281 102.668 64.5281C104.169 64.5281 105.274 65.5431 105.274 66.7924V68.8224C105.274 68.9786 105.195 69.0566 105.037 69.0566H101.641V70.7744C101.641 71.3209 102.115 71.7894 102.747 71.7894C103.379 71.7894 103.853 71.3209 103.853 70.7744V70.4621C103.853 70.3059 103.932 70.3059 104.09 70.3059H105.116C105.195 70.3059 105.353 70.3059 105.353 70.5401V70.7744H105.195ZM101.562 66.7924V68.0416H103.774V66.7924C103.774 66.2458 103.3 65.7773 102.668 65.7773C102.036 65.7773 101.562 66.2458 101.562 66.7924Z" fill="#282727"/>
<path d="M114.672 65.6213C114.83 65.6213 114.909 65.7775 114.909 65.8556V66.6364H115.699C115.857 66.6364 115.936 66.7144 115.936 66.8706V67.4952C115.936 67.6514 115.857 67.7295 115.699 67.7295H114.909V70.5403C114.909 71.8676 114.12 73.0388 112.303 73.0388C110.487 73.0388 109.46 72.0238 109.46 70.5403V68.9006C109.46 67.8856 110.013 67.3391 110.645 67.1048C110.092 66.7925 109.697 66.1679 109.697 65.309V64.1378C109.697 62.4982 111.039 61.7174 112.303 61.7174C113.725 61.7174 114.988 62.264 114.988 64.294C114.988 64.5282 114.909 64.6063 114.751 64.6063H113.646C113.488 64.6063 113.409 64.4502 113.409 64.294C113.409 63.3571 113.014 63.0447 112.382 63.0447C111.829 63.0447 111.197 63.3571 111.197 64.2159V65.4652C111.197 66.0117 111.434 66.5583 111.987 66.5583H113.409V65.7775C113.409 65.6994 113.488 65.5433 113.646 65.5433H114.672V65.6213ZM113.409 70.5403V67.7295H111.987C111.197 67.7295 110.96 68.276 110.96 68.8226V70.4622C110.96 71.3992 111.592 71.7115 112.224 71.7115C113.014 71.7115 113.409 71.3211 113.409 70.5403Z" fill="#282727"/>
<path d="M126.44 61.7954C126.598 61.7954 126.677 61.8735 126.677 62.1077V72.6483C126.677 72.8045 126.598 72.9607 126.44 72.9607H125.334C125.176 72.9607 125.097 72.8826 125.097 72.6483V67.9636H122.254V72.6483C122.254 72.8045 122.175 72.9607 122.017 72.9607H120.911C120.753 72.9607 120.674 72.8826 120.674 72.6483V62.1077C120.674 61.9516 120.753 61.7954 120.911 61.7954H122.017C122.175 61.7954 122.254 61.9516 122.254 62.1077V66.5582H125.097V62.1077C125.097 61.9516 125.176 61.7954 125.334 61.7954H126.44Z" fill="#282727"/>
<path d="M129.915 63.5911C129.915 63.8254 129.757 63.9035 129.599 63.9035H128.572C128.335 63.9035 128.177 63.8254 128.177 63.5911V62.8104C128.177 62.6542 128.256 62.498 128.572 62.498H129.599C129.836 62.498 129.915 62.6542 129.915 62.8104V63.5911ZM128.256 64.9185C128.256 64.7623 128.335 64.6842 128.493 64.6842H129.52C129.678 64.6842 129.836 64.8404 129.836 64.9185V72.6483C129.836 72.8044 129.757 72.8825 129.52 72.8825H128.493C128.335 72.8825 128.256 72.8044 128.256 72.6483V64.9185Z" fill="#282727"/>
<path d="M134.574 72.1798C135.838 72.1798 136.785 72.5702 136.785 73.9756V75.3029C136.785 75.4591 136.706 75.5372 136.549 75.5372H135.364C135.206 75.5372 135.206 75.4591 135.206 75.3029V74.2879C135.206 73.6633 134.811 73.429 134.179 73.429H132.837H132.758C131.731 73.429 131.02 72.5702 131.02 71.7894V71.6332C131.02 71.0086 131.336 70.384 131.652 70.0717C131.257 69.6813 131.02 69.1347 131.02 68.432V66.9485C131.02 65.5431 132.205 64.5281 133.705 64.5281C134.021 64.5281 134.337 64.6062 134.653 64.6842H136.707C136.864 64.6842 136.943 64.7623 136.943 64.9185V65.6212C136.943 65.7773 136.864 65.8554 136.707 65.8554H136.154C136.312 66.1677 136.47 66.5581 136.47 67.0266V68.432C136.47 69.9936 135.285 70.9305 133.784 70.9305C133.39 70.9305 133.074 70.8524 132.758 70.7744C132.6 70.9305 132.521 71.1648 132.521 71.4771C132.521 71.8675 132.916 72.1798 133.39 72.1798H134.574ZM134.811 66.8704C134.811 66.3239 134.337 65.8554 133.705 65.8554C133.074 65.8554 132.6 66.3239 132.6 66.8704V68.5882C132.6 69.1347 133.074 69.6032 133.705 69.6032C134.337 69.6032 134.811 69.1347 134.811 68.5882V66.8704Z" fill="#282727"/>
<path d="M143.419 72.6483C143.419 72.8045 143.34 72.8826 143.182 72.8826H142.077C141.998 72.8826 141.84 72.8045 141.84 72.6483V66.7924C141.84 66.2459 141.366 65.7774 140.734 65.7774C140.023 65.7774 139.629 66.324 139.629 66.9486V72.5703C139.629 72.7264 139.55 72.8045 139.313 72.8045H138.286C138.128 72.8045 138.049 72.7264 138.049 72.5703V62.0296C138.049 61.8735 138.128 61.7954 138.286 61.7954H139.392C139.55 61.7954 139.629 61.8735 139.629 62.0296V64.9966C140.023 64.6843 140.576 64.5282 141.129 64.5282C142.472 64.5282 143.419 65.4651 143.419 66.8705V72.6483Z" fill="#282727"/>
<path d="M148.869 67.7295C148.869 67.8857 148.79 67.9637 148.632 67.9637H144.841C144.762 67.9637 144.604 67.8857 144.604 67.7295V66.9487C144.604 66.7926 144.762 66.7145 144.841 66.7145H148.632C148.711 66.7145 148.869 66.7926 148.869 66.9487V67.7295Z" fill="#282727"/>
<path d="M152.344 72.8825C151.159 72.8825 150.369 72.3359 150.369 70.9305V66.0115H149.737C149.658 66.0115 149.5 65.9335 149.5 65.7773V64.9965C149.5 64.8403 149.658 64.7623 149.737 64.7623H150.369V63.4349C150.369 63.2788 150.448 63.2007 150.606 63.1226L151.633 62.8103C151.791 62.8103 151.949 62.8884 151.949 63.0445V64.6842H153.054C153.133 64.6842 153.291 64.7623 153.291 64.9184V65.6992C153.291 65.8554 153.212 65.9335 153.054 65.9335H152.028V70.8524C152.028 71.3209 152.265 71.6332 152.817 71.6332H153.054C153.291 71.6332 153.291 71.7894 153.291 71.8674V72.7263C153.291 72.8044 153.291 72.9605 152.896 72.9605H152.344V72.8825Z" fill="#282727"/>
<path d="M159.372 70.7744C159.372 72.0236 158.346 73.0387 156.845 73.0387C155.345 73.0387 154.16 72.0236 154.16 70.7744V66.7924C154.16 65.5431 155.345 64.5281 156.845 64.5281C158.346 64.5281 159.451 65.5431 159.451 66.7924V68.8224C159.451 68.9786 159.372 69.0566 159.214 69.0566H155.819V70.7744C155.819 71.3209 156.292 71.7894 156.924 71.7894C157.556 71.7894 158.03 71.3209 158.03 70.7744V70.4621C158.03 70.3059 158.109 70.3059 158.267 70.3059H159.293C159.372 70.3059 159.53 70.3059 159.53 70.5401V70.7744H159.372ZM155.661 66.7924V68.0416H157.872V66.7924C157.872 66.2458 157.398 65.7773 156.766 65.7773C156.213 65.7773 155.661 66.2458 155.661 66.7924Z" fill="#282727"/>
<path d="M165.375 70.0717C165.533 70.0717 165.612 70.1497 165.612 70.3059V70.7744C165.612 72.0236 164.506 73.0387 163.005 73.0387C161.505 73.0387 160.32 72.1017 160.32 70.7744V66.7924C160.32 65.5431 161.505 64.5281 163.005 64.5281C164.506 64.5281 165.612 65.5431 165.612 66.7924V67.3389C165.612 67.5731 165.533 67.5731 165.375 67.5731H164.427C164.269 67.5731 164.111 67.4951 164.111 67.3389V66.8704C164.111 66.3239 163.637 65.8554 163.005 65.8554C162.374 65.8554 161.9 66.3239 161.9 66.8704V70.7744C161.9 71.3209 162.374 71.7894 163.005 71.7894C163.637 71.7894 164.111 71.3209 164.111 70.7744V70.384C164.111 70.1497 164.19 70.1497 164.348 70.1497H165.375V70.0717Z" fill="#282727"/>
<path d="M172.087 72.6483C172.087 72.8045 172.009 72.8826 171.851 72.8826H170.745C170.666 72.8826 170.508 72.8045 170.508 72.6483V66.7924C170.508 66.2459 170.034 65.7774 169.402 65.7774C168.692 65.7774 168.297 66.324 168.297 66.9486V72.5703C168.297 72.7264 168.218 72.8045 167.981 72.8045H166.954C166.796 72.8045 166.717 72.7264 166.717 72.5703V62.0296C166.717 61.8735 166.796 61.7954 166.954 61.7954H168.06C168.218 61.7954 168.297 61.8735 168.297 62.0296V64.9966C168.692 64.6843 169.244 64.5282 169.797 64.5282C171.14 64.5282 172.087 65.4651 172.087 66.8705V72.6483Z" fill="#282727"/>
<path d="M178.721 72.6483C178.721 72.8045 178.642 72.9607 178.484 72.9607H177.379C177.221 72.9607 177.142 72.8826 177.142 72.6483V62.1077C177.142 61.9516 177.221 61.7954 177.379 61.7954H178.484C178.642 61.7954 178.721 61.9516 178.721 62.1077V72.6483Z" fill="#282727"/>
<path d="M184.329 72.8825C184.171 72.8825 184.092 72.8044 184.092 72.6483V66.8704C184.092 66.3239 183.697 65.7773 182.986 65.7773C182.354 65.7773 181.88 66.2458 181.88 66.7924V72.5702C181.88 72.7263 181.801 72.8044 181.643 72.8044H180.538C180.459 72.8044 180.301 72.7263 180.301 72.5702V66.8704C180.301 65.6212 181.407 64.5281 182.986 64.5281C184.724 64.5281 185.75 65.5431 185.75 66.8704V72.6483C185.75 72.8044 185.592 72.8825 185.513 72.8825H184.329Z" fill="#282727"/>
<path d="M188.672 63.5911C188.672 63.8254 188.514 63.9035 188.356 63.9035H187.33C187.093 63.9035 186.935 63.8254 186.935 63.5911V62.8104C186.935 62.6542 187.014 62.498 187.33 62.498H188.356C188.593 62.498 188.672 62.6542 188.672 62.8104V63.5911ZM187.014 64.9185C187.014 64.7623 187.093 64.6842 187.251 64.6842H188.277C188.435 64.6842 188.593 64.8404 188.593 64.9185V72.6483C188.593 72.8044 188.514 72.8825 188.277 72.8825H187.251C187.093 72.8825 187.014 72.8044 187.014 72.6483V64.9185Z" fill="#282727"/>
<path d="M192.226 72.8825C191.042 72.8825 190.252 72.3359 190.252 70.9305V66.0115H189.62C189.541 66.0115 189.383 65.9335 189.383 65.7773V64.9965C189.383 64.8403 189.541 64.7623 189.62 64.7623H190.252V63.4349C190.252 63.2788 190.331 63.2007 190.489 63.1226L191.515 62.8103C191.673 62.8103 191.831 62.8884 191.831 63.0445V64.6842H192.937C193.016 64.6842 193.174 64.7623 193.174 64.9184V65.6992C193.174 65.8554 193.095 65.9335 192.937 65.9335H191.91V70.8524C191.91 71.3209 192.147 71.6332 192.7 71.6332H192.937C193.174 71.6332 193.174 71.7894 193.174 71.8674V72.7263C193.174 72.8044 193.174 72.9605 192.779 72.9605H192.226V72.8825Z" fill="#282727"/>
<path d="M195.78 63.5911C195.78 63.8254 195.622 63.9035 195.464 63.9035H194.438C194.201 63.9035 194.043 63.8254 194.043 63.5911V62.8104C194.043 62.6542 194.122 62.498 194.438 62.498H195.464C195.701 62.498 195.78 62.6542 195.78 62.8104V63.5911ZM194.122 64.9185C194.122 64.7623 194.201 64.6842 194.359 64.6842H195.385C195.543 64.6842 195.701 64.8404 195.701 64.9185V72.6483C195.701 72.8044 195.622 72.8825 195.385 72.8825H194.359C194.201 72.8825 194.122 72.8044 194.122 72.6483V64.9185Z" fill="#282727"/>
<path d="M200.677 67.8856V66.9487C200.677 66.4021 200.282 65.6994 199.334 65.6994C198.544 65.6994 198.149 65.9337 197.833 66.246C197.754 66.3241 197.676 66.3241 197.597 66.3241C197.518 66.3241 197.439 66.3241 197.439 66.246L197.123 65.6994C197.044 65.5433 197.044 65.4652 197.281 65.309C197.833 64.9967 198.386 64.6063 199.571 64.6063C201.071 64.6063 202.256 65.5433 202.256 66.9487V70.7745C202.256 72.5703 200.44 73.0388 199.571 73.0388C198.307 73.0388 196.728 72.3361 196.728 70.5403V70.3841C196.728 68.7445 197.912 67.8856 199.492 67.9637H200.677V67.8856ZM200.677 68.9787H199.966C198.702 68.9787 198.307 69.6034 198.307 70.3841V70.5403C198.307 71.4772 199.018 71.7896 199.571 71.7896C200.045 71.7896 200.677 71.4772 200.677 70.6965V68.9787Z" fill="#282727"/>
<path d="M205.731 72.8825C204.546 72.8825 203.757 72.3359 203.757 70.9305V66.0115H203.125C203.046 66.0115 202.888 65.9335 202.888 65.7773V64.9965C202.888 64.8403 203.046 64.7623 203.125 64.7623H203.757V63.4349C203.757 63.2788 203.836 63.2007 203.994 63.1226L205.02 62.8103C205.178 62.8103 205.336 62.8884 205.336 63.0445V64.6842H206.442C206.521 64.6842 206.679 64.7623 206.679 64.9184V65.6992C206.679 65.8554 206.6 65.9335 206.442 65.9335H205.415V70.8524C205.415 71.3209 205.652 71.6332 206.205 71.6332H206.442C206.679 71.6332 206.679 71.7894 206.679 71.8674V72.7263C206.679 72.8044 206.679 72.9605 206.284 72.9605H205.731V72.8825Z" fill="#282727"/>
<path d="M209.285 63.5911C209.285 63.8254 209.127 63.9035 208.969 63.9035H207.942C207.705 63.9035 207.547 63.8254 207.547 63.5911V62.8104C207.547 62.6542 207.626 62.498 207.942 62.498H208.969C209.206 62.498 209.285 62.6542 209.285 62.8104V63.5911ZM207.626 64.9185C207.626 64.7623 207.705 64.6842 207.863 64.6842H208.89C209.048 64.6842 209.206 64.8404 209.206 64.9185V72.6483C209.206 72.8044 209.127 72.8825 208.89 72.8825H207.863C207.705 72.8825 207.626 72.8044 207.626 72.6483V64.9185Z" fill="#282727"/>
<path d="M213.076 70.9307L213.155 70.3061L214.497 64.8406C214.497 64.6844 214.655 64.6063 214.813 64.6063H215.919C216.156 64.6063 216.235 64.7625 216.156 64.9967L214.023 72.6484C213.944 72.8046 213.866 72.8827 213.787 72.8827H212.681C212.523 72.8827 212.444 72.8046 212.444 72.6484L210.312 64.9967C210.233 64.7625 210.391 64.6063 210.549 64.6063H211.654C211.812 64.6063 211.891 64.6844 211.97 64.8406L213.313 70.3061L213.076 70.9307Z" fill="#282727"/>
<path d="M221.842 70.7744C221.842 72.0236 220.815 73.0387 219.315 73.0387C217.814 73.0387 216.63 72.0236 216.63 70.7744V66.7924C216.63 65.5431 217.814 64.5281 219.315 64.5281C220.815 64.5281 221.921 65.5431 221.921 66.7924V68.8224C221.921 68.9786 221.842 69.0566 221.684 69.0566H218.288V70.7744C218.288 71.3209 218.762 71.7894 219.394 71.7894C220.026 71.7894 220.499 71.3209 220.499 70.7744V70.4621C220.499 70.3059 220.578 70.3059 220.736 70.3059H221.763C221.842 70.3059 222 70.3059 222 70.5401V70.7744H221.842ZM218.13 66.7924V68.0416H220.342V66.7924C220.342 66.2458 219.868 65.7773 219.236 65.7773C218.683 65.7773 218.13 66.2458 218.13 66.7924Z" fill="#282727"/>
<path d="M3.86985 82.8767C4.0278 82.8767 4.10679 82.9548 4.10679 83.1109V83.9698C4.10679 84.126 3.94883 84.204 3.86985 84.204H2.60624V90.9188C2.60624 91.075 2.52727 91.153 2.36932 91.153H1.26367C1.10572 91.153 1.02673 91.075 1.02673 90.9188V84.126H0.315957C0.158006 84.126 0.0790405 84.0479 0.0790405 83.8917V83.0329C0.0790405 82.8767 0.236982 82.7986 0.315957 82.7986H1.02673V82.2521C1.02673 80.3782 2.05342 79.9878 3.47498 79.9878C3.55395 79.9878 3.63292 79.9878 3.79087 79.9878C4.0278 79.9878 4.10679 80.0659 4.10679 80.222V80.9247C4.10679 81.0809 3.94882 81.159 3.79087 81.159C3.00112 81.159 2.68522 81.3932 2.68522 82.4082V82.8767H3.86985Z" fill="#282727"/>
<path d="M9.95085 88.9669C9.95085 90.2942 8.76622 91.2312 7.26569 91.2312C5.76516 91.2312 4.58051 90.2942 4.58051 88.9669V84.9849C4.58051 83.7356 5.76516 82.7206 7.26569 82.7206C8.76622 82.7206 9.95085 83.6575 9.95085 84.9849V88.9669ZM6.16001 84.9849V88.8888C6.16001 89.4353 6.63389 89.9038 7.26569 89.9038C7.89749 89.9038 8.37134 89.4353 8.37134 88.8888V84.9849C8.37134 84.4383 7.89749 83.9698 7.26569 83.9698C6.63389 83.9698 6.16001 84.4383 6.16001 84.9849Z" fill="#282727"/>
<path d="M15.0053 83.7354C15.0053 83.9697 14.8473 83.9697 14.6104 83.9697C14.3735 83.9697 14.2155 83.9697 14.0576 83.9697C13.1888 83.9697 12.636 84.5943 12.636 85.3751V90.6844C12.636 90.9187 12.4781 90.9968 12.3201 90.9968H11.2934C11.1355 90.9968 11.0565 90.9187 11.0565 90.7625V85.2189C11.0565 83.4231 12.5571 82.6423 13.8207 82.6423C14.2155 82.6423 14.5314 82.6423 14.7684 82.7204C14.9263 82.7204 15.0053 82.8766 15.0053 82.9546V83.7354Z" fill="#282727"/>
<path d="M19.349 80.2219C19.349 80.0657 19.428 79.9095 19.6649 79.9095H22.508C24.2455 79.9095 25.4301 81.1588 25.4301 82.7204V85.1408C25.4301 86.7024 24.1665 87.9517 22.508 87.9517H21.0865V90.7625C21.0865 90.9186 21.0075 91.0748 20.8495 91.0748H19.7439C19.5859 91.0748 19.507 90.9967 19.507 90.7625V80.2219H19.349ZM23.7716 82.7985C23.7716 82.0177 23.2188 81.393 22.3501 81.393H21.0075V86.6243H22.3501C23.2188 86.6243 23.7716 85.9997 23.7716 85.2189V82.7985Z" fill="#282727"/>
<path d="M30.1686 83.7354C30.1686 83.9697 30.0106 83.9697 29.7737 83.9697C29.5368 83.9697 29.3788 83.9697 29.2208 83.9697C28.3521 83.9697 27.7993 84.5943 27.7993 85.3751V90.6844C27.7993 90.9187 27.6413 90.9968 27.4834 90.9968H26.4567C26.2988 90.9968 26.2198 90.9187 26.2198 90.7625V85.2189C26.2198 83.4231 27.7203 82.6423 28.9839 82.6423C29.3788 82.6423 29.6947 82.6423 29.9316 82.7204C30.0896 82.7204 30.1686 82.8766 30.1686 82.9546V83.7354Z" fill="#282727"/>
<path d="M36.0918 88.9669C36.0918 90.2942 34.9071 91.2312 33.4066 91.2312C31.9061 91.2312 30.7214 90.2942 30.7214 88.9669V84.9849C30.7214 83.7356 31.9061 82.7206 33.4066 82.7206C34.9071 82.7206 36.0918 83.6575 36.0918 84.9849V88.9669ZM32.222 84.9849V88.8888C32.222 89.4353 32.6958 89.9038 33.3276 89.9038C33.9594 89.9038 34.4333 89.4353 34.4333 88.8888V84.9849C34.4333 84.4383 33.9594 83.9698 33.3276 83.9698C32.6958 83.9698 32.222 84.4383 32.222 84.9849Z" fill="#282727"/>
<path d="M40.7513 84.9066C40.7513 84.3601 40.2774 83.8916 39.6456 83.8916C39.0138 83.8916 38.6189 84.3601 38.6189 84.9066C38.6189 85.5312 39.0138 85.6874 40.1195 86.312C41.2251 86.9367 42.3308 87.7174 42.3308 88.8886C42.3308 90.216 41.2251 91.1529 39.6456 91.1529C37.5923 91.1529 36.9604 90.0598 36.9604 88.8886V88.7325C36.9604 88.5763 37.1184 88.4982 37.2764 88.4982H38.2241C38.382 88.4982 38.461 88.5763 38.461 88.7325V88.9667C38.461 89.5133 38.9348 89.9037 39.5667 89.9037C40.1985 89.9037 40.6723 89.4352 40.6723 88.8886C40.6723 88.264 39.8036 87.8736 38.6189 87.1709C37.7502 86.6243 36.9604 85.9997 36.9604 84.9066C36.9604 83.6574 37.9871 82.6423 39.4877 82.6423C41.0672 82.6423 42.0939 83.5793 42.0939 84.9066V85.1409C42.0939 85.297 42.0149 85.297 41.778 85.297H40.9092C40.7513 85.297 40.6723 85.2189 40.6723 85.0628V84.9066H40.7513Z" fill="#282727"/>
<path d="M48.5699 88.9669C48.5699 90.2942 47.4643 91.2312 46.0427 91.2312C45.5689 91.2312 45.174 91.075 44.7791 90.9188V93.4954C44.7791 93.6516 44.7001 93.7297 44.5422 93.7297H43.5155C43.3576 93.7297 43.2786 93.6516 43.2786 93.4954V84.9849C43.2786 83.6575 44.4632 82.7206 45.9637 82.7206C47.4643 82.7206 48.6489 83.6575 48.6489 84.9849V88.9669H48.5699ZM44.7791 88.8888C44.7791 89.4353 45.253 89.9038 45.8848 89.9038C46.5166 89.9038 46.9904 89.4353 46.9904 88.8888V84.9849C46.9904 84.4383 46.5166 83.9698 45.8848 83.9698C45.253 83.9698 44.7791 84.4383 44.7791 84.9849V88.8888Z" fill="#282727"/>
<path d="M54.888 88.9669C54.888 90.2161 53.8613 91.2312 52.3608 91.2312C50.8602 91.2312 49.6756 90.2161 49.6756 88.9669V84.9849C49.6756 83.7356 50.8602 82.7206 52.3608 82.7206C53.8613 82.7206 54.967 83.7356 54.967 84.9849V87.0149C54.967 87.1711 54.888 87.2491 54.73 87.2491H51.3341V88.9669C51.3341 89.5134 51.8079 89.9819 52.4397 89.9819C53.0715 89.9819 53.5454 89.5134 53.5454 88.9669V88.6546C53.5454 88.4984 53.6244 88.4984 53.7823 88.4984H54.809C54.888 88.4984 55.0459 88.4984 55.0459 88.7326V88.9669H54.888ZM51.1761 84.9849V86.2341H53.3875V84.9849C53.3875 84.4383 52.9136 83.9698 52.2818 83.9698C51.65 83.9698 51.1761 84.4383 51.1761 84.9849Z" fill="#282727"/>
<path d="M60.8901 88.2642C61.048 88.2642 61.127 88.3422 61.127 88.4984V88.9669C61.127 90.2161 60.0213 91.2312 58.5208 91.2312C57.0203 91.2312 55.8356 90.2942 55.8356 88.9669V84.9849C55.8356 83.7356 57.0203 82.7206 58.5208 82.7206C60.0213 82.7206 61.127 83.7356 61.127 84.9849V85.5314C61.127 85.7656 61.048 85.7656 60.8901 85.7656H59.9423C59.7844 85.7656 59.6264 85.6876 59.6264 85.5314V85.0629C59.6264 84.5164 59.1526 84.0479 58.5208 84.0479C57.889 84.0479 57.4151 84.5164 57.4151 85.0629V88.9669C57.4151 89.5134 57.889 89.9819 58.5208 89.9819C59.1526 89.9819 59.6264 89.5134 59.6264 88.9669V88.5765C59.6264 88.3422 59.7054 88.3422 59.8634 88.3422H60.8901V88.2642Z" fill="#282727"/>
<path d="M64.5229 91.0748C63.3383 91.0748 62.5485 90.5282 62.5485 89.1228V84.1258H61.9167C61.8378 84.1258 61.6798 84.0477 61.6798 83.8916V83.1108C61.6798 82.9546 61.8378 82.8765 61.9167 82.8765H62.5485V81.5492C62.5485 81.393 62.6275 81.315 62.7855 81.2369L63.8121 80.9246C63.9701 80.9246 64.1281 81.0026 64.1281 81.1588V82.7984H65.2337C65.3127 82.7984 65.4706 82.8765 65.4706 83.0327V83.8135C65.4706 83.9696 65.3917 84.0477 65.2337 84.0477H64.207V88.8886C64.207 89.3571 64.4439 89.6694 64.9968 89.6694H65.2337C65.4706 89.6694 65.4706 89.8255 65.4706 89.9036V90.7625C65.4706 90.8406 65.4706 90.9967 65.0757 90.9967H64.5229V91.0748Z" fill="#282727"/>
<path d="M68.0768 81.7834C68.0768 82.0176 67.9189 82.0957 67.7609 82.0957H66.7342C66.4973 82.0957 66.3394 82.0176 66.3394 81.7834V80.9245C66.3394 80.7683 66.4183 80.6122 66.7342 80.6122H67.7609C67.9978 80.6122 68.0768 80.7683 68.0768 80.9245V81.7834ZM66.4183 83.0326C66.4183 82.8765 66.4973 82.7984 66.6553 82.7984H67.6819C67.8399 82.7984 67.9978 82.9545 67.9978 83.0326V90.7624C67.9978 90.9186 67.9189 90.9966 67.6819 90.9966H66.6553C66.4973 90.9966 66.4183 90.9186 66.4183 90.7624V83.0326Z" fill="#282727"/>
<path d="M71.8677 89.123L71.9466 88.4983L73.2892 83.0328C73.2892 82.8767 73.4472 82.7986 73.6051 82.7986H74.7108C74.9477 82.7986 75.0267 82.9547 74.9477 83.189L72.8154 90.8407C72.7364 90.9968 72.6574 91.0749 72.5784 91.0749H71.4728C71.3148 91.0749 71.2359 90.9968 71.2359 90.8407L69.1035 83.189C69.0246 82.9547 69.1825 82.7986 69.3404 82.7986H70.4461C70.6041 82.7986 70.683 82.8767 70.762 83.0328L72.1046 88.4983L71.8677 89.123Z" fill="#282727"/>
<path d="M80.555 88.9669C80.555 90.2161 79.5283 91.2312 78.0278 91.2312C76.5272 91.2312 75.3426 90.2161 75.3426 88.9669V84.9849C75.3426 83.7356 76.5272 82.7206 78.0278 82.7206C79.5283 82.7206 80.634 83.7356 80.634 84.9849V87.0149C80.634 87.1711 80.555 87.2491 80.397 87.2491H77.0011V88.9669C77.0011 89.5134 77.4749 89.9819 78.1067 89.9819C78.7385 89.9819 79.2124 89.5134 79.2124 88.9669V88.6546C79.2124 88.4984 79.2914 88.4984 79.4493 88.4984H80.476C80.555 88.4984 80.7129 88.4984 80.7129 88.7326V88.9669H80.555ZM76.9221 84.9849V86.2341H79.1334V84.9849C79.1334 84.4383 78.6596 83.9698 78.0278 83.9698C77.3959 83.9698 76.9221 84.4383 76.9221 84.9849Z" fill="#282727"/>
<path d="M89.3212 82.5644C89.3212 81.8617 88.8473 81.2371 87.9786 81.2371C87.4258 81.2371 86.6361 81.5494 86.6361 82.6425C86.6361 83.6575 87.4258 84.126 88.2156 84.6725C89.874 85.9218 91.1376 86.6245 91.1376 88.6546C91.1376 90.06 89.874 91.3092 88.1366 91.3092C86.3991 91.3092 85.2145 90.1381 85.2145 88.5765V88.1861C85.2145 87.9518 85.2935 87.8738 85.4514 87.8738H86.4781C86.715 87.8738 86.715 87.9518 86.715 88.1861V88.5765C86.715 89.6696 87.5048 89.9819 88.1366 89.9819C88.9263 89.9819 89.5581 89.4353 89.5581 88.6546C89.5581 87.6395 89.0053 87.2491 87.6627 86.156C86.0832 84.9849 85.1355 84.3602 85.1355 82.6425C85.1355 80.4563 87.1099 79.8317 88.0576 79.8317C89.7951 79.8317 90.9797 81.0028 90.9797 82.5644V83.0329C90.9797 83.2671 90.9007 83.3452 90.6638 83.3452H89.6371C89.4792 83.3452 89.4002 83.2671 89.4002 83.0329V82.5644H89.3212Z" fill="#282727"/>
<path d="M97.2188 88.9669C97.2188 90.2161 96.1921 91.2312 94.6916 91.2312C93.191 91.2312 92.0064 90.2161 92.0064 88.9669V84.9849C92.0064 83.7356 93.191 82.7206 94.6916 82.7206C96.1921 82.7206 97.2978 83.7356 97.2978 84.9849V87.0149C97.2978 87.1711 97.2188 87.2491 97.0608 87.2491H93.6649V88.9669C93.6649 89.5134 94.1387 89.9819 94.7705 89.9819C95.4024 89.9819 95.8762 89.5134 95.8762 88.9669V88.6546C95.8762 88.4984 95.9552 88.4984 96.1131 88.4984H97.1398C97.2188 88.4984 97.3767 88.4984 97.3767 88.7326V88.9669H97.2188ZM93.5069 84.9849V86.2341H95.7183V84.9849C95.7183 84.4383 95.2444 83.9698 94.6126 83.9698C94.0598 83.9698 93.5069 84.4383 93.5069 84.9849Z" fill="#282727"/>
<path d="M103.458 91.075H102.352C102.194 91.075 102.115 90.9969 102.115 90.8408V85.2191C102.115 84.2041 101.405 84.0479 101.01 84.0479H100.931C100.457 84.0479 99.9829 84.2822 99.904 85.2191V90.8408C99.904 90.9188 99.825 91.075 99.6671 91.075H98.5614C98.4034 91.075 98.3245 90.9969 98.3245 90.8408V85.2191C98.4034 83.2671 99.746 82.7206 100.931 82.7206H101.01C101.72 82.7206 102.51 82.9548 102.905 83.6575C103.3 82.9548 104.011 82.7206 104.721 82.7206H104.8C105.985 82.7206 107.407 83.1891 107.486 85.2191C107.486 85.2191 107.486 85.2191 107.486 85.2972V90.8408C107.486 90.9969 107.407 91.075 107.249 91.075H106.143C105.985 91.075 105.906 90.9969 105.906 90.8408V85.2191C105.906 84.2822 105.274 84.0479 104.8 84.0479H104.642C104.169 84.0479 103.616 84.2822 103.616 85.2972V90.8408C103.695 90.9188 103.616 91.075 103.458 91.075Z" fill="#282727"/>
<path d="M110.487 81.7834C110.487 82.0176 110.329 82.0957 110.171 82.0957H109.144C108.907 82.0957 108.749 82.0176 108.749 81.7834V80.9245C108.749 80.7683 108.828 80.6122 109.144 80.6122H110.171C110.408 80.6122 110.487 80.7683 110.487 80.9245V81.7834ZM108.828 83.0326C108.828 82.8765 108.907 82.7984 109.065 82.7984H110.092C110.25 82.7984 110.408 82.9545 110.408 83.0326V90.7624C110.408 90.9186 110.329 90.9966 110.092 90.9966H109.065C108.907 90.9966 108.828 90.9186 108.828 90.7624V83.0326Z" fill="#282727"/>
<path d="M116.647 88.2642C116.805 88.2642 116.884 88.3422 116.884 88.4984V88.9669C116.884 90.2161 115.778 91.2312 114.277 91.2312C112.777 91.2312 111.592 90.2942 111.592 88.9669V84.9849C111.592 83.7356 112.777 82.7206 114.277 82.7206C115.778 82.7206 116.884 83.7356 116.884 84.9849V85.5314C116.884 85.7656 116.805 85.7656 116.647 85.7656H115.699C115.541 85.7656 115.383 85.6876 115.383 85.5314V85.0629C115.383 84.5164 114.909 84.0479 114.277 84.0479C113.646 84.0479 113.172 84.5164 113.172 85.0629V88.9669C113.172 89.5134 113.646 89.9819 114.277 89.9819C114.909 89.9819 115.383 89.5134 115.383 88.9669V88.5765C115.383 88.3422 115.462 88.3422 115.62 88.3422H116.647V88.2642Z" fill="#282727"/>
<path d="M123.202 88.9669C123.202 90.2942 122.017 91.2312 120.517 91.2312C119.016 91.2312 117.831 90.2942 117.831 88.9669V84.9849C117.831 83.7356 119.016 82.7206 120.517 82.7206C122.017 82.7206 123.202 83.6575 123.202 84.9849V88.9669ZM119.332 84.9849V88.8888C119.332 89.4353 119.806 89.9038 120.438 89.9038C121.069 89.9038 121.543 89.4353 121.543 88.8888V84.9849C121.543 84.4383 121.069 83.9698 120.438 83.9698C119.806 83.9698 119.332 84.4383 119.332 84.9849Z" fill="#282727"/>
<path d="M128.414 91.0748C128.256 91.0748 128.177 90.9968 128.177 90.8406V85.0628C128.177 84.5162 127.782 83.9697 127.071 83.9697C126.44 83.9697 125.966 84.4381 125.966 84.9847V90.7625C125.966 90.9187 125.887 90.9968 125.729 90.9968H124.623C124.544 90.9968 124.386 90.9187 124.386 90.7625V84.9847C124.386 83.7354 125.492 82.6423 127.071 82.6423C128.809 82.6423 129.836 83.6574 129.836 84.9847V90.7625C129.836 90.9187 129.678 90.9968 129.599 90.9968H128.414V91.0748Z" fill="#282727"/>
<path d="M136.312 88.9668C136.312 90.2942 135.127 91.2311 133.626 91.2311C132.126 91.2311 130.941 90.2942 130.941 88.9668V84.9848C130.941 83.6575 132.047 82.7205 133.469 82.7205C133.863 82.7205 134.337 82.8767 134.732 83.0329V80.222C134.732 80.0659 134.811 79.9878 134.969 79.9878H135.996C136.154 79.9878 136.233 80.0659 136.233 80.222V88.9668H136.312ZM132.521 88.8888C132.521 89.4353 132.995 89.9038 133.626 89.9038C134.258 89.9038 134.732 89.4353 134.732 88.8888V84.9848C134.732 84.4383 134.258 83.9698 133.626 83.9698C132.995 83.9698 132.521 84.4383 132.521 84.9848V88.8888Z" fill="#282727"/>
<path d="M141.287 83.1108C141.287 82.9547 141.366 82.8766 141.524 82.8766H142.63C142.709 82.8766 142.867 82.9547 142.867 83.1108V88.8886C142.867 90.1379 141.84 91.231 140.102 91.231C138.523 91.231 137.417 90.1379 137.417 88.8886V83.1108C137.417 82.9547 137.575 82.8766 137.654 82.8766H138.76C138.918 82.8766 138.997 82.9547 138.997 83.1108V88.8106C138.997 89.4352 139.471 89.9037 140.102 89.9037C140.813 89.9037 141.208 89.4352 141.208 88.8886V83.1108H141.287Z" fill="#282727"/>
<path d="M149.106 88.2642C149.264 88.2642 149.343 88.3422 149.343 88.4984V88.9669C149.343 90.2161 148.237 91.2312 146.736 91.2312C145.236 91.2312 144.051 90.2942 144.051 88.9669V84.9849C144.051 83.7356 145.236 82.7206 146.736 82.7206C148.237 82.7206 149.343 83.7356 149.343 84.9849V85.5314C149.343 85.7656 149.264 85.7656 149.106 85.7656H148.158C148 85.7656 147.842 85.6876 147.842 85.5314V85.0629C147.842 84.5164 147.368 84.0479 146.736 84.0479C146.105 84.0479 145.631 84.5164 145.631 85.0629V88.9669C145.631 89.5134 146.105 89.9819 146.736 89.9819C147.368 89.9819 147.842 89.5134 147.842 88.9669V88.5765C147.842 88.3422 147.921 88.3422 148.079 88.3422H149.106V88.2642Z" fill="#282727"/>
<path d="M152.739 91.0748C151.554 91.0748 150.764 90.5283 150.764 89.1229V84.1258H150.132C150.053 84.1258 149.895 84.0478 149.895 83.8916V83.1108C149.895 82.9547 150.053 82.8766 150.132 82.8766H150.764V81.5492C150.764 81.3931 150.843 81.315 151.001 81.2369L152.028 81.0027C152.186 81.0027 152.344 81.0808 152.344 81.2369V82.8766H153.449C153.528 82.8766 153.686 82.9547 153.686 83.1108V83.8916C153.686 84.0478 153.607 84.1258 153.449 84.1258H152.423V88.9667C152.423 89.4352 152.66 89.7475 153.212 89.7475H153.449C153.686 89.7475 153.686 89.9037 153.686 89.9817V90.8406C153.686 90.9187 153.686 91.0748 153.291 91.0748H152.739Z" fill="#282727"/>
<path d="M159.846 88.9669C159.846 90.2942 158.662 91.2312 157.161 91.2312C155.661 91.2312 154.476 90.2942 154.476 88.9669V84.9849C154.476 83.7356 155.661 82.7206 157.161 82.7206C158.662 82.7206 159.846 83.6575 159.846 84.9849V88.9669ZM156.055 84.9849V88.8888C156.055 89.4353 156.529 89.9038 157.161 89.9038C157.793 89.9038 158.267 89.4353 158.267 88.8888V84.9849C158.267 84.4383 157.793 83.9698 157.161 83.9698C156.529 83.9698 156.055 84.4383 156.055 84.9849Z" fill="#282727"/>
<path d="M164.901 83.7354C164.901 83.9697 164.743 83.9697 164.506 83.9697C164.269 83.9697 164.111 83.9697 163.953 83.9697C163.084 83.9697 162.531 84.5943 162.531 85.3751V90.6844C162.531 90.9187 162.373 90.9968 162.216 90.9968H161.189C161.031 90.9968 160.952 90.9187 160.952 90.7625V85.2189C160.952 83.4231 162.452 82.6423 163.716 82.6423C164.111 82.6423 164.427 82.6423 164.664 82.7204C164.822 82.7204 164.901 82.8766 164.901 82.9546V83.7354Z" fill="#282727"/>
<path d="M172.877 83.7354C172.877 83.9697 172.719 83.9697 172.482 83.9697C172.245 83.9697 172.087 83.9697 171.93 83.9697C171.061 83.9697 170.508 84.5943 170.508 85.3751V90.6844C170.508 90.9187 170.35 90.9968 170.192 90.9968H169.165C169.007 90.9968 168.928 90.9187 168.928 90.7625V85.2189C168.928 83.4231 170.429 82.6423 171.693 82.6423C172.087 82.6423 172.403 82.6423 172.64 82.7204C172.798 82.7204 172.877 82.8766 172.877 82.9546V83.7354Z" fill="#282727"/>
<path d="M178.563 88.9669C178.563 90.2161 177.537 91.2312 176.036 91.2312C174.536 91.2312 173.351 90.2161 173.351 88.9669V84.9849C173.351 83.7356 174.536 82.7206 176.036 82.7206C177.537 82.7206 178.642 83.7356 178.642 84.9849V87.0149C178.642 87.1711 178.563 87.2491 178.405 87.2491H174.931V88.9669C174.931 89.5134 175.404 89.9819 176.036 89.9819C176.668 89.9819 177.142 89.5134 177.142 88.9669V88.6546C177.142 88.4984 177.221 88.4984 177.379 88.4984H178.405C178.484 88.4984 178.642 88.4984 178.642 88.7326V88.9669H178.563ZM174.931 84.9849V86.2341H177.142V84.9849C177.142 84.4383 176.668 83.9698 176.036 83.9698C175.404 83.9698 174.931 84.4383 174.931 84.9849Z" fill="#282727"/>
<path d="M183.223 84.9066C183.223 84.3601 182.749 83.8916 182.117 83.8916C181.486 83.8916 181.091 84.3601 181.091 84.9066C181.091 85.5312 181.486 85.6874 182.591 86.312C183.697 86.9367 184.803 87.7174 184.803 88.8886C184.803 90.216 183.697 91.1529 182.117 91.1529C180.064 91.1529 179.432 90.0598 179.432 88.8886V88.7325C179.432 88.5763 179.59 88.4982 179.748 88.4982H180.696C180.854 88.4982 180.933 88.5763 180.933 88.7325V88.9667C180.933 89.5133 181.407 89.9037 182.038 89.9037C182.67 89.9037 183.144 89.4352 183.144 88.8886C183.144 88.264 182.275 87.8736 181.091 87.1709C180.222 86.6243 179.432 85.9997 179.432 84.9066C179.432 83.6574 180.459 82.6423 181.959 82.6423C183.539 82.6423 184.566 83.5793 184.566 84.9066V85.1409C184.566 85.297 184.487 85.297 184.25 85.297H183.381C183.223 85.297 183.144 85.2189 183.144 85.0628V84.9066H183.223Z" fill="#282727"/>
<path d="M190.884 88.9669C190.884 90.2161 189.857 91.2312 188.356 91.2312C186.856 91.2312 185.671 90.2161 185.671 88.9669V84.9849C185.671 83.7356 186.856 82.7206 188.356 82.7206C189.857 82.7206 190.963 83.7356 190.963 84.9849V87.0149C190.963 87.1711 190.884 87.2491 190.726 87.2491H187.33V88.9669C187.33 89.5134 187.804 89.9819 188.435 89.9819C189.067 89.9819 189.541 89.5134 189.541 88.9669V88.6546C189.541 88.4984 189.62 88.4984 189.778 88.4984H190.805C190.884 88.4984 191.042 88.4984 191.042 88.7326V88.9669H190.884ZM187.251 84.9849V86.2341H189.462V84.9849C189.462 84.4383 188.988 83.9698 188.356 83.9698C187.725 83.9698 187.251 84.4383 187.251 84.9849Z" fill="#282727"/>
<path d="M195.701 86.0779V85.1409C195.701 84.5944 195.306 83.8917 194.359 83.8917C193.569 83.8917 193.174 84.1259 192.858 84.4382C192.779 84.5163 192.7 84.5163 192.621 84.5163C192.542 84.5163 192.463 84.5163 192.463 84.4382L192.147 83.8917C192.068 83.7355 192.068 83.6575 192.305 83.5013C192.858 83.189 193.411 82.7986 194.596 82.7986C196.096 82.7986 197.281 83.7355 197.281 85.1409V88.9668C197.281 90.7626 195.464 91.2311 194.596 91.2311C193.332 91.2311 191.752 90.5284 191.752 88.7326V88.5764C191.752 86.9368 192.937 86.0779 194.517 86.156H195.701V86.0779ZM195.701 87.0929H194.99C193.727 87.0929 193.332 87.7175 193.332 88.4983V88.6545C193.332 89.5914 194.043 89.9037 194.596 89.9037C195.069 89.9037 195.701 89.5914 195.701 88.8106V87.0929Z" fill="#282727"/>
<path d="M202.256 83.7354C202.256 83.9697 202.098 83.9697 201.861 83.9697C201.624 83.9697 201.466 83.9697 201.308 83.9697C200.44 83.9697 199.887 84.5943 199.887 85.3751V90.6844C199.887 90.9187 199.729 90.9968 199.571 90.9968H198.544C198.386 90.9968 198.307 90.9187 198.307 90.7625V85.2189C198.307 83.4231 199.808 82.6423 201.072 82.6423C201.466 82.6423 201.782 82.6423 202.019 82.7204C202.177 82.7204 202.256 82.8766 202.256 82.9546V83.7354Z" fill="#282727"/>
<path d="M207.784 88.2642C207.942 88.2642 208.021 88.3422 208.021 88.4984V88.9669C208.021 90.2161 206.916 91.2312 205.415 91.2312C203.915 91.2312 202.73 90.2942 202.73 88.9669V84.9849C202.73 83.7356 203.915 82.7206 205.415 82.7206C206.916 82.7206 208.021 83.7356 208.021 84.9849V85.5314C208.021 85.7656 207.942 85.7656 207.784 85.7656H206.837C206.679 85.7656 206.521 85.6876 206.521 85.5314V85.0629C206.521 84.5164 206.047 84.0479 205.415 84.0479C204.783 84.0479 204.309 84.5164 204.309 85.0629V88.9669C204.309 89.5134 204.783 89.9819 205.415 89.9819C206.047 89.9819 206.521 89.5134 206.521 88.9669V88.5765C206.521 88.3422 206.6 88.3422 206.758 88.3422H207.784V88.2642Z" fill="#282727"/>
<path d="M214.497 90.8407C214.497 90.9969 214.418 91.075 214.26 91.075H213.155C213.076 91.075 212.918 90.9969 212.918 90.8407V84.9848C212.918 84.4383 212.444 83.9698 211.812 83.9698C211.101 83.9698 210.707 84.5164 210.707 85.141V90.7627C210.707 90.9188 210.628 90.9969 210.391 90.9969H209.364C209.206 90.9969 209.127 90.9188 209.127 90.7627V80.222C209.127 80.0659 209.206 79.9878 209.364 79.9878H210.47C210.628 79.9878 210.707 80.0659 210.707 80.222V83.189C211.101 82.8767 211.654 82.7205 212.207 82.7205C213.55 82.7205 214.497 83.6575 214.497 85.0629V90.8407Z" fill="#282727"/>
<defs>
<clipPath id="clip0_136_1971">
<rect width="201.024" height="53.1539" fill="white"/>
</clipPath>
</defs>
</svg>
