<svg width="256" height="154" viewBox="0 0 256 154" fill="none" xmlns="http://www.w3.org/2000/svg">
<g clip-path="url(#clip0_221_10351)">
<path d="M22.2656 130.259V131.97C22.2656 132.077 22.158 132.291 22.0504 132.291H20.6521C20.437 132.291 20.3294 132.184 20.3294 131.97V130.473C20.3294 129.297 20.0067 128.548 18.716 128.441V131.97C18.716 132.184 18.6084 132.184 18.5009 132.184H16.995C16.7798 132.184 16.7798 132.077 16.7798 131.97V123.201C16.7798 122.987 16.8874 122.987 16.995 122.987H18.5009C18.716 122.987 18.716 123.094 18.716 123.201V126.73C19.8992 126.623 20.3294 125.874 20.3294 124.698V123.201C20.3294 122.987 20.5446 122.88 20.6521 122.88H22.0504C22.2656 122.88 22.2656 123.094 22.2656 123.201V124.912C22.2656 126.088 21.8353 126.944 21.0824 127.478C21.8353 128.12 22.2656 129.083 22.2656 130.259Z" fill="#282829"/>
<path d="M24.9538 128.226C24.9538 128.44 24.8463 128.44 24.7388 128.44H23.3411C23.2336 128.44 23.126 128.44 23.126 128.226V127.157C23.126 126.943 23.2336 126.943 23.3411 126.943H24.7388C24.9538 126.943 24.9538 127.05 24.9538 127.157V128.226Z" fill="#282829"/>
<path d="M31.0857 125.874C31.0857 126.087 31.0857 126.194 30.8706 126.194H29.4723C29.2572 126.194 29.2572 126.087 29.2572 125.874V125.232C29.2572 124.804 28.9345 124.376 28.5042 124.376C28.074 124.376 27.7513 124.697 27.7513 125.125V129.831C27.7513 130.258 28.074 130.686 28.5042 130.686C29.042 130.686 29.2572 130.258 29.2572 129.831V129.082C29.2572 128.868 29.2572 128.868 29.4723 128.868H30.8706C31.0857 128.868 31.0857 128.868 31.0857 129.082V130.044C31.0857 131.542 29.9025 132.397 28.3967 132.397C26.8908 132.397 25.7076 131.542 25.7076 130.044V125.125C25.7076 123.842 26.8908 122.772 28.3967 122.772C30.2252 122.772 30.9782 123.949 30.9782 125.125V125.874H31.0857Z" fill="#282829"/>
<path d="M37.2168 122.986C37.3244 122.986 37.4319 123.093 37.4319 123.2V131.969C37.4319 132.183 37.3244 132.183 37.2168 132.183H35.8185C35.6034 132.183 35.6034 132.076 35.6034 131.969V128.333H33.9899V131.969C33.9899 132.183 33.8823 132.183 33.7748 132.183H32.2689C32.0538 132.183 32.0538 132.076 32.0538 131.969V123.2C32.0538 122.986 32.1613 122.986 32.2689 122.986H33.7748C33.9899 122.986 33.9899 123.093 33.9899 123.2V126.622H35.4958V123.2C35.4958 123.093 35.6034 122.986 35.7109 122.986H37.2168Z" fill="#282829"/>
<path d="M40.4429 131.969C40.4429 132.183 40.3354 132.183 40.2279 132.183H38.7226C38.5076 132.183 38.5076 132.076 38.5076 131.969V123.2C38.5076 122.986 38.6151 122.986 38.7226 122.986H40.2279C40.4429 122.986 40.4429 123.093 40.4429 123.2V131.969Z" fill="#282829"/>
<path d="M41.5193 123.2C41.5193 122.986 41.6269 122.986 41.7345 122.986H44.316C45.8219 122.986 47.0051 124.056 47.0051 125.446V127.585C47.0051 128.975 45.8219 130.044 44.316 130.044H43.4555V132.076C43.4555 132.29 43.3479 132.29 43.2404 132.29H41.7345C41.5193 132.29 41.5193 132.183 41.5193 132.076V123.2ZM45.0689 125.446C45.0689 124.911 44.7462 124.59 44.2084 124.59H43.4555V128.333H44.2084C44.7462 128.333 45.0689 128.012 45.0689 127.585V125.446Z" fill="#282829"/>
<path d="M50.8773 125.232C50.8773 124.805 50.6622 124.377 50.1244 124.377C49.8017 124.377 49.3714 124.591 49.3714 125.232C49.3714 125.874 49.8017 126.195 50.4471 126.623C51.8454 127.585 52.921 128.334 52.921 130.045C52.921 131.328 51.8454 132.398 50.2319 132.398C48.5109 132.398 47.5429 131.221 47.5429 129.938V129.617C47.5429 129.403 47.5429 129.296 47.758 129.296H49.0487C49.2639 129.296 49.2639 129.403 49.2639 129.617V129.938C49.2639 130.58 49.6941 130.794 50.1244 130.794C50.5546 130.794 50.9849 130.473 50.9849 130.045C50.9849 129.403 50.5546 129.082 49.6941 128.441C48.1882 127.264 47.4353 126.837 47.4353 125.339C47.4353 123.628 49.0487 122.88 50.0168 122.88C51.5227 122.88 52.5983 123.842 52.5983 125.339V125.767C52.5983 125.981 52.5983 125.981 52.2756 125.981H50.9849C50.7698 125.981 50.7698 125.874 50.7698 125.767V125.232H50.8773Z" fill="#282829"/>
<path d="M255.893 0.107666H0.107971V153.894H255.893V0.107666Z" fill="white" stroke="#010101" stroke-width="0.25" stroke-miterlimit="10" stroke-linecap="round" stroke-linejoin="round"/>
<path d="M19.5753 138.065C19.6828 138.065 19.6828 138.172 19.6828 138.172V139.242C19.6828 140.097 19.3603 140.739 18.6077 141.06C19.2528 141.38 19.6828 142.022 19.6828 142.878V143.84C19.6828 143.947 19.6828 143.947 19.5753 143.947H19.3603C19.2528 143.947 19.2528 143.947 19.2528 143.84V142.878C19.2528 141.915 18.8227 141.274 17.64 141.274H17.3174V143.84C17.3174 143.947 17.3174 143.947 17.2099 143.947H16.8874C16.7798 143.947 16.7798 143.84 16.7798 143.84V138.172C16.7798 138.065 16.7798 138.065 16.8874 138.065H17.2099C17.3174 138.065 17.3174 138.172 17.3174 138.172V140.846H17.64C18.8227 140.846 19.2528 140.204 19.2528 139.242V138.172C19.2528 138.065 19.3603 138.065 19.3603 138.065H19.5753Z" fill="#282829"/>
<path d="M23.0174 142.985C23.0174 143.626 22.4799 144.161 21.7272 144.161C20.9746 144.161 20.437 143.626 20.437 142.985V140.632C20.437 139.99 20.9746 139.456 21.7272 139.456C22.4799 139.456 23.0174 139.99 23.0174 140.632V142.985ZM20.9746 140.632V142.985C20.9746 143.413 21.2972 143.733 21.7272 143.733C22.1573 143.733 22.4799 143.413 22.4799 142.985V140.632C22.4799 140.204 22.1573 139.883 21.7272 139.883C21.2972 139.883 20.9746 140.204 20.9746 140.632Z" fill="#282829"/>
<path d="M25.7068 139.776C25.7068 139.883 25.5993 139.883 25.4918 139.883C25.3843 139.883 25.2768 139.883 25.1692 139.883C24.6317 139.883 24.3091 140.311 24.3091 140.739V143.84C24.3091 143.947 24.2016 143.947 24.2016 143.947H23.9865C23.9865 143.947 23.879 143.947 23.879 143.84V140.739C23.879 139.883 24.6317 139.456 25.1692 139.456C25.3843 139.456 25.4918 139.456 25.7068 139.456C25.8144 139.456 25.8144 139.563 25.8144 139.563V139.776H25.7068Z" fill="#282829"/>
<path d="M28.6107 142.985C28.6107 143.626 28.0731 144.161 27.428 144.161C26.6754 144.161 26.1378 143.626 26.1378 142.985V140.632C26.1378 139.99 26.6754 139.456 27.428 139.456C28.1807 139.456 28.7183 139.99 28.7183 140.632V141.701C28.7183 141.808 28.7183 141.808 28.6107 141.808H26.6754V142.878C26.6754 143.306 26.998 143.626 27.428 143.626C27.8581 143.626 28.1807 143.306 28.1807 142.878V142.664C28.1807 142.557 28.2882 142.557 28.2882 142.557H28.5032C28.5032 142.557 28.6107 142.557 28.6107 142.664V142.985ZM26.5679 140.632V141.488H28.0731V140.632C28.0731 140.204 27.7506 139.883 27.3205 139.883C26.8904 139.883 26.5679 140.204 26.5679 140.632Z" fill="#282829"/>
<path d="M31.2999 141.381V140.739C31.2999 140.418 31.0849 139.99 30.4398 139.99C30.0097 139.99 29.7947 140.204 29.5796 140.311H29.4721H29.3646L29.2571 140.204C29.2571 140.097 29.2571 140.097 29.3646 139.99C29.5796 139.776 29.9022 139.562 30.4398 139.562C31.1924 139.562 31.73 140.097 31.73 140.739V142.985C31.73 143.84 30.8699 144.161 30.4398 144.161C29.7947 144.161 29.0421 143.84 29.0421 142.878V142.771C29.0421 141.915 29.5796 141.381 30.4398 141.381H31.2999ZM31.2999 141.701H30.7623C29.9022 141.701 29.6872 142.129 29.6872 142.664V142.771C29.6872 143.413 30.2248 143.626 30.5473 143.626C30.8699 143.626 31.2999 143.413 31.2999 142.878V141.701Z" fill="#282829"/>
<path d="M37.3232 139.562C37.3232 139.669 37.3231 139.776 37.2156 139.776H37.0006C36.8931 139.776 36.8931 139.776 36.8931 139.562V139.242C36.8931 138.707 36.463 138.279 35.9254 138.279C35.3878 138.279 34.9578 138.707 34.9578 139.242V142.664C34.9578 143.199 35.3878 143.626 35.9254 143.626C36.463 143.626 36.8931 143.199 36.8931 142.664V142.343C36.8931 142.236 36.8931 142.129 37.0006 142.129H37.2156C37.3231 142.129 37.3232 142.129 37.3232 142.236V142.557C37.3232 143.305 36.678 143.84 35.9254 143.84C35.0653 143.84 34.4202 143.305 34.4202 142.557V139.028C34.4202 138.279 35.0653 137.744 35.9254 137.744C36.7856 137.744 37.3232 138.386 37.3232 139.135V139.562Z" fill="#282829"/>
<path d="M40.6578 142.985C40.6578 143.626 40.1202 144.161 39.3675 144.161C38.6149 144.161 38.0773 143.626 38.0773 142.985V140.632C38.0773 139.99 38.6149 139.456 39.3675 139.456C40.1202 139.456 40.6578 139.99 40.6578 140.632V142.985ZM38.5074 140.632V142.985C38.5074 143.413 38.83 143.733 39.26 143.733C39.6901 143.733 40.0127 143.413 40.0127 142.985V140.632C40.0127 140.204 39.6901 139.883 39.26 139.883C38.83 139.883 38.5074 140.204 38.5074 140.632Z" fill="#282829"/>
<path d="M42.702 143.947C42.702 143.947 42.702 144.054 42.5945 144.054H42.3795C41.8419 144.054 41.5193 143.733 41.5193 143.199V138.172C41.5193 138.065 41.5194 138.065 41.6269 138.065H41.8419C41.9494 138.065 41.9494 138.065 41.9494 138.172V143.199C41.9494 143.412 42.0569 143.626 42.3795 143.626H42.5945C42.702 143.626 42.702 143.733 42.702 143.733V143.947Z" fill="#282829"/>
<path d="M44.5306 143.947C44.5306 143.947 44.5306 144.054 44.4231 144.054H44.1005C43.5629 144.054 43.2404 143.733 43.2404 143.199V138.172C43.2404 138.065 43.2404 138.065 43.3479 138.065H43.5629C43.6704 138.065 43.6704 138.065 43.6704 138.172V143.199C43.6704 143.412 43.7779 143.626 44.1005 143.626H44.3155C44.4231 143.626 44.4231 143.733 44.4231 143.733V143.947H44.5306Z" fill="#282829"/>
<path d="M47.1117 141.381V140.739C47.1117 140.418 46.8967 139.99 46.2516 139.99C45.8215 139.99 45.6065 140.204 45.3914 140.311H45.2839H45.1764V140.097C45.1764 139.99 45.1764 139.99 45.2839 139.883C45.499 139.669 45.8215 139.456 46.3591 139.456C47.1117 139.456 47.6493 139.99 47.6493 140.632V142.878C47.6493 143.733 46.7892 144.054 46.3591 144.054C45.714 144.054 44.9614 143.733 44.9614 142.771V142.664C44.9614 141.808 45.499 141.274 46.3591 141.274H47.1117V141.381ZM47.1117 141.701H46.5741C45.714 141.701 45.499 142.129 45.499 142.664V142.771C45.499 143.413 46.0365 143.626 46.3591 143.626C46.6817 143.626 47.1117 143.413 47.1117 142.878V141.701Z" fill="#282829"/>
<path d="M50.8763 142.985C50.8763 143.626 50.3387 144.161 49.586 144.161C48.8334 144.161 48.2958 143.626 48.2958 142.985V138.172C48.2958 138.065 48.2958 138.065 48.4034 138.065H48.6184C48.7259 138.065 48.7259 138.065 48.7259 138.172V139.776C48.9409 139.562 49.2635 139.455 49.586 139.455C50.3387 139.455 50.8763 139.99 50.8763 140.632V142.985ZM48.7259 142.985C48.7259 143.412 49.0485 143.733 49.4785 143.733C49.9086 143.733 50.2312 143.412 50.2312 142.985V140.632C50.2312 140.204 49.9086 139.883 49.4785 139.883C49.0485 139.883 48.7259 140.204 48.7259 140.525V142.985Z" fill="#282829"/>
<path d="M54.1031 142.985C54.1031 143.626 53.5655 144.161 52.8129 144.161C52.0603 144.161 51.5227 143.626 51.5227 142.985V140.632C51.5227 139.99 52.0603 139.456 52.8129 139.456C53.5655 139.456 54.1031 139.99 54.1031 140.632V142.985ZM52.0603 140.632V142.985C52.0603 143.413 52.3828 143.733 52.8129 143.733C53.243 143.733 53.5655 143.413 53.5655 142.985V140.632C53.5655 140.204 53.243 139.883 52.8129 139.883C52.3828 139.883 52.0603 140.204 52.0603 140.632Z" fill="#282829"/>
<path d="M56.685 139.776C56.685 139.883 56.5775 139.883 56.4699 139.883C56.3624 139.883 56.2549 139.883 56.1474 139.883C55.6098 139.883 55.2873 140.311 55.2873 140.739V143.84C55.2873 143.947 55.1797 143.947 55.1797 143.947H54.9647C54.9647 143.947 54.8572 143.947 54.8572 143.84V140.739C54.8572 139.883 55.6098 139.456 56.1474 139.456C56.3624 139.456 56.4699 139.456 56.685 139.456C56.7925 139.456 56.7925 139.563 56.7925 139.563V139.776H56.685Z" fill="#282829"/>
<path d="M59.0512 141.381V140.739C59.0512 140.418 58.8361 139.99 58.191 139.99C57.7609 139.99 57.5459 140.204 57.3309 140.311H57.2233H57.1158L57.0083 140.204C57.0083 140.097 57.0083 140.097 57.1158 139.99C57.3309 139.776 57.6534 139.562 58.191 139.562C58.9436 139.562 59.4812 140.097 59.4812 140.739V142.985C59.4812 143.84 58.6211 144.161 58.191 144.161C57.5459 144.161 56.7933 143.84 56.7933 142.878V142.771C56.7933 141.915 57.3309 141.381 58.191 141.381H59.0512ZM59.0512 141.701H58.5136C57.6534 141.701 57.4384 142.129 57.4384 142.664V142.771C57.4384 143.413 57.976 143.626 58.2985 143.626C58.6211 143.626 59.0512 143.413 59.0512 142.878V141.701Z" fill="#282829"/>
<path d="M61.4179 144.054C60.8803 144.054 60.5578 143.733 60.5578 143.198V139.99H60.1277C60.1277 139.99 60.0202 139.99 60.0202 139.883V139.669C60.0202 139.562 60.1277 139.562 60.1277 139.562H60.5578V138.814C60.5578 138.707 60.5578 138.707 60.6653 138.707L60.8803 138.6C60.9879 138.6 60.9879 138.6 60.9879 138.707V139.562H61.633C61.633 139.562 61.7405 139.562 61.7405 139.669V139.883C61.7405 139.99 61.7405 139.99 61.633 139.99H60.9879V143.198C60.9879 143.412 61.0954 143.626 61.4179 143.626H61.633C61.7405 143.626 61.7405 143.733 61.7405 143.733V143.947C61.7405 143.947 61.7405 144.054 61.633 144.054H61.4179Z" fill="#282829"/>
<path d="M62.9248 138.921C62.9248 139.028 62.9248 139.028 62.8172 139.028H62.4942C62.3866 139.028 62.3866 139.028 62.3866 138.921V138.6C62.3866 138.493 62.3866 138.493 62.4942 138.493H62.8172C62.9248 138.493 62.9248 138.493 62.9248 138.6V138.921ZM62.3866 139.669C62.3866 139.669 62.3866 139.562 62.4942 139.562H62.7095C62.8172 139.562 62.8172 139.669 62.8172 139.669V143.84C62.8172 143.947 62.8172 143.947 62.7095 143.947H62.4942C62.3866 143.947 62.3866 143.947 62.3866 143.84V139.669Z" fill="#282829"/>
<path d="M64.9674 143.306V142.985L65.8275 139.669C65.8275 139.563 65.935 139.562 65.935 139.562H66.1501C66.2576 139.562 66.2576 139.669 66.2576 139.669L65.0749 143.84C65.0749 143.947 64.9674 143.947 64.9674 143.947H64.6448C64.6448 143.947 64.5373 143.947 64.5373 143.84L63.3546 139.669C63.3546 139.563 63.3546 139.562 63.4621 139.562H63.7847C63.8922 139.562 63.8922 139.563 63.8922 139.669L64.7523 142.985L64.9674 143.306Z" fill="#282829"/>
<path d="M69.2695 142.985C69.2695 143.626 68.732 144.161 68.0868 144.161C67.3342 144.161 66.7966 143.626 66.7966 142.985V140.632C66.7966 139.99 67.3342 139.456 68.0868 139.456C68.8395 139.456 69.3771 139.99 69.3771 140.632V141.701C69.3771 141.808 69.3771 141.808 69.2695 141.808H67.3342V142.878C67.3342 143.306 67.6568 143.626 68.0868 143.626C68.5169 143.626 68.8395 143.306 68.8395 142.878V142.664C68.8395 142.557 68.947 142.557 68.947 142.557H69.162C69.162 142.557 69.2695 142.557 69.2695 142.664V142.985ZM67.2267 140.632V141.488H68.732V140.632C68.732 140.204 68.4094 139.883 67.9793 139.883C67.5493 139.883 67.2267 140.204 67.2267 140.632Z" fill="#282829"/>
<path d="M74.1099 139.99C74.2174 139.99 74.2174 140.097 74.2174 140.097V140.632H74.755C74.8625 140.632 74.8625 140.632 74.8625 140.739V140.846C74.8625 140.953 74.8625 140.953 74.755 140.953H74.2174V142.771C74.2174 143.519 73.6798 144.054 72.9272 144.054C72.1746 144.054 71.637 143.626 71.637 142.771V141.701C71.637 141.167 71.9595 140.846 72.2821 140.739C71.9595 140.525 71.7445 140.204 71.7445 139.776V139.135C71.7445 138.279 72.3896 137.958 73.0347 137.958C73.6798 137.958 74.2174 138.279 74.2174 139.242C74.2174 139.349 74.2174 139.349 74.1099 139.349H73.7873L73.6798 139.242C73.6798 138.6 73.3573 138.386 72.9272 138.386C72.4971 138.386 72.067 138.6 72.067 139.135V139.776C72.067 140.097 72.2821 140.525 72.6046 140.525H73.5723V140.097C73.5723 140.097 73.5723 139.99 73.6798 139.99H74.1099ZM73.7873 141.06H72.8197C72.2821 141.06 72.1746 141.487 72.1746 141.808V142.878C72.1746 143.519 72.6046 143.733 73.0347 143.733C73.4648 143.733 73.8948 143.412 73.8948 142.878V141.06H73.7873Z" fill="#282829"/>
<path d="M80.3483 138.065C80.4558 138.065 80.4559 138.172 80.4559 138.172V143.84C80.4559 143.947 80.4558 143.947 80.3483 143.947H80.0258C79.9183 143.947 79.9183 143.84 79.9183 143.84V141.167H77.8754V143.84C77.8754 143.947 77.8754 143.947 77.7679 143.947H77.4453C77.3378 143.947 77.3378 143.84 77.3378 143.84V138.172C77.3378 138.065 77.3378 138.065 77.4453 138.065H77.7679C77.8754 138.065 77.8754 138.172 77.8754 138.172V140.739H79.9183V138.172C79.9183 138.065 79.9183 138.065 80.0258 138.065H80.3483Z" fill="#282829"/>
<path d="M82.071 138.921C82.071 139.028 82.071 139.028 81.9633 139.028H81.6404C81.5328 139.028 81.5328 139.028 81.5328 138.921V138.6C81.5328 138.493 81.5328 138.493 81.6404 138.493H81.9633C82.071 138.493 82.071 138.493 82.071 138.6V138.921ZM81.5328 139.669C81.5328 139.669 81.5328 139.562 81.6404 139.562H81.8557C81.9633 139.562 81.9633 139.669 81.9633 139.669V143.84C81.9633 143.947 81.9633 143.947 81.8557 143.947H81.6404C81.5328 143.947 81.5328 143.947 81.5328 143.84V139.669Z" fill="#282829"/>
<path d="M84.4363 143.733C85.0815 143.733 85.619 143.947 85.619 144.696V145.337C85.619 145.444 85.619 145.444 85.5115 145.444H85.189C85.0814 145.444 85.0815 145.337 85.0815 145.337V144.696C85.0815 144.268 84.8664 144.161 84.3288 144.161H83.7912C83.2536 144.161 82.9311 143.733 82.9311 143.306C82.9311 142.985 83.1461 142.664 83.2536 142.45C83.0386 142.236 82.9311 142.022 82.9311 141.701V140.739C82.9311 140.097 83.4687 139.562 84.2213 139.562C84.4363 139.562 84.5439 139.563 84.6514 139.669H85.5115C85.619 139.669 85.619 139.669 85.619 139.776V139.99C85.619 139.99 85.619 140.097 85.5115 140.097H85.189C85.2965 140.311 85.404 140.525 85.404 140.846V141.808C85.404 142.45 84.8664 142.985 84.1138 142.985C83.8988 142.985 83.6837 142.985 83.4687 142.878C83.3612 142.985 83.2536 143.199 83.2536 143.413C83.2536 143.626 83.4687 143.947 83.7912 143.947H84.4363V143.733ZM84.8664 140.632C84.8664 140.204 84.5439 139.883 84.1138 139.883C83.6837 139.883 83.3612 140.204 83.3612 140.632V141.701C83.3612 142.129 83.6837 142.45 84.1138 142.45C84.5439 142.45 84.8664 142.129 84.8664 141.701V140.632Z" fill="#282829"/>
<path d="M88.846 143.84C88.846 143.947 88.7385 143.947 88.7385 143.947H88.4159C88.4159 143.947 88.3084 143.947 88.3084 143.84V140.632C88.3084 140.204 87.9859 139.883 87.5558 139.883C87.1257 139.883 86.8032 140.204 86.8032 140.632V143.84C86.8032 143.947 86.8032 143.947 86.6957 143.947H86.4806C86.3731 143.947 86.3731 143.947 86.3731 143.84V138.065C86.3731 137.958 86.3731 137.958 86.4806 137.958H86.6957C86.8032 137.958 86.8032 138.065 86.8032 138.065V139.776C87.0182 139.562 87.3408 139.455 87.6633 139.455C88.3084 139.455 88.846 139.99 88.846 140.632V143.84Z" fill="#282829"/>
<path d="M91.7504 141.061C91.7504 141.168 91.7504 141.168 91.6429 141.168H89.8151C89.8151 141.168 89.7076 141.168 89.7076 141.061V140.846C89.7076 140.739 89.8151 140.739 89.8151 140.739H91.6429C91.7504 140.739 91.7504 140.739 91.7504 140.846V141.061Z" fill="#282829"/>
<path d="M93.4717 144.054C92.9341 144.054 92.6116 143.733 92.6116 143.198V139.99H92.1815C92.1815 139.99 92.074 139.99 92.074 139.883V139.669C92.074 139.562 92.1815 139.562 92.1815 139.562H92.6116V138.814C92.6116 138.707 92.6116 138.707 92.7191 138.707L92.9341 138.6C93.0416 138.6 93.0416 138.6 93.0416 138.707V139.562H93.6867C93.6867 139.562 93.7943 139.562 93.7943 139.669V139.883C93.7943 139.99 93.7943 139.99 93.6867 139.99H93.0416V143.198C93.0416 143.412 93.1492 143.626 93.4717 143.626H93.6867C93.7943 143.626 93.7943 143.733 93.7943 143.733V143.947C93.7943 143.947 93.7943 144.054 93.6867 144.054H93.4717Z" fill="#282829"/>
<path d="M97.0208 142.985C97.0208 143.626 96.4832 144.161 95.8381 144.161C95.0855 144.161 94.5479 143.626 94.5479 142.985V140.632C94.5479 139.99 95.0855 139.456 95.8381 139.456C96.5908 139.456 97.1283 139.99 97.1283 140.632V141.701C97.1283 141.808 97.1283 141.808 97.0208 141.808H95.0855V142.878C95.0855 143.306 95.4081 143.626 95.8381 143.626C96.2682 143.626 96.5908 143.306 96.5908 142.878V142.664C96.5908 142.557 96.6983 142.557 96.6983 142.557H96.9133C96.9133 142.557 97.0208 142.557 97.0208 142.664V142.985ZM94.978 140.632V141.488H96.4832V140.632C96.4832 140.204 96.1607 139.883 95.7306 139.883C95.3005 139.883 94.978 140.204 94.978 140.632Z" fill="#282829"/>
<path d="M100.033 142.557C100.033 142.557 100.14 142.557 100.14 142.664V142.878C100.14 143.519 99.6025 144.054 98.8499 144.054C98.0973 144.054 97.5597 143.519 97.5597 142.878V140.525C97.5597 139.883 98.0973 139.349 98.8499 139.349C99.6025 139.349 100.14 139.883 100.14 140.525V140.739C100.14 140.846 100.033 140.846 100.033 140.846H99.8176C99.7101 140.846 99.7101 140.846 99.7101 140.739V140.525C99.7101 140.097 99.3875 139.776 98.9574 139.776C98.5274 139.776 98.2048 140.097 98.2048 140.525V142.878C98.2048 143.306 98.5274 143.626 98.9574 143.626C99.3875 143.626 99.7101 143.306 99.7101 142.878V142.664C99.7101 142.557 99.8176 142.557 99.8176 142.557H100.033Z" fill="#282829"/>
<path d="M103.475 143.84C103.475 143.947 103.367 143.947 103.367 143.947H103.045C103.045 143.947 102.937 143.947 102.937 143.84V140.632C102.937 140.204 102.614 139.883 102.184 139.883C101.754 139.883 101.432 140.204 101.432 140.632V143.84C101.432 143.947 101.432 143.947 101.324 143.947H101.109C101.002 143.947 101.002 143.947 101.002 143.84V138.065C101.002 137.958 101.002 137.958 101.109 137.958H101.324C101.432 137.958 101.432 138.065 101.432 138.065V139.776C101.647 139.562 101.969 139.455 102.292 139.455C102.937 139.455 103.475 139.99 103.475 140.632V143.84Z" fill="#282829"/>
<path d="M106.81 143.84C106.81 143.947 106.81 143.947 106.703 143.947H106.488C106.38 143.947 106.38 143.84 106.38 143.84V138.172C106.38 138.065 106.38 138.065 106.488 138.065H106.81C106.918 138.065 106.918 138.172 106.918 138.172V143.84H106.81Z" fill="#282829"/>
<path d="M110.036 144.054C110.036 144.054 109.929 144.054 109.929 143.947V140.739C109.929 140.311 109.606 139.99 109.176 139.99C108.746 139.99 108.423 140.311 108.423 140.739V143.947C108.423 144.054 108.316 144.054 108.316 144.054H107.993C107.993 144.054 107.886 144.054 107.886 143.947V140.739C107.886 140.097 108.423 139.562 109.176 139.562C110.036 139.562 110.466 140.097 110.466 140.739V143.947C110.466 144.054 110.359 144.054 110.359 144.054H110.036Z" fill="#282829"/>
<path d="M111.866 138.921C111.866 139.028 111.866 139.028 111.758 139.028H111.435C111.328 139.028 111.328 139.028 111.328 138.921V138.6C111.328 138.493 111.328 138.493 111.435 138.493H111.758C111.866 138.493 111.866 138.493 111.866 138.6V138.921ZM111.328 139.669C111.328 139.669 111.328 139.562 111.435 139.562H111.651C111.758 139.562 111.758 139.669 111.758 139.669V143.84C111.758 143.947 111.758 143.947 111.651 143.947H111.435C111.328 143.947 111.328 143.947 111.328 143.84V139.669Z" fill="#282829"/>
<path d="M113.694 144.054C113.156 144.054 112.833 143.733 112.833 143.198V139.99H112.403C112.403 139.99 112.296 139.99 112.296 139.883V139.669C112.296 139.562 112.403 139.562 112.403 139.562H112.833V138.814C112.833 138.707 112.833 138.707 112.941 138.707L113.156 138.6C113.263 138.6 113.263 138.6 113.263 138.707V139.562H113.909C113.909 139.562 114.016 139.562 114.016 139.669V139.883C114.016 139.99 114.016 139.99 113.909 139.99H113.263V143.198C113.263 143.412 113.371 143.626 113.694 143.626H113.909C114.016 143.626 114.016 143.733 114.016 143.733V143.947C114.016 143.947 114.016 144.054 113.909 144.054H113.694Z" fill="#282829"/>
<path d="M115.308 138.921C115.308 139.028 115.308 139.028 115.2 139.028H114.877C114.77 139.028 114.77 139.028 114.77 138.921V138.6C114.77 138.493 114.77 138.493 114.877 138.493H115.2C115.308 138.493 115.308 138.493 115.308 138.6V138.921ZM114.77 139.669C114.77 139.669 114.77 139.562 114.877 139.562H115.093C115.2 139.562 115.2 139.669 115.2 139.669V143.84C115.2 143.947 115.2 143.947 115.093 143.947H114.877C114.77 143.947 114.77 143.947 114.77 143.84V139.669Z" fill="#282829"/>
<path d="M118.103 141.381V140.739C118.103 140.418 117.888 139.99 117.243 139.99C116.813 139.99 116.598 140.204 116.383 140.311H116.275H116.168V140.097C116.168 139.99 116.168 139.99 116.275 139.883C116.491 139.669 116.813 139.456 117.351 139.456C118.103 139.456 118.641 139.99 118.641 140.632V142.878C118.641 143.733 117.781 144.054 117.351 144.054C116.706 144.054 115.953 143.733 115.953 142.771V142.664C115.953 141.808 116.491 141.274 117.351 141.274H118.103V141.381ZM118.103 141.701H117.566C116.706 141.701 116.491 142.129 116.491 142.664V142.771C116.491 143.413 117.028 143.626 117.351 143.626C117.673 143.626 118.103 143.413 118.103 142.878V141.701Z" fill="#282829"/>
<path d="M120.362 144.054C119.825 144.054 119.502 143.733 119.502 143.198V139.99H119.072C119.072 139.99 118.965 139.99 118.965 139.883V139.669C118.965 139.562 119.072 139.562 119.072 139.562H119.502V138.814C119.502 138.707 119.502 138.707 119.61 138.707L119.825 138.6C119.932 138.6 119.932 138.6 119.932 138.707V139.562H120.577C120.577 139.562 120.685 139.562 120.685 139.669V139.883C120.685 139.99 120.685 139.99 120.577 139.99H119.932V143.198C119.932 143.412 120.04 143.626 120.362 143.626H120.577C120.685 143.626 120.685 143.733 120.685 143.733V143.947C120.685 143.947 120.685 144.054 120.577 144.054H120.362Z" fill="#282829"/>
<path d="M121.869 138.921C121.869 139.028 121.869 139.028 121.762 139.028H121.439C121.331 139.028 121.331 139.028 121.331 138.921V138.6C121.331 138.493 121.331 138.493 121.439 138.493H121.762C121.869 138.493 121.869 138.493 121.869 138.6V138.921ZM121.331 139.669C121.331 139.669 121.331 139.562 121.439 139.562H121.654C121.762 139.562 121.762 139.669 121.762 139.669V143.84C121.762 143.947 121.762 143.947 121.654 143.947H121.439C121.331 143.947 121.331 143.947 121.331 143.84V139.669Z" fill="#282829"/>
<path d="M123.912 143.306V142.985L124.772 139.669C124.772 139.563 124.88 139.562 124.88 139.562H125.095C125.202 139.562 125.202 139.669 125.202 139.669L124.02 143.84C124.02 143.947 123.912 143.947 123.912 143.947H123.697C123.697 143.947 123.589 143.947 123.589 143.84L122.407 139.669C122.407 139.563 122.407 139.562 122.514 139.562H122.837C122.944 139.562 122.944 139.563 122.944 139.669L123.804 142.985L123.912 143.306Z" fill="#282829"/>
<path d="M128.214 142.985C128.214 143.626 127.677 144.161 127.031 144.161C126.279 144.161 125.741 143.626 125.741 142.985V140.632C125.741 139.99 126.279 139.456 127.031 139.456C127.784 139.456 128.322 139.99 128.322 140.632V141.701C128.322 141.808 128.322 141.808 128.214 141.808H126.279V142.878C126.279 143.306 126.601 143.626 127.031 143.626C127.461 143.626 127.784 143.306 127.784 142.878V142.664C127.784 142.557 127.892 142.557 127.892 142.557H128.107C128.107 142.557 128.214 142.557 128.214 142.664V142.985ZM126.171 140.632V141.488H127.677V140.632C127.677 140.204 127.354 139.883 126.924 139.883C126.494 139.883 126.171 140.204 126.171 140.632Z" fill="#282829"/>
<path d="M132.302 139.562C132.302 139.562 132.409 139.562 132.409 139.669V139.883C132.409 139.99 132.302 139.99 132.302 139.99H131.549V143.84C131.549 143.947 131.549 143.947 131.442 143.947H131.119C131.012 143.947 131.012 143.947 131.012 143.84V139.99H130.581C130.474 139.99 130.474 139.99 130.474 139.883V139.669C130.474 139.562 130.581 139.562 130.581 139.562H131.012V139.242C131.012 138.279 131.442 137.958 132.194 137.958C132.302 137.958 132.409 137.958 132.409 138.065V138.279C132.409 138.386 132.302 138.386 132.302 138.386C131.764 138.386 131.549 138.6 131.549 139.242V139.562H132.302Z" fill="#282829"/>
<path d="M135.206 142.985C135.206 143.626 134.668 144.161 133.915 144.161C133.163 144.161 132.625 143.626 132.625 142.985V140.632C132.625 139.99 133.163 139.456 133.915 139.456C134.668 139.456 135.206 139.99 135.206 140.632V142.985ZM133.163 140.632V142.985C133.163 143.413 133.485 143.733 133.915 143.733C134.346 143.733 134.668 143.413 134.668 142.985V140.632C134.668 140.204 134.346 139.883 133.915 139.883C133.485 139.883 133.163 140.204 133.163 140.632Z" fill="#282829"/>
<path d="M137.895 139.776C137.895 139.883 137.788 139.883 137.68 139.883C137.573 139.883 137.465 139.883 137.357 139.883C136.82 139.883 136.497 140.311 136.497 140.739V143.84C136.497 143.947 136.39 143.947 136.39 143.947H136.175C136.175 143.947 136.067 143.947 136.067 143.84V140.739C136.067 139.883 136.82 139.456 137.357 139.456C137.573 139.456 137.68 139.456 137.895 139.456C138.003 139.456 138.003 139.563 138.003 139.563V139.776H137.895Z" fill="#282829"/>
<path d="M140.37 138.172C140.37 138.065 140.37 138.065 140.477 138.065H141.875C142.735 138.065 143.38 138.707 143.38 139.562V140.846C143.38 141.701 142.843 142.236 141.875 142.236H140.907V143.947C140.907 144.054 140.907 144.054 140.8 144.054H140.477C140.37 144.054 140.37 143.947 140.37 143.947V138.172ZM142.843 139.455C142.843 138.921 142.52 138.493 141.875 138.493H140.907V141.701H141.875C142.52 141.701 142.843 141.274 142.843 140.739V139.455Z" fill="#282829"/>
<path d="M145.855 139.776C145.855 139.883 145.747 139.883 145.64 139.883C145.532 139.883 145.425 139.883 145.317 139.883C144.78 139.883 144.457 140.311 144.457 140.739V143.84C144.457 143.947 144.349 143.947 144.349 143.947H144.134C144.134 143.947 144.027 143.947 144.027 143.84V140.739C144.027 139.883 144.78 139.456 145.317 139.456C145.532 139.456 145.64 139.456 145.855 139.456C145.962 139.456 145.962 139.563 145.962 139.563V139.776H145.855Z" fill="#282829"/>
<path d="M148.759 142.985C148.759 143.626 148.221 144.161 147.468 144.161C146.716 144.161 146.178 143.626 146.178 142.985V140.632C146.178 139.99 146.716 139.456 147.468 139.456C148.221 139.456 148.759 139.99 148.759 140.632V142.985ZM146.716 140.632V142.985C146.716 143.413 147.038 143.733 147.468 143.733C147.898 143.733 148.221 143.413 148.221 142.985V140.632C148.221 140.204 147.898 139.883 147.468 139.883C147.038 139.883 146.716 140.204 146.716 140.632Z" fill="#282829"/>
<path d="M151.34 140.632C151.34 140.204 151.018 139.883 150.588 139.883C150.158 139.883 149.835 140.204 149.835 140.632C149.835 141.06 150.05 141.167 150.695 141.488C151.233 141.808 151.878 142.236 151.878 142.878C151.878 143.519 151.34 144.054 150.588 144.054C149.728 144.054 149.297 143.519 149.297 142.878V142.771C149.297 142.664 149.297 142.664 149.405 142.664H149.62C149.728 142.664 149.728 142.664 149.728 142.771V142.878C149.728 143.306 150.05 143.626 150.48 143.626C150.91 143.626 151.233 143.306 151.233 142.878C151.233 142.45 150.803 142.236 150.158 141.808C149.728 141.488 149.297 141.167 149.297 140.632C149.297 139.99 149.835 139.456 150.48 139.456C151.233 139.456 151.77 139.99 151.77 140.632V140.739C151.77 140.846 151.77 140.846 151.663 140.846H151.448C151.34 140.846 151.34 140.846 151.34 140.739V140.632Z" fill="#282829"/>
<path d="M155.105 142.985C155.105 143.626 154.567 144.161 153.815 144.161C153.492 144.161 153.169 144.054 152.954 143.84V145.338C152.954 145.444 152.954 145.444 152.847 145.444H152.632C152.524 145.444 152.524 145.338 152.524 145.338V140.632C152.524 139.99 153.062 139.456 153.815 139.456C154.567 139.456 155.105 139.99 155.105 140.632V142.985ZM153.062 142.985C153.062 143.413 153.385 143.733 153.815 143.733C154.245 143.733 154.567 143.413 154.567 142.985V140.632C154.567 140.204 154.245 139.883 153.815 139.883C153.385 139.883 153.062 140.204 153.062 140.632V142.985Z" fill="#282829"/>
<path d="M158.332 142.985C158.332 143.626 157.794 144.161 157.149 144.161C156.396 144.161 155.859 143.626 155.859 142.985V140.632C155.859 139.99 156.396 139.456 157.149 139.456C157.902 139.456 158.439 139.99 158.439 140.632V141.701C158.439 141.808 158.439 141.808 158.332 141.808H156.396V142.878C156.396 143.306 156.719 143.626 157.149 143.626C157.579 143.626 157.902 143.306 157.902 142.878V142.664C157.902 142.557 158.009 142.557 158.009 142.557H158.224C158.224 142.557 158.332 142.557 158.332 142.664V142.985ZM156.289 140.632V141.488H157.794V140.632C157.794 140.204 157.472 139.883 157.042 139.883C156.611 139.883 156.289 140.204 156.289 140.632Z" fill="#282829"/>
<path d="M161.344 142.557C161.344 142.557 161.451 142.557 161.451 142.664V142.878C161.451 143.519 160.913 144.054 160.161 144.054C159.408 144.054 158.871 143.519 158.871 142.878V140.525C158.871 139.883 159.408 139.349 160.161 139.349C160.913 139.349 161.451 139.883 161.451 140.525V140.739C161.451 140.846 161.344 140.846 161.344 140.846H161.128C161.021 140.846 161.021 140.846 161.021 140.739V140.525C161.021 140.097 160.698 139.776 160.268 139.776C159.838 139.776 159.516 140.097 159.516 140.525V142.878C159.516 143.306 159.838 143.626 160.268 143.626C160.698 143.626 161.021 143.306 161.021 142.878V142.664C161.021 142.557 161.128 142.557 161.128 142.557H161.344Z" fill="#282829"/>
<path d="M163.173 144.054C162.635 144.054 162.312 143.733 162.312 143.198V139.99H161.882C161.882 139.99 161.775 139.99 161.775 139.883V139.669C161.775 139.562 161.882 139.562 161.882 139.562H162.312V138.814C162.312 138.707 162.312 138.707 162.42 138.707L162.635 138.6C162.742 138.6 162.742 138.6 162.742 138.707V139.562H163.388C163.388 139.562 163.495 139.562 163.495 139.669V139.883C163.495 139.99 163.495 139.99 163.388 139.99H162.742V143.198C162.742 143.412 162.85 143.626 163.173 143.626H163.388C163.495 143.626 163.495 143.733 163.495 143.733V143.947C163.495 143.947 163.495 144.054 163.388 144.054H163.173Z" fill="#282829"/>
<path d="M164.787 138.921C164.787 139.028 164.787 139.028 164.679 139.028H164.356C164.249 139.028 164.249 139.028 164.249 138.921V138.6C164.249 138.493 164.249 138.493 164.356 138.493H164.679C164.787 138.493 164.787 138.493 164.787 138.6V138.921ZM164.249 139.669C164.249 139.669 164.249 139.562 164.356 139.562H164.572C164.679 139.562 164.679 139.669 164.679 139.669V143.84C164.679 143.947 164.679 143.947 164.572 143.947H164.356C164.249 143.947 164.249 143.947 164.249 143.84V139.669Z" fill="#282829"/>
<path d="M166.722 143.306V142.985L167.582 139.669C167.582 139.563 167.69 139.562 167.69 139.562H167.905C168.012 139.562 168.012 139.669 168.012 139.669L166.83 143.84C166.83 143.947 166.722 143.947 166.722 143.947H166.399C166.399 143.947 166.292 143.947 166.292 143.84L165.109 139.669C165.109 139.563 165.109 139.562 165.217 139.562H165.432C165.539 139.562 165.539 139.563 165.539 139.669L166.399 142.985L166.722 143.306Z" fill="#282829"/>
<path d="M171.024 142.985C171.024 143.626 170.487 144.161 169.841 144.161C169.089 144.161 168.551 143.626 168.551 142.985V140.632C168.551 139.99 169.089 139.456 169.841 139.456C170.594 139.456 171.132 139.99 171.132 140.632V141.701C171.132 141.808 171.132 141.808 171.024 141.808H169.089V142.878C169.089 143.306 169.411 143.626 169.841 143.626C170.272 143.626 170.594 143.306 170.594 142.878V142.664C170.594 142.557 170.702 142.557 170.702 142.557H170.917C170.917 142.557 171.024 142.557 171.024 142.664V142.985ZM169.089 140.632V141.488H170.594V140.632C170.594 140.204 170.272 139.883 169.841 139.883C169.411 139.883 169.089 140.204 169.089 140.632Z" fill="#282829"/>
<path d="M175.972 139.242C175.972 138.814 175.649 138.28 175.004 138.28C174.682 138.28 174.037 138.493 174.037 139.242C174.037 139.884 174.682 140.205 175.004 140.525C175.972 141.274 176.51 141.595 176.51 142.664C176.51 143.306 175.865 143.948 175.004 143.948C174.252 143.948 173.499 143.413 173.499 142.557V142.343C173.499 142.237 173.499 142.237 173.607 142.237H173.822C173.929 142.237 173.929 142.237 173.929 142.343V142.557C173.929 143.306 174.467 143.52 174.897 143.52C175.434 143.52 175.865 143.092 175.865 142.664C175.865 141.916 175.542 141.702 174.682 141.06C174.037 140.525 173.392 140.205 173.392 139.349C173.392 138.173 174.467 137.852 174.897 137.852C175.757 137.852 176.295 138.493 176.295 139.242V139.456C176.295 139.563 176.295 139.563 176.187 139.563H175.972C175.865 139.563 175.865 139.456 175.865 139.456V139.242H175.972Z" fill="#282829"/>
<path d="M179.737 142.985C179.737 143.626 179.199 144.161 178.554 144.161C177.801 144.161 177.264 143.626 177.264 142.985V140.632C177.264 139.99 177.801 139.456 178.554 139.456C179.307 139.456 179.844 139.99 179.844 140.632V141.701C179.844 141.808 179.844 141.808 179.737 141.808H177.801V142.878C177.801 143.306 178.124 143.626 178.554 143.626C178.984 143.626 179.307 143.306 179.307 142.878V142.664C179.307 142.557 179.414 142.557 179.414 142.557H179.629C179.629 142.557 179.737 142.557 179.737 142.664V142.985ZM177.694 140.632V141.488H179.199V140.632C179.199 140.204 178.877 139.883 178.447 139.883C178.016 139.883 177.694 140.204 177.694 140.632Z" fill="#282829"/>
<path d="M184.686 140.739C184.686 140.097 184.148 139.99 183.933 139.883H183.825C183.503 139.883 183.072 139.99 183.072 140.739V143.84C183.072 143.84 183.072 143.947 182.965 143.947H182.642C182.534 143.947 182.534 143.947 182.534 143.84V140.739C182.534 139.99 181.997 139.883 181.674 139.883C181.351 139.883 181.029 139.99 180.921 140.739V143.84C180.921 143.84 180.921 143.947 180.813 143.947H180.491C180.383 143.947 180.383 143.84 180.383 143.84V140.739C180.383 139.776 181.136 139.456 181.566 139.456C181.889 139.456 182.427 139.563 182.642 139.99C182.857 139.563 183.287 139.456 183.61 139.456C184.471 139.456 184.901 139.99 184.901 140.739V143.84C184.901 143.84 184.901 143.947 184.793 143.947H184.471C184.363 143.947 184.363 143.947 184.363 143.84V140.739H184.686Z" fill="#282829"/>
<path d="M186.622 138.921C186.622 139.028 186.622 139.028 186.515 139.028H186.084C185.976 139.028 185.976 139.028 185.976 138.921V138.6C185.976 138.493 185.976 138.493 186.084 138.493H186.407C186.515 138.493 186.515 138.493 186.515 138.6V138.921H186.622ZM185.976 139.669C185.976 139.669 185.976 139.562 186.084 139.562H186.299C186.407 139.562 186.407 139.669 186.407 139.669V143.84C186.407 143.947 186.407 143.947 186.299 143.947H186.084C185.976 143.947 185.976 143.947 185.976 143.84V139.669Z" fill="#282829"/>
<path d="M189.74 142.557C189.74 142.557 189.848 142.557 189.848 142.664V142.878C189.848 143.519 189.31 144.054 188.557 144.054C187.805 144.054 187.267 143.519 187.267 142.878V140.525C187.267 139.883 187.805 139.349 188.557 139.349C189.31 139.349 189.848 139.883 189.848 140.525V140.739C189.848 140.846 189.74 140.846 189.74 140.846H189.525C189.418 140.846 189.418 140.846 189.418 140.739V140.525C189.418 140.097 189.095 139.776 188.665 139.776C188.235 139.776 187.912 140.097 187.912 140.525V142.878C187.912 143.306 188.235 143.626 188.665 143.626C189.095 143.626 189.418 143.306 189.418 142.878V142.664C189.418 142.557 189.525 142.557 189.525 142.557H189.74Z" fill="#282829"/>
<path d="M192.967 142.985C192.967 143.626 192.429 144.161 191.677 144.161C190.924 144.161 190.387 143.626 190.387 142.985V140.632C190.387 139.99 190.924 139.456 191.677 139.456C192.429 139.456 192.967 139.99 192.967 140.632V142.985ZM190.924 140.632V142.985C190.924 143.413 191.247 143.733 191.677 143.733C192.107 143.733 192.429 143.413 192.429 142.985V140.632C192.429 140.204 192.107 139.883 191.677 139.883C191.247 139.883 190.924 140.204 190.924 140.632Z" fill="#282829"/>
<path d="M195.979 144.054C195.979 144.054 195.871 144.054 195.871 143.947V140.739C195.871 140.311 195.549 139.99 195.119 139.99C194.689 139.99 194.366 140.311 194.366 140.739V143.947C194.366 144.054 194.259 144.054 194.259 144.054H193.936C193.936 144.054 193.829 144.054 193.829 143.947V140.739C193.829 140.097 194.366 139.562 195.119 139.562C195.979 139.562 196.409 140.097 196.409 140.739V143.947C196.409 144.054 196.301 144.054 196.301 144.054H195.979Z" fill="#282829"/>
<path d="M199.636 142.985C199.636 143.626 199.098 144.161 198.346 144.161C197.593 144.161 197.055 143.626 197.055 142.985V140.632C197.055 139.99 197.593 139.455 198.346 139.455C198.668 139.455 198.991 139.562 199.206 139.776V138.172C199.206 138.065 199.206 138.065 199.313 138.065H199.528C199.636 138.065 199.636 138.065 199.636 138.172V142.985ZM197.593 142.985C197.593 143.412 197.916 143.733 198.346 143.733C198.776 143.733 199.098 143.412 199.098 142.985V140.632C199.098 140.204 198.776 139.99 198.346 139.99C197.916 139.99 197.593 140.311 197.593 140.739V142.985Z" fill="#282829"/>
<path d="M202.54 139.669C202.54 139.563 202.648 139.562 202.648 139.562H202.97C202.97 139.562 203.078 139.563 203.078 139.669V142.878C203.078 143.519 202.648 144.054 201.788 144.054C201.035 144.054 200.497 143.519 200.497 142.878V139.669C200.497 139.563 200.605 139.562 200.605 139.562H200.928C200.928 139.562 201.035 139.563 201.035 139.669V142.878C201.035 143.306 201.358 143.626 201.788 143.626C202.325 143.626 202.54 143.306 202.54 142.878V139.669Z" fill="#282829"/>
<path d="M206.197 142.557C206.197 142.557 206.305 142.557 206.305 142.664V142.878C206.305 143.519 205.767 144.054 205.015 144.054C204.262 144.054 203.724 143.519 203.724 142.878V140.525C203.724 139.883 204.262 139.349 205.015 139.349C205.767 139.349 206.305 139.883 206.305 140.525V140.739C206.305 140.846 206.197 140.846 206.197 140.846H205.982C205.875 140.846 205.875 140.846 205.875 140.739V140.525C205.875 140.097 205.552 139.776 205.122 139.776C204.692 139.776 204.37 140.097 204.37 140.525V142.878C204.37 143.306 204.692 143.626 205.122 143.626C205.552 143.626 205.875 143.306 205.875 142.878V142.664C205.875 142.557 205.982 142.557 205.982 142.557H206.197Z" fill="#282829"/>
<path d="M208.026 144.054C207.489 144.054 207.166 143.733 207.166 143.198V139.99H206.736C206.736 139.99 206.629 139.99 206.629 139.883V139.669C206.629 139.562 206.736 139.562 206.736 139.562H207.166V138.814C207.166 138.707 207.166 138.707 207.274 138.707L207.489 138.6C207.596 138.6 207.596 138.6 207.596 138.707V139.562H208.241C208.241 139.562 208.349 139.562 208.349 139.669V139.883C208.349 139.99 208.349 139.99 208.241 139.99H207.596V143.198C207.596 143.412 207.704 143.626 208.026 143.626H208.241C208.349 143.626 208.349 143.733 208.349 143.733V143.947C208.349 143.947 208.349 144.054 208.241 144.054H208.026Z" fill="#282829"/>
<path d="M211.575 142.985C211.575 143.626 211.038 144.161 210.285 144.161C209.533 144.161 208.995 143.626 208.995 142.985V140.632C208.995 139.99 209.533 139.456 210.285 139.456C211.038 139.456 211.575 139.99 211.575 140.632V142.985ZM209.425 140.632V142.985C209.425 143.413 209.748 143.733 210.178 143.733C210.608 143.733 210.93 143.413 210.93 142.985V140.632C210.93 140.204 210.608 139.883 210.178 139.883C209.855 139.883 209.425 140.204 209.425 140.632Z" fill="#282829"/>
<path d="M214.157 139.776C214.157 139.883 214.05 139.883 213.942 139.883C213.835 139.883 213.727 139.883 213.62 139.883C213.082 139.883 212.759 140.311 212.759 140.739V143.84C212.759 143.947 212.652 143.947 212.652 143.947H212.437C212.437 143.947 212.329 143.947 212.329 143.84V140.739C212.329 139.883 213.082 139.456 213.62 139.456C213.835 139.456 213.942 139.456 214.157 139.456C214.265 139.456 214.265 139.563 214.265 139.563V139.776H214.157Z" fill="#282829"/>
<path d="M218.352 139.776C218.352 139.883 218.245 139.883 218.137 139.883C218.03 139.883 217.922 139.883 217.815 139.883C217.277 139.883 216.954 140.311 216.954 140.739V143.84C216.954 143.947 216.847 143.947 216.847 143.947H216.632C216.632 143.947 216.524 143.947 216.524 143.84V140.739C216.524 139.883 217.277 139.456 217.815 139.456C218.03 139.456 218.137 139.456 218.352 139.456C218.46 139.456 218.46 139.563 218.46 139.563V139.776H218.352Z" fill="#282829"/>
<path d="M221.149 142.985C221.149 143.626 220.611 144.161 219.966 144.161C219.213 144.161 218.676 143.626 218.676 142.985V140.632C218.676 139.99 219.213 139.456 219.966 139.456C220.718 139.456 221.256 139.99 221.256 140.632V141.701C221.256 141.808 221.256 141.808 221.149 141.808H219.213V142.878C219.213 143.306 219.536 143.626 219.966 143.626C220.396 143.626 220.718 143.306 220.718 142.878V142.664C220.718 142.557 220.826 142.557 220.826 142.557H221.041C221.041 142.557 221.149 142.557 221.149 142.664V142.985ZM219.213 140.632V141.488H220.718V140.632C220.718 140.204 220.396 139.883 219.966 139.883C219.536 139.883 219.213 140.204 219.213 140.632Z" fill="#282829"/>
<path d="M223.73 140.632C223.73 140.204 223.408 139.883 222.978 139.883C222.548 139.883 222.225 140.204 222.225 140.632C222.225 141.06 222.44 141.167 223.085 141.488C223.623 141.808 224.268 142.236 224.268 142.878C224.268 143.519 223.73 144.054 222.978 144.054C222.117 144.054 221.687 143.519 221.687 142.878V142.771C221.687 142.664 221.687 142.664 221.795 142.664H222.01C222.117 142.664 222.117 142.664 222.117 142.771V142.878C222.117 143.306 222.44 143.626 222.87 143.626C223.3 143.626 223.623 143.306 223.623 142.878C223.623 142.45 223.193 142.236 222.548 141.808C222.117 141.488 221.687 141.167 221.687 140.632C221.687 139.99 222.225 139.456 222.87 139.456C223.623 139.456 224.16 139.99 224.16 140.632V140.739C224.16 140.846 224.16 140.846 224.053 140.846H223.838C223.73 140.846 223.73 140.846 223.73 140.739V140.632Z" fill="#282829"/>
<path d="M227.387 142.985C227.387 143.626 226.85 144.161 226.205 144.161C225.452 144.161 224.914 143.626 224.914 142.985V140.632C224.914 139.99 225.452 139.456 226.205 139.456C226.957 139.456 227.495 139.99 227.495 140.632V141.701C227.495 141.808 227.495 141.808 227.387 141.808H225.452V142.878C225.452 143.306 225.774 143.626 226.205 143.626C226.635 143.626 226.957 143.306 226.957 142.878V142.664C226.957 142.557 227.065 142.557 227.065 142.557H227.28C227.28 142.557 227.387 142.557 227.387 142.664V142.985ZM225.344 140.632V141.488H226.85V140.632C226.85 140.204 226.527 139.883 226.097 139.883C225.774 139.883 225.344 140.204 225.344 140.632Z" fill="#282829"/>
<path d="M230.076 141.381V140.739C230.076 140.418 229.861 139.99 229.216 139.99C228.786 139.99 228.571 140.204 228.356 140.311H228.249H228.141L228.034 140.204C228.034 140.097 228.034 140.097 228.141 139.99C228.356 139.776 228.679 139.562 229.216 139.562C229.969 139.562 230.506 140.097 230.506 140.739V142.985C230.506 143.84 229.646 144.161 229.216 144.161C228.571 144.161 227.818 143.84 227.818 142.878V142.771C227.818 141.915 228.356 141.381 229.216 141.381H230.076ZM230.076 141.701H229.539C228.679 141.701 228.464 142.129 228.464 142.664V142.771C228.464 143.413 229.001 143.626 229.324 143.626C229.646 143.626 230.076 143.413 230.076 142.878V141.701Z" fill="#282829"/>
<path d="M233.303 139.776C233.303 139.883 233.196 139.883 233.088 139.883C232.981 139.883 232.873 139.883 232.766 139.883C232.228 139.883 231.906 140.311 231.906 140.739V143.84C231.906 143.947 231.798 143.947 231.798 143.947H231.583C231.583 143.947 231.476 143.947 231.476 143.84V140.739C231.476 139.883 232.228 139.456 232.766 139.456C232.981 139.456 233.088 139.456 233.303 139.456C233.411 139.456 233.411 139.563 233.411 139.563V139.776H233.303Z" fill="#282829"/>
<path d="M235.992 142.557C235.992 142.557 236.1 142.557 236.1 142.664V142.878C236.1 143.519 235.562 144.054 234.81 144.054C234.057 144.054 233.519 143.519 233.519 142.878V140.525C233.519 139.883 234.057 139.349 234.81 139.349C235.562 139.349 236.1 139.883 236.1 140.525V140.739C236.1 140.846 235.992 140.846 235.992 140.846H235.777C235.67 140.846 235.67 140.846 235.67 140.739V140.525C235.67 140.097 235.347 139.776 234.917 139.776C234.487 139.776 234.164 140.097 234.164 140.525V142.878C234.164 143.306 234.487 143.626 234.917 143.626C235.347 143.626 235.67 143.306 235.67 142.878V142.664C235.67 142.557 235.777 142.557 235.777 142.557H235.992Z" fill="#282829"/>
<path d="M239.327 143.84C239.327 143.947 239.219 143.947 239.219 143.947H238.897C238.897 143.947 238.789 143.947 238.789 143.84V140.632C238.789 140.204 238.467 139.883 238.036 139.883C237.606 139.883 237.284 140.204 237.284 140.632V143.84C237.284 143.947 237.284 143.947 237.176 143.947H236.961C236.854 143.947 236.854 143.947 236.854 143.84V138.065C236.854 137.958 236.854 137.958 236.961 137.958H237.176C237.284 137.958 237.284 138.065 237.284 138.065V139.776C237.499 139.562 237.821 139.455 238.144 139.455C238.789 139.455 239.327 139.99 239.327 140.632V143.84Z" fill="#282829"/>
<path d="M133.914 90.0191C146.135 86.762 153.389 74.2705 150.116 62.1186C146.842 49.9666 134.281 42.756 122.06 46.0131C109.838 49.2702 102.584 61.7617 105.858 73.9137C109.131 86.0656 121.692 93.2763 133.914 90.0191Z" fill="white"/>
<path fill-rule="evenodd" clip-rule="evenodd" d="M139.939 85.1278L126.387 76.8931L118.965 86.732C123.267 88.7639 128.323 89.4056 133.378 88.0153C135.852 87.4806 138.003 86.4111 139.939 85.1278Z" fill="#FCD60B"/>
<path fill-rule="evenodd" clip-rule="evenodd" d="M148.329 63.5249L120.793 70.7971L141.768 83.5235C147.361 78.711 150.05 71.118 148.329 63.5249Z" fill="#ED0874"/>
<path fill-rule="evenodd" clip-rule="evenodd" d="M117.029 85.6625L124.558 75.7167L117.997 71.7598L108.208 74.3264C109.714 79.1389 112.941 83.0959 117.029 85.6625Z" fill="#0099D8"/>
<path fill-rule="evenodd" clip-rule="evenodd" d="M147.684 61.2792C144.134 51.1195 133.271 45.2375 122.622 48.0181C111.973 50.7986 105.519 61.3861 107.563 71.9736L147.684 61.2792Z" fill="#00B5AF"/>
<path fill-rule="evenodd" clip-rule="evenodd" d="M121.869 55.718C121.546 54.5416 120.255 53.793 119.072 54.1138C117.889 54.4347 117.136 55.718 117.459 56.8944L118.642 61.386C118.965 62.5624 120.255 63.311 121.439 62.9902C122.622 62.6694 123.375 61.386 123.052 60.2097L121.869 55.718Z" fill="white"/>
<path fill-rule="evenodd" clip-rule="evenodd" d="M131.55 53.1513C131.227 51.9749 129.936 51.2263 128.753 51.5472C127.57 51.868 126.817 53.1513 127.139 54.3277L128.323 58.8194C128.645 59.9958 129.936 60.7444 131.119 60.4236C132.302 60.1027 133.055 58.8194 132.733 57.643L131.55 53.1513Z" fill="white"/>
</g>
<defs>
<clipPath id="clip0_221_10351">
<rect width="256" height="154" fill="white"/>
</clipPath>
</defs>
</svg>
