<svg width="150" height="250" viewBox="0 0 150 250" fill="none" xmlns="http://www.w3.org/2000/svg">
<g clip-path="url(#clip0_221_10252)">
<rect width="150" height="250" fill="white"/>
<path d="M49.2899 145.744C49.3867 145.744 49.3867 145.841 49.3867 145.939V147.11C49.3867 148.086 48.9994 148.77 48.2247 149.16C48.9994 149.453 49.3867 150.136 49.3867 151.21V152.382C49.3867 152.479 49.3867 152.577 49.193 152.577H48.9025C48.8057 152.577 48.7089 152.479 48.7089 152.382V151.308C48.7089 150.234 48.2247 149.453 46.9658 149.453H46.5785V152.382C46.5785 152.479 46.5785 152.577 46.4816 152.577H46.1911C46.0943 152.577 45.9974 152.479 45.9974 152.382V146.037C45.9974 145.939 46.0943 145.841 46.0943 145.841H46.3848C46.4816 145.841 46.4816 145.939 46.4816 146.037V149.063H46.7721C48.031 149.063 48.5152 148.379 48.5152 147.208V146.037C48.5152 145.939 48.612 145.841 48.7089 145.841H49.2899V145.744Z" fill="#282829"/>
<path d="M53.0665 151.21C53.0665 151.893 52.3887 152.479 51.614 152.479C50.8393 152.479 50.1614 151.893 50.1614 151.21V148.574C50.1614 147.891 50.8393 147.305 51.614 147.305C52.3887 147.305 53.0665 147.891 53.0665 148.574V151.21ZM50.8393 148.672V151.308C50.8393 151.698 51.2266 152.089 51.7108 152.089C52.195 152.089 52.5824 151.698 52.5824 151.308V148.672C52.5824 148.184 52.195 147.891 51.7108 147.891C51.2266 147.891 50.8393 148.184 50.8393 148.672Z" fill="#282829"/>
<path d="M56.0685 147.696C56.0685 147.794 55.9716 147.794 55.8748 147.794C55.7779 147.794 55.5843 147.794 55.4874 147.794C54.9064 147.794 54.5191 148.282 54.5191 148.77V152.186C54.5191 152.284 54.4222 152.382 54.3254 152.382H54.0349C53.938 152.382 53.938 152.284 53.938 152.284V148.77C53.938 147.794 54.8096 147.403 55.3906 147.403C55.5843 147.403 55.7779 147.403 55.9716 147.403C56.0685 147.403 56.1653 147.501 56.1653 147.501V147.696H56.0685Z" fill="#282829"/>
<path d="M59.2641 151.21C59.2641 151.893 58.6831 152.479 57.9084 152.479C57.1337 152.479 56.4558 151.893 56.4558 151.21V148.574C56.4558 147.891 57.1337 147.305 57.9084 147.305C58.6831 147.305 59.2641 147.891 59.2641 148.574V149.843C59.2641 149.941 59.1672 149.941 59.1672 149.941H57.0368V151.21C57.0368 151.601 57.4242 151.991 57.9084 151.991C58.3925 151.991 58.7799 151.601 58.7799 151.21V151.015C58.7799 150.917 58.8767 150.917 58.8767 150.917H59.0704C59.0704 150.917 59.1672 150.917 59.1672 151.015V151.21H59.2641ZM57.0368 148.574V149.551H58.7799V148.574C58.7799 148.086 58.3925 147.794 57.9084 147.794C57.4242 147.794 57.0368 148.184 57.0368 148.574Z" fill="#282829"/>
<path d="M62.266 149.453V148.672C62.266 148.379 61.9755 147.794 61.2976 147.794C60.8134 147.794 60.6198 147.989 60.4261 148.184H60.3292H60.2324L60.1356 147.989C60.1356 147.891 60.1356 147.891 60.2324 147.794C60.5229 147.598 60.8134 147.403 61.3944 147.403C62.266 147.403 62.847 148.086 62.847 148.77V151.308C62.847 152.284 61.9755 152.577 61.4913 152.577C60.8134 152.577 59.9419 152.186 59.9419 151.113V151.015C59.9419 150.136 60.5229 149.551 61.4913 149.551H62.266V149.453ZM62.266 149.844H61.685C60.7166 149.844 60.4261 150.332 60.4261 150.917V151.015C60.4261 151.698 61.0071 151.991 61.3944 151.991C61.7818 151.991 62.266 151.796 62.266 151.113V149.844Z" fill="#282829"/>
<path d="M68.9477 147.403C68.9477 147.501 68.9477 147.598 68.8509 147.598H68.5604C68.4635 147.598 68.4635 147.598 68.4635 147.403V147.11C68.4635 146.525 68.0762 146.134 67.3983 146.134C66.8173 146.134 66.3331 146.622 66.3331 147.11V151.015C66.3331 151.601 66.8173 151.991 67.3983 151.991C67.9793 151.991 68.4635 151.503 68.4635 151.015V150.625C68.4635 150.527 68.4635 150.429 68.5604 150.429H68.754C68.8509 150.429 68.8509 150.429 68.8509 150.625V151.015C68.8509 151.894 68.173 152.479 67.3015 152.479C66.43 152.479 65.6553 151.894 65.6553 151.015V147.11C65.6553 146.232 66.3331 145.646 67.3015 145.646C68.2699 145.646 68.8509 146.329 68.8509 147.11V147.403H68.9477Z" fill="#282829"/>
<path d="M72.5307 151.21C72.5307 151.893 71.8529 152.479 71.0782 152.479C70.3035 152.479 69.6256 151.893 69.6256 151.21V148.574C69.6256 147.891 70.3035 147.305 71.0782 147.305C71.8529 147.305 72.5307 147.891 72.5307 148.574V151.21ZM70.2066 148.672V151.308C70.2066 151.698 70.594 152.089 71.0782 152.089C71.5623 152.089 71.9497 151.698 71.9497 151.308V148.672C71.9497 148.184 71.5623 147.891 71.0782 147.891C70.594 147.794 70.2066 148.184 70.2066 148.672Z" fill="#282829"/>
<path d="M74.7579 152.284C74.7579 152.284 74.7579 152.382 74.5642 152.382H74.2737C73.6927 152.382 73.3054 152.089 73.3054 151.405V145.744C73.3054 145.646 73.3054 145.646 73.4022 145.646H73.6927C73.7895 145.646 73.7895 145.744 73.7895 145.744V151.308C73.7895 151.601 73.9832 151.796 74.2737 151.796H74.4674C74.5642 151.796 74.5642 151.894 74.5642 151.894V152.284H74.7579Z" fill="#282829"/>
<path d="M76.7915 152.284C76.7915 152.284 76.7915 152.382 76.5978 152.382H76.3073C75.7263 152.382 75.3389 152.089 75.3389 151.405V145.744C75.3389 145.646 75.3389 145.646 75.4358 145.646H75.7263C75.8231 145.646 75.8231 145.744 75.8231 145.744V151.308C75.8231 151.601 76.0168 151.796 76.3073 151.796H76.501C76.5978 151.796 76.5978 151.894 76.5978 151.894V152.284H76.7915Z" fill="#282829"/>
<path d="M79.5998 149.453V148.672C79.5998 148.379 79.3093 147.794 78.6314 147.794C78.1472 147.794 77.9536 147.989 77.7599 148.184H77.663H77.5662L77.4694 147.989C77.4694 147.891 77.4694 147.891 77.5662 147.794C77.8567 147.598 78.1472 147.403 78.7282 147.403C79.5998 147.403 80.1808 148.086 80.1808 148.77V151.308C80.1808 152.284 79.3093 152.577 78.8251 152.577C78.1472 152.577 77.2757 152.186 77.2757 151.113V151.015C77.2757 150.136 77.8567 149.551 78.8251 149.551H79.5998V149.453ZM79.5998 149.844H79.0188C78.0504 149.844 77.7599 150.332 77.7599 150.917V151.015C77.7599 151.698 78.3409 151.991 78.7282 151.991C79.1156 151.991 79.5998 151.796 79.5998 151.113V149.844Z" fill="#282829"/>
<path d="M83.7637 151.21C83.7637 151.894 83.0859 152.479 82.3112 152.479C81.5365 152.479 80.8586 151.894 80.8586 151.21V145.841C80.8586 145.744 80.8586 145.744 80.9555 145.744H81.3428C81.4397 145.744 81.4397 145.841 81.4397 145.841V147.696C81.7302 147.501 82.0207 147.403 82.3112 147.403C83.0859 147.403 83.6669 147.989 83.6669 148.672V151.21H83.7637ZM81.5365 151.21C81.5365 151.601 81.9238 151.991 82.408 151.991C82.8922 151.991 83.2796 151.601 83.2796 151.21V148.575C83.2796 148.086 82.8922 147.794 82.408 147.794C81.9238 147.794 81.5365 148.184 81.5365 148.575V151.21Z" fill="#282829"/>
<path d="M87.3467 151.21C87.3467 151.893 86.6688 152.479 85.8941 152.479C85.1194 152.479 84.4416 151.893 84.4416 151.21V148.574C84.4416 147.891 85.1194 147.305 85.8941 147.305C86.6688 147.305 87.3467 147.891 87.3467 148.574V151.21ZM85.1195 148.672V151.308C85.1195 151.698 85.5068 152.089 85.991 152.089C86.4752 152.089 86.8625 151.698 86.8625 151.308V148.672C86.8625 148.184 86.4752 147.891 85.991 147.891C85.5068 147.794 85.1195 148.184 85.1195 148.672Z" fill="#282829"/>
<path d="M90.3486 147.696C90.3486 147.794 90.2518 147.794 90.1549 147.794C90.0581 147.794 89.8644 147.794 89.7676 147.794C89.1866 147.794 88.7992 148.282 88.7992 148.77V152.186C88.7992 152.284 88.7024 152.382 88.6055 152.382H88.315C88.2182 152.382 88.2182 152.284 88.2182 152.284V148.77C88.2182 147.794 89.0897 147.403 89.6708 147.403C89.8644 147.403 90.0581 147.403 90.2518 147.403C90.3486 147.403 90.4454 147.501 90.4454 147.501V147.696H90.3486Z" fill="#282829"/>
<path d="M92.9632 149.453V148.672C92.9632 148.379 92.6727 147.794 91.9949 147.794C91.5107 147.794 91.317 147.989 91.1233 148.184H91.0265H90.9297L90.8328 147.989C90.8328 147.891 90.8328 147.891 90.9297 147.794C91.2202 147.598 91.5107 147.403 92.0917 147.403C92.9632 147.403 93.5443 148.086 93.5443 148.77V151.308C93.5443 152.284 92.6727 152.577 92.1885 152.577C91.5107 152.577 90.6392 152.186 90.6392 151.113V151.015C90.6392 150.136 91.2202 149.551 92.1885 149.551H92.9632V149.453ZM92.9632 149.844H92.3822C91.4139 149.844 91.1233 150.332 91.1233 150.917V151.015C91.1233 151.698 91.7044 151.991 92.0917 151.991C92.4791 151.991 92.9632 151.796 92.9632 151.113V149.844Z" fill="#282829"/>
<path d="M95.481 152.382C94.8999 152.382 94.5126 152.089 94.5126 151.406V147.891H94.0284C94.0284 147.891 93.9316 147.891 93.9316 147.794V147.598C93.9316 147.501 94.0284 147.501 94.0284 147.501H94.5126V146.72C94.5126 146.622 94.6094 146.622 94.6094 146.525L94.8999 146.427C94.9968 146.427 94.9968 146.427 94.9968 146.525V147.403H95.8683C95.9651 147.403 95.9651 147.403 95.9651 147.501V147.696C95.9651 147.794 95.9651 147.794 95.8683 147.794H95.0936V151.308C95.0936 151.601 95.2873 151.796 95.5778 151.796H95.7715C95.8683 151.796 95.8683 151.894 95.8683 151.894V152.089C95.8683 152.089 95.8683 152.186 95.6746 152.186H95.481V152.382Z" fill="#282829"/>
<path d="M97.224 146.72C97.224 146.817 97.1272 146.817 97.1272 146.817H96.7398C96.643 146.817 96.5461 146.817 96.5461 146.72V146.427C96.5461 146.329 96.5461 146.329 96.7398 146.329H97.1272C97.224 146.329 97.224 146.329 97.224 146.427V146.72ZM96.5461 147.598C96.5461 147.501 96.5461 147.501 96.643 147.501H96.9335C97.0303 147.501 97.1272 147.598 97.1272 147.598V152.284C97.1272 152.382 97.1272 152.382 96.9335 152.382H96.643C96.5461 152.382 96.5461 152.284 96.5461 152.284V147.598Z" fill="#282829"/>
<path d="M99.3544 151.601L99.4513 151.21L100.42 147.501C100.42 147.403 100.516 147.403 100.613 147.403H100.904C101.001 147.403 101.097 147.501 101.001 147.598L99.7418 152.284C99.7418 152.382 99.6449 152.382 99.6449 152.382H99.3544C99.2576 152.382 99.2576 152.382 99.2576 152.284L97.9987 147.598C97.9987 147.501 98.0956 147.403 98.0956 147.403H98.3861C98.4829 147.403 98.4829 147.403 98.5797 147.501L99.5481 151.21L99.3544 151.601Z" fill="#282829"/>
<path d="M104.099 151.21C104.099 151.893 103.518 152.479 102.744 152.479C101.969 152.479 101.291 151.893 101.291 151.21V148.574C101.291 147.891 101.969 147.305 102.744 147.305C103.518 147.305 104.099 147.891 104.099 148.574V149.843C104.099 149.941 104.003 149.941 104.003 149.941H101.872V151.21C101.872 151.601 102.26 151.991 102.744 151.991C103.228 151.991 103.615 151.601 103.615 151.21V151.015C103.615 150.917 103.712 150.917 103.712 150.917H104.003C104.003 150.917 104.099 150.917 104.099 151.015V151.21ZM101.872 148.574V149.551H103.615V148.574C103.615 148.086 103.228 147.794 102.744 147.794C102.26 147.794 101.872 148.184 101.872 148.574Z" fill="#282829"/>
<path d="M76.0168 158.141C76.1137 158.141 76.1137 158.239 76.1137 158.239V158.824H76.6947C76.7915 158.824 76.8884 158.824 76.8884 158.922V159.117C76.8884 159.215 76.8883 159.215 76.6947 159.215H76.1137V161.265C76.1137 162.144 75.5326 162.632 74.6611 162.632C73.7896 162.632 73.2086 162.144 73.2086 161.265V160.094C73.2086 159.508 73.4991 159.117 73.9833 159.02C73.5959 158.824 73.4022 158.434 73.4022 157.946V157.165C73.4022 156.189 74.1769 155.798 74.7579 155.798C75.4358 155.798 76.1137 156.091 76.1137 157.263C76.1137 157.36 76.1137 157.458 76.0168 157.458H75.7263C75.6295 157.458 75.6295 157.36 75.6295 157.263C75.6295 156.579 75.339 156.286 74.8548 156.286C74.4674 156.286 73.9833 156.482 73.9833 157.165V157.946C73.9833 158.336 74.1769 158.824 74.6611 158.824H75.7263V158.239C75.7263 158.239 75.7263 158.141 75.8232 158.141H76.0168ZM75.6295 159.313H74.5643C73.9833 159.313 73.7896 159.801 73.7896 160.191V161.363C73.7896 162.046 74.1769 162.339 74.7579 162.339C75.2421 162.339 75.6295 162.046 75.6295 161.46V159.313Z" fill="#282829"/>
<path d="M50.3551 166.048C50.4519 166.048 50.4519 166.146 50.4519 166.244V172.589C50.4519 172.686 50.4519 172.784 50.3551 172.784H50.0646C49.9677 172.784 49.9677 172.686 49.9677 172.589V169.563H47.7405V172.589C47.7405 172.686 47.7405 172.784 47.6436 172.784H47.3531C47.2563 172.784 47.2563 172.686 47.2563 172.589V166.244C47.2563 166.146 47.2563 166.048 47.3531 166.048H47.6436C47.7405 166.048 47.7405 166.146 47.7405 166.244V169.172H49.9677V166.244C49.9677 166.146 49.9677 166.048 50.0646 166.048H50.3551Z" fill="#282829"/>
<path d="M52.2918 167.122C52.2918 167.22 52.195 167.22 52.195 167.22H51.8076C51.7108 167.22 51.614 167.22 51.614 167.122V166.829C51.614 166.732 51.614 166.732 51.8076 166.732H52.195C52.2918 166.732 52.2918 166.732 52.2918 166.829V167.122ZM51.614 167.903C51.614 167.805 51.614 167.805 51.7108 167.805H52.0013C52.0981 167.805 52.195 167.903 52.195 167.903V172.589C52.195 172.686 52.195 172.686 52.0013 172.686H51.7108C51.614 172.686 51.614 172.589 51.614 172.589V167.903Z" fill="#282829"/>
<path d="M54.8095 172.491C55.5842 172.491 56.0684 172.686 56.0684 173.565V174.346C56.0684 174.443 56.0684 174.443 55.9716 174.443H55.6811C55.5842 174.443 55.5842 174.346 55.5842 174.346V173.662C55.5842 173.174 55.2937 172.979 54.8095 172.979H54.1317H54.0348C53.357 172.979 53.0665 172.491 53.0665 172.003V171.905C53.0665 171.515 53.2601 171.222 53.4538 170.929C53.2601 170.734 53.1633 170.441 53.1633 170.051V168.977C53.1633 168.196 53.8412 167.708 54.6159 167.708C54.8095 167.708 55.0032 167.708 55.1 167.805H56.0684C56.1652 167.805 56.2621 167.903 56.2621 167.903V168.098C56.2621 168.196 56.2621 168.196 56.0684 168.196H55.7779C55.9716 168.391 56.0684 168.684 56.0684 168.977V170.051C56.0684 170.832 55.3905 171.417 54.6159 171.417C54.3253 171.417 54.1317 171.32 53.938 171.222C53.7443 171.417 53.7443 171.515 53.7443 171.808C53.7443 172.101 54.0348 172.393 54.4222 172.393H54.8095V172.491ZM55.2937 168.977C55.2937 168.489 54.9064 168.196 54.4222 168.196C53.938 168.196 53.5507 168.586 53.5507 168.977V170.148C53.5507 170.539 53.938 170.929 54.4222 170.929C54.9064 170.929 55.2937 170.539 55.2937 170.148V168.977Z" fill="#282829"/>
<path d="M59.7482 172.686C59.7482 172.784 59.6514 172.784 59.6514 172.784H59.3609C59.264 172.784 59.264 172.784 59.264 172.686V169.075C59.264 168.684 58.8767 168.294 58.3925 168.294C57.9083 168.294 57.521 168.684 57.521 169.172V172.686C57.521 172.784 57.521 172.784 57.3273 172.784H57.0368C56.9399 172.784 56.9399 172.784 56.9399 172.686V166.244C56.9399 166.146 56.9399 166.146 57.0368 166.146H57.3273C57.4241 166.146 57.4241 166.244 57.4241 166.244V168.196C57.7146 167.903 58.0051 167.806 58.3925 167.806C59.1672 167.806 59.6514 168.391 59.6514 169.075V172.686H59.7482Z" fill="#282829"/>
<path d="M62.9439 169.563C62.9439 169.66 62.847 169.66 62.847 169.66H60.8134C60.7166 169.66 60.7166 169.66 60.7166 169.563V169.367C60.7166 169.27 60.8134 169.27 60.8134 169.27H62.847C62.9439 169.27 62.9439 169.27 62.9439 169.367V169.563Z" fill="#282829"/>
<path d="M64.8806 172.784C64.2995 172.784 63.9122 172.491 63.9122 171.808V168.294H63.428C63.428 168.294 63.3312 168.294 63.3312 168.196V168.001C63.3312 167.903 63.428 167.903 63.428 167.903H63.9122V167.122C63.9122 167.025 64.009 167.025 64.009 166.927L64.2995 166.829C64.3964 166.829 64.3964 166.829 64.3964 166.927V167.806H65.1711C65.2679 167.806 65.2679 167.806 65.2679 167.903V168.098C65.2679 168.196 65.2679 168.196 65.1711 168.196H64.3964V171.71C64.3964 172.003 64.5901 172.198 64.8806 172.198H65.0742C65.1711 172.198 65.1711 172.296 65.1711 172.296V172.491C65.1711 172.491 65.1711 172.589 64.9774 172.589H64.8806V172.784Z" fill="#282829"/>
<path d="M68.754 171.612C68.754 172.296 68.173 172.882 67.3983 172.882C66.6236 172.882 65.9457 172.296 65.9457 171.612V168.977C65.9457 168.293 66.6236 167.708 67.3983 167.708C68.173 167.708 68.754 168.293 68.754 168.977V170.246C68.754 170.343 68.6572 170.343 68.6572 170.343H66.5268V171.612C66.5268 172.003 66.9141 172.393 67.3983 172.393C67.8825 172.393 68.2698 172.003 68.2698 171.612V171.417C68.2698 171.32 68.3667 171.32 68.3667 171.32H68.6572C68.6572 171.32 68.754 171.32 68.754 171.417V171.612ZM66.5268 168.977V169.953H68.2698V168.977C68.2698 168.489 67.8825 168.196 67.3983 168.196C66.9141 168.196 66.5268 168.586 66.5268 168.977Z" fill="#282829"/>
<path d="M72.1433 171.222C72.2402 171.222 72.2401 171.222 72.2401 171.417V171.612C72.2401 172.296 71.6591 172.882 70.8844 172.882C70.1097 172.882 69.4319 172.296 69.4319 171.612V168.977C69.4319 168.293 70.1097 167.708 70.8844 167.708C71.6591 167.708 72.2401 168.293 72.2401 168.977V169.27C72.2401 169.367 72.1433 169.465 72.1433 169.465H71.8528C71.756 169.465 71.6591 169.465 71.6591 169.367V169.074C71.6591 168.586 71.2718 168.293 70.7876 168.293C70.3034 168.293 69.9161 168.684 69.9161 169.074V171.71C69.9161 172.101 70.3034 172.491 70.7876 172.491C71.2718 172.491 71.6591 172.101 71.6591 171.71V171.515C71.6591 171.417 71.756 171.32 71.756 171.32H72.1433V171.222Z" fill="#282829"/>
<path d="M75.8231 172.686C75.8231 172.784 75.7263 172.784 75.7263 172.784H75.4357C75.3389 172.784 75.3389 172.784 75.3389 172.686V169.075C75.3389 168.684 74.9516 168.294 74.4674 168.294C73.9832 168.294 73.5959 168.684 73.5959 169.172V172.686C73.5959 172.784 73.5959 172.784 73.4022 172.784H73.1117C73.0148 172.784 73.0148 172.784 73.0148 172.686V166.244C73.0148 166.146 73.0148 166.146 73.1117 166.146H73.4022C73.499 166.146 73.499 166.244 73.499 166.244V168.196C73.7895 167.903 74.08 167.806 74.4674 167.806C75.2421 167.806 75.7263 168.391 75.7263 169.075V172.686H75.8231Z" fill="#282829"/>
<path d="M79.5997 172.589C79.5997 172.686 79.5997 172.784 79.5029 172.784H79.2124C79.1155 172.784 79.1155 172.686 79.1155 172.589V166.244C79.1155 166.146 79.1155 166.048 79.2124 166.048H79.5029C79.5997 166.048 79.5997 166.146 79.5997 166.244V172.589Z" fill="#282829"/>
<path d="M83.1827 172.784C83.0859 172.784 83.0859 172.784 83.0859 172.686V169.074C83.0859 168.684 82.7954 168.294 82.2144 168.294C81.7302 168.294 81.3428 168.684 81.3428 169.074V172.686C81.3428 172.784 81.246 172.784 81.246 172.784H80.9555C80.8586 172.784 80.8586 172.686 80.8586 172.686V169.074C80.8586 168.391 81.4397 167.805 82.3112 167.805C83.1827 167.805 83.7637 168.391 83.7637 169.074V172.686C83.7637 172.784 83.6669 172.784 83.6669 172.784H83.1827Z" fill="#282829"/>
<path d="M85.1195 167.122C85.1195 167.22 85.0226 167.22 85.0226 167.22H84.6353C84.5384 167.22 84.4416 167.22 84.4416 167.122V166.829C84.4416 166.732 84.4416 166.732 84.6353 166.732H85.0226C85.1195 166.732 85.1195 166.732 85.1195 166.829V167.122ZM84.5384 167.903C84.5384 167.805 84.5384 167.805 84.6353 167.805H84.9258C85.0226 167.805 85.1195 167.903 85.1195 167.903V172.589C85.1195 172.686 85.1194 172.686 84.9258 172.686H84.6353C84.5384 172.686 84.5384 172.589 84.5384 172.589V167.903Z" fill="#282829"/>
<path d="M87.153 172.784C86.572 172.784 86.1847 172.491 86.1847 171.808V168.294H85.7005C85.7005 168.294 85.6036 168.294 85.6036 168.196V168.001C85.6036 167.903 85.7005 167.903 85.7005 167.903H86.1847V167.122C86.1847 167.025 86.2815 167.025 86.2815 166.927L86.572 166.829C86.6688 166.829 86.6688 166.829 86.6688 166.927V167.806H87.4435C87.5404 167.806 87.5404 167.806 87.5404 167.903V168.098C87.5404 168.196 87.5404 168.196 87.4435 168.196H86.6688V171.71C86.6688 172.003 86.8625 172.198 87.153 172.198H87.3467C87.4435 172.198 87.4435 172.296 87.4435 172.296V172.491C87.4435 172.491 87.4435 172.589 87.2499 172.589H87.153V172.784Z" fill="#282829"/>
<path d="M88.8961 167.122C88.8961 167.22 88.7992 167.22 88.7992 167.22H88.4119C88.315 167.22 88.2182 167.22 88.2182 167.122V166.829C88.2182 166.732 88.2182 166.732 88.4119 166.732H88.7992C88.8961 166.732 88.8961 166.732 88.8961 166.829V167.122ZM88.315 167.903C88.315 167.805 88.315 167.805 88.4119 167.805H88.7024C88.7992 167.805 88.8961 167.903 88.8961 167.903V172.589C88.8961 172.686 88.8961 172.686 88.7024 172.686H88.4119C88.315 172.686 88.315 172.589 88.315 172.589V167.903Z" fill="#282829"/>
<path d="M91.9949 169.855V169.074C91.9949 168.782 91.7043 168.196 91.0265 168.196C90.5423 168.196 90.3486 168.391 90.155 168.586H90.0581H89.9613L89.8645 168.391C89.8645 168.294 89.8645 168.294 89.9613 168.196C90.2518 168.001 90.5423 167.805 91.1233 167.805C91.9949 167.805 92.5759 168.489 92.5759 169.172V171.71C92.5759 172.686 91.7043 172.979 91.2202 172.979C90.5423 172.979 89.6708 172.589 89.6708 171.515V171.417C89.6708 170.539 90.2518 169.953 91.2202 169.953H91.9949V169.855ZM91.9949 170.246H91.4138C90.4455 170.246 90.155 170.734 90.155 171.32V171.417C90.155 172.101 90.736 172.393 91.1233 172.393C91.5107 172.393 91.9949 172.198 91.9949 171.515V170.246Z" fill="#282829"/>
<path d="M94.5126 172.784C93.9316 172.784 93.5442 172.491 93.5442 171.808V168.294H93.06C93.06 168.294 92.9632 168.294 92.9632 168.196V168.001C92.9632 167.903 93.06 167.903 93.06 167.903H93.5442V167.122C93.5442 167.025 93.641 167.025 93.641 166.927L93.9316 166.829C94.0284 166.829 94.0284 166.829 94.0284 166.927V167.806H94.8999C94.9968 167.806 94.9968 167.806 94.9968 167.903V168.098C94.9968 168.196 94.9968 168.196 94.8999 168.196H94.1252V171.71C94.1252 172.003 94.3189 172.198 94.6094 172.198H94.8031C94.8999 172.198 94.8999 172.296 94.8999 172.296V172.491C94.8999 172.491 94.8999 172.589 94.7063 172.589H94.5126V172.784Z" fill="#282829"/>
<path d="M96.2556 167.122C96.2556 167.22 96.1588 167.22 96.1588 167.22H95.7714C95.6746 167.22 95.5778 167.22 95.5778 167.122V166.829C95.5778 166.732 95.5778 166.732 95.7714 166.732H96.1588C96.2556 166.732 96.2556 166.732 96.2556 166.829V167.122ZM95.6746 167.903C95.6746 167.805 95.6746 167.805 95.7714 167.805H96.0619C96.1588 167.805 96.2556 167.903 96.2556 167.903V172.589C96.2556 172.686 96.2556 172.686 96.0619 172.686H95.7714C95.6746 172.686 95.6746 172.589 95.6746 172.589V167.903Z" fill="#282829"/>
<path d="M98.4829 172.003L98.5797 171.613L99.5481 167.903C99.5481 167.805 99.6449 167.805 99.7418 167.805H100.032C100.129 167.805 100.226 167.903 100.129 168.001L98.8703 172.686C98.8703 172.784 98.7734 172.784 98.7734 172.784H98.4829C98.3861 172.784 98.3861 172.784 98.3861 172.686L97.1272 168.001C97.1272 167.903 97.224 167.805 97.224 167.805H97.5145C97.6114 167.805 97.6114 167.805 97.7082 167.903L98.6766 171.613L98.4829 172.003Z" fill="#282829"/>
<path d="M103.228 171.612C103.228 172.296 102.647 172.882 101.872 172.882C101.097 172.882 100.42 172.296 100.42 171.612V168.977C100.42 168.293 101.097 167.708 101.872 167.708C102.647 167.708 103.228 168.293 103.228 168.977V170.246C103.228 170.343 103.131 170.343 103.131 170.343H101.001V171.612C101.001 172.003 101.388 172.393 101.872 172.393C102.356 172.393 102.744 172.003 102.744 171.612V171.417C102.744 171.32 102.841 171.32 102.841 171.32H103.131C103.131 171.32 103.228 171.32 103.228 171.417V171.612ZM101.001 168.977V169.953H102.744V168.977C102.744 168.489 102.356 168.196 101.872 168.196C101.388 168.196 101.001 168.586 101.001 168.977Z" fill="#282829"/>
<path d="M72.9181 178.055C73.0149 178.055 73.0149 178.055 73.0149 178.153V178.348C73.0149 178.446 72.9181 178.446 72.9181 178.446H72.0465V182.839C72.0465 182.936 72.0465 182.936 71.9497 182.936H71.6592C71.5623 182.936 71.5623 182.839 71.5623 182.839V178.446H71.0782C70.9813 178.446 70.9813 178.446 70.9813 178.348V178.153C70.9813 178.055 71.0782 178.055 71.0782 178.055H71.5623V177.665C71.5623 176.591 72.0465 176.298 72.8212 176.298C72.9181 176.298 73.0149 176.298 73.0149 176.396V176.591C73.0149 176.689 72.9181 176.689 72.8212 176.689C72.2402 176.689 72.0465 176.884 72.0465 177.665V177.958H72.9181V178.055Z" fill="#282829"/>
<path d="M76.2105 181.862C76.2105 182.546 75.5327 183.131 74.758 183.131C73.9833 183.131 73.3054 182.546 73.3054 181.862V179.227C73.3054 178.543 73.9833 177.958 74.758 177.958C75.5327 177.958 76.2105 178.543 76.2105 179.227V181.862ZM73.9833 179.227V181.862C73.9833 182.253 74.3706 182.643 74.8548 182.643C75.339 182.643 75.7263 182.253 75.7263 181.862V179.227C75.7263 178.738 75.339 178.446 74.8548 178.446C74.3706 178.446 73.9833 178.738 73.9833 179.227Z" fill="#282829"/>
<path d="M79.1156 178.348C79.1156 178.446 79.0187 178.446 78.9219 178.446C78.8251 178.446 78.6314 178.446 78.5346 178.446C77.9535 178.446 77.5662 178.934 77.5662 179.422V182.838C77.5662 182.936 77.4694 183.034 77.3725 183.034H77.082C76.9852 183.034 76.9852 182.936 76.9852 182.936V179.422C76.9852 178.446 77.8567 178.055 78.4377 178.055C78.6314 178.055 78.8251 178.055 79.0187 178.055C79.1156 178.055 79.2124 178.153 79.2124 178.153V178.348H79.1156Z" fill="#282829"/>
<path d="M58.1989 186.646C58.1989 186.548 58.2957 186.45 58.3925 186.45H59.9419C60.9103 186.45 61.5881 187.134 61.5881 188.11V189.477C61.5881 190.355 60.9103 191.038 59.9419 191.038H58.8767V192.991C58.8767 193.088 58.8767 193.186 58.7799 193.186H58.4894C58.3925 193.186 58.3925 193.088 58.3925 192.991V186.646H58.1989ZM60.9103 188.11C60.9103 187.524 60.5229 187.036 59.8451 187.036H58.7799V190.648H59.8451C60.5229 190.648 60.9103 190.16 60.9103 189.574V188.11Z" fill="#282829"/>
<path d="M64.2995 188.5C64.2995 188.598 64.2027 188.598 64.1059 188.598C64.009 188.598 63.8154 188.598 63.7185 188.598C63.1375 188.598 62.7502 189.086 62.7502 189.574V192.991C62.7502 193.088 62.6533 193.186 62.5565 193.186H62.266C62.1691 193.186 62.1691 193.088 62.1691 193.088V189.574C62.1691 188.598 63.0407 188.208 63.6217 188.208C63.8154 188.208 64.009 188.208 64.2027 188.208C64.2995 188.208 64.3964 188.305 64.3964 188.305V188.5H64.2995Z" fill="#282829"/>
<path d="M67.4952 192.015C67.4952 192.698 66.8173 193.284 66.0426 193.284C65.2679 193.284 64.5901 192.698 64.5901 192.015V189.379C64.5901 188.696 65.2679 188.11 66.0426 188.11C66.8173 188.11 67.4952 188.696 67.4952 189.379V192.015ZM65.1711 189.379V192.015C65.1711 192.405 65.5585 192.796 66.0426 192.796C66.5268 192.796 66.9142 192.405 66.9142 192.015V189.379C66.9142 188.891 66.5268 188.598 66.0426 188.598C65.5585 188.598 65.1711 188.988 65.1711 189.379Z" fill="#282829"/>
<path d="M70.4003 189.379C70.4003 188.891 70.0129 188.598 69.5287 188.598C69.0446 188.598 68.7541 188.988 68.7541 189.379C68.7541 189.867 68.9477 189.965 69.6256 190.355C70.2066 190.746 70.9813 191.136 70.9813 191.917C70.9813 192.6 70.4003 193.186 69.6256 193.186C68.6572 193.186 68.173 192.6 68.173 191.917V191.722C68.173 191.624 68.2699 191.624 68.3667 191.624H68.6572C68.7541 191.624 68.7541 191.722 68.7541 191.722V191.917C68.7541 192.405 69.1414 192.698 69.6256 192.698C70.1098 192.698 70.4971 192.307 70.4971 191.917C70.4971 191.429 70.1098 191.136 69.2382 190.648C68.7541 190.355 68.2699 189.965 68.2699 189.281C68.2699 188.598 68.8509 188.012 69.6256 188.012C70.4003 188.012 70.9813 188.598 70.9813 189.281V189.476C70.9813 189.574 70.9813 189.574 70.8845 189.574H70.594C70.4971 189.574 70.4971 189.574 70.4971 189.476V189.379H70.4003Z" fill="#282829"/>
<path d="M74.4674 192.015C74.4674 192.698 73.8864 193.284 73.1117 193.284C72.7243 193.284 72.4338 193.186 72.2402 192.991V194.748C72.2402 194.846 72.2402 194.846 72.1433 194.846H71.8528C71.756 194.846 71.756 194.748 71.756 194.748V189.379C71.756 188.696 72.4338 188.11 73.2085 188.11C73.9832 188.11 74.6611 188.696 74.6611 189.379V192.015H74.4674ZM72.2402 192.015C72.2402 192.405 72.6275 192.796 73.1117 192.796C73.5959 192.796 73.9832 192.405 73.9832 192.015V189.379C73.9832 188.988 73.5959 188.598 73.1117 188.598C72.6275 188.598 72.2402 188.988 72.2402 189.379V192.015Z" fill="#282829"/>
<path d="M78.0504 192.015C78.0504 192.698 77.4694 193.284 76.6947 193.284C75.92 193.284 75.2421 192.698 75.2421 192.015V189.379C75.2421 188.696 75.92 188.11 76.6947 188.11C77.4694 188.11 78.0504 188.696 78.0504 189.379V190.648C78.0504 190.746 77.9536 190.746 77.9536 190.746H75.8232V192.015C75.8232 192.405 76.2105 192.796 76.6947 192.796C77.1789 192.796 77.5662 192.405 77.5662 192.015V191.819C77.5662 191.722 77.663 191.722 77.663 191.722H77.9536C77.9536 191.722 78.0504 191.722 78.0504 191.819V192.015ZM75.8232 189.379V190.355H77.4694V189.379C77.4694 188.891 77.082 188.598 76.5978 188.598C76.1137 188.598 75.8232 188.988 75.8232 189.379Z" fill="#282829"/>
<path d="M81.4396 191.624C81.5365 191.624 81.5365 191.624 81.5365 191.819V192.015C81.5365 192.698 80.9555 193.284 80.1808 193.284C79.4061 193.284 78.7282 192.698 78.7282 192.015V189.379C78.7282 188.696 79.4061 188.11 80.1808 188.11C80.9555 188.11 81.5365 188.696 81.5365 189.379V189.672C81.5365 189.769 81.4396 189.867 81.4396 189.867H81.1491C81.0523 189.867 80.9554 189.867 80.9554 189.769V189.379C80.9554 188.891 80.5681 188.598 80.0839 188.598C79.5997 188.598 79.2124 188.988 79.2124 189.379V192.015C79.2124 192.405 79.5997 192.796 80.0839 192.796C80.5681 192.796 80.9554 192.405 80.9554 192.015V191.819C80.9554 191.722 81.0523 191.624 81.0523 191.624H81.4396Z" fill="#282829"/>
<path d="M83.3764 193.186C82.7954 193.186 82.408 192.893 82.408 192.21V188.696H81.9239C81.9239 188.696 81.827 188.696 81.827 188.598V188.403C81.827 188.305 81.9239 188.305 81.9239 188.305H82.408V187.427C82.408 187.329 82.5049 187.329 82.5049 187.231L82.7954 187.134C82.8922 187.134 82.8922 187.134 82.8922 187.231V188.11H83.6669C83.7638 188.11 83.7638 188.11 83.7638 188.208V188.403C83.7638 188.5 83.7638 188.5 83.6669 188.5H82.8922V192.015C82.8922 192.308 83.0859 192.503 83.3764 192.503H83.5701C83.6669 192.503 83.6669 192.6 83.6669 192.6V192.796C83.6669 192.796 83.6669 192.893 83.4732 192.893H83.3764V193.186Z" fill="#282829"/>
<path d="M85.2163 187.524C85.2163 187.622 85.1195 187.622 85.1195 187.622H84.7321C84.6353 187.622 84.5385 187.622 84.5385 187.524V187.231C84.5385 187.134 84.5384 187.134 84.7321 187.134H85.1195C85.2163 187.134 85.2163 187.134 85.2163 187.231V187.524ZM84.5385 188.305C84.5385 188.208 84.5385 188.208 84.6353 188.208H84.9258C85.0226 188.208 85.1195 188.305 85.1195 188.305V192.991C85.1195 193.088 85.1195 193.089 84.9258 193.089H84.6353C84.5385 193.089 84.5385 192.991 84.5385 192.991V188.305Z" fill="#282829"/>
<path d="M87.3467 192.405L87.4435 192.015L88.4119 188.305C88.4119 188.208 88.5087 188.208 88.6056 188.208H88.8961C88.9929 188.208 89.0897 188.305 88.9929 188.403L87.734 193.088C87.734 193.186 87.6372 193.186 87.6372 193.186H87.3467C87.2498 193.186 87.2498 193.186 87.2498 193.088L85.991 188.403C85.991 188.305 86.0878 188.208 86.0878 188.208H86.1846C86.2815 188.208 86.2815 188.208 86.3783 188.305L87.3467 192.015V192.405Z" fill="#282829"/>
<path d="M92.0917 192.015C92.0917 192.698 91.5107 193.284 90.736 193.284C89.9613 193.284 89.2834 192.698 89.2834 192.015V189.379C89.2834 188.696 89.9613 188.11 90.736 188.11C91.5107 188.11 92.0917 188.696 92.0917 189.379V190.648C92.0917 190.746 91.9949 190.746 91.9949 190.746H89.8645V192.015C89.8645 192.405 90.2518 192.796 90.736 192.796C91.2202 192.796 91.6075 192.405 91.6075 192.015V191.819C91.6075 191.722 91.7044 191.722 91.7044 191.722H91.9949C91.9949 191.722 92.0917 191.722 92.0917 191.819V192.015ZM89.8645 189.379V190.355H91.6075V189.379C91.6075 188.891 91.2202 188.598 90.736 188.598C90.2518 188.598 89.8645 188.988 89.8645 189.379Z" fill="#282829"/>
<path d="M41.3493 198.067C41.3493 197.579 40.9619 196.993 40.2841 196.993C39.8967 196.993 39.2189 197.188 39.2189 198.165C39.2189 198.946 39.8967 199.238 40.2841 199.629C41.2524 200.41 41.9303 200.8 41.9303 201.972C41.9303 202.753 41.2524 203.436 40.2841 203.436C39.4125 203.436 38.6379 202.85 38.6379 201.874V201.581C38.6379 201.484 38.6379 201.386 38.7347 201.386H39.0252C39.122 201.386 39.122 201.484 39.122 201.581V201.776C39.122 202.557 39.7999 202.85 40.1872 202.85C40.7683 202.85 41.3493 202.46 41.3493 201.874C41.3493 201.093 40.9619 200.8 39.9936 200.019C39.2189 199.434 38.541 199.043 38.541 198.067C38.541 196.7 39.7031 196.407 40.1872 196.407C41.1556 196.407 41.7366 197.091 41.7366 197.969V198.262C41.7366 198.36 41.7366 198.457 41.543 198.457H41.2524C41.1556 198.457 41.1556 198.36 41.1556 198.262V198.067H41.3493Z" fill="#282829"/>
<path d="M45.5133 202.167C45.5133 202.85 44.9323 203.436 44.1576 203.436C43.3829 203.436 42.705 202.85 42.705 202.167V199.531C42.705 198.848 43.3829 198.262 44.1576 198.262C44.9323 198.262 45.5133 198.848 45.5133 199.531V200.8C45.5133 200.898 45.4164 200.898 45.4164 200.898H43.286V202.167C43.286 202.557 43.6734 202.948 44.1576 202.948C44.6418 202.948 45.0291 202.557 45.0291 202.167V201.972C45.0291 201.874 45.1259 201.874 45.1259 201.874H45.4164C45.4164 201.874 45.5133 201.874 45.5133 201.972V202.167ZM43.286 199.629V200.605H45.0291V199.629C45.0291 199.141 44.6418 198.848 44.1576 198.848C43.6734 198.848 43.286 199.141 43.286 199.629Z" fill="#282829"/>
<path d="M50.8393 199.727C50.8393 198.946 50.2583 198.848 49.9677 198.848H49.8709C49.5804 198.848 49.0962 199.043 49.0962 199.727V203.241C49.0962 203.338 49.0962 203.436 48.9994 203.436H48.7089C48.612 203.436 48.612 203.338 48.612 203.241V199.727C48.612 198.946 48.031 198.848 47.7405 198.848C47.45 198.848 46.9658 199.043 46.9658 199.727V203.241C46.9658 203.241 46.9658 203.436 46.869 203.436H46.5785C46.4816 203.436 46.4816 203.338 46.4816 203.241V199.727C46.4816 198.653 47.2563 198.36 47.8373 198.36C48.2247 198.36 48.7089 198.555 48.9994 199.043C49.1931 198.555 49.6772 198.36 50.0646 198.36C50.9361 198.36 51.5171 198.946 51.5171 199.727V203.241C51.5171 203.338 51.5171 203.436 51.4203 203.436H51.1298C51.033 203.436 51.033 203.338 51.033 203.241V199.727H50.8393Z" fill="#282829"/>
<path d="M52.9697 197.677C52.9697 197.774 52.8728 197.774 52.8728 197.774H52.4855C52.3886 197.774 52.2918 197.774 52.2918 197.677V197.384C52.2918 197.286 52.2918 197.286 52.4855 197.286H52.8728C52.9697 197.286 52.9697 197.286 52.9697 197.384V197.677ZM52.3886 198.555C52.3886 198.458 52.3886 198.458 52.4855 198.458H52.776C52.8728 198.458 52.9697 198.555 52.9697 198.555V203.241C52.9697 203.338 52.9697 203.338 52.776 203.338H52.4855C52.3886 203.338 52.3886 203.241 52.3886 203.241V198.555Z" fill="#282829"/>
<path d="M56.4558 201.776C56.5526 201.776 56.5526 201.776 56.5526 201.972V202.167C56.5526 202.85 55.9716 203.436 55.1969 203.436C54.4222 203.436 53.7444 202.85 53.7444 202.167V199.531C53.7444 198.848 54.4222 198.262 55.1969 198.262C55.9716 198.262 56.5526 198.848 56.5526 199.531V199.824C56.5526 199.922 56.4558 200.019 56.4558 200.019H56.1653C56.0685 200.019 55.9716 200.019 55.9716 199.922V199.629C55.9716 199.141 55.5843 198.848 55.1001 198.848C54.6159 198.848 54.2286 199.238 54.2286 199.629V202.265C54.2286 202.655 54.6159 203.045 55.1001 203.045C55.5843 203.045 55.9716 202.655 55.9716 202.265V202.069C55.9716 201.972 56.0685 201.874 56.0685 201.874H56.4558V201.776Z" fill="#282829"/>
<path d="M60.0388 202.167C60.0388 202.85 59.3609 203.436 58.5862 203.436C57.8115 203.436 57.1337 202.85 57.1337 202.167V199.531C57.1337 198.848 57.8115 198.262 58.5862 198.262C59.3609 198.262 60.0388 198.848 60.0388 199.531V202.167ZM57.8115 199.629V202.265C57.8115 202.655 58.1989 203.045 58.6831 203.045C59.1672 203.045 59.5546 202.655 59.5546 202.265V199.629C59.5546 199.141 59.1672 198.848 58.6831 198.848C58.1989 198.75 57.8115 199.141 57.8115 199.629Z" fill="#282829"/>
<path d="M63.3312 203.436C63.2344 203.436 63.2344 203.436 63.2344 203.338V199.727C63.2344 199.336 62.9439 198.946 62.3629 198.946C61.8787 198.946 61.4913 199.336 61.4913 199.727V203.338C61.4913 203.436 61.3945 203.436 61.3945 203.436H61.104C61.0071 203.436 61.0071 203.338 61.0071 203.338V199.727C61.0071 199.043 61.5882 198.458 62.4597 198.458C63.3312 198.458 63.9122 199.043 63.9122 199.727V203.338C63.9122 203.436 63.8154 203.436 63.8154 203.436H63.3312Z" fill="#282829"/>
<path d="M67.4952 202.167C67.4952 202.85 66.8173 203.436 66.0426 203.436C65.2679 203.436 64.5901 202.85 64.5901 202.167V199.531C64.5901 198.848 65.1711 198.262 65.9458 198.262C66.2363 198.262 66.6237 198.36 66.8173 198.555V196.7C66.8173 196.603 66.8173 196.603 66.9142 196.603H67.2047C67.3015 196.603 67.3015 196.7 67.3015 196.7V202.167H67.4952ZM65.1711 202.167C65.1711 202.558 65.5585 202.948 66.0426 202.948C66.5268 202.948 66.9142 202.558 66.9142 202.167V199.531C66.9142 199.141 66.5268 198.75 66.0426 198.75C65.5585 198.75 65.1711 199.141 65.1711 199.531V202.167Z" fill="#282829"/>
<path d="M70.594 198.555C70.594 198.458 70.6908 198.458 70.6908 198.458H70.9813C71.0781 198.458 71.0781 198.458 71.0781 198.555V202.167C71.0781 202.85 70.594 203.436 69.6256 203.436C68.8509 203.436 68.173 202.85 68.173 202.167V198.555C68.173 198.458 68.2699 198.458 68.2699 198.458H68.7541C68.8509 198.458 68.8509 198.555 68.8509 198.555V202.167C68.8509 202.655 69.2382 203.046 69.7224 203.046C70.3034 203.046 70.594 202.655 70.594 202.265V198.555Z" fill="#282829"/>
<path d="M74.6611 201.776C74.7579 201.776 74.7579 201.776 74.7579 201.972V202.167C74.7579 202.85 74.1769 203.436 73.4022 203.436C72.6275 203.436 71.9496 202.85 71.9496 202.167V199.531C71.9496 198.848 72.6275 198.262 73.4022 198.262C74.1769 198.262 74.7579 198.848 74.7579 199.531V199.824C74.7579 199.922 74.6611 200.019 74.6611 200.019H74.3706C74.2737 200.019 74.1769 200.019 74.1769 199.922V199.629C74.1769 199.141 73.7895 198.848 73.3054 198.848C72.8212 198.848 72.4338 199.238 72.4338 199.629V202.265C72.4338 202.655 72.8212 203.045 73.3054 203.045C73.7895 203.045 74.1769 202.655 74.1769 202.265V202.069C74.1769 201.972 74.2737 201.874 74.2737 201.874H74.6611V201.776Z" fill="#282829"/>
<path d="M76.6946 203.436C76.1136 203.436 75.7263 203.143 75.7263 202.46V198.945H75.2421C75.2421 198.945 75.1453 198.945 75.1453 198.848V198.653C75.1453 198.555 75.2421 198.555 75.2421 198.555H75.7263V197.774C75.7263 197.676 75.8231 197.676 75.8231 197.579L76.1136 197.481C76.2105 197.481 76.2105 197.481 76.2105 197.579V198.457H76.9852C77.082 198.457 77.082 198.457 77.082 198.555V198.75C77.082 198.848 77.082 198.848 76.9852 198.848H76.2105V202.362C76.2105 202.655 76.4041 202.85 76.6946 202.85H76.8883C76.9852 202.85 76.9852 202.948 76.9852 202.948V203.143C76.9852 203.143 76.9852 203.241 76.7915 203.241H76.6946V203.436Z" fill="#282829"/>
<path d="M80.5681 202.167C80.5681 202.85 79.8903 203.436 79.1156 203.436C78.3409 203.436 77.663 202.85 77.663 202.167V199.531C77.663 198.848 78.3409 198.262 79.1156 198.262C79.8903 198.262 80.5681 198.848 80.5681 199.531V202.167ZM78.3409 199.629V202.265C78.3409 202.655 78.7282 203.045 79.2124 203.045C79.6966 203.045 80.0839 202.655 80.0839 202.265V199.629C80.0839 199.141 79.6966 198.848 79.2124 198.848C78.6314 198.75 78.3409 199.141 78.3409 199.629Z" fill="#282829"/>
<path d="M83.4732 198.653C83.4732 198.75 83.3764 198.75 83.2796 198.75C83.1827 198.75 82.9891 198.75 82.8922 198.75C82.3112 198.75 81.9239 199.238 81.9239 199.727V203.143C81.9239 203.241 81.827 203.338 81.7302 203.338H81.4397C81.3428 203.338 81.3428 203.241 81.3428 203.241V199.727C81.3428 198.75 82.2144 198.36 82.7954 198.36C82.9891 198.36 83.1827 198.36 83.3764 198.36C83.4732 198.36 83.5701 198.457 83.5701 198.457V198.653H83.4732Z" fill="#282829"/>
<path d="M88.1214 198.653C88.1214 198.75 88.0245 198.75 87.9277 198.75C87.8309 198.75 87.6372 198.75 87.5404 198.75C86.9593 198.75 86.572 199.238 86.572 199.727V203.143C86.572 203.241 86.4751 203.338 86.3783 203.338H86.0878C85.991 203.338 85.991 203.241 85.991 203.241V199.727C85.991 198.75 86.8625 198.36 87.4435 198.36C87.6372 198.36 87.8309 198.36 88.0245 198.36C88.1214 198.36 88.2182 198.457 88.2182 198.457V198.653H88.1214Z" fill="#282829"/>
<path d="M91.2202 202.167C91.2202 202.85 90.6392 203.436 89.8645 203.436C89.0898 203.436 88.4119 202.85 88.4119 202.167V199.531C88.4119 198.848 89.0898 198.262 89.8645 198.262C90.6392 198.262 91.2202 198.848 91.2202 199.531V200.8C91.2202 200.898 91.1233 200.898 91.1233 200.898H88.9929V202.167C88.9929 202.557 89.3803 202.948 89.8645 202.948C90.3487 202.948 90.736 202.557 90.736 202.167V201.972C90.736 201.874 90.8328 201.874 90.8328 201.874H91.1233C91.1233 201.874 91.2202 201.874 91.2202 201.972V202.167ZM88.9929 199.629V200.605H90.736V199.629C90.736 199.141 90.3487 198.848 89.8645 198.848C89.3803 198.75 88.9929 199.141 88.9929 199.629Z" fill="#282829"/>
<path d="M94.1252 199.629C94.1252 199.141 93.7379 198.848 93.2537 198.848C92.7695 198.848 92.479 199.238 92.479 199.629C92.479 200.117 92.6727 200.215 93.3506 200.605C93.9316 200.996 94.7063 201.386 94.7063 202.167C94.7063 202.85 94.1253 203.436 93.3506 203.436C92.3822 203.436 91.898 202.85 91.898 202.167V202.069C91.898 201.972 91.9948 201.972 92.0917 201.972H92.3822C92.479 201.972 92.479 202.069 92.479 202.069V202.265C92.479 202.753 92.8664 203.046 93.3506 203.046C93.8347 203.046 94.2221 202.655 94.2221 202.265C94.2221 201.776 93.8347 201.484 92.9632 200.996C92.479 200.703 91.9948 200.312 91.9948 199.629C91.9948 198.946 92.5759 198.36 93.3506 198.36C94.1253 198.36 94.7063 198.946 94.7063 199.629V199.824C94.7063 199.922 94.7063 199.922 94.6094 199.922H94.3189C94.2221 199.922 94.2221 199.922 94.2221 199.824V199.629H94.1252Z" fill="#282829"/>
<path d="M98.0956 202.167C98.0956 202.85 97.5145 203.436 96.7398 203.436C95.9651 203.436 95.2873 202.85 95.2873 202.167V199.531C95.2873 198.848 95.9651 198.262 96.7398 198.262C97.5145 198.262 98.0956 198.848 98.0956 199.531V200.8C98.0956 200.898 97.9987 200.898 97.9987 200.898H95.8683V202.167C95.8683 202.557 96.2557 202.948 96.7398 202.948C97.224 202.948 97.6114 202.557 97.6114 202.167V201.972C97.6114 201.874 97.7082 201.874 97.7082 201.874H97.9987C97.9987 201.874 98.0956 201.874 98.0956 201.972V202.167ZM95.8683 199.629V200.605H97.6114V199.629C97.6114 199.141 97.224 198.848 96.7398 198.848C96.2557 198.848 95.8683 199.141 95.8683 199.629Z" fill="#282829"/>
<path d="M101.098 200.41V199.629C101.098 199.336 100.807 198.75 100.129 198.75C99.645 198.75 99.4513 198.946 99.2576 199.141H99.1608H99.064L98.9671 198.946C98.9671 198.848 98.9671 198.848 99.064 198.75C99.3545 198.555 99.645 198.36 100.226 198.36C101.098 198.36 101.679 199.043 101.679 199.727V202.265C101.679 203.241 100.807 203.534 100.323 203.534C99.645 203.534 98.7734 203.143 98.7734 202.069V201.972C98.7734 201.093 99.3545 200.507 100.323 200.507H101.098V200.41ZM101.098 200.8H100.517C99.5481 200.8 99.2576 201.288 99.2576 201.874V201.972C99.2576 202.655 99.8386 202.948 100.226 202.948C100.613 202.948 101.098 202.753 101.098 202.069V200.8Z" fill="#282829"/>
<path d="M104.584 198.653C104.584 198.75 104.487 198.75 104.39 198.75C104.293 198.75 104.099 198.75 104.003 198.75C103.422 198.75 103.034 199.238 103.034 199.727V203.143C103.034 203.241 102.937 203.338 102.841 203.338H102.55C102.453 203.338 102.453 203.241 102.453 203.241V199.727C102.453 198.75 103.325 198.36 103.906 198.36C104.099 198.36 104.293 198.36 104.487 198.36C104.584 198.36 104.68 198.457 104.68 198.457V198.653H104.584Z" fill="#282829"/>
<path d="M107.586 201.776C107.682 201.776 107.682 201.776 107.682 201.972V202.167C107.682 202.85 107.101 203.436 106.327 203.436C105.552 203.436 104.874 202.85 104.874 202.167V199.531C104.874 198.848 105.552 198.262 106.327 198.262C107.101 198.262 107.682 198.848 107.682 199.531V199.824C107.682 199.922 107.586 200.019 107.586 200.019H107.295C107.198 200.019 107.101 200.019 107.101 199.922V199.629C107.101 199.141 106.714 198.848 106.23 198.848C105.746 198.848 105.358 199.238 105.358 199.629V202.265C105.358 202.655 105.746 203.045 106.23 203.045C106.714 203.045 107.101 202.655 107.101 202.265V202.069C107.101 201.972 107.198 201.874 107.198 201.874H107.586V201.776Z" fill="#282829"/>
<path d="M111.362 203.241C111.362 203.338 111.265 203.338 111.265 203.338H110.975C110.878 203.338 110.878 203.338 110.878 203.241V199.629C110.878 199.239 110.491 198.848 110.007 198.848C109.522 198.848 109.135 199.239 109.135 199.727V203.241C109.135 203.338 109.135 203.338 108.941 203.338H108.651C108.554 203.338 108.554 203.338 108.554 203.241V196.798C108.554 196.7 108.554 196.7 108.651 196.7H108.941C109.038 196.7 109.038 196.798 109.038 196.798V198.75C109.329 198.458 109.619 198.36 110.007 198.36C110.781 198.36 111.265 198.946 111.265 199.629V203.241H111.362Z" fill="#282829"/>
<path d="M57.4242 135.494V137.934C57.4242 138.13 57.3274 138.325 57.0368 138.325H55.1001C54.9064 138.325 54.6159 138.227 54.6159 137.934V135.787C54.6159 134.127 54.1317 132.956 52.2918 132.858V137.934C52.2918 138.13 52.195 138.325 52.0013 138.325H49.8709C49.6773 138.325 49.4836 138.227 49.4836 137.934V125.244C49.4836 125.049 49.5804 124.854 49.8709 124.854H51.9045C52.0982 124.854 52.2918 124.951 52.2918 125.244V130.418C54.0349 130.32 54.5191 129.149 54.5191 127.489V125.342C54.5191 125.049 54.7128 124.854 55.0033 124.854H56.94C57.2305 124.854 57.3274 125.049 57.3274 125.244V127.782C57.3274 129.442 56.6495 130.711 55.5843 131.589C56.7463 132.468 57.4242 133.834 57.4242 135.494Z" fill="#282829"/>
<path d="M61.2008 132.565C61.2008 132.858 61.0071 132.858 60.9103 132.858H58.9736C58.8767 132.858 58.683 132.76 58.683 132.565V131.003C58.683 130.808 58.8767 130.613 58.9736 130.613H60.9103C61.2008 130.613 61.2008 130.808 61.2008 131.003V132.565Z" fill="#282829"/>
<path d="M70.0129 129.051C70.0129 129.344 69.9161 129.442 69.7224 129.442H67.7857C67.4952 129.442 67.4952 129.344 67.4952 129.051V128.172C67.4952 127.587 67.1078 127.001 66.43 127.001C65.7521 127.001 65.2679 127.489 65.2679 128.172V135.006C65.2679 135.591 65.6553 136.177 66.43 136.177C67.2047 136.177 67.592 135.591 67.592 135.006V133.834C67.592 133.541 67.6889 133.444 67.8825 133.444H69.8193C70.0129 133.444 70.2066 133.541 70.2066 133.834V135.201C70.2066 137.349 68.5604 138.618 66.43 138.618C64.2996 138.618 62.5565 137.349 62.5565 135.201V128.075C62.5565 126.122 64.2027 124.658 66.43 124.658C68.9477 124.658 70.1098 126.415 70.1098 128.075V129.051H70.0129Z" fill="#282829"/>
<path d="M78.7283 124.951C78.922 124.951 79.1156 125.049 79.1156 125.342V138.032C79.1156 138.227 79.0188 138.422 78.7283 138.422H76.6947C76.501 138.422 76.3074 138.325 76.3074 138.032V132.663H73.9833V138.032C73.9833 138.227 73.8864 138.422 73.5959 138.422H71.4655C71.2719 138.422 71.0782 138.325 71.0782 138.032V125.342C71.0782 125.146 71.175 124.951 71.4655 124.951H73.5959C73.7896 124.951 73.9833 125.049 73.9833 125.342V130.32H76.3074V125.342C76.3074 125.146 76.4042 124.951 76.6947 124.951H78.7283Z" fill="#282829"/>
<path d="M83.3764 138.032C83.3764 138.227 83.2796 138.422 82.9891 138.422H80.8587C80.665 138.422 80.4713 138.325 80.4713 138.032V125.342C80.4713 125.146 80.5682 124.951 80.8587 124.951H82.9891C83.1827 124.951 83.3764 125.049 83.3764 125.342V138.032Z" fill="#282829"/>
<path d="M84.9258 125.342C84.9258 125.146 85.0227 124.951 85.3132 124.951H88.993C91.1234 124.951 92.7696 126.513 92.7696 128.465V131.589C92.7696 133.542 91.1234 135.103 88.993 135.103H87.7341V138.032C87.7341 138.227 87.6372 138.422 87.3467 138.422H85.2163C85.0227 138.422 84.829 138.325 84.829 138.032V125.342H84.9258ZM89.9613 128.465C89.9613 127.782 89.4771 127.294 88.7993 127.294H87.7341V132.663H88.7993C89.4771 132.663 89.9613 132.175 89.9613 131.492V128.465Z" fill="#282829"/>
<path d="M98.1925 128.27C98.1925 127.587 97.8051 127.001 97.0304 127.001C96.5462 127.001 95.8684 127.294 95.8684 128.27C95.8684 129.149 96.4494 129.637 97.4178 130.32C99.3545 131.687 100.904 132.761 100.904 135.201C100.904 137.056 99.3545 138.618 97.0304 138.618C94.5127 138.618 93.2538 136.958 93.2538 135.103V134.615C93.2538 134.322 93.3506 134.127 93.6411 134.127H95.5779C95.8684 134.127 95.9652 134.225 95.9652 134.518V134.908C95.9652 135.884 96.6431 136.177 97.1273 136.177C97.8051 136.177 98.2893 135.689 98.2893 135.006C98.2893 134.03 97.7083 133.639 96.4494 132.663C94.2221 131.003 93.2538 130.418 93.2538 128.172C93.2538 125.634 95.481 124.658 96.9336 124.658C99.064 124.658 100.613 126.025 100.613 128.172V128.758C100.613 129.051 100.517 129.149 100.226 129.149H98.3861C98.0956 129.149 98.0956 129.051 98.0956 128.758V128.27H98.1925Z" fill="#282829"/>
<path d="M149.903 0.0976562H0.0968628V249.805H149.903V0.0976562Z" stroke="#010101" stroke-width="0.25" stroke-miterlimit="10" stroke-linecap="round" stroke-linejoin="round"/>
<path fill-rule="evenodd" clip-rule="evenodd" d="M44.9323 91.4682C40.6714 75.5565 50.0646 59.2542 65.849 54.959C81.6334 50.6638 97.8051 60.1328 102.066 76.0445C106.327 91.9563 96.9335 108.259 81.1492 112.554C65.3648 116.751 49.1931 107.38 44.9323 91.4682Z" fill="white"/>
<path fill-rule="evenodd" clip-rule="evenodd" d="M88.8961 106.111L71.4655 95.373L61.8787 108.356C67.4952 111.09 73.9832 111.871 80.4713 110.113C83.5701 109.235 86.4752 107.868 88.8961 106.111Z" fill="#FCD60B"/>
<path fill-rule="evenodd" clip-rule="evenodd" d="M99.8386 77.8994L64.2996 87.466L91.4138 104.159C98.4829 97.7159 101.969 87.7588 99.8386 77.8994Z" fill="#ED0874"/>
<path fill-rule="evenodd" clip-rule="evenodd" d="M59.2641 106.794L68.9477 93.7135L60.4261 88.4421L47.8373 91.8588C49.7741 98.3016 53.9381 103.475 59.2641 106.794Z" fill="#0099D8"/>
<path fill-rule="evenodd" clip-rule="evenodd" d="M98.9671 74.8731C94.4158 61.597 80.2776 53.8852 66.5268 57.5947C52.776 61.3042 44.3512 75.0683 47.0627 88.9301L98.9671 74.8731Z" fill="#00B5AF"/>
<path fill-rule="evenodd" clip-rule="evenodd" d="M65.6553 67.6495C65.2679 66.0876 63.6217 65.1114 62.0723 65.5019C60.5229 65.8923 59.5546 67.5519 59.9419 69.1137L61.4913 75.0685C61.8787 76.6303 63.5249 77.6065 65.0743 77.216C66.6236 76.8256 67.592 75.1661 67.2047 73.6042L65.6553 67.6495Z" fill="white"/>
<path fill-rule="evenodd" clip-rule="evenodd" d="M78.0504 64.3304C77.663 62.7685 76.0168 61.7923 74.4674 62.1828C72.918 62.5733 71.9497 64.2328 72.337 65.7947L73.8864 71.7494C74.2737 73.3112 75.92 74.2874 77.4693 73.897C79.0187 73.5065 79.9871 71.847 79.5997 70.2851L78.0504 64.3304Z" fill="white"/>
</g>
<defs>
<clipPath id="clip0_221_10252">
<rect width="150" height="250" fill="white"/>
</clipPath>
</defs>
</svg>
