<svg width="256" height="156" viewBox="0 0 256 156" fill="none" xmlns="http://www.w3.org/2000/svg">
<g clip-path="url(#clip0_221_10642)">
<path d="M255.892 0.108398H0.107544V155.892H255.892V0.108398Z" fill="white" stroke="#010101" stroke-width="0.25" stroke-miterlimit="10" stroke-linecap="round" stroke-linejoin="round"/>
<path d="M95.8387 78.325C95.9462 78.325 95.9462 78.4333 95.9462 78.5416V79.8416C95.9462 80.9249 95.516 81.6833 94.6555 82.0083C95.516 82.3333 95.9462 83.0916 95.9462 84.1749V85.3666C95.9462 85.475 95.9462 85.5833 95.8387 85.5833H95.516C95.4084 85.5833 95.3008 85.475 95.3008 85.3666V84.1749C95.3008 82.9833 94.763 82.2249 93.3647 82.2249H93.042V85.3666C93.042 85.475 93.042 85.5833 92.9345 85.5833H92.6118C92.5042 85.5833 92.5042 85.5833 92.5042 85.4749V78.5416C92.5042 78.4333 92.6118 78.325 92.6118 78.325H92.9345C93.042 78.325 93.042 78.4333 93.042 78.5416V81.7916H93.3647C94.763 81.7916 95.3008 81.0333 95.3008 79.8416V78.5416C95.3008 78.4333 95.4084 78.325 95.516 78.325H95.8387Z" fill="#282829"/>
<path d="M100.034 84.2834C100.034 85.0417 99.3882 85.6917 98.5277 85.6917C97.6672 85.6917 97.0219 85.0417 97.0219 84.2834V81.4667C97.0219 80.7083 97.6672 80.0583 98.5277 80.0583C99.3882 80.0583 100.034 80.7083 100.034 81.4667V84.2834ZM97.5597 81.4667V84.2834C97.5597 84.7167 97.9899 85.15 98.5277 85.15C99.0655 85.15 99.4958 84.7167 99.4958 84.2834V81.4667C99.4958 81.0333 99.0655 80.6 98.5277 80.6C97.8824 80.6 97.5597 81.0333 97.5597 81.4667Z" fill="#282829"/>
<path d="M103.153 80.4918C103.153 80.6002 103.045 80.6001 102.938 80.6001C102.83 80.6001 102.615 80.6001 102.508 80.6001C101.862 80.6001 101.432 81.1418 101.432 81.6835V85.4752C101.432 85.5835 101.324 85.6918 101.217 85.6918H100.894C100.787 85.6918 100.787 85.5835 100.787 85.5835V81.7918C100.787 80.7085 101.647 80.2751 102.4 80.2751C102.615 80.2751 102.83 80.2751 102.938 80.2751C103.045 80.2751 103.153 80.3835 103.153 80.3835V80.4918Z" fill="#282829"/>
<path d="M106.703 84.2834C106.703 85.0417 106.057 85.6917 105.197 85.6917C104.336 85.6917 103.691 85.0417 103.691 84.2834V81.4667C103.691 80.7083 104.336 80.0583 105.197 80.0583C106.057 80.0583 106.703 80.7083 106.703 81.4667V82.875C106.703 82.9833 106.595 82.9833 106.595 82.9833H104.336V84.2834C104.336 84.7167 104.766 85.15 105.304 85.15C105.842 85.15 106.165 84.7167 106.165 84.2834V84.0667C106.165 83.9583 106.272 83.9583 106.272 83.9583H106.595C106.595 83.9583 106.703 83.9583 106.703 84.0667V84.2834ZM104.229 81.4667V82.55H106.057V81.4667C106.057 81.0333 105.627 80.6 105.197 80.6C104.659 80.6 104.229 81.0333 104.229 81.4667Z" fill="#282829"/>
<path d="M109.929 82.3334V81.5751C109.929 81.2501 109.607 80.6001 108.854 80.6001C108.316 80.6001 108.101 80.8168 107.886 81.0334H107.778H107.671L107.563 80.8167C107.563 80.7084 107.563 80.7084 107.671 80.6001C107.993 80.3834 108.316 80.1667 108.961 80.1667C109.929 80.1667 110.467 80.8168 110.467 81.5751V84.3918C110.467 85.4751 109.499 85.8001 108.961 85.8001C108.208 85.8001 107.348 85.3668 107.348 84.2834V84.1751C107.348 83.2001 107.993 82.5501 109.069 82.5501H109.929V82.3334ZM109.929 82.7668H109.284C108.208 82.7668 107.886 83.3084 107.886 83.9584V84.0667C107.886 84.8251 108.531 85.1501 108.961 85.1501C109.284 85.1501 109.929 84.9334 109.929 84.2834V82.7668Z" fill="#282829"/>
<path d="M117.244 80.1668C117.244 80.2751 117.244 80.3835 117.136 80.3835H116.813C116.706 80.3835 116.706 80.3835 116.706 80.1668V79.8418C116.706 79.1918 116.276 78.7585 115.63 78.7585C114.985 78.7585 114.447 79.3001 114.447 79.8418V84.0668C114.447 84.7168 114.985 85.1501 115.63 85.1501C116.276 85.1501 116.813 84.6085 116.813 84.0668V83.6335C116.813 83.5251 116.813 83.4168 116.921 83.4168H117.244C117.351 83.4168 117.351 83.4168 117.351 83.6335V84.0668C117.351 85.0418 116.598 85.6918 115.63 85.6918C114.662 85.6918 113.802 85.0418 113.802 84.0668V79.8418C113.802 78.9751 114.555 78.2168 115.63 78.2168C116.706 78.2168 117.351 78.9751 117.351 79.8418V80.1668H117.244Z" fill="#282829"/>
<path d="M121.224 84.2834C121.224 85.0417 120.578 85.6917 119.718 85.6917C118.857 85.6917 118.212 85.0417 118.212 84.2834V81.4667C118.212 80.7083 118.857 80.0583 119.718 80.0583C120.578 80.0583 121.224 80.7083 121.224 81.4667V84.2834ZM118.642 81.4667V84.2834C118.642 84.7167 119.072 85.15 119.61 85.15C120.148 85.15 120.578 84.7167 120.578 84.2834V81.4667C120.578 81.0333 120.148 80.6 119.61 80.6C119.072 80.6 118.642 81.0333 118.642 81.4667Z" fill="#282829"/>
<path d="M123.59 85.4751C123.59 85.4751 123.59 85.5835 123.375 85.5835H123.052C122.407 85.5835 122.084 85.2585 122.084 84.5001V78.3251C122.084 78.2168 122.084 78.2168 122.192 78.2168H122.514C122.622 78.2168 122.622 78.3251 122.622 78.3251V84.3918C122.622 84.7168 122.837 84.9335 123.16 84.9335H123.375C123.482 84.9335 123.482 85.0418 123.482 85.0418V85.4751H123.59Z" fill="#282829"/>
<path d="M125.849 85.4751C125.849 85.4751 125.849 85.5835 125.634 85.5835H125.311C124.666 85.5835 124.343 85.2585 124.343 84.5001V78.3251C124.343 78.2168 124.343 78.2168 124.45 78.2168H124.773C124.881 78.2168 124.881 78.3251 124.881 78.3251V84.3918C124.881 84.7168 125.096 84.9335 125.419 84.9335H125.634C125.741 84.9335 125.741 85.0418 125.741 85.0418V85.4751H125.849Z" fill="#282829"/>
<path d="M128.968 82.3334V81.5751C128.968 81.2501 128.645 80.6001 127.892 80.6001C127.355 80.6001 127.14 80.8168 126.924 81.0334H126.817H126.709L126.602 80.8167C126.602 80.7084 126.602 80.7084 126.709 80.6001C127.032 80.3834 127.355 80.1667 128 80.1667C128.968 80.1667 129.506 80.8168 129.506 81.5751V84.3918C129.506 85.4751 128.538 85.8001 128 85.8001C127.247 85.8001 126.387 85.3668 126.387 84.2834V84.1751C126.387 83.2001 127.032 82.5501 128.108 82.5501H128.968V82.3334ZM128.968 82.7668H128.323C127.247 82.7668 126.924 83.3084 126.924 83.9584V84.0667C126.924 84.8251 127.57 85.1501 128 85.1501C128.323 85.1501 128.968 84.9334 128.968 84.2834V82.7668Z" fill="#282829"/>
<path d="M133.486 84.2833C133.486 85.0416 132.84 85.6916 131.98 85.6916C131.119 85.6916 130.474 85.0416 130.474 84.2833V78.4333C130.474 78.3249 130.474 78.325 130.581 78.325H130.904C131.012 78.325 131.012 78.4333 131.012 78.4333V80.4916C131.334 80.275 131.657 80.1666 131.98 80.1666C132.84 80.1666 133.486 80.8166 133.486 81.575V84.2833ZM131.012 84.2833C131.012 84.7166 131.442 85.1499 131.98 85.1499C132.518 85.1499 132.948 84.7166 132.948 84.2833V81.4666C132.948 81.0333 132.518 80.5999 131.98 80.5999C131.442 80.5999 131.012 81.0333 131.012 81.4666V84.2833Z" fill="#282829"/>
<path d="M137.358 84.2834C137.358 85.0417 136.713 85.6917 135.852 85.6917C134.992 85.6917 134.346 85.0417 134.346 84.2834V81.4667C134.346 80.7083 134.992 80.0583 135.852 80.0583C136.713 80.0583 137.358 80.7083 137.358 81.4667V84.2834ZM134.884 81.4667V84.2834C134.884 84.7167 135.314 85.15 135.852 85.15C136.39 85.15 136.82 84.7167 136.82 84.2834V81.4667C136.82 81.0333 136.39 80.6 135.852 80.6C135.314 80.6 134.884 81.0333 134.884 81.4667Z" fill="#282829"/>
<path d="M140.585 80.4918C140.585 80.6002 140.477 80.6001 140.37 80.6001C140.262 80.6001 140.047 80.6001 139.94 80.6001C139.294 80.6001 138.864 81.1418 138.864 81.6835V85.4752C138.864 85.5835 138.756 85.6918 138.649 85.6918H138.326C138.219 85.6918 138.219 85.5835 138.219 85.5835V81.7918C138.219 80.7085 139.079 80.2751 139.832 80.2751C140.047 80.2751 140.262 80.2751 140.37 80.2751C140.477 80.2751 140.585 80.3835 140.585 80.3835V80.4918Z" fill="#282829"/>
<path d="M143.382 82.3334V81.5751C143.382 81.2501 143.059 80.6001 142.306 80.6001C141.768 80.6001 141.553 80.8168 141.338 81.0334H141.23H141.123L141.015 80.8167C141.015 80.7084 141.015 80.7084 141.123 80.6001C141.445 80.3834 141.66 80.1667 142.413 80.1667C143.382 80.1667 143.919 80.8168 143.919 81.5751V84.3918C143.919 85.4751 142.951 85.8001 142.413 85.8001C141.66 85.8001 140.8 85.3668 140.8 84.2834V84.1751C140.8 83.2001 141.445 82.5501 142.521 82.5501H143.382V82.3334ZM143.382 82.7668H142.736C141.66 82.7668 141.338 83.3084 141.338 83.9584V84.0667C141.338 84.8251 141.983 85.1501 142.413 85.1501C142.736 85.1501 143.382 84.9334 143.382 84.2834V82.7668Z" fill="#282829"/>
<path d="M146.178 85.5834C145.533 85.5834 145.21 85.2584 145.21 84.5001V80.6001H144.672C144.672 80.6001 144.565 80.6001 144.565 80.4918V80.2751C144.565 80.1668 144.672 80.1668 144.672 80.1668H145.21V79.3001C145.21 79.1918 145.318 79.1918 145.318 79.0834L145.64 78.9751C145.748 78.9751 145.748 78.9751 145.748 79.0834V80.1668H146.608C146.716 80.1668 146.716 80.1668 146.716 80.2751V80.4918C146.716 80.6001 146.716 80.6001 146.608 80.6001H145.748V84.5001C145.748 84.8251 145.963 85.0418 146.286 85.0418H146.501C146.608 85.0418 146.608 85.1501 146.608 85.1501V85.3668C146.608 85.3668 146.608 85.4751 146.393 85.4751H146.178V85.5834Z" fill="#282829"/>
<path d="M148.114 79.4084C148.114 79.5168 148.007 79.5168 148.007 79.5168H147.576C147.469 79.5168 147.361 79.5168 147.361 79.4084V79.0834C147.361 78.9751 147.361 78.9751 147.469 78.9751H147.899C148.007 78.9751 148.007 78.9751 148.007 79.0834V79.4084H148.114ZM147.469 80.3834C147.469 80.2751 147.469 80.2751 147.576 80.2751H147.899C148.007 80.2751 148.007 80.3834 148.007 80.3834V85.4751C148.007 85.5834 148.007 85.5834 147.899 85.5834H147.576C147.469 85.5834 147.469 85.4751 147.469 85.4751V80.3834Z" fill="#282829"/>
<path d="M150.588 84.5001L151.664 80.3835C151.664 80.2751 151.771 80.2751 151.879 80.2751H152.202C152.309 80.2751 152.309 80.3835 152.309 80.4918L150.911 85.5835C150.911 85.6918 150.803 85.6918 150.803 85.6918H150.481C150.373 85.6918 150.373 85.6918 150.373 85.5835L148.975 80.4918C148.975 80.3835 149.082 80.2751 149.082 80.2751H149.405C149.513 80.2751 149.513 80.2751 149.513 80.3835L150.588 84.5001Z" fill="#282829"/>
<path d="M155.644 84.2834C155.644 85.0417 154.998 85.6917 154.138 85.6917C153.277 85.6917 152.632 85.0417 152.632 84.2834V81.4667C152.632 80.7083 153.277 80.0583 154.138 80.0583C154.998 80.0583 155.644 80.7083 155.644 81.4667V82.875C155.644 82.9833 155.536 82.9833 155.536 82.9833H153.277V84.2834C153.277 84.7167 153.708 85.15 154.245 85.15C154.783 85.15 155.106 84.7167 155.106 84.2834V84.0667C155.106 83.9583 155.213 83.9583 155.213 83.9583H155.536C155.536 83.9583 155.644 83.9583 155.644 84.0667V84.2834ZM153.277 81.4667V82.55H155.106V81.4667C155.106 81.0333 154.676 80.6 154.245 80.6C153.708 80.6 153.277 81.0333 153.277 81.4667Z" fill="#282829"/>
<path d="M161.56 80.7084C161.667 80.7084 161.667 80.8167 161.667 80.8167V81.4667H162.313C162.42 81.4667 162.42 81.4667 162.42 81.5751V81.7917C162.42 81.9001 162.42 81.9001 162.313 81.9001H161.667V84.0667C161.667 84.9334 161.022 85.5834 160.054 85.5834C159.086 85.5834 158.44 85.0417 158.44 84.0667V82.7667C158.44 82.1167 158.763 81.7917 159.193 81.5751C158.871 81.3584 158.548 80.9251 158.548 80.3834V79.6251C158.548 78.5417 159.408 78.1084 160.054 78.1084C160.807 78.1084 161.56 78.4334 161.56 79.6251C161.56 79.7334 161.56 79.8417 161.452 79.8417H161.129C161.022 79.8417 161.022 79.7334 161.022 79.6251C161.022 78.8667 160.699 78.6501 160.161 78.6501C159.731 78.6501 159.193 78.8667 159.193 79.6251V80.4917C159.193 80.9251 159.408 81.4667 159.839 81.4667H161.022V80.8167C161.022 80.8167 161.022 80.7084 161.129 80.7084H161.56ZM161.129 82.0084H159.946C159.301 82.0084 159.086 82.5501 159.086 82.8751V84.1751C159.086 84.9334 159.516 85.1501 160.161 85.1501C160.699 85.1501 161.129 84.8251 161.129 84.1751V82.0084Z" fill="#282829"/>
<path d="M169.089 78.325C169.197 78.325 169.197 78.4333 169.197 78.5416V85.4749C169.197 85.5833 169.197 85.6916 169.089 85.6916H168.766C168.659 85.6916 168.659 85.5833 168.659 85.4749V82.2249H166.292V85.4749C166.292 85.5833 166.292 85.6916 166.185 85.6916H165.862C165.755 85.6916 165.755 85.5833 165.755 85.4749V78.5416C165.755 78.4333 165.755 78.325 165.862 78.325H166.185C166.292 78.325 166.292 78.4333 166.292 78.5416V81.6833H168.659V78.5416C168.659 78.4333 168.659 78.325 168.766 78.325H169.089Z" fill="#282829"/>
<path d="M171.133 79.4084C171.133 79.5168 171.025 79.5168 171.025 79.5168H170.595C170.487 79.5168 170.38 79.5168 170.38 79.4084V79.0834C170.38 78.9751 170.38 78.9751 170.487 78.9751H170.918C171.025 78.9751 171.025 78.9751 171.025 79.0834V79.4084H171.133ZM170.487 80.3834C170.487 80.2751 170.487 80.2751 170.595 80.2751H170.918C171.025 80.2751 171.025 80.3834 171.025 80.3834V85.4751C171.025 85.5834 171.025 85.5834 170.918 85.5834H170.595C170.487 85.5834 170.487 85.4751 170.487 85.4751V80.3834Z" fill="#282829"/>
<path d="M173.929 85.2583C174.79 85.2583 175.328 85.475 175.328 86.3417V87.2083C175.328 87.3167 175.328 87.3167 175.22 87.3167H174.898C174.79 87.3167 174.79 87.2083 174.79 87.2083V86.45C174.79 85.9084 174.467 85.6917 173.929 85.6917H173.176H173.069C172.424 85.6917 171.993 85.15 171.993 84.7167V84.6083C171.993 84.175 172.208 83.85 172.424 83.6333C172.208 83.4167 172.101 83.0917 172.101 82.6584V81.4667C172.101 80.6 172.746 80.0583 173.607 80.0583C173.822 80.0583 174.037 80.0583 174.145 80.1667H175.22C175.328 80.1667 175.435 80.275 175.435 80.275V80.4917C175.435 80.6 175.435 80.6 175.22 80.6H174.898C175.113 80.8167 175.22 81.1417 175.22 81.4667V82.6584C175.22 83.525 174.575 84.0667 173.714 84.0667C173.392 84.0667 173.176 83.9583 172.961 83.85C172.746 84.0667 172.746 84.175 172.746 84.5C172.746 84.825 173.069 85.15 173.392 85.15H173.929V85.2583ZM174.467 81.4667C174.467 81.0333 174.037 80.6 173.499 80.6C172.961 80.6 172.531 81.0333 172.531 81.4667V82.7667C172.531 83.2 172.961 83.6333 173.499 83.6333C174.037 83.6333 174.467 83.2 174.467 82.7667V81.4667Z" fill="#282829"/>
<path d="M179.308 85.4749C179.308 85.5833 179.2 85.5833 179.2 85.5833H178.877C178.77 85.5833 178.77 85.5833 178.77 85.4749V81.4666C178.77 81.0333 178.34 80.5999 177.802 80.5999C177.264 80.5999 176.834 81.0333 176.834 81.575V85.4749C176.834 85.5833 176.834 85.5833 176.618 85.5833H176.403C176.296 85.5833 176.296 85.5833 176.296 85.4749V78.4333C176.296 78.3249 176.296 78.325 176.403 78.325H176.726C176.834 78.325 176.834 78.4333 176.834 78.4333V80.4916C177.049 80.275 177.479 80.0583 177.909 80.0583C178.77 80.0583 179.308 80.7083 179.308 81.4666V85.4749Z" fill="#282829"/>
<path d="M182.75 82.0083C182.75 82.1167 182.642 82.1167 182.642 82.1167H180.383C180.276 82.1167 180.276 82.1167 180.276 82.0083V81.7917C180.276 81.6833 180.383 81.6833 180.383 81.6833H182.642C182.75 81.6833 182.75 81.6833 182.75 81.7917V82.0083Z" fill="#282829"/>
<path d="M184.901 85.5834C184.255 85.5834 183.933 85.2584 183.933 84.5001V80.6001H183.395C183.395 80.6001 183.287 80.6001 183.287 80.4918V80.2751C183.287 80.1668 183.395 80.1668 183.395 80.1668H183.933V79.3001C183.933 79.1918 184.04 79.1918 184.04 79.0834L184.363 78.9751C184.471 78.9751 184.471 78.9751 184.471 79.0834V80.1668H185.331C185.439 80.1668 185.439 80.1668 185.439 80.2751V80.4918C185.439 80.6001 185.439 80.6001 185.331 80.6001H184.471V84.5001C184.471 84.8251 184.686 85.0418 185.008 85.0418H185.224C185.331 85.0418 185.331 85.1501 185.331 85.1501V85.3668C185.331 85.3668 185.331 85.4751 185.116 85.4751H184.901V85.5834Z" fill="#282829"/>
<path d="M189.096 84.2834C189.096 85.0417 188.45 85.6917 187.59 85.6917C186.729 85.6917 186.084 85.0417 186.084 84.2834V81.4667C186.084 80.7083 186.729 80.0583 187.59 80.0583C188.45 80.0583 189.096 80.7083 189.096 81.4667V82.875C189.096 82.9833 188.988 82.9833 188.988 82.9833H186.729V84.2834C186.729 84.7167 187.16 85.15 187.697 85.15C188.235 85.15 188.558 84.7167 188.558 84.2834V84.0667C188.558 83.9583 188.666 83.9583 188.666 83.9583H188.988C188.988 83.9583 189.096 83.9583 189.096 84.0667V84.2834ZM186.729 81.4667V82.55H188.558V81.4667C188.558 81.0333 188.128 80.6 187.697 80.6C187.267 80.6 186.729 81.0333 186.729 81.4667Z" fill="#282829"/>
<path d="M192.753 83.9584C192.861 83.9584 192.861 83.9584 192.861 84.1751V84.3918C192.861 85.1501 192.215 85.8001 191.355 85.8001C190.494 85.8001 189.849 85.1501 189.849 84.3918V81.5751C189.849 80.8168 190.494 80.1667 191.355 80.1667C192.215 80.1667 192.861 80.8168 192.861 81.5751V81.9001C192.861 82.0084 192.753 82.1168 192.753 82.1168H192.538C192.43 82.1168 192.43 82.1167 192.43 82.0084V81.6834C192.43 81.2501 192.108 80.8167 191.57 80.8167C191.032 80.8167 190.602 81.2501 190.602 81.6834V84.5001C190.602 84.9334 191.032 85.3668 191.57 85.3668C192.108 85.3668 192.43 84.9334 192.43 84.5001V84.2834C192.43 84.1751 192.538 84.0667 192.538 84.0667H192.753V83.9584Z" fill="#282829"/>
<path d="M196.84 85.4749C196.84 85.5833 196.733 85.5833 196.733 85.5833H196.41C196.303 85.5833 196.303 85.5833 196.303 85.4749V81.4666C196.303 81.0333 195.872 80.5999 195.334 80.5999C194.797 80.5999 194.366 81.0333 194.366 81.575V85.4749C194.366 85.5833 194.366 85.5833 194.151 85.5833H193.829C193.721 85.5833 193.721 85.5833 193.721 85.4749V78.4333C193.721 78.3249 193.721 78.325 193.829 78.325H194.151C194.259 78.325 194.259 78.4333 194.259 78.4333V80.4916C194.474 80.275 194.904 80.0583 195.334 80.0583C196.195 80.0583 196.733 80.7083 196.733 81.4666V85.4749H196.84Z" fill="#282829"/>
<path d="M200.928 85.4749C200.928 85.5833 200.928 85.6916 200.82 85.6916H200.498C200.39 85.6916 200.39 85.5833 200.39 85.4749V78.5416C200.39 78.4333 200.39 78.325 200.498 78.325H200.82C200.928 78.325 200.928 78.4333 200.928 78.5416V85.4749Z" fill="#282829"/>
<path d="M204.8 85.5835C204.692 85.5835 204.692 85.5835 204.692 85.4752V81.5752C204.692 81.1418 204.37 80.7085 203.724 80.7085C203.187 80.7085 202.756 81.1418 202.756 81.5752V85.5835C202.756 85.6918 202.649 85.6918 202.649 85.6918H202.326C202.219 85.6918 202.219 85.5835 202.219 85.5835V81.6835C202.219 80.9251 202.864 80.2751 203.724 80.2751C204.692 80.2751 205.23 80.9251 205.23 81.6835V85.5835C205.23 85.6918 205.123 85.6918 205.123 85.6918H204.8V85.5835Z" fill="#282829"/>
<path d="M207.059 79.4084C207.059 79.5168 206.951 79.5168 206.951 79.5168H206.521C206.413 79.5168 206.306 79.5168 206.306 79.4084V79.0834C206.306 78.9751 206.306 78.9751 206.413 78.9751H206.844C206.951 78.9751 206.951 78.9751 206.951 79.0834V79.4084H207.059ZM206.306 80.3834C206.306 80.2751 206.306 80.2751 206.413 80.2751H206.736C206.844 80.2751 206.844 80.3834 206.844 80.3834V85.4751C206.844 85.5834 206.844 85.5834 206.736 85.5834H206.521C206.413 85.5834 206.413 85.4751 206.413 85.4751V80.3834H206.306Z" fill="#282829"/>
<path d="M209.21 85.5835C208.565 85.5835 208.242 85.2585 208.242 84.5002V80.6002H207.704C207.704 80.6002 207.597 80.6002 207.597 80.4918V80.2752C207.597 80.1668 207.704 80.1668 207.704 80.1668H208.242V79.3002C208.242 79.1918 208.35 79.1918 208.35 79.0835H208.672C208.78 79.0835 208.78 79.0835 208.78 79.1918V80.1668H209.64C209.748 80.1668 209.748 80.1668 209.748 80.2752V80.4918C209.748 80.6002 209.748 80.6002 209.64 80.6002H208.78V84.5002C208.78 84.8252 208.995 85.0418 209.318 85.0418H209.533C209.64 85.0418 209.64 85.1502 209.64 85.1502V85.3668C209.64 85.3668 209.64 85.4752 209.425 85.4752H209.21V85.5835Z" fill="#282829"/>
<path d="M211.146 79.4084C211.146 79.5168 211.039 79.5168 211.039 79.5168H210.608C210.501 79.5168 210.393 79.5168 210.393 79.4084V79.0834C210.393 78.9751 210.393 78.9751 210.501 78.9751H210.931C211.039 78.9751 211.039 78.9751 211.039 79.0834V79.4084H211.146ZM210.501 80.3834C210.501 80.2751 210.501 80.2751 210.608 80.2751H210.931C211.039 80.2751 211.039 80.3834 211.039 80.3834V85.4751C211.039 85.5834 211.039 85.5834 210.931 85.5834H210.608C210.501 85.5834 210.501 85.4751 210.501 85.4751V80.3834Z" fill="#282829"/>
<path d="M214.481 82.3334V81.5751C214.481 81.2501 214.158 80.6001 213.405 80.6001C212.867 80.6001 212.652 80.8168 212.437 81.0334H212.329H212.222L212.114 80.8167C212.114 80.7084 212.114 80.7084 212.222 80.6001C212.545 80.3834 212.76 80.1667 213.513 80.1667C214.481 80.1667 215.018 80.8168 215.018 81.5751V84.3918C215.018 85.4751 214.05 85.8001 213.513 85.8001C212.76 85.8001 211.899 85.3668 211.899 84.2834V84.1751C211.899 83.2001 212.545 82.5501 213.62 82.5501H214.481V82.3334ZM214.481 82.7668H213.835C212.76 82.7668 212.437 83.3084 212.437 83.9584V84.0667C212.437 84.8251 213.082 85.1501 213.513 85.1501C213.835 85.1501 214.481 84.9334 214.481 84.2834V82.7668Z" fill="#282829"/>
<path d="M217.277 85.5834C216.632 85.5834 216.309 85.2584 216.309 84.5001V80.6001H215.771C215.771 80.6001 215.664 80.6001 215.664 80.4918V80.2751C215.664 80.1668 215.771 80.1668 215.771 80.1668H216.309V79.3001C216.309 79.1918 216.417 79.1918 216.417 79.0834L216.74 78.9751C216.847 78.9751 216.847 78.9751 216.847 79.0834V80.1668H217.708C217.815 80.1668 217.815 80.1668 217.815 80.2751V80.4918C217.815 80.6001 217.815 80.6001 217.708 80.6001H216.847V84.5001C216.847 84.8251 217.062 85.0418 217.385 85.0418H217.6C217.708 85.0418 217.708 85.1501 217.708 85.1501V85.3668C217.708 85.3668 217.708 85.4751 217.492 85.4751H217.277V85.5834Z" fill="#282829"/>
<path d="M219.106 79.4084C219.106 79.5168 218.998 79.5168 218.998 79.5168H218.568C218.461 79.5168 218.353 79.5168 218.353 79.4084V79.0834C218.353 78.9751 218.353 78.9751 218.461 78.9751H218.891C218.998 78.9751 218.998 78.9751 218.998 79.0834V79.4084H219.106ZM218.461 80.3834C218.461 80.2751 218.461 80.2751 218.568 80.2751H218.891C218.998 80.2751 218.998 80.3834 218.998 80.3834V85.4751C218.998 85.5834 218.998 85.5834 218.891 85.5834H218.568C218.461 85.5834 218.461 85.4751 218.461 85.4751V80.3834Z" fill="#282829"/>
<path d="M221.687 84.5001L222.763 80.3835C222.763 80.2751 222.871 80.2751 222.978 80.2751H223.301C223.408 80.2751 223.408 80.3835 223.408 80.4918L222.01 85.5835C222.01 85.6918 221.903 85.6918 221.903 85.6918H221.58C221.472 85.6918 221.472 85.6918 221.472 85.5835L220.074 80.4918C220.074 80.3835 220.182 80.2751 220.182 80.2751H220.504C220.612 80.2751 220.612 80.2751 220.612 80.3835L221.687 84.5001Z" fill="#282829"/>
<path d="M226.743 84.2834C226.743 85.0417 226.097 85.6917 225.237 85.6917C224.376 85.6917 223.731 85.0417 223.731 84.2834V81.4667C223.731 80.7083 224.376 80.0583 225.237 80.0583C226.097 80.0583 226.743 80.7083 226.743 81.4667V82.875C226.743 82.9833 226.635 82.9833 226.635 82.9833H224.376V84.2834C224.376 84.7167 224.807 85.15 225.345 85.15C225.882 85.15 226.205 84.7167 226.205 84.2834V84.0667C226.205 83.9583 226.313 83.9583 226.313 83.9583H226.635C226.635 83.9583 226.743 83.9583 226.743 84.0667V84.2834ZM224.376 81.4667V82.55H226.205V81.4667C226.205 81.0333 225.775 80.6 225.345 80.6C224.699 80.6 224.376 81.0333 224.376 81.4667Z" fill="#282829"/>
<path d="M94.0101 91.325C94.1176 91.325 94.1176 91.325 94.1176 91.4333V91.65C94.1176 91.7583 94.0101 91.7583 94.0101 91.7583H93.042V96.525C93.042 96.6333 93.042 96.6333 92.9345 96.6333H92.6118C92.5042 96.6333 92.5042 96.525 92.5042 96.525V91.7583H91.9664C91.8588 91.7583 91.8588 91.7583 91.8588 91.65V91.4333C91.8588 91.325 91.9664 91.325 91.9664 91.325H92.5042V90.8917C92.5042 89.7 93.042 89.375 93.9025 89.375C94.0101 89.375 94.1176 89.375 94.1176 89.4833V89.7C94.1176 89.8083 94.0101 89.8083 93.9025 89.8083C93.2571 89.8083 93.042 90.025 93.042 90.8917V91.2167H94.0101V91.325Z" fill="#282829"/>
<path d="M97.6672 95.4416C97.6672 96.1999 97.0218 96.8499 96.1613 96.8499C95.3008 96.8499 94.6555 96.1999 94.6555 95.4416V92.6249C94.6555 91.8666 95.3008 91.2166 96.1613 91.2166C97.0218 91.2166 97.6672 91.8666 97.6672 92.6249V95.4416ZM95.1933 92.6249V95.4416C95.1933 95.8749 95.6235 96.3082 96.1613 96.3082C96.6992 96.3082 97.1294 95.8749 97.1294 95.4416V92.6249C97.1294 92.1916 96.6992 91.7582 96.1613 91.7582C95.6235 91.7582 95.1933 92.0832 95.1933 92.6249Z" fill="#282829"/>
<path d="M100.894 91.65C100.894 91.7583 100.787 91.7583 100.679 91.7583C100.571 91.7583 100.356 91.7583 100.249 91.7583C99.6034 91.7583 99.1731 92.3 99.1731 92.8417V96.6333C99.1731 96.7417 99.0656 96.85 98.958 96.85H98.6353C98.5278 96.85 98.5278 96.7417 98.5278 96.7417V92.95C98.5278 91.8667 99.3883 91.4333 100.141 91.4333C100.356 91.4333 100.571 91.4333 100.679 91.4333C100.787 91.4333 100.894 91.5417 100.894 91.5417V91.65Z" fill="#282829"/>
<path d="M103.798 89.5917C103.798 89.4833 103.906 89.375 104.013 89.375H105.627C106.703 89.375 107.348 90.1333 107.348 91.1083V92.625C107.348 93.6 106.595 94.3583 105.627 94.3583H104.444V96.4167C104.444 96.525 104.444 96.6333 104.336 96.6333H104.013C103.906 96.6333 103.906 96.525 103.906 96.4167V89.5917H103.798ZM106.81 91.2167C106.81 90.5667 106.38 90.025 105.627 90.025H104.444V93.925H105.627C106.38 93.925 106.81 93.3833 106.81 92.7333V91.2167Z" fill="#282829"/>
<path d="M110.467 91.65C110.467 91.7583 110.36 91.7583 110.252 91.7583C110.145 91.7583 109.929 91.7583 109.822 91.7583C109.176 91.7583 108.746 92.3 108.746 92.8417V96.6333C108.746 96.7417 108.639 96.85 108.531 96.85H108.208C108.101 96.85 108.101 96.7417 108.101 96.7417V92.95C108.101 91.8667 108.961 91.4333 109.714 91.4333C109.929 91.4333 110.145 91.4333 110.252 91.4333C110.36 91.4333 110.467 91.5417 110.467 91.5417V91.65Z" fill="#282829"/>
<path d="M113.909 95.4416C113.909 96.1999 113.264 96.8499 112.403 96.8499C111.543 96.8499 110.897 96.1999 110.897 95.4416V92.6249C110.897 91.8666 111.543 91.2166 112.403 91.2166C113.264 91.2166 113.909 91.8666 113.909 92.6249V95.4416ZM111.435 92.6249V95.4416C111.435 95.8749 111.866 96.3082 112.403 96.3082C112.941 96.3082 113.371 95.8749 113.371 95.4416V92.6249C113.371 92.1916 112.941 91.7582 112.403 91.7582C111.866 91.7582 111.435 92.0832 111.435 92.6249Z" fill="#282829"/>
<path d="M117.029 92.6249C117.029 92.1916 116.598 91.7582 116.061 91.7582C115.523 91.7582 115.2 92.1916 115.2 92.6249C115.2 93.1666 115.415 93.2749 116.168 93.7082C116.813 94.1416 117.674 94.5749 117.674 95.4416C117.674 96.1999 117.029 96.8499 116.168 96.8499C115.092 96.8499 114.555 96.1999 114.555 95.4416V95.2249C114.555 95.1166 114.662 95.1166 114.77 95.1166H115.092C115.2 95.1166 115.2 95.2249 115.2 95.2249V95.4416C115.2 95.8749 115.63 96.3082 116.168 96.3082C116.706 96.3082 117.136 95.8749 117.136 95.4416C117.136 95.0082 116.706 94.6832 115.845 94.0332C115.308 93.7082 114.77 93.2749 114.77 92.6249C114.77 91.8666 115.415 91.2166 116.276 91.2166C117.136 91.2166 117.782 91.8666 117.782 92.6249V92.8416C117.782 92.9499 117.782 92.9499 117.674 92.9499H117.244C117.136 92.9499 117.136 92.9499 117.136 92.8416V92.6249H117.029Z" fill="#282829"/>
<path d="M121.546 95.4416C121.546 96.1999 120.901 96.8499 120.04 96.8499C119.718 96.8499 119.287 96.7416 119.072 96.5249V98.3666C119.072 98.4749 119.072 98.4749 118.965 98.4749H118.642C118.534 98.4749 118.534 98.3666 118.534 98.3666V92.6249C118.534 91.8666 119.18 91.2166 120.04 91.2166C120.901 91.2166 121.546 91.8666 121.546 92.6249V95.4416ZM119.072 95.4416C119.072 95.8749 119.503 96.3082 120.04 96.3082C120.578 96.3082 121.008 95.8749 121.008 95.4416V92.6249C121.008 92.1916 120.578 91.7582 120.04 91.7582C119.503 91.7582 119.072 92.1916 119.072 92.6249V95.4416Z" fill="#282829"/>
<path d="M125.418 95.4416C125.418 96.1999 124.773 96.8499 123.913 96.8499C123.052 96.8499 122.407 96.1999 122.407 95.4416V92.6249C122.407 91.8666 123.052 91.2166 123.913 91.2166C124.773 91.2166 125.418 91.8666 125.418 92.6249V94.0332C125.418 94.1416 125.311 94.1416 125.311 94.1416H123.052V95.4416C123.052 95.8749 123.482 96.3082 124.02 96.3082C124.558 96.3082 124.881 95.8749 124.881 95.4416V95.2249C124.881 95.1166 124.988 95.1166 124.988 95.1166H125.311C125.311 95.1166 125.418 95.1166 125.418 95.2249V95.4416ZM122.945 92.6249V93.7082H124.773V92.6249C124.773 92.1916 124.343 91.7582 123.913 91.7582C123.375 91.7582 122.945 92.0832 122.945 92.6249Z" fill="#282829"/>
<path d="M129.076 95.0082C129.183 95.0082 129.183 95.0082 129.183 95.2249V95.4416C129.183 96.1999 128.538 96.8499 127.677 96.8499C126.817 96.8499 126.171 96.1999 126.171 95.4416V92.6249C126.171 91.8666 126.817 91.2166 127.677 91.2166C128.538 91.2166 129.183 91.8666 129.183 92.6249V92.9499C129.183 93.0582 129.076 93.1666 129.076 93.1666H128.753C128.645 93.1666 128.645 93.1666 128.645 93.0582V92.7332C128.645 92.2999 128.323 91.8666 127.785 91.8666C127.247 91.8666 126.817 92.2999 126.817 92.7332V95.5499C126.817 95.9832 127.247 96.4166 127.785 96.4166C128.323 96.4166 128.645 95.9832 128.645 95.5499V95.3332C128.645 95.2249 128.753 95.1166 128.753 95.1166H129.076V95.0082Z" fill="#282829"/>
<path d="M131.334 96.7416C130.689 96.7416 130.366 96.4166 130.366 95.6583V91.7583H129.829C129.829 91.7583 129.721 91.7583 129.721 91.65V91.4333C129.721 91.325 129.829 91.325 129.829 91.325H130.366V90.4583C130.366 90.35 130.474 90.35 130.474 90.2416L130.797 90.1333C130.904 90.1333 130.904 90.1333 130.904 90.2416V91.2166H131.765C131.872 91.2166 131.872 91.2166 131.872 91.325V91.5416C131.872 91.65 131.872 91.65 131.765 91.65H130.904V95.55C130.904 95.875 131.119 96.0916 131.442 96.0916H131.657C131.765 96.0916 131.765 96.2 131.765 96.2V96.4166C131.765 96.4166 131.765 96.525 131.55 96.525H131.334V96.7416Z" fill="#282829"/>
<path d="M133.163 90.5666C133.163 90.675 133.055 90.675 133.055 90.675H132.625C132.518 90.675 132.41 90.675 132.41 90.5666V90.2416C132.41 90.1333 132.41 90.1333 132.518 90.1333H132.948C133.055 90.1333 133.055 90.1333 133.055 90.2416V90.5666H133.163ZM132.518 91.4333C132.518 91.325 132.518 91.325 132.625 91.325H132.948C133.055 91.325 133.055 91.4333 133.055 91.4333V96.525C133.055 96.6333 133.055 96.6333 132.948 96.6333H132.625C132.518 96.6333 132.518 96.525 132.518 96.525V91.4333Z" fill="#282829"/>
<path d="M135.745 95.5499L136.82 91.4333C136.82 91.3249 136.928 91.325 137.035 91.325H137.358C137.466 91.325 137.466 91.4333 137.466 91.5416L136.067 96.6333C136.067 96.7416 135.96 96.7416 135.96 96.7416H135.637C135.529 96.7416 135.529 96.7416 135.529 96.6333L134.131 91.5416C134.131 91.4333 134.239 91.325 134.239 91.325H134.561C134.669 91.325 134.669 91.3249 134.669 91.4333L135.745 95.5499Z" fill="#282829"/>
<path d="M140.8 95.4416C140.8 96.1999 140.155 96.8499 139.294 96.8499C138.434 96.8499 137.788 96.1999 137.788 95.4416V92.6249C137.788 91.8666 138.434 91.2166 139.294 91.2166C140.155 91.2166 140.8 91.8666 140.8 92.6249V94.0332C140.8 94.1416 140.692 94.1416 140.692 94.1416H138.434V95.4416C138.434 95.8749 138.864 96.3082 139.402 96.3082C139.94 96.3082 140.262 95.8749 140.262 95.4416V95.2249C140.262 95.1166 140.37 95.1166 140.37 95.1166H140.692C140.692 95.1166 140.8 95.1166 140.8 95.2249V95.4416ZM138.434 92.6249V93.7082H140.262V92.6249C140.262 92.1916 139.832 91.7582 139.402 91.7582C138.756 91.7582 138.434 92.0832 138.434 92.6249Z" fill="#282829"/>
<path d="M146.824 91.0001C146.824 90.4584 146.393 89.9167 145.748 89.9167C145.318 89.9167 144.565 90.1334 144.565 91.1084C144.565 91.8667 145.318 92.3001 145.748 92.7334C146.824 93.6001 147.576 94.0334 147.576 95.3334C147.576 96.2001 146.824 96.9584 145.748 96.9584C144.887 96.9584 144.027 96.3084 144.027 95.2251V95.0084C144.027 94.9001 144.027 94.7917 144.134 94.7917H144.457C144.565 94.7917 144.565 94.9001 144.565 95.0084V95.2251C144.565 96.0917 145.318 96.4167 145.748 96.4167C146.393 96.4167 146.931 95.9834 146.931 95.3334C146.931 94.4667 146.501 94.1417 145.533 93.3834C144.672 92.7334 144.027 92.3001 144.027 91.2167C144.027 89.7001 145.318 89.4834 145.748 89.4834C146.824 89.4834 147.469 90.2417 147.469 91.1084V91.4334C147.469 91.5417 147.469 91.6501 147.361 91.6501H147.039C146.931 91.6501 146.931 91.5417 146.931 91.4334V91.0001H146.824Z" fill="#282829"/>
<path d="M151.341 95.4416C151.341 96.1999 150.696 96.8499 149.835 96.8499C148.975 96.8499 148.329 96.1999 148.329 95.4416V92.6249C148.329 91.8666 148.975 91.2166 149.835 91.2166C150.696 91.2166 151.341 91.8666 151.341 92.6249V94.0332C151.341 94.1416 151.234 94.1416 151.234 94.1416H148.975V95.4416C148.975 95.8749 149.405 96.3082 149.943 96.3082C150.481 96.3082 150.803 95.8749 150.803 95.4416V95.2249C150.803 95.1166 150.911 95.1166 150.911 95.1166H151.234C151.234 95.1166 151.341 95.1166 151.341 95.2249V95.4416ZM148.867 92.6249V93.7082H150.696V92.6249C150.696 92.1916 150.266 91.7582 149.835 91.7582C149.297 91.7582 148.867 92.0832 148.867 92.6249Z" fill="#282829"/>
<path d="M157.15 92.7332C157.15 91.9749 156.504 91.7582 156.182 91.7582H156.074C155.751 91.7582 155.213 91.9749 155.213 92.7332V96.5249C155.213 96.6332 155.213 96.7416 155.106 96.7416H154.783C154.676 96.7416 154.676 96.6332 154.676 96.5249V92.7332C154.676 91.8666 154.03 91.7582 153.708 91.7582C153.385 91.7582 152.847 91.9749 152.847 92.7332V96.5249C152.847 96.5249 152.847 96.7416 152.74 96.7416H152.417C152.309 96.7416 152.309 96.6332 152.309 96.5249V92.7332C152.309 91.5416 153.17 91.2166 153.815 91.2166C154.245 91.2166 154.783 91.4332 155.106 91.8666C155.321 91.3249 155.859 91.2166 156.289 91.2166C157.257 91.2166 157.903 91.8666 157.903 92.7332V96.5249C157.903 96.6332 157.903 96.7416 157.795 96.7416H157.472C157.365 96.7416 157.365 96.6332 157.365 96.5249V92.7332H157.15Z" fill="#282829"/>
<path d="M159.516 90.5666C159.516 90.675 159.408 90.675 159.408 90.675H158.978C158.871 90.675 158.763 90.675 158.763 90.5666V90.2416C158.763 90.1333 158.763 90.1333 158.871 90.1333H159.301C159.408 90.1333 159.408 90.1333 159.408 90.2416V90.5666H159.516ZM158.871 91.4333C158.871 91.325 158.871 91.325 158.978 91.325H159.301C159.408 91.325 159.408 91.4333 159.408 91.4333V96.525C159.408 96.6333 159.408 96.6333 159.301 96.6333H158.978C158.871 96.6333 158.871 96.525 158.871 96.525V91.4333Z" fill="#282829"/>
<path d="M163.281 95.0082C163.388 95.0082 163.388 95.0082 163.388 95.2249V95.4416C163.388 96.1999 162.743 96.8499 161.882 96.8499C161.022 96.8499 160.376 96.1999 160.376 95.4416V92.6249C160.376 91.8666 161.022 91.2166 161.882 91.2166C162.743 91.2166 163.388 91.8666 163.388 92.6249V92.9499C163.388 93.0582 163.281 93.1666 163.281 93.1666H162.958C162.85 93.1666 162.85 93.1666 162.85 93.0582V92.7332C162.85 92.2999 162.528 91.8666 161.99 91.8666C161.452 91.8666 161.022 92.2999 161.022 92.7332V95.5499C161.022 95.9832 161.452 96.4166 161.99 96.4166C162.528 96.4166 162.85 95.9832 162.85 95.5499V95.3332C162.85 95.2249 162.958 95.1166 162.958 95.1166H163.281V95.0082Z" fill="#282829"/>
<path d="M167.261 95.4416C167.261 96.1999 166.615 96.8499 165.755 96.8499C164.894 96.8499 164.249 96.1999 164.249 95.4416V92.6249C164.249 91.8666 164.894 91.2166 165.755 91.2166C166.615 91.2166 167.261 91.8666 167.261 92.6249V95.4416ZM164.787 92.6249V95.4416C164.787 95.8749 165.217 96.3082 165.755 96.3082C166.292 96.3082 166.723 95.8749 166.723 95.4416V92.6249C166.723 92.1916 166.292 91.7582 165.755 91.7582C165.109 91.7582 164.787 92.0832 164.787 92.6249Z" fill="#282829"/>
<path d="M170.81 96.7417C170.703 96.7417 170.703 96.7417 170.703 96.6333V92.7333C170.703 92.3 170.38 91.8667 169.734 91.8667C169.197 91.8667 168.766 92.3 168.766 92.7333V96.7417C168.766 96.85 168.659 96.85 168.659 96.85H168.336C168.229 96.85 168.229 96.7417 168.229 96.7417V92.8417C168.229 92.0833 168.874 91.4333 169.734 91.4333C170.703 91.4333 171.24 92.0833 171.24 92.8417V96.7417C171.24 96.85 171.133 96.85 171.133 96.85H170.81V96.7417Z" fill="#282829"/>
<path d="M175.328 95.4417C175.328 96.2 174.682 96.85 173.822 96.85C172.961 96.85 172.316 96.2 172.316 95.4417V92.625C172.316 91.8667 172.961 91.2167 173.822 91.2167C174.145 91.2167 174.575 91.325 174.79 91.5417V89.4833C174.79 89.375 174.79 89.375 174.898 89.375H175.22C175.328 89.375 175.328 89.4833 175.328 89.4833V95.4417ZM172.854 95.4417C172.854 95.875 173.284 96.3083 173.822 96.3083C174.36 96.3083 174.79 95.875 174.79 95.4417V92.625C174.79 92.1917 174.36 91.7583 173.822 91.7583C173.284 91.7583 172.854 92.1917 172.854 92.625V95.4417Z" fill="#282829"/>
<path d="M178.662 91.4333C178.662 91.3249 178.77 91.325 178.77 91.325H179.092C179.2 91.325 179.2 91.3249 179.2 91.4333V95.3333C179.2 96.0916 178.662 96.7416 177.694 96.7416C176.834 96.7416 176.188 96.0916 176.188 95.3333V91.4333C176.188 91.3249 176.296 91.325 176.296 91.325H176.619C176.726 91.325 176.726 91.4333 176.726 91.4333V95.3333C176.726 95.8749 177.156 96.2 177.694 96.2C178.34 96.2 178.662 95.7666 178.662 95.3333V91.4333Z" fill="#282829"/>
<path d="M183.18 95.0082C183.287 95.0082 183.287 95.0082 183.287 95.2249V95.4416C183.287 96.1999 182.642 96.8499 181.782 96.8499C180.921 96.8499 180.276 96.1999 180.276 95.4416V92.6249C180.276 91.8666 180.921 91.2166 181.782 91.2166C182.642 91.2166 183.287 91.8666 183.287 92.6249V92.9499C183.287 93.0582 183.18 93.1666 183.18 93.1666H182.857C182.75 93.1666 182.75 93.1666 182.75 93.0582V92.7332C182.75 92.2999 182.427 91.8666 181.889 91.8666C181.351 91.8666 180.921 92.2999 180.921 92.7332V95.5499C180.921 95.9832 181.351 96.4166 181.889 96.4166C182.427 96.4166 182.75 95.9832 182.75 95.5499V95.3332C182.75 95.2249 182.857 95.1166 182.857 95.1166H183.18V95.0082Z" fill="#282829"/>
<path d="M185.331 96.7416C184.686 96.7416 184.363 96.4166 184.363 95.6583V91.7583H183.825C183.825 91.7583 183.718 91.7583 183.718 91.65V91.4333C183.718 91.325 183.825 91.325 183.825 91.325H184.363V90.4583C184.363 90.35 184.471 90.35 184.471 90.2416L184.793 90.1333C184.901 90.1333 184.901 90.1333 184.901 90.2416V91.2166H185.761C185.869 91.2166 185.869 91.2166 185.869 91.325V91.5416C185.869 91.65 185.869 91.65 185.761 91.65H184.901V95.55C184.901 95.875 185.116 96.0916 185.439 96.0916H185.654C185.761 96.0916 185.761 96.2 185.761 96.2V96.4166C185.761 96.4166 185.761 96.525 185.546 96.525H185.331V96.7416Z" fill="#282829"/>
<path d="M189.634 95.4416C189.634 96.1999 188.988 96.8499 188.128 96.8499C187.267 96.8499 186.622 96.1999 186.622 95.4416V92.6249C186.622 91.8666 187.267 91.2166 188.128 91.2166C188.988 91.2166 189.634 91.8666 189.634 92.6249V95.4416ZM187.052 92.6249V95.4416C187.052 95.8749 187.482 96.3082 188.02 96.3082C188.558 96.3082 188.988 95.8749 188.988 95.4416V92.6249C188.988 92.1916 188.558 91.7582 188.02 91.7582C187.482 91.7582 187.052 92.0832 187.052 92.6249Z" fill="#282829"/>
<path d="M192.753 91.65C192.753 91.7583 192.645 91.7583 192.538 91.7583C192.43 91.7583 192.215 91.7583 192.108 91.7583C191.462 91.7583 191.032 92.3 191.032 92.8417V96.6333C191.032 96.7417 190.924 96.85 190.817 96.85H190.494C190.387 96.85 190.387 96.7417 190.387 96.7417V92.95C190.387 91.8667 191.247 91.4333 192 91.4333C192.215 91.4333 192.43 91.4333 192.538 91.4333C192.645 91.4333 192.753 91.5417 192.753 91.5417V91.65Z" fill="#282829"/>
<path d="M197.808 91.65C197.808 91.7583 197.701 91.7583 197.593 91.7583C197.486 91.7583 197.271 91.7583 197.163 91.7583C196.518 91.7583 196.087 92.3 196.087 92.8417V96.6333C196.087 96.7417 195.98 96.85 195.872 96.85H195.55C195.442 96.85 195.442 96.7417 195.442 96.7417V92.95C195.442 91.8667 196.303 91.4333 197.055 91.4333C197.271 91.4333 197.486 91.4333 197.593 91.4333C197.701 91.4333 197.808 91.5417 197.808 91.5417V91.65Z" fill="#282829"/>
<path d="M201.143 95.4416C201.143 96.1999 200.497 96.8499 199.637 96.8499C198.776 96.8499 198.131 96.1999 198.131 95.4416V92.6249C198.131 91.8666 198.776 91.2166 199.637 91.2166C200.497 91.2166 201.143 91.8666 201.143 92.6249V94.0332C201.143 94.1416 201.035 94.1416 201.035 94.1416H198.776V95.4416C198.776 95.8749 199.207 96.3082 199.745 96.3082C200.282 96.3082 200.605 95.8749 200.605 95.4416V95.2249C200.605 95.1166 200.713 95.1166 200.713 95.1166H201.035C201.035 95.1166 201.143 95.1166 201.143 95.2249V95.4416ZM198.776 92.6249V93.7082H200.605V92.6249C200.605 92.1916 200.175 91.7582 199.745 91.7582C199.207 91.7582 198.776 92.0832 198.776 92.6249Z" fill="#282829"/>
<path d="M204.37 92.6249C204.37 92.1916 203.94 91.7582 203.402 91.7582C202.864 91.7582 202.541 92.1916 202.541 92.6249C202.541 93.1666 202.756 93.2749 203.509 93.7082C204.155 94.1416 205.015 94.5749 205.015 95.4416C205.015 96.1999 204.37 96.8499 203.509 96.8499C202.434 96.8499 201.896 96.1999 201.896 95.4416V95.2249C201.896 95.1166 202.003 95.1166 202.111 95.1166H202.434C202.541 95.1166 202.541 95.2249 202.541 95.2249V95.4416C202.541 95.8749 202.971 96.3082 203.509 96.3082C204.047 96.3082 204.477 95.8749 204.477 95.4416C204.477 95.0082 204.047 94.6832 203.187 94.0332C202.649 93.7082 202.111 93.2749 202.111 92.6249C202.111 91.8666 202.756 91.2166 203.617 91.2166C204.477 91.2166 205.123 91.8666 205.123 92.6249V92.8416C205.123 92.9499 205.123 92.9499 205.015 92.9499H204.8C204.692 92.9499 204.692 92.9499 204.692 92.8416V92.6249H204.37Z" fill="#282829"/>
<path d="M208.672 95.4416C208.672 96.1999 208.027 96.8499 207.166 96.8499C206.306 96.8499 205.661 96.1999 205.661 95.4416V92.6249C205.661 91.8666 206.306 91.2166 207.166 91.2166C208.027 91.2166 208.672 91.8666 208.672 92.6249V94.0332C208.672 94.1416 208.565 94.1416 208.565 94.1416H206.306V95.4416C206.306 95.8749 206.736 96.3082 207.274 96.3082C207.812 96.3082 208.134 95.8749 208.134 95.4416V95.2249C208.134 95.1166 208.242 95.1166 208.242 95.1166H208.565C208.565 95.1166 208.672 95.1166 208.672 95.2249V95.4416ZM206.306 92.6249V93.7082H208.134V92.6249C208.134 92.1916 207.704 91.7582 207.274 91.7582C206.844 91.7582 206.306 92.0832 206.306 92.6249Z" fill="#282829"/>
<path d="M212.007 93.4916V92.7333C212.007 92.4083 211.684 91.7583 210.931 91.7583C210.393 91.7583 210.178 91.9749 209.963 92.1916H209.855H209.748L209.64 91.9749C209.64 91.8666 209.64 91.8666 209.748 91.7583C210.071 91.5416 210.286 91.325 211.039 91.325C212.007 91.325 212.545 91.9749 212.545 92.7333V95.5499C212.545 96.6333 211.576 96.9583 211.039 96.9583C210.286 96.9583 209.425 96.5249 209.425 95.4416V95.3333C209.425 94.3583 210.071 93.7083 211.146 93.7083H212.007V93.4916ZM212.007 93.9249H211.361C210.286 93.9249 209.963 94.4666 209.963 95.1166V95.225C209.963 95.9833 210.608 96.3083 211.039 96.3083C211.361 96.3083 212.007 96.0916 212.007 95.4416V93.9249Z" fill="#282829"/>
<path d="M215.771 91.65C215.771 91.7583 215.664 91.7583 215.556 91.7583C215.449 91.7583 215.234 91.7583 215.126 91.7583C214.481 91.7583 214.05 92.3 214.05 92.8417V96.6333C214.05 96.7417 213.943 96.85 213.835 96.85H213.513C213.405 96.85 213.405 96.7417 213.405 96.7417V92.95C213.405 91.8667 214.266 91.4333 215.019 91.4333C215.234 91.4333 215.449 91.4333 215.556 91.4333C215.664 91.4333 215.771 91.5417 215.771 91.5417V91.65Z" fill="#282829"/>
<path d="M218.998 95.0082C219.106 95.0082 219.106 95.0082 219.106 95.2249V95.4416C219.106 96.1999 218.461 96.8499 217.6 96.8499C216.74 96.8499 216.094 96.1999 216.094 95.4416V92.6249C216.094 91.8666 216.74 91.2166 217.6 91.2166C218.461 91.2166 219.106 91.8666 219.106 92.6249V92.9499C219.106 93.0582 218.998 93.1666 218.998 93.1666H218.676C218.568 93.1666 218.568 93.1666 218.568 93.0582V92.7332C218.568 92.2999 218.245 91.8666 217.708 91.8666C217.17 91.8666 216.74 92.2999 216.74 92.7332V95.5499C216.74 95.9832 217.17 96.4166 217.708 96.4166C218.245 96.4166 218.568 95.9832 218.568 95.5499V95.3332C218.568 95.2249 218.676 95.1166 218.676 95.1166H218.998V95.0082Z" fill="#282829"/>
<path d="M223.086 96.525C223.086 96.6333 222.978 96.6333 222.978 96.6333H222.655C222.548 96.6333 222.548 96.6333 222.548 96.525V92.5167C222.548 92.0833 222.118 91.65 221.58 91.65C221.042 91.65 220.612 92.0833 220.612 92.625V96.525C220.612 96.6333 220.612 96.6333 220.397 96.6333H220.074C219.966 96.6333 219.966 96.6333 219.966 96.525V89.4833C219.966 89.375 219.966 89.375 220.074 89.375H220.397C220.504 89.375 220.504 89.4833 220.504 89.4833V91.5417C220.719 91.325 221.15 91.1083 221.58 91.1083C222.44 91.1083 222.978 91.7583 222.978 92.5167V96.525H223.086Z" fill="#282829"/>
<path d="M100.464 69.3334V72.0417C100.464 72.2584 100.356 72.475 100.034 72.475H97.8823C97.6672 72.475 97.3445 72.3667 97.3445 72.0417V69.7667C97.3445 67.925 96.8067 66.625 94.763 66.625V72.15C94.763 72.3667 94.6554 72.5834 94.4403 72.5834H92.1815C91.9663 72.5834 91.7512 72.475 91.7512 72.15V58.175C91.7512 57.9584 91.8588 57.7417 92.1815 57.7417H94.4403C94.6554 57.7417 94.763 57.85 94.763 58.175V63.8084C96.5916 63.7 97.2369 62.4 97.2369 60.6667V58.2834C97.2369 57.9584 97.4521 57.85 97.7747 57.85H99.926C100.249 57.85 100.356 58.0667 100.356 58.2834V60.9917C100.356 62.8334 99.6033 64.1334 98.4201 65.1084C99.7109 65.975 100.464 67.3834 100.464 69.3334Z" fill="#282829"/>
<path d="M104.551 66.0834C104.551 66.4084 104.336 66.4084 104.229 66.4084H102.185C102.077 66.4084 101.862 66.3001 101.862 66.0834V64.3501C101.862 64.1334 102.077 63.9167 102.185 63.9167H104.336C104.659 63.9167 104.659 64.1334 104.659 64.3501V66.0834H104.551Z" fill="#282829"/>
<path d="M114.232 62.2917C114.232 62.6167 114.124 62.7251 113.909 62.7251H111.758C111.435 62.7251 111.435 62.6167 111.435 62.2917V61.3167C111.435 60.6667 111.005 60.0167 110.252 60.0167C109.499 60.0167 108.961 60.5584 108.961 61.3167V68.7917C108.961 69.4417 109.392 70.0917 110.252 70.0917C111.113 70.0917 111.435 69.4417 111.435 68.7917V67.4917C111.435 67.1667 111.543 67.0584 111.758 67.0584H113.909C114.124 67.0584 114.232 67.1667 114.232 67.4917V68.9001C114.232 71.1751 112.403 72.5834 110.145 72.5834C107.886 72.5834 105.842 71.1751 105.842 68.9001V61.1001C105.842 59.0417 107.563 57.4167 110.145 57.4167C112.941 57.4167 114.124 59.2584 114.124 61.1001V62.2917H114.232Z" fill="#282829"/>
<path d="M123.805 57.7417C124.02 57.7417 124.128 57.85 124.128 58.175V72.0417C124.128 72.2584 124.02 72.475 123.697 72.475H121.546C121.331 72.475 121.116 72.3667 121.116 72.0417V66.1917H118.642V72.0417C118.642 72.2584 118.534 72.475 118.319 72.475H116.06C115.845 72.475 115.738 72.3667 115.738 72.0417V58.175C115.738 57.9584 115.845 57.7417 116.06 57.7417H118.319C118.534 57.7417 118.642 57.85 118.642 58.175V63.5917H121.116V58.175C121.116 57.9584 121.224 57.7417 121.546 57.7417H123.805Z" fill="#282829"/>
<path d="M128.861 72.0417C128.861 72.2584 128.753 72.475 128.538 72.475H126.279C126.064 72.475 125.956 72.3667 125.956 72.0417V58.175C125.956 57.9584 126.064 57.7417 126.279 57.7417H128.538C128.753 57.7417 128.861 57.85 128.861 58.175V72.0417Z" fill="#282829"/>
<path d="M130.474 58.175C130.474 57.9584 130.581 57.7417 130.904 57.7417H134.884C137.25 57.7417 138.971 59.3667 138.971 61.5334V64.8917C138.971 67.0584 137.25 68.6834 134.884 68.6834H133.486V71.9334C133.486 72.15 133.378 72.3667 133.163 72.3667H130.904C130.689 72.3667 130.474 72.2584 130.474 71.9334V58.175ZM135.96 61.6417C135.96 60.8834 135.422 60.3417 134.669 60.3417H133.486V66.1917H134.669C135.422 66.1917 135.96 65.65 135.96 64.8917V61.6417Z" fill="#282829"/>
<path d="M144.995 61.4251C144.995 60.6667 144.565 60.1251 143.812 60.1251C143.274 60.1251 142.629 60.4501 142.629 61.4251C142.629 62.4001 143.274 62.8334 144.35 63.5917C146.501 65.1084 148.222 66.3001 148.222 69.0084C148.222 70.9584 146.501 72.6917 144.027 72.6917C141.23 72.6917 139.939 70.8501 139.939 68.9001V68.2501C139.939 67.9251 140.047 67.7084 140.37 67.7084H142.413C142.736 67.7084 142.844 67.8168 142.844 68.1418V68.5751C142.844 69.6584 143.597 69.9834 144.134 69.9834C144.887 69.9834 145.425 69.5501 145.425 68.6834C145.425 67.7084 144.78 67.1667 143.381 66.0834C141.015 64.2417 139.939 63.5917 139.939 61.2084C139.939 58.5001 142.413 57.4167 144.027 57.4167C146.393 57.4167 148.114 58.9334 148.114 61.3167V61.9667C148.114 62.2917 148.007 62.4001 147.684 62.4001H145.64C145.318 62.4001 145.318 62.2917 145.318 61.9667V61.4251H144.995Z" fill="#282829"/>
<path d="M61.6448 100.296C73.8667 96.9975 81.1198 84.3451 77.8452 72.0357C74.5705 59.7263 62.008 52.4212 49.7862 55.7194C37.5643 59.0175 30.3112 71.6699 33.5858 83.9793C36.8605 96.2887 49.423 103.594 61.6448 100.296Z" fill="white"/>
<path fill-rule="evenodd" clip-rule="evenodd" d="M67.6571 95.225L54.1042 86.8833L46.6823 96.85C50.9848 98.9083 56.0403 99.5583 61.0958 98.15C63.5697 97.7166 65.721 96.6333 67.6571 95.225Z" fill="#FCD60B"/>
<path fill-rule="evenodd" clip-rule="evenodd" d="M76.1546 73.45L48.6185 80.8166L69.5933 93.7083C75.079 88.8333 77.7681 81.1416 76.1546 73.45Z" fill="#ED0874"/>
<path fill-rule="evenodd" clip-rule="evenodd" d="M44.7462 95.8751L52.2756 85.8001L45.7143 81.7917L35.926 84.3917C37.4319 89.2667 40.6588 93.2751 44.7462 95.8751Z" fill="#0099D8"/>
<path fill-rule="evenodd" clip-rule="evenodd" d="M75.5092 71.1749C71.9597 60.8833 61.0958 54.9249 50.4471 57.7416C39.7983 60.6666 33.237 71.2833 35.2807 82.0083L75.5092 71.1749Z" fill="#00B5AF"/>
<path fill-rule="evenodd" clip-rule="evenodd" d="M49.6941 65.5415C49.3714 64.3499 48.0806 63.5915 46.8974 63.9165C45.7142 64.2415 44.9613 65.5415 45.284 66.7332L46.4672 71.2832C46.7899 72.4749 48.0806 73.2332 49.2638 72.9082C50.447 72.5832 51.2 71.2832 50.8773 70.0915L49.6941 65.5415Z" fill="white"/>
<path fill-rule="evenodd" clip-rule="evenodd" d="M59.2672 62.9417C58.9445 61.75 57.6537 60.9917 56.4706 61.3167C55.2874 61.6417 54.5344 62.9417 54.8571 64.1334L56.0403 68.6834C56.363 69.875 57.6537 70.6334 58.8369 70.3084C60.0201 69.9834 60.7731 68.6834 60.4504 67.4917L59.2672 62.9417Z" fill="white"/>
</g>
<defs>
<clipPath id="clip0_221_10642">
<rect width="256" height="156" fill="white"/>
</clipPath>
</defs>
</svg>
