<svg width="256" height="154" viewBox="0 0 256 154" fill="none" xmlns="http://www.w3.org/2000/svg">
<g clip-path="url(#clip0_221_10444)">
<path d="M256 0H0V154H256V0Z" fill="#282829"/>
<path d="M19.4452 138.267C19.5526 138.267 19.5526 138.374 19.5526 138.374V139.447C19.5526 140.305 19.2304 140.948 18.4786 141.27C19.123 141.592 19.5526 142.235 19.5526 143.094V144.059C19.5526 144.166 19.5526 144.166 19.4452 144.166H19.2304C19.123 144.166 19.123 144.166 19.123 144.059V143.094C19.123 142.128 18.6934 141.485 17.5121 141.485H17.1899V144.059C17.1899 144.166 17.1899 144.166 17.0825 144.166H16.7603C16.653 144.166 16.653 144.059 16.653 144.059V138.374C16.653 138.267 16.653 138.267 16.7603 138.267H17.0825C17.1899 138.267 17.1899 138.374 17.1899 138.374V141.056H17.5121C18.6934 141.056 19.123 140.412 19.123 139.447V138.374C19.123 138.267 19.2304 138.267 19.2304 138.267H19.4452Z" fill="white"/>
<path d="M22.8833 143.201C22.8833 143.845 22.3463 144.381 21.5946 144.381C20.8428 144.381 20.3058 143.845 20.3058 143.201V140.842C20.3058 140.198 20.8428 139.662 21.5946 139.662C22.3463 139.662 22.8833 140.198 22.8833 140.842V143.201ZM20.8428 140.949V143.309C20.8428 143.738 21.165 144.06 21.5946 144.06C22.0241 144.06 22.3463 143.738 22.3463 143.309V140.949C22.3463 140.52 22.0241 140.198 21.5946 140.198C21.165 140.198 20.8428 140.52 20.8428 140.949Z" fill="white"/>
<path d="M25.5696 140.091C25.5696 140.198 25.4622 140.198 25.3548 140.198C25.2474 140.198 25.14 140.198 25.0326 140.198C24.4956 140.198 24.1735 140.627 24.1735 141.056V144.167C24.1735 144.274 24.0661 144.274 24.0661 144.274H23.8513C23.8513 144.274 23.7439 144.274 23.7439 144.167V141.056C23.7439 140.198 24.4956 139.769 25.0326 139.769C25.2474 139.769 25.3548 139.769 25.5696 139.769C25.677 139.769 25.677 139.876 25.677 139.876V140.091H25.5696Z" fill="white"/>
<path d="M28.4702 143.201C28.4702 143.845 27.9332 144.381 27.2888 144.381C26.5371 144.381 26.0001 143.845 26.0001 143.201V140.842C26.0001 140.198 26.5371 139.662 27.2888 139.662C28.0406 139.662 28.5776 140.198 28.5776 140.842V141.914C28.5776 142.021 28.5776 142.021 28.4702 142.021H26.5371V143.094C26.5371 143.523 26.8593 143.845 27.2888 143.845C27.7184 143.845 28.0406 143.523 28.0406 143.094V142.88C28.0406 142.772 28.148 142.772 28.148 142.772H28.3628C28.3628 142.772 28.4702 142.772 28.4702 142.88V143.201ZM26.4297 140.949V141.807H27.9332V140.949C27.9332 140.52 27.611 140.198 27.1814 140.198C26.7519 140.198 26.4297 140.52 26.4297 140.949Z" fill="white"/>
<path d="M31.1562 141.592V140.949C31.1562 140.627 30.9414 140.198 30.2971 140.198C29.8675 140.198 29.6527 140.412 29.4379 140.52H29.3305H29.2231L29.1157 140.412C29.1157 140.305 29.1157 140.305 29.2231 140.198C29.4379 139.983 29.7601 139.769 30.2971 139.769C31.0488 139.769 31.5858 140.305 31.5858 140.949V143.201C31.5858 144.059 30.7266 144.381 30.2971 144.381C29.6527 144.381 28.9009 144.059 28.9009 143.094V142.987C28.9009 142.129 29.4379 141.592 30.2971 141.592H31.1562ZM31.1562 142.021H30.6192C29.7601 142.021 29.5453 142.45 29.5453 142.987V143.094C29.5453 143.738 30.0823 143.952 30.4044 143.952C30.7266 143.952 31.1562 143.738 31.1562 143.201V142.021Z" fill="white"/>
<path d="M37.1725 139.876C37.1725 139.983 37.1725 140.091 37.0651 140.091H36.8503C36.7429 140.091 36.7429 140.091 36.7429 139.876V139.554C36.7429 139.018 36.3134 138.589 35.7764 138.589C35.2394 138.589 34.8099 139.018 34.8099 139.554V142.987C34.8099 143.523 35.2394 143.952 35.7764 143.952C36.3134 143.952 36.7429 143.523 36.7429 142.987V142.665C36.7429 142.558 36.7429 142.45 36.8503 142.45H37.0651C37.1725 142.45 37.1725 142.45 37.1725 142.558V142.88C37.1725 143.63 36.5282 144.167 35.7764 144.167C34.9172 144.167 34.2729 143.63 34.2729 142.88V139.34C34.2729 138.589 34.9172 138.052 35.7764 138.052C36.6355 138.052 37.1725 138.696 37.1725 139.447V139.876Z" fill="white"/>
<path d="M40.3958 143.201C40.3958 143.845 39.8588 144.381 39.1071 144.381C38.3553 144.381 37.8184 143.845 37.8184 143.201V140.842C37.8184 140.198 38.3553 139.662 39.1071 139.662C39.8588 139.662 40.3958 140.198 40.3958 140.842V143.201ZM38.3553 140.949V143.309C38.3553 143.738 38.6775 144.06 39.1071 144.06C39.5367 144.06 39.8588 143.738 39.8588 143.309V140.949C39.8588 140.52 39.5367 140.198 39.1071 140.198C38.6775 140.198 38.3553 140.52 38.3553 140.949Z" fill="white"/>
<path d="M42.4377 144.167C42.4377 144.167 42.4377 144.274 42.3303 144.274H42.1155C41.5785 144.274 41.2563 143.952 41.2563 143.416V138.374C41.2563 138.267 41.2563 138.267 41.3637 138.267H41.5785C41.6859 138.267 41.6859 138.267 41.6859 138.374V143.416C41.6859 143.63 41.7933 143.845 42.1155 143.845H42.3303C42.4377 143.845 42.4377 143.952 42.4377 143.952V144.167Z" fill="white"/>
<path d="M44.3716 144.167C44.3716 144.167 44.3716 144.274 44.2642 144.274H44.0494C43.5124 144.274 43.1902 143.952 43.1902 143.416V138.374C43.1902 138.267 43.1902 138.267 43.2976 138.267H43.5124C43.6198 138.267 43.6198 138.267 43.6198 138.374V143.416C43.6198 143.63 43.7272 143.845 44.0494 143.845H44.2642C44.3716 143.845 44.3716 143.952 44.3716 143.952V144.167Z" fill="white"/>
<path d="M46.8422 141.592V140.949C46.8422 140.627 46.6275 140.198 45.9831 140.198C45.5535 140.198 45.3387 140.412 45.1239 140.52H45.0166H44.9092L44.8018 140.412C44.8018 140.305 44.8018 140.305 44.9092 140.198C45.1239 139.983 45.4461 139.769 45.9831 139.769C46.7348 139.769 47.2718 140.305 47.2718 140.949V143.201C47.2718 144.059 46.4127 144.381 45.9831 144.381C45.3387 144.381 44.587 144.059 44.587 143.094V142.987C44.587 142.129 45.1239 141.592 45.9831 141.592H46.8422ZM46.8422 142.021H46.3053C45.4461 142.021 45.2313 142.45 45.2313 142.987V143.094C45.2313 143.738 45.7683 143.952 46.0905 143.952C46.4127 143.952 46.8422 143.738 46.8422 143.201V142.021Z" fill="white"/>
<path d="M50.6024 143.201C50.6024 143.845 50.0654 144.381 49.3137 144.381C48.5619 144.381 48.025 143.845 48.025 143.201V138.374C48.025 138.267 48.025 138.267 48.1324 138.267H48.3471C48.4545 138.267 48.4545 138.267 48.4545 138.374V139.983C48.6693 139.769 48.9915 139.662 49.3137 139.662C50.0654 139.662 50.6024 140.198 50.6024 140.842V143.201ZM48.5619 143.201C48.5619 143.63 48.8841 143.952 49.3137 143.952C49.7433 143.952 50.0654 143.63 50.0654 143.201V140.842C50.0654 140.412 49.7433 140.091 49.3137 140.091C48.8841 140.091 48.5619 140.412 48.5619 140.734V143.201Z" fill="white"/>
<path d="M53.933 143.201C53.933 143.845 53.3961 144.381 52.6443 144.381C51.8926 144.381 51.3556 143.845 51.3556 143.201V140.842C51.3556 140.198 51.8926 139.662 52.6443 139.662C53.3961 139.662 53.933 140.198 53.933 140.842V143.201ZM51.7852 140.949V143.309C51.7852 143.738 52.1073 144.06 52.5369 144.06C52.9665 144.06 53.2887 143.738 53.2887 143.309V140.949C53.2887 140.52 52.9665 140.198 52.5369 140.198C52.1073 140.198 51.7852 140.52 51.7852 140.949Z" fill="white"/>
<path d="M56.5118 140.091C56.5118 140.198 56.4045 140.198 56.2971 140.198C56.1897 140.198 56.0823 140.198 55.9749 140.198C55.4379 140.198 55.1157 140.627 55.1157 141.056V144.167C55.1157 144.274 55.0083 144.274 55.0083 144.274H54.7935C54.7935 144.274 54.6862 144.274 54.6862 144.167V141.056C54.6862 140.198 55.4379 139.769 55.9749 139.769C56.1897 139.769 56.2971 139.769 56.5118 139.769C56.6192 139.769 56.6192 139.876 56.6192 139.876V140.091H56.5118Z" fill="white"/>
<path d="M58.8753 141.592V140.949C58.8753 140.627 58.6605 140.198 58.0162 140.198C57.5866 140.198 57.3718 140.412 57.157 140.52H57.0496H56.9422L56.8348 140.412C56.8348 140.305 56.8348 140.305 56.9422 140.198C57.157 139.983 57.4792 139.769 58.0162 139.769C58.7679 139.769 59.3049 140.305 59.3049 140.949V143.201C59.3049 144.059 58.4457 144.381 58.0162 144.381C57.3718 144.381 56.6201 144.059 56.6201 143.094V142.987C56.6201 142.129 57.157 141.592 58.0162 141.592H58.8753ZM58.8753 142.021H58.3383C57.4792 142.021 57.2644 142.45 57.2644 142.987V143.094C57.2644 143.738 57.8014 143.952 58.1236 143.952C58.4457 143.952 58.8753 143.738 58.8753 143.201V142.021Z" fill="white"/>
<path d="M61.1319 144.274C60.5949 144.274 60.2727 143.952 60.2727 143.416V140.198H59.8432C59.8432 140.198 59.7358 140.198 59.7358 140.091V139.876C59.7358 139.769 59.8432 139.769 59.8432 139.769H60.2727V139.018C60.2727 138.911 60.2727 138.911 60.3801 138.911L60.5949 138.803C60.7023 138.803 60.7023 138.803 60.7023 138.911V139.769H61.3467C61.3467 139.769 61.4541 139.769 61.4541 139.876V140.091C61.4541 140.198 61.4541 140.198 61.3467 140.198H60.7023V143.416C60.7023 143.63 60.8097 143.845 61.1319 143.845H61.3467C61.4541 143.845 61.4541 143.952 61.4541 143.952V144.167C61.4541 144.167 61.4541 144.274 61.3467 144.274H61.1319Z" fill="white"/>
<path d="M62.7438 139.233C62.7438 139.34 62.7438 139.34 62.6364 139.34H62.3142C62.2068 139.34 62.2068 139.34 62.2068 139.233V138.911C62.2068 138.803 62.2068 138.803 62.3142 138.803H62.6364C62.7438 138.803 62.7438 138.803 62.7438 138.911V139.233ZM62.2068 139.983C62.2068 139.983 62.2068 139.876 62.3142 139.876H62.529C62.6364 139.876 62.6364 139.983 62.6364 139.983V144.167C62.6364 144.274 62.6364 144.274 62.529 144.274H62.3142C62.2068 144.274 62.2068 144.274 62.2068 144.167V139.983Z" fill="white"/>
<path d="M64.6772 143.63V143.309L65.5364 139.983C65.5364 139.876 65.6438 139.876 65.6438 139.876H65.8586C65.966 139.876 65.966 139.983 65.966 139.983L64.7846 144.167C64.7846 144.274 64.6772 144.274 64.6772 144.274H64.3551C64.3551 144.274 64.2477 144.274 64.2477 144.167L63.0663 139.983C63.0663 139.876 63.0663 139.876 63.1737 139.876H63.4959C63.6033 139.876 63.6033 139.876 63.6033 139.983L64.4625 143.309L64.6772 143.63Z" fill="white"/>
<path d="M69.0819 143.201C69.0819 143.845 68.5449 144.381 67.9005 144.381C67.1488 144.381 66.6118 143.845 66.6118 143.201V140.842C66.6118 140.198 67.1488 139.662 67.9005 139.662C68.6523 139.662 69.1893 140.198 69.1893 140.842V141.914C69.1893 142.021 69.1893 142.021 69.0819 142.021H67.1488V143.094C67.1488 143.523 67.471 143.845 67.9005 143.845C68.3301 143.845 68.6523 143.523 68.6523 143.094V142.88C68.6523 142.772 68.7597 142.772 68.7597 142.772H68.9745C68.9745 142.772 69.0819 142.772 69.0819 142.88V143.201ZM67.0414 140.949V141.807H68.5449V140.949C68.5449 140.52 68.2227 140.198 67.7931 140.198C67.3636 140.198 67.0414 140.52 67.0414 140.949Z" fill="white"/>
<path d="M73.9166 140.305C74.024 140.305 74.024 140.412 74.024 140.412V140.949H74.561C74.6684 140.949 74.6684 140.949 74.6684 141.056V141.163C74.6684 141.271 74.6684 141.271 74.561 141.271H74.024V143.094C74.024 143.845 73.4871 144.381 72.7353 144.381C71.9836 144.381 71.4466 143.952 71.4466 143.094V142.021C71.4466 141.485 71.7688 141.163 72.091 141.056C71.7688 140.842 71.554 140.52 71.554 140.091V139.447C71.554 138.589 72.1984 138.267 72.8427 138.267C73.4871 138.267 74.024 138.589 74.024 139.554C74.024 139.662 74.024 139.662 73.9166 139.662H73.5945L73.4871 139.554C73.4871 138.911 73.1649 138.696 72.7353 138.696C72.3057 138.696 71.8762 138.911 71.8762 139.447V140.091C71.8762 140.412 72.091 140.842 72.4131 140.842H73.3797V140.305C73.3797 140.305 73.3797 140.198 73.4871 140.198H73.9166V140.305ZM73.5945 141.378H72.6279C72.091 141.378 71.9836 141.807 71.9836 142.129V143.201C71.9836 143.845 72.4131 144.06 72.8427 144.06C73.2723 144.06 73.7019 143.738 73.7019 143.201V141.378H73.5945Z" fill="white"/>
<path d="M80.1479 138.267C80.2552 138.267 80.2552 138.374 80.2552 138.374V144.06C80.2552 144.167 80.2552 144.167 80.1479 144.167H79.9331C79.8257 144.167 79.8257 144.06 79.8257 144.06V141.378H77.7852V144.06C77.7852 144.167 77.7852 144.167 77.6778 144.167H77.3556C77.2482 144.167 77.2482 144.06 77.2482 144.06V138.374C77.2482 138.267 77.2482 138.267 77.3556 138.267H77.6778C77.7852 138.267 77.7852 138.374 77.7852 138.374V140.949H79.8257V138.374C79.8257 138.267 79.8257 138.267 79.9331 138.267H80.1479Z" fill="white"/>
<path d="M81.8679 139.233C81.8679 139.34 81.8679 139.34 81.7605 139.34H81.4383C81.3309 139.34 81.3309 139.34 81.3309 139.233V138.911C81.3309 138.803 81.3309 138.803 81.4383 138.803H81.7605C81.8679 138.803 81.8679 138.803 81.8679 138.911V139.233ZM81.3309 139.983C81.3309 139.983 81.3309 139.876 81.4383 139.876H81.6531C81.7605 139.876 81.7605 139.983 81.7605 139.983V144.167C81.7605 144.274 81.7605 144.274 81.6531 144.274H81.4383C81.3309 144.274 81.3309 144.274 81.3309 144.167V139.983Z" fill="white"/>
<path d="M84.1237 144.059C84.768 144.059 85.305 144.274 85.305 145.025V145.668C85.305 145.776 85.305 145.776 85.1976 145.776H84.8754C84.768 145.776 84.768 145.668 84.768 145.668V145.025C84.768 144.596 84.5533 144.488 84.0163 144.488H83.4793C82.9424 144.488 82.6202 144.059 82.6202 143.63C82.6202 143.309 82.835 142.987 82.9424 142.772C82.7276 142.558 82.6202 142.343 82.6202 142.021V141.056C82.6202 140.412 83.1571 139.876 83.9089 139.876C84.1237 139.876 84.2311 139.876 84.3385 139.983H85.1976C85.305 139.983 85.305 139.983 85.305 140.091V140.305C85.305 140.305 85.305 140.412 85.1976 140.412H84.8754C85.0902 140.627 85.0902 140.841 85.0902 141.163V142.129C85.0902 142.772 84.5533 143.309 83.8015 143.309C83.5867 143.309 83.3719 143.309 83.1571 143.201C83.0498 143.309 82.9424 143.523 82.9424 143.738C82.9424 143.952 83.1571 144.274 83.4793 144.274H84.1237V144.059ZM84.6607 140.949C84.6607 140.52 84.3385 140.198 83.9089 140.198C83.4793 140.198 83.1571 140.52 83.1571 140.949V142.021C83.1571 142.45 83.4793 142.772 83.9089 142.772C84.3385 142.772 84.6607 142.45 84.6607 142.021V140.949Z" fill="white"/>
<path d="M88.6357 144.167C88.6357 144.274 88.5283 144.274 88.5283 144.274H88.2061C88.2061 144.274 88.0987 144.274 88.0987 144.167V140.949C88.0987 140.52 87.7766 140.198 87.347 140.198C86.9174 140.198 86.5952 140.52 86.5952 140.949V144.167C86.5952 144.274 86.5952 144.274 86.4878 144.274H86.273C86.1657 144.274 86.1656 144.274 86.1656 144.167V138.374C86.1656 138.267 86.1657 138.267 86.273 138.267H86.4878C86.5952 138.267 86.5952 138.374 86.5952 138.374V140.091C86.81 139.876 87.1322 139.769 87.4544 139.769C88.0987 139.769 88.6357 140.305 88.6357 140.949V144.167Z" fill="white"/>
<path d="M91.4293 141.379C91.4293 141.486 91.4293 141.486 91.3219 141.486H89.4962C89.4962 141.486 89.3888 141.486 89.3888 141.379V141.163C89.3888 141.056 89.4962 141.056 89.4962 141.056H91.3219C91.4293 141.056 91.4293 141.056 91.4293 141.163V141.379Z" fill="white"/>
<path d="M93.256 144.274C92.719 144.274 92.3968 143.952 92.3968 143.416V140.198H91.9673C91.9673 140.198 91.8599 140.198 91.8599 140.091V139.876C91.8599 139.769 91.9673 139.769 91.9673 139.769H92.3968V139.018C92.3968 138.911 92.3968 138.911 92.5042 138.911L92.719 138.803C92.8264 138.803 92.8264 138.803 92.8264 138.911V139.769H93.4708C93.4708 139.769 93.5782 139.769 93.5782 139.876V140.091C93.5782 140.198 93.5782 140.198 93.4708 140.198H92.8264V143.416C92.8264 143.63 92.9338 143.845 93.256 143.845H93.4708C93.5782 143.845 93.5782 143.952 93.5782 143.952V144.167C93.5782 144.167 93.5782 144.274 93.4708 144.274H93.256Z" fill="white"/>
<path d="M96.6936 143.201C96.6936 143.845 96.1566 144.381 95.5122 144.381C94.7605 144.381 94.2235 143.845 94.2235 143.201V140.842C94.2235 140.198 94.7605 139.662 95.5122 139.662C96.264 139.662 96.801 140.198 96.801 140.842V141.914C96.801 142.021 96.801 142.021 96.6936 142.021H94.7605V143.094C94.7605 143.523 95.0827 143.845 95.5122 143.845C95.9418 143.845 96.264 143.523 96.264 143.094V142.88C96.264 142.772 96.3714 142.772 96.3714 142.772H96.5862C96.5862 142.772 96.6936 142.772 96.6936 142.88V143.201ZM94.7605 140.949V141.807H96.264V140.949C96.264 140.52 95.9418 140.198 95.5122 140.198C95.0827 140.198 94.7605 140.52 94.7605 140.949Z" fill="white"/>
<path d="M99.8093 142.88C99.8093 142.88 99.9167 142.88 99.9167 142.987V143.201C99.9167 143.845 99.3797 144.381 98.628 144.381C97.8762 144.381 97.3392 143.845 97.3392 143.201V140.842C97.3392 140.198 97.8762 139.662 98.628 139.662C99.3797 139.662 99.9167 140.198 99.9167 140.842V141.056C99.9167 141.163 99.8093 141.163 99.8093 141.163H99.5945C99.4871 141.163 99.4871 141.163 99.4871 141.056V140.842C99.4871 140.412 99.1649 140.091 98.7354 140.091C98.3058 140.091 97.9836 140.412 97.9836 140.842V143.201C97.9836 143.63 98.3058 143.952 98.7354 143.952C99.1649 143.952 99.4871 143.63 99.4871 143.201V142.987C99.4871 142.88 99.5945 142.88 99.5945 142.88H99.8093Z" fill="white"/>
<path d="M103.14 144.167C103.14 144.274 103.032 144.274 103.032 144.274H102.71C102.71 144.274 102.603 144.274 102.603 144.167V140.949C102.603 140.52 102.281 140.198 101.851 140.198C101.422 140.198 101.099 140.52 101.099 140.949V144.167C101.099 144.274 101.099 144.274 100.992 144.274H100.777C100.67 144.274 100.67 144.274 100.67 144.167V138.374C100.67 138.267 100.67 138.267 100.777 138.267H100.992C101.099 138.267 101.099 138.374 101.099 138.374V140.091C101.314 139.876 101.636 139.769 101.959 139.769C102.603 139.769 103.14 140.305 103.14 140.949V144.167Z" fill="white"/>
<path d="M106.579 144.167C106.579 144.274 106.579 144.274 106.471 144.274H106.149C106.042 144.274 106.042 144.167 106.042 144.167V138.482C106.042 138.374 106.042 138.374 106.149 138.374H106.471C106.579 138.374 106.579 138.482 106.579 138.482V144.167Z" fill="white"/>
<path d="M109.801 144.274C109.801 144.274 109.694 144.274 109.694 144.167V140.949C109.694 140.52 109.372 140.198 108.942 140.198C108.512 140.198 108.19 140.52 108.19 140.949V144.167C108.19 144.274 108.083 144.274 108.083 144.274H107.761C107.761 144.274 107.653 144.274 107.653 144.167V140.949C107.653 140.305 108.19 139.769 108.942 139.769C109.801 139.769 110.231 140.305 110.231 140.949V144.167C110.231 144.274 110.123 144.274 110.123 144.274H109.801Z" fill="white"/>
<path d="M111.628 139.233C111.628 139.34 111.628 139.34 111.521 139.34H111.199C111.091 139.34 111.091 139.34 111.091 139.233V138.911C111.091 138.803 111.091 138.803 111.199 138.803H111.521C111.628 138.803 111.628 138.803 111.628 138.911V139.233ZM110.984 139.983C110.984 139.983 110.984 139.876 111.091 139.876H111.306C111.414 139.876 111.414 139.983 111.414 139.983V144.167C111.414 144.274 111.414 144.274 111.306 144.274H111.091C110.984 144.274 110.984 144.274 110.984 144.167V139.983Z" fill="white"/>
<path d="M113.454 144.274C112.917 144.274 112.595 143.952 112.595 143.416V140.198H112.166C112.166 140.198 112.058 140.198 112.058 140.091V139.876C112.058 139.769 112.166 139.769 112.166 139.769H112.595V139.018C112.595 138.911 112.595 138.911 112.703 138.911L112.917 138.803C113.025 138.803 113.025 138.803 113.025 138.911V139.769H113.669C113.669 139.769 113.777 139.769 113.777 139.876V140.091C113.777 140.198 113.777 140.198 113.669 140.198H113.025V143.416C113.025 143.63 113.132 143.845 113.454 143.845H113.669C113.777 143.845 113.777 143.952 113.777 143.952V144.167C113.777 144.167 113.777 144.274 113.669 144.274H113.454Z" fill="white"/>
<path d="M114.959 139.233C114.959 139.34 114.959 139.34 114.852 139.34H114.529C114.422 139.34 114.422 139.34 114.422 139.233V138.911C114.422 138.803 114.422 138.803 114.529 138.803H114.852C114.959 138.803 114.959 138.803 114.959 138.911V139.233ZM114.422 139.983C114.422 139.983 114.422 139.876 114.529 139.876H114.744C114.852 139.876 114.852 139.983 114.852 139.983V144.167C114.852 144.274 114.852 144.274 114.744 144.274H114.529C114.422 144.274 114.422 144.274 114.422 144.167V139.983Z" fill="white"/>
<path d="M117.752 141.592V140.949C117.752 140.627 117.537 140.198 116.892 140.198C116.463 140.198 116.248 140.412 116.033 140.52H115.926H115.819L115.711 140.412C115.711 140.305 115.711 140.305 115.819 140.198C116.033 139.983 116.355 139.769 116.892 139.769C117.644 139.769 118.181 140.305 118.181 140.949V143.201C118.181 144.059 117.322 144.381 116.892 144.381C116.248 144.381 115.496 144.059 115.496 143.094V142.987C115.496 142.129 116.033 141.592 116.892 141.592H117.752ZM117.752 142.021H117.215C116.355 142.021 116.141 142.45 116.141 142.987V143.094C116.141 143.738 116.678 143.952 117 143.952C117.322 143.952 117.752 143.738 117.752 143.201V142.021Z" fill="white"/>
<path d="M120.008 144.274C119.471 144.274 119.149 143.952 119.149 143.416V140.198H118.719C118.719 140.198 118.612 140.198 118.612 140.091V139.876C118.612 139.769 118.719 139.769 118.719 139.769H119.149V139.018C119.149 138.911 119.149 138.911 119.256 138.911L119.471 138.803C119.579 138.803 119.579 138.803 119.579 138.911V139.769H120.223C120.223 139.769 120.33 139.769 120.33 139.876V140.091C120.33 140.198 120.33 140.198 120.223 140.198H119.579V143.416C119.579 143.63 119.686 143.845 120.008 143.845H120.223C120.33 143.845 120.33 143.952 120.33 143.952V144.167C120.33 144.167 120.33 144.274 120.223 144.274H120.008Z" fill="white"/>
<path d="M121.62 139.233C121.62 139.34 121.62 139.34 121.513 139.34H121.191C121.083 139.34 121.083 139.34 121.083 139.233V138.911C121.083 138.803 121.083 138.803 121.191 138.803H121.513C121.62 138.803 121.62 138.803 121.62 138.911V139.233ZM121.083 139.983C121.083 139.983 121.083 139.876 121.191 139.876H121.405C121.513 139.876 121.513 139.983 121.513 139.983V144.167C121.513 144.274 121.513 144.274 121.405 144.274H121.191C121.083 144.274 121.083 144.274 121.083 144.167V139.983Z" fill="white"/>
<path d="M123.661 143.63V143.309L124.52 139.983C124.52 139.876 124.627 139.876 124.627 139.876H124.842C124.95 139.876 124.95 139.983 124.95 139.983L123.768 144.167C123.768 144.274 123.661 144.274 123.661 144.274H123.339C123.339 144.274 123.231 144.274 123.231 144.167L122.05 139.983C122.05 139.876 122.05 139.876 122.157 139.876H122.48C122.587 139.876 122.587 139.876 122.587 139.983L123.446 143.309L123.661 143.63Z" fill="white"/>
<path d="M127.958 143.201C127.958 143.845 127.421 144.381 126.777 144.381C126.025 144.381 125.488 143.845 125.488 143.201V140.842C125.488 140.198 126.025 139.662 126.777 139.662C127.529 139.662 128.066 140.198 128.066 140.842V141.914C128.066 142.021 128.066 142.021 127.958 142.021H126.025V143.094C126.025 143.523 126.347 143.845 126.777 143.845C127.206 143.845 127.529 143.523 127.529 143.094V142.88C127.529 142.772 127.636 142.772 127.636 142.772H127.851C127.851 142.772 127.958 142.772 127.958 142.88V143.201ZM125.918 140.949V141.807H127.421V140.949C127.421 140.52 127.099 140.198 126.669 140.198C126.24 140.198 125.918 140.52 125.918 140.949Z" fill="white"/>
<path d="M131.934 139.876C131.934 139.876 132.041 139.876 132.041 139.983V140.198C132.041 140.305 131.934 140.305 131.934 140.305H131.182V144.167C131.182 144.274 131.182 144.274 131.075 144.274H130.752C130.645 144.274 130.645 144.274 130.645 144.167V140.305H130.215C130.108 140.305 130.108 140.305 130.108 140.198V139.983C130.108 139.876 130.215 139.876 130.215 139.876H130.645V139.554C130.645 138.589 131.075 138.267 131.826 138.267C131.934 138.267 132.041 138.267 132.041 138.374V138.589C132.041 138.696 131.934 138.696 131.934 138.696C131.397 138.696 131.182 138.911 131.182 139.554V139.876H131.934Z" fill="white"/>
<path d="M134.942 143.201C134.942 143.845 134.405 144.381 133.653 144.381C132.901 144.381 132.364 143.845 132.364 143.201V140.842C132.364 140.198 132.901 139.662 133.653 139.662C134.405 139.662 134.942 140.198 134.942 140.842V143.201ZM132.901 140.949V143.309C132.901 143.738 133.223 144.06 133.653 144.06C134.082 144.06 134.405 143.738 134.405 143.309V140.949C134.405 140.52 134.082 140.198 133.653 140.198C133.223 140.198 132.901 140.52 132.901 140.949Z" fill="white"/>
<path d="M137.628 140.091C137.628 140.198 137.521 140.198 137.413 140.198C137.306 140.198 137.198 140.198 137.091 140.198C136.554 140.198 136.232 140.627 136.232 141.056V144.167C136.232 144.274 136.124 144.274 136.124 144.274H135.91C135.91 144.274 135.802 144.274 135.802 144.167V141.056C135.802 140.198 136.554 139.769 137.091 139.769C137.306 139.769 137.413 139.769 137.628 139.769C137.735 139.769 137.735 139.876 137.735 139.876V140.091H137.628Z" fill="white"/>
<path d="M140.1 138.482C140.1 138.374 140.1 138.374 140.207 138.374H141.603C142.462 138.374 143.107 139.018 143.107 139.876V141.163C143.107 142.021 142.57 142.558 141.603 142.558H140.637V144.274C140.637 144.381 140.637 144.381 140.529 144.381H140.207C140.1 144.381 140.1 144.274 140.1 144.274V138.482ZM142.57 139.769C142.57 139.232 142.248 138.803 141.603 138.803H140.637V142.021H141.603C142.248 142.021 142.57 141.592 142.57 141.056V139.769Z" fill="white"/>
<path d="M145.578 140.091C145.578 140.198 145.471 140.198 145.364 140.198C145.256 140.198 145.149 140.198 145.041 140.198C144.504 140.198 144.182 140.627 144.182 141.056V144.167C144.182 144.274 144.075 144.274 144.075 144.274H143.86C143.86 144.274 143.753 144.274 143.753 144.167V141.056C143.753 140.198 144.504 139.769 145.041 139.769C145.256 139.769 145.364 139.769 145.578 139.769C145.686 139.769 145.686 139.876 145.686 139.876V140.091H145.578Z" fill="white"/>
<path d="M148.479 143.201C148.479 143.845 147.942 144.381 147.19 144.381C146.438 144.381 145.901 143.845 145.901 143.201V140.842C145.901 140.198 146.438 139.662 147.19 139.662C147.942 139.662 148.479 140.198 148.479 140.842V143.201ZM146.331 140.949V143.309C146.331 143.738 146.653 144.06 147.083 144.06C147.512 144.06 147.835 143.738 147.835 143.309V140.949C147.835 140.52 147.512 140.198 147.083 140.198C146.653 140.198 146.331 140.52 146.331 140.949Z" fill="white"/>
<path d="M151.058 140.949C151.058 140.52 150.735 140.198 150.306 140.198C149.876 140.198 149.554 140.52 149.554 140.949C149.554 141.378 149.769 141.485 150.413 141.807C150.95 142.129 151.595 142.558 151.595 143.201C151.595 143.845 151.058 144.381 150.306 144.381C149.447 144.381 149.017 143.845 149.017 143.201V143.094C149.017 142.987 149.017 142.987 149.125 142.987H149.339C149.447 142.987 149.447 142.987 149.447 143.094V143.201C149.447 143.63 149.769 143.952 150.198 143.952C150.628 143.952 150.95 143.63 150.95 143.201C150.95 142.772 150.521 142.558 149.876 142.129C149.447 141.807 149.017 141.485 149.017 140.949C149.017 140.305 149.554 139.769 150.198 139.769C150.95 139.769 151.487 140.305 151.487 140.949V141.056C151.487 141.163 151.487 141.163 151.38 141.163H151.165C151.058 141.163 151.058 141.163 151.058 141.056V140.949Z" fill="white"/>
<path d="M154.818 143.201C154.818 143.845 154.281 144.381 153.529 144.381C153.207 144.381 152.885 144.274 152.67 144.06V145.561C152.67 145.669 152.67 145.669 152.562 145.669H152.348C152.24 145.669 152.24 145.561 152.24 145.561V140.842C152.24 140.198 152.777 139.662 153.529 139.662C154.281 139.662 154.818 140.198 154.818 140.842V143.201ZM152.67 143.201C152.67 143.63 152.992 143.952 153.422 143.952C153.851 143.952 154.173 143.63 154.173 143.201V140.842C154.173 140.412 153.851 140.091 153.422 140.091C152.992 140.091 152.67 140.412 152.67 140.842V143.201Z" fill="white"/>
<path d="M157.933 143.201C157.933 143.845 157.397 144.381 156.752 144.381C156 144.381 155.463 143.845 155.463 143.201V140.842C155.463 140.198 156 139.662 156.752 139.662C157.504 139.662 158.041 140.198 158.041 140.842V141.914C158.041 142.021 158.041 142.021 157.933 142.021H156V143.094C156 143.523 156.323 143.845 156.752 143.845C157.182 143.845 157.504 143.523 157.504 143.094V142.88C157.504 142.772 157.611 142.772 157.611 142.772H157.826C157.826 142.772 157.933 142.772 157.933 142.88V143.201ZM156 140.949V141.807H157.504V140.949C157.504 140.52 157.182 140.198 156.752 140.198C156.323 140.198 156 140.52 156 140.949Z" fill="white"/>
<path d="M161.049 142.88C161.049 142.88 161.157 142.88 161.157 142.987V143.201C161.157 143.845 160.62 144.381 159.868 144.381C159.116 144.381 158.579 143.845 158.579 143.201V140.842C158.579 140.198 159.116 139.662 159.868 139.662C160.62 139.662 161.157 140.198 161.157 140.842V141.056C161.157 141.163 161.049 141.163 161.049 141.163H160.834C160.727 141.163 160.727 141.163 160.727 141.056V140.842C160.727 140.412 160.405 140.091 159.975 140.091C159.546 140.091 159.224 140.412 159.224 140.842V143.201C159.224 143.63 159.546 143.952 159.975 143.952C160.405 143.952 160.727 143.63 160.727 143.201V142.987C160.727 142.88 160.834 142.88 160.834 142.88H161.049Z" fill="white"/>
<path d="M162.876 144.274C162.339 144.274 162.017 143.952 162.017 143.416V140.198H161.587C161.587 140.198 161.48 140.198 161.48 140.091V139.876C161.48 139.769 161.587 139.769 161.587 139.769H162.017V139.018C162.017 138.911 162.017 138.911 162.124 138.911L162.339 138.803C162.447 138.803 162.447 138.803 162.447 138.911V139.769H163.091C163.091 139.769 163.198 139.769 163.198 139.876V140.091C163.198 140.198 163.198 140.198 163.091 140.198H162.447V143.416C162.447 143.63 162.554 143.845 162.876 143.845H163.091C163.198 143.845 163.198 143.952 163.198 143.952V144.167C163.198 144.167 163.198 144.274 163.091 144.274H162.876Z" fill="white"/>
<path d="M164.488 139.233C164.488 139.34 164.488 139.34 164.381 139.34H164.058C163.951 139.34 163.951 139.34 163.951 139.233V138.911C163.951 138.803 163.951 138.803 164.058 138.803H164.381C164.488 138.803 164.488 138.803 164.488 138.911V139.233ZM163.844 139.983C163.844 139.983 163.844 139.876 163.951 139.876H164.166C164.273 139.876 164.273 139.983 164.273 139.983V144.167C164.273 144.274 164.273 144.274 164.166 144.274H163.951C163.844 144.274 163.844 144.274 163.844 144.167V139.983Z" fill="white"/>
<path d="M166.422 143.63V143.309L167.281 139.983C167.281 139.876 167.388 139.876 167.388 139.876H167.603C167.71 139.876 167.71 139.983 167.71 139.983L166.529 144.167C166.529 144.274 166.422 144.274 166.422 144.274H166.099C166.099 144.274 165.992 144.274 165.992 144.167L164.811 139.983C164.811 139.876 164.811 139.876 164.918 139.876H165.133C165.24 139.876 165.24 139.876 165.24 139.983L166.099 143.309L166.422 143.63Z" fill="white"/>
<path d="M170.719 143.201C170.719 143.845 170.182 144.381 169.537 144.381C168.786 144.381 168.249 143.845 168.249 143.201V140.842C168.249 140.198 168.786 139.662 169.537 139.662C170.289 139.662 170.826 140.198 170.826 140.842V141.914C170.826 142.021 170.826 142.021 170.719 142.021H168.678V143.094C168.678 143.523 169 143.845 169.43 143.845C169.86 143.845 170.182 143.523 170.182 143.094V142.88C170.182 142.772 170.289 142.772 170.289 142.772H170.504C170.504 142.772 170.611 142.772 170.611 142.88V143.201H170.719ZM168.678 140.949V141.807H170.182V140.949C170.182 140.52 169.86 140.198 169.43 140.198C169.108 140.198 168.678 140.52 168.678 140.949Z" fill="white"/>
<path d="M175.661 139.555C175.661 139.126 175.339 138.589 174.694 138.589C174.372 138.589 173.728 138.804 173.728 139.555C173.728 140.198 174.372 140.52 174.694 140.842C175.661 141.593 176.198 141.914 176.198 142.987C176.198 143.631 175.553 144.274 174.694 144.274C173.943 144.274 173.191 143.738 173.191 142.88V142.665C173.191 142.558 173.191 142.558 173.298 142.558H173.513C173.62 142.558 173.62 142.558 173.62 142.665V142.88C173.62 143.631 174.157 143.845 174.587 143.845C175.124 143.845 175.553 143.416 175.553 142.987C175.553 142.236 175.231 142.022 174.372 141.378C173.728 140.842 173.083 140.52 173.083 139.662C173.083 138.482 174.157 138.16 174.587 138.16C175.446 138.16 175.983 138.804 175.983 139.555V139.769C175.983 139.876 175.983 139.876 175.876 139.876H175.661C175.553 139.876 175.553 139.769 175.553 139.769V139.555H175.661Z" fill="white"/>
<path d="M179.421 143.201C179.421 143.845 178.884 144.381 178.24 144.381C177.488 144.381 176.951 143.845 176.951 143.201V140.842C176.951 140.198 177.488 139.662 178.24 139.662C178.992 139.662 179.529 140.198 179.529 140.842V141.914C179.529 142.021 179.529 142.021 179.421 142.021H177.488V143.094C177.488 143.523 177.81 143.845 178.24 143.845C178.669 143.845 178.992 143.523 178.992 143.094V142.88C178.992 142.772 179.099 142.772 179.099 142.772H179.314C179.314 142.772 179.421 142.772 179.421 142.88V143.201ZM177.381 140.949V141.807H178.884V140.949C178.884 140.52 178.562 140.198 178.132 140.198C177.703 140.198 177.381 140.52 177.381 140.949Z" fill="white"/>
<path d="M184.257 141.056C184.257 140.412 183.72 140.305 183.505 140.198H183.397C183.075 140.198 182.645 140.305 182.645 141.056V144.167C182.645 144.167 182.645 144.274 182.538 144.274H182.216C182.108 144.274 182.108 144.274 182.108 144.167V141.056C182.108 140.305 181.571 140.198 181.249 140.198C180.926 140.198 180.604 140.305 180.497 141.056V144.167C180.497 144.167 180.497 144.274 180.389 144.274H180.067C179.959 144.274 179.959 144.167 179.959 144.167V141.056C179.959 140.091 180.711 139.769 181.141 139.769C181.464 139.769 182.001 139.876 182.216 140.305C182.431 139.876 182.86 139.769 183.183 139.769C184.042 139.769 184.472 140.305 184.472 141.056V144.167C184.472 144.167 184.472 144.274 184.364 144.274H184.042C183.935 144.274 183.935 144.274 183.935 144.167V141.056H184.257Z" fill="white"/>
<path d="M186.191 139.233C186.191 139.34 186.191 139.34 186.083 139.34H185.761C185.654 139.34 185.654 139.34 185.654 139.233V138.911C185.654 138.803 185.654 138.803 185.761 138.803H186.083C186.191 138.803 186.191 138.803 186.191 138.911V139.233ZM185.654 139.983C185.654 139.983 185.654 139.876 185.761 139.876H185.976C186.083 139.876 186.083 139.983 186.083 139.983V144.167C186.083 144.274 186.083 144.274 185.976 144.274H185.761C185.654 144.274 185.654 144.274 185.654 144.167V139.983Z" fill="white"/>
<path d="M189.306 142.88C189.306 142.88 189.413 142.88 189.413 142.987V143.201C189.413 143.845 188.876 144.381 188.124 144.381C187.372 144.381 186.835 143.845 186.835 143.201V140.842C186.835 140.198 187.372 139.662 188.124 139.662C188.876 139.662 189.413 140.198 189.413 140.842V141.056C189.413 141.163 189.306 141.163 189.306 141.163H189.091C188.983 141.163 188.983 141.163 188.983 141.056V140.842C188.983 140.412 188.661 140.091 188.232 140.091C187.802 140.091 187.48 140.412 187.48 140.842V143.201C187.48 143.63 187.802 143.952 188.232 143.952C188.661 143.952 188.983 143.63 188.983 143.201V142.987C188.983 142.88 189.091 142.88 189.091 142.88H189.306Z" fill="white"/>
<path d="M192.636 143.201C192.636 143.845 192.099 144.381 191.347 144.381C190.596 144.381 190.059 143.845 190.059 143.201V140.842C190.059 140.198 190.596 139.662 191.347 139.662C192.099 139.662 192.636 140.198 192.636 140.842V143.201ZM190.596 140.949V143.309C190.596 143.738 190.918 144.06 191.347 144.06C191.777 144.06 192.099 143.738 192.099 143.309V140.949C192.099 140.52 191.777 140.198 191.347 140.198C190.918 140.198 190.596 140.52 190.596 140.949Z" fill="white"/>
<path d="M195.537 144.274C195.537 144.274 195.43 144.274 195.43 144.167V140.949C195.43 140.52 195.107 140.198 194.678 140.198C194.248 140.198 193.926 140.52 193.926 140.949V144.167C193.926 144.274 193.819 144.274 193.819 144.274H193.497C193.497 144.274 193.389 144.274 193.389 144.167V140.949C193.389 140.305 193.926 139.769 194.678 139.769C195.537 139.769 195.967 140.305 195.967 140.949V144.167C195.967 144.274 195.859 144.274 195.859 144.274H195.537Z" fill="white"/>
<path d="M199.297 143.201C199.297 143.845 198.76 144.381 198.009 144.381C197.257 144.381 196.72 143.845 196.72 143.201V140.842C196.72 140.198 197.257 139.662 198.009 139.662C198.331 139.662 198.653 139.769 198.868 139.983V138.374C198.868 138.267 198.868 138.267 198.975 138.267H199.19C199.297 138.267 199.297 138.267 199.297 138.374V143.201ZM197.257 143.201C197.257 143.63 197.579 143.952 198.009 143.952C198.438 143.952 198.76 143.63 198.76 143.201V140.842C198.76 140.412 198.438 140.198 198.009 140.198C197.579 140.198 197.257 140.52 197.257 140.949V143.201Z" fill="white"/>
<path d="M202.091 139.983C202.091 139.876 202.198 139.876 202.198 139.876H202.52C202.52 139.876 202.628 139.876 202.628 139.983V143.201C202.628 143.845 202.198 144.381 201.339 144.381C200.587 144.381 200.05 143.845 200.05 143.201V139.983C200.05 139.876 200.158 139.876 200.158 139.876H200.48C200.48 139.876 200.587 139.876 200.587 139.983V143.201C200.587 143.63 200.91 143.952 201.339 143.952C201.876 143.952 202.091 143.63 202.091 143.201V139.983Z" fill="white"/>
<path d="M205.851 142.88C205.851 142.88 205.958 142.88 205.958 142.987V143.201C205.958 143.845 205.422 144.381 204.67 144.381C203.918 144.381 203.381 143.845 203.381 143.201V140.842C203.381 140.198 203.918 139.662 204.67 139.662C205.422 139.662 205.958 140.198 205.958 140.842V141.056C205.958 141.163 205.851 141.163 205.851 141.163H205.636C205.529 141.163 205.529 141.163 205.529 141.056V140.842C205.529 140.412 205.207 140.091 204.777 140.091C204.348 140.091 204.025 140.412 204.025 140.842V143.201C204.025 143.63 204.348 143.952 204.777 143.952C205.207 143.952 205.529 143.63 205.529 143.201V142.987C205.529 142.88 205.636 142.88 205.636 142.88H205.851Z" fill="white"/>
<path d="M207.678 144.274C207.141 144.274 206.819 143.952 206.819 143.416V140.198H206.389C206.389 140.198 206.282 140.198 206.282 140.091V139.876C206.282 139.769 206.389 139.769 206.389 139.769H206.819V139.018C206.819 138.911 206.819 138.911 206.926 138.911L207.141 138.803C207.248 138.803 207.248 138.803 207.248 138.911V139.769H207.893C207.893 139.769 208 139.769 208 139.876V140.091C208 140.198 208 140.198 207.893 140.198H207.248V143.416C207.248 143.63 207.356 143.845 207.678 143.845H207.893C208 143.845 208 143.952 208 143.952V144.167C208 144.167 208 144.274 207.893 144.274H207.678Z" fill="white"/>
<path d="M211.115 143.201C211.115 143.845 210.578 144.381 209.827 144.381C209.075 144.381 208.538 143.845 208.538 143.201V140.842C208.538 140.198 209.075 139.662 209.827 139.662C210.578 139.662 211.115 140.198 211.115 140.842V143.201ZM209.075 140.949V143.309C209.075 143.738 209.397 144.06 209.827 144.06C210.256 144.06 210.578 143.738 210.578 143.309V140.949C210.578 140.52 210.256 140.198 209.827 140.198C209.397 140.198 209.075 140.52 209.075 140.949Z" fill="white"/>
<path d="M213.802 140.091C213.802 140.198 213.694 140.198 213.587 140.198C213.48 140.198 213.372 140.198 213.265 140.198C212.728 140.198 212.406 140.627 212.406 141.056V144.167C212.406 144.274 212.298 144.274 212.298 144.274H212.083C212.083 144.274 211.976 144.274 211.976 144.167V141.056C211.976 140.198 212.728 139.769 213.265 139.769C213.48 139.769 213.587 139.769 213.802 139.769C213.909 139.769 213.909 139.876 213.909 139.876V140.091H213.802Z" fill="white"/>
<path d="M217.992 140.091C217.992 140.198 217.884 140.198 217.777 140.198C217.67 140.198 217.562 140.198 217.455 140.198C216.918 140.198 216.596 140.627 216.596 141.056V144.167C216.596 144.274 216.488 144.274 216.488 144.274H216.274C216.274 144.274 216.166 144.274 216.166 144.167V141.056C216.166 140.198 216.918 139.769 217.455 139.769C217.67 139.769 217.777 139.769 217.992 139.769C218.099 139.769 218.099 139.876 218.099 139.876V140.091H217.992Z" fill="white"/>
<path d="M220.785 143.201C220.785 143.845 220.248 144.381 219.604 144.381C218.852 144.381 218.315 143.845 218.315 143.201V140.842C218.315 140.198 218.852 139.662 219.604 139.662C220.355 139.662 220.892 140.198 220.892 140.842V141.914C220.892 142.021 220.892 142.021 220.785 142.021H218.852V143.094C218.852 143.523 219.174 143.845 219.604 143.845C220.033 143.845 220.355 143.523 220.355 143.094V142.88C220.355 142.772 220.463 142.772 220.463 142.772H220.678C220.678 142.772 220.785 142.772 220.785 142.88V143.201ZM218.745 140.949V141.807H220.248V140.949C220.248 140.52 219.926 140.198 219.496 140.198C219.067 140.198 218.745 140.52 218.745 140.949Z" fill="white"/>
<path d="M223.364 140.949C223.364 140.52 223.042 140.198 222.612 140.198C222.182 140.198 221.86 140.52 221.86 140.949C221.86 141.378 222.075 141.485 222.719 141.807C223.256 142.129 223.901 142.558 223.901 143.201C223.901 143.845 223.364 144.381 222.612 144.381C221.753 144.381 221.323 143.845 221.323 143.201V143.094C221.323 142.987 221.323 142.987 221.431 142.987H221.645C221.753 142.987 221.753 142.987 221.753 143.094V143.201C221.753 143.63 222.075 143.952 222.505 143.952C222.934 143.952 223.256 143.63 223.256 143.201C223.256 142.772 222.827 142.558 222.182 142.129C221.753 141.807 221.323 141.485 221.323 140.949C221.323 140.305 221.86 139.769 222.505 139.769C223.256 139.769 223.793 140.305 223.793 140.949V141.056C223.793 141.163 223.793 141.163 223.686 141.163H223.471C223.364 141.163 223.364 141.163 223.364 141.056V140.949Z" fill="white"/>
<path d="M227.016 143.201C227.016 143.845 226.479 144.381 225.835 144.381C225.083 144.381 224.546 143.845 224.546 143.201V140.842C224.546 140.198 225.083 139.662 225.835 139.662C226.587 139.662 227.124 140.198 227.124 140.842V141.914C227.124 142.021 227.124 142.021 227.016 142.021H225.083V143.094C225.083 143.523 225.406 143.845 225.835 143.845C226.265 143.845 226.587 143.523 226.587 143.094V142.88C226.587 142.772 226.694 142.772 226.694 142.772H226.909C226.909 142.772 227.016 142.772 227.016 142.88V143.201ZM224.976 140.949V141.807H226.479V140.949C226.479 140.52 226.157 140.198 225.728 140.198C225.298 140.198 224.976 140.52 224.976 140.949Z" fill="white"/>
<path d="M229.702 141.592V140.949C229.702 140.627 229.488 140.198 228.843 140.198C228.414 140.198 228.199 140.412 227.984 140.52H227.877H227.769L227.662 140.412C227.662 140.305 227.662 140.305 227.769 140.198C227.984 139.983 228.306 139.769 228.843 139.769C229.595 139.769 230.132 140.305 230.132 140.949V143.201C230.132 144.059 229.273 144.381 228.843 144.381C228.199 144.381 227.447 144.059 227.447 143.094V142.987C227.447 142.129 227.984 141.592 228.843 141.592H229.702ZM229.702 142.021H229.166C228.306 142.021 228.092 142.45 228.092 142.987V143.094C228.092 143.738 228.629 143.952 228.951 143.952C229.273 143.952 229.702 143.738 229.702 143.201V142.021Z" fill="white"/>
<path d="M232.818 140.091C232.818 140.198 232.711 140.198 232.604 140.198C232.496 140.198 232.389 140.198 232.281 140.198C231.744 140.198 231.422 140.627 231.422 141.056V144.167C231.422 144.274 231.315 144.274 231.315 144.274H230.993C230.993 144.274 230.885 144.274 230.885 144.167V141.056C230.885 140.198 231.637 139.769 232.174 139.769C232.389 139.769 232.496 139.769 232.711 139.769C232.818 139.769 232.818 139.876 232.818 139.876V140.091Z" fill="white"/>
<path d="M235.612 142.88C235.612 142.88 235.719 142.88 235.719 142.987V143.201C235.719 143.845 235.182 144.381 234.43 144.381C233.678 144.381 233.141 143.845 233.141 143.201V140.842C233.141 140.198 233.678 139.662 234.43 139.662C235.182 139.662 235.719 140.198 235.719 140.842V141.056C235.719 141.163 235.612 141.163 235.612 141.163H235.289C235.182 141.163 235.182 141.163 235.182 141.056V140.842C235.182 140.412 234.86 140.091 234.43 140.091C234.001 140.091 233.678 140.412 233.678 140.842V143.201C233.678 143.63 234.001 143.952 234.43 143.952C234.86 143.952 235.182 143.63 235.182 143.201V142.987C235.182 142.88 235.289 142.88 235.289 142.88H235.612Z" fill="white"/>
<path d="M238.942 144.167C238.942 144.274 238.835 144.274 238.835 144.274H238.513C238.513 144.274 238.405 144.274 238.405 144.167V140.949C238.405 140.52 238.083 140.198 237.653 140.198C237.224 140.198 236.902 140.52 236.902 140.949V144.167C236.902 144.274 236.902 144.274 236.794 144.274H236.579C236.472 144.274 236.472 144.274 236.472 144.167V138.374C236.472 138.267 236.472 138.267 236.579 138.267H236.794C236.902 138.267 236.902 138.374 236.902 138.374V140.091C237.116 139.876 237.439 139.769 237.761 139.769C238.405 139.769 238.942 140.305 238.942 140.949V144.167Z" fill="white"/>
<path d="M22.1323 130.544V132.261C22.1323 132.368 22.0249 132.583 21.9174 132.583H20.5207C20.3059 132.583 20.1984 132.475 20.1984 132.261V130.759C20.1984 129.579 19.8761 128.828 18.5868 128.721V132.261C18.5868 132.475 18.4794 132.475 18.372 132.475H16.8678C16.653 132.475 16.653 132.368 16.653 132.261V123.465C16.653 123.25 16.7604 123.25 16.8678 123.25H18.2645C18.4794 123.25 18.4794 123.358 18.4794 123.465V127.005C19.6612 126.897 20.091 126.147 20.091 124.967V123.465C20.091 123.25 20.3059 123.143 20.4133 123.143H21.81C22.0249 123.143 22.0249 123.358 22.0249 123.465V125.181C22.0249 126.361 21.5951 127.219 20.8431 127.756C21.7026 128.399 22.1323 129.365 22.1323 130.544Z" fill="white"/>
<path d="M24.8175 128.506C24.8175 128.72 24.7101 128.72 24.6027 128.72H23.2066C23.0992 128.72 22.9918 128.72 22.9918 128.506V127.433C22.9918 127.219 23.0992 127.219 23.2066 127.219H24.6027C24.8175 127.219 24.8175 127.326 24.8175 127.433V128.506Z" fill="white"/>
<path d="M30.9423 126.039C30.9423 126.253 30.9423 126.36 30.7274 126.36H29.3307C29.1158 126.36 29.1158 126.253 29.1158 126.039V125.502C29.1158 125.073 28.7935 124.644 28.3638 124.644C27.934 124.644 27.6117 124.966 27.6117 125.395V130.115C27.6117 130.544 27.934 130.973 28.3638 130.973C28.901 130.973 29.1158 130.544 29.1158 130.115V129.364C29.1158 129.149 29.1158 129.149 29.3307 129.149H30.7274C30.9423 129.149 30.9423 129.149 30.9423 129.364V130.329C30.9423 131.831 29.7605 132.689 28.2563 132.689C26.7522 132.689 25.5704 131.831 25.5704 130.329V125.395C25.5704 124.108 26.7522 123.035 28.2563 123.035C30.0828 123.035 30.8349 124.215 30.8349 125.395V126.039H30.9423Z" fill="white"/>
<path d="M37.0663 123.143C37.1737 123.143 37.2812 123.25 37.2812 123.357V132.153C37.2812 132.368 37.1737 132.368 37.0663 132.368H35.6696C35.4547 132.368 35.4547 132.261 35.4547 132.153V128.506H33.8431V132.153C33.8431 132.368 33.7357 132.368 33.6283 132.368H32.1241C31.9092 132.368 31.9092 132.261 31.9092 132.153V123.357C31.9092 123.143 32.0167 123.143 32.1241 123.143H33.6283C33.8431 123.143 33.8431 123.25 33.8431 123.357V126.79H35.4547V123.357C35.4547 123.25 35.5621 123.143 35.6696 123.143H37.0663Z" fill="white"/>
<path d="M40.2886 132.26C40.2886 132.475 40.1812 132.475 40.0738 132.475H38.5703C38.3555 132.475 38.3555 132.367 38.3555 132.26V123.464C38.3555 123.25 38.4629 123.25 38.5703 123.25H40.0738C40.2886 123.25 40.2886 123.357 40.2886 123.464V132.26Z" fill="white"/>
<path d="M41.3638 123.464C41.3638 123.25 41.4712 123.25 41.5786 123.25H44.1572C45.6613 123.25 46.8431 124.322 46.8431 125.717V127.862C46.8431 129.257 45.6613 130.329 44.1572 130.329H43.2977V132.367C43.2977 132.582 43.1902 132.582 43.0828 132.582H41.5786C41.3638 132.582 41.3638 132.475 41.3638 132.367V123.464ZM44.9092 125.61C44.9092 125.073 44.5869 124.751 44.0497 124.751H43.2977V128.506H44.0497C44.5869 128.506 44.9092 128.184 44.9092 127.755V125.61Z" fill="white"/>
<path d="M50.7109 125.503C50.7109 125.074 50.496 124.645 49.9588 124.645C49.6365 124.645 49.2068 124.859 49.2068 125.503C49.2068 126.146 49.6365 126.468 50.2812 126.897C51.6779 127.863 52.7522 128.613 52.7522 130.33C52.7522 131.617 51.6779 132.69 50.0663 132.69C48.3473 132.69 47.3803 131.51 47.3803 130.222V129.901C47.3803 129.686 47.3803 129.579 47.5952 129.579H48.8845C49.0993 129.579 49.0993 129.686 49.0993 129.901V130.222C49.0993 130.866 49.5291 131.081 49.9588 131.081C50.3886 131.081 50.8184 130.759 50.8184 130.33C50.8184 129.686 50.3886 129.364 49.5291 128.721C48.025 127.541 47.2729 127.112 47.2729 125.61C47.2729 123.894 48.8845 123.143 49.8514 123.143C51.3556 123.143 52.4299 124.108 52.4299 125.61V126.039C52.4299 126.254 52.4299 126.254 52.1076 126.254H50.8184C50.6035 126.254 50.6035 126.146 50.6035 126.039V125.503H50.7109Z" fill="white"/>
<path d="M133.657 90.175C145.865 86.9081 153.11 74.3789 149.84 62.1903C146.571 50.0018 134.024 42.7694 121.817 46.0363C109.61 49.3033 102.364 61.8324 105.634 74.021C108.903 86.2096 121.45 93.442 133.657 90.175Z" fill="white"/>
<path fill-rule="evenodd" clip-rule="evenodd" d="M139.67 85.17L126.133 76.9104L118.719 86.779C123.017 88.817 128.067 89.4606 133.116 88.0662C135.48 87.6371 137.736 86.5644 139.67 85.17Z" fill="#FCD60B"/>
<path fill-rule="evenodd" clip-rule="evenodd" d="M148.05 63.6091L120.546 70.9033L141.496 83.668C147.083 78.841 149.769 71.2251 148.05 63.6091Z" fill="#ED0874"/>
<path fill-rule="evenodd" clip-rule="evenodd" d="M116.678 85.8133L124.199 75.8375L117.645 71.8687L107.868 74.4431C109.372 79.2701 112.595 83.2389 116.678 85.8133Z" fill="#0099D8"/>
<path fill-rule="evenodd" clip-rule="evenodd" d="M147.406 61.3566C143.86 51.1663 133.009 45.2666 122.372 48.0555C111.736 50.8445 105.29 61.4639 107.331 72.0833L147.406 61.3566Z" fill="#00B5AF"/>
<path fill-rule="evenodd" clip-rule="evenodd" d="M121.62 55.7787C121.298 54.5988 120.009 53.8479 118.827 54.1697C117.645 54.4915 116.893 55.7787 117.215 56.9586L118.397 61.4639C118.719 62.6438 120.009 63.3947 121.191 63.0729C122.372 62.7511 123.124 61.4639 122.802 60.2839L121.62 55.7787Z" fill="white"/>
<path fill-rule="evenodd" clip-rule="evenodd" d="M131.29 53.2042C130.967 52.0243 129.678 51.2734 128.496 51.5952C127.315 51.917 126.562 53.2043 126.885 54.3842L128.067 58.8894C128.389 60.0693 129.678 60.8202 130.86 60.4984C132.042 60.1766 132.794 58.8894 132.472 57.7095L131.29 53.2042Z" fill="white"/>
</g>
<defs>
<clipPath id="clip0_221_10444">
<rect width="256" height="154" fill="white"/>
</clipPath>
</defs>
</svg>
