<svg width="150" height="250" viewBox="0 0 150 250" fill="none" xmlns="http://www.w3.org/2000/svg">
<g clip-path="url(#clip0_221_10160)">
<rect width="150" height="250" fill="white"/>
<path d="M17.818 205.974C17.9148 205.974 17.9148 206.072 17.9148 206.17V207.341C17.9148 208.317 17.5274 209 16.7527 209.293C17.5274 209.586 17.9148 210.27 17.9148 211.246V212.32C17.9148 212.417 17.9148 212.515 17.818 212.515H17.5274C17.4306 212.515 17.3338 212.417 17.3338 212.32V211.246C17.3338 210.172 16.8496 209.489 15.5907 209.489H15.3002V212.32C15.3002 212.417 15.3002 212.515 15.2034 212.515H14.9129C14.816 212.515 14.7192 212.417 14.7192 212.32V206.072C14.7192 205.974 14.816 205.877 14.816 205.877H15.1065C15.2034 205.877 15.2034 205.974 15.2034 206.072V209.001H15.4939C16.7527 209.001 17.2369 208.317 17.2369 207.243V206.072C17.2369 205.974 17.3338 205.877 17.4306 205.877H17.818V205.974Z" fill="#282829"/>
<path d="M21.4977 211.343C21.4977 212.027 20.9167 212.612 20.142 212.612C19.3673 212.612 18.7863 212.027 18.7863 211.343V208.805C18.7863 208.122 19.3673 207.536 20.142 207.536C20.9167 207.536 21.4977 208.122 21.4977 208.805V211.343ZM19.2705 208.805V211.343C19.2705 211.734 19.6578 212.124 20.142 212.124C20.6262 212.124 21.0136 211.734 21.0136 211.343V208.805C21.0136 208.415 20.6262 208.024 20.142 208.024C19.6578 208.024 19.2705 208.415 19.2705 208.805Z" fill="#282829"/>
<path d="M24.4028 207.927C24.4028 208.024 24.306 208.024 24.2092 208.024C24.1123 208.024 23.9187 208.024 23.8218 208.024C23.2408 208.024 22.8535 208.512 22.8535 209V212.417C22.8535 212.515 22.7566 212.612 22.6598 212.612H22.3693C22.2724 212.612 22.2724 212.515 22.2724 212.515V208.903C22.2724 207.927 23.0471 207.536 23.725 207.536C23.9187 207.536 24.1123 207.536 24.2092 207.536C24.306 207.536 24.4028 207.634 24.4028 207.634V207.927Z" fill="#282829"/>
<path d="M27.5016 211.343C27.5016 212.027 26.9206 212.612 26.1459 212.612C25.3712 212.612 24.7902 212.027 24.7902 211.343V208.805C24.7902 208.122 25.3712 207.536 26.1459 207.536C26.9206 207.536 27.5016 208.122 27.5016 208.805V210.074C27.5016 210.172 27.4048 210.172 27.4048 210.172H25.3712V211.343C25.3712 211.734 25.7586 212.124 26.2427 212.124C26.7269 212.124 27.0174 211.734 27.0174 211.343V211.148C27.0174 211.05 27.1143 211.05 27.1143 211.05H27.4048C27.4048 211.05 27.5016 211.05 27.5016 211.148V211.343ZM25.3712 208.805V209.781H27.0174V208.805C27.0174 208.415 26.6301 208.024 26.2427 208.024C25.7586 208.024 25.3712 208.415 25.3712 208.805Z" fill="#282829"/>
<path d="M30.5036 209.586V208.903C30.5036 208.61 30.213 208.024 29.5352 208.024C29.051 208.024 28.8573 208.22 28.6637 208.415H28.5668H28.47L28.3731 208.22C28.3731 208.122 28.3731 208.122 28.47 208.024C28.7605 207.829 29.051 207.634 29.632 207.634C30.5036 207.634 30.9877 208.22 30.9877 208.903V211.441C30.9877 212.417 30.1162 212.71 29.632 212.71C28.9542 212.71 28.1795 212.319 28.1795 211.343V211.246C28.1795 210.367 28.7605 209.781 29.7289 209.781H30.5036V209.586ZM30.5036 209.977H29.9225C28.9542 209.977 28.6637 210.465 28.6637 211.05V211.148C28.6637 211.831 29.2447 212.124 29.632 212.124C29.9225 212.124 30.5036 211.929 30.5036 211.343V209.977Z" fill="#282829"/>
<path d="M37.0885 207.634C37.0885 207.731 37.0885 207.829 36.9916 207.829H36.7011C36.6043 207.829 36.6043 207.829 36.6043 207.634V207.341C36.6043 206.755 36.2169 206.365 35.6359 206.365C35.0549 206.365 34.5707 206.853 34.5707 207.341V211.148C34.5707 211.734 35.0549 212.124 35.6359 212.124C36.2169 212.124 36.7011 211.636 36.7011 211.148V210.758C36.7011 210.66 36.7011 210.562 36.798 210.562H37.0885C37.1853 210.562 37.1853 210.562 37.1853 210.758V211.148C37.1853 212.027 36.5074 212.612 35.6359 212.612C34.7644 212.612 33.9897 212.027 33.9897 211.148V207.341C33.9897 206.56 34.6675 205.877 35.6359 205.877C36.6043 205.877 37.1853 206.56 37.1853 207.341V207.634H37.0885Z" fill="#282829"/>
<path d="M40.5746 211.343C40.5746 212.027 39.9935 212.612 39.2188 212.612C38.4442 212.612 37.8631 212.027 37.8631 211.343V208.805C37.8631 208.122 38.4442 207.536 39.2188 207.536C39.9935 207.536 40.5746 208.122 40.5746 208.805V211.343ZM38.3473 208.805V211.343C38.3473 211.734 38.7347 212.124 39.2188 212.124C39.703 212.124 40.0904 211.734 40.0904 211.343V208.805C40.0904 208.415 39.703 208.024 39.2188 208.024C38.7347 208.024 38.3473 208.415 38.3473 208.805Z" fill="#282829"/>
<path d="M42.8018 212.417C42.8018 212.417 42.8018 212.515 42.6081 212.515H42.3176C41.7366 212.515 41.4461 212.222 41.4461 211.539V205.974C41.4461 205.877 41.4461 205.877 41.5429 205.877H41.8335C41.9303 205.877 41.9303 205.974 41.9303 205.974V211.441C41.9303 211.734 42.124 211.929 42.4145 211.929H42.6081C42.705 211.929 42.705 212.027 42.705 212.027V212.417H42.8018Z" fill="#282829"/>
<path d="M44.8354 212.417C44.8354 212.417 44.8354 212.515 44.6417 212.515H44.3512C43.7702 212.515 43.4797 212.222 43.4797 211.539V205.974C43.4797 205.877 43.4797 205.877 43.5765 205.877H43.867C43.9639 205.877 43.9639 205.974 43.9639 205.974V211.441C43.9639 211.734 44.1575 211.929 44.448 211.929H44.6417C44.7385 211.929 44.7386 212.027 44.7386 212.027V212.417H44.8354Z" fill="#282829"/>
<path d="M47.5468 209.586V208.903C47.5468 208.61 47.2563 208.024 46.5784 208.024C46.0942 208.024 45.9006 208.22 45.7069 208.415H45.6101H45.5132L45.4164 208.22C45.4164 208.122 45.4164 208.122 45.5132 208.024C45.8037 207.829 46.0942 207.634 46.6753 207.634C47.5468 207.634 48.031 208.22 48.031 208.903V211.441C48.031 212.417 47.1595 212.71 46.6753 212.71C45.9974 212.71 45.2227 212.319 45.2227 211.343V211.246C45.2227 210.367 45.8037 209.781 46.7721 209.781H47.5468V209.586ZM47.5468 209.977H46.9658C45.9974 209.977 45.7069 210.465 45.7069 211.05V211.148C45.7069 211.831 46.2879 212.124 46.6753 212.124C46.9658 212.124 47.5468 211.929 47.5468 211.343V209.977Z" fill="#282829"/>
<path d="M51.614 211.343C51.614 212.027 51.0329 212.612 50.2582 212.612C49.4835 212.612 48.9025 212.027 48.9025 211.343V206.072C48.9025 205.974 48.9025 205.974 48.9994 205.974H49.2899C49.3867 205.974 49.3867 206.072 49.3867 206.072V207.927C49.6772 207.731 49.9677 207.634 50.2582 207.634C51.0329 207.634 51.614 208.22 51.614 208.903V211.343ZM49.3867 211.343C49.3867 211.734 49.7741 212.124 50.2582 212.124C50.7424 212.124 51.1298 211.734 51.1298 211.343V208.805C51.1298 208.415 50.7424 208.024 50.2582 208.024C49.7741 208.024 49.3867 208.415 49.3867 208.805V211.343Z" fill="#282829"/>
<path d="M55.1969 211.343C55.1969 212.027 54.6159 212.612 53.8412 212.612C53.0665 212.612 52.4855 212.027 52.4855 211.343V208.805C52.4855 208.122 53.0665 207.536 53.8412 207.536C54.6159 207.536 55.1969 208.122 55.1969 208.805V211.343ZM52.9697 208.805V211.343C52.9697 211.734 53.357 212.124 53.8412 212.124C54.3254 212.124 54.7127 211.734 54.7127 211.343V208.805C54.7127 208.415 54.3254 208.024 53.8412 208.024C53.357 208.024 52.9697 208.415 52.9697 208.805Z" fill="#282829"/>
<path d="M58.102 207.927C58.102 208.024 58.0052 208.024 57.9083 208.024C57.8115 208.024 57.6178 208.024 57.521 208.024C56.94 208.024 56.5526 208.512 56.5526 209V212.417C56.5526 212.515 56.4558 212.612 56.3589 212.612H56.0684C55.9716 212.612 55.9716 212.515 55.9716 212.515V208.903C55.9716 207.927 56.7463 207.536 57.4241 207.536C57.6178 207.536 57.8115 207.536 57.9083 207.536C58.0052 207.536 58.102 207.634 58.102 207.634V207.927Z" fill="#282829"/>
<path d="M60.6198 209.586V208.903C60.6198 208.61 60.3293 208.024 59.6514 208.024C59.1672 208.024 58.9735 208.22 58.7799 208.415H58.683H58.5862L58.4894 208.22C58.4894 208.122 58.4894 208.122 58.5862 208.024C58.8767 207.829 59.1672 207.634 59.7482 207.634C60.6198 207.634 61.1039 208.22 61.1039 208.903V211.441C61.1039 212.417 60.2324 212.71 59.7482 212.71C59.0704 212.71 58.2957 212.319 58.2957 211.343V211.246C58.2957 210.367 58.8767 209.781 59.8451 209.781H60.6198V209.586ZM60.6198 209.977H60.0387C59.0704 209.977 58.7799 210.465 58.7799 211.05V211.148C58.7799 211.831 59.3609 212.124 59.7482 212.124C60.0387 212.124 60.6198 211.929 60.6198 211.343V209.977Z" fill="#282829"/>
<path d="M63.0407 212.515C62.4597 212.515 62.1692 212.222 62.1692 211.539V208.024H61.685C61.685 208.024 61.5881 208.024 61.5881 207.927V207.731C61.5881 207.634 61.685 207.634 61.685 207.634H62.1692V206.853C62.1692 206.755 62.266 206.755 62.266 206.658L62.5565 206.56C62.6533 206.56 62.6533 206.56 62.6533 206.658V207.536H63.428C63.5249 207.536 63.5249 207.536 63.5249 207.634V207.829C63.5249 207.927 63.5249 207.927 63.428 207.927H62.6533V211.441C62.6533 211.734 62.847 211.929 63.1375 211.929H63.3312C63.428 211.929 63.428 212.027 63.428 212.027V212.222C63.428 212.222 63.428 212.32 63.2344 212.32H63.0407V212.515Z" fill="#282829"/>
<path d="M64.7838 206.951C64.7838 207.048 64.6869 207.048 64.6869 207.048H64.2996C64.2027 207.048 64.1059 207.048 64.1059 206.951V206.658C64.1059 206.56 64.1059 206.56 64.2027 206.56H64.5901C64.6869 206.56 64.6869 206.56 64.6869 206.658V206.951H64.7838ZM64.2027 207.731C64.2027 207.634 64.2027 207.634 64.2996 207.634H64.5901C64.6869 207.634 64.6869 207.731 64.6869 207.731V212.32C64.6869 212.417 64.6869 212.417 64.5901 212.417H64.2996C64.2027 212.417 64.2027 212.32 64.2027 212.32V207.731Z" fill="#282829"/>
<path d="M66.9141 211.734L67.011 211.441L67.9793 207.731C67.9793 207.634 68.0762 207.634 68.173 207.634H68.4635C68.5604 207.634 68.5604 207.731 68.5604 207.829L67.3015 212.417C67.3015 212.515 67.2046 212.515 67.2046 212.515H66.8173C66.7205 212.515 66.7205 212.515 66.7205 212.417L65.4616 207.829C65.4616 207.731 65.5584 207.634 65.5584 207.634H65.8489C65.9458 207.634 65.9458 207.634 65.9458 207.731L66.9141 211.441V211.734Z" fill="#282829"/>
<path d="M71.6592 211.343C71.6592 212.027 71.0781 212.612 70.3034 212.612C69.5287 212.612 68.9477 212.027 68.9477 211.343V208.805C68.9477 208.122 69.5287 207.536 70.3034 207.536C71.0781 207.536 71.6592 208.122 71.6592 208.805V210.074C71.6592 210.172 71.5623 210.172 71.5623 210.172H69.5287V211.343C69.5287 211.734 69.9161 212.124 70.4003 212.124C70.8845 212.124 71.175 211.734 71.175 211.343V211.148C71.175 211.05 71.2718 211.05 71.2718 211.05H71.5623C71.5623 211.05 71.6592 211.05 71.6592 211.148V211.343ZM69.4319 208.805V209.781H71.0781V208.805C71.0781 208.415 70.6908 208.024 70.3034 208.024C69.8193 208.024 69.4319 208.415 69.4319 208.805Z" fill="#282829"/>
<path d="M76.8883 208.122C76.9852 208.122 76.9852 208.22 76.9852 208.22V208.805H77.5662C77.663 208.805 77.663 208.805 77.663 208.903V209.098C77.663 209.196 77.663 209.196 77.5662 209.196H76.9852V211.148C76.9852 211.929 76.4042 212.515 75.5326 212.515C74.6611 212.515 74.0801 212.027 74.0801 211.148V209.977C74.0801 209.391 74.3706 209.098 74.7579 208.903C74.4674 208.708 74.1769 208.317 74.1769 207.829V207.146C74.1769 206.17 74.9516 205.779 75.5326 205.779C76.2105 205.779 76.8883 206.072 76.8883 207.146C76.8883 207.243 76.8883 207.341 76.7915 207.341H76.501C76.4042 207.341 76.4042 207.243 76.4042 207.146C76.4042 206.462 76.1136 206.267 75.6295 206.267C75.2421 206.267 74.7579 206.462 74.7579 207.146V207.927C74.7579 208.317 74.9516 208.805 75.339 208.805H76.501V208.22C76.501 208.22 76.501 208.122 76.5978 208.122H76.8883ZM76.501 209.293H75.4358C74.8548 209.293 74.6611 209.781 74.6611 210.074V211.246C74.6611 211.929 75.0484 212.124 75.6295 212.124C76.1136 212.124 76.501 211.831 76.501 211.246V209.293Z" fill="#282829"/>
<path d="M83.6669 205.974C83.7637 205.974 83.7637 206.072 83.7637 206.17V212.417C83.7637 212.515 83.7637 212.612 83.6669 212.612H83.3764C83.2795 212.612 83.2795 212.515 83.2795 212.417V209.489H81.1491V212.417C81.1491 212.515 81.1491 212.612 81.0523 212.612H80.7618C80.6649 212.612 80.6649 212.515 80.6649 212.417V206.17C80.6649 206.072 80.6649 205.974 80.7618 205.974H81.0523C81.1491 205.974 81.1491 206.072 81.1491 206.17V209.001H83.2795V206.17C83.2795 206.072 83.2795 205.974 83.3764 205.974H83.6669Z" fill="#282829"/>
<path d="M85.5068 206.951C85.5068 207.048 85.4099 207.048 85.4099 207.048H85.0226C84.9258 207.048 84.8289 207.048 84.8289 206.951V206.658C84.8289 206.56 84.8289 206.56 84.9258 206.56H85.3131C85.4099 206.56 85.4099 206.56 85.4099 206.658V206.951H85.5068ZM84.9258 207.731C84.9258 207.634 84.9258 207.634 85.0226 207.634H85.3131C85.4099 207.634 85.4099 207.731 85.4099 207.731V212.32C85.4099 212.417 85.4099 212.417 85.3131 212.417H85.0226C84.9258 212.417 84.9258 212.32 84.9258 212.32V207.731Z" fill="#282829"/>
<path d="M88.1214 212.222C88.8961 212.222 89.3803 212.417 89.3803 213.198V213.979C89.3803 214.077 89.3803 214.077 89.2834 214.077H88.9929C88.8961 214.077 88.8961 213.979 88.8961 213.979V213.296C88.8961 212.808 88.6056 212.612 88.1214 212.612H87.4435H87.3467C86.7657 212.612 86.3783 212.124 86.3783 211.734V211.636C86.3783 211.246 86.572 210.953 86.7657 210.758C86.572 210.562 86.4752 210.269 86.4752 209.879V208.903C86.4752 208.122 87.0562 207.634 87.8309 207.634C88.0245 207.634 88.2182 207.634 88.3151 207.731H89.2834C89.3803 207.731 89.4771 207.829 89.4771 207.829V208.024C89.4771 208.122 89.4771 208.122 89.2834 208.122H88.9929C89.1866 208.317 89.2834 208.61 89.2834 208.903V209.977C89.2834 210.758 88.7024 211.246 87.9277 211.246C87.6372 211.246 87.4435 211.148 87.2499 211.05C87.0562 211.246 87.0562 211.343 87.0562 211.636C87.0562 211.929 87.3467 212.222 87.6372 212.222H88.1214ZM88.6056 208.805C88.6056 208.415 88.2182 208.024 87.734 208.024C87.2499 208.024 86.8625 208.415 86.8625 208.805V209.977C86.8625 210.367 87.2499 210.758 87.734 210.758C88.2182 210.758 88.6056 210.367 88.6056 209.977V208.805Z" fill="#282829"/>
<path d="M92.8664 212.417C92.8664 212.515 92.7695 212.515 92.7695 212.515H92.479C92.3822 212.515 92.3822 212.515 92.3822 212.417V208.805C92.3822 208.415 91.9948 208.024 91.5107 208.024C91.0265 208.024 90.6391 208.415 90.6391 208.903V212.417C90.6391 212.515 90.6391 212.515 90.4455 212.515H90.1549C90.0581 212.515 90.0581 212.515 90.0581 212.417V206.072C90.0581 205.974 90.0581 205.974 90.1549 205.974H90.4455C90.5423 205.974 90.5423 206.072 90.5423 206.072V207.927C90.736 207.731 91.1233 207.536 91.5107 207.536C92.2853 207.536 92.7695 208.122 92.7695 208.805V212.417H92.8664Z" fill="#282829"/>
<path d="M96.062 209.293C96.062 209.391 95.9652 209.391 95.9652 209.391H93.9316C93.8347 209.391 93.8347 209.391 93.8347 209.293V209.098C93.8347 209 93.9316 209 93.9316 209H95.8683C95.9652 209 95.9652 209 95.9652 209.098V209.293H96.062Z" fill="#282829"/>
<path d="M97.9987 212.515C97.4177 212.515 97.1272 212.222 97.1272 211.539V208.024H96.643C96.643 208.024 96.5462 208.024 96.5462 207.927V207.731C96.5462 207.634 96.643 207.634 96.643 207.634H97.1272V206.853C97.1272 206.755 97.224 206.755 97.224 206.658L97.5145 206.56C97.6114 206.56 97.6114 206.56 97.6114 206.658V207.536H98.3861C98.4829 207.536 98.4829 207.536 98.4829 207.634V207.829C98.4829 207.927 98.4829 207.927 98.3861 207.927H97.6114V211.441C97.6114 211.734 97.8051 211.929 98.0956 211.929H98.2892C98.3861 211.929 98.3861 212.027 98.3861 212.027V212.222C98.3861 212.222 98.3861 212.32 98.1924 212.32H97.9987V212.515Z" fill="#282829"/>
<path d="M101.679 211.343C101.679 212.027 101.098 212.612 100.323 212.612C99.5481 212.612 98.9671 212.027 98.9671 211.343V208.805C98.9671 208.122 99.5481 207.536 100.323 207.536C101.098 207.536 101.679 208.122 101.679 208.805V210.074C101.679 210.172 101.582 210.172 101.582 210.172H99.5481V211.343C99.5481 211.734 99.9355 212.124 100.42 212.124C100.904 212.124 101.194 211.734 101.194 211.343V211.148C101.194 211.05 101.291 211.05 101.291 211.05H101.582C101.582 211.05 101.679 211.05 101.679 211.148V211.343ZM99.5481 208.805V209.781H101.194V208.805C101.194 208.415 100.807 208.024 100.42 208.024C99.9355 208.024 99.5481 208.415 99.5481 208.805Z" fill="#282829"/>
<path d="M105.068 210.953C105.165 210.953 105.165 210.953 105.165 211.148V211.343C105.165 212.027 104.584 212.612 103.809 212.612C103.034 212.612 102.453 212.027 102.453 211.343V208.805C102.453 208.122 103.034 207.536 103.809 207.536C104.584 207.536 105.165 208.122 105.165 208.805V209.098C105.165 209.196 105.068 209.293 105.068 209.293H104.777C104.68 209.293 104.68 209.293 104.68 209.196V208.903C104.68 208.512 104.39 208.122 103.906 208.122C103.422 208.122 103.034 208.512 103.034 208.903V211.441C103.034 211.831 103.422 212.222 103.906 212.222C104.39 212.222 104.68 211.831 104.68 211.441V211.246C104.68 211.148 104.777 211.05 104.777 211.05H105.068V210.953Z" fill="#282829"/>
<path d="M108.748 212.417C108.748 212.515 108.651 212.515 108.651 212.515H108.36C108.263 212.515 108.263 212.515 108.263 212.417V208.805C108.263 208.415 107.876 208.024 107.392 208.024C106.908 208.024 106.52 208.415 106.52 208.903V212.417C106.52 212.515 106.52 212.515 106.327 212.515H106.036C105.939 212.515 105.939 212.515 105.939 212.417V206.072C105.939 205.974 105.939 205.974 106.036 205.974H106.327C106.424 205.974 106.424 206.072 106.424 206.072V207.927C106.617 207.731 107.005 207.536 107.392 207.536C108.167 207.536 108.651 208.122 108.651 208.805V212.417H108.748Z" fill="#282829"/>
<path d="M112.427 212.417C112.427 212.515 112.427 212.612 112.331 212.612H112.04C111.943 212.612 111.943 212.515 111.943 212.417V206.17C111.943 206.072 111.943 205.974 112.04 205.974H112.331C112.427 205.974 112.427 206.072 112.427 206.17V212.417Z" fill="#282829"/>
<path d="M115.913 212.515C115.817 212.515 115.817 212.515 115.817 212.417V208.903C115.817 208.512 115.526 208.122 114.945 208.122C114.461 208.122 114.074 208.512 114.074 208.903V212.515C114.074 212.612 113.977 212.612 113.977 212.612H113.686C113.589 212.612 113.589 212.515 113.589 212.515V209C113.589 208.317 114.17 207.731 114.945 207.731C115.817 207.731 116.301 208.317 116.301 209V212.515C116.301 212.612 116.204 212.612 116.204 212.612H115.913V212.515Z" fill="#282829"/>
<path d="M117.85 206.951C117.85 207.048 117.753 207.048 117.753 207.048H117.366C117.269 207.048 117.172 207.048 117.172 206.951V206.658C117.172 206.56 117.172 206.56 117.269 206.56H117.657C117.753 206.56 117.753 206.56 117.753 206.658V206.951H117.85ZM117.269 207.731C117.269 207.634 117.269 207.634 117.366 207.634H117.657C117.753 207.634 117.753 207.731 117.753 207.731V212.32C117.753 212.417 117.753 212.417 117.657 212.417H117.366C117.269 212.417 117.269 212.32 117.269 212.32V207.731Z" fill="#282829"/>
<path d="M119.884 212.515C119.303 212.515 119.012 212.222 119.012 211.539V208.024H118.528C118.528 208.024 118.431 208.024 118.431 207.927V207.731C118.431 207.634 118.528 207.634 118.528 207.634H119.012V206.853C119.012 206.755 119.109 206.755 119.109 206.658L119.4 206.56C119.496 206.56 119.496 206.56 119.496 206.658V207.536H120.271C120.368 207.536 120.368 207.536 120.368 207.634V207.829C120.368 207.927 120.368 207.927 120.271 207.927H119.496V211.441C119.496 211.734 119.69 211.929 119.981 211.929H120.174C120.271 211.929 120.271 212.027 120.271 212.027V212.222C120.271 212.222 120.271 212.32 120.077 212.32H119.884V212.515Z" fill="#282829"/>
<path d="M121.53 206.951C121.53 207.048 121.433 207.048 121.433 207.048H121.046C120.949 207.048 120.852 207.048 120.852 206.951V206.658C120.852 206.56 120.852 206.56 120.949 206.56H121.336C121.433 206.56 121.433 206.56 121.433 206.658V206.951H121.53ZM120.949 207.731C120.949 207.634 120.949 207.634 121.046 207.634H121.336C121.433 207.634 121.433 207.731 121.433 207.731V212.32C121.433 212.417 121.433 212.417 121.336 212.417H121.046C120.949 212.417 120.949 212.32 120.949 212.32V207.731Z" fill="#282829"/>
<path d="M124.629 209.586V208.903C124.629 208.61 124.338 208.024 123.66 208.024C123.176 208.024 122.983 208.22 122.789 208.415H122.692H122.595L122.498 208.22C122.498 208.122 122.498 208.122 122.595 208.024C122.886 207.829 123.176 207.634 123.757 207.634C124.629 207.634 125.113 208.22 125.113 208.903V211.441C125.113 212.417 124.241 212.71 123.757 212.71C123.079 212.71 122.305 212.319 122.305 211.343V211.246C122.305 210.367 122.886 209.781 123.854 209.781H124.629V209.586ZM124.629 209.977H124.048C123.079 209.977 122.789 210.465 122.789 211.05V211.148C122.789 211.831 123.37 212.124 123.757 212.124C124.048 212.124 124.629 211.929 124.629 211.343V209.977Z" fill="#282829"/>
<path d="M127.05 212.515C126.469 212.515 126.178 212.222 126.178 211.539V208.024H125.694C125.694 208.024 125.597 208.024 125.597 207.927V207.731C125.597 207.634 125.694 207.634 125.694 207.634H126.178V206.853C126.178 206.755 126.275 206.755 126.275 206.658L126.566 206.56C126.662 206.56 126.662 206.56 126.662 206.658V207.536H127.437C127.534 207.536 127.534 207.536 127.534 207.634V207.829C127.534 207.927 127.534 207.927 127.437 207.927H126.662V211.441C126.662 211.734 126.856 211.929 127.147 211.929H127.34C127.437 211.929 127.437 212.027 127.437 212.027V212.222C127.437 212.222 127.437 212.32 127.243 212.32H127.05V212.515Z" fill="#282829"/>
<path d="M128.793 206.951C128.793 207.048 128.696 207.048 128.696 207.048H128.309C128.212 207.048 128.115 207.048 128.115 206.951V206.658C128.115 206.56 128.115 206.56 128.212 206.56H128.599C128.696 206.56 128.696 206.56 128.696 206.658V206.951H128.793ZM128.212 207.731C128.212 207.634 128.212 207.634 128.309 207.634H128.599C128.696 207.634 128.696 207.731 128.696 207.731V212.32C128.696 212.417 128.696 212.417 128.599 212.417H128.309C128.212 212.417 128.212 212.32 128.212 212.32V207.731Z" fill="#282829"/>
<path d="M130.923 211.734L131.02 211.441L131.988 207.731C131.988 207.634 132.085 207.634 132.182 207.634H132.473C132.569 207.634 132.569 207.731 132.569 207.829L131.311 212.417C131.311 212.515 131.214 212.515 131.214 212.515H130.73C130.633 212.515 130.633 212.515 130.633 212.417L129.374 207.829C129.374 207.731 129.471 207.634 129.471 207.634H129.761C129.858 207.634 129.858 207.634 129.858 207.731L130.826 211.441L130.923 211.734Z" fill="#282829"/>
<path d="M135.571 211.343C135.571 212.027 134.99 212.612 134.216 212.612C133.441 212.612 132.86 212.027 132.86 211.343V208.805C132.86 208.122 133.441 207.536 134.216 207.536C134.99 207.536 135.571 208.122 135.571 208.805V210.074C135.571 210.172 135.475 210.172 135.475 210.172H133.441V211.343C133.441 211.734 133.828 212.124 134.312 212.124C134.797 212.124 135.087 211.734 135.087 211.343V211.148C135.087 211.05 135.184 211.05 135.184 211.05H135.475C135.475 211.05 135.571 211.05 135.571 211.148V211.343ZM133.441 208.805V209.781H135.087V208.805C135.087 208.415 134.7 208.024 134.312 208.024C133.828 208.024 133.441 208.415 133.441 208.805Z" fill="#282829"/>
<path d="M17.7211 219.348C17.818 219.348 17.818 219.348 17.818 219.446V219.641C17.818 219.738 17.7211 219.738 17.7211 219.738H16.8496V224.034C16.8496 224.131 16.8496 224.131 16.7528 224.131H16.4623C16.3654 224.131 16.3654 224.034 16.3654 224.034V219.738H15.8812C15.7844 219.738 15.7844 219.738 15.7844 219.641V219.446C15.7844 219.348 15.8812 219.348 15.8812 219.348H16.3654V218.957C16.3654 217.884 16.8496 217.591 17.6243 217.591C17.7211 217.591 17.818 217.591 17.818 217.688V217.884C17.818 217.981 17.7211 217.981 17.6243 217.981C17.0433 217.981 16.8496 218.177 16.8496 218.957V219.25H17.7211V219.348Z" fill="#282829"/>
<path d="M21.0136 223.057C21.0136 223.741 20.4325 224.326 19.6578 224.326C18.8831 224.326 18.3021 223.741 18.3021 223.057V220.519C18.3021 219.836 18.8831 219.25 19.6578 219.25C20.4325 219.25 21.0136 219.836 21.0136 220.519V223.057ZM18.7863 220.519V223.057C18.7863 223.448 19.1737 223.838 19.6578 223.838C20.142 223.838 20.5294 223.448 20.5294 223.057V220.519C20.5294 220.129 20.142 219.738 19.6578 219.738C19.1737 219.738 18.7863 220.129 18.7863 220.519Z" fill="#282829"/>
<path d="M23.8218 219.641C23.8218 219.738 23.725 219.738 23.6281 219.738C23.5313 219.738 23.3376 219.738 23.2408 219.738C22.6598 219.738 22.2724 220.226 22.2724 220.715V224.131C22.2724 224.229 22.1756 224.326 22.0788 224.326H21.7882C21.6914 224.326 21.6914 224.229 21.6914 224.229V220.617C21.6914 219.641 22.4661 219.25 23.144 219.25C23.3376 219.25 23.5313 219.25 23.6281 219.25C23.725 219.25 23.8218 219.348 23.8218 219.348V219.641Z" fill="#282829"/>
<path d="M26.5333 217.786C26.5333 217.688 26.6301 217.591 26.7269 217.591H28.1795C29.1479 217.591 29.7289 218.274 29.7289 219.153V220.519C29.7289 221.398 29.051 222.081 28.1795 222.081H27.1143V223.936C27.1143 224.034 27.1143 224.131 27.0174 224.131H26.7269C26.6301 224.131 26.6301 224.034 26.6301 223.936V217.786H26.5333ZM29.2447 219.25C29.2447 218.665 28.8573 218.177 28.1795 218.177H27.1143V221.691H28.1795C28.8573 221.691 29.2447 221.203 29.2447 220.617V219.25Z" fill="#282829"/>
<path d="M32.5371 219.641C32.5371 219.738 32.4403 219.738 32.3434 219.738C32.2466 219.738 32.0529 219.738 31.9561 219.738C31.3751 219.738 30.9877 220.226 30.9877 220.715V224.131C30.9877 224.229 30.8909 224.326 30.7941 224.326H30.5035C30.4067 224.326 30.4067 224.229 30.4067 224.229V220.617C30.4067 219.641 31.1814 219.25 31.8593 219.25C32.0529 219.25 32.2466 219.25 32.3434 219.25C32.4403 219.25 32.5371 219.348 32.5371 219.348V219.641Z" fill="#282829"/>
<path d="M35.6359 223.057C35.6359 223.741 35.0549 224.326 34.2802 224.326C33.5055 224.326 32.9245 223.741 32.9245 223.057V220.519C32.9245 219.836 33.5055 219.25 34.2802 219.25C35.0549 219.25 35.6359 219.836 35.6359 220.519V223.057ZM33.4087 220.519V223.057C33.4087 223.448 33.796 223.838 34.2802 223.838C34.7644 223.838 35.1517 223.448 35.1517 223.057V220.519C35.1517 220.129 34.7644 219.738 34.2802 219.738C33.796 219.738 33.4087 220.129 33.4087 220.519Z" fill="#282829"/>
<path d="M38.4442 220.519C38.4442 220.129 38.0568 219.738 37.5726 219.738C37.0884 219.738 36.7979 220.129 36.7979 220.519C36.7979 221.007 36.9916 221.105 37.6695 221.495C38.2505 221.886 39.0252 222.276 39.0252 223.057C39.0252 223.741 38.4442 224.326 37.6695 224.326C36.7011 224.326 36.2169 223.741 36.2169 223.057V222.862C36.2169 222.764 36.3138 222.764 36.4106 222.764H36.7011C36.7979 222.764 36.7979 222.862 36.7979 222.862V223.057C36.7979 223.448 37.1853 223.838 37.6695 223.838C38.1537 223.838 38.541 223.448 38.541 223.057C38.541 222.667 38.1536 222.374 37.379 221.788C36.8948 221.495 36.4106 221.105 36.4106 220.519C36.4106 219.836 36.9916 219.25 37.7663 219.25C38.541 219.25 39.122 219.836 39.122 220.519V220.715C39.122 220.812 39.122 220.812 39.0252 220.812H38.8315C38.7347 220.812 38.7347 220.812 38.7347 220.715V220.519H38.4442Z" fill="#282829"/>
<path d="M42.5113 223.057C42.5113 223.741 41.9303 224.326 41.1556 224.326C40.8651 224.326 40.4777 224.229 40.284 224.034V225.693C40.284 225.791 40.2841 225.791 40.1872 225.791H39.8967C39.7999 225.791 39.7999 225.693 39.7999 225.693V220.519C39.7999 219.836 40.3809 219.25 41.1556 219.25C41.9303 219.25 42.5113 219.836 42.5113 220.519V223.057ZM40.284 223.057C40.284 223.448 40.6714 223.838 41.1556 223.838C41.6398 223.838 42.0271 223.448 42.0271 223.057V220.519C42.0271 220.129 41.6398 219.738 41.1556 219.738C40.6714 219.738 40.284 220.129 40.284 220.519V223.057Z" fill="#282829"/>
<path d="M45.9974 223.057C45.9974 223.741 45.4164 224.326 44.6417 224.326C43.867 224.326 43.286 223.741 43.286 223.057V220.519C43.286 219.836 43.867 219.25 44.6417 219.25C45.4164 219.25 45.9974 219.836 45.9974 220.519V221.788C45.9974 221.886 45.9006 221.886 45.9006 221.886H43.867V223.057C43.867 223.448 44.2544 223.838 44.7386 223.838C45.2227 223.838 45.5133 223.448 45.5133 223.057V222.862C45.5133 222.764 45.6101 222.764 45.6101 222.764H45.9006C45.9006 222.764 45.9974 222.764 45.9974 222.862V223.057ZM43.7702 220.519V221.495H45.5133V220.519C45.5133 220.129 45.1259 219.738 44.7386 219.738C44.1575 219.738 43.7702 220.129 43.7702 220.519Z" fill="#282829"/>
<path d="M49.2899 222.667C49.3867 222.667 49.3867 222.667 49.3867 222.862V223.057C49.3867 223.741 48.8057 224.326 48.031 224.326C47.2563 224.326 46.6753 223.741 46.6753 223.057V220.519C46.6753 219.836 47.2563 219.25 48.031 219.25C48.8057 219.25 49.3867 219.836 49.3867 220.519V220.812C49.3867 220.91 49.2899 221.007 49.2899 221.007H48.9993C48.9025 221.007 48.9025 221.007 48.9025 220.91V220.617C48.9025 220.226 48.612 219.836 48.1278 219.836C47.6436 219.836 47.2563 220.226 47.2563 220.617V223.155C47.2563 223.545 47.6436 223.936 48.1278 223.936C48.612 223.936 48.9025 223.545 48.9025 223.155V222.96C48.9025 222.862 48.9993 222.764 48.9993 222.764H49.2899V222.667Z" fill="#282829"/>
<path d="M51.3234 224.229C50.7424 224.229 50.4519 223.936 50.4519 223.253V219.738H49.9677C49.9677 219.738 49.8709 219.738 49.8709 219.641V219.446C49.8709 219.348 49.9677 219.348 49.9677 219.348H50.3551V218.567C50.3551 218.469 50.4519 218.469 50.4519 218.372L50.7424 218.274C50.8392 218.274 50.8392 218.274 50.8392 218.372V219.25H51.6139C51.7108 219.25 51.7108 219.25 51.7108 219.348V219.543C51.7108 219.641 51.7108 219.641 51.6139 219.641H50.8392V223.155C50.8392 223.448 51.0329 223.643 51.3234 223.643H51.5171C51.6139 223.643 51.6139 223.741 51.6139 223.741V223.936C51.6139 223.936 51.6139 224.034 51.4203 224.034H51.3234V224.229Z" fill="#282829"/>
<path d="M52.9697 218.665C52.9697 218.762 52.8728 218.762 52.8728 218.762H52.4855C52.3886 218.762 52.2918 218.762 52.2918 218.665V218.372C52.2918 218.274 52.2918 218.274 52.3886 218.274H52.776C52.8728 218.274 52.8728 218.274 52.8728 218.372V218.665H52.9697ZM52.3886 219.446C52.3886 219.348 52.3886 219.348 52.4855 219.348H52.776C52.8728 219.348 52.8728 219.446 52.8728 219.446V224.034C52.8728 224.131 52.8728 224.131 52.776 224.131H52.4855C52.3886 224.131 52.3886 224.034 52.3886 224.034V219.446Z" fill="#282829"/>
<path d="M55.2937 223.155L56.2621 219.446C56.2621 219.348 56.3589 219.348 56.4558 219.348H56.7463C56.8431 219.348 56.8431 219.446 56.8431 219.543L55.5842 224.131C55.5842 224.229 55.4874 224.229 55.4874 224.229H55.1969C55.1001 224.229 55.1001 224.229 55.1001 224.131L53.8412 219.543C53.8412 219.446 53.938 219.348 53.938 219.348H54.2285C54.3254 219.348 54.3254 219.348 54.3254 219.446L55.2937 223.155Z" fill="#282829"/>
<path d="M59.8451 223.057C59.8451 223.741 59.264 224.326 58.4894 224.326C57.7147 224.326 57.1336 223.741 57.1336 223.057V220.519C57.1336 219.836 57.7147 219.25 58.4894 219.25C59.264 219.25 59.8451 219.836 59.8451 220.519V221.788C59.8451 221.886 59.7482 221.886 59.7482 221.886H57.7147V223.057C57.7147 223.448 58.102 223.838 58.5862 223.838C59.0704 223.838 59.3609 223.448 59.3609 223.057V222.862C59.3609 222.764 59.4577 222.764 59.4577 222.764H59.7482C59.7482 222.764 59.8451 222.764 59.8451 222.862V223.057ZM57.6178 220.519V221.495H59.264V220.519C59.264 220.129 58.8767 219.738 58.4894 219.738C58.102 219.738 57.6178 220.129 57.6178 220.519Z" fill="#282829"/>
<path d="M65.1711 219.055C65.1711 218.567 64.7837 218.079 64.2027 218.079C63.8154 218.079 63.1375 218.274 63.1375 219.153C63.1375 219.836 63.8154 220.227 64.2027 220.617C65.1711 221.398 65.8489 221.788 65.8489 222.96C65.8489 223.741 65.1711 224.424 64.2027 224.424C63.428 224.424 62.6533 223.838 62.6533 222.862V222.569C62.6533 222.472 62.6533 222.374 62.7502 222.374H63.0407C63.1375 222.374 63.1375 222.472 63.1375 222.569V222.765C63.1375 223.546 63.8154 223.838 64.2027 223.838C64.7837 223.838 65.2679 223.448 65.2679 222.862C65.2679 222.081 64.8806 221.788 64.009 221.105C63.2343 220.519 62.6533 220.129 62.6533 219.153C62.6533 217.786 63.8154 217.591 64.2027 217.591C65.1711 217.591 65.7521 218.274 65.7521 219.055V219.348C65.7521 219.446 65.7521 219.543 65.6553 219.543H65.3648C65.2679 219.543 65.2679 219.446 65.2679 219.348V219.055H65.1711Z" fill="#282829"/>
<path d="M69.2382 223.057C69.2382 223.741 68.6572 224.326 67.8825 224.326C67.1078 224.326 66.5268 223.741 66.5268 223.057V220.519C66.5268 219.836 67.1078 219.25 67.8825 219.25C68.6572 219.25 69.2382 219.836 69.2382 220.519V221.788C69.2382 221.886 69.1414 221.886 69.1414 221.886H67.1078V223.057C67.1078 223.448 67.4952 223.838 67.9793 223.838C68.4635 223.838 68.754 223.448 68.754 223.057V222.862C68.754 222.764 68.8509 222.764 68.8509 222.764H69.1414C69.1414 222.764 69.2382 222.764 69.2382 222.862V223.057ZM67.1078 220.519V221.495H68.754V220.519C68.754 220.129 68.3667 219.738 67.9793 219.738C67.4952 219.738 67.1078 220.129 67.1078 220.519Z" fill="#282829"/>
<path d="M74.5642 220.617C74.5642 219.934 73.9832 219.738 73.6927 219.738H73.5959C73.3053 219.738 72.8212 219.934 72.8212 220.617V224.034C72.8212 224.131 72.8212 224.229 72.7243 224.229H72.4338C72.337 224.229 72.337 224.131 72.337 224.034V220.617C72.337 219.836 71.756 219.738 71.4655 219.738C71.1749 219.738 70.6908 219.934 70.6908 220.617V224.034C70.6908 224.034 70.6908 224.229 70.5939 224.229H70.3034C70.2066 224.229 70.2066 224.131 70.2066 224.034V220.617C70.2066 219.543 70.9813 219.25 71.5623 219.25C71.9496 219.25 72.4338 219.445 72.7243 219.836C72.918 219.348 73.4022 219.25 73.7895 219.25C74.6611 219.25 75.2421 219.836 75.2421 220.617V224.034C75.2421 224.131 75.2421 224.229 75.1452 224.229H74.8547C74.7579 224.229 74.7579 224.131 74.7579 224.034V220.617H74.5642Z" fill="#282829"/>
<path d="M76.6946 218.665C76.6946 218.762 76.5978 218.762 76.5978 218.762H76.2105C76.1136 218.762 76.0168 218.762 76.0168 218.665V218.372C76.0168 218.274 76.0168 218.274 76.1136 218.274H76.501C76.5978 218.274 76.5978 218.274 76.5978 218.372V218.665H76.6946ZM76.1136 219.446C76.1136 219.348 76.1136 219.348 76.2105 219.348H76.501C76.5978 219.348 76.5978 219.446 76.5978 219.446V224.034C76.5978 224.131 76.5978 224.131 76.501 224.131H76.2105C76.1136 224.131 76.1136 224.034 76.1136 224.034V219.446Z" fill="#282829"/>
<path d="M80.0839 222.667C80.1808 222.667 80.1808 222.667 80.1808 222.862V223.057C80.1808 223.741 79.5998 224.326 78.8251 224.326C78.0504 224.326 77.4694 223.741 77.4694 223.057V220.519C77.4694 219.836 78.0504 219.25 78.8251 219.25C79.5998 219.25 80.1808 219.836 80.1808 220.519V220.812C80.1808 220.91 80.0839 221.007 80.0839 221.007H79.7934C79.6966 221.007 79.6966 221.007 79.6966 220.91V220.617C79.6966 220.226 79.4061 219.836 78.9219 219.836C78.4377 219.836 78.0504 220.226 78.0504 220.617V223.155C78.0504 223.545 78.4377 223.936 78.9219 223.936C79.4061 223.936 79.6966 223.545 79.6966 223.155V222.96C79.6966 222.862 79.7934 222.764 79.7934 222.764H80.0839V222.667Z" fill="#282829"/>
<path d="M83.6669 223.057C83.6669 223.741 83.0859 224.326 82.3112 224.326C81.5365 224.326 80.9554 223.741 80.9554 223.057V220.519C80.9554 219.836 81.5365 219.25 82.3112 219.25C83.0859 219.25 83.6669 219.836 83.6669 220.519V223.057ZM81.3428 220.519V223.057C81.3428 223.448 81.7301 223.838 82.2143 223.838C82.6985 223.838 83.0859 223.448 83.0859 223.057V220.519C83.0859 220.129 82.6985 219.738 82.2143 219.738C81.7301 219.738 81.3428 220.129 81.3428 220.519Z" fill="#282829"/>
<path d="M86.8625 224.229C86.7657 224.229 86.7657 224.229 86.7657 224.131V220.617C86.7657 220.226 86.4751 219.836 85.8941 219.836C85.4099 219.836 85.0226 220.226 85.0226 220.617V224.229C85.0226 224.326 84.9258 224.326 84.9258 224.326H84.6353C84.5384 224.326 84.5384 224.229 84.5384 224.229V220.715C84.5384 220.031 85.1194 219.446 85.8941 219.446C86.7657 219.446 87.2498 220.031 87.2498 220.715V224.229C87.2498 224.326 87.153 224.326 87.153 224.326H86.8625V224.229Z" fill="#282829"/>
<path d="M90.9296 223.057C90.9296 223.741 90.3486 224.326 89.5739 224.326C88.7992 224.326 88.2182 223.741 88.2182 223.057V220.519C88.2182 219.836 88.7992 219.25 89.5739 219.25C89.8644 219.25 90.2518 219.348 90.4454 219.543V217.688C90.4454 217.591 90.4454 217.591 90.5423 217.591H90.8328C90.9296 217.591 90.9296 217.688 90.9296 217.688V223.057ZM88.6055 223.057C88.6055 223.448 88.9929 223.838 89.4771 223.838C89.9613 223.838 90.3486 223.448 90.3486 223.057V220.519C90.3486 220.129 89.9613 219.738 89.4771 219.738C88.9929 219.738 88.6055 220.129 88.6055 220.519V223.057Z" fill="#282829"/>
<path d="M93.9316 219.543C93.9316 219.446 94.0284 219.446 94.0284 219.446H94.3189C94.4158 219.446 94.4158 219.446 94.4158 219.543V223.057C94.4158 223.741 93.9316 224.326 93.0601 224.326C92.2854 224.326 91.7043 223.741 91.7043 223.057V219.543C91.7043 219.446 91.8012 219.446 91.8012 219.446H92.0917C92.1885 219.446 92.1885 219.543 92.1885 219.543V223.057C92.1885 223.546 92.5759 223.838 93.0601 223.838C93.6411 223.838 93.9316 223.448 93.9316 223.057V219.543Z" fill="#282829"/>
<path d="M97.9987 222.667C98.0955 222.667 98.0956 222.667 98.0956 222.862V223.057C98.0956 223.741 97.5145 224.326 96.7398 224.326C95.9651 224.326 95.3841 223.741 95.3841 223.057V220.519C95.3841 219.836 95.9651 219.25 96.7398 219.25C97.5145 219.25 98.0956 219.836 98.0956 220.519V220.812C98.0956 220.91 97.9987 221.007 97.9987 221.007H97.7082C97.6114 221.007 97.6114 221.007 97.6114 220.91V220.617C97.6114 220.226 97.3209 219.836 96.8367 219.836C96.3525 219.836 95.9651 220.226 95.9651 220.617V223.155C95.9651 223.545 96.3525 223.936 96.8367 223.936C97.3209 223.936 97.6114 223.545 97.6114 223.155V222.96C97.6114 222.862 97.7082 222.764 97.7082 222.764H97.9987V222.667Z" fill="#282829"/>
<path d="M99.9354 224.229C99.3544 224.229 99.0639 223.936 99.0639 223.253V219.738H98.5797C98.5797 219.738 98.4829 219.738 98.4829 219.641V219.446C98.4829 219.348 98.5797 219.348 98.5797 219.348H99.0639V218.567C99.0639 218.469 99.1607 218.469 99.1607 218.372L99.4512 218.274C99.5481 218.274 99.5481 218.274 99.5481 218.372V219.25H100.323C100.42 219.25 100.42 219.25 100.42 219.348V219.543C100.42 219.641 100.42 219.641 100.323 219.641H99.5481V223.155C99.5481 223.448 99.7418 223.643 100.032 223.643H100.226C100.323 223.643 100.323 223.741 100.323 223.741V223.936C100.323 223.936 100.323 224.034 100.129 224.034H99.9354V224.229Z" fill="#282829"/>
<path d="M103.712 223.057C103.712 223.741 103.131 224.326 102.356 224.326C101.582 224.326 101.001 223.741 101.001 223.057V220.519C101.001 219.836 101.582 219.25 102.356 219.25C103.131 219.25 103.712 219.836 103.712 220.519V223.057ZM101.485 220.519V223.057C101.485 223.448 101.872 223.838 102.356 223.838C102.841 223.838 103.228 223.448 103.228 223.057V220.519C103.228 220.129 102.841 219.738 102.356 219.738C101.872 219.738 101.485 220.129 101.485 220.519Z" fill="#282829"/>
<path d="M106.617 219.641C106.617 219.738 106.52 219.738 106.423 219.738C106.327 219.738 106.133 219.738 106.036 219.738C105.455 219.738 105.068 220.226 105.068 220.715V224.131C105.068 224.229 104.971 224.326 104.874 224.326H104.584C104.487 224.326 104.487 224.229 104.487 224.229V220.617C104.487 219.641 105.261 219.25 105.939 219.25C106.133 219.25 106.327 219.25 106.423 219.25C106.52 219.25 106.617 219.348 106.617 219.348V219.641Z" fill="#282829"/>
<path d="M111.168 219.641C111.168 219.738 111.072 219.738 110.975 219.738C110.878 219.738 110.684 219.738 110.587 219.738C110.006 219.738 109.619 220.226 109.619 220.715V224.131C109.619 224.229 109.522 224.326 109.425 224.326H109.135C109.038 224.326 109.038 224.229 109.038 224.229V220.617C109.038 219.641 109.813 219.25 110.491 219.25C110.684 219.25 110.878 219.25 110.975 219.25C111.072 219.25 111.168 219.348 111.168 219.348V219.641Z" fill="#282829"/>
<path d="M114.17 223.057C114.17 223.741 113.589 224.326 112.815 224.326C112.04 224.326 111.459 223.741 111.459 223.057V220.519C111.459 219.836 112.04 219.25 112.815 219.25C113.589 219.25 114.17 219.836 114.17 220.519V221.788C114.17 221.886 114.074 221.886 114.074 221.886H112.04V223.057C112.04 223.448 112.427 223.838 112.912 223.838C113.396 223.838 113.686 223.448 113.686 223.057V222.862C113.686 222.764 113.783 222.764 113.783 222.764H114.074C114.074 222.764 114.17 222.764 114.17 222.862V223.057ZM112.04 220.519V221.495H113.686V220.519C113.686 220.129 113.299 219.738 112.912 219.738C112.427 219.738 112.04 220.129 112.04 220.519Z" fill="#282829"/>
<path d="M116.979 220.519C116.979 220.129 116.591 219.738 116.107 219.738C115.623 219.738 115.332 220.129 115.332 220.519C115.332 221.007 115.526 221.105 116.204 221.495C116.785 221.886 117.56 222.276 117.56 223.057C117.56 223.741 116.979 224.326 116.204 224.326C115.236 224.326 114.751 223.741 114.751 223.057V222.862C114.751 222.764 114.848 222.764 114.945 222.764H115.236C115.332 222.764 115.332 222.862 115.332 222.862V223.057C115.332 223.448 115.72 223.838 116.204 223.838C116.688 223.838 117.076 223.448 117.076 223.057C117.076 222.667 116.688 222.374 115.914 221.788C115.429 221.495 114.945 221.105 114.945 220.519C114.945 219.836 115.526 219.25 116.301 219.25C117.076 219.25 117.657 219.836 117.657 220.519V220.715C117.657 220.812 117.657 220.812 117.56 220.812H117.172C117.076 220.812 117.076 220.812 117.076 220.715V220.519H116.979Z" fill="#282829"/>
<path d="M120.949 223.057C120.949 223.741 120.368 224.326 119.593 224.326C118.819 224.326 118.238 223.741 118.238 223.057V220.519C118.238 219.836 118.819 219.25 119.593 219.25C120.368 219.25 120.949 219.836 120.949 220.519V221.788C120.949 221.886 120.852 221.886 120.852 221.886H118.819V223.057C118.819 223.448 119.206 223.838 119.69 223.838C120.174 223.838 120.465 223.448 120.465 223.057V222.862C120.465 222.764 120.562 222.764 120.562 222.764H120.852C120.852 222.764 120.949 222.764 120.949 222.862V223.057ZM118.819 220.519V221.495H120.465V220.519C120.465 220.129 120.077 219.738 119.69 219.738C119.109 219.738 118.819 220.129 118.819 220.519Z" fill="#282829"/>
<path d="M123.951 221.3V220.617C123.951 220.324 123.66 219.738 122.983 219.738C122.498 219.738 122.305 219.934 122.111 220.129H122.014H121.917L121.821 219.934C121.821 219.836 121.821 219.836 121.917 219.738C122.208 219.543 122.498 219.348 123.079 219.348C123.951 219.348 124.435 219.934 124.435 220.617V223.155C124.435 224.131 123.564 224.424 123.079 224.424C122.402 224.424 121.627 224.034 121.627 223.057V222.96C121.627 222.081 122.208 221.495 123.176 221.495H123.951V221.3ZM123.951 221.691H123.37C122.402 221.691 122.111 222.179 122.111 222.765V222.862C122.111 223.545 122.692 223.838 123.079 223.838C123.37 223.838 123.951 223.643 123.951 223.057V221.691Z" fill="#282829"/>
<path d="M127.34 219.641C127.34 219.738 127.243 219.738 127.147 219.738C127.05 219.738 126.856 219.738 126.759 219.738C126.178 219.738 125.791 220.226 125.791 220.715V224.131C125.791 224.229 125.694 224.326 125.597 224.326H125.307C125.21 224.326 125.21 224.229 125.21 224.229V220.617C125.21 219.641 125.985 219.25 126.662 219.25C126.856 219.25 127.05 219.25 127.147 219.25C127.243 219.25 127.34 219.348 127.34 219.348V219.641Z" fill="#282829"/>
<path d="M130.245 222.667C130.342 222.667 130.342 222.667 130.342 222.862V223.057C130.342 223.741 129.761 224.326 128.986 224.326C128.212 224.326 127.631 223.741 127.631 223.057V220.519C127.631 219.836 128.212 219.25 128.986 219.25C129.761 219.25 130.342 219.836 130.342 220.519V220.812C130.342 220.91 130.245 221.007 130.245 221.007H129.955C129.858 221.007 129.858 221.007 129.858 220.91V220.617C129.858 220.226 129.567 219.836 129.083 219.836C128.599 219.836 128.212 220.226 128.212 220.617V223.155C128.212 223.545 128.599 223.936 129.083 223.936C129.567 223.936 129.858 223.545 129.858 223.155V222.96C129.858 222.862 129.955 222.764 129.955 222.764H130.245V222.667Z" fill="#282829"/>
<path d="M133.925 224.131C133.925 224.229 133.828 224.229 133.828 224.229H133.538C133.441 224.229 133.441 224.229 133.441 224.131V220.519C133.441 220.129 133.054 219.738 132.569 219.738C132.085 219.738 131.698 220.129 131.698 220.617V224.131C131.698 224.229 131.698 224.229 131.504 224.229H131.214C131.117 224.229 131.117 224.229 131.117 224.131V217.786C131.117 217.688 131.117 217.688 131.214 217.688H131.504C131.601 217.688 131.601 217.786 131.601 217.786V219.641C131.795 219.446 132.182 219.25 132.569 219.25C133.344 219.25 133.828 219.836 133.828 220.519V224.131H133.925Z" fill="#282829"/>
<path d="M57.7147 195.529V197.969C57.7147 198.165 57.6178 198.36 57.3273 198.36H55.3906C55.1969 198.36 54.9064 198.262 54.9064 197.969V195.919C54.9064 194.26 54.4222 193.088 52.5823 193.088V198.067C52.5823 198.262 52.4855 198.457 52.2918 198.457H50.2582C50.0646 198.457 49.8709 198.36 49.8709 198.067V185.474C49.8709 185.279 49.9677 185.084 50.2582 185.084H52.2918C52.4855 185.084 52.5823 185.181 52.5823 185.474V190.55C54.2285 190.453 54.8095 189.281 54.8095 187.719V185.572C54.8095 185.279 55.0032 185.181 55.2937 185.181H57.2305C57.521 185.181 57.6178 185.377 57.6178 185.572V188.012C57.6178 189.672 56.94 190.843 55.8748 191.722C57.0368 192.503 57.7147 193.772 57.7147 195.529Z" fill="#282829"/>
<path d="M61.4913 192.601C61.4913 192.893 61.2976 192.893 61.2008 192.893H59.3609C59.264 192.893 59.0704 192.796 59.0704 192.601V191.039C59.0704 190.843 59.264 190.648 59.3609 190.648H61.2976C61.5881 190.648 61.5881 190.843 61.5881 191.039V192.601H61.4913Z" fill="#282829"/>
<path d="M70.1097 189.184C70.1097 189.477 70.0129 189.574 69.8192 189.574H67.8825C67.592 189.574 67.592 189.477 67.592 189.184V188.305C67.592 187.72 67.2046 187.134 66.5268 187.134C65.8489 187.134 65.3647 187.622 65.3647 188.305V195.041C65.3647 195.627 65.7521 196.212 66.5268 196.212C67.3015 196.212 67.592 195.627 67.592 195.041V193.87C67.592 193.577 67.6888 193.479 67.8825 193.479H69.8192C70.0129 193.479 70.1097 193.577 70.1097 193.87V195.139C70.1097 197.189 68.4635 198.458 66.43 198.458C64.3964 198.458 62.6533 197.189 62.6533 195.139V188.11C62.6533 186.255 64.2027 184.791 66.43 184.791C68.9477 184.791 70.0129 186.451 70.0129 188.11V189.184H70.1097Z" fill="#282829"/>
<path d="M78.7282 185.084C78.9219 185.084 79.0187 185.181 79.0187 185.474V197.969C79.0187 198.165 78.9219 198.36 78.6314 198.36H76.5978C76.4041 198.36 76.2105 198.262 76.2105 197.969V192.698H73.9832V197.969C73.9832 198.165 73.8864 198.36 73.6927 198.36H71.6591C71.4655 198.36 71.3686 198.262 71.3686 197.969V185.474C71.3686 185.279 71.4655 185.084 71.6591 185.084H73.6927C73.8864 185.084 73.9832 185.181 73.9832 185.474V190.355H76.2105V185.474C76.2105 185.279 76.3073 185.084 76.5978 185.084H78.7282Z" fill="#282829"/>
<path d="M83.2795 197.969C83.2795 198.165 83.1827 198.36 82.989 198.36H80.9555C80.7618 198.36 80.6649 198.262 80.6649 197.969V185.474C80.6649 185.279 80.7618 185.084 80.9555 185.084H82.989C83.1827 185.084 83.2795 185.181 83.2795 185.474V197.969Z" fill="#282829"/>
<path d="M84.7321 185.474C84.7321 185.279 84.8289 185.084 85.1194 185.084H88.7024C90.8328 185.084 92.3822 186.548 92.3822 188.5V191.527C92.3822 193.479 90.8328 194.943 88.7024 194.943H87.4435V197.872C87.4435 198.067 87.3467 198.262 87.153 198.262H85.1194C84.9258 198.262 84.7321 198.165 84.7321 197.872V185.474ZM89.6708 188.598C89.6708 187.915 89.1866 187.427 88.5087 187.427H87.4435V192.698H88.5087C89.1866 192.698 89.6708 192.21 89.6708 191.527V188.598Z" fill="#282829"/>
<path d="M97.805 188.403C97.805 187.72 97.4177 187.232 96.7398 187.232C96.2557 187.232 95.6746 187.524 95.6746 188.403C95.6746 189.281 96.2557 189.672 97.224 190.355C99.1608 191.722 100.71 192.796 100.71 195.236C100.71 196.993 99.1608 198.555 96.9335 198.555C94.4158 198.555 93.2537 196.896 93.2537 195.139V194.65C93.2537 194.358 93.3506 194.162 93.6411 194.162H95.481C95.7715 194.162 95.8683 194.26 95.8683 194.553V194.943C95.8683 195.92 96.5462 196.212 97.0303 196.212C97.7082 196.212 98.1924 195.822 98.1924 195.041C98.1924 194.162 97.6114 193.674 96.3525 192.698C94.2221 191.039 93.2537 190.453 93.2537 188.305C93.2537 185.865 95.481 184.889 96.9335 184.889C99.0639 184.889 100.613 186.255 100.613 188.403V188.989C100.613 189.281 100.516 189.379 100.226 189.379H98.3861C98.0956 189.379 98.0956 189.281 98.0956 188.989V188.403H97.805Z" fill="#282829"/>
<path d="M149.903 0.0976562H0.0968628V249.805H149.903V0.0976562Z" stroke="#010101" stroke-width="0.25" stroke-miterlimit="10" stroke-linecap="round" stroke-linejoin="round"/>
<path fill-rule="evenodd" clip-rule="evenodd" d="M46.4816 120.168C42.2208 104.256 51.6139 87.9539 67.3983 83.6587C83.1827 79.3635 99.3544 88.8325 103.615 104.744C107.876 120.656 98.4829 136.958 82.6985 141.253C66.9141 145.451 50.7424 135.982 46.4816 120.168Z" fill="white"/>
<path fill-rule="evenodd" clip-rule="evenodd" d="M90.4454 134.713L73.0148 123.975L63.428 136.958C69.0445 139.692 75.5326 140.473 82.0206 138.715C85.1194 137.837 87.9277 136.47 90.4454 134.713Z" fill="#FCD60B"/>
<path fill-rule="evenodd" clip-rule="evenodd" d="M101.291 106.599L65.8489 116.166L92.9632 132.858C100.032 126.416 103.518 116.459 101.291 106.599Z" fill="#ED0874"/>
<path fill-rule="evenodd" clip-rule="evenodd" d="M60.8134 135.494L70.4971 122.413L61.9755 117.142L49.3867 120.558C51.3234 127.001 55.4874 132.175 60.8134 135.494Z" fill="#0099D8"/>
<path fill-rule="evenodd" clip-rule="evenodd" d="M100.516 103.573C95.8683 90.1991 81.827 82.4873 68.0762 86.1968C54.3254 89.9062 45.9006 103.67 48.612 117.532L100.516 103.573Z" fill="#00B5AF"/>
<path fill-rule="evenodd" clip-rule="evenodd" d="M67.1078 96.3492C66.7205 94.7873 65.0742 93.8111 63.5248 94.2016C61.9755 94.5921 61.0071 96.2516 61.3944 97.8134L62.9438 103.768C63.3312 105.33 64.9774 106.306 66.5268 105.916C68.0762 105.525 69.0445 103.866 68.6572 102.304L67.1078 96.3492Z" fill="white"/>
<path fill-rule="evenodd" clip-rule="evenodd" d="M79.5997 92.9324C79.2124 91.3705 77.5662 90.3944 76.0168 90.7848C74.4674 91.1753 73.499 92.8348 73.8864 94.3967L75.4358 100.351C75.8231 101.913 77.4693 102.889 79.0187 102.499C80.5681 102.109 81.5365 100.449 81.1491 98.8871L79.5997 92.9324Z" fill="white"/>
</g>
<defs>
<clipPath id="clip0_221_10160">
<rect width="150" height="250" fill="white"/>
</clipPath>
</defs>
</svg>
