<svg width="152" height="152" viewBox="0 0 152 152" fill="none" xmlns="http://www.w3.org/2000/svg">
<g clip-path="url(#clip0_221_10736)">
<path d="M76.036 151.927C117.95 151.927 151.927 117.949 151.927 76.0359C151.927 34.1224 117.95 0.144775 76.036 0.144775C34.1225 0.144775 0.144836 34.1224 0.144836 76.0359C0.144836 117.949 34.1225 151.927 76.036 151.927Z" fill="white" stroke="#282829" stroke-width="0.25" stroke-miterlimit="10"/>
<path fill-rule="evenodd" clip-rule="evenodd" d="M38.1633 86.1213C32.5766 65.2984 44.9833 43.75 65.8788 38.1633C86.7743 32.5767 108.25 44.9834 113.837 65.8788C119.423 86.7743 107.017 108.25 86.1213 113.837C65.2983 119.423 43.7499 107.017 38.1633 86.1213Z" fill="white"/>
<path fill-rule="evenodd" clip-rule="evenodd" d="M96.4239 105.348L73.2793 91.2002L60.5824 108.25C67.9829 111.805 76.6893 112.821 85.2507 110.572C89.3862 109.484 93.159 107.67 96.4239 105.348Z" fill="#FCD60B"/>
<path fill-rule="evenodd" clip-rule="evenodd" d="M110.862 68.2732L63.7747 80.8975L99.6888 102.809C109.121 94.3925 113.764 81.3329 110.862 68.2732Z" fill="#ED0874"/>
<path fill-rule="evenodd" clip-rule="evenodd" d="M57.0998 106.364L69.9418 89.1685L58.6234 82.2759L41.936 86.7742C44.6205 95.1904 50.1346 102.01 57.0998 106.364Z" fill="#0099D8"/>
<path fill-rule="evenodd" clip-rule="evenodd" d="M109.774 64.3552C103.679 46.7972 84.9604 36.7122 66.822 41.5733C48.611 46.4344 37.4377 64.5729 40.9203 82.7838L109.774 64.3552Z" fill="#00B5AF"/>
<path fill-rule="evenodd" clip-rule="evenodd" d="M65.5886 54.8507C65.0081 52.7466 62.9041 51.5132 60.8 52.0936C58.696 52.6741 57.4625 54.7781 58.043 56.8822L60.147 64.718C60.7275 66.822 62.8315 68.0554 64.9356 67.475C67.0396 66.8946 68.273 64.7905 67.6926 62.6865L65.5886 54.8507Z" fill="white"/>
<path fill-rule="evenodd" clip-rule="evenodd" d="M82.0583 50.4249C81.4778 48.3208 79.3738 47.0874 77.2697 47.6678C75.1657 48.2483 73.9323 50.3523 74.5127 52.4564L76.6168 60.2922C77.1972 62.3962 79.3012 63.6297 81.4053 63.0492C83.5094 62.4688 84.7428 60.3647 84.1623 58.2607L82.0583 50.4249Z" fill="white"/>
<path d="M65.5885 9.57715C65.7337 9.57715 65.8062 9.6497 65.8062 9.79481L66.169 11.5361C66.4592 12.9872 66.0239 14.0755 65.0807 14.7285C66.2415 15.0187 67.0396 15.8893 67.3298 17.2678L67.62 18.864C67.62 18.9366 67.62 19.0817 67.4749 19.1542L67.0396 19.2268C66.8945 19.2268 66.822 19.2268 66.7494 19.0091L66.4592 17.4855C66.169 15.9619 65.2258 15.0187 63.4119 15.3814L62.9041 15.454L63.7021 19.5896C63.7021 19.7347 63.7021 19.8072 63.557 19.8798L63.1217 19.9523C62.9766 19.9523 62.9041 19.8798 62.8315 19.7347L61.0902 10.6655C61.0902 10.5203 61.0902 10.4478 61.2353 10.3752L61.6706 10.3027C61.8157 10.3027 61.8883 10.3752 61.8883 10.5203L62.6864 14.801L63.1217 14.7285C64.9356 14.3657 65.4434 13.2048 65.1532 11.6812L64.863 10.0125C64.863 9.86736 64.9356 9.72226 65.0081 9.72226L65.5885 9.57715Z" fill="#282829"/>
<path d="M72.5537 16.905C72.6262 17.9208 71.8281 18.7914 70.6673 18.9365C69.5064 19.0817 68.4907 18.3561 68.4181 17.3404L68.0554 13.5676C67.9828 12.5518 68.7809 11.6812 69.9417 11.5361C71.1026 11.391 72.1184 12.1165 72.1909 13.1322L72.5537 16.905ZM68.8534 13.495L69.2162 17.2678C69.2888 17.9208 69.8692 18.3561 70.5947 18.2836C71.3203 18.211 71.8281 17.6306 71.7556 16.9776L71.3928 13.2774C71.3203 12.6244 70.7398 12.1891 70.0143 12.2616C69.2888 12.2616 68.8534 12.842 68.8534 13.495Z" fill="#282829"/>
<path d="M76.6893 11.6813C76.6893 11.8264 76.5442 11.8989 76.3991 11.8989C76.1814 11.8989 76.0363 11.8989 75.8186 11.8989C74.948 11.8989 74.4401 12.5519 74.4401 13.2774L74.5127 18.2836C74.5127 18.4288 74.3675 18.5013 74.295 18.5013H73.8597C73.7871 18.5013 73.642 18.4288 73.642 18.2836L73.5695 13.2049C73.5695 11.8264 74.7303 11.1734 75.601 11.1008C75.8912 11.1008 76.1814 11.1008 76.3991 11.1008C76.5442 11.1008 76.6167 11.1734 76.6167 11.3185L76.6893 11.6813Z" fill="#282829"/>
<path d="M81.4052 17.0503C81.3327 18.066 80.462 18.8641 79.3012 18.7916C78.1403 18.719 77.2697 17.8484 77.3422 16.8326L77.5599 13.0598C77.6325 12.0441 78.5757 11.246 79.7365 11.3185C80.8974 11.3911 81.6955 12.2617 81.6229 13.2775L81.5504 15.0913C81.5504 15.2364 81.4778 15.2364 81.3327 15.2364L78.2854 15.0913L78.2129 16.9052C78.2129 17.5582 78.7208 18.066 79.4463 18.1386C80.1718 18.2111 80.6797 17.7033 80.7523 17.0503V16.7601C80.7523 16.615 80.8974 16.615 80.9699 16.615H81.4052C81.4778 16.615 81.5504 16.615 81.5504 16.8326L81.4052 17.0503ZM78.358 13.0598L78.2854 14.4384L80.7523 14.5835L80.8248 13.2049C80.8248 12.552 80.3895 12.0441 79.664 11.9715C79.011 11.9715 78.4305 12.4069 78.358 13.0598Z" fill="#282829"/>
<path d="M86.1212 15.0188L86.2663 13.9305C86.3389 13.4226 86.1212 12.6245 85.1055 12.4794C84.3799 12.4068 84.0897 12.6245 83.7269 12.8422C83.6544 12.8422 83.5818 12.9147 83.5818 12.8422C83.5093 12.8422 83.5093 12.8422 83.4367 12.7696L83.3642 12.4794C83.2916 12.4068 83.3642 12.2617 83.5093 12.1892C83.9446 11.9715 84.3799 11.6813 85.3231 11.8264C86.6291 12.0441 87.2821 13.0598 87.137 14.003L86.6291 17.6307C86.4114 19.0092 85.0329 19.2994 84.3074 19.1543C83.3642 19.0092 82.2033 18.2111 82.421 16.7601V16.5424C82.6386 15.2364 83.6544 14.5109 85.0329 14.7286L86.1212 15.0188ZM85.9761 15.5992L85.1055 15.4541C83.7269 15.2364 83.2191 15.8894 83.074 16.7601V16.9052C82.9288 17.9209 83.7269 18.4288 84.2348 18.5014C84.7427 18.5739 85.5408 18.3562 85.6859 17.4856L85.9761 15.5992Z" fill="#282829"/>
<path d="M96.6415 14.6559C96.569 14.8736 96.4964 14.8736 96.3513 14.8736L95.9886 14.7285C95.8434 14.6559 95.8434 14.5834 95.8434 14.4383L95.9886 14.003C96.2062 13.2049 95.8434 12.4068 94.9728 12.1891C94.1021 11.9715 93.3041 12.4068 93.0138 13.1323L91.4177 18.5013C91.2 19.2994 91.6353 20.0975 92.506 20.3877C93.3766 20.6053 94.1747 20.17 94.3924 19.3719L94.5375 18.7915C94.61 18.5738 94.6826 18.5738 94.8277 18.5738L95.1905 18.719C95.3356 18.719 95.3356 18.7915 95.3356 19.0092L95.1905 19.5896C94.8277 20.823 93.5943 21.4034 92.3609 20.9681C91.0549 20.6053 90.3294 19.4445 90.6921 18.2111L92.2883 12.7695C92.6511 11.6087 93.8845 10.9557 95.1905 11.391C96.4964 11.7538 97.0769 12.9872 96.7866 14.1481L96.6415 14.6559Z" fill="#282829"/>
<path d="M99.9064 21.8388C99.5437 22.782 98.3828 23.2173 97.2945 22.782C96.2062 22.3467 95.6983 21.2584 96.0611 20.3152L97.4396 16.8326C97.8024 15.8894 98.9632 15.4541 100.052 15.8894C101.14 16.3247 101.648 17.413 101.285 18.3562L99.9064 21.8388ZM98.2377 17.1228L96.8592 20.6054C96.6415 21.1858 96.9317 21.9113 97.5847 22.129C98.2377 22.4192 98.9632 22.129 99.1809 21.5486L100.559 18.066C100.777 17.4856 100.487 16.76 99.8339 16.4698C99.1809 16.2521 98.4554 16.5424 98.2377 17.1228Z" fill="#282829"/>
<path d="M102.156 24.6682C102.156 24.7408 102.01 24.8134 101.865 24.7408L101.503 24.5957C100.705 24.2329 100.487 23.5799 100.85 22.7818L104.405 15.4539C104.477 15.3814 104.55 15.3088 104.695 15.3814L105.058 15.599C105.203 15.6716 105.203 15.7441 105.13 15.8892L101.575 23.2172C101.43 23.5799 101.503 23.9427 101.865 24.1604L102.156 24.3055C102.301 24.378 102.301 24.5231 102.228 24.5231L102.156 24.6682Z" fill="#282829"/>
<path d="M104.695 26.0468C104.695 26.1194 104.55 26.1919 104.405 26.1194L104.042 25.9743C103.244 25.5389 103.026 24.9585 103.534 24.0879L107.452 16.9776C107.525 16.9051 107.597 16.8325 107.742 16.9051L108.105 17.1227C108.25 17.1953 108.25 17.2678 108.178 17.4129L104.26 24.5232C104.042 24.886 104.115 25.2487 104.55 25.4664L104.84 25.6115C104.985 25.684 104.985 25.8292 104.913 25.8292L104.695 26.0468Z" fill="#282829"/>
<path d="M110.354 24.6684L110.935 23.7977C111.225 23.3624 111.297 22.4918 110.499 21.9839C109.919 21.6211 109.484 21.6937 109.121 21.7662C109.048 21.7662 108.976 21.7662 108.976 21.6937C108.903 21.6937 108.903 21.6211 108.903 21.5486V21.2584C108.903 21.1858 108.976 21.0407 109.121 21.0407C109.556 20.9681 110.137 20.9681 110.935 21.476C112.023 22.2016 112.168 23.3624 111.66 24.2331L109.701 27.3529C108.976 28.5137 107.597 28.2235 106.944 27.7882C106.146 27.2803 105.421 26.0469 106.219 24.8135L106.291 24.6684C107.017 23.5801 108.25 23.2899 109.411 24.0879L110.354 24.6684ZM109.991 25.1037L109.266 24.6684C108.105 23.9428 107.379 24.3056 106.872 25.0311L106.799 25.1763C106.219 26.0469 106.726 26.845 107.234 27.1352C107.67 27.4254 108.468 27.5705 108.976 26.7724L109.991 25.1037Z" fill="#282829"/>
<path d="M113.764 30.4001C113.111 31.1982 111.878 31.2708 111.007 30.6178C110.136 29.8922 109.846 28.7314 110.499 27.8607L115.288 21.6937C115.36 21.6211 115.433 21.5486 115.578 21.6211L115.941 21.9113C116.086 21.9839 116.013 22.129 115.941 22.2015L114.345 24.3056C114.78 24.3056 115.288 24.4507 115.651 24.7409C116.521 25.4665 116.739 26.6273 116.086 27.4254L113.764 30.4001ZM111.08 28.3686C110.717 28.8765 110.789 29.602 111.37 30.0373C111.95 30.4727 112.676 30.4001 113.111 29.8922L115.433 26.9175C115.796 26.4097 115.723 25.6841 115.143 25.2488C114.562 24.8135 113.837 24.886 113.474 25.3939L111.08 28.3686Z" fill="#282829"/>
<path d="M117.61 33.9553C116.884 34.6808 115.651 34.6808 114.853 33.8827C113.982 33.0847 113.909 31.8512 114.562 31.1257L117.102 28.3687C117.755 27.6431 119.061 27.6431 119.859 28.4412C120.729 29.2393 120.874 30.4727 120.149 31.1983L117.61 33.9553ZM117.682 28.8765L115.143 31.6336C114.707 32.0689 114.78 32.867 115.288 33.3749C115.796 33.8827 116.594 33.8102 117.029 33.3749L119.569 30.6178C120.004 30.1825 119.931 29.3844 119.423 28.8765C118.916 28.4412 118.117 28.4412 117.682 28.8765Z" fill="#282829"/>
<path d="M124.212 33.5199C124.067 33.665 123.994 33.5199 123.849 33.4473C123.704 33.3022 123.559 33.1571 123.486 33.012C122.906 32.359 122.035 32.4316 121.527 32.9394L117.827 36.3495C117.682 36.422 117.537 36.422 117.537 36.3495L117.247 36.0593C117.174 35.9867 117.174 35.8416 117.247 35.769L121.02 32.2865C122.035 31.3433 123.341 31.7786 123.922 32.4316C124.139 32.6492 124.357 32.8669 124.43 33.012C124.502 33.1571 124.502 33.2297 124.43 33.3022L124.212 33.5199Z" fill="#282829"/>
<path d="M124.937 38.3809L125.808 37.728C126.171 37.4377 126.606 36.6397 125.953 35.8416C125.518 35.2611 125.083 35.2611 124.72 35.1886C124.647 35.1886 124.575 35.116 124.575 35.116C124.575 35.0435 124.502 35.0435 124.575 34.9709L124.72 34.7533C124.792 34.6807 124.865 34.6082 125.01 34.6082C125.445 34.7533 126.026 34.8258 126.606 35.5514C127.404 36.5671 127.187 37.728 126.389 38.3809L123.486 40.7027C122.398 41.5733 121.237 40.8478 120.729 40.2673C120.149 39.5418 119.786 38.1633 120.947 37.2201L121.092 37.075C122.108 36.2769 123.341 36.422 124.212 37.5103L124.937 38.3809ZM124.502 38.8163L123.994 38.1633C123.124 37.075 122.326 37.2201 121.673 37.728L121.527 37.8731C120.729 38.5261 120.947 39.3967 121.31 39.832C121.6 40.1948 122.326 40.6301 123.051 40.0497L124.502 38.8163Z" fill="#282829"/>
<path d="M123.631 43.9676C123.124 43.2421 123.269 42.5891 123.994 42.0812L128.275 39.1791L127.912 38.6712C127.84 38.5986 127.84 38.4535 127.985 38.381L128.202 38.2359C128.347 38.1633 128.42 38.2359 128.493 38.3084L128.855 38.8163L129.799 38.1633C129.871 38.0907 130.016 38.0907 130.089 38.1633L130.452 38.4535C130.524 38.5261 130.524 38.6712 130.379 38.7437L129.291 39.4693L129.944 40.4125C130.016 40.485 130.016 40.5576 129.871 40.6301L129.581 40.7752C129.508 40.8478 129.363 40.8478 129.291 40.7752L128.638 39.832L124.43 42.7342C124.067 42.9518 123.994 43.3146 124.284 43.6774L124.43 43.895C124.502 44.0402 124.43 44.1127 124.357 44.1853L124.067 44.4029C123.994 44.4755 123.922 44.4755 123.777 44.3304L123.631 43.9676Z" fill="#282829"/>
<path d="M130.452 41.5734C130.524 41.5009 130.669 41.5734 130.742 41.646L130.959 42.0087C131.032 42.1538 130.959 42.2264 130.887 42.299L125.083 45.8541C125.01 45.9266 124.865 45.9266 124.792 45.7815L124.575 45.4188C124.502 45.2737 124.575 45.2011 124.647 45.1286L130.452 41.5734ZM131.903 41.7185C131.757 41.7911 131.685 41.7185 131.612 41.646L131.322 41.1381C131.25 40.993 131.25 40.9204 131.395 40.8479L131.83 40.5577C131.903 40.4851 132.048 40.4851 132.12 40.6302L132.41 41.1381C132.483 41.2832 132.483 41.3558 132.338 41.4283L131.903 41.7185Z" fill="#282829"/>
<path d="M127.404 48.1757L127.912 48.0306L133.354 46.7246C133.499 46.7246 133.571 46.7972 133.571 46.8697L133.789 47.2325C133.862 47.3776 133.789 47.4502 133.644 47.5227L126.751 49.1189C126.606 49.1189 126.606 49.1189 126.534 49.0463L126.316 48.611C126.243 48.5385 126.316 48.4659 126.389 48.3934L131.54 43.5323C131.685 43.3872 131.83 43.4597 131.83 43.5323L132.048 43.895C132.12 43.9676 132.12 44.1127 131.975 44.1852L127.84 47.958L127.404 48.1757Z" fill="#282829"/>
<path d="M130.959 54.3427C130.016 54.778 128.928 54.2701 128.493 53.2543C128.057 52.2386 128.42 51.0052 129.363 50.6424L132.846 49.1913C133.789 48.8286 134.877 49.3364 135.313 50.3522C135.748 51.4405 135.313 52.5288 134.442 52.8916L132.773 53.6171C132.701 53.6897 132.556 53.6171 132.556 53.5446L131.322 50.715L129.653 51.4405C129.073 51.6582 128.783 52.3837 129.073 53.0367C129.363 53.6897 130.016 53.9799 130.597 53.6897L130.887 53.5446C131.032 53.472 131.105 53.5446 131.105 53.6171L131.25 53.9799C131.25 54.0524 131.322 54.125 131.105 54.1975L130.959 54.3427ZM133.136 49.9169L131.83 50.4973L132.773 52.819L134.079 52.2386C134.66 52.0209 134.95 51.2954 134.66 50.6424C134.442 49.9894 133.717 49.6267 133.136 49.9169Z" fill="#282829"/>
<path d="M137.852 60.5825C137.925 60.7276 137.779 60.8001 137.707 60.8001L136.909 61.0178L137.126 61.8159C137.199 61.961 137.126 62.0335 136.981 62.1061L136.764 62.1786C136.619 62.2512 136.546 62.1786 136.546 62.0335L136.328 61.2354L133.499 61.961C132.338 62.2512 131.322 61.6708 130.959 60.4373C130.669 59.2039 131.105 58.1882 132.338 57.8254L133.934 57.3901C134.732 57.1724 135.385 57.4626 135.748 58.0431C135.893 57.4626 136.328 57.0273 137.054 56.8097L138.07 56.5194C139.448 56.1567 140.246 57.0999 140.537 57.9705C140.827 58.9863 140.609 60.002 139.085 60.4373C138.94 60.4373 138.868 60.4373 138.868 60.3648L138.723 59.9295C138.723 59.8569 138.795 59.7844 138.868 59.7118C139.811 59.4941 140.029 58.9137 139.884 58.2607C139.738 57.6803 139.231 57.0999 138.287 57.3175L137.199 57.6078C136.619 57.7529 136.038 58.1882 136.256 58.8412L136.691 60.3648L137.489 60.1471C137.562 60.1471 137.707 60.1471 137.707 60.2922L137.852 60.5825ZM136.111 60.4373L135.675 58.9137C135.458 58.1882 134.732 58.0431 134.224 58.1882L132.628 58.6235C131.685 58.8412 131.467 59.5667 131.685 60.2922C131.903 61.0178 132.483 61.4531 133.281 61.2354L136.111 60.4373Z" fill="#282829"/>
<path d="M142.786 70.8126C142.786 70.9577 142.713 71.0302 142.568 71.0302L133.354 72.046C133.209 72.046 133.136 72.046 133.136 71.9009L133.063 71.4656C133.063 71.3205 133.136 71.2479 133.281 71.2479L137.562 70.8126L137.199 67.6202L132.918 68.0555C132.773 68.0555 132.701 68.0555 132.628 67.9104L132.556 67.4751C132.556 67.33 132.628 67.2574 132.773 67.2574L141.988 66.2417C142.133 66.2417 142.205 66.3143 142.205 66.3868L142.278 66.8221C142.278 66.9672 142.205 67.0398 142.06 67.0398L137.852 67.4751L138.215 70.6675L142.423 70.2322C142.568 70.2322 142.641 70.2321 142.641 70.3773L142.786 70.8126Z" fill="#282829"/>
<path d="M140.174 73.3519C140.246 73.3519 140.319 73.4244 140.391 73.5696V74.0049C140.391 74.15 140.319 74.2225 140.246 74.2225L133.426 74.4402C133.281 74.4402 133.209 74.3676 133.209 74.2225V73.7872C133.209 73.6421 133.281 73.5696 133.426 73.5696L140.174 73.3519ZM141.335 74.2225C141.189 74.2225 141.117 74.15 141.117 74.0049V73.4244C141.117 73.2793 141.189 73.2068 141.335 73.2068H141.842C141.988 73.2068 142.06 73.2793 142.06 73.4244V74.0049C142.06 74.15 141.988 74.2225 141.842 74.2225H141.335Z" fill="#282829"/>
<path d="M133.571 78.0677C133.499 79.156 133.136 79.8816 131.975 79.8816L130.887 79.809C130.742 79.809 130.669 79.7365 130.669 79.5914V79.156C130.669 79.0835 130.742 79.0109 130.887 79.0109H131.903C132.628 79.0109 132.846 78.6482 132.918 77.8501L132.991 76.9069V76.8343C132.991 75.8911 133.789 75.4558 134.369 75.4558H134.442C135.022 75.4558 135.458 75.746 135.748 76.0362C136.111 75.746 136.546 75.6009 136.981 75.6009L138.578 75.6735C139.666 75.746 140.464 76.6892 140.391 77.7775C140.391 78.0677 140.319 78.2854 140.246 78.5031L140.174 79.8816C140.174 80.0267 140.101 80.0992 140.029 80.0992H139.738C139.666 80.0992 139.593 80.0267 139.593 79.8816V79.3737C139.303 79.5914 138.868 79.7365 138.432 79.7365L136.836 79.6639C135.748 79.5914 134.95 78.6482 135.022 77.4873C135.022 77.1245 135.168 76.7618 135.313 76.4716C135.095 76.2539 134.877 76.1813 134.442 76.1088C134.007 76.1088 133.644 76.4716 133.571 76.9794V78.0677ZM138.578 79.0109C139.231 79.0109 139.738 78.5031 139.811 77.7775C139.811 77.052 139.303 76.4716 138.65 76.4716L136.909 76.399C136.256 76.399 135.748 76.9069 135.675 77.6324C135.675 78.358 136.183 78.9384 136.836 78.9384L138.578 79.0109Z" fill="#282829"/>
<path d="M132.628 85.0329C132.483 85.0329 132.41 84.8878 132.483 84.8152L132.556 84.3799C132.556 84.3073 132.628 84.2348 132.773 84.2348L137.997 84.8878C138.578 84.9603 139.231 84.525 139.303 83.7995C139.376 83.0739 138.868 82.4935 138.215 82.3484L133.136 81.6954C132.991 81.6954 132.918 81.6229 132.991 81.4777L133.063 81.115C133.063 80.9699 133.136 80.8973 133.281 80.9699L142.568 82.1307C142.713 82.1307 142.786 82.2033 142.713 82.3484L142.641 82.7837C142.641 82.9288 142.495 83.0014 142.423 82.9288L139.666 82.5661C139.956 83.0014 140.174 83.5093 140.101 84.0897C139.956 85.178 139.013 85.9035 137.997 85.7584L132.628 85.0329Z" fill="#282829"/>
<path d="M136.183 90.3294C136.111 90.3294 136.038 90.1843 136.038 90.1117L136.691 87.137C136.691 87.0645 136.764 86.9919 136.909 86.9919L137.199 87.0645C137.344 87.0645 137.344 87.2096 137.344 87.2822L136.691 90.2569C136.691 90.3294 136.619 90.402 136.474 90.402L136.183 90.3294Z" fill="#282829"/>
<path d="M130.742 91.9255C130.959 91.0549 131.54 90.7647 132.41 90.9824L137.344 92.4334L137.489 91.7804C137.489 91.7079 137.634 91.6353 137.707 91.6353L137.997 91.7079C138.142 91.7804 138.142 91.853 138.142 91.9255L137.997 92.5785L139.158 92.9413C139.303 92.9413 139.303 93.0864 139.303 93.159V93.5943C139.303 93.6668 139.158 93.7394 139.085 93.7394L137.852 93.3766L137.562 94.4649C137.562 94.5375 137.489 94.61 137.344 94.61L137.054 94.5375C136.981 94.5375 136.909 94.3924 136.909 94.3198L137.199 93.2315L132.265 91.853C131.83 91.7079 131.54 91.853 131.395 92.3609L131.322 92.6511C131.25 92.7962 131.177 92.7962 131.104 92.7962L130.814 92.7236C130.742 92.7236 130.669 92.6511 130.742 92.4334V91.9255Z" fill="#282829"/>
<path d="M130.597 97.6574C129.653 97.2946 129.146 96.2789 129.581 95.1905C129.944 94.1022 131.032 93.5218 132.048 93.8846L135.603 95.1905C136.546 95.5533 136.981 96.7142 136.619 97.7299C136.256 98.8182 135.168 99.3261 134.224 98.9633L132.556 98.3104C132.483 98.2378 132.41 98.1652 132.483 98.0927L133.571 95.1905L131.903 94.5376C131.322 94.3199 130.597 94.6827 130.379 95.3357C130.161 95.9886 130.452 96.6416 131.032 96.8593L131.322 96.9318C131.467 97.0044 131.467 97.0769 131.395 97.1495L131.25 97.5123C131.25 97.5848 131.177 97.6574 131.032 97.5848L130.597 97.6574ZM135.313 95.9161L134.007 95.4082L133.136 97.7299L134.442 98.2378C135.022 98.4555 135.675 98.1652 135.966 97.5123C136.183 96.8593 135.893 96.1337 135.313 95.9161Z" fill="#282829"/>
<path d="M129.073 102.373C129.073 102.446 128.928 102.519 128.783 102.446L128.493 102.301C127.549 101.866 127.187 100.777 127.695 99.6889C128.202 98.6732 129.291 98.1653 130.234 98.6006L133.644 100.197C134.587 100.632 134.95 101.793 134.442 102.881C133.934 103.897 132.846 104.332 131.903 103.897L131.54 103.752C131.395 103.679 131.395 103.607 131.395 103.534L131.54 103.171C131.612 103.099 131.685 102.954 131.83 103.099L132.193 103.244C132.773 103.534 133.499 103.317 133.789 102.664C134.079 102.011 133.862 101.285 133.281 100.995L129.871 99.3987C129.291 99.1085 128.565 99.3987 128.275 100.052C127.985 100.705 128.275 101.358 128.855 101.648L129.146 101.793C129.291 101.866 129.291 102.011 129.291 102.083L129.073 102.373Z" fill="#282829"/>
<path d="M124.647 106.074C124.502 106.001 124.502 105.856 124.575 105.856L124.792 105.493C124.865 105.421 124.937 105.348 125.083 105.421L129.653 108.032C130.161 108.323 130.887 108.178 131.25 107.525C131.612 106.944 131.395 106.146 130.814 105.783L126.316 103.171C126.243 103.099 126.171 103.026 126.243 102.881L126.461 102.518C126.534 102.373 126.606 102.373 126.751 102.446L134.805 107.089C134.877 107.162 134.95 107.234 134.877 107.38L134.66 107.742C134.587 107.887 134.515 107.887 134.369 107.815L131.975 106.436C132.12 106.944 132.048 107.452 131.758 107.96C131.177 108.903 130.089 109.193 129.146 108.685L124.647 106.074Z" fill="#282829"/>
<path d="M123.341 108.105C123.196 108.033 123.196 107.96 123.269 107.815L123.486 107.452C123.559 107.307 123.704 107.38 123.777 107.452L131.467 112.603C131.612 112.676 131.612 112.821 131.54 112.894L131.322 113.256C131.25 113.402 131.105 113.402 131.032 113.329L123.341 108.105Z" fill="#282829"/>
<path d="M120.149 111.951C120.221 111.878 120.294 111.878 120.439 111.951L124.575 115.215C125.083 115.578 125.808 115.578 126.316 114.998C126.751 114.417 126.679 113.692 126.171 113.257L122.035 109.992C121.963 109.919 121.963 109.774 121.963 109.701L122.253 109.339C122.326 109.266 122.398 109.266 122.543 109.339L126.679 112.604C127.477 113.256 127.622 114.49 126.896 115.361C126.098 116.376 124.937 116.449 124.139 115.868L120.004 112.604C119.931 112.531 119.931 112.386 119.931 112.313L120.149 111.951Z" fill="#282829"/>
<path d="M124.139 118.045C124.212 118.117 124.212 118.19 124.139 118.335L123.849 118.625C123.777 118.698 123.632 118.698 123.559 118.698L118.48 114.127C118.408 114.054 118.408 113.909 118.48 113.837L118.77 113.547C118.843 113.474 118.988 113.474 119.061 113.547L124.139 118.045ZM124.43 119.496C124.357 119.423 124.357 119.278 124.43 119.206L124.792 118.77C124.865 118.625 125.01 118.625 125.083 118.698L125.445 119.061C125.518 119.133 125.518 119.206 125.445 119.351L125.083 119.786C125.01 119.931 124.865 119.859 124.792 119.786L124.43 119.496Z" fill="#282829"/>
<path d="M116.304 116.086C116.884 115.433 117.61 115.433 118.263 116.086L121.963 119.714L122.398 119.278C122.471 119.206 122.543 119.206 122.688 119.278L122.906 119.496C122.979 119.569 122.979 119.714 122.906 119.786L122.471 120.221L123.341 121.02C123.414 121.092 123.414 121.237 123.341 121.31L123.124 121.673C123.051 121.745 122.906 121.745 122.833 121.673L121.89 120.729L121.092 121.527C121.02 121.6 120.947 121.6 120.874 121.527L120.657 121.31C120.584 121.237 120.584 121.092 120.657 121.02L121.455 120.221L117.827 116.666C117.537 116.376 117.174 116.376 116.811 116.666L116.594 116.884C116.449 117.029 116.376 116.957 116.304 116.884L116.086 116.666C116.013 116.594 115.941 116.521 116.158 116.376L116.304 116.086Z" fill="#282829"/>
<path d="M120.004 122.326C120.076 122.398 120.076 122.471 120.004 122.616L119.714 122.906C119.641 122.978 119.496 122.978 119.423 122.906L114.78 117.9C114.707 117.827 114.707 117.682 114.78 117.61L115.07 117.319C115.143 117.247 115.288 117.247 115.36 117.319L120.004 122.326ZM120.149 123.777C120.076 123.704 120.076 123.559 120.149 123.486L120.584 123.124C120.729 122.978 120.802 122.978 120.874 123.124L121.237 123.486C121.31 123.559 121.31 123.631 121.237 123.777L120.802 124.212C120.657 124.284 120.584 124.284 120.512 124.212L120.149 123.777Z" fill="#282829"/>
<path d="M113.982 123.922L114.635 124.72C114.925 125.083 115.723 125.445 116.521 124.865C117.029 124.43 117.102 123.994 117.174 123.632C117.174 123.559 117.247 123.487 117.247 123.487C117.319 123.487 117.319 123.414 117.392 123.487L117.61 123.559C117.682 123.632 117.755 123.704 117.755 123.849C117.682 124.285 117.537 124.865 116.811 125.445C115.796 126.244 114.635 126.026 113.982 125.3L111.66 122.471C110.789 121.382 111.515 120.222 112.095 119.714C112.821 119.133 114.199 118.771 115.143 119.931L115.288 120.076C116.158 121.092 116.013 122.326 114.852 123.196L113.982 123.922ZM113.619 123.487L114.272 122.979C115.36 122.108 115.215 121.31 114.707 120.584L114.562 120.439C113.909 119.641 112.966 119.859 112.603 120.222C112.241 120.512 111.805 121.237 112.386 121.963L113.619 123.487Z" fill="#282829"/>
<path d="M108.395 122.688C109.121 122.181 109.774 122.253 110.282 123.051L113.256 127.259L113.764 126.897C113.837 126.824 113.982 126.824 114.054 126.969L114.199 127.187C114.272 127.332 114.199 127.404 114.127 127.477L113.619 127.84L114.272 128.783C114.345 128.856 114.345 129.001 114.272 129.073L113.982 129.436C113.909 129.509 113.764 129.509 113.692 129.363L112.966 128.275L112.023 128.928C111.95 129.001 111.878 129.001 111.805 128.856L111.66 128.638C111.588 128.565 111.588 128.42 111.66 128.348L112.531 127.695L109.556 123.487C109.338 123.124 108.976 123.051 108.613 123.341L108.395 123.487C108.25 123.559 108.178 123.487 108.105 123.487L107.887 123.196C107.815 123.124 107.815 123.051 107.96 122.906L108.395 122.688Z" fill="#282829"/>
<path d="M110.862 129.508C110.935 129.581 110.935 129.726 110.789 129.799L110.427 130.016C110.282 130.089 110.209 130.016 110.137 130.016L106.436 124.285C106.364 124.212 106.364 124.067 106.509 123.994L106.872 123.777C107.017 123.704 107.089 123.777 107.162 123.849L110.862 129.508ZM110.717 130.959C110.644 130.814 110.717 130.742 110.789 130.669L111.297 130.379C111.442 130.306 111.515 130.306 111.588 130.452L111.878 130.887C111.95 130.959 111.95 131.105 111.805 131.177L111.297 131.467C111.152 131.54 111.08 131.54 111.007 131.395L110.717 130.959Z" fill="#282829"/>
<path d="M104.26 126.534L104.405 127.042L105.783 132.483C105.783 132.628 105.711 132.701 105.638 132.701L105.275 132.918C105.13 132.991 105.058 132.918 104.985 132.773L103.316 125.881C103.316 125.736 103.316 125.736 103.389 125.663L103.824 125.445C103.897 125.373 103.969 125.445 104.042 125.518L108.976 130.597C109.121 130.742 109.048 130.887 108.976 130.887L108.613 131.105C108.54 131.177 108.395 131.177 108.323 131.032L104.477 126.969L104.26 126.534Z" fill="#282829"/>
<path d="M98.0926 130.161C97.6573 129.218 98.0926 128.13 99.1809 127.694C100.197 127.259 101.43 127.622 101.793 128.565L103.316 132.048C103.752 132.991 103.244 134.079 102.156 134.587C101.067 135.022 99.979 134.66 99.6162 133.716L98.8907 132.048C98.8181 131.975 98.8907 131.83 98.9632 131.83L101.793 130.597L101.067 128.928C100.777 128.347 100.052 128.057 99.4711 128.347C98.8181 128.638 98.6005 129.363 98.8181 129.944L98.9632 130.234C99.0358 130.379 98.9632 130.452 98.8907 130.452L98.5279 130.597C98.4554 130.597 98.3828 130.669 98.3103 130.524L98.0926 130.161ZM102.591 132.338L102.011 131.032L99.7613 132.048L100.342 133.354C100.632 133.934 101.285 134.224 101.938 133.934C102.518 133.571 102.881 132.918 102.591 132.338Z" fill="#282829"/>
<path d="M93.5943 137.489C93.5217 137.489 93.3766 137.489 93.3766 137.417L93.3041 137.126C93.2315 136.981 93.3766 136.909 93.4492 136.909L94.6826 136.546L92.7962 130.524C92.7962 130.379 92.7962 130.306 92.9413 130.306L93.3766 130.161C93.5217 130.089 93.5943 130.161 93.5943 130.306L95.4807 136.328L96.1337 136.111C96.2062 136.111 96.3513 136.111 96.3513 136.256L96.4239 136.546C96.4239 136.691 96.3513 136.764 96.2788 136.764L95.6258 136.981L95.7709 137.489C96.2788 139.013 95.6984 139.593 94.5375 139.956C94.3924 140.029 94.2473 140.029 94.1747 139.883L94.1022 139.593C94.0296 139.448 94.1747 139.376 94.2473 139.376C95.0454 139.158 95.263 138.795 94.9728 137.707L94.8277 137.272L93.5943 137.489Z" fill="#282829"/>
<path d="M87.2095 133.354C86.9919 132.338 87.7174 131.322 88.8057 131.104C89.894 130.814 90.9823 131.395 91.2725 132.41L92.1432 136.111C92.3608 137.126 91.6353 138.142 90.547 138.36C89.3861 138.65 88.3704 138.07 88.0802 137.054L87.2095 133.354ZM91.3451 136.328L90.4744 132.701C90.3293 132.048 89.6763 131.685 88.9508 131.83C88.2253 131.975 87.8625 132.628 88.0076 133.281L88.8783 136.909C89.0234 137.562 89.6763 137.925 90.4019 137.779C91.0549 137.562 91.4902 136.909 91.3451 136.328Z" fill="#282829"/>
<path d="M83.7995 139.013C83.7995 138.868 83.8721 138.795 84.0172 138.795C84.2348 138.795 84.3799 138.723 84.5976 138.723C85.4682 138.578 85.9036 137.852 85.7584 137.127L85.0329 132.193C85.0329 132.048 85.1055 131.975 85.2506 131.903L85.6859 131.83C85.7584 131.83 85.9036 131.903 85.9036 131.975L86.7016 137.054C86.9193 138.432 85.831 139.231 84.9604 139.376C84.6701 139.448 84.3799 139.448 84.1623 139.448C84.0172 139.448 83.9446 139.376 83.9446 139.303L83.7995 139.013Z" fill="#282829"/>
<path d="M79.3012 142.133C79.3012 142.278 79.2286 142.35 79.0835 142.35L76.9069 142.423C75.4558 142.423 74.5126 141.407 74.5126 140.101V138.07C74.5126 136.764 75.4558 135.748 76.8344 135.675H78.4305L78.358 132.846C78.358 132.701 78.4305 132.628 78.5756 132.628H79.011C79.1561 132.628 79.2286 132.701 79.2286 132.846L79.3012 142.133ZM75.3107 140.101C75.3107 141.044 75.8912 141.697 76.9069 141.697H78.4305L78.358 136.401H76.8344C75.8912 136.401 75.3107 137.126 75.3107 137.997V140.101Z" fill="#282829"/>
<path d="M70.0143 139.231C70.0143 139.085 70.1594 139.085 70.3045 139.085C70.5222 139.085 70.6673 139.158 70.885 139.158C71.7556 139.231 72.336 138.578 72.4086 137.852L72.7714 132.846C72.7714 132.701 72.9165 132.628 72.989 132.628H73.4243C73.4969 132.628 73.5695 132.701 73.5695 132.846L73.2067 137.925C73.1341 139.303 71.8282 139.884 70.9575 139.811C70.6673 139.811 70.3771 139.738 70.1594 139.738C70.0143 139.738 69.9418 139.666 69.9418 139.521L70.0143 139.231Z" fill="#282829"/>
<path d="M65.6611 133.499C65.8062 132.483 66.822 131.83 67.9828 131.975C69.1437 132.12 69.9418 133.064 69.7967 134.079L69.2888 137.852C69.1437 138.868 68.1279 139.521 66.9671 139.376C65.8062 139.231 65.0081 138.287 65.1532 137.272L65.6611 133.499ZM68.4182 137.707L68.926 134.007C68.9986 133.354 68.5633 132.773 67.8377 132.701C67.1122 132.628 66.5318 133.064 66.4592 133.644L65.9513 137.344C65.8788 137.997 66.3141 138.578 67.0396 138.723C67.7652 138.795 68.3456 138.36 68.4182 137.707Z" fill="#282829"/>
<path d="M60.7274 136.329C60.5823 136.982 61.0176 137.562 61.6706 137.707C62.3236 137.852 62.9766 137.489 63.1217 136.836C63.2668 136.183 62.9766 135.893 62.1785 135.095C61.453 134.37 60.5823 133.499 60.8 132.411C61.0176 131.395 62.0334 130.742 63.1942 131.032C64.5728 131.322 65.0081 132.338 64.7904 133.281L64.7179 133.499C64.7179 133.644 64.5728 133.717 64.4277 133.644L64.0649 133.572C63.9198 133.572 63.9198 133.426 63.9198 133.354L63.9923 133.136C64.1374 132.483 63.7021 131.903 62.9766 131.758C62.3236 131.613 61.6706 131.975 61.5255 132.628C61.3804 133.281 61.8883 133.789 62.8315 134.805C63.4845 135.458 64.0649 136.111 63.8472 137.054C63.6296 138.07 62.6138 138.65 61.5255 138.36C60.3646 138.07 59.7117 137.127 60.0019 136.111L60.0744 135.893C60.0744 135.748 60.147 135.748 60.2921 135.748L60.6549 135.821C60.8 135.821 60.8 135.966 60.8 136.038L60.7274 136.329Z" fill="#282829"/>
<path d="M55.9389 130.887C56.2291 129.871 57.3174 129.436 58.4057 129.799C58.9136 129.944 59.2763 130.306 59.494 130.669L60.2921 128.275C60.2921 128.202 60.4372 128.13 60.5097 128.13L60.9451 128.275C61.0902 128.348 61.0902 128.42 61.0902 128.565L58.6959 135.821C58.4057 136.836 57.2448 137.272 56.1565 136.909C55.0682 136.546 54.4152 135.53 54.778 134.515L55.9389 130.887ZM59.0587 131.903C59.2763 131.322 58.9136 130.597 58.188 130.379C57.535 130.161 56.8095 130.524 56.5918 131.105L55.431 134.66C55.2133 135.24 55.5761 135.966 56.3016 136.183C56.9546 136.401 57.6801 136.038 57.8253 135.458L59.0587 131.903Z" fill="#282829"/>
<path d="M51.1504 128.928C51.5857 127.985 52.674 127.55 53.6897 127.985C54.7055 128.42 55.2859 129.581 54.8506 130.452L53.3995 133.934C53.0368 134.877 51.8033 135.24 50.7876 134.805C49.6993 134.37 49.264 133.281 49.6993 132.338L50.4248 130.669C50.4974 130.597 50.5699 130.524 50.6425 130.597L53.4721 131.83L54.1976 130.161C54.4153 129.581 54.1251 128.855 53.4721 128.565C52.8191 128.275 52.1661 128.565 51.8759 129.146L51.7308 129.436C51.6582 129.581 51.5857 129.581 51.5131 129.508L51.1504 129.363C51.0778 129.363 51.0053 129.291 51.0778 129.146L51.1504 128.928ZM52.674 133.644L53.2544 132.338L50.9327 131.395L50.3523 132.701C50.1346 133.281 50.3523 133.934 51.0053 134.224C51.7308 134.515 52.4563 134.224 52.674 133.644Z" fill="#282829"/>
<path d="M46.5795 127.114C46.5069 127.042 46.4344 126.969 46.5069 126.824L46.652 126.534C47.1599 125.663 48.2482 125.3 49.264 125.881C50.2797 126.389 50.715 127.55 50.2072 128.493L48.4659 131.83C48.0306 132.701 46.7971 132.991 45.7814 132.483C44.7656 131.903 44.4029 130.814 44.8382 129.944L44.9833 129.581C45.0559 129.436 45.201 129.436 45.2735 129.436L45.6363 129.581C45.7088 129.654 45.7814 129.726 45.7088 129.871L45.5637 130.161C45.2735 130.742 45.4912 131.395 46.0716 131.758C46.7246 132.12 47.4501 131.903 47.7403 131.322L49.4816 127.985C49.7718 127.404 49.5542 126.679 48.9012 126.389C48.2482 126.026 47.5952 126.316 47.305 126.824L47.1599 127.114C47.0874 127.259 46.9422 127.259 46.8697 127.187L46.5795 127.114Z" fill="#282829"/>
<path d="M45.2735 123.632C45.9991 124.067 46.2167 124.72 45.7088 125.518L42.9518 129.871L43.5322 130.234C43.6048 130.234 43.6773 130.379 43.6048 130.524L43.4597 130.814C43.3871 130.96 43.242 130.887 43.1695 130.887L42.589 130.524L41.936 131.54C41.8635 131.613 41.7909 131.685 41.6458 131.613L41.2105 131.467C41.138 131.395 41.0654 131.322 41.138 131.177L41.8635 130.089L40.9203 129.509C40.8477 129.436 40.7752 129.363 40.8477 129.291L40.9928 129.001C41.0654 128.928 41.138 128.856 41.2105 128.928L42.1537 129.509L44.8382 125.155C45.0559 124.793 44.9833 124.43 44.6205 124.212L44.4029 124.067C44.2578 123.994 44.3303 123.849 44.3303 123.849L44.4754 123.559C44.548 123.487 44.6205 123.414 44.7656 123.559L45.2735 123.632Z" fill="#282829"/>
<path d="M38.5985 129.073C38.6711 128.928 38.7436 128.928 38.8887 129.001L39.3241 129.291C39.4692 129.363 39.4692 129.436 39.3966 129.581L39.1064 130.016C39.0339 130.089 38.9613 130.161 38.8162 130.016L38.3083 129.654C38.1632 129.581 38.1632 129.508 38.2358 129.363L38.5985 129.073ZM39.9771 128.565C39.9045 128.638 39.8319 128.638 39.6868 128.565L39.3241 128.348C39.179 128.275 39.179 128.13 39.2515 128.057L43.1694 122.471C43.242 122.398 43.3145 122.326 43.4596 122.398L43.8224 122.616C43.9675 122.688 43.9675 122.834 43.895 122.906L39.9771 128.565Z" fill="#282829"/>
<path d="M39.7594 121.745L35.3336 125.155C35.2611 125.228 35.116 125.228 35.0434 125.155L34.6806 124.865C34.5355 124.792 34.6081 124.647 34.6806 124.575L40.3398 120.367C40.4124 120.294 40.4849 120.294 40.5575 120.367L40.9203 120.657C40.9928 120.729 40.9928 120.802 40.9928 120.875L38.2358 127.404C38.1632 127.549 38.0181 127.549 37.9456 127.477L37.5828 127.187C37.5102 127.114 37.4377 127.042 37.5102 126.897L39.7594 121.745Z" fill="#282829"/>
<path d="M34.3904 117.102C35.116 116.376 36.2768 116.304 37.0749 117.102C37.873 117.9 38.0181 119.133 37.2926 119.859L34.6806 122.616C34.0277 123.341 32.7217 123.341 31.9236 122.543C31.0529 121.745 31.053 120.584 31.7059 119.859L32.9393 118.553C33.0119 118.48 33.0845 118.48 33.157 118.553L35.4062 120.657L36.6396 119.351C37.0749 118.916 37.0024 118.117 36.4945 117.61C35.9866 117.102 35.2611 117.174 34.8257 117.61L34.6081 117.827C34.5355 117.9 34.3904 117.9 34.3904 117.827L34.1002 117.537C34.0277 117.464 33.9551 117.392 34.1002 117.319L34.3904 117.102ZM34.1728 122.108L35.116 121.092L33.3021 119.423L32.3589 120.439C31.9236 120.875 31.9236 121.673 32.4315 122.108C33.0119 122.543 33.7374 122.543 34.1728 122.108Z" fill="#282829"/>
<path d="M24.5957 114.853C24.0153 115.288 23.7251 116.231 24.378 116.957C24.7408 117.392 25.6114 117.972 26.6272 117.174C27.4978 116.521 27.2802 115.433 27.2802 114.635C27.2802 112.749 27.0625 111.66 28.3685 110.644C29.2391 109.919 30.6902 110.137 31.5609 111.225C32.2864 112.168 32.4315 113.547 31.2706 114.49L30.9804 114.707C30.9079 114.78 30.7628 114.853 30.6902 114.707L30.4725 114.417C30.4 114.345 30.4 114.2 30.5451 114.127L30.8353 113.909C31.7785 113.184 31.4883 112.168 31.053 111.733C30.4725 111.08 29.5293 110.862 28.8764 111.37C28.0057 112.096 28.0057 112.749 28.0057 114.562C28.0783 115.941 28.1508 117.102 27.0625 117.972C25.5389 119.206 24.1604 118.045 23.7251 117.61C22.8544 116.521 23.0721 115.143 24.0153 114.417L24.378 114.127C24.5231 114.055 24.5957 113.982 24.6682 114.127L24.8859 114.417C24.9585 114.562 24.9585 114.635 24.8134 114.707L24.5957 114.853Z" fill="#282829"/>
<path d="M25.8291 106.146C26.6998 105.566 27.8606 105.856 28.4411 106.799C29.094 107.742 28.8764 108.976 28.0057 109.556L24.8134 111.66C23.9427 112.241 22.7819 111.878 22.1289 110.935C21.4759 109.992 21.6936 108.831 22.5642 108.25L24.0878 107.235C24.1604 107.162 24.3055 107.235 24.3055 107.307L25.9742 109.846L27.4979 108.831C28.0057 108.468 28.1508 107.742 27.7881 107.162C27.4253 106.582 26.6998 106.436 26.1193 106.799L25.9017 106.944C25.7566 107.017 25.684 106.944 25.684 106.872L25.4663 106.509C25.3938 106.436 25.3938 106.364 25.5389 106.291L25.8291 106.146ZM24.4506 110.935L25.6115 110.137L24.2329 108.033L23.0721 108.831C22.5642 109.193 22.3465 109.919 22.7819 110.499C23.1446 111.152 23.8702 111.298 24.4506 110.935Z" fill="#282829"/>
<path d="M18.9365 100.85C17.9933 101.357 18.1384 102.156 18.3561 102.591L18.4286 102.663C18.6463 103.099 19.1542 103.607 20.1699 103.099L24.6683 100.85C24.7408 100.85 24.8859 100.777 24.9585 100.922L25.1761 101.285C25.2487 101.357 25.1761 101.503 25.031 101.575L20.4601 103.824C19.4444 104.332 19.662 105.203 19.8797 105.566V105.638C20.0974 106.001 20.6052 106.509 21.621 106.073L26.1919 103.824C26.2644 103.824 26.4095 103.752 26.4821 103.897L26.6998 104.26C26.7723 104.405 26.6998 104.477 26.5546 104.55L21.9838 106.799C20.5327 107.452 19.662 106.654 19.2993 105.928V105.856C19.0091 105.348 18.9365 104.55 19.3718 103.897C18.5737 103.897 18.0659 103.389 17.8482 102.881V102.809C17.2678 101.648 17.6305 100.559 18.7188 99.979L23.2897 97.7298C23.3623 97.7298 23.5074 97.6573 23.5799 97.8024L23.7976 98.1651C23.8702 98.2377 23.7976 98.3828 23.6525 98.4553L18.9365 100.85Z" fill="#282829"/>
<path d="M15.0186 98.7458C15.1637 98.6732 15.2363 98.7458 15.2363 98.8909L15.4539 99.3987C15.5265 99.5438 15.4539 99.6164 15.3814 99.6889L14.9461 99.8341C14.8735 99.9066 14.7284 99.8341 14.6559 99.6889L14.4382 99.1085C14.3656 98.9634 14.4382 98.8909 14.5833 98.8183L15.0186 98.7458ZM16.4697 99.1811C16.3971 99.1811 16.252 99.1811 16.252 99.036L16.1069 98.6732C16.0344 98.5281 16.1069 98.4555 16.1795 98.383L22.5642 95.9162C22.7093 95.8436 22.7819 95.9162 22.8544 96.0613L22.9995 96.424C23.0721 96.5691 22.9995 96.6417 22.8544 96.7143L16.4697 99.1811Z" fill="#282829"/>
<path d="M18.9365 91.7804C18.9365 91.7079 18.9365 91.5628 19.0816 91.5628L19.3718 91.4902C20.315 91.2 21.4033 91.7079 21.7661 92.8687C22.1289 93.957 21.621 95.1179 20.6778 95.4081L17.0501 96.569C16.1069 96.8592 15.0186 96.2062 14.6558 95.1904C14.2931 94.1021 14.8735 93.0138 15.8167 92.7236L16.1794 92.5785C16.3971 92.506 16.3971 92.5785 16.4697 92.6511L16.6148 93.0138C16.6148 93.0864 16.6873 93.2315 16.4697 93.304L16.1069 93.4492C15.5265 93.6668 15.1637 94.3198 15.3814 94.9728C15.599 95.6258 16.252 95.9885 16.905 95.8434L20.4601 94.6826C21.0405 94.4649 21.4033 93.8119 21.1857 93.0864C20.968 92.4334 20.315 92.0706 19.662 92.2883L19.3718 92.3608C19.2267 92.4334 19.1541 92.3608 19.0816 92.2157L18.9365 91.7804Z" fill="#282829"/>
<path d="M18.2836 86.5567C19.2993 86.339 20.2425 87.0646 20.5327 88.1529C20.7504 89.2412 20.2425 90.3295 19.2267 90.5471L15.5265 91.4178C14.5108 91.6354 13.495 90.9099 13.2773 89.8216C12.9871 88.6607 13.5676 87.645 14.5833 87.3548L18.2836 86.5567ZM15.3814 90.6197L19.0816 89.8216C19.7346 89.6765 20.0974 89.0235 19.9523 88.3705C19.8072 87.645 19.1542 87.2822 18.5012 87.4273L14.8735 88.2254C14.2205 88.3705 13.8578 89.0235 14.0029 89.749C14.0754 90.3295 14.7284 90.7648 15.3814 90.6197Z" fill="#282829"/>
<path d="M19.2993 81.623C19.2993 81.6955 19.2267 81.8406 19.1542 81.8406L13.9303 82.5662C13.2773 82.6387 12.7695 83.1466 12.9146 83.9447C12.9871 84.6702 13.5675 85.1055 14.2205 85.033L19.4444 84.3074C19.5895 84.3074 19.6621 84.38 19.6621 84.4526L19.7346 84.8879C19.7346 84.9604 19.6621 85.1055 19.5895 85.1055L14.3656 85.8311C13.3499 85.9762 12.4067 85.1781 12.189 84.0172C12.0439 82.7113 12.7695 81.8406 13.7852 81.6955L19.0091 80.97C19.1542 80.97 19.2267 81.0425 19.2267 81.1151L19.2993 81.623Z" fill="#282829"/>
<path d="M17.2678 75.8911C18.2835 75.8186 19.1542 76.7618 19.1542 77.8501C19.2267 79.0109 18.4286 79.9541 17.4129 80.0267L13.6401 80.1718C12.6243 80.2444 11.7537 79.3737 11.7537 78.2129C11.7537 77.705 11.8988 77.2697 12.189 76.8343L9.50453 76.9794C9.35942 76.9794 9.28687 76.9069 9.28687 76.7618V76.3265C9.28687 76.1813 9.35942 76.1088 9.50453 76.1088L17.2678 75.8911ZM17.4129 79.2286C18.0659 79.2286 18.5737 78.6482 18.5012 77.9226C18.5012 77.1971 17.9208 76.6892 17.2678 76.6892L13.495 76.8343C12.9146 76.9069 12.4067 77.4873 12.4067 78.1403C12.4067 78.8658 12.9871 79.3737 13.6401 79.3737L17.4129 79.2286Z" fill="#282829"/>
<path d="M12.1164 71.1028C11.9713 71.1028 11.8988 70.9577 11.8988 70.8851V70.4498C11.8988 70.3772 11.9713 70.3047 12.1164 70.3047L17.3403 70.5949C18.356 70.6675 19.2267 71.4655 19.1541 72.7715C19.0816 73.9324 18.2109 74.803 17.1952 74.7305L11.9713 74.4402C11.8262 74.4402 11.7537 74.3677 11.7537 74.2226V73.7873C11.7537 73.7147 11.8262 73.6422 11.9713 73.6422L17.1952 73.9324C17.8482 73.9324 18.4286 73.497 18.5012 72.699C18.5737 71.9009 17.9933 71.393 17.3403 71.393L12.1164 71.1028Z" fill="#282829"/>
<path d="M17.558 65.4436C17.558 65.371 17.6306 65.2984 17.7757 65.2984L18.1384 65.371C19.1542 65.5161 19.8797 66.4593 19.6621 67.6202C19.517 68.781 18.5738 69.5791 17.558 69.434L13.7852 68.9261C12.7695 68.781 12.1165 67.7653 12.2616 66.6044C12.4067 65.4436 13.3499 64.718 14.3656 64.8631L14.7284 64.9357C14.9461 64.9357 14.9461 65.0808 14.9461 65.1533L14.8735 65.5161C14.8735 65.5887 14.801 65.7338 14.6559 65.7338L14.2931 65.6612C13.6401 65.5887 13.0597 66.024 12.9871 66.677C12.9146 67.4025 13.3499 67.9829 13.9303 68.128L17.6306 68.6359C18.2835 68.7085 18.864 68.2731 18.9365 67.5476C19.0091 66.8221 18.5738 66.2416 17.9208 66.1691L17.6306 66.0965C17.4854 66.0965 17.4129 65.9514 17.4129 65.8789L17.558 65.4436Z" fill="#282829"/>
<path d="M20.3876 63.0491C20.1699 63.9198 19.662 64.2825 18.7914 64.0649L13.7852 62.9766L13.6401 63.6296C13.6401 63.7021 13.5675 63.7747 13.4224 63.7747H13.0596C12.9145 63.7747 12.9145 63.6296 12.9145 63.557L13.0596 62.904L11.8988 62.6864C11.7537 62.6864 11.6811 62.5412 11.7537 62.4687V62.0334C11.7537 61.9608 11.8988 61.8157 11.9713 61.8883L13.2773 62.1785L13.495 61.0902C13.495 61.0176 13.5675 60.9451 13.7126 60.9451L14.0028 61.0176C14.0754 61.0176 14.148 61.0902 14.148 61.2353L13.9303 62.3236L18.9365 63.4119C19.3718 63.4844 19.662 63.3393 19.7346 62.904L19.8071 62.6138C19.8071 62.4687 19.9522 62.4687 20.0248 62.4687L20.315 62.3961C20.3876 62.3961 20.4601 62.4687 20.4601 62.6864L20.3876 63.0491Z" fill="#282829"/>
<path d="M20.1699 57.245C21.1857 57.5352 21.6935 58.6235 21.3308 59.7844C21.0406 60.8727 19.9523 61.5257 19.0091 61.2355L15.3814 60.1471C14.4382 59.8569 13.8577 58.7686 14.2205 57.6803C14.5107 56.592 15.599 55.939 16.5422 56.1567L20.1699 57.245ZM15.6716 59.4216L19.2993 60.4374C19.8797 60.5825 20.6052 60.2197 20.7504 59.5667C20.968 58.9137 20.6052 58.1882 19.9523 58.0431L16.3246 57.0273C15.7441 56.8822 15.0186 57.245 14.8735 57.898C14.6558 58.551 15.0186 59.2765 15.6716 59.4216Z" fill="#282829"/>
<path d="M16.905 51.5133C17.0501 51.5858 17.0501 51.7309 16.9775 51.876C16.905 52.0937 16.8324 52.2388 16.7599 52.4565C16.4697 53.3271 16.905 53.9801 17.558 54.2703L22.274 56.0116C22.4191 56.0842 22.4191 56.2293 22.4191 56.3018L22.274 56.6646C22.274 56.7371 22.1289 56.8097 21.9837 56.7371L17.1952 54.9233C15.8892 54.4154 15.7441 53.0369 16.0343 52.2388C16.1069 51.9486 16.252 51.6584 16.3246 51.5133C16.3971 51.3682 16.4697 51.3682 16.6148 51.3682L16.905 51.5133Z" fill="#282829"/>
<path d="M25.6114 45.7814L26.7723 46.3618C26.8449 46.4344 26.99 46.5069 26.9174 46.6521L26.6998 47.0148C26.6272 47.0874 26.5546 47.1599 26.337 47.0874L25.1036 46.4344C23.3623 45.4912 22.3465 45.9991 21.621 47.305L21.4033 47.7404L25.031 49.6993C25.1761 49.7719 25.1761 49.8444 25.1036 49.9895L24.8859 50.3523C24.8134 50.4974 24.7408 50.4974 24.5957 50.4248L16.3971 45.9991C16.252 45.9265 16.252 45.7814 16.3246 45.7089L17.3403 43.7499C17.9933 42.5165 19.2993 42.1537 20.4601 42.7342L21.2582 43.1695C22.1289 43.6774 22.4916 44.4754 22.274 45.4186C23.1446 44.9833 24.1604 44.9833 25.6114 45.7814ZM20.0974 43.5322C19.2993 43.0969 18.4286 43.3146 17.9933 44.1852L17.2678 45.5637L20.8229 47.4501L21.4759 46.2167C22.0563 45.201 21.7661 44.4029 20.968 43.9676L20.0974 43.5322Z" fill="#282829"/>
<path d="M28.441 41.138C29.3117 41.7185 29.5293 42.8793 28.8763 43.8225C28.2234 44.7657 27.0625 45.0559 26.1918 44.4755L23.072 42.3714C22.2014 41.791 22.0563 40.5576 22.7093 39.6144C23.3623 38.6712 24.5231 38.381 25.3212 38.9614L26.8448 39.9772C26.9174 40.0497 26.9174 40.1223 26.9174 40.1948L25.1761 42.8068L26.6997 43.8225C27.2076 44.1853 28.0057 44.0402 28.3685 43.3872C28.8038 42.8068 28.5861 42.0812 28.0782 41.7185L27.8606 41.5734C27.7155 41.5008 27.788 41.3557 27.788 41.3557L28.0057 40.9929C28.0782 40.9204 28.0782 40.8478 28.2234 40.9929L28.441 41.138ZM23.5074 41.7185L24.6682 42.5166L26.0467 40.4851L24.8859 39.687C24.378 39.3242 23.6525 39.4693 23.2171 40.0497C22.8544 40.5576 22.9995 41.3557 23.5074 41.7185Z" fill="#282829"/>
<path d="M28.0783 35.4789C27.5704 35.0436 26.8449 35.1887 26.4095 35.6966C25.9742 36.277 26.0468 36.93 26.5546 37.3653C27.0625 37.8006 27.4253 37.6555 28.5136 37.2202C29.5293 36.8574 30.6176 36.4221 31.5608 37.1477C32.3589 37.8006 32.504 38.9615 31.706 39.9047C30.8353 40.993 29.747 40.993 28.9489 40.4126L28.8038 40.2675C28.7313 40.1949 28.6587 40.0498 28.8038 39.9773L29.0215 39.687C29.094 39.6145 29.1666 39.6145 29.3117 39.687L29.5293 39.8321C30.0372 40.2675 30.7628 40.1224 31.1981 39.5419C31.6334 38.9615 31.5608 38.236 31.053 37.8006C30.5451 37.3653 29.8196 37.583 28.5136 38.0909C27.7155 38.3811 26.8449 38.5987 26.0468 38.0183C25.2487 37.3653 25.1036 36.2045 25.8291 35.3338C26.5546 34.3906 27.7155 34.2455 28.5136 34.8985L28.7312 35.0436C28.8038 35.1162 28.8038 35.1887 28.7312 35.3338L28.5136 35.624C28.441 35.6966 28.3685 35.6966 28.2234 35.624L28.0783 35.4789Z" fill="#282829"/>
<path d="M34.8983 33.5923C35.6238 34.3179 35.6964 35.4787 34.8983 36.2768C34.1002 37.0749 32.8668 37.22 32.1413 36.4945L29.3842 33.8825C28.6587 33.157 28.6587 31.9236 29.4568 31.1255C30.2549 30.2549 31.4157 30.2549 32.1413 30.9078L33.4472 32.1413C33.5198 32.2138 33.5198 32.2864 33.4472 32.3589L31.3432 34.6081L32.6491 35.8415C33.0845 36.2768 33.8826 36.2043 34.3904 35.6964C34.8983 35.1885 34.8258 34.463 34.3904 34.0276L34.1728 33.81C34.1002 33.7374 34.1002 33.5923 34.1728 33.5198L34.463 33.2296C34.5355 33.157 34.6081 33.0844 34.7532 33.2296L34.8983 33.5923ZM29.9647 33.3021L30.9804 34.2453L32.7217 32.4315L31.7059 31.4883C31.2706 31.0529 30.5451 31.0529 30.0372 31.5608C29.5293 32.1413 29.5293 32.8668 29.9647 33.3021Z" fill="#282829"/>
<path d="M36.4219 28.7313L35.6964 27.9333C35.4062 27.5705 34.6081 27.2077 33.81 27.8607C33.3021 28.296 33.2296 28.7313 33.157 29.0941C33.157 29.1667 33.0845 29.2392 33.0845 29.2392C33.0119 29.2392 33.0119 29.3118 32.9394 29.3118L32.7217 29.2392C32.6492 29.2392 32.5766 29.0941 32.5766 28.949C32.6492 28.5137 32.7217 27.9333 33.4472 27.3528C34.3904 26.4822 35.6239 26.6998 36.2768 27.4254L38.7437 30.1824C39.6869 31.1982 38.9613 32.4316 38.4534 32.9395C37.7279 33.5924 36.3494 33.9552 35.4062 32.8669L35.2611 32.6492C34.3904 31.6335 34.463 30.4001 35.5513 29.4569L36.4219 28.7313ZM36.7847 29.1667L36.2043 29.7471C35.1885 30.6903 35.3336 31.4884 35.9141 32.1414L36.0592 32.2865C36.7847 33.0846 37.6554 32.7944 38.0181 32.4316C38.3809 32.0688 38.7437 31.3433 38.1632 30.6903L36.7847 29.1667Z" fill="#282829"/>
<path d="M39.0339 23.5075C39.1064 23.6526 39.0339 23.7252 38.8888 23.7977C38.7436 23.9428 38.5985 24.0154 38.3809 24.1605C37.6553 24.6684 37.6553 25.539 38.0907 26.1194L41.1379 30.1099C41.2105 30.255 41.1379 30.4001 41.0654 30.4001L40.7026 30.6178C40.63 30.6903 40.4849 30.6903 40.4124 30.5452L37.3651 26.4822C36.4945 25.3939 37.1475 24.1605 37.8005 23.5801C38.0181 23.435 38.3083 23.2173 38.4534 23.1447C38.5985 23.0722 38.6711 23.0722 38.7437 23.1447L39.0339 23.5075Z" fill="#282829"/>
<path d="M45.5637 24.6684C45.6363 24.5958 45.7088 24.5958 45.8539 24.7409L46.0716 25.0311C46.652 25.9018 46.3618 27.0626 45.4186 27.6431C44.4754 28.2235 43.242 28.0784 42.6616 27.2077L40.6301 24.0154C40.0496 23.1447 40.4124 21.9839 41.3556 21.3309C42.2988 20.6779 43.4596 20.9681 44.0401 21.7662L44.2577 22.0564C44.3303 22.2015 44.3303 22.2741 44.2577 22.3466L43.9675 22.5643C43.895 22.6369 43.7499 22.6369 43.6773 22.4917L43.4596 22.2015C43.0969 21.6937 42.3713 21.476 41.7909 21.9113C41.2105 22.2741 40.9928 23.0722 41.3556 23.5801L43.3871 26.7724C43.7499 27.2803 44.4754 27.4254 45.0558 27.0626C45.6363 26.6999 45.7814 25.9743 45.4186 25.3939L45.2735 25.1037C45.2009 24.9586 45.2735 24.886 45.346 24.8135L45.5637 24.6684Z" fill="#282829"/>
<path d="M51.2954 23.9427C51.368 24.0878 51.2954 24.1603 51.2229 24.2329L50.7876 24.4505C50.715 24.4505 50.5699 24.4505 50.5699 24.378L48.1756 19.5895C47.8854 19.0816 47.1599 18.7914 46.5069 19.1541C45.8539 19.5169 45.6362 20.2424 45.999 20.8954L48.3933 25.4663C48.4658 25.5389 48.4658 25.684 48.3207 25.7565L47.8854 25.9016C47.7403 25.9742 47.6677 25.9016 47.5952 25.8291L43.242 17.5579C43.1694 17.4854 43.242 17.3403 43.3145 17.2677L43.6773 17.0501C43.8224 16.9775 43.8949 17.0501 43.9675 17.1226L45.2735 19.5895C45.4186 19.0816 45.7813 18.6463 46.2892 18.4286C47.305 17.9207 48.3933 18.2835 48.8286 19.2267L51.2954 23.9427Z" fill="#282829"/>
<path d="M53.3995 22.9995C53.4721 23.1446 53.3995 23.2172 53.327 23.2897L52.7465 23.5799C52.674 23.6525 52.5289 23.5799 52.4563 23.4348L52.2387 22.927C52.1661 22.7819 52.2387 22.6367 52.3112 22.6367L52.8917 22.4191C53.0368 22.3465 53.1093 22.4191 53.1819 22.5642L53.3995 22.9995Z" fill="#282829"/>
</g>
<defs>
<clipPath id="clip0_221_10736">
<rect width="152" height="152" fill="white"/>
</clipPath>
</defs>
</svg>
