<svg width="152" height="152" viewBox="0 0 152 152" fill="none" xmlns="http://www.w3.org/2000/svg">
<g clip-path="url(#clip0_221_10822)">
<path d="M75.9637 151.927C117.917 151.927 151.927 117.917 151.927 75.9637C151.927 34.0101 117.917 0 75.9637 0C34.0101 0 0 34.0101 0 75.9637C0 117.917 34.0101 151.927 75.9637 151.927Z" fill="#282829"/>
<path fill-rule="evenodd" clip-rule="evenodd" d="M38.1271 86.1308C32.5351 65.2154 44.9536 43.719 65.8691 38.127C86.7845 32.535 108.281 44.9536 113.873 65.869C119.465 86.7844 107.046 108.281 86.1309 113.873C65.2155 119.465 43.719 107.046 38.1271 86.1308Z" fill="white"/>
<path fill-rule="evenodd" clip-rule="evenodd" d="M96.4434 105.376L73.2766 91.2146L60.5676 108.281C67.9751 111.84 76.6899 112.856 85.2594 110.605C89.3989 109.443 93.1753 107.7 96.4434 105.376Z" fill="#FCD60B"/>
<path fill-rule="evenodd" clip-rule="evenodd" d="M110.895 68.2656L63.763 80.902L99.7114 102.834C109.152 94.4099 113.8 81.3378 110.895 68.2656Z" fill="#ED0874"/>
<path fill-rule="evenodd" clip-rule="evenodd" d="M57.0817 106.393L69.936 89.1812L58.6068 82.282L41.9035 86.7846C44.5179 95.2089 50.0373 101.963 57.0817 106.393Z" fill="#0099D8"/>
<path fill-rule="evenodd" clip-rule="evenodd" d="M109.806 64.3439C103.706 46.7692 84.9689 36.6746 66.8132 41.5403C48.5122 46.4061 37.4009 64.5618 40.8868 82.7902L109.806 64.3439Z" fill="#00B5AF"/>
<path fill-rule="evenodd" clip-rule="evenodd" d="M65.506 54.8305C64.925 52.7244 62.8189 51.4898 60.7128 52.0708C58.6068 52.6518 57.3722 54.7579 57.9532 56.8639L60.0592 64.7072C60.6402 66.8133 62.7463 68.0479 64.8524 67.4669C66.9584 66.8859 68.193 64.7798 67.612 62.6738L65.506 54.8305Z" fill="white"/>
<path fill-rule="evenodd" clip-rule="evenodd" d="M82.064 50.4003C81.483 48.2942 79.377 47.0597 77.2709 47.6406C75.1648 48.2216 73.9302 50.3277 74.5112 52.4338L76.6173 60.277C77.1983 62.3831 79.3043 63.6177 81.4104 63.0367C83.5165 62.4557 84.7511 60.3497 84.1701 58.2436L82.064 50.4003Z" fill="white"/>
<path d="M65.5786 9.51367C65.7239 9.51367 65.7965 9.58629 65.7965 9.73154L66.1596 11.4745C66.4501 12.927 66.0144 14.0163 65.0703 14.6699C66.2322 14.9604 67.0311 15.8319 67.3216 17.2117L67.6121 18.8094C67.6121 18.882 67.6121 19.0273 67.4668 19.0999L67.0311 19.1725C66.8858 19.1725 66.8132 19.1725 66.7406 18.9547L66.5227 17.4296C66.2322 15.9045 65.2881 14.9604 63.4726 15.3235L62.9642 15.3961L63.7631 19.5357C63.7631 19.6809 63.7631 19.7535 63.6178 19.8261L63.1821 19.8988C63.0368 19.8988 62.9642 19.8261 62.8916 19.6809L61.1486 10.603C61.1486 10.4578 61.1486 10.3851 61.2939 10.3125L61.7296 10.2399C61.8749 10.2399 61.9475 10.3125 61.9475 10.4578L62.7463 14.7425L63.1821 14.6699C64.9976 14.3068 65.506 13.1448 65.2155 11.6197L64.925 9.94941C64.925 9.80416 64.9976 9.65892 65.0703 9.65892L65.5786 9.51367Z" fill="white"/>
<path d="M72.5504 16.8487C72.623 17.8654 71.8242 18.7369 70.6622 18.8821C69.5003 19.0274 68.4835 18.3011 68.4109 17.2844L68.0478 13.508C67.9752 12.4913 68.774 11.6198 69.936 11.4746C71.098 11.3293 72.1147 12.0555 72.1873 13.0723L72.5504 16.8487ZM68.8466 13.3628L69.2098 17.1392C69.2824 17.7928 69.8634 18.2285 70.5896 18.1559C71.3158 18.0833 71.8242 17.5023 71.7516 16.8487L71.3885 13.1449C71.3158 12.4913 70.7348 12.0555 70.0086 12.1282C69.2824 12.2008 68.774 12.7818 68.8466 13.3628Z" fill="white"/>
<path d="M76.6899 11.6198C76.6899 11.765 76.5447 11.8377 76.3994 11.8377C76.1816 11.8377 76.0363 11.8377 75.8185 11.8377C74.947 11.8377 74.4386 12.4913 74.4386 13.2175L74.5112 18.2285C74.5112 18.3737 74.366 18.4464 74.2934 18.4464H73.8576C73.785 18.4464 73.6398 18.3737 73.6398 18.2285L73.5671 13.1449C73.5671 11.765 74.7291 11.1114 75.6006 11.0388C75.8911 11.0388 76.1816 11.0388 76.3994 11.0388C76.5447 11.0388 76.6173 11.1114 76.6173 11.2567L76.6899 11.6198Z" fill="white"/>
<path d="M81.4104 16.9212C81.3378 17.938 80.4663 18.7368 79.3044 18.6642C78.1424 18.5916 77.2709 17.7201 77.3436 16.7034L77.5614 12.927C77.634 11.9103 78.5781 11.1114 79.7401 11.184C80.9021 11.2567 81.7009 12.1281 81.6283 13.1449L81.5557 14.9604C81.5557 15.1057 81.4831 15.1057 81.3378 15.1057L78.2877 14.9604L78.215 16.776C78.215 17.4296 78.7234 17.938 79.4496 18.0106C80.1759 18.0832 80.6842 17.5749 80.7568 16.9212V16.6308C80.7568 16.4855 80.9021 16.4855 80.9747 16.4855H81.4104C81.4831 16.4855 81.5557 16.4855 81.5557 16.7034L81.4104 16.9212ZM78.3603 12.9996L78.2877 14.3794L80.7568 14.5247L80.8295 13.1449C80.8295 12.4912 80.3937 11.9829 79.6675 11.9103C79.0139 11.8376 78.4329 12.346 78.3603 12.9996Z" fill="white"/>
<path d="M86.0583 14.9603L86.2035 13.871C86.2762 13.3626 86.0583 12.5638 85.0416 12.4185C84.3153 12.3459 84.0249 12.5638 83.6617 12.7816C83.5891 12.7816 83.5165 12.8543 83.5165 12.7816C83.4439 12.7816 83.4439 12.7816 83.3713 12.709L83.2986 12.4185C83.226 12.3459 83.2986 12.2007 83.4439 12.128C83.8796 11.9102 84.3153 11.6197 85.2594 11.7649C86.5667 11.9828 87.2203 12.9995 87.075 13.9436L86.5667 17.5748C86.3488 18.9546 84.969 19.2451 84.2427 19.0999C83.2986 18.9546 82.1367 18.1558 82.3545 16.7033V16.4854C82.5724 15.1782 83.5891 14.452 84.969 14.6698L86.0583 14.9603ZM85.9857 15.5413L85.1142 15.3961C83.7344 15.1782 83.226 15.8318 83.0808 16.7033V16.8485C82.9355 17.8653 83.7344 18.3736 84.2427 18.4462C84.7511 18.5189 85.5499 18.301 85.6952 17.4295L85.9857 15.5413Z" fill="white"/>
<path d="M96.6613 14.5972C96.5886 14.8151 96.516 14.8151 96.3708 14.8151L96.0076 14.6698C95.8624 14.5972 95.8624 14.5246 95.8624 14.3793L96.0076 13.9436C96.2255 13.1447 95.8624 12.3459 94.9909 12.128C94.1194 11.9101 93.3206 12.3459 93.0301 13.0721L91.4324 18.4462C91.2145 19.2451 91.6503 20.0439 92.5217 20.3344C93.3932 20.5523 94.1921 20.1165 94.4099 19.3177L94.5552 18.7367C94.6278 18.5188 94.7004 18.5188 94.8457 18.5188L95.2088 18.6641C95.354 18.6641 95.354 18.7367 95.354 18.9546L95.2088 19.5355C94.8457 20.7701 93.6111 21.3511 92.3765 20.9154C91.0693 20.5523 90.3431 19.3903 90.7062 18.1557L92.3039 12.709C92.667 11.547 93.9016 10.8934 95.2088 11.3291C96.516 11.6923 97.097 12.9269 96.8065 14.0888L96.6613 14.5972Z" fill="white"/>
<path d="M99.9293 21.787C99.5662 22.7311 98.4042 23.1669 97.3149 22.7311C96.2255 22.2954 95.7172 21.206 96.0803 20.2619L97.4601 16.776C97.8232 15.8319 98.9852 15.3962 100.075 15.8319C101.164 16.2677 101.672 17.357 101.309 18.3011L99.9293 21.787ZM98.259 17.0665L96.8791 20.5524C96.6613 21.1334 96.9518 21.8596 97.6054 22.0775C98.259 22.368 98.9852 22.0775 99.2031 21.4965L100.583 18.0106C100.801 17.4296 100.51 16.7034 99.8567 16.4129C99.2031 16.1224 98.4769 16.4129 98.259 17.0665Z" fill="white"/>
<path d="M102.181 24.5465C102.181 24.6192 102.035 24.6918 101.89 24.6192L101.527 24.4739C100.728 24.1108 100.51 23.4572 100.873 22.6583L104.432 15.3234C104.505 15.2508 104.577 15.1782 104.722 15.2508L105.086 15.4687C105.231 15.5413 105.231 15.6139 105.158 15.7591L101.672 22.9488C101.527 23.3119 101.6 23.6751 101.963 23.8929L102.253 24.0382C102.399 24.1108 102.399 24.256 102.326 24.256L102.181 24.5465Z" fill="white"/>
<path d="M104.722 25.9264C104.722 25.9991 104.577 26.0717 104.432 25.9991L104.069 25.8538C103.27 25.4181 103.052 24.8371 103.56 23.9656L107.482 16.8486C107.555 16.7759 107.627 16.7033 107.773 16.7759L108.136 16.9938C108.281 17.0664 108.281 17.139 108.208 17.2843L104.287 24.4013C104.069 24.7645 104.141 25.1276 104.577 25.3454L104.868 25.4907C105.013 25.5633 105.013 25.7086 104.94 25.7086L104.722 25.9264Z" fill="white"/>
<path d="M110.314 24.5466L110.895 23.6752C111.186 23.2394 111.258 22.3679 110.46 21.8596C109.879 21.4965 109.443 21.5691 109.08 21.6417C109.007 21.6417 108.935 21.6417 108.935 21.5691C108.862 21.5691 108.862 21.4965 108.862 21.4238V21.1333C108.862 21.0607 108.935 20.9155 109.08 20.9155C109.516 20.8429 110.097 20.8429 110.895 21.3512C111.985 22.0774 112.13 23.2394 111.622 24.1109L109.661 27.2337C108.935 28.3957 107.555 28.1052 106.901 27.6694C106.102 27.1611 105.376 25.9265 106.175 24.6919L106.247 24.5466C106.974 23.4573 108.208 23.1668 109.37 23.9656L110.314 24.5466ZM110.024 25.055L109.298 24.6193C108.136 23.893 107.409 24.2561 106.901 24.9824L106.828 25.1276C106.247 25.9991 106.756 26.7979 107.264 27.0884C107.7 27.3789 108.499 27.5242 109.007 26.7253L110.024 25.055Z" fill="white"/>
<path d="M113.728 30.3565C113.074 31.1554 111.839 31.228 110.968 30.5744C110.097 29.8482 109.806 28.6862 110.46 27.8147L115.253 21.6418C115.325 21.5691 115.398 21.4965 115.543 21.5691L115.906 21.8596C116.052 21.9323 115.979 22.0775 115.906 22.1501L114.309 24.2562C114.744 24.2562 115.253 24.4014 115.616 24.6919C116.487 25.4182 116.705 26.5801 116.052 27.379L113.728 30.3565ZM111.113 28.3231C110.75 28.8314 110.823 29.5577 111.404 29.9934C111.985 30.4292 112.711 30.3565 113.147 29.8482L115.471 26.8706C115.834 26.3623 115.761 25.636 115.18 25.2003C114.599 24.7646 113.873 24.8372 113.51 25.3455L111.113 28.3231Z" fill="white"/>
<path d="M117.577 33.8425C116.85 34.5687 115.616 34.5687 114.817 33.7699C113.946 32.971 113.873 31.7364 114.527 31.0102L117.068 28.2505C117.722 27.5243 119.029 27.5243 119.828 28.3231C120.699 29.122 120.845 30.3566 120.118 31.0828L117.577 33.8425ZM117.722 28.8315L115.18 31.5912C114.744 32.0269 114.817 32.8258 115.325 33.3341C115.834 33.8425 116.633 33.7699 117.068 33.3341L119.61 30.5745C120.046 30.1387 119.973 29.3399 119.465 28.8315C118.884 28.3231 118.158 28.3958 117.722 28.8315Z" fill="white"/>
<path d="M124.258 33.4793C124.113 33.6246 124.04 33.4793 123.895 33.4067C123.75 33.2615 123.604 33.1162 123.532 32.971C122.951 32.3174 122.079 32.39 121.571 32.8984L117.867 36.3116C117.722 36.3843 117.577 36.3843 117.577 36.3116L117.286 36.0211C117.214 35.9485 117.214 35.8033 117.286 35.7307L121.063 32.2447C122.079 31.3006 123.387 31.7364 123.968 32.39C124.185 32.6079 124.403 32.8257 124.476 32.971C124.549 33.1162 124.549 33.1888 124.476 33.2615L124.258 33.4793Z" fill="white"/>
<path d="M124.984 38.345L125.856 37.6914C126.219 37.4009 126.655 36.602 126.001 35.8032C125.565 35.2222 125.129 35.2222 124.766 35.1496C124.694 35.1496 124.621 35.077 124.621 35.077C124.621 35.0043 124.549 35.0043 124.621 34.9317L124.766 34.7139C124.839 34.6412 124.912 34.5686 125.057 34.5686C125.493 34.7138 126.074 34.7865 126.655 35.5127C127.453 36.5294 127.236 37.6914 126.437 38.345L123.532 40.6689C122.442 41.5404 121.28 40.8142 120.772 40.2332C120.191 39.507 119.828 38.1271 120.99 37.183L121.135 37.0378C122.152 36.2389 123.387 36.3842 124.258 37.4735L124.984 38.345ZM124.549 38.7081L124.04 38.0545C123.169 36.9652 122.37 37.1104 121.716 37.6188L121.571 37.764C120.772 38.4176 120.99 39.2891 121.353 39.7248C121.644 40.088 122.37 40.5237 123.096 39.9427L124.549 38.7081Z" fill="white"/>
<path d="M123.604 43.9371C123.096 43.2108 123.241 42.5572 123.968 42.0489L128.252 39.1439L127.889 38.6356C127.817 38.563 127.817 38.4177 127.962 38.3451L128.18 38.1998C128.325 38.1272 128.398 38.1998 128.47 38.2725L128.833 38.7808L129.777 38.1272C129.85 38.0546 129.995 38.0546 130.068 38.1272L130.431 38.4177C130.504 38.4903 130.504 38.6356 130.358 38.7082L129.269 39.4344L129.923 40.3785C129.995 40.4512 129.995 40.5238 129.85 40.5964L129.56 40.7416C129.487 40.8143 129.342 40.8143 129.269 40.7416L128.615 39.7976L124.403 42.7025C124.04 42.9203 123.968 43.2835 124.258 43.6466L124.403 43.8644C124.476 44.0097 124.403 44.0823 124.331 44.1549L124.04 44.3728C123.968 44.4454 123.895 44.4454 123.75 44.3002L123.604 43.9371Z" fill="white"/>
<path d="M130.504 41.5405C130.576 41.4679 130.721 41.5405 130.794 41.6131L131.012 41.9762C131.085 42.1215 131.012 42.1941 130.939 42.2667L125.13 45.8253C125.057 45.8979 124.912 45.8979 124.839 45.7526L124.621 45.3895C124.549 45.2443 124.621 45.1716 124.694 45.099L130.504 41.5405ZM131.956 41.6857C131.811 41.7584 131.738 41.6857 131.666 41.6131L131.375 41.1048C131.302 40.9595 131.302 40.8869 131.448 40.8143L131.883 40.5238C131.956 40.4512 132.101 40.4512 132.174 40.5964L132.464 41.1048C132.537 41.25 132.537 41.3226 132.392 41.3953L131.956 41.6857Z" fill="white"/>
<path d="M127.453 48.1492L127.962 48.004L133.408 46.6968C133.554 46.6968 133.626 46.7694 133.626 46.842L133.844 47.2051C133.917 47.3504 133.844 47.423 133.699 47.4956L126.8 49.0933C126.655 49.0933 126.655 49.0933 126.582 49.0207L126.364 48.585C126.291 48.5123 126.364 48.4397 126.437 48.3671L131.593 43.5013C131.738 43.3561 131.883 43.4287 131.883 43.5013L132.101 43.8645C132.174 43.9371 132.174 44.0823 132.029 44.1549L127.889 47.9313L127.453 48.1492Z" fill="white"/>
<path d="M130.939 54.3221C129.995 54.7578 128.906 54.2494 128.47 53.2327C128.034 52.216 128.398 50.9814 129.342 50.6183L132.828 49.1658C133.772 48.8027 134.861 49.3111 135.297 50.3278C135.732 51.4171 135.297 52.5065 134.425 52.8696L132.755 53.5958C132.682 53.6685 132.537 53.5958 132.537 53.5232L131.302 50.6909L129.632 51.4171C129.051 51.635 128.761 52.3612 129.051 53.0148C129.342 53.6684 129.995 53.9589 130.576 53.6684L130.867 53.5232C131.012 53.4506 131.085 53.5232 131.085 53.5958L131.23 53.9589C131.23 54.0316 131.302 54.1042 131.085 54.1768L130.939 54.3221ZM133.191 49.892L131.883 50.473L132.828 52.797L134.135 52.216C134.716 51.9981 135.006 51.2719 134.716 50.6183C134.425 49.892 133.772 49.6016 133.191 49.892Z" fill="white"/>
<path d="M137.911 60.5676C137.984 60.7129 137.838 60.7855 137.766 60.7855L136.967 61.0033L137.185 61.8022C137.258 61.9474 137.185 62.0201 137.04 62.0927L136.822 62.1653C136.677 62.2379 136.604 62.1653 136.604 62.0201L136.386 61.2212L133.554 61.9474C132.392 62.2379 131.375 61.657 131.012 60.4224C130.721 59.1878 131.157 58.171 132.392 57.8079L133.989 57.3722C134.788 57.1543 135.442 57.4448 135.805 58.0258C135.95 57.4448 136.386 57.0091 137.112 56.7912L138.129 56.5007C139.509 56.1376 140.308 57.0817 140.598 57.9532C140.889 58.9699 140.671 59.9866 139.146 60.4224C139 60.4224 138.928 60.4224 138.928 60.3497L138.783 59.914C138.783 59.8414 138.855 59.7688 138.928 59.6961C139.872 59.4783 140.09 58.8973 139.945 58.2437C139.799 57.6627 139.291 57.0817 138.347 57.2996L137.258 57.5901C136.677 57.7353 136.096 58.1711 136.313 58.8247L136.749 60.3497L137.548 60.1319C137.621 60.1319 137.766 60.1319 137.766 60.2771L137.911 60.5676ZM136.096 60.4224L135.66 58.8973C135.442 58.171 134.716 58.0258 134.207 58.171L132.61 58.6068C131.666 58.8247 131.448 59.5509 131.666 60.2771C131.883 61.0033 132.464 61.4391 133.263 61.2212L136.096 60.4224Z" fill="white"/>
<path d="M142.777 70.8074C142.777 70.9527 142.704 71.0253 142.559 71.0253L133.336 72.042C133.191 72.042 133.118 72.042 133.118 71.8968L133.045 71.461C133.045 71.3158 133.118 71.2432 133.263 71.2432L137.548 70.8074L137.185 67.612L132.9 68.0478C132.755 68.0478 132.682 68.0478 132.61 67.9025L132.537 67.4668C132.537 67.3215 132.61 67.2489 132.755 67.2489L141.978 66.2322C142.123 66.2322 142.196 66.3048 142.196 66.3774L142.269 66.8132C142.269 66.9584 142.196 67.031 142.051 67.031L137.839 67.4668L138.202 70.6622L142.414 70.2264C142.559 70.2264 142.632 70.2264 142.632 70.3717L142.777 70.8074Z" fill="white"/>
<path d="M140.162 73.3492C140.235 73.3492 140.308 73.4218 140.38 73.5671V74.0028C140.38 74.1481 140.308 74.2207 140.235 74.2207L133.409 74.4386C133.263 74.4386 133.191 74.3659 133.191 74.2207V73.785C133.191 73.6397 133.263 73.5671 133.409 73.5671L140.162 73.3492ZM141.397 74.1481C141.252 74.1481 141.179 74.0755 141.179 73.9302V73.3492C141.179 73.204 141.252 73.1313 141.397 73.1313H141.905C142.051 73.1313 142.123 73.204 142.123 73.3492V73.9302C142.123 74.0755 142.051 74.1481 141.905 74.1481H141.397Z" fill="white"/>
<path d="M133.626 78.0698C133.554 79.1591 133.191 79.8853 132.029 79.8853L130.939 79.8127C130.794 79.8127 130.721 79.7401 130.721 79.5948V79.1591C130.721 79.0865 130.794 79.0139 130.939 79.0139H131.956C132.682 79.0139 132.9 78.6507 132.973 77.8519L133.045 76.9078V76.8352C133.045 75.8911 133.844 75.4553 134.425 75.4553H134.498C135.079 75.4553 135.515 75.7458 135.805 76.0363C136.168 75.7458 136.604 75.6006 137.04 75.6006L138.637 75.6732C139.727 75.7458 140.526 76.6899 140.453 77.7793C140.453 78.0697 140.38 78.2876 140.308 78.5055L140.235 79.8853C140.235 80.0306 140.162 80.1032 140.09 80.1032H139.799C139.727 80.1032 139.654 80.0306 139.654 79.8853V79.377C139.364 79.5948 138.928 79.7401 138.492 79.7401L136.894 79.6675C135.805 79.5948 135.006 78.6507 135.079 77.4888C135.079 77.1256 135.224 76.7625 135.369 76.472C135.151 76.2542 134.934 76.1816 134.498 76.1089C134.062 76.1089 133.699 76.472 133.626 76.9804V78.0698ZM138.637 78.9412C139.291 78.9412 139.799 78.4329 139.872 77.7066C139.872 76.9804 139.364 76.3994 138.71 76.3994L136.967 76.3268C136.313 76.3268 135.805 76.8352 135.732 77.5614C135.732 78.2876 136.241 78.8686 136.894 78.8686L138.637 78.9412Z" fill="white"/>
<path d="M132.682 84.9689C132.537 84.9689 132.464 84.8237 132.537 84.751L132.61 84.3153C132.61 84.2427 132.682 84.1701 132.828 84.1701L138.056 84.8237C138.637 84.8963 139.291 84.4606 139.364 83.7343C139.436 83.0081 138.928 82.4271 138.274 82.2819L133.191 81.6283C133.045 81.6283 132.973 81.5556 133.045 81.4104L133.118 81.0473C133.118 80.902 133.191 80.8294 133.336 80.902L142.632 82.064C142.777 82.064 142.85 82.1366 142.777 82.2819L142.704 82.7176C142.704 82.8628 142.559 82.9355 142.486 82.8628L139.727 82.4997C140.017 82.9355 140.235 83.4438 140.162 84.0248C140.017 85.1142 139.073 85.8404 138.056 85.6951L132.682 84.9689Z" fill="white"/>
<path d="M136.241 90.3431C136.168 90.3431 136.096 90.1979 136.096 90.1252L136.749 87.1477C136.749 87.0751 136.822 87.0024 136.967 87.0024L137.258 87.0751C137.403 87.0751 137.403 87.2203 137.403 87.2929L136.749 90.2705C136.749 90.3431 136.677 90.4157 136.531 90.4157L136.241 90.3431Z" fill="white"/>
<path d="M130.794 91.9409C131.012 91.0694 131.593 90.779 132.464 90.9968L137.403 92.4493L137.548 91.7957C137.548 91.7231 137.693 91.6504 137.766 91.6504L138.056 91.7231C138.202 91.7957 138.202 91.8683 138.202 91.9409L138.056 92.5945L139.218 92.885C139.364 92.885 139.364 93.0303 139.364 93.1029V93.5386C139.364 93.6113 139.218 93.6839 139.146 93.6839L137.911 93.3208L137.621 94.4101C137.621 94.4827 137.548 94.5553 137.403 94.5553L137.112 94.4827C137.04 94.4827 136.967 94.3375 136.967 94.2649L137.258 93.1755L132.319 91.7957C131.883 91.6504 131.593 91.7957 131.448 92.304L131.375 92.5945C131.302 92.7398 131.23 92.7398 131.157 92.7398L130.867 92.6671C130.794 92.6671 130.721 92.5945 130.794 92.3767V91.9409Z" fill="white"/>
<path d="M130.649 97.6779C129.705 97.3148 129.196 96.2981 129.632 95.2087C129.995 94.1194 131.085 93.5384 132.101 93.9015L135.66 95.2087C136.604 95.5719 137.04 96.7338 136.677 97.7506C136.313 98.8399 135.224 99.3483 134.28 98.9851L132.61 98.3315C132.537 98.2589 132.464 98.1863 132.537 98.1137L133.626 95.2087L131.956 94.5551C131.375 94.3373 130.649 94.7004 130.431 95.354C130.213 96.0076 130.504 96.6612 131.085 96.8791L131.375 96.9517C131.52 97.0243 131.52 97.0969 131.448 97.1696L131.302 97.5327C131.302 97.6053 131.23 97.6779 131.085 97.6053L130.649 97.6779ZM135.297 95.935L133.989 95.4266L133.118 97.7506L134.425 98.2589C135.006 98.4768 135.66 98.1863 135.95 97.5327C136.241 96.8064 135.95 96.1528 135.297 95.935Z" fill="white"/>
<path d="M129.124 102.399C129.124 102.471 128.979 102.544 128.833 102.471L128.543 102.326C127.599 101.89 127.236 100.801 127.744 99.7116C128.252 98.6949 129.342 98.1865 130.286 98.6222L133.699 100.22C134.643 100.656 135.006 101.818 134.498 102.907C133.99 103.924 132.9 104.359 131.956 103.924L131.593 103.778C131.448 103.706 131.448 103.633 131.448 103.561L131.593 103.197C131.666 103.125 131.738 102.98 131.883 103.125L132.247 103.27C132.828 103.561 133.554 103.343 133.844 102.689C134.135 102.036 133.917 101.309 133.336 101.019L129.923 99.4211C129.342 99.1306 128.615 99.4211 128.325 100.075C128.034 100.728 128.325 101.382 128.906 101.672L129.196 101.818C129.342 101.89 129.342 102.036 129.342 102.108L129.124 102.399Z" fill="white"/>
<path d="M124.621 106.102C124.476 106.03 124.476 105.884 124.549 105.884L124.766 105.521C124.839 105.449 124.912 105.376 125.057 105.449L129.632 108.063C130.14 108.354 130.867 108.208 131.23 107.555C131.593 106.974 131.375 106.175 130.794 105.812L126.291 103.197C126.219 103.125 126.146 103.052 126.219 102.907L126.437 102.544C126.509 102.398 126.582 102.398 126.727 102.471L134.788 107.119C134.861 107.192 134.934 107.264 134.861 107.409L134.643 107.773C134.571 107.918 134.498 107.918 134.353 107.845L131.956 106.465C132.101 106.974 132.029 107.482 131.738 107.99C131.157 108.934 130.068 109.225 129.124 108.717L124.621 106.102Z" fill="white"/>
<path d="M123.314 108.063C123.169 107.991 123.169 107.918 123.241 107.773L123.459 107.41C123.532 107.264 123.677 107.337 123.75 107.41L131.448 112.566C131.593 112.638 131.593 112.784 131.52 112.856L131.302 113.219C131.23 113.365 131.085 113.365 131.012 113.292L123.314 108.063Z" fill="white"/>
<path d="M120.119 111.985C120.191 111.912 120.264 111.912 120.409 111.985L124.549 115.253C125.057 115.616 125.783 115.616 126.291 115.035C126.727 114.454 126.655 113.728 126.146 113.292L122.007 110.024C121.934 109.951 121.934 109.806 121.934 109.734L122.225 109.37C122.297 109.298 122.37 109.298 122.515 109.37L126.655 112.638C127.453 113.292 127.599 114.527 126.872 115.398C126.074 116.415 124.912 116.487 124.113 115.906L119.973 112.638C119.901 112.566 119.901 112.421 119.901 112.348L120.119 111.985Z" fill="white"/>
<path d="M124.185 118.085C124.258 118.158 124.258 118.23 124.185 118.376L123.895 118.666C123.822 118.739 123.677 118.739 123.604 118.739L118.521 114.164C118.448 114.091 118.448 113.946 118.521 113.873L118.811 113.583C118.884 113.51 119.029 113.51 119.102 113.583L124.185 118.085ZM124.476 119.538C124.403 119.465 124.403 119.32 124.476 119.247L124.839 118.811C124.912 118.666 125.057 118.666 125.129 118.739L125.493 119.102C125.565 119.175 125.565 119.247 125.493 119.392L125.129 119.828C125.057 119.973 124.912 119.901 124.839 119.828L124.476 119.538Z" fill="white"/>
<path d="M116.342 116.124C116.923 115.471 117.649 115.471 118.303 116.124L122.007 119.755L122.442 119.32C122.515 119.247 122.588 119.247 122.733 119.32L122.951 119.538C123.023 119.61 123.023 119.755 122.951 119.828L122.515 120.264L123.387 121.063C123.459 121.135 123.459 121.28 123.387 121.353L123.169 121.716C123.096 121.789 122.951 121.789 122.878 121.716L121.934 120.772L121.135 121.571C121.063 121.644 120.99 121.644 120.917 121.571L120.7 121.353C120.627 121.28 120.627 121.135 120.7 121.063L121.498 120.264L117.867 116.705C117.577 116.415 117.214 116.415 116.85 116.705L116.633 116.923C116.487 117.068 116.415 116.996 116.342 116.923L116.124 116.705C116.052 116.633 115.979 116.56 116.197 116.415L116.342 116.124Z" fill="white"/>
<path d="M120.046 122.37C120.119 122.443 120.119 122.515 120.046 122.66L119.755 122.951C119.683 123.024 119.538 123.024 119.465 122.951L114.817 117.94C114.744 117.867 114.744 117.722 114.817 117.649L115.108 117.359C115.18 117.286 115.325 117.286 115.398 117.359L120.046 122.37ZM120.191 123.822C120.119 123.75 120.119 123.604 120.191 123.532L120.627 123.169C120.772 123.024 120.845 123.024 120.917 123.169L121.28 123.532C121.353 123.604 121.353 123.677 121.28 123.822L120.845 124.258C120.699 124.331 120.627 124.331 120.554 124.258L120.191 123.822Z" fill="white"/>
<path d="M114.018 123.968L114.672 124.767C114.962 125.13 115.761 125.493 116.56 124.912C117.068 124.476 117.141 124.04 117.214 123.677C117.214 123.605 117.286 123.532 117.286 123.532C117.359 123.532 117.359 123.459 117.431 123.532L117.649 123.605C117.722 123.677 117.795 123.75 117.795 123.895C117.722 124.331 117.577 124.912 116.85 125.493C115.834 126.292 114.672 126.074 114.018 125.347L111.694 122.515C110.823 121.426 111.549 120.264 112.13 119.756C112.856 119.175 114.236 118.811 115.18 119.973L115.325 120.119C116.197 121.135 116.052 122.37 114.89 123.241L114.018 123.968ZM113.582 123.532L114.236 123.024C115.325 122.152 115.18 121.353 114.672 120.627L114.527 120.482C113.873 119.683 112.929 119.901 112.566 120.264C112.203 120.554 111.767 121.281 112.348 122.007L113.582 123.532Z" fill="white"/>
<path d="M108.426 122.733C109.152 122.225 109.806 122.297 110.314 123.096L113.292 127.308L113.8 126.945C113.873 126.873 114.018 126.873 114.091 127.018L114.236 127.236C114.309 127.381 114.236 127.453 114.163 127.526L113.655 127.889L114.309 128.833C114.381 128.906 114.381 129.051 114.309 129.124L114.018 129.487C113.946 129.56 113.8 129.56 113.728 129.414L113.001 128.325L112.057 128.979C111.985 129.051 111.912 129.051 111.839 128.906L111.694 128.688C111.622 128.615 111.622 128.47 111.694 128.398L112.566 127.744L109.588 123.532C109.37 123.169 109.007 123.096 108.644 123.387L108.426 123.532C108.281 123.604 108.208 123.532 108.136 123.532L107.918 123.241C107.845 123.169 107.845 123.096 107.99 122.951L108.426 122.733Z" fill="white"/>
<path d="M110.895 129.487C110.968 129.559 110.968 129.705 110.823 129.777L110.46 129.995C110.314 130.068 110.242 129.995 110.169 129.995L106.465 124.258C106.393 124.185 106.393 124.04 106.538 123.967L106.901 123.75C107.046 123.677 107.119 123.75 107.192 123.822L110.895 129.487ZM110.75 131.012C110.678 130.867 110.75 130.794 110.823 130.721L111.331 130.431C111.476 130.358 111.549 130.358 111.622 130.504L111.912 130.939C111.985 131.012 111.985 131.157 111.839 131.23L111.331 131.52C111.186 131.593 111.113 131.593 111.041 131.448L110.75 131.012Z" fill="white"/>
<path d="M104.287 126.582L104.432 127.09L105.812 132.537C105.812 132.682 105.739 132.755 105.667 132.755L105.303 132.973C105.158 133.046 105.086 132.973 105.013 132.828L103.343 125.928C103.343 125.783 103.343 125.783 103.415 125.711L103.851 125.493C103.924 125.42 103.996 125.493 104.069 125.565L109.007 130.649C109.152 130.794 109.08 130.939 109.007 130.939L108.644 131.157C108.571 131.23 108.426 131.23 108.354 131.085L104.505 127.018L104.287 126.582Z" fill="white"/>
<path d="M98.1138 130.213C97.678 129.269 98.1138 128.18 99.2031 127.744C100.22 127.308 101.454 127.671 101.818 128.615L103.343 132.101C103.778 133.045 103.27 134.135 102.181 134.643C101.091 135.079 100.002 134.716 99.6388 133.772L98.9126 132.101C98.84 132.029 98.9126 131.883 98.9852 131.883L101.818 130.649L101.091 128.979C100.801 128.398 100.075 128.107 99.4936 128.398C98.84 128.688 98.6221 129.414 98.84 129.995L98.9852 130.286C99.0579 130.431 98.9852 130.504 98.9126 130.504L98.5495 130.649C98.4769 130.649 98.4042 130.722 98.3316 130.576L98.1138 130.213ZM102.616 132.319L102.035 131.012L99.7841 132.029L100.365 133.336C100.656 133.917 101.309 134.207 101.963 133.917C102.544 133.626 102.834 132.9 102.616 132.319Z" fill="white"/>
<path d="M93.5385 137.548C93.4659 137.548 93.3206 137.548 93.3206 137.475L93.248 137.185C93.1754 137.04 93.3206 136.967 93.3932 136.967L94.6278 136.604L92.7396 130.576C92.7396 130.431 92.7396 130.358 92.8849 130.358L93.3206 130.213C93.4659 130.14 93.5385 130.213 93.5385 130.358L95.4267 136.386L96.0803 136.168C96.1529 136.168 96.2982 136.168 96.2982 136.313L96.3708 136.604C96.3708 136.749 96.2982 136.822 96.2255 136.822L95.5719 137.04L95.7172 137.548C96.2255 139.073 95.6446 139.654 94.4826 140.017C94.3373 140.09 94.1921 140.09 94.1195 139.945L94.0468 139.654C93.9742 139.509 94.1195 139.436 94.1921 139.436C94.9909 139.218 95.2088 138.855 94.9183 137.766L94.7731 137.33L93.5385 137.548Z" fill="white"/>
<path d="M87.2203 133.409C87.0024 132.392 87.7287 131.375 88.818 131.157C89.9073 130.867 90.9967 131.448 91.2872 132.465L92.1587 136.168C92.3765 137.185 91.6503 138.202 90.561 138.42C89.399 138.71 88.3823 138.129 88.0918 137.112L87.2203 133.409ZM91.2872 136.314L90.4157 132.682C90.2705 132.029 89.6169 131.666 88.8906 131.811C88.1644 131.956 87.8013 132.61 87.9465 133.263L88.818 136.895C88.9632 137.548 89.6169 137.911 90.3431 137.766C91.0693 137.621 91.4324 136.967 91.2872 136.314Z" fill="white"/>
<path d="M83.807 139.073C83.807 138.928 83.8796 138.855 84.0248 138.855C84.2427 138.855 84.388 138.783 84.6058 138.783C85.4773 138.637 85.913 137.911 85.7678 137.185L85.0416 132.247C85.0416 132.101 85.1142 132.029 85.2594 131.956L85.6952 131.884C85.7678 131.884 85.913 131.956 85.913 132.029L86.7119 137.112C86.9298 138.492 85.8404 139.291 84.9689 139.436C84.6785 139.509 84.388 139.509 84.1701 139.509C84.0248 139.509 83.9522 139.436 83.9522 139.364L83.807 139.073Z" fill="white"/>
<path d="M79.3043 142.196C79.3043 142.341 79.2317 142.414 79.0865 142.414L76.9078 142.486C75.4553 142.486 74.5112 141.47 74.5112 140.163V138.129C74.5112 136.822 75.4553 135.805 76.8352 135.733H78.4329L78.3603 132.9C78.3603 132.755 78.4329 132.682 78.5781 132.682H79.0139C79.1591 132.682 79.2317 132.755 79.2317 132.9L79.3043 142.196ZM75.3101 140.163C75.3101 141.107 75.8911 141.76 76.9078 141.76H78.4329L78.3603 136.531H76.8352C75.8911 136.531 75.3101 137.258 75.3101 138.129V140.163Z" fill="white"/>
<path d="M70.0086 139.291C70.0086 139.146 70.1538 139.146 70.2991 139.146C70.517 139.146 70.6622 139.218 70.8801 139.218C71.7515 139.291 72.3325 138.637 72.4052 137.911L72.7683 132.9C72.7683 132.755 72.9135 132.682 72.9861 132.682H73.4219C73.4945 132.682 73.5671 132.755 73.5671 132.9L73.204 137.984C73.1314 139.364 71.8242 139.945 70.9527 139.872C70.6622 139.872 70.3717 139.799 70.1538 139.799C70.0086 139.799 69.936 139.727 69.936 139.582L70.0086 139.291Z" fill="white"/>
<path d="M65.6513 133.554C65.7965 132.537 66.8132 131.883 67.9752 132.029C69.1372 132.174 69.936 133.118 69.7908 134.135L69.2824 137.911C69.1372 138.928 68.1204 139.581 66.9585 139.436C65.7965 139.291 64.9976 138.347 65.1429 137.33L65.6513 133.554ZM68.4109 137.766L68.9193 134.062C68.9919 133.409 68.5562 132.828 67.8299 132.755C67.1037 132.682 66.5227 133.118 66.4501 133.699L65.9417 137.403C65.8691 138.056 66.3049 138.637 67.0311 138.783C67.6847 138.855 68.3383 138.42 68.4109 137.766Z" fill="white"/>
<path d="M60.7129 136.313C60.5676 136.967 61.0034 137.548 61.657 137.693C62.3106 137.839 62.9642 137.475 63.1094 136.822C63.2547 136.168 62.9642 135.878 62.1653 135.079C61.4391 134.353 60.5676 133.481 60.7855 132.392C61.0034 131.375 62.0201 130.721 63.1821 131.012C64.5619 131.302 64.9976 132.319 64.7798 133.263L64.7071 133.481C64.7071 133.626 64.5619 133.699 64.4167 133.626L64.0535 133.554C63.9083 133.554 63.9083 133.409 63.9083 133.336L63.9809 133.118C64.1262 132.464 63.6904 131.883 62.9642 131.738C62.3106 131.593 61.657 131.956 61.5117 132.61C61.3665 133.263 61.8749 133.772 62.819 134.788C63.4726 135.442 64.0535 136.096 63.8357 137.04C63.6178 138.056 62.6011 138.637 61.5117 138.347C60.3498 138.056 59.6962 137.112 59.9867 136.096L60.0593 135.878C60.0593 135.732 60.1319 135.732 60.2771 135.732L60.6403 135.805C60.7855 135.805 60.7855 135.95 60.7855 136.023L60.7129 136.313Z" fill="white"/>
<path d="M55.8471 130.867C56.1376 129.85 57.227 129.414 58.3163 129.777C58.8247 129.923 59.1878 130.286 59.4057 130.649L60.2045 128.252C60.2045 128.18 60.3498 128.107 60.4224 128.107L60.8581 128.252C61.0034 128.325 61.0034 128.397 61.0034 128.543L58.6068 135.805C58.3163 136.822 57.1544 137.257 56.065 136.894C54.9757 136.531 54.3221 135.514 54.6852 134.498L55.8471 130.867ZM59.0426 131.956C59.2604 131.375 58.8973 130.649 58.1711 130.431C57.5175 130.213 56.7912 130.576 56.5734 131.157L55.4114 134.716C55.1935 135.297 55.5566 136.023 56.2829 136.241C56.9365 136.459 57.6627 136.095 57.808 135.514L59.0426 131.956Z" fill="white"/>
<path d="M51.1266 128.906C51.5624 127.962 52.6517 127.526 53.6684 127.962C54.6852 128.398 55.2661 129.56 54.8304 130.431L53.378 133.917C53.0148 134.861 51.7802 135.224 50.7635 134.788C49.6742 134.353 49.2384 133.263 49.6742 132.319L50.4004 130.649C50.473 130.576 50.5457 130.504 50.6183 130.576L53.4506 131.811L54.1768 130.14C54.3947 129.56 54.1042 128.833 53.4506 128.543C52.797 128.252 52.1434 128.543 51.8529 129.124L51.7076 129.414C51.635 129.56 51.5624 129.56 51.4898 129.487L51.1266 129.342C51.054 129.342 50.9814 129.269 51.054 129.124L51.1266 128.906ZM52.6517 133.699L53.2327 132.392L50.9088 131.448L50.3278 132.755C50.1099 133.336 50.3278 133.99 50.9814 134.28C51.7076 134.571 52.3612 134.28 52.6517 133.699Z" fill="white"/>
<path d="M46.5514 127.163C46.4788 127.09 46.4061 127.018 46.4788 126.873L46.624 126.582C47.1324 125.711 48.2217 125.347 49.2384 125.928C50.2552 126.437 50.6909 127.599 50.1825 128.543L48.4396 131.884C48.0038 132.755 46.7692 133.045 45.7525 132.537C44.7358 131.956 44.3727 130.867 44.8084 129.995L44.9537 129.632C45.0263 129.487 45.1715 129.487 45.2442 129.487L45.6073 129.632C45.6799 129.705 45.7525 129.777 45.6799 129.923L45.5347 130.213C45.2442 130.794 45.462 131.448 46.043 131.811C46.6966 132.174 47.4229 131.956 47.7133 131.375L49.4563 128.034C49.7468 127.454 49.5289 126.727 48.8753 126.437C48.2217 126.074 47.5681 126.364 47.2776 126.873L47.1324 127.163C47.0597 127.308 46.9145 127.308 46.8419 127.236L46.5514 127.163Z" fill="white"/>
<path d="M45.2442 123.677C45.9704 124.113 46.1883 124.766 45.6799 125.565L42.9202 129.923L43.5012 130.286C43.5738 130.286 43.6465 130.431 43.5738 130.576L43.4286 130.867C43.356 131.012 43.2107 130.939 43.1381 130.939L42.5571 130.576L41.9035 131.593C41.8309 131.666 41.7583 131.738 41.613 131.666L41.1773 131.52C41.1047 131.448 41.032 131.375 41.1047 131.23L41.8309 130.14L40.8868 129.559C40.8142 129.487 40.7415 129.414 40.8142 129.342L40.9594 129.051C41.032 128.978 41.1047 128.906 41.1773 128.978L42.1214 129.559L44.8084 125.202C45.0263 124.839 44.9537 124.476 44.5906 124.258L44.3727 124.113C44.2275 124.04 44.3001 123.895 44.3001 123.895L44.4453 123.604C44.5179 123.532 44.5906 123.459 44.7358 123.604L45.2442 123.677Z" fill="white"/>
<path d="M38.4902 129.051C38.5628 128.906 38.6355 128.906 38.7807 128.979L39.2165 129.269C39.3617 129.342 39.3617 129.414 39.2891 129.559L38.9986 129.995C38.926 130.068 38.8533 130.14 38.7081 129.995L38.1997 129.632C38.0545 129.559 38.0545 129.487 38.1271 129.342L38.4902 129.051ZM39.9427 128.615C39.8701 128.688 39.7974 128.688 39.6522 128.615L39.2891 128.398C39.1438 128.325 39.1438 128.18 39.2165 128.107L43.1381 122.515C43.2107 122.442 43.2833 122.37 43.4286 122.442L43.7917 122.66C43.937 122.733 43.937 122.878 43.8643 122.951L39.9427 128.615Z" fill="white"/>
<path d="M39.7248 121.716L35.2948 125.13C35.2222 125.202 35.0769 125.202 35.0043 125.13L34.6412 124.839C34.496 124.766 34.5686 124.621 34.6412 124.549L40.3058 120.336C40.3784 120.264 40.451 120.264 40.5237 120.336L40.8868 120.627C40.9594 120.7 40.9594 120.772 40.9594 120.845L38.1997 127.381C38.1271 127.526 37.9819 127.526 37.9092 127.454L37.5461 127.163C37.4735 127.09 37.4009 127.018 37.4735 126.873L39.7248 121.716Z" fill="white"/>
<path d="M34.3507 117.141C35.0769 116.415 36.2389 116.342 37.0378 117.141C37.8366 117.94 37.9819 119.175 37.2556 119.901L34.6412 122.66C33.9876 123.387 32.6804 123.387 31.8815 122.588C31.01 121.789 31.01 120.627 31.6637 119.901L32.8982 118.594C32.9709 118.521 33.0435 118.521 33.1161 118.594L35.3674 120.7L36.602 119.392C37.0378 118.957 36.9651 118.158 36.4568 117.649C35.9484 117.141 35.2222 117.214 34.7864 117.649L34.5686 117.867C34.496 117.94 34.3507 117.94 34.3507 117.867L34.0602 117.577C33.9876 117.504 33.915 117.432 34.0602 117.359L34.3507 117.141ZM34.1328 122.079L35.0769 121.063L33.2614 119.392L32.3173 120.409C31.8815 120.845 31.8815 121.644 32.3899 122.079C32.8982 122.588 33.6971 122.588 34.1328 122.079Z" fill="white"/>
<path d="M24.474 114.89C23.893 115.325 23.6025 116.27 24.2561 116.996C24.6192 117.432 25.4907 118.013 26.5074 117.214C27.3789 116.56 27.161 115.471 27.161 114.672C27.161 112.784 26.9432 111.694 28.2504 110.678C29.1218 109.951 30.5743 110.169 31.4458 111.259C32.172 112.203 32.3173 113.583 31.1553 114.527L30.8648 114.744C30.7922 114.817 30.6469 114.89 30.5743 114.744L30.3564 114.454C30.2838 114.381 30.2838 114.236 30.4291 114.164L30.7196 113.946C31.6637 113.219 31.3732 112.203 30.9374 111.767C30.3564 111.113 29.4123 110.895 28.7587 111.404C27.8873 112.13 27.8873 112.784 27.8873 114.599C27.9599 115.979 28.0325 117.141 26.9432 118.013C25.4181 119.247 24.0382 118.085 23.6025 117.649C22.731 116.56 22.9489 115.18 23.893 114.454L24.2561 114.164C24.4014 114.091 24.474 114.018 24.5466 114.164L24.7645 114.454C24.8371 114.599 24.8371 114.672 24.6918 114.744L24.474 114.89Z" fill="white"/>
<path d="M25.7086 106.175C26.58 105.594 27.742 105.884 28.323 106.828C28.9766 107.773 28.7587 109.007 27.8873 109.588L24.6918 111.694C23.8204 112.275 22.6584 111.912 22.0048 110.968C21.3512 110.024 21.5691 108.862 22.4405 108.281L23.9656 107.264C24.0382 107.192 24.1835 107.264 24.1835 107.337L25.8538 109.879L27.3789 108.862C27.8873 108.499 28.0325 107.773 27.6694 107.192C27.3063 106.611 26.58 106.465 25.9991 106.828L25.7812 106.974C25.6359 107.046 25.5633 106.974 25.5633 106.901L25.3455 106.538C25.2728 106.465 25.2728 106.393 25.4181 106.32L25.7086 106.175ZM24.4014 110.968L25.5633 110.169L24.1835 108.063L23.0215 108.862C22.5132 109.225 22.2953 109.951 22.731 110.532C23.0941 111.113 23.8204 111.331 24.4014 110.968Z" fill="white"/>
<path d="M18.882 100.873C17.9379 101.382 18.0832 102.181 18.301 102.616L18.3736 102.689C18.5915 103.125 19.0999 103.633 20.1166 103.125L24.6918 100.873C24.7645 100.873 24.9097 100.801 24.9823 100.946L25.2002 101.309C25.2728 101.382 25.2002 101.527 25.055 101.6L20.4797 103.851C19.463 104.359 19.6809 105.231 19.8987 105.594V105.666C20.1166 106.03 20.625 106.538 21.6417 106.102L26.2169 103.851C26.2896 103.851 26.4348 103.778 26.5074 103.924L26.7253 104.287C26.7979 104.432 26.7253 104.505 26.58 104.577L22.0048 106.828C20.5523 107.482 19.6809 106.683 19.3177 105.957V105.884C19.0272 105.376 18.9546 104.577 19.3904 103.924C18.5915 103.924 18.0832 103.415 17.8653 102.907V102.834C17.2843 101.672 17.6474 100.583 18.7368 100.002L23.312 97.7506C23.3846 97.7506 23.5299 97.678 23.6025 97.8232L23.8204 98.1863C23.893 98.2589 23.8204 98.4042 23.6751 98.4768L18.882 100.873Z" fill="white"/>
<path d="M14.9604 98.7674C15.1056 98.6948 15.1782 98.7674 15.1782 98.9126L15.3961 99.421C15.4687 99.5662 15.3961 99.6389 15.3235 99.7115L14.8877 99.8567C14.8151 99.9294 14.6699 99.8567 14.5973 99.7115L14.3794 99.1305C14.3068 98.9853 14.3794 98.9126 14.5246 98.84L14.9604 98.7674ZM16.4128 99.1305C16.3402 99.1305 16.195 99.1305 16.195 98.9853L16.0497 98.6222C15.9771 98.4769 16.0497 98.4043 16.1223 98.3317L22.5132 95.8625C22.6584 95.7899 22.731 95.8625 22.8037 96.0077L22.9489 96.3708C23.0215 96.5161 22.9489 96.5887 22.8037 96.6613L16.4128 99.1305Z" fill="white"/>
<path d="M18.882 91.7957C18.882 91.723 18.882 91.5778 19.0273 91.5778L19.3178 91.5052C20.2619 91.2147 21.3512 91.723 21.7143 92.885C22.0774 93.9744 21.5691 95.1363 20.625 95.4268L16.9938 96.5888C16.0497 96.8793 14.9604 96.2257 14.5973 95.2089C14.2342 94.1196 14.8151 93.0303 15.7592 92.7398L16.1224 92.5945C16.3402 92.5219 16.3402 92.5945 16.4128 92.6671L16.5581 93.0303C16.5581 93.1029 16.6307 93.2481 16.4128 93.3207L16.0497 93.466C15.4687 93.6839 15.1056 94.3375 15.3235 94.9911C15.5414 95.6447 16.195 96.0078 16.8486 95.8626L20.4071 94.7006C20.9881 94.4827 21.3512 93.8291 21.1333 93.1029C20.9155 92.4493 20.2619 92.0862 19.6083 92.304L19.3178 92.3766C19.1725 92.4493 19.0999 92.3766 19.0273 92.2314L18.882 91.7957Z" fill="white"/>
<path d="M18.2284 86.5667C19.2451 86.3489 20.1892 87.0751 20.4797 88.1644C20.6976 89.2538 20.1892 90.3431 19.1725 90.561L15.4687 91.4325C14.452 91.6503 13.4353 90.9241 13.2174 89.8348C12.9269 88.6728 13.5079 87.6561 14.5246 87.3656L18.2284 86.5667ZM15.2509 90.6336L18.9546 89.8348C19.6082 89.6895 19.9714 89.0359 19.8261 88.3823C19.6809 87.6561 19.0273 87.293 18.3737 87.4382L14.7425 88.2371C14.0889 88.3823 13.7258 89.0359 13.871 89.7621C14.0163 90.3431 14.6699 90.7789 15.2509 90.6336Z" fill="white"/>
<path d="M19.2451 81.6282C19.2451 81.7008 19.1725 81.8461 19.0999 81.8461L13.871 82.5723C13.2174 82.6449 12.709 83.1533 12.8543 83.9522C12.9269 84.6784 13.5079 85.1141 14.1615 85.0415L19.3904 84.3153C19.5356 84.3153 19.6082 84.3879 19.6082 84.4605L19.6809 84.8963C19.6809 84.9689 19.6082 85.1141 19.5356 85.1141L14.3068 85.8404C13.29 85.9856 12.3459 85.1867 12.1281 84.0248C11.9828 82.7176 12.709 81.8461 13.7258 81.7008L18.9546 80.9746C19.0999 80.9746 19.1725 81.0472 19.1725 81.1199L19.2451 81.6282Z" fill="white"/>
<path d="M17.2117 75.8911C18.2284 75.8185 19.0999 76.7626 19.0999 77.852C19.1725 79.0139 18.3736 79.958 17.3569 80.0306L13.5805 80.1759C12.5638 80.2485 11.6923 79.377 11.6923 78.2151C11.6923 77.7067 11.8376 77.271 12.1281 76.8352L9.44101 76.9805C9.29577 76.9805 9.22314 76.9079 9.22314 76.7626V76.3269C9.22314 76.1816 9.29577 76.109 9.44101 76.109L17.2117 75.8911ZM17.2843 79.2318C17.9379 79.2318 18.4463 78.6508 18.3736 77.9246C18.3736 77.1984 17.7927 76.69 17.1391 76.69L13.3627 76.8352C12.7817 76.9079 12.2733 77.4888 12.2733 78.1425C12.2733 78.8687 12.8543 79.377 13.5079 79.377L17.2843 79.2318Z" fill="white"/>
<path d="M12.0554 71.0979C11.9102 71.0979 11.8376 70.9527 11.8376 70.8801V70.4443C11.8376 70.3717 11.9102 70.2991 12.0554 70.2991L17.2843 70.5896C18.301 70.6622 19.1725 71.461 19.0999 72.7683C19.0272 73.9302 18.1558 74.8017 17.139 74.7291L11.9102 74.4386C11.7649 74.4386 11.6923 74.366 11.6923 74.2207V73.785C11.6923 73.7124 11.7649 73.6397 11.9102 73.6397L17.139 73.9302C17.7927 73.9302 18.3736 73.4945 18.4463 72.6956C18.5189 71.8968 17.9379 71.3884 17.2843 71.3884L12.0554 71.0979Z" fill="white"/>
<path d="M17.5022 65.4334C17.5022 65.3608 17.5748 65.2881 17.72 65.2881L18.0832 65.3608C19.0999 65.506 19.8261 66.4501 19.6082 67.6121C19.463 68.774 18.5189 69.5729 17.5022 69.4276L13.7258 68.9193C12.709 68.774 12.0554 67.7573 12.2007 66.5953C12.3459 65.4334 13.29 64.7072 14.3068 64.8524L14.6699 64.925C14.8877 64.925 14.8877 65.0703 14.8877 65.1429L14.8151 65.506C14.8151 65.5786 14.7425 65.7239 14.5972 65.7239L14.2341 65.6513C13.5805 65.5786 12.9995 66.0144 12.9269 66.668C12.8543 67.3942 13.29 67.9752 13.871 68.1204L17.5748 68.6288C18.2284 68.7014 18.8094 68.2657 18.882 67.5395C18.9546 66.8132 18.5189 66.2322 17.8653 66.1596L17.5748 66.087C17.4295 66.087 17.3569 65.9417 17.3569 65.8691L17.5022 65.4334Z" fill="white"/>
<path d="M20.3345 63.0368C20.1166 63.9083 19.6082 64.2714 18.7367 64.0536L13.7258 62.9642L13.5805 63.6178C13.5805 63.6904 13.5079 63.7631 13.3626 63.7631L13.0722 63.6904C12.9269 63.6904 12.9269 63.5452 12.9269 63.4726L13.0722 62.819L11.9102 62.6011C11.7649 62.6011 11.6923 62.4559 11.7649 62.3832V61.9475C11.7649 61.8749 11.9102 61.7296 11.9828 61.8023L13.29 62.0927L13.5079 61.0034C13.5079 60.9308 13.5805 60.8582 13.7258 60.8582L14.0163 60.9308C14.0889 60.9308 14.1615 61.0034 14.1615 61.1486L13.7984 62.238L18.8094 63.3273C19.2451 63.4 19.5356 63.2547 19.6082 62.819L19.6809 62.5285C19.6809 62.3832 19.8261 62.3832 19.8987 62.3832L20.2618 62.4559C20.3345 62.4559 20.4071 62.5285 20.4071 62.7464L20.3345 63.0368Z" fill="white"/>
<path d="M20.1166 57.227C21.1333 57.5175 21.6416 58.6069 21.2785 59.7688C20.988 60.8582 19.8987 61.5118 18.9546 61.2213L15.3234 60.132C14.3793 59.8415 13.7984 58.7521 14.1615 57.6628C14.452 56.5734 15.5413 55.9198 16.4854 56.1377L20.1166 57.227ZM15.5413 59.4057L19.1725 60.4224C19.7535 60.5677 20.4797 60.2046 20.6249 59.551C20.8428 58.8974 20.4797 58.1711 19.8261 58.0259L16.1949 57.0092C15.6139 56.8639 14.8877 57.227 14.7425 57.8806C14.5972 58.5342 14.9603 59.1879 15.5413 59.4057Z" fill="white"/>
<path d="M16.7759 51.4897C16.9212 51.5624 16.9212 51.7076 16.8486 51.8528C16.7759 52.0707 16.7033 52.216 16.6307 52.4338C16.3402 53.3053 16.7759 53.9589 17.4295 54.2494L22.15 55.9924C22.2953 56.065 22.2953 56.2102 22.2953 56.2829L22.15 56.646C22.15 56.7186 22.0048 56.7912 21.8596 56.7186L17.0664 54.903C15.7592 54.3947 15.614 53.0148 15.9045 52.216C15.9771 51.9255 16.1223 51.635 16.195 51.4897C16.2676 51.3445 16.3402 51.3445 16.4854 51.3445L16.7759 51.4897Z" fill="white"/>
<path d="M25.5633 45.7526L26.7253 46.3336C26.7979 46.4062 26.9432 46.4788 26.8705 46.6241L26.6527 46.9872C26.5801 47.0598 26.5074 47.1324 26.2896 47.0598L25.055 46.4062C23.312 45.4621 22.2953 45.9705 21.5691 47.2777L21.3512 47.7134L24.9823 49.6742C25.1276 49.7469 25.1276 49.8195 25.055 49.9647L24.8371 50.3279C24.7645 50.4731 24.6919 50.4731 24.5466 50.4005L16.3402 45.9705C16.195 45.8978 16.195 45.7526 16.2676 45.68L17.2843 43.7192C17.9379 42.4846 19.2451 42.1214 20.4071 42.7024L21.2059 43.1382C22.0774 43.6465 22.4405 44.4454 22.2227 45.3895C23.0941 44.8811 24.1109 44.9537 25.5633 45.7526ZM20.044 43.5013C19.2451 43.0655 18.3737 43.2834 17.9379 44.1549L17.2117 45.5347L20.7702 47.4229L21.4238 46.1883C22.0048 45.1716 21.7143 44.3728 20.9155 43.937L20.044 43.5013Z" fill="white"/>
<path d="M28.3956 41.032C29.2671 41.613 29.485 42.775 28.8314 43.7191C28.1778 44.6632 27.0158 44.9536 26.1443 44.3727L23.0215 42.2666C22.1501 41.6856 22.0048 40.451 22.6584 39.5069C23.312 38.5628 24.474 38.2723 25.2728 38.8533L26.7979 39.87C26.8706 39.9427 26.8706 40.0153 26.8706 40.0879L25.1276 42.6297L26.6527 43.6464C27.161 44.0095 27.9599 43.8643 28.323 43.2107C28.7588 42.6297 28.5409 41.9035 28.0325 41.5404L27.8147 41.3951C27.6694 41.3225 27.742 41.1772 27.742 41.1772L27.9599 40.8141C28.0325 40.7415 28.0325 40.6689 28.1778 40.8141L28.3956 41.032ZM23.4573 41.6856L24.6192 42.4845L25.9991 40.451L24.8371 39.6522C24.3288 39.289 23.6025 39.4343 23.1668 40.0153C22.8037 40.5236 22.8763 41.3225 23.4573 41.6856Z" fill="white"/>
<path d="M28.0325 35.4401C27.5241 35.0043 26.7979 35.1496 26.3622 35.6579C25.9264 36.2389 25.9991 36.8925 26.5074 37.3283C27.0158 37.764 27.3789 37.6188 28.4682 37.183C29.485 36.8199 30.5743 36.3842 31.5184 37.1104C32.3173 37.764 32.4625 38.926 31.6636 39.8701C30.7922 40.9594 29.7028 40.9594 28.904 40.3784L28.7587 40.2332C28.6861 40.1606 28.6135 40.0153 28.7587 39.9427L28.9766 39.6522C29.0492 39.5796 29.1218 39.5796 29.2671 39.6522L29.485 39.7975C29.9933 40.2332 30.7195 40.0879 31.1553 39.507C31.591 38.926 31.5184 38.1997 31.01 37.764C30.5017 37.3283 29.7754 37.5461 28.4682 38.0545C27.6694 38.345 26.7979 38.5629 25.9991 37.9819C25.2002 37.3283 25.055 36.1663 25.7812 35.2948C26.5074 34.3507 27.6694 34.2055 28.4682 34.8591L28.6861 35.0043C28.7587 35.077 28.7587 35.1496 28.6861 35.2948L28.4682 35.5853C28.3956 35.6579 28.323 35.6579 28.1777 35.5853L28.0325 35.4401Z" fill="white"/>
<path d="M34.8591 33.4794C35.5853 34.2056 35.6579 35.3676 34.8591 36.1664C34.0602 36.9653 32.8256 37.1105 32.0994 36.3843L29.3397 33.7699C28.6135 33.0436 28.6135 31.809 29.4123 31.0102C30.2112 30.1387 31.3732 30.1387 32.0994 30.7923L33.4066 32.0269C33.4792 32.0995 33.4792 32.1722 33.4066 32.2448L31.3005 34.4961L32.6078 35.7307C33.0435 36.1664 33.8423 36.0938 34.3507 35.5854C34.8591 35.0771 34.7864 34.3508 34.3507 33.9151L34.1328 33.8425C34.0602 33.7699 34.0602 33.6246 34.1328 33.552L34.4233 33.2615C34.496 33.1889 34.5686 33.1163 34.7138 33.2615L34.8591 33.4794ZM29.9207 33.2615L30.9374 34.2056L32.6804 32.39L31.6637 31.4459C31.2279 31.0102 30.5017 31.0102 29.9933 31.5185C29.4123 32.0269 29.4123 32.8258 29.9207 33.2615Z" fill="white"/>
<path d="M36.3841 28.6862L35.6579 27.8874C35.3674 27.5242 34.5686 27.1611 33.7697 27.8147C33.2614 28.2505 33.1887 28.6862 33.1161 29.0493C33.1161 29.1219 33.0435 29.1946 33.0435 29.1946C33.0435 29.1946 32.9709 29.2672 32.8982 29.2672L32.6804 29.1219C32.6077 29.1219 32.5351 28.9767 32.5351 28.8315C32.6077 28.3957 32.6804 27.8147 33.4066 27.2337C34.3507 26.3623 35.5853 26.5801 36.2389 27.3064L38.7081 30.066C39.6522 31.0828 38.926 32.3174 38.4176 32.8257C37.6914 33.4793 36.3115 33.8424 35.3674 32.7531L35.2222 32.6078C34.3507 31.5911 34.4233 30.3565 35.5127 29.4124L36.3841 28.6862ZM36.7473 29.1219L36.0937 29.7029C35.0769 30.647 35.2222 31.4459 35.8032 32.0995L35.9484 32.2447C36.6746 33.0436 37.5461 32.7531 37.9092 32.39C38.2723 32.0269 38.6355 31.3006 38.0545 30.647L36.7473 29.1219Z" fill="white"/>
<path d="M38.9986 23.4574C39.0712 23.6026 38.9986 23.6752 38.8533 23.7479C38.7081 23.8931 38.5628 23.9657 38.345 24.111C37.6187 24.6193 37.6187 25.4908 38.0545 26.0718L41.1046 30.0661C41.1773 30.2113 41.1046 30.3566 41.032 30.3566L40.6689 30.5744C40.5963 30.6471 40.451 30.6471 40.3784 30.5018L37.3282 26.4349C36.4568 25.3456 37.1104 24.111 37.764 23.53C37.9818 23.3848 38.2723 23.1669 38.4176 23.0943C38.5628 23.0216 38.6355 23.0216 38.7081 23.0943L38.9986 23.4574Z" fill="white"/>
<path d="M45.462 24.6192C45.5346 24.5465 45.6073 24.5465 45.7525 24.6918L45.9704 24.9823C46.5514 25.8537 46.2609 27.0157 45.3168 27.5967C44.3727 28.1777 43.1381 28.0324 42.5571 27.161L40.5237 23.9655C39.9427 23.0941 40.3058 21.9321 41.2499 21.2785C42.194 20.6249 43.356 20.9154 43.9369 21.7142L44.1548 22.0047C44.2274 22.15 44.2274 22.2226 44.1548 22.2952L43.8643 22.5131C43.7917 22.5857 43.6464 22.5857 43.5738 22.4405L43.356 22.15C42.9928 21.6416 42.2666 21.4237 41.6856 21.8595C41.1046 22.2226 40.8868 23.0215 41.2499 23.5298L43.2833 26.7252C43.6464 27.2336 44.3727 27.3788 44.9537 27.0157C45.5346 26.6526 45.6799 25.9264 45.3168 25.3454L45.1715 25.0549C45.0989 24.9096 45.1715 24.837 45.2442 24.7644L45.462 24.6192Z" fill="white"/>
<path d="M51.2719 23.893C51.3445 24.0383 51.2719 24.1109 51.1993 24.1835L50.8361 24.3288C50.7635 24.3288 50.6183 24.3288 50.6183 24.2561L48.1491 19.5356C47.8586 19.0273 47.1324 18.7368 46.4788 19.0999C45.8252 19.463 45.6073 20.1892 45.9704 20.8429L48.367 25.4181C48.4396 25.4907 48.4396 25.636 48.2943 25.7086L47.9312 25.9265C47.786 25.9991 47.7134 25.9265 47.6407 25.8538L43.2833 17.5748C43.2107 17.5022 43.2833 17.3569 43.356 17.2843L43.7191 17.0665C43.8643 16.9938 43.937 17.0665 44.0096 17.1391L45.3168 19.6083C45.462 19.0999 45.8252 18.6642 46.3335 18.4463C47.3502 17.9379 48.4396 18.301 48.8753 19.2451L51.2719 23.893Z" fill="white"/>
<path d="M53.3779 22.8763C53.4506 23.0216 53.3779 23.0942 53.3053 23.1668L52.7243 23.4573C52.6517 23.5299 52.5065 23.4573 52.4338 23.3121L52.216 22.8037C52.1433 22.6585 52.216 22.5132 52.2886 22.5132L52.8696 22.2953C53.0148 22.2227 53.0874 22.2953 53.1601 22.4406L53.3779 22.8763Z" fill="white"/>
</g>
<defs>
<clipPath id="clip0_221_10822">
<rect width="152" height="152" fill="white"/>
</clipPath>
</defs>
</svg>
