<svg width="80" height="32" viewBox="0 0 80 32" fill="none" xmlns="http://www.w3.org/2000/svg">
<g id="&#235;&#161;&#156;&#234;&#179;&#160;">
<path id="Vector" d="M12.3198 24.829V30.4719C12.3198 30.8952 12.1623 31.4124 11.7212 31.4124H8.69634C8.31824 31.4124 7.97164 31.0833 7.97164 30.4249V25.4873C7.97164 21.6313 7.15242 18.9509 4.28515 18.8098V30.519C4.28515 31.0362 4.12761 31.3654 3.78102 31.3654H0.567152C0.189051 31.3654 0 31.0362 0 30.519V1.31666C0 0.799387 0.189051 0.470215 0.567152 0.470215H3.78102C4.15912 0.470215 4.31666 0.799387 4.31666 1.36368V13.2139C6.99488 12.8847 7.78259 10.2984 7.78259 6.53639V1.50476C7.78259 0.846412 8.12918 0.470215 8.50729 0.470215H11.5006C11.9417 0.470215 12.0993 1.03451 12.0993 1.41071V7.14771C12.0993 10.9567 11.091 13.8722 9.38952 15.8473C11.2485 17.8223 12.3198 20.8319 12.3198 24.829Z" fill="#282829"/>
<path id="Vector_2" d="M18.18 19.139C18.18 19.7503 17.8334 19.9384 17.6759 19.9384H14.6826C14.525 19.9384 14.21 19.7973 14.21 19.139V15.5181C14.21 14.9538 14.462 14.6716 14.6826 14.6716H17.6759C18.0855 14.6716 18.18 15.1419 18.18 15.5181V19.139Z" fill="#282829"/>
<path id="Vector_3" d="M31.9182 10.0162C31.9182 10.7216 31.8237 11.0038 31.4141 11.0038H28.3893C28.0111 11.0038 27.8851 10.7216 27.8851 10.1103V8.04121C27.8851 6.72452 27.2865 5.36081 26.2152 5.36081C25.1754 5.36081 24.4507 6.58345 24.4507 7.99419V23.7945C24.4507 25.2052 25.1124 26.4749 26.2152 26.4749C27.4125 26.4749 27.9796 25.1582 27.9796 23.7945V21.1141C27.9796 20.4557 28.1057 20.2206 28.4523 20.2206H31.4771C31.8552 20.2206 32.0127 20.3617 32.0127 21.067V24.1236C32.0127 28.9672 29.429 31.8827 26.1837 31.8827C22.9383 31.8827 20.134 28.9672 20.134 24.1236V7.75907C20.134 3.33875 22.6547 0 26.1837 0C30.1222 0 31.9182 3.95007 31.9182 7.85312V10.0162Z" fill="#282829"/>
<path id="Vector_4" d="M45.4667 0.470364C45.7503 0.470364 46.0024 0.658463 46.0024 1.31681V30.5191C46.0024 31.0364 45.8448 31.3656 45.4037 31.3656H42.2214C41.8748 31.3656 41.6857 31.0364 41.6857 30.5191V18.2457H38.1253V30.5191C38.1253 31.0364 37.9677 31.3656 37.5896 31.3656H34.3442C33.9661 31.3656 33.8086 31.0364 33.8086 30.5191V1.31681C33.8086 0.799537 33.9976 0.42334 34.3442 0.42334H37.5896C37.9677 0.42334 38.1253 0.752512 38.1253 1.31681V12.8378H41.6857V1.31681C41.6857 0.846562 41.8748 0.42334 42.2214 0.42334H45.4667V0.470364Z" fill="#282829"/>
<path id="Vector_5" d="M52.6506 30.5191C52.6506 31.0364 52.4931 31.3656 52.115 31.3656H48.8696C48.4915 31.3656 48.334 31.0364 48.334 30.5191V1.31681C48.334 0.799537 48.523 0.42334 48.8696 0.42334H52.115C52.4931 0.42334 52.6506 0.752512 52.6506 1.31681V30.5191Z" fill="#282829"/>
<path id="Vector_6" d="M55.0127 1.31681C55.0127 0.799537 55.2333 0.42334 55.5483 0.42334H61.2829C64.6228 0.42334 67.1435 3.95019 67.1435 8.41753V15.5653C67.1435 20.0326 64.6228 23.6535 61.2829 23.6535H59.3294V30.4721C59.3294 30.9894 59.1718 31.3185 58.7937 31.3185H55.5798C55.2017 31.3185 55.0442 30.9894 55.0442 30.4721V1.31681H55.0127ZM62.8268 8.60563C62.8268 7.00679 62.0706 5.92522 60.9678 5.92522H59.3609V18.3397H60.9993C62.1336 18.3397 62.8583 17.2111 62.8583 15.7063V8.60563H62.8268Z" fill="#282829"/>
<path id="Vector_7" d="M75.6838 8.18229C75.6838 6.63047 75.0852 5.36081 73.9194 5.36081C73.1002 5.36081 72.1549 6.16023 72.1549 8.18229C72.1549 10.2984 73.1002 11.2859 74.5495 12.7907C77.5744 16.0354 80.0005 18.4807 80.0005 24.1236C80.0005 28.3088 77.6059 31.8827 74.0139 31.8827C70.1068 31.8827 68.1533 28.0737 68.1533 23.8885V22.7129C68.1533 21.9605 68.2478 21.6313 68.689 21.6313H71.6508C72.0919 21.6313 72.2179 21.8665 72.2179 22.5248V23.5123C72.2179 25.7225 73.2262 26.4749 74.0769 26.4749C75.0852 26.4749 75.9359 25.4403 75.9359 23.7945C75.9359 21.6313 75.0852 20.6438 73.1001 18.3866C69.6972 14.5776 68.1848 13.1199 68.1848 7.99419C68.1848 2.21016 71.6823 0 73.9509 0C77.3223 0 79.7169 3.19768 79.7169 8.13526V9.40493C79.7169 10.0162 79.5909 10.2514 79.0868 10.2514H76.188C75.7784 10.2514 75.7154 10.0162 75.7154 9.40493V8.18229H75.6838Z" fill="#282829"/>
</g>
</svg>
