<svg width="323" height="1671" viewBox="0 0 323 1671" fill="none" xmlns="http://www.w3.org/2000/svg">
<path d="M160 159L250.51 196.49L288 287L250.51 377.51L160 415L69.4903 377.51L32 287L69.4903 196.49L160 159Z" fill="#B9DDF8"/>
<line x1="159.5" y1="1627" x2="159.5" y2="10" stroke="#39A3ED"/>
<rect x="0.5" y="0.5" width="319" height="59" rx="11.5" fill="#E2F2FC" stroke="#0094EA"/>
<rect x="0.5" y="68.5" width="319" height="59" rx="11.5" fill="#E2F2FC" stroke="#0094EA"/>
<path d="M113.223 24.4863C113.205 26.5693 114.523 28.5645 117.02 29.373L116 30.9199C114.242 30.3223 112.985 29.127 112.291 27.5977C111.588 29.2852 110.278 30.6035 108.424 31.2539L107.334 29.707C109.944 28.8545 111.254 26.7275 111.254 24.4688V22.6582H113.223V24.4863ZM109.883 37.248V32.2031H111.887V35.666H120.693V37.248H109.883ZM118.109 33.3457V21.6738H120.061V26.3672H122.275V28.0195H120.061V33.3457H118.109ZM127.136 22.377C129.193 22.3682 130.81 23.5547 131.205 25.2949H134.079V21.6738H136.031V30.1992H134.079V26.877H131.223C130.845 28.6611 129.21 29.8652 127.136 29.8652C124.702 29.8652 122.935 28.3008 122.935 26.1035C122.935 23.9326 124.702 22.3682 127.136 22.377ZM124.798 26.1035C124.798 27.3779 125.765 28.2217 127.136 28.2129C128.472 28.2217 129.43 27.3779 129.439 26.1035C129.43 24.8291 128.472 24.0029 127.136 24.0117C125.765 24.0029 124.798 24.8291 124.798 26.1035ZM125.554 37.3711V30.9375H127.488V32.625H134.079V30.9375H136.031V37.3711H125.554ZM127.488 35.7891H134.079V34.1367H127.488V35.7891ZM152.405 29.9355V31.4824H137.885V29.9355H144.161V28.7578H139.749V22.0957H150.665V23.6074H141.7V24.6973H150.278V26.1387H141.7V27.2637H150.788V28.7578H146.112V29.9355H152.405ZM139.608 34.9453C139.608 33.2842 141.603 32.3525 145.145 32.3613C148.634 32.3525 150.638 33.2842 150.647 34.9453C150.638 36.6504 148.634 37.5469 145.145 37.5469C141.603 37.5469 139.608 36.6504 139.608 34.9453ZM141.559 34.9453C141.559 35.7188 142.755 36.0879 145.145 36.0879C147.492 36.0879 148.678 35.7188 148.696 34.9453C148.678 34.1895 147.492 33.8203 145.145 33.8203C142.755 33.8203 141.559 34.1895 141.559 34.9453ZM158.742 24.2051C158.742 26.2002 160.034 28.0898 162.486 28.8633L161.432 30.3926C159.718 29.8125 158.487 28.6523 157.793 27.1758C157.107 28.8633 155.824 30.1904 153.996 30.832L152.941 29.3027C155.499 28.415 156.782 26.2969 156.791 24.0293V22.5176H158.742V24.2051ZM155.104 34.5234C155.104 32.6426 157.169 31.5264 160.482 31.5352C163.77 31.5264 165.8 32.6426 165.809 34.5234C165.8 36.4482 163.77 37.5469 160.482 37.5469C157.169 37.5469 155.104 36.4482 155.104 34.5234ZM157.055 34.5234C157.055 35.5078 158.303 36 160.482 36C162.653 36 163.875 35.5078 163.875 34.5234C163.875 33.5918 162.653 33.0645 160.482 33.0645C158.303 33.0645 157.055 33.5918 157.055 34.5234ZM163.699 31.1836V21.6738H165.65V25.541H167.865V27.1582H165.65V31.1836H163.699ZM174.009 26.1914C174 28.6436 175.477 31.4385 177.982 32.6074L176.892 34.1543C175.099 33.3105 173.772 31.6055 173.06 29.6191C172.339 31.7988 170.951 33.6621 169.123 34.541L167.98 33.0117C170.511 31.8076 172.049 28.8369 172.058 26.1914V24.8555H168.595V23.2383H177.331V24.8555H174.009V26.1914ZM178.808 37.5645V21.6738H180.759V27.8613H183.203V29.4961H180.759V37.5645H178.808ZM196.835 21.6914V33.7148H194.866V32.3262H191.755V30.9551H194.866V21.6914H196.835ZM183.44 28.8281C186.367 28.8105 190.313 28.7842 193.688 28.3535L193.794 29.7598C192.484 29.9795 191.131 30.1201 189.786 30.2168V33.2754H187.835V30.3223C186.349 30.3838 184.934 30.3926 183.686 30.3926L183.44 28.8281ZM184.653 25.084C184.653 23.4053 186.27 22.2627 188.626 22.2715C190.937 22.2627 192.563 23.4053 192.581 25.084C192.563 26.7891 190.937 27.8701 188.626 27.8789C186.27 27.8701 184.653 26.7891 184.653 25.084ZM185.55 37.248V32.5547H187.501V35.666H197.204V37.248H185.55ZM186.499 25.084C186.499 25.9453 187.351 26.4463 188.626 26.4551C189.839 26.4463 190.709 25.9453 190.718 25.084C190.709 24.2227 189.839 23.7041 188.626 23.7129C187.351 23.7041 186.499 24.2227 186.499 25.084ZM213.209 30.9199V32.4668H206.881V37.5645H204.947V32.4668H198.69V30.9199H213.209ZM200.447 29.2676V22.3066H202.381V24.2578H209.483V22.3066H211.451V29.2676H200.447ZM202.381 27.6855H209.483V25.8047H202.381V27.6855Z" fill="#0094EA"/>
<path d="M89.0605 89.6914V94.6836H91.2754V96.3008H89.0605V101.557H87.1094V89.6914H89.0605ZM76.5449 93.0137V91.4492H80.2891V89.6738H82.2402V91.4492H85.9668V93.0137H76.5449ZM77.3535 96.7051C77.3535 94.877 78.9443 93.6641 81.2559 93.6641C83.5498 93.6641 85.1318 94.877 85.1406 96.7051C85.1318 98.5244 83.5498 99.7109 81.2559 99.7109C78.9443 99.7109 77.3535 98.5244 77.3535 96.7051ZM78.8828 105.248V100.625H80.834V103.666H89.6934V105.248H78.8828ZM79.252 96.7051C79.2432 97.6631 80.0518 98.208 81.2559 98.1992C82.46 98.208 83.2773 97.6631 83.2773 96.7051C83.2773 95.7383 82.46 95.1758 81.2559 95.1758C80.0518 95.1758 79.2432 95.7383 79.252 96.7051ZM104.468 90.3945V91.6074C104.477 92.7852 104.477 94.1562 104.125 95.9316H106.244V97.5137H99.933V99.9922H104.503V105.564H102.552V101.557H93.2005V99.9922H97.9818V97.5137H91.724V95.9316H102.165C102.482 94.2969 102.517 93.0576 102.517 91.959H93.517V90.3945H104.468ZM112.616 92.4863C112.598 94.5693 113.917 96.5645 116.413 97.373L115.393 98.9199C113.635 98.3223 112.379 97.127 111.684 95.5977C110.981 97.2852 109.672 98.6035 107.817 99.2539L106.727 97.707C109.338 96.8545 110.647 94.7275 110.647 92.4688V90.6582H112.616V92.4863ZM109.276 105.248V100.203H111.28V103.666H120.087V105.248H109.276ZM117.503 101.346V89.6738H119.454V94.3672H121.669V96.0195H119.454V101.346H117.503ZM126.529 90.377C128.586 90.3682 130.203 91.5547 130.599 93.2949H133.473V89.6738H135.424V98.1992H133.473V94.877H130.616C130.238 96.6611 128.604 97.8652 126.529 97.8652C124.095 97.8652 122.328 96.3008 122.328 94.1035C122.328 91.9326 124.095 90.3682 126.529 90.377ZM124.191 94.1035C124.191 95.3779 125.158 96.2217 126.529 96.2129C127.865 96.2217 128.823 95.3779 128.832 94.1035C128.823 92.8291 127.865 92.0029 126.529 92.0117C125.158 92.0029 124.191 92.8291 124.191 94.1035ZM124.947 105.371V98.9375H126.881V100.625H133.473V98.9375H135.424V105.371H124.947ZM126.881 103.789H133.473V102.137H126.881V103.789ZM150.585 89.6738V105.564H148.617V89.6738H150.585ZM137.419 101.188C141.585 99.21 143.501 96.5205 143.853 92.9082H138.228V91.3613H145.839C145.839 96.0898 144.002 100.106 138.439 102.752L137.419 101.188ZM160.755 90.1836C160.755 91.8799 162.926 93.4268 166.239 93.7871L165.589 95.2637C162.89 94.9561 160.755 93.8838 159.735 92.3369C158.716 93.8838 156.58 94.9561 153.917 95.2637L153.249 93.7871C156.58 93.4268 158.742 91.8799 158.751 90.1836V89.7617H160.755V90.1836ZM152.511 97.6016V96.0547H166.995V97.6016H160.702V98.832H165.184V102.77H156.149V103.93H165.624V105.424H154.233V101.363H163.268V100.326H154.216V98.832H158.751V97.6016H152.511ZM176.584 90.7812V92.3633H175.178V96.8721C175.758 96.8281 176.338 96.7754 176.883 96.7051V95.2812H179.063V93.9102H176.883V92.3457H179.063V89.6738H181.014V99.4121H179.063V96.8457H176.927L177.006 98.1465C173.974 98.6475 170.467 98.7002 167.936 98.709L167.725 97.0918C168.278 97.0918 168.885 97.0918 169.518 97.083V92.3633H168.129V90.7812H176.584ZM170.238 102.629C170.221 100.757 172.269 99.6934 175.635 99.6934C179.027 99.6934 181.058 100.757 181.067 102.629C181.058 104.457 179.027 105.547 175.635 105.547C172.269 105.547 170.221 104.457 170.238 102.629ZM171.416 97.0566C172.031 97.0391 172.664 97.0127 173.297 96.9863V92.3633H171.416V97.0566ZM172.172 102.629C172.163 103.552 173.411 104.035 175.635 104.035C177.867 104.035 179.115 103.552 179.115 102.629C179.115 101.688 177.867 101.188 175.635 101.188C173.411 101.188 172.163 101.688 172.172 102.629ZM195.349 89.6738V95.8789H197.705V97.5137H195.349V105.529H193.398V89.6738H195.349ZM182.816 101.188C186.683 99.2539 188.775 96.5645 189.162 92.9434H183.677V91.3262H191.148C191.139 95.9932 189.206 100.098 183.923 102.699L182.816 101.188ZM206.977 90.8516V91.8008C206.96 92.8818 206.96 94.4639 206.591 96.4766L204.657 96.3008C204.974 94.666 205.035 93.4443 205.053 92.4688H198.874V90.8516H206.977ZM197.925 97.7422C198.865 97.7334 199.92 97.7246 201.036 97.707V94.4727H202.97V97.6455C204.613 97.5752 206.301 97.4521 207.839 97.2324L207.944 98.6387C204.64 99.2363 200.887 99.2979 198.1 99.3066L197.925 97.7422ZM200.298 105.248V100.52H202.266V103.666H211.284V105.248H200.298ZM208.77 101.574V89.6738H210.774V94.6309H212.831V96.2656H210.774V101.574H208.77ZM226.533 89.6738V105.582H224.6V89.6738H226.533ZM214.158 92.6445V91.0625H221.647V97.0215H216.18V100.221C218.685 100.203 220.838 100.071 223.317 99.6582L223.492 101.258C220.794 101.724 218.421 101.829 215.565 101.82H214.176V95.4746H219.66V92.6445H214.158ZM241.818 89.6914V101.715H239.849V100.326H236.738V98.9551H239.849V89.6914H241.818ZM228.423 96.8281C231.35 96.8105 235.296 96.7842 238.671 96.3535L238.777 97.7598C237.467 97.9795 236.114 98.1201 234.769 98.2168V101.275H232.818V98.3223C231.333 98.3838 229.918 98.3926 228.67 98.3926L228.423 96.8281ZM229.636 93.084C229.636 91.4053 231.254 90.2627 233.609 90.2715C235.921 90.2627 237.546 91.4053 237.564 93.084C237.546 94.7891 235.921 95.8701 233.609 95.8789C231.254 95.8701 229.636 94.7891 229.636 93.084ZM230.533 105.248V100.555H232.484V103.666H242.187V105.248H230.533ZM231.482 93.084C231.482 93.9453 232.335 94.4463 233.609 94.4551C234.822 94.4463 235.692 93.9453 235.701 93.084C235.692 92.2227 234.822 91.7041 233.609 91.7129C232.335 91.7041 231.482 92.2227 231.482 93.084Z" fill="#0094EA"/>
<rect x="0.5" y="447.5" width="319" height="87" rx="11.5" fill="white" stroke="#0094EA"/>
<path d="M137.358 474.531V476.096H131.223V479.014H129.237V476.096H122.838V474.531H137.358ZM124.385 470.277C124.376 468.282 126.661 467.025 130.08 467.025C133.517 467.025 135.776 468.282 135.776 470.277C135.776 472.281 133.517 473.521 130.08 473.512C126.661 473.521 124.376 472.281 124.385 470.277ZM124.614 482.248V477.537H126.582V480.648H135.758V482.248H124.614ZM126.494 470.277C126.477 471.332 127.901 471.947 130.08 471.947C132.278 471.947 133.693 471.332 133.684 470.277C133.693 469.188 132.278 468.572 130.08 468.572C127.901 468.572 126.477 469.188 126.494 470.277ZM142.464 467.57C143.748 467.562 144.864 468.036 145.611 468.836H149.408V466.674H151.359V476.025H149.408V474.004H145.602C144.846 474.786 143.739 475.261 142.464 475.252C140.065 475.261 138.263 473.652 138.263 471.42C138.263 469.17 140.065 467.562 142.464 467.57ZM140.127 471.42C140.127 472.721 141.102 473.6 142.464 473.6C143.783 473.6 144.758 472.721 144.767 471.42C144.758 470.075 143.783 469.24 142.464 469.24C141.102 469.24 140.127 470.075 140.127 471.42ZM140.584 479.453C140.566 477.493 142.649 476.351 145.98 476.359C149.32 476.351 151.403 477.493 151.412 479.453C151.403 481.404 149.32 482.547 145.98 482.547C142.649 482.547 140.566 481.404 140.584 479.453ZM142.5 479.453C142.482 480.464 143.774 481.009 145.98 481.018C148.23 481.009 149.496 480.464 149.496 479.453C149.496 478.416 148.23 477.862 145.98 477.854C143.774 477.862 142.482 478.416 142.5 479.453ZM146.49 470.4C146.578 470.726 146.631 471.06 146.631 471.42C146.631 471.771 146.578 472.105 146.499 472.422H149.408V470.4H146.49ZM158.435 467.377C160.852 467.368 162.601 468.722 162.601 470.717C162.601 472.677 160.852 474.048 158.435 474.039C156.044 474.048 154.304 472.677 154.304 470.717C154.304 468.722 156.044 467.368 158.435 467.377ZM153.267 475.129C156.132 475.129 160.148 475.076 163.567 474.566L163.708 476.008C162.337 476.271 160.913 476.438 159.524 476.544V482.072H157.556V476.658C156.088 476.72 154.708 476.737 153.513 476.746L153.267 475.129ZM156.202 470.717C156.193 471.78 157.134 472.448 158.435 472.439C159.788 472.448 160.737 471.78 160.737 470.717C160.737 469.618 159.788 468.941 158.435 468.959C157.134 468.941 156.193 469.618 156.202 470.717ZM164.604 482.547V466.691H166.538V482.547H164.604ZM181.77 466.691V478.715H179.801V477.326H176.69V475.955H179.801V466.691H181.77ZM168.375 473.828C171.302 473.811 175.248 473.784 178.623 473.354L178.729 474.76C177.419 474.979 176.066 475.12 174.721 475.217V478.275H172.77V475.322C171.285 475.384 169.869 475.393 168.621 475.393L168.375 473.828ZM169.588 470.084C169.588 468.405 171.205 467.263 173.561 467.271C175.872 467.263 177.498 468.405 177.516 470.084C177.498 471.789 175.872 472.87 173.561 472.879C171.205 472.87 169.588 471.789 169.588 470.084ZM170.485 482.248V477.555H172.436V480.666H182.139V482.248H170.485ZM171.434 470.084C171.434 470.945 172.286 471.446 173.561 471.455C174.774 471.446 175.644 470.945 175.653 470.084C175.644 469.223 174.774 468.704 173.561 468.713C172.286 468.704 171.434 469.223 171.434 470.084ZM196.879 466.674V482.564H194.927V466.674H196.879ZM183.713 478.152C184.978 478.144 186.411 478.144 187.914 478.1V476.641C186.13 476.359 184.961 475.27 184.961 473.758C184.961 471.965 186.551 470.778 188.863 470.77C191.201 470.778 192.818 471.965 192.818 473.758C192.818 475.261 191.649 476.342 189.865 476.632V478.029C191.262 477.968 192.669 477.854 193.996 477.678L194.136 479.137C190.647 479.726 186.85 479.77 183.994 479.77L183.713 478.152ZM184.047 470.049V468.502H187.914V466.727H189.865V468.502H193.715V470.049H184.047ZM186.824 473.758C186.806 474.672 187.659 475.208 188.863 475.199C190.102 475.208 190.946 474.672 190.937 473.758C190.946 472.835 190.102 472.272 188.863 472.264C187.659 472.272 186.806 472.835 186.824 473.758ZM85.6812 504.148C85.6988 500.835 86.5952 498.075 88.2124 495.729H89.5484C88.3618 497.46 87.2544 501.02 87.2456 504.148C87.2544 507.286 88.3618 510.837 89.5484 512.586H88.2124C86.5952 510.23 85.6988 507.471 85.6812 504.148ZM103.831 494.797V510.424H102.477V502.25H100.315V509.65H98.997V495.219H100.315V501.107H102.477V494.797H103.831ZM90.5067 506.1C94.1366 504.069 95.6307 501.213 95.8681 497.979H91.1044V496.836H97.2216C97.204 500.809 95.8065 504.562 91.3153 507.066L90.5067 506.1ZM107.707 495.465V497.715H112.26V495.465H113.631V502.268H106.354V495.465H107.707ZM107.707 501.143H112.26V498.787H107.707V501.143ZM107.936 504.729V503.621H117.903V507.4H109.324V509.123H118.483V510.248H107.971V506.346H116.531V504.729H107.936ZM116.531 502.883V494.797H117.903V498.189H120.258V499.35H117.903V502.883H116.531ZM133.802 494.797V510.424H132.414V494.797H133.802ZM121.076 506.363C125.303 504.359 127.465 501.362 127.773 497.627H121.796V496.502H129.179C129.162 500.993 127.07 504.975 121.832 507.488L121.076 506.363ZM143.919 495.482C143.91 497.425 146.731 498.919 149.544 499.262L149.052 500.316C146.591 499.982 144.183 498.884 143.198 497.196C142.196 498.884 139.779 499.982 137.345 500.316L136.87 499.262C139.674 498.919 142.495 497.425 142.495 495.482V494.885H143.919V495.482ZM136.079 502.461V501.336H150.317V502.461H143.866V504.025H148.489V507.576H139.208V509.158H148.964V510.248H137.837V506.539H147.136V505.115H137.802V504.025H142.495V502.461H136.079ZM163.475 494.797V498.805H165.813V499.982H163.475V504.025H162.086V494.797H163.475ZM151.205 502.619C152.453 502.619 153.912 502.619 155.442 502.575V501.608C153.605 501.459 152.445 500.729 152.453 499.543C152.445 498.26 153.886 497.513 156.11 497.521C158.333 497.513 159.766 498.26 159.784 499.543C159.766 500.721 158.632 501.45 156.813 501.608V502.522C158.272 502.452 159.748 502.338 161.119 502.145L161.243 503.076C157.868 503.63 154.115 503.656 151.364 503.656L151.205 502.619ZM151.592 496.994V495.992H155.442V494.656H156.813V495.992H160.645V496.994H151.592ZM153.297 505.713V504.729H163.475V507.875H154.703V509.264H164.073V510.248H153.332V506.943H162.104V505.713H153.297ZM153.772 499.543C153.763 500.246 154.668 500.694 156.11 500.703C157.551 500.694 158.465 500.246 158.465 499.543C158.465 498.857 157.551 498.444 156.11 498.436C154.668 498.444 153.763 498.857 153.772 499.543ZM180.711 502.531V503.674H166.472V502.531H170.006V500.325C168.757 499.842 168.054 499.051 168.054 497.996C168.054 496.159 170.164 495.104 173.591 495.096C176.993 495.104 179.102 496.159 179.111 497.996C179.102 499.042 178.408 499.833 177.177 500.325V502.531H180.711ZM168.195 507.629C168.186 505.845 170.199 504.86 173.591 504.869C176.94 504.86 178.953 505.845 178.97 507.629C178.953 509.413 176.94 510.389 173.591 510.389C170.199 510.389 168.186 509.413 168.195 507.629ZM169.478 497.996C169.469 499.139 171.034 499.798 173.591 499.807C176.123 499.798 177.696 499.139 177.705 497.996C177.696 496.871 176.123 496.186 173.591 496.186C171.034 496.186 169.469 496.871 169.478 497.996ZM169.601 507.629C169.584 508.692 171.087 509.325 173.591 509.316C176.07 509.325 177.573 508.692 177.582 507.629C177.573 506.565 176.07 505.941 173.591 505.924C171.087 505.941 169.584 506.565 169.601 507.629ZM171.377 502.531H175.806V500.694C175.147 500.817 174.409 500.879 173.591 500.879C172.774 500.879 172.036 500.817 171.377 500.703V502.531ZM194.686 496.379V497.521H185.844V496.379H189.641V494.656H191.012V496.379H194.686ZM186.776 501.107C186.758 499.402 188.2 498.286 190.309 498.277C192.401 498.286 193.869 499.402 193.877 501.107C193.869 502.795 192.401 503.902 190.309 503.902C188.2 503.902 186.758 502.795 186.776 501.107ZM188.059 501.107C188.05 502.153 188.947 502.856 190.309 502.865C191.654 502.856 192.577 502.153 192.594 501.107C192.577 500.053 191.654 499.35 190.309 499.35C188.947 499.35 188.05 500.053 188.059 501.107ZM188.604 510.213V504.693H189.975V506.346H197.411V504.693H198.782V510.213H188.604ZM189.975 509.105H197.411V507.418H189.975V509.105ZM194.668 502.654V501.512H197.393V499.596H194.686V498.453H197.393V494.797H198.782V504.043H197.393V502.654H194.668ZM206.138 495.939C208.591 495.948 210.331 497.442 210.34 499.613C210.331 501.793 208.591 503.278 206.138 503.287C203.669 503.278 201.911 501.793 201.92 499.613C201.911 497.442 203.669 495.948 206.138 495.939ZM201.111 505.836C203.994 505.845 207.975 505.818 211.429 505.309L211.535 506.328C207.958 506.996 204.117 507.014 201.304 507.014L201.111 505.836ZM203.273 499.613C203.264 501.072 204.469 502.074 206.138 502.074C207.791 502.074 208.995 501.072 208.986 499.613C208.995 498.163 207.791 497.152 206.138 497.152C204.469 497.152 203.264 498.163 203.273 499.613ZM212.467 510.459V494.797H213.838V510.459H212.467ZM220.79 499.613C220.799 502.127 222.073 504.702 224.2 505.836L223.409 506.873C221.854 506.021 220.729 504.403 220.157 502.522C219.604 504.526 218.487 506.284 216.923 507.225L216.097 506.17C218.224 504.939 219.481 502.197 219.489 499.613V498.84H216.519V497.697H219.489V495.377H220.808V497.697H223.726V498.84H220.79V499.613ZM222.653 502.145V500.967H225.114V495.184H226.415V509.615H225.114V502.145H222.653ZM228.261 510.424V494.797H229.579V510.424H228.261ZM235.319 504.148C235.301 507.471 234.405 510.23 232.788 512.586H231.452C232.638 510.837 233.746 507.286 233.754 504.148C233.746 501.02 232.638 497.46 231.452 495.729H232.788C234.405 498.075 235.301 500.835 235.319 504.148Z" fill="#0094EA"/>
<rect x="0.5" y="683.5" width="319" height="59" rx="11.5" fill="white" stroke="#0094EA"/>
<rect x="0.5" y="551.5" width="319" height="123" rx="11.5" fill="white" stroke="#0094EA"/>
<path d="M127.79 572.691V584.293H125.839V578.475H123.026V576.893H125.839V572.691H127.79ZM114.448 580.865C116.979 580.03 118.333 577.956 118.333 575.838V575.416H115.028V573.834H123.606V575.416H120.319V575.855C120.319 577.763 121.602 579.74 124.063 580.549L123.079 582.113C121.304 581.507 120.047 580.294 119.352 578.791C118.658 580.461 117.331 581.797 115.45 582.447L114.448 580.865ZM117.366 588.248V583.273H119.317V586.666H128.194V588.248H117.366ZM144.182 580.619V582.184H138.047V585.102H136.113V582.184H129.662V580.619H144.182ZM131.42 588.248V583.643H133.371V586.666H142.582V588.248H131.42ZM131.508 579.143V573.395H142.319V579.143H131.508ZM133.406 577.613H140.385V574.924H133.406V577.613ZM157.322 572.674V578.879H159.677V580.514H157.322V588.529H155.371V572.674H157.322ZM144.789 584.188C148.656 582.254 150.748 579.564 151.134 575.943H145.65V574.326H153.121C153.112 578.993 151.178 583.098 145.896 585.699L144.789 584.188ZM165.259 573.377C167.676 573.368 169.425 574.722 169.425 576.717C169.425 578.677 167.676 580.048 165.259 580.039C162.868 580.048 161.128 578.677 161.128 576.717C161.128 574.722 162.868 573.368 165.259 573.377ZM160.091 581.129C162.956 581.129 166.973 581.076 170.392 580.566L170.532 582.008C169.161 582.271 167.737 582.438 166.349 582.544V588.072H164.38V582.658C162.912 582.72 161.532 582.737 160.337 582.746L160.091 581.129ZM163.026 576.717C163.017 577.78 163.958 578.448 165.259 578.439C166.612 578.448 167.561 577.78 167.561 576.717C167.561 575.618 166.612 574.941 165.259 574.959C163.958 574.941 163.017 575.618 163.026 576.717ZM171.429 588.547V572.691H173.362V588.547H171.429ZM188.594 572.691V584.715H186.625V583.326H183.514V581.955H186.625V572.691H188.594ZM175.199 579.828C178.126 579.811 182.073 579.784 185.448 579.354L185.553 580.76C184.243 580.979 182.89 581.12 181.545 581.217V584.275H179.594V581.322C178.109 581.384 176.694 581.393 175.446 581.393L175.199 579.828ZM176.412 576.084C176.412 574.405 178.03 573.263 180.385 573.271C182.697 573.263 184.323 574.405 184.34 576.084C184.323 577.789 182.697 578.87 180.385 578.879C178.03 578.87 176.412 577.789 176.412 576.084ZM177.309 588.248V583.555H179.26V586.666H188.963V588.248H177.309ZM178.258 576.084C178.258 576.945 179.111 577.446 180.385 577.455C181.598 577.446 182.468 576.945 182.477 576.084C182.468 575.223 181.598 574.704 180.385 574.713C179.111 574.704 178.258 575.223 178.258 576.084ZM203.703 572.674V588.564H201.752V572.674H203.703ZM190.537 584.152C191.802 584.144 193.235 584.144 194.738 584.1V582.641C192.954 582.359 191.785 581.27 191.785 579.758C191.785 577.965 193.376 576.778 195.687 576.77C198.025 576.778 199.642 577.965 199.642 579.758C199.642 581.261 198.473 582.342 196.689 582.632V584.029C198.087 583.968 199.493 583.854 200.82 583.678L200.961 585.137C197.471 585.726 193.674 585.77 190.818 585.77L190.537 584.152ZM190.871 576.049V574.502H194.738V572.727H196.689V574.502H200.539V576.049H190.871ZM193.648 579.758C193.63 580.672 194.483 581.208 195.687 581.199C196.926 581.208 197.77 580.672 197.761 579.758C197.77 578.835 196.926 578.272 195.687 578.264C194.483 578.272 193.63 578.835 193.648 579.758ZM90.9661 609.547V610.781H86.013V609.547H90.9661ZM103.709 602.391V612.578H102.474V607.25H99.6149V606.234H102.474V602.391H103.709ZM92.2555 609.797C94.3024 609.078 95.7867 607.242 95.7867 605.25V604.531H92.6461V603.516H100.13V604.531H97.0211V605.25C97.0211 607.047 98.4117 608.789 100.443 609.484L99.8024 610.469C98.2399 609.898 97.0289 608.734 96.4274 607.297C95.8258 608.906 94.5445 610.18 92.8961 610.797L92.2555 609.797ZM94.7867 615.969V611.656H96.0211V614.938H104.099V615.969H94.7867ZM118.404 609.484V610.5H112.748V613.344H111.529V610.5H105.685V609.484H118.404ZM107.31 615.969V611.969H108.545V614.938H116.982V615.969H107.31ZM107.342 607.891V603.062H116.748V607.891H107.342ZM108.545 606.906H115.529V604.031H108.545V606.906ZM129.959 602.375V608.031H132.209V609.062H129.959V616.266H128.74V602.375H129.959ZM119.303 612.656C122.889 610.875 124.842 608.195 125.123 604.906H119.944V603.875H126.365C126.358 607.805 124.514 611.391 119.99 613.625L119.303 612.656ZM143.67 603.859V605.25C143.67 607 143.67 608.977 143.155 612L141.905 611.875C142.467 609.031 142.467 606.953 142.467 605.25V604.875H134.092V603.859H143.67ZM132.717 614.219V613.203H145.374V614.219H132.717ZM158.929 609.25V610.266H153.147V612H151.944V610.266H146.21V609.25H158.929ZM147.819 603.625V602.672H157.288V605.844H149.085V607.188H157.585V608.141H147.866V604.922H156.054V603.625H147.819ZM147.913 616.078V611.156H149.132V612.719H156.054V611.156H157.272V616.078H147.913ZM149.132 615.109H156.054V613.656H149.132V615.109ZM174.914 602.375V616.266H173.679V602.375H174.914ZM163.601 612.656C167.359 610.875 169.281 608.211 169.554 604.891H164.242V603.891H170.804C170.789 607.883 168.929 611.422 164.273 613.656L163.601 612.656ZM185.672 603.656V604.594H177.469V603.656H180.953V602.297H182.172V603.656H185.672ZM177 610.25C178.18 610.25 179.539 610.242 180.953 610.195V609.227C179.305 609.078 178.25 608.336 178.265 607.203C178.25 605.914 179.57 605.125 181.578 605.125C183.555 605.125 184.89 605.914 184.906 607.203C184.89 608.336 183.82 609.086 182.172 609.227V610.148C183.469 610.086 184.781 609.984 186 609.812L186.094 610.688C183.047 611.188 179.687 611.234 177.187 611.234L177 610.25ZM179.015 613.312V612.328H188.39V616.266H187.156V613.312H179.015ZM179.422 607.203C179.422 607.914 180.273 608.391 181.578 608.375C182.859 608.391 183.726 607.914 183.719 607.203C183.726 606.445 182.859 605.984 181.578 606C180.273 605.984 179.422 606.445 179.422 607.203ZM187.156 611.672V602.422H188.39V611.672H187.156ZM198.719 603.062C200.797 603.047 202.29 604.195 202.282 605.891C202.29 607.586 200.797 608.742 198.719 608.734C196.641 608.742 195.157 607.586 195.157 605.891C195.157 604.195 196.641 603.047 198.719 603.062ZM194.11 609.922C196.719 609.93 200.29 609.875 203.375 609.422L203.454 610.344C202.125 610.586 200.75 610.734 199.407 610.82V615.844H198.188V610.891C196.774 610.953 195.438 610.961 194.282 610.969L194.11 609.922ZM196.36 605.891C196.344 606.977 197.336 607.727 198.719 607.719C200.118 607.727 201.118 606.977 201.11 605.891C201.118 604.812 200.118 604.047 198.719 604.062C197.336 604.047 196.344 604.812 196.36 605.891ZM204.391 616.281V602.391H205.594V616.281H204.391ZM219.102 602.391V612.938H217.868V611.5H214.993V610.609H217.868V602.391H219.102ZM207.571 608.828C210.157 608.812 213.641 608.789 216.618 608.422L216.696 609.312C215.462 609.508 214.157 609.633 212.884 609.711V612.453H211.649V609.773C210.243 609.828 208.907 609.828 207.743 609.828L207.571 608.828ZM208.696 605.375C208.688 603.914 210.079 602.953 212.134 602.953C214.173 602.953 215.563 603.914 215.571 605.375C215.563 606.859 214.173 607.781 212.134 607.781C210.079 607.781 208.688 606.859 208.696 605.375ZM209.571 615.969V611.906H210.805V614.938H219.446V615.969H209.571ZM209.868 605.375C209.852 606.281 210.774 606.867 212.134 606.875C213.454 606.867 214.391 606.281 214.399 605.375C214.391 604.484 213.454 603.875 212.134 603.891C210.774 603.875 209.852 604.484 209.868 605.375ZM232.548 602.375V616.266H231.329V602.375H232.548ZM221.235 612.562C222.423 612.555 223.782 612.547 225.189 612.5V610.984C223.517 610.812 222.439 609.859 222.454 608.469C222.439 606.898 223.775 605.883 225.782 605.891C227.79 605.883 229.15 606.898 229.142 608.469C229.15 609.844 228.071 610.797 226.423 610.984V612.453C227.767 612.391 229.126 612.297 230.407 612.125L230.501 613.062C227.4 613.562 224.001 613.609 221.423 613.609L221.235 612.562ZM221.532 605.094V604.094H225.189V602.391H226.423V604.094H230.048V605.094H221.532ZM223.595 608.469C223.587 609.43 224.493 610.062 225.782 610.047C227.079 610.062 227.978 609.43 227.97 608.469C227.978 607.5 227.079 606.844 225.782 606.844C224.493 606.844 223.587 607.5 223.595 608.469Z" fill="#0094EA"/>
<path d="M136.799 636.674V652.564H134.83V636.674H136.799ZM123.633 648.188C127.799 646.21 129.715 643.521 130.066 639.908H124.441V638.361H132.053C132.053 643.09 130.216 647.106 124.652 649.752L123.633 648.188ZM146.968 637.184C146.968 638.88 149.139 640.427 152.453 640.787L151.802 642.264C149.104 641.956 146.968 640.884 145.949 639.337C144.929 640.884 142.793 641.956 140.13 642.264L139.462 640.787C142.793 640.427 144.955 638.88 144.964 637.184V636.762H146.968V637.184ZM138.724 644.602V643.055H153.208V644.602H146.915V645.832H151.398V649.77H142.363V650.93H151.837V652.424H140.447V648.363H149.482V647.326H140.429V645.832H144.964V644.602H138.724ZM168.44 649.084V650.719H153.921V649.084H160.161V645.955H155.169V644.408H157.401V639.662H155.116V638.08H167.175V639.662H164.854V644.408H167.122V645.955H162.094V649.084H168.44ZM159.352 644.408H162.921V639.662H159.352V644.408ZM182.424 646.764V652.371H171.789V646.764H182.424ZM169.732 639.029V637.447H176.887V642.141H171.701V643.916C174.18 643.907 175.99 643.828 178.1 643.494L178.24 645.076C175.902 645.454 173.89 645.516 171.016 645.516H169.768V640.664H174.971V639.029H169.732ZM173.74 650.789H180.49V648.293H173.74V650.789ZM177.766 641.648V640.066H180.473V636.691H182.424V646.025H180.473V641.648H177.766Z" fill="#0094EA"/>
<path d="M90.7704 706.168V716.697H83.2118V706.168H90.7704ZM85.1454 715.133H88.872V707.697H85.1454V715.133ZM93.6181 720.582V704.674H95.5868V720.582H93.6181ZM104.033 706.291V712.215H99.9202V715.309C101.529 715.291 103.067 715.229 104.842 714.939L104.983 716.521C102.838 716.882 101.098 716.935 99.1292 716.943H98.0393V710.633H102.153V707.873H98.0217V706.291H104.033ZM105.791 719.756V704.973H107.584V710.773H109.377V704.674H111.24V720.564H109.377V712.355H107.584V719.756H105.791ZM125.295 704.691V709.279H127.509V710.896H125.295V716.381H123.343V704.691H125.295ZM113.306 713.797V705.816H115.24V708.242H118.949V705.816H120.882V713.797H113.306ZM115.117 720.248V715.203H117.068V718.666H125.927V720.248H115.117ZM115.24 712.25H118.949V709.754H115.24V712.25ZM140.86 711.898V713.445H136.149V717.084H142.478V718.684H127.958V717.084H134.216V713.445H129.716V705.852H140.737V707.416H131.667V711.898H140.86ZM148.006 709.525C148.006 711.986 149.017 714.465 151.241 715.66L150.151 717.102C148.674 716.319 147.672 714.922 147.101 713.252C146.538 715.054 145.536 716.601 144.051 717.471L142.909 715.994C145.159 714.693 146.152 712.039 146.16 709.525V709.033H143.453V707.451H146.16V705.236H148.006V707.451H150.66V709.033H148.006V709.525ZM149.676 712.391V710.773H151.75V704.973H153.596V719.791H151.75V712.391H149.676ZM154.967 720.564V704.674H156.83V720.564H154.967ZM175.534 704.674V720.564H173.565V704.674H175.534ZM162.368 716.188C166.534 714.21 168.45 711.521 168.802 707.908H163.177V706.361H170.788C170.788 711.09 168.951 715.106 163.388 717.752L162.368 716.188ZM185.704 705.184C185.704 706.88 187.874 708.427 191.188 708.787L190.538 710.264C187.839 709.956 185.704 708.884 184.684 707.337C183.664 708.884 181.529 709.956 178.866 710.264L178.198 708.787C181.529 708.427 183.691 706.88 183.7 705.184V704.762H185.704V705.184ZM177.459 712.602V711.055H191.944V712.602H185.651V713.832H190.133V717.77H181.098V718.93H190.573V720.424H179.182V716.363H188.217V715.326H179.164V713.832H183.7V712.602H177.459ZM205.963 704.691V716.346H204.012V712.408H200.223C199.468 713.261 198.343 713.771 197.068 713.779C194.669 713.771 192.867 712.065 192.867 709.719C192.867 707.346 194.669 705.649 197.068 705.641C198.334 705.649 199.459 706.15 200.215 706.994H204.012V704.691H205.963ZM194.73 709.719C194.73 711.134 195.706 712.039 197.068 712.039C198.369 712.039 199.362 711.134 199.371 709.719C199.362 708.295 198.369 707.381 197.068 707.381C195.706 707.381 194.73 708.295 194.73 709.719ZM195.539 720.248V715.15H197.49V718.666H206.367V720.248H195.539ZM201.076 708.576C201.173 708.937 201.234 709.314 201.234 709.719C201.234 710.105 201.181 710.475 201.085 710.826H204.012V708.576H201.076ZM220.562 705.641V707.064C220.553 708.55 220.553 710.176 220.14 712.426H222.337V714.008H216.027V720.582H214.058V714.008H207.853V712.426H218.153C218.593 710.264 218.611 708.638 218.611 707.223H209.558V705.641H220.562ZM236.374 704.691V716.715H234.405V715.326H231.293V713.955H234.405V704.691H236.374ZM222.979 711.828C225.906 711.811 229.852 711.784 233.227 711.354L233.333 712.76C232.023 712.979 230.669 713.12 229.325 713.217V716.275H227.374V713.322C225.888 713.384 224.473 713.393 223.225 713.393L222.979 711.828ZM224.192 708.084C224.192 706.405 225.809 705.263 228.165 705.271C230.476 705.263 232.102 706.405 232.12 708.084C232.102 709.789 230.476 710.87 228.165 710.879C225.809 710.87 224.192 709.789 224.192 708.084ZM225.088 720.248V715.555H227.04V718.666H236.743V720.248H225.088ZM226.038 708.084C226.038 708.945 226.89 709.446 228.165 709.455C229.377 709.446 230.248 708.945 230.256 708.084C230.248 707.223 229.377 706.704 228.165 706.713C226.89 706.704 226.038 707.223 226.038 708.084Z" fill="#0094EA"/>
<path d="M83.2969 901.281V911.641H81.5625V908.141H78.1953C77.5234 908.898 76.5234 909.352 75.3906 909.359C73.2578 909.352 71.6562 907.836 71.6562 905.75C71.6562 903.641 73.2578 902.133 75.3906 902.125C76.5156 902.133 77.5156 902.578 78.1875 903.328H81.5625V901.281H83.2969ZM73.3125 905.75C73.3125 907.008 74.1797 907.812 75.3906 907.812C76.5469 907.812 77.4297 907.008 77.4375 905.75C77.4297 904.484 76.5469 903.672 75.3906 903.672C74.1797 903.672 73.3125 904.484 73.3125 905.75ZM74.0312 915.109V910.578H75.7656V913.703H83.6562V915.109H74.0312ZM78.9531 904.734C79.0391 905.055 79.0938 905.391 79.0938 905.75C79.0938 906.094 79.0469 906.422 78.9609 906.734H81.5625V904.734H78.9531ZM96.2738 902.125V903.391C96.2659 904.711 96.2659 906.156 95.8988 908.156H97.8519V909.562H92.2425V915.406H90.4925V909.562H84.9769V908.156H94.1331C94.5238 906.234 94.5394 904.789 94.5394 903.531H86.4925V902.125H96.2738ZM109.719 902.641V904.234C109.719 906.125 109.719 908.07 109.204 911.047L107.438 910.891C107.985 908.117 107.985 906.07 107.985 904.234V904.047H99.8444V902.641H109.719ZM98.485 913.453V912.031H111.36V913.453H98.485ZM124.884 908.156V909.531H119.274V910.938H117.556V909.531H111.978V908.156H124.884ZM113.571 902.828V901.516H123.29V905H115.337V906H123.571V907.297H113.618V903.766H121.556V902.828H113.571ZM113.634 915.219V910.25H115.353V911.531H121.587V910.25H123.306V915.219H113.634ZM115.353 913.891H121.587V912.828H115.353V913.891Z" fill="#555555"/>
<rect x="0.5" y="813.5" width="250" height="59" rx="29.5" fill="white" stroke="#0094EA"/>
<path d="M69.9688 841.25C69.6406 839.688 68.3047 838.844 66.8125 838.844C64.7656 838.844 63.1797 840.422 63.1719 843.344C63.1797 846.258 64.7656 847.836 66.8125 847.844C68.3047 847.836 69.6328 847 69.9688 845.453H71.375C70.9688 847.766 69.1094 849.156 66.8125 849.156C63.9062 849.156 61.8047 846.922 61.8125 843.344C61.8047 839.766 63.9062 837.531 66.8125 837.531C69.1016 837.531 70.9531 838.898 71.375 841.25H69.9688ZM73.0238 837.688H74.7113L78.5238 847H78.6644L82.4769 837.688H84.1644V849H82.8363V840.453H82.7269L79.2113 849H77.9613L74.4456 840.453H74.3519V849H73.0238V837.688ZM95.9069 843.344C95.9147 846.922 93.8053 849.156 90.9069 849.156C88.0006 849.156 85.8991 846.922 85.9069 843.344C85.8991 839.766 88.0006 837.531 90.9069 837.531C93.8053 837.531 95.9147 839.766 95.9069 843.344ZM87.2663 843.344C87.2741 846.258 88.86 847.836 90.9069 847.844C92.9538 847.836 94.5397 846.258 94.5475 843.344C94.5397 840.422 92.9538 838.844 90.9069 838.844C88.86 838.844 87.2741 840.422 87.2663 843.344ZM103.821 840.531C103.704 839.422 102.673 838.781 101.321 838.781C99.8213 838.781 98.8447 839.562 98.8369 840.641C98.8447 841.828 100.165 842.273 101.024 842.484L102.149 842.797C103.36 843.109 105.353 843.805 105.353 845.922C105.353 847.766 103.868 849.195 101.243 849.203C98.8056 849.195 97.2978 847.938 97.165 846.062H98.6025C98.7197 847.328 99.8994 847.93 101.243 847.922C102.806 847.93 103.978 847.125 103.978 845.891C103.978 844.789 102.931 844.367 101.743 844.031L100.353 843.656C98.5791 843.141 97.4697 842.234 97.4775 840.703C97.4697 838.789 99.1728 837.531 101.368 837.531C103.563 837.531 105.142 838.812 105.196 840.531H103.821ZM110.744 849V837.688H117.603V838.938H112.15V842.719H117.244V843.953H112.15V847.75H117.681V849H110.744ZM120.346 840.516L122.346 843.969L124.361 840.516H125.908L123.174 844.75L125.908 849H124.377L122.346 845.719L120.346 849H118.799L121.471 844.75L118.799 840.516H120.346ZM130.916 840.516V841.641H129.135V846.562C129.127 847.648 129.674 847.828 130.244 847.828C130.487 847.828 130.846 847.805 131.041 847.797V849.047C130.83 849.078 130.502 849.109 130.104 849.109C128.971 849.109 127.783 848.406 127.776 846.906V841.641H126.494V840.516H127.776V838.484H129.135V840.516H130.916ZM135.799 849.172C133.346 849.18 131.831 847.43 131.831 844.828C131.831 842.219 133.37 840.406 135.674 840.406C137.456 840.406 139.338 841.5 139.331 844.641V845.203H133.174C133.245 847 134.292 847.984 135.799 847.984C136.815 847.984 137.456 847.539 137.768 847.016H139.206C138.807 848.305 137.549 849.18 135.799 849.172ZM133.182 844.062H137.971C137.963 842.648 137.073 841.594 135.674 841.594C134.206 841.594 133.276 842.75 133.182 844.062ZM142.104 843.906V849H140.761V840.516H142.058V841.844H142.167C142.565 840.977 143.362 840.406 144.651 840.406C146.37 840.406 147.518 841.453 147.511 843.609V849H146.167V843.703C146.167 842.391 145.448 841.609 144.245 841.609C143.011 841.609 142.104 842.438 142.104 843.906ZM154.066 842.719C153.878 842.016 153.339 841.555 152.347 841.547C151.3 841.555 150.558 842.117 150.55 842.828C150.558 843.391 151.011 843.773 152.003 844.016L153.269 844.328C154.784 844.688 155.527 845.445 155.534 846.625C155.527 848.094 154.331 849.18 152.206 849.172C150.3 849.18 149.167 848.328 148.941 846.781H150.347C150.503 847.609 151.105 848.008 152.175 848C153.386 848.008 154.144 847.5 154.144 846.703C154.144 846.102 153.714 845.711 152.753 845.484L151.472 845.188C149.995 844.844 149.206 844.039 149.206 842.906C149.206 841.453 150.48 840.406 152.347 840.406C154.105 840.406 155.206 841.344 155.378 842.719H154.066ZM156.964 849V840.516H158.308V849H156.964ZM156.699 838.219C156.691 837.719 157.121 837.32 157.636 837.328C158.152 837.32 158.582 837.719 158.589 838.219C158.582 838.711 158.152 839.109 157.636 839.109C157.121 839.109 156.691 838.711 156.699 838.219ZM163.598 849.172C161.285 849.18 159.723 847.43 159.723 844.797C159.723 842.148 161.285 840.406 163.598 840.406C165.902 840.406 167.449 842.148 167.441 844.797C167.449 847.43 165.902 849.18 163.598 849.172ZM161.066 844.797C161.074 846.492 161.871 847.984 163.598 847.984C165.308 847.984 166.098 846.492 166.098 844.797C166.098 843.109 165.308 841.594 163.598 841.594C161.871 841.594 161.074 843.109 161.066 844.797ZM170.231 843.906V849H168.887V840.516H170.184V841.844H170.293C170.692 840.977 171.488 840.406 172.777 840.406C174.496 840.406 175.645 841.453 175.637 843.609V849H174.293V843.703C174.293 842.391 173.574 841.609 172.371 841.609C171.137 841.609 170.231 842.438 170.231 843.906Z" fill="#555555"/>
<path d="M33.7031 840.334C33.29 838.98 32.2441 838.154 30.6973 838.154C28.6494 838.154 27.1553 839.754 27.1641 842.619C27.1553 845.511 28.623 847.119 30.75 847.119C32.6748 847.119 33.8965 845.959 33.9316 844.148H30.9785V842.338H36.1465V843.867C36.1465 847.146 33.8965 849.176 30.75 849.176C27.2344 849.176 24.8525 846.671 24.8613 842.637C24.8525 838.55 27.3486 836.098 30.6797 836.098C33.4834 836.098 35.6543 837.838 36.041 840.334H33.7031ZM42.9056 836.273V849H40.6029V838.506H40.5326L37.5619 840.404V838.312L40.7084 836.273H42.9056Z" fill="#0094EA"/>
<rect x="0.5" y="943.5" width="250" height="59" rx="29.5" fill="white" stroke="#0094EA"/>
<path d="M66.1875 970.906C66.1953 973.133 67.6406 975.406 69.6562 976.375L68.9375 977.328C67.4062 976.578 66.1953 975.055 65.6172 973.266C65.0078 975.203 63.7188 976.812 62.1406 977.578L61.4375 976.625C63.4766 975.672 64.9922 973.297 65 970.906V969.797H61.8125V968.797H64.9844V966.641H66.2188V968.797H69.3438V969.797H66.1875V970.906ZM71.0938 980.266V966.375H72.3125V972.078H74.6406V973.125H72.3125V980.266H71.0938ZM79.1956 970.328C79.1956 972.539 80.2738 974.922 82.1175 976.016L81.4144 976.969C80.0706 976.156 79.1097 974.672 78.6253 972.977C78.1175 974.828 77.0863 976.422 75.6956 977.266L74.9144 976.344C76.8363 975.219 78.0081 972.758 78.0081 970.375V967.688H79.1956V970.328ZM80.5863 972.406V971.359H82.9456V966.672H84.1019V979.562H82.9456V972.406H80.5863ZM85.7894 980.266V966.375H86.9769V980.266H85.7894ZM100.454 966.375V980.266H99.2819V972.984H97.235V979.547H96.11V966.688H97.235V971.969H99.2819V966.375H100.454ZM89.0944 976.828V968.078H94.2975V969.094H90.3131V975.781C92.2272 975.773 93.5475 975.703 95.0944 975.391L95.2038 976.422C93.5319 976.766 92.1178 976.82 89.985 976.828H89.0944ZM106.47 967.688H108.158L111.97 977H112.111L115.923 967.688H117.611V979H116.283V970.453H116.173L112.658 979H111.408L107.892 970.453H107.798V979H106.47V967.688ZM123.181 979.172C120.728 979.18 119.213 977.43 119.213 974.828C119.213 972.219 120.752 970.406 123.056 970.406C124.838 970.406 126.72 971.5 126.713 974.641V975.203H120.556C120.627 977 121.673 977.984 123.181 977.984C124.197 977.984 124.838 977.539 125.15 977.016H126.588C126.189 978.305 124.931 979.18 123.181 979.172ZM120.564 974.062H125.353C125.345 972.648 124.455 971.594 123.056 971.594C121.588 971.594 120.658 972.75 120.564 974.062ZM128.143 979V970.516H129.439V971.844H129.549C129.9 970.938 130.721 970.406 131.83 970.406C132.939 970.406 133.697 970.938 134.096 971.844H134.189C134.619 970.969 135.518 970.406 136.736 970.406C138.244 970.406 139.33 971.328 139.33 973.328V979H137.986V973.344C137.978 972.094 137.197 971.609 136.268 971.609C135.088 971.609 134.416 972.406 134.408 973.484V979H133.049V973.203C133.057 972.25 132.369 971.609 131.393 971.609C130.377 971.609 129.486 972.469 129.486 973.703V979H128.143ZM144.635 979.172C142.323 979.18 140.76 977.43 140.76 974.797C140.76 972.148 142.323 970.406 144.635 970.406C146.94 970.406 148.487 972.148 148.479 974.797C148.487 977.43 146.94 979.18 144.635 979.172ZM142.104 974.797C142.112 976.492 142.908 977.984 144.635 977.984C146.346 977.984 147.135 976.492 147.135 974.797C147.135 973.109 146.346 971.594 144.635 971.594C142.908 971.594 142.112 973.109 142.104 974.797ZM149.924 979V970.516H151.221V971.812H151.315C151.62 970.953 152.503 970.383 153.503 970.375C153.706 970.383 154.049 970.391 154.206 970.406V971.766C154.104 971.742 153.745 971.672 153.393 971.672C152.174 971.672 151.268 972.516 151.268 973.656V979H149.924ZM156.323 982.188C156.034 982.18 155.745 982.172 155.573 982.156V980.953C155.714 980.969 156.018 980.977 156.229 980.984C156.776 980.977 157.237 980.945 157.683 979.703L157.933 979.062L154.792 970.516H156.261L158.573 977.25H158.667L160.979 970.516H162.448L158.854 980.219C158.354 981.555 157.526 982.18 156.323 982.188Z" fill="#555555"/>
<path d="M33.7031 970.334C33.29 968.98 32.2441 968.154 30.6973 968.154C28.6494 968.154 27.1553 969.754 27.1641 972.619C27.1553 975.511 28.623 977.119 30.75 977.119C32.6748 977.119 33.8965 975.959 33.9316 974.148H30.9785V972.338H36.1465V973.867C36.1465 977.146 33.8965 979.176 30.75 979.176C27.2344 979.176 24.8525 976.671 24.8613 972.637C24.8525 968.55 27.3486 966.098 30.6797 966.098C33.4834 966.098 35.6543 967.838 36.041 970.334H33.7031ZM37.7377 979V977.348L42.2377 973.006C43.5209 971.723 44.1888 970.967 44.1888 969.895C44.1888 968.708 43.2484 967.961 42.0091 967.961C40.6996 967.961 39.8558 968.778 39.8646 970.07H37.6849C37.6761 967.662 39.4867 966.098 42.0267 966.098C44.6283 966.098 46.3773 967.653 46.3861 969.789C46.3773 971.222 45.6918 972.382 43.1869 974.746L40.9193 976.996V977.084H46.5795V979H37.7377Z" fill="#0094EA"/>
<rect x="0.5" y="1063.5" width="250" height="59" rx="29.5" fill="white" stroke="#0094EA"/>
<path d="M69.9688 1091.25C69.6406 1089.69 68.3047 1088.84 66.8125 1088.84C64.7656 1088.84 63.1797 1090.42 63.1719 1093.34C63.1797 1096.26 64.7656 1097.84 66.8125 1097.84C68.3047 1097.84 69.6328 1097 69.9688 1095.45H71.375C70.9688 1097.77 69.1094 1099.16 66.8125 1099.16C63.9062 1099.16 61.8047 1096.92 61.8125 1093.34C61.8047 1089.77 63.9062 1087.53 66.8125 1087.53C69.1016 1087.53 70.9531 1088.9 71.375 1091.25H69.9688ZM73.0238 1087.69H74.7113L78.5238 1097H78.6644L82.4769 1087.69H84.1644V1099H82.8363V1090.45H82.7269L79.2113 1099H77.9613L74.4456 1090.45H74.3519V1099H73.0238V1087.69ZM95.9069 1093.34C95.9147 1096.92 93.8053 1099.16 90.9069 1099.16C88.0006 1099.16 85.8991 1096.92 85.9069 1093.34C85.8991 1089.77 88.0006 1087.53 90.9069 1087.53C93.8053 1087.53 95.9147 1089.77 95.9069 1093.34ZM87.2663 1093.34C87.2741 1096.26 88.86 1097.84 90.9069 1097.84C92.9538 1097.84 94.5397 1096.26 94.5475 1093.34C94.5397 1090.42 92.9538 1088.84 90.9069 1088.84C88.86 1088.84 87.2741 1090.42 87.2663 1093.34ZM103.821 1090.53C103.704 1089.42 102.673 1088.78 101.321 1088.78C99.8213 1088.78 98.8447 1089.56 98.8369 1090.64C98.8447 1091.83 100.165 1092.27 101.024 1092.48L102.149 1092.8C103.36 1093.11 105.353 1093.8 105.353 1095.92C105.353 1097.77 103.868 1099.2 101.243 1099.2C98.8056 1099.2 97.2978 1097.94 97.165 1096.06H98.6025C98.7197 1097.33 99.8994 1097.93 101.243 1097.92C102.806 1097.93 103.978 1097.12 103.978 1095.89C103.978 1094.79 102.931 1094.37 101.743 1094.03L100.353 1093.66C98.5791 1093.14 97.4697 1092.23 97.4775 1090.7C97.4697 1088.79 99.1728 1087.53 101.368 1087.53C103.563 1087.53 105.142 1088.81 105.196 1090.53H103.821ZM110.744 1099V1087.69H117.603V1088.94H112.15V1092.72H117.244V1093.95H112.15V1097.75H117.681V1099H110.744ZM120.346 1090.52L122.346 1093.97L124.361 1090.52H125.908L123.174 1094.75L125.908 1099H124.377L122.346 1095.72L120.346 1099H118.799L121.471 1094.75L118.799 1090.52H120.346ZM130.916 1090.52V1091.64H129.135V1096.56C129.127 1097.65 129.674 1097.83 130.244 1097.83C130.487 1097.83 130.846 1097.8 131.041 1097.8V1099.05C130.83 1099.08 130.502 1099.11 130.104 1099.11C128.971 1099.11 127.783 1098.41 127.776 1096.91V1091.64H126.494V1090.52H127.776V1088.48H129.135V1090.52H130.916ZM135.799 1099.17C133.346 1099.18 131.831 1097.43 131.831 1094.83C131.831 1092.22 133.37 1090.41 135.674 1090.41C137.456 1090.41 139.338 1091.5 139.331 1094.64V1095.2H133.174C133.245 1097 134.292 1097.98 135.799 1097.98C136.815 1097.98 137.456 1097.54 137.768 1097.02H139.206C138.807 1098.3 137.549 1099.18 135.799 1099.17ZM133.182 1094.06H137.971C137.963 1092.65 137.073 1091.59 135.674 1091.59C134.206 1091.59 133.276 1092.75 133.182 1094.06ZM142.104 1093.91V1099H140.761V1090.52H142.058V1091.84H142.167C142.565 1090.98 143.362 1090.41 144.651 1090.41C146.37 1090.41 147.518 1091.45 147.511 1093.61V1099H146.167V1093.7C146.167 1092.39 145.448 1091.61 144.245 1091.61C143.011 1091.61 142.104 1092.44 142.104 1093.91ZM154.066 1092.72C153.878 1092.02 153.339 1091.55 152.347 1091.55C151.3 1091.55 150.558 1092.12 150.55 1092.83C150.558 1093.39 151.011 1093.77 152.003 1094.02L153.269 1094.33C154.784 1094.69 155.527 1095.45 155.534 1096.62C155.527 1098.09 154.331 1099.18 152.206 1099.17C150.3 1099.18 149.167 1098.33 148.941 1096.78H150.347C150.503 1097.61 151.105 1098.01 152.175 1098C153.386 1098.01 154.144 1097.5 154.144 1096.7C154.144 1096.1 153.714 1095.71 152.753 1095.48L151.472 1095.19C149.995 1094.84 149.206 1094.04 149.206 1092.91C149.206 1091.45 150.48 1090.41 152.347 1090.41C154.105 1090.41 155.206 1091.34 155.378 1092.72H154.066ZM156.964 1099V1090.52H158.308V1099H156.964ZM156.699 1088.22C156.691 1087.72 157.121 1087.32 157.636 1087.33C158.152 1087.32 158.582 1087.72 158.589 1088.22C158.582 1088.71 158.152 1089.11 157.636 1089.11C157.121 1089.11 156.691 1088.71 156.699 1088.22ZM163.598 1099.17C161.285 1099.18 159.723 1097.43 159.723 1094.8C159.723 1092.15 161.285 1090.41 163.598 1090.41C165.902 1090.41 167.449 1092.15 167.441 1094.8C167.449 1097.43 165.902 1099.18 163.598 1099.17ZM161.066 1094.8C161.074 1096.49 161.871 1097.98 163.598 1097.98C165.308 1097.98 166.098 1096.49 166.098 1094.8C166.098 1093.11 165.308 1091.59 163.598 1091.59C161.871 1091.59 161.074 1093.11 161.066 1094.8ZM170.231 1093.91V1099H168.887V1090.52H170.184V1091.84H170.293C170.692 1090.98 171.488 1090.41 172.777 1090.41C174.496 1090.41 175.645 1091.45 175.637 1093.61V1099H174.293V1093.7C174.293 1092.39 173.574 1091.61 172.371 1091.61C171.137 1091.61 170.231 1092.44 170.231 1093.91Z" fill="#555555"/>
<path d="M33.7031 1090.33C33.29 1088.98 32.2441 1088.15 30.6973 1088.15C28.6494 1088.15 27.1553 1089.75 27.1641 1092.62C27.1553 1095.51 28.623 1097.12 30.75 1097.12C32.6748 1097.12 33.8965 1095.96 33.9316 1094.15H30.9785V1092.34H36.1465V1093.87C36.1465 1097.15 33.8965 1099.18 30.75 1099.18C27.2344 1099.18 24.8525 1096.67 24.8613 1092.64C24.8525 1088.55 27.3486 1086.1 30.6797 1086.1C33.4834 1086.1 35.6543 1087.84 36.041 1090.33H33.7031ZM42.3607 1099.18C39.6449 1099.18 37.7025 1097.7 37.6498 1095.55H39.9525C40.014 1096.57 41.0336 1097.25 42.3607 1097.24C43.7582 1097.25 44.7689 1096.48 44.7689 1095.34C44.7689 1094.2 43.7845 1093.38 42.1322 1093.38H40.9896V1091.62H42.1322C43.4857 1091.62 44.4261 1090.86 44.4173 1089.75C44.4261 1088.68 43.6175 1087.96 42.3783 1087.96C41.183 1087.96 40.1546 1088.63 40.1107 1089.7H37.9134C37.9662 1087.57 39.9086 1086.1 42.3959 1086.1C44.9798 1086.1 46.6498 1087.68 46.6322 1089.63C46.6498 1091.05 45.7005 1092.08 44.3119 1092.37V1092.48C46.1048 1092.72 47.1244 1093.87 47.1068 1095.47C47.1244 1097.62 45.1117 1099.18 42.3607 1099.18Z" fill="#0094EA"/>
<rect x="0.5" y="1145.5" width="250" height="59" rx="29.5" fill="white" stroke="#0094EA"/>
<path d="M66.1875 1172.91C66.1953 1175.13 67.6406 1177.41 69.6562 1178.38L68.9375 1179.33C67.4062 1178.58 66.1953 1177.05 65.6172 1175.27C65.0078 1177.2 63.7188 1178.81 62.1406 1179.58L61.4375 1178.62C63.4766 1177.67 64.9922 1175.3 65 1172.91V1171.8H61.8125V1170.8H64.9844V1168.64H66.2188V1170.8H69.3438V1171.8H66.1875V1172.91ZM71.0938 1182.27V1168.38H72.3125V1174.08H74.6406V1175.12H72.3125V1182.27H71.0938ZM79.1956 1172.33C79.1956 1174.54 80.2738 1176.92 82.1175 1178.02L81.4144 1178.97C80.0706 1178.16 79.1097 1176.67 78.6253 1174.98C78.1175 1176.83 77.0863 1178.42 75.6956 1179.27L74.9144 1178.34C76.8363 1177.22 78.0081 1174.76 78.0081 1172.38V1169.69H79.1956V1172.33ZM80.5863 1174.41V1173.36H82.9456V1168.67H84.1019V1181.56H82.9456V1174.41H80.5863ZM85.7894 1182.27V1168.38H86.9769V1182.27H85.7894ZM100.454 1168.38V1182.27H99.2819V1174.98H97.235V1181.55H96.11V1168.69H97.235V1173.97H99.2819V1168.38H100.454ZM89.0944 1178.83V1170.08H94.2975V1171.09H90.3131V1177.78C92.2272 1177.77 93.5475 1177.7 95.0944 1177.39L95.2038 1178.42C93.5319 1178.77 92.1178 1178.82 89.985 1178.83H89.0944ZM116.642 1168.39V1172.59H118.736V1173.62H116.642V1178.59H115.423V1168.39H116.642ZM106.376 1176.25V1169.39H107.579V1171.73H111.626V1169.39H112.845V1176.25H106.376ZM107.579 1175.25H111.626V1172.7H107.579V1175.25ZM107.954 1181.97V1177.59H109.158V1180.94H117.283V1181.97H107.954ZM130.509 1174.89V1175.89H126.213V1179.48H132.009V1180.52H119.291V1179.48H125.009V1175.89H120.916V1169.52H130.369V1170.52H122.15V1174.89H130.509ZM136.861 1172.66C136.869 1174.89 138.002 1177.18 139.893 1178.19L139.189 1179.11C137.807 1178.35 136.807 1176.91 136.299 1175.24C135.807 1177.02 134.814 1178.59 133.424 1179.42L132.689 1178.48C134.58 1177.39 135.697 1174.95 135.705 1172.66V1171.97H133.064V1170.95H135.705V1168.89H136.877V1170.95H139.471V1171.97H136.861V1172.66ZM138.518 1174.91V1173.86H140.705V1168.72H141.861V1181.55H140.705V1174.91H138.518ZM143.502 1182.27V1168.38H144.674V1182.27H143.502ZM150.69 1181V1169.69H154.534C157.182 1169.69 158.393 1171.27 158.393 1173.28C158.393 1175.29 157.182 1176.89 154.549 1176.89H152.096V1181H150.69ZM152.096 1175.64H154.487C156.292 1175.64 156.995 1174.62 157.003 1173.28C156.995 1171.93 156.292 1170.94 154.471 1170.94H152.096V1175.64ZM159.87 1181V1172.52H161.167V1173.81H161.261C161.565 1172.95 162.448 1172.38 163.448 1172.38C163.651 1172.38 163.995 1172.39 164.151 1172.41V1173.77C164.05 1173.74 163.69 1173.67 163.339 1173.67C162.12 1173.67 161.214 1174.52 161.214 1175.66V1181H159.87ZM168.331 1181.17C166.019 1181.18 164.456 1179.43 164.456 1176.8C164.456 1174.15 166.019 1172.41 168.331 1172.41C170.636 1172.41 172.183 1174.15 172.175 1176.8C172.183 1179.43 170.636 1181.18 168.331 1181.17ZM165.8 1176.8C165.808 1178.49 166.605 1179.98 168.331 1179.98C170.042 1179.98 170.831 1178.49 170.831 1176.8C170.831 1175.11 170.042 1173.59 168.331 1173.59C166.605 1173.59 165.808 1175.11 165.8 1176.8ZM177.089 1181.17C174.683 1181.18 173.214 1179.34 173.214 1176.8C173.214 1174.22 174.753 1172.41 177.058 1172.41C178.863 1172.41 180.222 1173.48 180.433 1175.08H179.089C178.894 1174.3 178.222 1173.59 177.089 1173.59C175.574 1173.59 174.566 1174.84 174.558 1176.75C174.566 1178.71 175.55 1179.97 177.089 1179.97C178.089 1179.97 178.855 1179.43 179.089 1178.5H180.433C180.222 1180.02 178.972 1181.18 177.089 1181.17ZM185.332 1181.17C182.879 1181.18 181.363 1179.43 181.363 1176.83C181.363 1174.22 182.902 1172.41 185.207 1172.41C186.988 1172.41 188.871 1173.5 188.863 1176.64V1177.2H182.707C182.777 1179 183.824 1179.98 185.332 1179.98C186.348 1179.98 186.988 1179.54 187.301 1179.02H188.738C188.34 1180.3 187.082 1181.18 185.332 1181.17ZM182.715 1176.06H187.504C187.496 1174.65 186.605 1173.59 185.207 1173.59C183.738 1173.59 182.808 1174.75 182.715 1176.06ZM195.012 1174.72C194.824 1174.02 194.285 1173.55 193.293 1173.55C192.246 1173.55 191.504 1174.12 191.496 1174.83C191.504 1175.39 191.957 1175.77 192.949 1176.02L194.215 1176.33C195.731 1176.69 196.473 1177.45 196.481 1178.62C196.473 1180.09 195.277 1181.18 193.152 1181.17C191.246 1181.18 190.113 1180.33 189.887 1178.78H191.293C191.449 1179.61 192.051 1180.01 193.121 1180C194.332 1180.01 195.09 1179.5 195.09 1178.7C195.09 1178.1 194.66 1177.71 193.699 1177.48L192.418 1177.19C190.942 1176.84 190.152 1176.04 190.152 1174.91C190.152 1173.45 191.426 1172.41 193.293 1172.41C195.051 1172.41 196.152 1173.34 196.324 1174.72H195.012ZM202.629 1174.72C202.442 1174.02 201.903 1173.55 200.911 1173.55C199.864 1173.55 199.122 1174.12 199.114 1174.83C199.122 1175.39 199.575 1175.77 200.567 1176.02L201.833 1176.33C203.348 1176.69 204.09 1177.45 204.098 1178.62C204.09 1180.09 202.895 1181.18 200.77 1181.17C198.864 1181.18 197.731 1180.33 197.504 1178.78H198.911C199.067 1179.61 199.668 1180.01 200.739 1180C201.95 1180.01 202.708 1179.5 202.708 1178.7C202.708 1178.1 202.278 1177.71 201.317 1177.48L200.036 1177.19C198.559 1176.84 197.77 1176.04 197.77 1174.91C197.77 1173.45 199.043 1172.41 200.911 1172.41C202.668 1172.41 203.77 1173.34 203.942 1174.72H202.629ZM210.802 1169.69V1181H209.396V1169.69H210.802Z" fill="#555555"/>
<path d="M33.7031 1172.33C33.29 1170.98 32.2441 1170.15 30.6973 1170.15C28.6494 1170.15 27.1553 1171.75 27.1641 1174.62C27.1553 1177.51 28.623 1179.12 30.75 1179.12C32.6748 1179.12 33.8965 1177.96 33.9316 1176.15H30.9785V1174.34H36.1465V1175.87C36.1465 1179.15 33.8965 1181.18 30.75 1181.18C27.2344 1181.18 24.8525 1178.67 24.8613 1174.64C24.8525 1170.55 27.3486 1168.1 30.6797 1168.1C33.4834 1168.1 35.6543 1169.84 36.041 1172.33H33.7031ZM37.5091 1178.63V1176.8L43.0111 1168.27H45.8588V1176.75H47.5287V1178.63H45.8588V1181H43.6791V1178.63H37.5091ZM39.847 1176.75H43.7142V1170.88H43.5736L39.847 1176.66V1176.75Z" fill="#0094EA"/>
<rect x="0.5" y="1231.5" width="250" height="59" rx="29.5" fill="white" stroke="#0094EA"/>
<path d="M66.1875 1258.91C66.1953 1261.13 67.6406 1263.41 69.6562 1264.38L68.9375 1265.33C67.4062 1264.58 66.1953 1263.05 65.6172 1261.27C65.0078 1263.2 63.7188 1264.81 62.1406 1265.58L61.4375 1264.62C63.4766 1263.67 64.9922 1261.3 65 1258.91V1257.8H61.8125V1256.8H64.9844V1254.64H66.2188V1256.8H69.3438V1257.8H66.1875V1258.91ZM71.0938 1268.27V1254.38H72.3125V1260.08H74.6406V1261.12H72.3125V1268.27H71.0938ZM79.1956 1258.33C79.1956 1260.54 80.2738 1262.92 82.1175 1264.02L81.4144 1264.97C80.0706 1264.16 79.1097 1262.67 78.6253 1260.98C78.1175 1262.83 77.0863 1264.42 75.6956 1265.27L74.9144 1264.34C76.8363 1263.22 78.0081 1260.76 78.0081 1258.38V1255.69H79.1956V1258.33ZM80.5863 1260.41V1259.36H82.9456V1254.67H84.1019V1267.56H82.9456V1260.41H80.5863ZM85.7894 1268.27V1254.38H86.9769V1268.27H85.7894ZM100.454 1254.38V1268.27H99.2819V1260.98H97.235V1267.55H96.11V1254.69H97.235V1259.97H99.2819V1254.38H100.454ZM89.0944 1264.83V1256.08H94.2975V1257.09H90.3131V1263.78C92.2272 1263.77 93.5475 1263.7 95.0944 1263.39L95.2038 1264.42C93.5319 1264.77 92.1178 1264.82 89.985 1264.83H89.0944ZM116.642 1254.39V1258.59H118.736V1259.62H116.642V1264.59H115.423V1254.39H116.642ZM106.376 1262.25V1255.39H107.579V1257.73H111.626V1255.39H112.845V1262.25H106.376ZM107.579 1261.25H111.626V1258.7H107.579V1261.25ZM107.954 1267.97V1263.59H109.158V1266.94H117.283V1267.97H107.954ZM130.509 1260.89V1261.89H126.213V1265.48H132.009V1266.52H119.291V1265.48H125.009V1261.89H120.916V1255.52H130.369V1256.52H122.15V1260.89H130.509ZM136.861 1258.66C136.869 1260.89 138.002 1263.18 139.893 1264.19L139.189 1265.11C137.807 1264.35 136.807 1262.91 136.299 1261.24C135.807 1263.02 134.814 1264.59 133.424 1265.42L132.689 1264.48C134.58 1263.39 135.697 1260.95 135.705 1258.66V1257.97H133.064V1256.95H135.705V1254.89H136.877V1256.95H139.471V1257.97H136.861V1258.66ZM138.518 1260.91V1259.86H140.705V1254.72H141.861V1267.55H140.705V1260.91H138.518ZM143.502 1268.27V1254.38H144.674V1268.27H143.502ZM150.69 1267V1255.69H154.534C157.182 1255.69 158.393 1257.27 158.393 1259.28C158.393 1261.29 157.182 1262.89 154.549 1262.89H152.096V1267H150.69ZM152.096 1261.64H154.487C156.292 1261.64 156.995 1260.62 157.003 1259.28C156.995 1257.93 156.292 1256.94 154.471 1256.94H152.096V1261.64ZM159.87 1267V1258.52H161.167V1259.81H161.261C161.565 1258.95 162.448 1258.38 163.448 1258.38C163.651 1258.38 163.995 1258.39 164.151 1258.41V1259.77C164.05 1259.74 163.69 1259.67 163.339 1259.67C162.12 1259.67 161.214 1260.52 161.214 1261.66V1267H159.87ZM168.331 1267.17C166.019 1267.18 164.456 1265.43 164.456 1262.8C164.456 1260.15 166.019 1258.41 168.331 1258.41C170.636 1258.41 172.183 1260.15 172.175 1262.8C172.183 1265.43 170.636 1267.18 168.331 1267.17ZM165.8 1262.8C165.808 1264.49 166.605 1265.98 168.331 1265.98C170.042 1265.98 170.831 1264.49 170.831 1262.8C170.831 1261.11 170.042 1259.59 168.331 1259.59C166.605 1259.59 165.808 1261.11 165.8 1262.8ZM177.089 1267.17C174.683 1267.18 173.214 1265.34 173.214 1262.8C173.214 1260.22 174.753 1258.41 177.058 1258.41C178.863 1258.41 180.222 1259.48 180.433 1261.08H179.089C178.894 1260.3 178.222 1259.59 177.089 1259.59C175.574 1259.59 174.566 1260.84 174.558 1262.75C174.566 1264.71 175.55 1265.97 177.089 1265.97C178.089 1265.97 178.855 1265.43 179.089 1264.5H180.433C180.222 1266.02 178.972 1267.18 177.089 1267.17ZM185.332 1267.17C182.879 1267.18 181.363 1265.43 181.363 1262.83C181.363 1260.22 182.902 1258.41 185.207 1258.41C186.988 1258.41 188.871 1259.5 188.863 1262.64V1263.2H182.707C182.777 1265 183.824 1265.98 185.332 1265.98C186.348 1265.98 186.988 1265.54 187.301 1265.02H188.738C188.34 1266.3 187.082 1267.18 185.332 1267.17ZM182.715 1262.06H187.504C187.496 1260.65 186.605 1259.59 185.207 1259.59C183.738 1259.59 182.808 1260.75 182.715 1262.06ZM195.012 1260.72C194.824 1260.02 194.285 1259.55 193.293 1259.55C192.246 1259.55 191.504 1260.12 191.496 1260.83C191.504 1261.39 191.957 1261.77 192.949 1262.02L194.215 1262.33C195.731 1262.69 196.473 1263.45 196.481 1264.62C196.473 1266.09 195.277 1267.18 193.152 1267.17C191.246 1267.18 190.113 1266.33 189.887 1264.78H191.293C191.449 1265.61 192.051 1266.01 193.121 1266C194.332 1266.01 195.09 1265.5 195.09 1264.7C195.09 1264.1 194.66 1263.71 193.699 1263.48L192.418 1263.19C190.942 1262.84 190.152 1262.04 190.152 1260.91C190.152 1259.45 191.426 1258.41 193.293 1258.41C195.051 1258.41 196.152 1259.34 196.324 1260.72H195.012ZM202.629 1260.72C202.442 1260.02 201.903 1259.55 200.911 1259.55C199.864 1259.55 199.122 1260.12 199.114 1260.83C199.122 1261.39 199.575 1261.77 200.567 1262.02L201.833 1262.33C203.348 1262.69 204.09 1263.45 204.098 1264.62C204.09 1266.09 202.895 1267.18 200.77 1267.17C198.864 1267.18 197.731 1266.33 197.504 1264.78H198.911C199.067 1265.61 199.668 1266.01 200.739 1266C201.95 1266.01 202.708 1265.5 202.708 1264.7C202.708 1264.1 202.278 1263.71 201.317 1263.48L200.036 1263.19C198.559 1262.84 197.77 1262.04 197.77 1260.91C197.77 1259.45 199.043 1258.41 200.911 1258.41C202.668 1258.41 203.77 1259.34 203.942 1260.72H202.629ZM210.802 1255.69V1267H209.396V1255.69H210.802ZM214.388 1255.69V1267H212.982V1255.69H214.388Z" fill="#555555"/>
<path d="M33.7031 1258.33C33.29 1256.98 32.2441 1256.15 30.6973 1256.15C28.6494 1256.15 27.1553 1257.75 27.1641 1260.62C27.1553 1263.51 28.623 1265.12 30.75 1265.12C32.6748 1265.12 33.8965 1263.96 33.9316 1262.15H30.9785V1260.34H36.1465V1261.87C36.1465 1265.15 33.8965 1267.18 30.75 1267.18C27.2344 1267.18 24.8525 1264.67 24.8613 1260.64C24.8525 1256.55 27.3486 1254.1 30.6797 1254.1C33.4834 1254.1 35.6543 1255.84 36.041 1258.33H33.7031ZM42.2552 1267.18C39.7152 1267.18 37.8431 1265.66 37.7728 1263.55H40.0052C40.0755 1264.58 41.0511 1265.32 42.2552 1265.33C43.6791 1265.32 44.7074 1264.29 44.6986 1262.89C44.7074 1261.43 43.6527 1260.4 42.1849 1260.39C41.1918 1260.38 40.4711 1260.73 40.0755 1261.48H37.9486L38.722 1254.27H46.2455V1256.19H40.6029L40.2162 1259.56H40.3392C40.8314 1259.01 41.7543 1258.61 42.8002 1258.6C45.1644 1258.61 46.9222 1260.36 46.9134 1262.82C46.9222 1265.36 45.0062 1267.18 42.2552 1267.18Z" fill="#0094EA"/>
<rect x="0.5" y="1315.5" width="250" height="59" rx="29.5" fill="white" stroke="#0094EA"/>
<path d="M62.25 1339.69H63.9375L67.75 1349H67.8906L71.7031 1339.69H73.3906V1351H72.0625V1342.45H71.9531L68.4375 1351H67.1875L63.6719 1342.45H63.5781V1351H62.25V1339.69ZM78.9613 1351.17C76.5081 1351.18 74.9925 1349.43 74.9925 1346.83C74.9925 1344.22 76.5316 1342.41 78.8363 1342.41C80.6175 1342.41 82.5003 1343.5 82.4925 1346.64V1347.2H76.3363C76.4066 1349 77.4534 1349.98 78.9613 1349.98C79.9769 1349.98 80.6175 1349.54 80.93 1349.02H82.3675C81.9691 1350.3 80.7113 1351.18 78.9613 1351.17ZM76.3441 1346.06H81.1331C81.1253 1344.65 80.2347 1343.59 78.8363 1343.59C77.3675 1343.59 76.4378 1344.75 76.3441 1346.06ZM87.6256 1342.52V1343.64H85.8444V1348.56C85.8366 1349.65 86.3834 1349.83 86.9538 1349.83C87.1959 1349.83 87.5553 1349.8 87.7506 1349.8V1351.05C87.5397 1351.08 87.2116 1351.11 86.8131 1351.11C85.6803 1351.11 84.4928 1350.41 84.485 1348.91V1343.64H83.2038V1342.52H84.485V1340.48H85.8444V1342.52H87.6256ZM89.04 1351V1342.52H90.3369V1343.81H90.4306C90.7353 1342.95 91.6181 1342.38 92.6181 1342.38C92.8213 1342.38 93.165 1342.39 93.3213 1342.41V1343.77C93.2197 1343.74 92.8603 1343.67 92.5088 1343.67C91.29 1343.67 90.3838 1344.52 90.3838 1345.66V1351H89.04ZM97.5012 1351.17C95.1887 1351.18 93.6262 1349.43 93.6262 1346.8C93.6262 1344.15 95.1887 1342.41 97.5012 1342.41C99.8059 1342.41 101.353 1344.15 101.345 1346.8C101.353 1349.43 99.8059 1351.18 97.5012 1351.17ZM94.97 1346.8C94.9778 1348.49 95.7747 1349.98 97.5012 1349.98C99.2122 1349.98 100.001 1348.49 100.001 1346.8C100.001 1345.11 99.2122 1343.59 97.5012 1343.59C95.7747 1343.59 94.9778 1345.11 94.97 1346.8ZM104.134 1339.69V1351H102.791V1339.69H104.134ZM109.424 1351.17C107.111 1351.18 105.549 1349.43 105.549 1346.8C105.549 1344.15 107.111 1342.41 109.424 1342.41C111.728 1342.41 113.275 1344.15 113.268 1346.8C113.275 1349.43 111.728 1351.18 109.424 1351.17ZM106.893 1346.8C106.9 1348.49 107.697 1349.98 109.424 1349.98C111.135 1349.98 111.924 1348.49 111.924 1346.8C111.924 1345.11 111.135 1343.59 109.424 1343.59C107.697 1343.59 106.9 1345.11 106.893 1346.8ZM118.151 1354.36C116.096 1354.36 114.705 1353.46 114.557 1351.89H115.963C116.143 1352.76 116.947 1353.19 118.151 1353.19C119.604 1353.19 120.494 1352.55 120.494 1351.16V1349.44H120.385C120.096 1349.91 119.557 1350.87 117.916 1350.88C115.854 1350.87 114.307 1349.31 114.307 1346.64C114.307 1344.03 115.799 1342.41 117.932 1342.41C119.58 1342.41 120.112 1343.41 120.416 1343.86H120.526V1342.52H121.838V1351.23C121.83 1353.42 120.221 1354.36 118.151 1354.36ZM115.666 1346.69C115.666 1348.45 116.494 1349.67 118.104 1349.67C119.658 1349.67 120.518 1348.55 120.526 1346.69C120.518 1344.87 119.682 1343.61 118.104 1343.61C116.471 1343.61 115.666 1344.98 115.666 1346.69ZM124.518 1354.19C124.229 1354.18 123.94 1354.17 123.768 1354.16V1352.95C123.909 1352.97 124.213 1352.98 124.424 1352.98C124.971 1352.98 125.432 1352.95 125.877 1351.7L126.127 1351.06L122.987 1342.52H124.456L126.768 1349.25H126.862L129.174 1342.52H130.643L127.049 1352.22C126.549 1353.55 125.721 1354.18 124.518 1354.19ZM138.706 1351.16C136.48 1351.16 135.097 1349.83 135.097 1348C135.097 1346.62 136.011 1345.78 137.331 1344.87C136.558 1343.94 136.019 1343.16 136.019 1342.16C136.019 1340.62 137.097 1339.58 138.769 1339.58C140.472 1339.58 141.519 1340.68 141.519 1341.95C141.519 1343.03 140.941 1343.78 140.019 1344.47L139.191 1345.09L141.628 1348.05C141.917 1347.48 142.097 1346.8 142.097 1346.03H143.394C143.386 1347.6 142.917 1348.53 142.48 1349.09L144.05 1351H142.441L141.644 1350.05C140.909 1350.79 139.745 1351.16 138.706 1351.16ZM136.472 1348C136.472 1349.05 137.339 1349.97 138.675 1349.97C139.448 1349.97 140.222 1349.66 140.839 1349.09L138.159 1345.86L137.769 1346.16C136.753 1346.89 136.472 1347.67 136.472 1348ZM137.363 1342.17C137.363 1342.8 137.823 1343.43 138.378 1344.1L139.128 1343.55C139.753 1343.13 140.167 1342.71 140.175 1341.95C140.167 1341.39 139.62 1340.73 138.816 1340.73C137.964 1340.73 137.363 1341.48 137.363 1342.17ZM148.176 1340.94V1339.69H156.707V1340.94H153.16V1351H151.738V1340.94H148.176ZM160.418 1351.17C157.965 1351.18 156.449 1349.43 156.449 1346.83C156.449 1344.22 157.988 1342.41 160.293 1342.41C162.074 1342.41 163.957 1343.5 163.949 1346.64V1347.2H157.793C157.863 1349 158.91 1349.98 160.418 1349.98C161.434 1349.98 162.074 1349.54 162.387 1349.02H163.824C163.426 1350.3 162.168 1351.18 160.418 1351.17ZM157.801 1346.06H162.59C162.582 1344.65 161.692 1343.59 160.293 1343.59C158.824 1343.59 157.895 1344.75 157.801 1346.06ZM170.098 1344.72C169.911 1344.02 169.372 1343.55 168.379 1343.55C167.332 1343.55 166.59 1344.12 166.582 1344.83C166.59 1345.39 167.043 1345.77 168.036 1346.02L169.301 1346.33C170.817 1346.69 171.559 1347.45 171.567 1348.62C171.559 1350.09 170.364 1351.18 168.239 1351.17C166.332 1351.18 165.2 1350.33 164.973 1348.78H166.379C166.536 1349.61 167.137 1350.01 168.207 1350C169.418 1350.01 170.176 1349.5 170.176 1348.7C170.176 1348.1 169.747 1347.71 168.786 1347.48L167.504 1347.19C166.028 1346.84 165.239 1346.04 165.239 1344.91C165.239 1343.45 166.512 1342.41 168.379 1342.41C170.137 1342.41 171.239 1343.34 171.411 1344.72H170.098ZM176.7 1342.52V1343.64H174.919V1348.56C174.911 1349.65 175.458 1349.83 176.028 1349.83C176.27 1349.83 176.63 1349.8 176.825 1349.8V1351.05C176.614 1351.08 176.286 1351.11 175.887 1351.11C174.755 1351.11 173.567 1350.41 173.559 1348.91V1343.64H172.278V1342.52H173.559V1340.48H174.919V1342.52H176.7ZM181.357 1340.94V1339.69H189.888V1340.94H186.341V1351H184.919V1340.94H181.357ZM193.599 1351.17C191.146 1351.18 189.631 1349.43 189.631 1346.83C189.631 1344.22 191.17 1342.41 193.474 1342.41C195.256 1342.41 197.138 1343.5 197.131 1346.64V1347.2H190.974C191.045 1349 192.092 1349.98 193.599 1349.98C194.615 1349.98 195.256 1349.54 195.568 1349.02H197.006C196.607 1350.3 195.349 1351.18 193.599 1351.17ZM190.982 1346.06H195.771C195.763 1344.65 194.873 1343.59 193.474 1343.59C192.006 1343.59 191.076 1344.75 190.982 1346.06ZM202.029 1351.17C199.623 1351.18 198.154 1349.34 198.154 1346.8C198.154 1344.22 199.693 1342.41 201.998 1342.41C203.803 1342.41 205.162 1343.48 205.373 1345.08H204.029C203.834 1344.3 203.162 1343.59 202.029 1343.59C200.514 1343.59 199.506 1344.84 199.498 1346.75C199.506 1348.71 200.49 1349.97 202.029 1349.97C203.029 1349.97 203.795 1349.43 204.029 1348.5H205.373C205.162 1350.02 203.912 1351.18 202.029 1351.17ZM208.053 1345.91V1351H206.709V1339.69H208.053V1343.84H208.163C208.561 1342.97 209.319 1342.41 210.663 1342.41C212.397 1342.41 213.553 1343.43 213.553 1345.61V1351H212.209V1345.7C212.209 1344.37 211.475 1343.61 210.256 1343.61C208.991 1343.61 208.053 1344.44 208.053 1345.91ZM216.342 1351.09C215.796 1351.09 215.327 1350.63 215.342 1350.08C215.327 1349.53 215.796 1349.08 216.342 1349.08C216.897 1349.08 217.35 1349.53 217.342 1350.08C217.35 1350.63 216.897 1351.09 216.342 1351.09Z" fill="#555555"/>
<path d="M33.7031 1342.33C33.29 1340.98 32.2441 1340.15 30.6973 1340.15C28.6494 1340.15 27.1553 1341.75 27.1641 1344.62C27.1553 1347.51 28.623 1349.12 30.75 1349.12C32.6748 1349.12 33.8965 1347.96 33.9316 1346.15H30.9785V1344.34H36.1465V1345.87C36.1465 1349.15 33.8965 1351.18 30.75 1351.18C27.2344 1351.18 24.8525 1348.67 24.8613 1344.64C24.8525 1340.55 27.3486 1338.1 30.6797 1338.1C33.4834 1338.1 35.6543 1339.84 36.041 1342.33H33.7031ZM42.5013 1351.18C40.014 1351.16 37.5355 1349.68 37.5443 1344.99C37.5443 1340.64 39.5218 1338.1 42.642 1338.1C45.0941 1338.1 46.7816 1339.64 47.0716 1341.7H44.8041C44.5755 1340.73 43.8021 1340.08 42.642 1340.08C40.7963 1340.08 39.7679 1341.71 39.7591 1344.39H39.8822C40.5326 1343.29 41.7543 1342.64 43.1517 1342.65C45.4369 1342.64 47.2035 1344.37 47.1947 1346.78C47.2035 1349.31 45.3138 1351.19 42.5013 1351.18ZM40.0052 1346.85C40.0228 1348.18 41.0599 1349.32 42.5013 1349.33C43.9164 1349.32 44.9711 1348.23 44.9798 1346.83C44.9711 1345.48 43.9515 1344.39 42.5365 1344.39C41.1039 1344.39 40.0228 1345.52 40.0052 1346.85Z" fill="#0094EA"/>
<rect x="0.5" y="1483.5" width="250" height="59" rx="29.5" fill="white" stroke="#0094EA"/>
<path d="M73.0312 1506.39V1516.55H71.8125V1506.39H73.0312ZM61.8906 1510.77C61.8828 1508.77 63.4531 1507.37 65.5312 1507.36C67.6094 1507.37 69.1641 1508.77 69.1719 1510.77C69.1641 1512.79 67.6094 1514.2 65.5312 1514.19C63.4531 1514.2 61.8828 1512.79 61.8906 1510.77ZM63.0938 1510.77C63.0781 1512.15 64.125 1513.11 65.5312 1513.11C66.9141 1513.11 67.9688 1512.15 67.9688 1510.77C67.9688 1509.41 66.9141 1508.44 65.5312 1508.44C64.125 1508.44 63.0781 1509.41 63.0938 1510.77ZM64.0625 1519.97V1515.52H65.2812V1518.94H73.4688V1519.97H64.0625ZM81.3519 1515.16C84.3284 1515.16 86.2191 1516.09 86.2269 1517.7C86.2191 1519.3 84.3284 1520.23 81.3519 1520.23C78.3753 1520.23 76.4847 1519.3 76.4925 1517.7C76.4847 1516.09 78.3753 1515.16 81.3519 1515.16ZM75.0863 1513.86V1512.86H80.3206V1510.17H81.5238V1512.86H87.7269V1513.86H75.0863ZM76.5863 1508.09V1507.09H86.1175V1508.27C86.1097 1509.39 86.1097 1510.52 85.7269 1511.95L84.5238 1511.81C84.8988 1510.38 84.8988 1509.35 84.8988 1508.27V1508.09H76.5863ZM77.7113 1517.7C77.7034 1518.67 79.1409 1519.27 81.3519 1519.27C83.5706 1519.27 84.9925 1518.67 85.0081 1517.7C84.9925 1516.71 83.5706 1516.1 81.3519 1516.09C79.1409 1516.1 77.7034 1516.71 77.7113 1517.7ZM93.5475 1510.64C93.5553 1513 95.2663 1515.4 97.3131 1516.28L96.6256 1517.25C95.0006 1516.52 93.6022 1514.91 92.9538 1512.99C92.3053 1515.03 90.8991 1516.8 89.3131 1517.59L88.5788 1516.62C90.5709 1515.67 92.3053 1513.05 92.3131 1510.64V1508.83H89.0319V1507.81H96.86V1508.83H93.5475V1510.64ZM98.7975 1520.27V1506.38H100.032V1520.27H98.7975ZM113.306 1510.27V1511.28H103.821V1506.66H105.04V1510.27H113.306ZM102.087 1513.92V1512.91H114.759V1513.92H102.087ZM103.618 1517.69C103.61 1516.07 105.415 1515.16 108.415 1515.17C111.392 1515.16 113.181 1516.07 113.196 1517.69C113.181 1519.3 111.392 1520.2 108.415 1520.2C105.415 1520.2 103.61 1519.3 103.618 1517.69ZM104.868 1517.69C104.853 1518.66 106.188 1519.24 108.415 1519.25C110.618 1519.24 111.954 1518.66 111.962 1517.69C111.954 1516.7 110.618 1516.15 108.415 1516.14C106.188 1516.15 104.853 1516.7 104.868 1517.69Z" fill="#555555"/>
<path d="M33.7031 1510.33C33.29 1508.98 32.2441 1508.15 30.6973 1508.15C28.6494 1508.15 27.1553 1509.75 27.1641 1512.62C27.1553 1515.51 28.623 1517.12 30.75 1517.12C32.6748 1517.12 33.8965 1515.96 33.9316 1514.15H30.9785V1512.34H36.1465V1513.87C36.1465 1517.15 33.8965 1519.18 30.75 1519.18C27.2344 1519.18 24.8525 1516.67 24.8613 1512.64C24.8525 1508.55 27.3486 1506.1 30.6797 1506.1C33.4834 1506.1 35.6543 1507.84 36.041 1510.33H33.7031ZM42.3607 1519.18C39.5218 1519.18 37.5179 1517.66 37.5267 1515.59C37.5179 1513.97 38.722 1512.65 40.2513 1512.41V1512.34C38.9154 1512.06 38.0101 1510.9 38.0013 1509.51C38.0101 1507.54 39.847 1506.1 42.3607 1506.1C44.8568 1506.1 46.7025 1507.54 46.7025 1509.51C46.7025 1510.91 45.7709 1512.06 44.4525 1512.34V1512.41C45.973 1512.65 47.1859 1513.97 47.1947 1515.59C47.1859 1517.66 45.1732 1519.18 42.3607 1519.18ZM39.8822 1515.38C39.8734 1516.56 40.849 1517.37 42.3607 1517.37C43.8548 1517.37 44.8304 1516.56 44.8392 1515.38C44.8304 1514.18 43.7933 1513.3 42.3607 1513.3C40.9281 1513.3 39.8734 1514.17 39.8822 1515.38ZM40.2338 1509.72C40.2425 1510.83 41.1214 1511.6 42.3607 1511.6C43.5824 1511.6 44.4701 1510.83 44.4701 1509.72C44.4701 1508.64 43.6088 1507.89 42.3607 1507.89C41.0863 1507.89 40.2425 1508.64 40.2338 1509.72Z" fill="#0094EA"/>
<rect x="0.5" y="1399.5" width="250" height="59" rx="29.5" fill="white" stroke="#0094EA"/>
<path d="M69.9688 1427.25C69.6406 1425.69 68.3047 1424.84 66.8125 1424.84C64.7656 1424.84 63.1797 1426.42 63.1719 1429.34C63.1797 1432.26 64.7656 1433.84 66.8125 1433.84C68.3047 1433.84 69.6328 1433 69.9688 1431.45H71.375C70.9688 1433.77 69.1094 1435.16 66.8125 1435.16C63.9062 1435.16 61.8047 1432.92 61.8125 1429.34C61.8047 1425.77 63.9062 1423.53 66.8125 1423.53C69.1016 1423.53 70.9531 1424.9 71.375 1427.25H69.9688ZM72.8519 1435V1426.52H74.1956V1435H72.8519ZM72.5863 1424.22C72.5784 1423.72 73.0081 1423.32 73.5238 1423.33C74.0394 1423.32 74.4691 1423.72 74.4769 1424.22C74.4691 1424.71 74.0394 1425.11 73.5238 1425.11C73.0081 1425.11 72.5784 1424.71 72.5863 1424.22ZM76.0162 1435V1426.52H77.3131V1427.81H77.4069C77.7116 1426.95 78.5944 1426.38 79.5944 1426.38C79.7975 1426.38 80.1412 1426.39 80.2975 1426.41V1427.77C80.1959 1427.74 79.8366 1427.67 79.485 1427.67C78.2662 1427.67 77.36 1428.52 77.36 1429.66V1435H76.0162ZM84.4775 1435.17C82.0713 1435.18 80.6025 1433.34 80.6025 1430.8C80.6025 1428.22 82.1416 1426.41 84.4463 1426.41C86.2509 1426.41 87.6103 1427.48 87.8213 1429.08H86.4775C86.2822 1428.3 85.6103 1427.59 84.4775 1427.59C82.9619 1427.59 81.9541 1428.84 81.9463 1430.75C81.9541 1432.71 82.9384 1433.97 84.4775 1433.97C85.4775 1433.97 86.2431 1433.43 86.4775 1432.5H87.8213C87.6103 1434.02 86.3603 1435.18 84.4775 1435.17ZM94.5169 1431.52V1426.52H95.845V1435H94.5169V1433.56H94.4231C94.0247 1434.42 93.1809 1435.11 91.9075 1435.11C90.2981 1435.11 89.1497 1434.06 89.1575 1431.91V1426.52H90.5012V1431.81C90.5012 1433.03 91.2591 1433.82 92.345 1433.81C93.3059 1433.82 94.5091 1433.1 94.5169 1431.52ZM97.6813 1435V1426.52H99.025V1435H97.6813ZM97.4156 1424.22C97.4078 1423.72 97.8375 1423.32 98.3531 1423.33C98.8688 1423.32 99.2984 1423.72 99.3063 1424.22C99.2984 1424.71 98.8688 1425.11 98.3531 1425.11C97.8375 1425.11 97.4078 1424.71 97.4156 1424.22ZM104.549 1426.52V1427.64H102.768V1432.56C102.76 1433.65 103.307 1433.83 103.877 1433.83C104.119 1433.83 104.478 1433.8 104.674 1433.8V1435.05C104.463 1435.08 104.135 1435.11 103.736 1435.11C102.603 1435.11 101.416 1434.41 101.408 1432.91V1427.64H100.127V1426.52H101.408V1424.48H102.768V1426.52H104.549ZM112.862 1435.16C110.635 1435.16 109.252 1433.83 109.252 1432C109.252 1430.62 110.167 1429.78 111.487 1428.87C110.713 1427.94 110.174 1427.16 110.174 1426.16C110.174 1424.62 111.252 1423.58 112.924 1423.58C114.627 1423.58 115.674 1424.68 115.674 1425.95C115.674 1427.03 115.096 1427.78 114.174 1428.47L113.346 1429.09L115.784 1432.05C116.073 1431.48 116.252 1430.8 116.252 1430.03H117.549C117.542 1431.6 117.073 1432.53 116.635 1433.09L118.206 1435H116.596L115.799 1434.05C115.065 1434.79 113.901 1435.16 112.862 1435.16ZM110.627 1432C110.627 1433.05 111.495 1433.97 112.831 1433.97C113.604 1433.97 114.377 1433.66 114.995 1433.09L112.315 1429.86L111.924 1430.16C110.909 1430.89 110.627 1431.67 110.627 1432ZM111.518 1426.17C111.518 1426.8 111.979 1427.43 112.534 1428.1L113.284 1427.55C113.909 1427.13 114.323 1426.71 114.331 1425.95C114.323 1425.39 113.776 1424.73 112.971 1424.73C112.12 1424.73 111.518 1425.48 111.518 1426.17ZM129.128 1426.53C129.011 1425.42 127.98 1424.78 126.628 1424.78C125.128 1424.78 124.152 1425.56 124.144 1426.64C124.152 1427.83 125.472 1428.27 126.331 1428.48L127.456 1428.8C128.667 1429.11 130.659 1429.8 130.659 1431.92C130.659 1433.77 129.175 1435.2 126.55 1435.2C124.112 1435.2 122.605 1433.94 122.472 1432.06H123.909C124.027 1433.33 125.206 1433.93 126.55 1433.92C128.112 1433.93 129.284 1433.12 129.284 1431.89C129.284 1430.79 128.237 1430.37 127.05 1430.03L125.659 1429.66C123.886 1429.14 122.777 1428.23 122.784 1426.7C122.777 1424.79 124.48 1423.53 126.675 1423.53C128.87 1423.53 130.448 1424.81 130.503 1426.53H129.128ZM132.183 1435V1426.52H133.527V1435H132.183ZM131.918 1424.22C131.91 1423.72 132.339 1423.32 132.855 1423.33C133.371 1423.32 133.8 1423.72 133.808 1424.22C133.8 1424.71 133.371 1425.11 132.855 1425.11C132.339 1425.11 131.91 1424.71 131.918 1424.22ZM135.348 1435V1426.52H136.644V1427.84H136.754C137.105 1426.94 137.926 1426.41 139.035 1426.41C140.144 1426.41 140.902 1426.94 141.301 1427.84H141.394C141.824 1426.97 142.723 1426.41 143.941 1426.41C145.449 1426.41 146.535 1427.33 146.535 1429.33V1435H145.191V1429.34C145.183 1428.09 144.402 1427.61 143.473 1427.61C142.293 1427.61 141.621 1428.41 141.613 1429.48V1435H140.254V1429.2C140.262 1428.25 139.574 1427.61 138.598 1427.61C137.582 1427.61 136.691 1428.47 136.691 1429.7V1435H135.348ZM153.731 1431.52V1426.52H155.059V1435H153.731V1433.56H153.637C153.238 1434.42 152.395 1435.11 151.121 1435.11C149.512 1435.11 148.363 1434.06 148.371 1431.91V1426.52H149.715V1431.81C149.715 1433.03 150.473 1433.82 151.559 1433.81C152.52 1433.82 153.723 1433.1 153.731 1431.52ZM158.239 1423.69V1435H156.895V1423.69H158.239ZM159.653 1432.59C159.653 1430.65 161.372 1430.2 162.841 1430.09C163.387 1430.05 164.755 1429.98 165.137 1429.97V1429.28C165.137 1428.2 164.497 1427.58 163.216 1427.58C162.145 1427.58 161.497 1428.07 161.309 1428.72H159.903C160.075 1427.35 161.403 1426.41 163.278 1426.41C164.387 1426.41 166.473 1426.73 166.466 1429.41V1435H165.137V1433.84H165.075C164.794 1434.41 164.02 1435.2 162.544 1435.2C160.934 1435.2 159.653 1434.25 159.653 1432.59ZM160.997 1432.66C161.005 1433.55 161.747 1434.01 162.778 1434C164.294 1434.01 165.137 1432.99 165.137 1431.92V1431.07C164.739 1431.09 163.403 1431.2 162.997 1431.22C161.778 1431.3 161.005 1431.73 160.997 1432.66ZM172.005 1426.52V1427.64H170.224V1432.56C170.216 1433.65 170.763 1433.83 171.333 1433.83C171.575 1433.83 171.935 1433.8 172.13 1433.8V1435.05C171.919 1435.08 171.591 1435.11 171.192 1435.11C170.06 1435.11 168.872 1434.41 168.864 1432.91V1427.64H167.583V1426.52H168.864V1424.48H170.224V1426.52H172.005ZM173.419 1435V1426.52H174.763V1435H173.419ZM173.154 1424.22C173.146 1423.72 173.576 1423.32 174.091 1423.33C174.607 1423.32 175.037 1423.72 175.044 1424.22C175.037 1424.71 174.607 1425.11 174.091 1425.11C173.576 1425.11 173.146 1424.71 173.154 1424.22ZM180.052 1435.17C177.74 1435.18 176.177 1433.43 176.177 1430.8C176.177 1428.15 177.74 1426.41 180.052 1426.41C182.357 1426.41 183.904 1428.15 183.896 1430.8C183.904 1433.43 182.357 1435.18 180.052 1435.17ZM177.521 1430.8C177.529 1432.49 178.326 1433.98 180.052 1433.98C181.763 1433.98 182.552 1432.49 182.552 1430.8C182.552 1429.11 181.763 1427.59 180.052 1427.59C178.326 1427.59 177.529 1429.11 177.521 1430.8ZM186.686 1429.91V1435H185.342V1426.52H186.639V1427.84H186.748C187.147 1426.98 187.943 1426.41 189.232 1426.41C190.951 1426.41 192.1 1427.45 192.092 1429.61V1435H190.748V1429.7C190.748 1428.39 190.029 1427.61 188.826 1427.61C187.592 1427.61 186.686 1428.44 186.686 1429.91ZM197.171 1424.94V1423.69H205.702V1424.94H202.155V1435H200.733V1424.94H197.171ZM209.413 1435.17C206.96 1435.18 205.444 1433.43 205.444 1430.83C205.444 1428.22 206.983 1426.41 209.288 1426.41C211.069 1426.41 212.952 1427.5 212.944 1430.64V1431.2H206.788C206.858 1433 207.905 1433.98 209.413 1433.98C210.429 1433.98 211.069 1433.54 211.382 1433.02H212.819C212.421 1434.3 211.163 1435.18 209.413 1435.17ZM206.796 1430.06H211.585C211.577 1428.65 210.687 1427.59 209.288 1427.59C207.819 1427.59 206.89 1428.75 206.796 1430.06ZM217.843 1435.17C215.437 1435.18 213.968 1433.34 213.968 1430.8C213.968 1428.22 215.507 1426.41 217.812 1426.41C219.617 1426.41 220.976 1427.48 221.187 1429.08H219.843C219.648 1428.3 218.976 1427.59 217.843 1427.59C216.327 1427.59 215.32 1428.84 215.312 1430.75C215.32 1432.71 216.304 1433.97 217.843 1433.97C218.843 1433.97 219.609 1433.43 219.843 1432.5H221.187C220.976 1434.02 219.726 1435.18 217.843 1435.17ZM223.867 1429.91V1435H222.523V1423.69H223.867V1427.84H223.976C224.375 1426.97 225.133 1426.41 226.476 1426.41C228.211 1426.41 229.367 1427.43 229.367 1429.61V1435H228.023V1429.7C228.023 1428.37 227.289 1427.61 226.07 1427.61C224.804 1427.61 223.867 1428.44 223.867 1429.91Z" fill="#555555"/>
<path d="M33.7031 1426.33C33.29 1424.98 32.2441 1424.15 30.6973 1424.15C28.6494 1424.15 27.1553 1425.75 27.1641 1428.62C27.1553 1431.51 28.623 1433.12 30.75 1433.12C32.6748 1433.12 33.8965 1431.96 33.9316 1430.15H30.9785V1428.34H36.1465V1429.87C36.1465 1433.15 33.8965 1435.18 30.75 1435.18C27.2344 1435.18 24.8525 1432.67 24.8613 1428.64C24.8525 1424.55 27.3486 1422.1 30.6797 1422.1C33.4834 1422.1 35.6543 1423.84 36.041 1426.33H33.7031ZM38.2123 1435L43.7318 1424.28V1424.19H37.3334V1422.27H46.1048V1424.22L40.5853 1435H38.2123Z" fill="#0094EA"/>
<rect x="0.5" y="1567.5" width="250" height="59" rx="29.5" fill="white" stroke="#0094EA"/>
<path d="M66.5 1594.11C66.4922 1596.65 68.2188 1599.2 70.2656 1600.12L69.5156 1601.09C67.9297 1600.33 66.5625 1598.68 65.8984 1596.7C65.2578 1598.8 63.8906 1600.55 62.2656 1601.38L61.4844 1600.34C63.5547 1599.4 65.2656 1596.74 65.2812 1594.11V1591.58H66.5V1594.11ZM71.7812 1604.3V1590.38H73.0156V1604.3H71.7812ZM81.9925 1592.42C82.0003 1594.8 84.7191 1596.92 87.1331 1597.38L86.5706 1598.41C84.4691 1597.92 82.2659 1596.43 81.3675 1594.39C80.4613 1596.43 78.2659 1597.91 76.1644 1598.41L75.6019 1597.38C78.0081 1596.91 80.7034 1594.81 80.7113 1592.42V1591.36H81.9925V1592.42ZM75.0706 1602.38V1601.36H87.7894V1602.38H75.0706ZM94.5319 1591.28V1592.31H90.4069V1594.03H93.9538V1595H90.4069V1596.89C92.4225 1596.88 93.6647 1596.8 95.1569 1596.53L95.2819 1597.52C93.6725 1597.82 92.36 1597.88 90.11 1597.89H89.235V1591.28H94.5319ZM91.2038 1604.08V1599.39H100.376V1604.08H91.2038ZM92.4069 1603.08H99.1725V1600.39H92.4069V1603.08ZM94.61 1594.89V1593.88H96.485V1590.62H97.6725V1598.62H96.485V1594.89H94.61ZM99.2038 1598.75V1590.38H100.376V1598.75H99.2038ZM112.946 1590.39V1594.59H115.04V1595.62H112.946V1600.59H111.728V1590.39H112.946ZM102.681 1598.25V1591.39H103.884V1593.73H107.931V1591.39H109.149V1598.25H102.681ZM103.884 1597.25H107.931V1594.7H103.884V1597.25ZM104.259 1603.97V1599.59H105.462V1602.94H113.587V1603.97H104.259ZM126.814 1596.89V1597.89H122.517V1601.48H128.314V1602.52H115.595V1601.48H121.314V1597.89H117.22V1591.52H126.673V1592.52H118.454V1596.89H126.814ZM133.166 1594.66C133.173 1596.89 134.306 1599.18 136.197 1600.19L135.494 1601.11C134.111 1600.35 133.111 1598.91 132.603 1597.24C132.111 1599.02 131.119 1600.59 129.728 1601.42L128.994 1600.48C130.884 1599.39 132.002 1596.95 132.009 1594.66V1593.97H129.369V1592.95H132.009V1590.89H133.181V1592.95H135.775V1593.97H133.166V1594.66ZM134.822 1596.91V1595.86H137.009V1590.72H138.166V1603.55H137.009V1596.91H134.822ZM139.806 1604.27V1590.38H140.978V1604.27H139.806ZM157.823 1590.38V1597.56H156.588V1593.95H153.494V1592.94H156.588V1590.38H157.823ZM146.291 1596.61C148.385 1595.91 149.823 1594.17 149.838 1592.14V1590.83H151.041V1592.14C151.026 1593.96 152.463 1595.63 154.494 1596.3L153.838 1597.25C152.299 1596.7 151.073 1595.61 150.455 1594.2C149.862 1595.79 148.604 1597 146.963 1597.59L146.291 1596.61ZM148.823 1599.25V1598.27H157.823V1601.58H150.057V1603.09H158.338V1604.08H148.854V1600.64H156.604V1599.25H148.823ZM171.706 1590.38V1604.27H170.534V1590.38H171.706ZM159.799 1600.38C162.823 1598.59 164.338 1596.08 164.581 1593.17H160.424V1592.16H165.799C165.799 1592.87 165.737 1593.57 165.612 1594.25H167.721V1590.75H168.893V1603.56H167.721V1598.75H165.143V1597.73H167.721V1595.27H165.37C164.698 1597.62 163.174 1599.7 160.549 1601.27L159.799 1600.38Z" fill="#555555"/>
<path d="M33.7031 1594.33C33.29 1592.98 32.2441 1592.15 30.6973 1592.15C28.6494 1592.15 27.1553 1593.75 27.1641 1596.62C27.1553 1599.51 28.623 1601.12 30.75 1601.12C32.6748 1601.12 33.8965 1599.96 33.9316 1598.15H30.9785V1596.34H36.1465V1597.87C36.1465 1601.15 33.8965 1603.18 30.75 1603.18C27.2344 1603.18 24.8525 1600.67 24.8613 1596.64C24.8525 1592.55 27.3486 1590.1 30.6797 1590.1C33.4834 1590.1 35.6543 1591.84 36.041 1594.33H33.7031ZM42.2552 1590.1C44.7425 1590.12 47.2211 1591.6 47.2298 1596.25C47.2298 1600.64 45.2435 1603.18 42.1146 1603.18C39.6625 1603.18 37.9662 1601.65 37.6849 1599.54H39.9525C40.181 1600.55 40.9632 1601.19 42.1146 1601.19C43.9603 1601.19 44.9974 1599.56 45.015 1596.83H44.8744C44.2328 1597.94 43.0023 1598.6 41.6048 1598.59C39.3285 1598.6 37.5707 1596.87 37.5619 1594.46C37.5619 1591.97 39.4339 1590.08 42.2552 1590.1ZM39.7943 1594.4C39.7943 1595.78 40.8138 1596.85 42.2377 1596.85C43.6527 1596.85 44.7425 1595.71 44.7338 1594.39C44.7338 1593.09 43.6966 1591.95 42.2728 1591.94C40.8402 1591.95 39.7767 1593.04 39.7943 1594.4Z" fill="#0094EA"/>
<rect x="290" y="811" width="32" height="32" rx="4" fill="#B9DDF8"/>
<rect x="290" y="847" width="32" height="32" rx="4" fill="#B9DDF8"/>
<rect x="288" y="1059" width="32" height="32" rx="4" fill="#B9DDF8"/>
<rect x="288" y="1095" width="32" height="32" rx="4" fill="#B9DDF8"/>
<rect x="288" y="1227" width="32" height="32" rx="4" fill="#B9DDF8"/>
<rect x="288" y="1263" width="32" height="32" rx="4" fill="#B9DDF8"/>
<rect x="288" y="1479" width="32" height="32" rx="4" fill="#B9DDF8"/>
<rect x="288" y="1515" width="32" height="32" rx="4" fill="#B9DDF8"/>
<rect x="288" y="1143" width="32" height="32" rx="4" fill="#B9DDF8"/>
<rect x="288" y="1179" width="32" height="32" rx="4" fill="#B9DDF8"/>
<rect x="288" y="1395" width="32" height="32" rx="4" fill="#B9DDF8"/>
<rect x="288" y="1431" width="32" height="32" rx="4" fill="#B9DDF8"/>
<rect x="288" y="1311" width="32" height="32" rx="4" fill="#B9DDF8"/>
<rect x="288" y="1347" width="32" height="32" rx="4" fill="#B9DDF8"/>
<rect x="288" y="1563" width="32" height="32" rx="4" fill="#B9DDF8"/>
<rect x="288" y="1599" width="32" height="32" rx="4" fill="#B9DDF8"/>
<rect x="288" y="903" width="32" height="32" rx="4" fill="#B9DDF8"/>
<rect x="288" y="939" width="32" height="32" rx="4" fill="#B9DDF8"/>
<rect x="288" y="975" width="32" height="32" rx="4" fill="#B9DDF8"/>
<rect x="288" y="1011" width="32" height="32" rx="4" fill="#B9DDF8"/>
<path d="M30.2969 1658.05H29.2344L29.3281 1655.62L27.2656 1656.92L26.7344 1656L28.8906 1654.88L26.7344 1653.73L27.2656 1652.81L29.3281 1654.11L29.2344 1651.69H30.2969L30.2031 1654.11L32.2656 1652.81L32.7969 1653.73L30.6562 1654.88L32.7969 1656L32.2656 1656.92L30.2031 1655.62L30.2969 1658.05ZM41.735 1651.53C43.6803 1651.55 45.8444 1652.73 45.8444 1656.89C45.8444 1660.91 44.1959 1663.16 41.5475 1663.16C39.5553 1663.16 38.1569 1661.94 37.8756 1660.14H39.2662C39.5162 1661.16 40.2897 1661.91 41.5475 1661.91C43.3912 1661.91 44.5162 1660.31 44.5319 1657.56H44.3756C43.7272 1658.5 42.6881 1659.06 41.485 1659.06C39.4616 1659.06 37.7819 1657.51 37.7819 1655.33C37.7819 1653.22 39.3287 1651.51 41.735 1651.53ZM39.1569 1655.31C39.1491 1656.71 40.2116 1657.83 41.6881 1657.83C43.1647 1657.83 44.3131 1656.61 44.3131 1655.28C44.3131 1653.98 43.2272 1652.77 41.735 1652.77C40.2584 1652.77 39.1412 1653.91 39.1569 1655.31ZM58.8213 1650.38V1664.27H57.6181V1657H55.6963V1663.58H54.5244V1650.75H55.6963V1655.98H57.6181V1650.38H58.8213ZM46.9775 1660.42C50.2041 1658.62 51.5322 1656.08 51.7431 1653.2H47.5088V1652.19H52.9463C52.9306 1655.72 51.6884 1659.05 47.6963 1661.28L46.9775 1660.42ZM75.6813 1650.39V1660.66H74.4469V1656.91H70.8531C70.2125 1657.73 69.1813 1658.22 67.9938 1658.22C65.9156 1658.22 64.3766 1656.78 64.3844 1654.75C64.3766 1652.71 65.9156 1651.27 67.9938 1651.27C69.1734 1651.27 70.1891 1651.76 70.8375 1652.56H74.4469V1650.39H75.6813ZM65.5563 1654.75C65.5563 1656.14 66.5719 1657.13 67.9938 1657.12C69.3609 1657.13 70.4 1656.14 70.4 1654.75C70.4 1653.37 69.3609 1652.37 67.9938 1652.36C66.5719 1652.37 65.5563 1653.37 65.5563 1654.75ZM66.7594 1663.97V1659.58H67.9938V1662.94H76.0719V1663.97H66.7594ZM71.3922 1653.58C71.5172 1653.94 71.5875 1654.33 71.5875 1654.75C71.5875 1655.16 71.5172 1655.54 71.4 1655.89H74.4469V1653.58H71.3922ZM88.6581 1651.28V1652.5C88.6581 1653.81 88.6581 1655.26 88.2597 1657.25H90.33V1658.27H84.5956V1664.3H83.3613V1658.27H77.6738V1657.25H87.0175C87.4394 1655.25 87.4394 1653.8 87.4394 1652.5V1652.3H79.2675V1651.28H88.6581ZM102.135 1651.86V1653.25C102.135 1655 102.135 1656.98 101.619 1660L100.369 1659.88C100.932 1657.03 100.932 1654.95 100.932 1653.25V1652.88H92.5569V1651.86H102.135ZM91.1819 1662.22V1661.2H103.838V1662.22H91.1819ZM117.393 1657.25V1658.27H111.612V1660H110.409V1658.27H104.674V1657.25H117.393ZM106.284 1651.62V1650.67H115.753V1653.84H107.549V1655.19H116.049V1656.14H106.331V1652.92H114.518V1651.62H106.284ZM106.378 1664.08V1659.16H107.596V1660.72H114.518V1659.16H115.737V1664.08H106.378ZM107.596 1663.11H114.518V1661.66H107.596V1663.11ZM126.159 1651.53C128.105 1651.55 130.269 1652.73 130.269 1656.89C130.269 1660.91 128.62 1663.16 125.972 1663.16C123.98 1663.16 122.581 1661.94 122.3 1660.14H123.691C123.941 1661.16 124.714 1661.91 125.972 1661.91C127.816 1661.91 128.941 1660.31 128.956 1657.56H128.8C128.152 1658.5 127.113 1659.06 125.909 1659.06C123.886 1659.06 122.206 1657.51 122.206 1655.33C122.206 1653.22 123.753 1651.51 126.159 1651.53ZM123.581 1655.31C123.573 1656.71 124.636 1657.83 126.113 1657.83C127.589 1657.83 128.738 1656.61 128.738 1655.28C128.738 1653.98 127.652 1652.77 126.159 1652.77C124.683 1652.77 123.566 1653.91 123.581 1655.31ZM135.574 1663.16C133.535 1663.16 131.988 1661.9 131.902 1660.16H133.261C133.363 1661.16 134.347 1661.91 135.574 1661.92C137.043 1661.91 138.105 1660.84 138.105 1659.42C138.105 1657.95 137.003 1656.87 135.48 1656.86C134.527 1656.84 133.785 1657.14 133.371 1657.88H132.011L132.808 1651.69H138.933V1652.94H133.98L133.558 1656.25H133.668C134.175 1655.86 134.933 1655.59 135.73 1655.59C137.886 1655.59 139.472 1657.19 139.48 1659.39C139.472 1661.58 137.832 1663.16 135.574 1663.16ZM152.473 1650.38V1664.27H151.269V1657H149.348V1663.58H148.176V1650.75H149.348V1655.98H151.269V1650.38H152.473ZM140.629 1660.42C143.855 1658.62 145.183 1656.08 145.394 1653.2H141.16V1652.19H146.598C146.582 1655.72 145.34 1659.05 141.348 1661.28L140.629 1660.42ZM161.942 1654.33C161.942 1656.54 163.02 1658.92 164.864 1660.02L164.161 1660.97C162.817 1660.16 161.856 1658.67 161.372 1656.98C160.864 1658.83 159.833 1660.42 158.442 1661.27L157.661 1660.34C159.583 1659.22 160.754 1656.76 160.754 1654.38V1651.69H161.942V1654.33ZM163.333 1656.41V1655.36H165.692V1650.67H166.848V1663.56H165.692V1656.41H163.333ZM168.536 1664.27V1650.38H169.723V1664.27H168.536ZM184.028 1658.62V1659.62H178.231V1664.27H177.028V1659.62H171.309V1658.62H184.028ZM172.934 1656.94V1650.95H174.153V1652.88H181.153V1650.95H182.387V1656.94H172.934ZM174.153 1655.94H181.153V1653.88H174.153V1655.94ZM192.536 1651.92V1652.64C192.528 1653.74 192.528 1655.58 192.13 1658.16L190.896 1658.05C191.278 1655.72 191.31 1654.03 191.302 1652.92H185.474V1651.92H192.536ZM184.693 1660.19C185.607 1660.18 186.622 1660.17 187.693 1660.15V1655.89H188.896V1660.11C190.435 1660.05 192.013 1659.95 193.458 1659.78L193.521 1660.7C190.599 1661.16 187.333 1661.22 184.849 1661.2L184.693 1660.19ZM194.333 1664.27V1650.38H195.552V1656.19H197.802V1657.25H195.552V1664.27H194.333ZM210.216 1650.38V1664.27H209.044V1650.38H210.216ZM198.169 1660.56C200.107 1659.41 201.24 1656.87 201.232 1654.34V1653.03H198.56V1652.02H204.966V1653.03H202.419V1654.34C202.419 1656.74 203.505 1659.14 205.419 1660.25L204.669 1661.16C203.302 1660.34 202.333 1658.84 201.849 1657.07C201.349 1658.98 200.341 1660.62 198.951 1661.48L198.169 1660.56ZM203.904 1656.39V1655.39H206.247V1650.72H207.404V1663.55H206.247V1656.39H203.904Z" fill="#0094EA"/>
<line x1="251" y1="842.5" x2="271" y2="842.5" stroke="#39A3ED"/>
<line x1="270.167" y1="863" x2="270.167" y2="826" stroke="#39A3ED"/>
<line x1="269.704" y1="826.5" x2="288" y2="826.5" stroke="#39A3ED"/>
<line x1="269.704" y1="862.5" x2="288" y2="862.5" stroke="#39A3ED"/>
<line x1="251" y1="1091.5" x2="271" y2="1091.5" stroke="#39A3ED"/>
<line x1="270.167" y1="1112" x2="270.167" y2="1075" stroke="#39A3ED"/>
<line x1="269.704" y1="1075.5" x2="288" y2="1075.5" stroke="#39A3ED"/>
<line x1="269.704" y1="1111.5" x2="288" y2="1111.5" stroke="#39A3ED"/>
<line x1="251" y1="971.5" x2="271" y2="971.5" stroke="#39A3ED"/>
<line x1="270.167" y1="1027" x2="274.019" y2="919" stroke="#39A3ED"/>
<line x1="269.704" y1="918.5" x2="288" y2="918.5" stroke="#39A3ED"/>
<line x1="269.704" y1="954.5" x2="288" y2="954.5" stroke="#39A3ED"/>
<line x1="269.704" y1="990.5" x2="288" y2="990.5" stroke="#39A3ED"/>
<line x1="269.704" y1="1026.5" x2="288" y2="1026.5" stroke="#39A3ED"/>
<line x1="251" y1="1175.5" x2="271" y2="1175.5" stroke="#39A3ED"/>
<line x1="270.167" y1="1196" x2="270.167" y2="1159" stroke="#39A3ED"/>
<line x1="269.704" y1="1159.5" x2="288" y2="1159.5" stroke="#39A3ED"/>
<line x1="269.704" y1="1195.5" x2="288" y2="1195.5" stroke="#39A3ED"/>
<line x1="251" y1="1259.5" x2="271" y2="1259.5" stroke="#39A3ED"/>
<line x1="270.167" y1="1280" x2="270.167" y2="1243" stroke="#39A3ED"/>
<line x1="269.704" y1="1243.5" x2="288" y2="1243.5" stroke="#39A3ED"/>
<line x1="269.704" y1="1279.5" x2="288" y2="1279.5" stroke="#39A3ED"/>
<line x1="251" y1="1343.5" x2="271" y2="1343.5" stroke="#39A3ED"/>
<line x1="270.167" y1="1364" x2="270.167" y2="1327" stroke="#39A3ED"/>
<line x1="269.704" y1="1327.5" x2="288" y2="1327.5" stroke="#39A3ED"/>
<line x1="269.704" y1="1363.5" x2="288" y2="1363.5" stroke="#39A3ED"/>
<line x1="251" y1="1427.5" x2="271" y2="1427.5" stroke="#39A3ED"/>
<line x1="270.167" y1="1448" x2="270.167" y2="1411" stroke="#39A3ED"/>
<line x1="269.704" y1="1411.5" x2="288" y2="1411.5" stroke="#39A3ED"/>
<line x1="269.704" y1="1447.5" x2="288" y2="1447.5" stroke="#39A3ED"/>
<line x1="251" y1="1511.5" x2="271" y2="1511.5" stroke="#39A3ED"/>
<line x1="270.167" y1="1532" x2="270.167" y2="1495" stroke="#39A3ED"/>
<line x1="269.704" y1="1495.5" x2="288" y2="1495.5" stroke="#39A3ED"/>
<line x1="269.704" y1="1531.5" x2="288" y2="1531.5" stroke="#39A3ED"/>
<line x1="251" y1="1595.5" x2="271" y2="1595.5" stroke="#39A3ED"/>
<line x1="270.167" y1="1616" x2="270.167" y2="1579" stroke="#39A3ED"/>
<line x1="269.704" y1="1579.5" x2="288" y2="1579.5" stroke="#39A3ED"/>
<line x1="269.704" y1="1615.5" x2="288" y2="1615.5" stroke="#39A3ED"/>
<path d="M293.062 787.688V799H291.641V789.156H291.578L288.828 790.984V789.562L291.641 787.688H293.062ZM299.383 790.328C299.383 792.539 300.461 794.922 302.305 796.016L301.602 796.969C300.258 796.156 299.297 794.672 298.813 792.977C298.305 794.828 297.274 796.422 295.883 797.266L295.102 796.344C297.024 795.219 298.196 792.758 298.196 790.375V787.688H299.383V790.328ZM300.774 792.406V791.359H303.133V786.672H304.289V799.562H303.133V792.406H300.774ZM305.977 800.266V786.375H307.164V800.266H305.977ZM321.469 794.625V795.625H315.673V800.266H314.469V795.625H308.751V794.625H321.469ZM310.376 792.938V786.953H311.594V788.875H318.594V786.953H319.829V792.938H310.376ZM311.594 791.938H318.594V789.875H311.594V791.938Z" fill="#333333"/>
<path d="M160 187L230.711 216.289L260 287L230.711 357.711L160 387L89.2893 357.711L60 287L89.2893 216.289L160 187Z" fill="#0094EA"/>
<path d="M135.952 249.742V261.441H127.553V249.742H135.952ZM129.702 259.703H133.842V251.441H129.702V259.703ZM139.116 265.758V248.082H141.303V265.758H139.116ZM150.688 249.879V256.461H146.118V259.898C147.905 259.879 149.614 259.811 151.587 259.488L151.743 261.246C149.36 261.646 147.427 261.705 145.239 261.715H144.028V254.703H148.598V251.637H144.009V249.879H150.688ZM152.641 264.84V248.414H154.634V254.859H156.626V248.082H158.696V265.738H156.626V256.617H154.634V264.84H152.641ZM176.519 261.793V263.551H160.386V261.793H167.3V257.711H169.448V261.793H176.519ZM160.855 256.344C164.546 255.748 167.193 253.102 167.202 250.445V249.156H169.507V250.445C169.507 253.111 172.173 255.748 175.894 256.344L174.956 258.141C171.978 257.574 169.527 255.865 168.355 253.551C167.193 255.855 164.771 257.584 161.792 258.141L160.855 256.344ZM183.599 253.102C183.589 255.826 185.23 258.932 188.013 260.23L186.802 261.949C184.81 261.012 183.336 259.117 182.545 256.91C181.744 259.332 180.201 261.402 178.17 262.379L176.9 260.68C179.712 259.342 181.421 256.041 181.431 253.102V251.617H177.584V249.82H187.291V251.617H183.599V253.102ZM188.931 265.738V248.082H191.099V254.957H193.814V256.773H191.099V265.738H188.931ZM124.535 278.102V291.461H122.348V289.918H118.891V288.395H122.348V278.102H124.535ZM109.652 286.031C112.904 286.012 117.289 285.982 121.039 285.504L121.156 287.066C119.701 287.311 118.197 287.467 116.703 287.574V290.973H114.535V287.691C112.885 287.76 111.312 287.77 109.926 287.77L109.652 286.031ZM111 281.871C111 280.006 112.797 278.736 115.414 278.746C117.982 278.736 119.789 280.006 119.809 281.871C119.789 283.766 117.982 284.967 115.414 284.977C112.797 284.967 111 283.766 111 281.871ZM111.996 295.387V290.172H114.164V293.629H124.945V295.387H111.996ZM113.051 281.871C113.051 282.828 113.998 283.385 115.414 283.395C116.762 283.385 117.729 282.828 117.738 281.871C117.729 280.914 116.762 280.338 115.414 280.348C113.998 280.338 113.051 280.914 113.051 281.871ZM132.963 282.262C132.954 284.361 134.428 286.402 137.221 287.262L136.166 288.961C134.164 288.365 132.709 287.086 131.909 285.465C131.127 287.213 129.672 288.59 127.612 289.254L126.557 287.555C129.34 286.686 130.795 284.527 130.795 282.262V281.988H127.104V280.27H130.795V278.199H132.983V280.27H136.655V281.988H132.963V282.262ZM129.819 295.387V290.074H131.987V293.629H141.85V295.387H129.819ZM136.069 285.094V283.355H139.233V278.102H141.401V291.207H139.233V285.094H136.069ZM158.247 278.082V295.738H156.059V278.082H158.247ZM143.618 290.875C148.247 288.678 150.376 285.689 150.766 281.676H144.516V279.957H152.973C152.973 285.211 150.932 289.674 144.751 292.613L143.618 290.875ZM169.546 278.648C169.546 280.533 171.958 282.252 175.64 282.652L174.917 284.293C171.919 283.951 169.546 282.76 168.413 281.041C167.28 282.76 164.907 283.951 161.948 284.293L161.206 282.652C164.907 282.252 167.31 280.533 167.32 278.648V278.18H169.546V278.648ZM160.386 286.891V285.172H176.48V286.891H169.487V288.258H174.468V292.633H164.429V293.922H174.956V295.582H162.3V291.07H172.339V289.918H162.28V288.258H167.32V286.891H160.386ZM192.427 278.082V295.738H190.338V286.676H188.443V294.918H186.412V278.551H188.443V284.918H190.338V278.082H192.427ZM177.134 290.543C180.894 288.375 182.486 285.582 182.798 282.047H177.955V280.309H184.908C184.908 285.084 183.404 289.186 178.384 292.047L177.134 290.543ZM196.91 278.863V281.109H201.031V278.863H203.18V286.559H194.762V278.863H196.91ZM196.539 289.527V287.828H208.082V292.457H198.707V293.863H208.629V295.582H196.559V290.875H205.914V289.527H196.539ZM196.91 284.84H201.031V282.75H196.91V284.84ZM205.914 287.125V278.082H208.082V281.656H210.543V283.414H208.082V287.125H205.914ZM141.367 312.32C141.347 315.475 142.929 318.658 145.664 319.977L144.336 321.715C142.421 320.748 141.045 318.883 140.293 316.637C139.521 319.039 138.076 321.031 136.054 322.047L134.726 320.309C137.568 318.961 139.189 315.582 139.199 312.32V309.508H141.367V312.32ZM146.718 325.738V308.082H148.886V314.996H151.601V316.852H148.886V325.738H146.718ZM156.846 308.863C159.131 308.854 160.928 310.172 161.367 312.105H164.561V308.082H166.729V317.555H164.561V313.863H161.387C160.967 315.846 159.15 317.184 156.846 317.184C154.141 317.184 152.178 315.445 152.178 313.004C152.178 310.592 154.141 308.854 156.846 308.863ZM154.248 313.004C154.248 314.42 155.322 315.357 156.846 315.348C158.33 315.357 159.395 314.42 159.404 313.004C159.395 311.588 158.33 310.67 156.846 310.68C155.322 310.67 154.248 311.588 154.248 313.004ZM155.088 325.523V318.375H157.236V320.25H164.561V318.375H166.729V325.523H155.088ZM157.236 323.766H164.561V321.93H157.236V323.766ZM182.754 308.082V313.043H185.235V314.84H182.754V320.855H180.586V308.082H182.754ZM169.571 317.867V309.547H177.481V311.285H171.719V316.09C175.039 316.09 176.885 315.982 178.985 315.543L179.219 317.301C176.905 317.76 174.854 317.867 170.996 317.867H169.571ZM171.446 325.387V319.508H173.614V323.629H183.457V325.387H171.446Z" fill="white"/>
<path d="M62.8019 189.802L160 149.541L257.198 189.802L297.459 287L257.198 384.198L160 424.459L62.8019 384.198L22.5412 287L62.8019 189.802Z" stroke="#39A3ED"/>
</svg>
