<svg width="320" height="904" viewBox="0 0 320 904" fill="none" xmlns="http://www.w3.org/2000/svg">
<line x1="159.5" y1="103" x2="159.5" y2="51" stroke="#39A3ED"/>
<rect x="0.5" y="68.5" width="319" height="43" rx="21.5" fill="white" stroke="#0094EA"/>
<path d="M110.475 84.3906V88.9688H112.569V90H110.475V94.7969H109.257V84.3906H110.475ZM99.6472 87.0938V86.0938H103.178V84.3906H104.397V86.0938H107.928V87.0938H99.6472ZM100.444 90.4531C100.436 88.875 101.78 87.8594 103.788 87.8594C105.772 87.8594 107.116 88.875 107.132 90.4531C107.116 92.0156 105.772 93.0234 103.788 93.0156C101.78 93.0234 100.436 92.0156 100.444 90.4531ZM101.616 90.4531C101.608 91.4297 102.475 92.0625 103.788 92.0469C105.085 92.0625 105.96 91.4297 105.975 90.4531C105.96 89.4609 105.085 88.8203 103.788 88.8281C102.475 88.8203 101.608 89.4609 101.616 90.4531ZM101.788 97.9688V93.9688H102.991V96.9375H111.116V97.9688H101.788ZM124.171 85.0625V86.0625C124.171 87.0938 124.171 88.3438 123.827 90.0156H125.843V91.0156H120.062V93.5781H124.265V98.2656H123.03V94.5938H114.437V93.5781H118.843V91.0156H113.124V90.0156H122.593C122.96 88.3203 122.96 87.0938 122.952 86.0625H114.733V85.0625H124.171ZM137.492 84.3906V88.5938H139.585V89.625H137.492V94.5938H136.273V84.3906H137.492ZM127.226 92.25V85.3906H128.429V87.7344H132.476V85.3906H133.695V92.25H127.226ZM128.429 91.25H132.476V88.7031H128.429V91.25ZM128.804 97.9688V93.5938H130.007V96.9375H138.132V97.9688H128.804ZM151.359 90.8906V91.8906H147.062V95.4844H152.859V96.5156H140.14V95.4844H145.859V91.8906H141.765V85.5156H151.218V86.5156H143V90.8906H151.359ZM157.711 88.6562C157.719 90.8906 158.852 93.1797 160.742 94.1875L160.039 95.1094C158.656 94.3516 157.656 92.9141 157.148 91.2422C156.656 93.0234 155.664 94.5859 154.273 95.4219L153.539 94.4844C155.43 93.3906 156.547 90.9531 156.555 88.6562V87.9688H153.914V86.9531H156.555V84.8906H157.727V86.9531H160.32V87.9688H157.711V88.6562ZM159.367 90.9062V89.8594H161.555V84.7188H162.711V97.5469H161.555V90.9062H159.367ZM164.352 98.2656V84.375H165.523V98.2656H164.352ZM178.672 84.3906V94.6562H177.438V90.9062H173.844C173.203 91.7266 172.172 92.2188 170.985 92.2188C168.907 92.2188 167.368 90.7812 167.375 88.75C167.368 86.7109 168.907 85.2734 170.985 85.2656C172.164 85.2734 173.18 85.7578 173.828 86.5625H177.438V84.3906H178.672ZM168.547 88.75C168.547 90.1406 169.563 91.1328 170.985 91.125C172.352 91.1328 173.391 90.1406 173.391 88.75C173.391 87.3672 172.352 86.3672 170.985 86.3594C169.563 86.3672 168.547 87.3672 168.547 88.75ZM169.75 97.9688V93.5781H170.985V96.9375H179.063V97.9688H169.75ZM174.383 87.5781C174.508 87.9375 174.578 88.3281 174.578 88.75C174.578 89.1562 174.508 89.5391 174.391 89.8906H177.438V87.5781H174.383ZM191.649 85.2812V86.5C191.649 87.8125 191.649 89.2578 191.251 91.25H193.321V92.2656H187.587V98.2969H186.352V92.2656H180.665V91.25H190.008C190.43 89.25 190.43 87.7969 190.43 86.5V86.2969H182.258V85.2812H191.649ZM206.892 95.4531V96.4844H194.173V95.4531H199.907V92.0781H201.142V95.4531H206.892ZM194.798 91.5781C197.149 91.1797 199.876 89.2344 199.876 87.0156V86.6719H195.22V85.6406H205.798V86.6719H201.142V87.0156C201.149 89.2344 203.884 91.1406 206.282 91.5312L205.782 92.5C203.657 92.0781 201.415 90.7266 200.524 88.8047C199.634 90.75 197.399 92.1328 195.313 92.5625L194.798 91.5781ZM218.54 84.375V87.9375H220.634V88.9844H218.54V92.4531H217.322V84.375H218.54ZM207.712 86.8281V85.8125H211.243V84.25H212.462V85.8125H215.993V86.8281H207.712ZM208.509 89.9062C208.501 88.4219 209.837 87.4766 211.853 87.4688C213.845 87.4766 215.181 88.4219 215.197 89.9062C215.181 91.3906 213.845 92.3516 211.853 92.3438C209.837 92.3516 208.501 91.3906 208.509 89.9062ZM209.681 89.9062C209.673 90.8125 210.54 91.4062 211.853 91.4062C213.15 91.4062 214.025 90.8125 214.04 89.9062C214.025 89.0078 213.15 88.4062 211.853 88.4219C210.54 88.4062 209.673 89.0078 209.681 89.9062ZM209.759 98.0781V93.0625H210.978V94.5469H217.322V93.0625H218.54V98.0781H209.759ZM210.978 97.0938H217.322V95.5156H210.978V97.0938Z" fill="#333333"/>
<rect x="0.5" y="0.5" width="319" height="59" rx="29.5" fill="#39A3ED" stroke="#0094EA"/>
<path d="M127.286 29.7246V31.3066H112.802V29.7246H119.059V28.0371H120.993V29.7246H127.286ZM113.487 27.3164C116.774 27.0967 118.646 26.0068 118.901 24.6973H114.226V23.1504H119.059V21.709H120.993V23.1504H125.862V24.6973H121.143C121.389 26.0068 123.269 27.0967 126.565 27.3164L125.968 28.8105C123.129 28.5908 121.011 27.7031 120.026 26.332C119.024 27.7031 116.915 28.5908 114.085 28.8105L113.487 27.3164ZM114.489 34.875C114.489 33.1348 116.546 32.1943 120.026 32.1855C123.489 32.1943 125.519 33.1348 125.528 34.875C125.519 36.6064 123.489 37.5469 120.026 37.5469C116.546 37.5469 114.489 36.6064 114.489 34.875ZM116.476 34.875C116.467 35.6836 117.688 36.0879 120.026 36.0879C122.32 36.0879 123.559 35.6836 123.577 34.875C123.559 34.0576 122.32 33.6445 120.026 33.6445C117.688 33.6445 116.467 34.0576 116.476 34.875ZM136.875 22.4473V23.3086C136.875 24.2314 136.875 25.6025 136.506 27.3164L134.608 27.1055C134.854 25.8223 134.915 24.8115 134.933 23.9941H128.772V22.4473H136.875ZM127.823 28.3359C128.781 28.3359 129.835 28.3271 130.934 28.3096V25.6465H132.85V28.2568C134.502 28.1953 136.181 28.0898 137.737 27.8965L137.86 29.2676C134.555 29.8213 130.864 29.8652 127.998 29.8652L127.823 28.3359ZM129.879 32.2207V30.7793H140.672V34.7168H131.848V35.9297H141.217V37.4062H129.914V33.3281H138.686V32.2207H129.879ZM138.668 30.1641V21.6738H140.672V25.207H142.729V26.7891H140.672V30.1641H138.668ZM161.591 30.5332V32.1152H155.28V37.5469H153.347V32.1152H147.106V30.5332H161.591ZM147.862 27.9316C150.982 27.5361 153.074 25.8574 153.215 24.1172H148.442V22.5703H160.255V24.1172H155.482C155.614 25.8574 157.688 27.5361 160.835 27.9316L160.132 29.4609C157.425 29.0742 155.315 27.835 154.349 26.1211C153.373 27.835 151.281 29.0742 148.601 29.4609L147.862 27.9316ZM171.18 22.8516V23.8008C171.162 24.8818 171.162 26.4639 170.793 28.4766L168.86 28.3008C169.176 26.666 169.238 25.4443 169.255 24.4688H163.077V22.8516H171.18ZM162.127 29.7422C163.068 29.7334 164.122 29.7246 165.239 29.707V26.4727H167.172V29.6455C168.816 29.5752 170.503 29.4521 172.041 29.2324L172.147 30.6387C168.842 31.2363 165.089 31.2979 162.303 31.3066L162.127 29.7422ZM164.5 37.248V32.5195H166.469V35.666H175.487V37.248H164.5ZM172.973 33.5742V21.6738H174.977V26.6309H177.034V28.2656H174.977V33.5742H172.973ZM190.771 21.6738V37.5645H188.802V21.6738H190.771ZM177.605 33.1875C181.771 31.21 183.687 28.5205 184.039 24.9082H178.414V23.3613H186.025C186.025 28.0898 184.188 32.1064 178.625 34.752L177.605 33.1875ZM201.573 22.8516V23.8008C201.556 24.8818 201.556 26.4639 201.187 28.4766L199.253 28.3008C199.569 26.666 199.631 25.4443 199.649 24.4688H193.47V22.8516H201.573ZM192.521 29.7422C193.461 29.7334 194.516 29.7246 195.632 29.707V26.4727H197.566V29.6455C199.209 29.5752 200.897 29.4521 202.435 29.2324L202.54 30.6387C199.235 31.2363 195.482 31.2979 192.696 31.3066L192.521 29.7422ZM194.894 37.248V32.5195H196.862V35.666H205.88V37.248H194.894ZM203.366 33.5742V21.6738H205.37V26.6309H207.427V28.2656H205.37V33.5742H203.366Z" fill="white"/>
<line x1="158.5" y1="904" x2="158.5" y2="606" stroke="#39A3ED"/>
<rect x="0.5" y="652.5" width="319" height="43" rx="21.5" fill="white" stroke="#39A3ED"/>
<rect x="0.5" y="704.5" width="319" height="43" rx="21.5" fill="white" stroke="#39A3ED"/>
<rect x="0.5" y="756.5" width="319" height="43" rx="21.5" fill="white" stroke="#39A3ED"/>
<rect x="0.5" y="808.5" width="319" height="43" rx="21.5" fill="white" stroke="#39A3ED"/>
<rect x="0.5" y="860.5" width="319" height="43" rx="21.5" fill="white" stroke="#39A3ED"/>
<path d="M134.644 667.375V671.609H136.737V672.641H134.644V677.625H133.425V667.375H134.644ZM124.05 671.781C124.042 669.766 125.62 668.367 127.691 668.359C129.777 668.367 131.331 669.766 131.347 671.781C131.331 673.789 129.777 675.203 127.691 675.203C125.62 675.203 124.042 673.789 124.05 671.781ZM125.253 671.781C125.245 673.148 126.316 674.125 127.691 674.125C129.089 674.125 130.136 673.148 130.144 671.781C130.136 670.406 129.089 669.438 127.691 669.438C126.316 669.438 125.245 670.406 125.253 671.781ZM125.956 680.969V676.562H127.159V679.938H135.284V680.969H125.956ZM148.777 667.375V681.266H147.542V667.375H148.777ZM137.464 677.656C141.222 675.875 143.144 673.211 143.417 669.891H138.105V668.891H144.667C144.652 672.883 142.792 676.422 138.136 678.656L137.464 677.656ZM162.316 667.391V677.984H161.082V675H158.676V674H161.082V672.109H158.676V671.094H161.082V667.391H162.316ZM150.816 670.094V669.094H154.191V667.375H155.41V669.094H158.676V670.094H150.816ZM151.644 673.516C151.629 671.922 152.926 670.859 154.785 670.859C156.644 670.859 157.949 671.922 157.957 673.516C157.949 675.094 156.644 676.164 154.785 676.172C152.926 676.164 151.629 675.094 151.644 673.516ZM152.785 673.516C152.777 674.516 153.597 675.195 154.785 675.188C155.972 675.195 156.793 674.516 156.801 673.516C156.793 672.516 155.972 671.844 154.785 671.828C153.597 671.844 152.777 672.516 152.785 673.516ZM153.332 680.969V677.047H154.566V679.938H162.629V680.969H153.332ZM172.645 669.625C172.645 671.516 174.083 673.25 176.098 673.938L175.426 674.906C173.895 674.344 172.684 673.195 172.075 671.742C171.481 673.391 170.239 674.664 168.614 675.297L167.958 674.312C170.036 673.539 171.434 671.68 171.442 669.531V668.094H172.645V669.625ZM169.801 678.703C169.809 677.117 171.551 676.188 174.411 676.188C177.262 676.188 178.989 677.117 178.989 678.703C178.989 680.32 177.262 681.234 174.411 681.234C171.551 681.234 169.809 680.32 169.801 678.703ZM171.036 678.703C171.02 679.688 172.317 680.258 174.411 680.266C176.512 680.258 177.793 679.688 177.801 678.703C177.793 677.758 176.512 677.172 174.411 677.172C172.317 677.172 171.02 677.758 171.036 678.703ZM177.645 675.828V667.375H178.864V671H180.958V672.031H178.864V675.828H177.645ZM194.216 675.453V676.469H188.419V681.266H187.216V676.469H181.497V675.453H194.216ZM183.138 673.562V668.156H192.559V673.562H183.138ZM184.341 672.594H191.341V669.156H184.341V672.594Z" fill="#333333"/>
<path d="M124.358 720.281C124.358 723.789 121.78 726.289 117.687 727.375L117.187 726.406C120.616 725.5 122.788 723.656 123.054 721.281H117.921V720.281H124.358ZM119.468 733.078V727.906H128.499V733.078H119.468ZM120.671 732.078H127.296V728.891H120.671V732.078ZM127.28 727.234V719.391H128.499V727.234H127.28ZM141.992 719.391V733.297H140.788V719.391H141.992ZM130.523 728.016C133.257 728.023 136.726 728.008 139.788 727.641L139.882 728.547C138.531 728.75 137.132 728.867 135.773 728.938V732.953H134.538V728.992C133.163 729.039 131.851 729.039 130.679 729.031L130.523 728.016ZM131.054 721.875V720.891H134.554V719.266H135.773V720.891H139.304V721.875H131.054ZM131.898 724.781C131.89 723.383 133.21 722.484 135.179 722.469C137.124 722.484 138.452 723.383 138.46 724.781C138.452 726.164 137.124 727.07 135.179 727.078C133.21 727.07 131.89 726.164 131.898 724.781ZM133.054 724.781C133.062 725.609 133.898 726.133 135.179 726.125C136.437 726.133 137.281 725.609 137.273 724.781C137.281 723.945 136.437 723.422 135.179 723.422C133.898 723.422 133.062 723.945 133.054 724.781ZM155.5 719.391V729.938H154.265V728.5H151.39V727.609H154.265V719.391H155.5ZM143.968 725.828C146.554 725.812 150.039 725.789 153.015 725.422L153.093 726.312C151.859 726.508 150.554 726.633 149.281 726.711V729.453H148.047V726.773C146.64 726.828 145.304 726.828 144.14 726.828L143.968 725.828ZM145.093 722.375C145.086 720.914 146.476 719.953 148.531 719.953C150.57 719.953 151.961 720.914 151.968 722.375C151.961 723.859 150.57 724.781 148.531 724.781C146.476 724.781 145.086 723.859 145.093 722.375ZM145.968 732.969V728.906H147.203V731.938H155.843V732.969H145.968ZM146.265 722.375C146.25 723.281 147.172 723.867 148.531 723.875C149.851 723.867 150.789 723.281 150.797 722.375C150.789 721.484 149.851 720.875 148.531 720.891C147.172 720.875 146.25 721.484 146.265 722.375ZM164.157 719.938V721.703H171.032V719.938H172.25V725.484H168.188V726.969H173.907V727.984H161.25V726.969H166.969V725.484H162.938V719.938H164.157ZM162.891 732.969V729.094H164.125V731.938H172.5V732.969H162.891ZM164.157 724.5H171.032V722.672H164.157V724.5ZM187.462 727.625V728.625H181.665V733.266H180.462V728.625H174.743V727.625H187.462ZM176.368 725.938V719.953H177.587V721.875H184.587V719.953H185.821V725.938H176.368ZM177.587 724.938H184.587V722.875H177.587V724.938ZM192.97 722.016C192.978 723.836 194.337 725.461 196.376 726.125L195.798 727.094C194.196 726.562 192.985 725.461 192.384 724.062C191.79 725.656 190.509 726.898 188.845 727.5L188.22 726.516C190.298 725.812 191.751 724.023 191.767 722.016V721.422H188.595V720.406H196.095V721.422H192.97V722.016ZM190.063 730.672C190.071 729.07 191.813 728.141 194.673 728.141C197.524 728.141 199.251 729.07 199.251 730.672C199.251 732.297 197.524 733.234 194.673 733.234C191.813 733.234 190.071 732.297 190.063 730.672ZM191.298 730.672C191.282 731.672 192.579 732.258 194.673 732.25C196.774 732.258 198.056 731.672 198.063 730.672C198.056 729.703 196.774 729.125 194.673 729.125C192.579 729.125 191.282 729.703 191.298 730.672ZM197.907 727.766V719.375H199.126V722.922H201.22V723.953H199.126V727.766H197.907Z" fill="#333333"/>
<path d="M135.3 771.391V781.578H134.066V776.25H131.206V775.234H134.066V771.391H135.3ZM123.847 778.797C125.894 778.078 127.378 776.242 127.378 774.25V773.531H124.237V772.516H131.722V773.531H128.612V774.25C128.612 776.047 130.003 777.789 132.034 778.484L131.394 779.469C129.831 778.898 128.62 777.734 128.019 776.297C127.417 777.906 126.136 779.18 124.487 779.797L123.847 778.797ZM126.378 784.969V780.656H127.612V783.938H135.691V784.969H126.378ZM144.542 772.594V779.031H138.027V772.594H144.542ZM139.23 778.047H143.339V773.609H139.23V778.047ZM139.792 784.797V780.406H141.011V783.781H149.199V784.797H139.792ZM147.542 781.375V771.391H148.761V781.375H147.542ZM162.738 771.375V785.266H161.551V778.047H159.66V784.562H158.488V771.672H159.66V777H161.551V771.375H162.738ZM150.66 781.453C152.66 780.352 153.73 777.992 153.722 775.172V774.062H150.988V773.031H157.488V774.062H154.91V775.172C154.91 777.711 155.965 779.953 157.941 780.969L157.207 781.922C155.808 781.156 154.84 779.789 154.347 778.094C153.871 780.023 152.887 781.539 151.426 782.391L150.66 781.453ZM175.473 772.234V773.25H170.051V774.984H175.083V775.969H170.051V777.812C173.004 777.82 174.661 777.758 176.614 777.422L176.739 778.422C174.715 778.773 173.012 778.82 169.942 778.812H168.817V772.234H175.473ZM170.442 785.078V780.359H179.473V785.078H170.442ZM171.645 784.078H178.27V781.344H171.645V784.078ZM178.254 779.672V771.391H179.473V779.672H178.254ZM186.216 774.016C186.223 775.836 187.583 777.461 189.622 778.125L189.044 779.094C187.442 778.562 186.231 777.461 185.63 776.062C185.036 777.656 183.755 778.898 182.091 779.5L181.466 778.516C183.544 777.812 184.997 776.023 185.013 774.016V773.422H181.841V772.406H189.341V773.422H186.216V774.016ZM183.309 782.672C183.317 781.07 185.059 780.141 187.919 780.141C190.77 780.141 192.497 781.07 192.497 782.672C192.497 784.297 190.77 785.234 187.919 785.234C185.059 785.234 183.317 784.297 183.309 782.672ZM184.544 782.672C184.528 783.672 185.825 784.258 187.919 784.25C190.02 784.258 191.302 783.672 191.309 782.672C191.302 781.703 190.02 781.125 187.919 781.125C185.825 781.125 184.528 781.703 184.544 782.672ZM191.153 779.766V771.375H192.372V774.922H194.466V775.953H192.372V779.766H191.153Z" fill="#333333"/>
<path d="M131.112 824.281C131.112 827.789 128.534 830.289 124.441 831.375L123.941 830.406C127.37 829.5 129.542 827.656 129.808 825.281H124.675V824.281H131.112ZM126.222 837.078V831.906H135.253V837.078H126.222ZM127.425 836.078H134.05V832.891H127.425V836.078ZM134.034 831.234V823.391H135.253V831.234H134.034ZM149.964 830.25V831.234H137.292V830.25H143.027V828.625H138.902V824.031H148.386V825.016H140.105V827.625H148.48V828.625H144.214V830.25H149.964ZM138.824 834.75C138.816 833.164 140.621 832.258 143.621 832.25C146.597 832.258 148.386 833.164 148.402 834.75C148.386 836.352 146.597 837.25 143.621 837.266C140.621 837.25 138.816 836.352 138.824 834.75ZM140.074 834.75C140.058 835.727 141.394 836.289 143.621 836.281C145.824 836.289 147.16 835.727 147.167 834.75C147.16 833.789 145.824 833.219 143.621 833.219C141.394 833.219 140.058 833.789 140.074 834.75ZM162.316 823.391V833.984H161.082V831H158.676V830H161.082V828.109H158.676V827.094H161.082V823.391H162.316ZM150.816 826.094V825.094H154.191V823.375H155.41V825.094H158.676V826.094H150.816ZM151.644 829.516C151.629 827.922 152.926 826.859 154.785 826.859C156.644 826.859 157.949 827.922 157.957 829.516C157.949 831.094 156.644 832.164 154.785 832.172C152.926 832.164 151.629 831.094 151.644 829.516ZM152.785 829.516C152.777 830.516 153.597 831.195 154.785 831.188C155.972 831.195 156.793 830.516 156.801 829.516C156.793 828.516 155.972 827.844 154.785 827.828C153.597 827.844 152.777 828.516 152.785 829.516ZM153.332 836.969V833.047H154.566V835.938H162.629V836.969H153.332ZM172.754 826C172.754 827.938 174.161 829.766 176.192 830.5L175.504 831.453C173.981 830.852 172.762 829.648 172.168 828.133C171.583 829.812 170.317 831.141 168.676 831.797L168.02 830.797C170.106 830.031 171.543 828.086 171.551 825.953V824.234H172.754V826ZM170.536 836.969V832.609H171.77V835.938H179.833V836.969H170.536ZM175.192 827.688V826.656H178.286V823.391H179.52V833.797H178.286V827.688H175.192ZM192.981 823.391V831.328H191.763V823.391H192.981ZM181.841 827.375C181.833 825.438 183.372 824.125 185.481 824.125C187.591 824.125 189.114 825.438 189.122 827.375C189.114 829.281 187.591 830.609 185.481 830.609C183.372 830.609 181.833 829.281 181.841 827.375ZM183.044 827.375C183.028 828.664 184.052 829.57 185.481 829.562C186.895 829.57 187.919 828.664 187.919 827.375C187.919 826.078 186.895 825.164 185.481 825.172C184.052 825.164 183.028 826.078 183.044 827.375ZM183.95 837.078V832.078H192.981V837.078H183.95ZM185.153 836.078H191.778V833.078H185.153V836.078Z" fill="#333333"/>
<path d="M129.05 882.703V885.266C130.394 885.195 131.753 885.086 133.034 884.891L133.128 885.797C129.948 886.375 126.534 886.398 124.034 886.391L123.862 885.375C125.027 885.367 126.402 885.359 127.847 885.312V882.703H129.05ZM124.284 882.219C126.339 881.609 127.784 880.086 127.816 878.219H124.628V877.203H127.847V875.484H129.05V877.203H132.316V878.219H129.05C129.089 880.008 130.573 881.477 132.628 882.062L132.05 883.031C130.386 882.531 129.073 881.461 128.448 880.055C127.847 881.539 126.55 882.648 124.878 883.156L124.284 882.219ZM133.956 889.297V875.375H135.175V889.297H133.956ZM144.261 876.672C144.269 878.633 146.816 880.32 149.324 880.672L148.824 881.672C146.667 881.312 144.527 880.117 143.636 878.414C142.746 880.133 140.613 881.312 138.449 881.672L137.949 880.672C140.457 880.32 142.996 878.664 142.996 876.672V875.875H144.261V876.672ZM137.292 884.234V883.203H149.949V884.234H144.199V889.266H142.996V884.234H137.292ZM162.316 875.391V885.984H161.082V883H158.676V882H161.082V880.109H158.676V879.094H161.082V875.391H162.316ZM150.816 878.094V877.094H154.191V875.375H155.41V877.094H158.676V878.094H150.816ZM151.644 881.516C151.629 879.922 152.926 878.859 154.785 878.859C156.644 878.859 157.949 879.922 157.957 881.516C157.949 883.094 156.644 884.164 154.785 884.172C152.926 884.164 151.629 883.094 151.644 881.516ZM152.785 881.516C152.777 882.516 153.597 883.195 154.785 883.188C155.972 883.195 156.793 882.516 156.801 881.516C156.793 880.516 155.972 879.844 154.785 879.828C153.597 879.844 152.777 880.516 152.785 881.516ZM153.332 888.969V885.047H154.566V887.938H162.629V888.969H153.332ZM175.02 877.344C175.012 879.203 177.489 880.781 179.911 881.141L179.458 882.109C177.293 881.742 175.176 880.586 174.333 878.914C173.489 880.586 171.372 881.742 169.239 882.109L168.754 881.141C171.168 880.781 173.637 879.203 173.645 877.344V877.25H169.192V876.25H179.458V877.25H175.02V877.344ZM168.004 884.312V883.297H180.661V884.312H174.911V889.266H173.708V884.312H168.004ZM192.981 875.391V883.328H191.763V875.391H192.981ZM181.841 879.375C181.833 877.438 183.372 876.125 185.481 876.125C187.591 876.125 189.114 877.438 189.122 879.375C189.114 881.281 187.591 882.609 185.481 882.609C183.372 882.609 181.833 881.281 181.841 879.375ZM183.044 879.375C183.028 880.664 184.052 881.57 185.481 881.562C186.895 881.57 187.919 880.664 187.919 879.375C187.919 878.078 186.895 877.164 185.481 877.172C184.052 877.164 183.028 878.078 183.044 879.375ZM183.95 889.078V884.078H192.981V889.078H183.95ZM185.153 888.078H191.778V885.078H185.153V888.078Z" fill="#333333"/>
<rect x="0.5" y="142.5" width="319" height="59" rx="29.5" fill="#39A3ED" stroke="#0094EA"/>
<rect x="1.5" y="284.5" width="317" height="59" rx="29.5" fill="#39A3ED" stroke="#0094EA"/>
<line x1="159.5" y1="510" x2="159.5" y2="344" stroke="#39A3ED"/>
<line x1="159.5" y1="254" x2="159.5" y2="202" stroke="#39A3ED"/>
<rect x="0.5" y="354.5" width="319" height="43" rx="21.5" fill="white" stroke="#5FB3EF"/>
<rect x="0.5" y="406.5" width="319" height="43" rx="21.5" fill="white" stroke="#5FB3EF"/>
<rect x="0.5" y="458.5" width="319" height="43" rx="21.5" fill="white" stroke="#5FB3EF"/>
<rect x="0.5" y="510.5" width="319" height="43" rx="21.5" fill="white" stroke="#5FB3EF"/>
<path d="M79.6888 380.234V381.641H66.7825V380.234H72.3138V376.969H74.0325V380.234H79.6888ZM67.1575 375.875C70.1106 375.398 72.2278 373.281 72.2356 371.156V370.125H74.0794V371.156C74.0794 373.289 76.2122 375.398 79.1888 375.875L78.4388 377.312C76.0559 376.859 74.095 375.492 73.1575 373.641C72.2278 375.484 70.2903 376.867 67.9075 377.312L67.1575 375.875ZM85.3531 373.281C85.3453 375.461 86.6578 377.945 88.8844 378.984L87.9156 380.359C86.3219 379.609 85.1422 378.094 84.5094 376.328C83.8688 378.266 82.6344 379.922 81.0094 380.703L79.9938 379.344C82.2438 378.273 83.6109 375.633 83.6188 373.281V372.094H80.5406V370.656H88.3063V372.094H85.3531V373.281ZM89.6188 383.391V369.266H91.3531V374.766H93.525V376.219H91.3531V383.391H89.6188ZM98.9944 382.125C98.3225 382.125 97.7678 381.578 97.7756 380.906C97.7678 380.25 98.3225 379.711 98.9944 379.703C99.6428 379.711 100.198 380.25 100.198 380.906C100.198 381.578 99.6428 382.125 98.9944 382.125ZM97.7756 374.844C97.7678 374.188 98.3225 373.648 98.9944 373.641C99.6428 373.648 100.198 374.188 100.198 374.844C100.198 375.516 99.6428 376.062 98.9944 376.062C98.3225 376.062 97.7678 375.516 97.7756 374.844ZM111.214 369.734C114.183 369.742 116.104 370.805 116.104 372.516C116.104 374.219 114.183 375.273 111.214 375.266C108.245 375.273 106.3 374.219 106.308 372.516C106.3 370.805 108.245 369.742 111.214 369.734ZM104.886 377.359V376.344H117.558V377.359H114.308V380.25H113.089V377.359H110.526V380.25H109.308V377.359H104.886ZM106.448 382.969V379.078H107.683V381.938H116.245V382.969H106.448ZM107.62 372.516C107.604 373.602 109.05 374.273 111.214 374.281C113.37 374.273 114.808 373.602 114.808 372.516C114.808 371.422 113.37 370.742 111.214 370.734C109.05 370.742 107.604 371.422 107.62 372.516ZM123.175 371.562C123.159 373.547 124.573 375.289 126.613 375.984L125.925 376.938C124.394 376.367 123.191 375.234 122.589 373.773C121.995 375.438 120.73 376.727 119.05 377.359L118.378 376.359C120.519 375.609 121.941 373.766 121.956 371.609V370.172H123.175V371.562ZM120.644 380.641C120.636 378.969 122.409 378.008 125.3 378.016C128.183 378.008 129.956 378.969 129.956 380.641C129.956 382.297 128.183 383.234 125.3 383.234C122.409 383.234 120.636 382.297 120.644 380.641ZM121.863 380.641C121.855 381.648 123.167 382.258 125.3 382.25C127.425 382.258 128.738 381.648 128.738 380.641C128.738 379.602 127.425 378.984 125.3 378.984C123.167 378.984 121.855 379.602 121.863 380.641ZM125.581 373.375V372.359H128.675V369.375H129.909V377.609H128.675V373.375H125.581ZM139.152 370.594V377.031H132.636V370.594H139.152ZM133.839 376.047H137.949V371.609H133.839V376.047ZM134.402 382.797V378.406H135.621V381.781H143.808V382.797H134.402ZM142.152 379.375V369.391H143.371V379.375H142.152ZM160.262 370.781V372.328C160.254 374.109 160.254 375.898 159.762 378.484L158.559 378.344C159.051 375.891 159.051 374.062 159.059 372.328V371.797H150.434V370.781H160.262ZM149.106 381.297V380.281H152.246V375.703H153.465V380.281H155.715V375.703H156.918V380.281H161.762V381.297H149.106ZM169.583 370.672C169.59 372.633 172.137 374.32 174.645 374.672L174.145 375.672C171.989 375.312 169.848 374.117 168.958 372.414C168.067 374.133 165.934 375.312 163.77 375.672L163.27 374.672C165.778 374.32 168.317 372.664 168.317 370.672V369.875H169.583V370.672ZM162.614 378.234V377.203H175.27V378.234H169.52V383.266H168.317V378.234H162.614ZM176.981 377.688C176.997 374.742 177.794 372.289 179.231 370.203H180.419C179.364 371.742 178.38 374.906 178.372 377.688C178.38 380.477 179.364 383.633 180.419 385.188H179.231C177.794 383.094 176.997 380.641 176.981 377.688ZM192.771 369.391V377.734H191.536V375.859H187.849V374.844H191.536V372.969H187.989C187.075 375.203 184.935 376.82 181.958 377.703L181.443 376.734C184.794 375.742 186.896 373.859 187.138 371.453H182.146V370.422H188.474C188.474 370.969 188.411 371.492 188.294 371.984H191.536V369.391H192.771ZM183.583 380.531C183.575 378.875 185.38 377.875 188.224 377.875C191.036 377.875 192.849 378.875 192.849 380.531C192.849 382.195 191.036 383.203 188.224 383.203C185.38 383.203 183.575 382.195 183.583 380.531ZM184.786 380.531C184.794 381.578 186.13 382.211 188.224 382.203C190.286 382.211 191.622 381.578 191.63 380.531C191.622 379.484 190.286 378.852 188.224 378.859C186.13 378.852 184.794 379.484 184.786 380.531ZM206.154 369.375V383.266H204.935V369.375H206.154ZM194.841 379.469C197.505 379.469 200.982 379.461 204.013 379.078L204.107 379.984C200.974 380.5 197.615 380.531 195.029 380.516L194.841 379.469ZM195.138 372.266V371.266H198.779V369.531H200.029V371.266H203.654V372.266H195.138ZM196.091 375.656C196.076 374.055 197.435 373.039 199.404 373.031C201.38 373.039 202.732 374.055 202.747 375.656C202.732 377.219 201.38 378.266 199.404 378.25C197.435 378.266 196.076 377.219 196.091 375.656ZM197.232 375.656C197.232 376.633 198.122 377.289 199.404 377.297C200.685 377.289 201.568 376.633 201.576 375.656C201.568 374.672 200.685 374 199.404 374C198.122 374 197.232 374.672 197.232 375.656ZM220.146 369.375V383.266H218.974V375.984H216.928V382.547H215.803V369.688H216.928V374.969H218.974V369.375H220.146ZM208.787 379.828V371.078H213.99V372.094H210.006V378.781C211.92 378.773 213.24 378.703 214.787 378.391L214.896 379.422C213.224 379.766 211.81 379.82 209.678 379.828H208.787ZM230.092 370.875V371.875H221.811V370.875H225.342V369.312H226.561V370.875H230.092ZM222.607 375.109C222.6 373.578 223.943 372.609 225.951 372.594C227.943 372.609 229.279 373.578 229.295 375.109C229.279 376.617 227.943 377.602 225.951 377.609C223.943 377.602 222.6 376.617 222.607 375.109ZM223.545 379.828V378.828H232.639V383.266H231.42V379.828H223.545ZM223.779 375.109C223.772 376.031 224.639 376.633 225.951 376.625C227.248 376.633 228.123 376.031 228.139 375.109C228.123 374.164 227.248 373.555 225.951 373.547C224.639 373.555 223.772 374.164 223.779 375.109ZM231.42 378.062V369.375H232.639V373.234H234.732V374.266H232.639V378.062H231.42ZM246.444 370.781V372.328C246.436 374.109 246.436 375.898 245.944 378.484L244.741 378.344C245.233 375.891 245.233 374.062 245.241 372.328V371.797H236.616V370.781H246.444ZM235.288 381.297V380.281H238.428V375.703H239.647V380.281H241.897V375.703H243.1V380.281H247.944V381.297H235.288ZM252.264 377.688C252.249 380.641 251.452 383.094 250.014 385.188H248.827C249.882 383.633 250.866 380.477 250.874 377.688C250.866 374.906 249.882 371.742 248.827 370.203H250.014C251.452 372.289 252.249 374.742 252.264 377.688Z" fill="#555555"/>
<path d="M58.8369 423.812C58.8369 425.539 59.9541 427.164 62.165 427.844L61.3369 429.203C59.7509 428.703 58.6259 427.695 58.0088 426.422C57.3838 427.906 56.1963 429.086 54.4931 429.656L53.6181 428.281C55.8916 427.539 57.0869 425.703 57.0869 423.828V423.656H54.1025V422.25H61.7744V423.656H58.8369V423.812ZM55.54 432.672C55.54 430.984 57.3681 430 60.3213 430C63.2509 430 65.0478 430.984 65.0556 432.672C65.0478 434.375 63.2509 435.375 60.3213 435.375C57.3681 435.375 55.54 434.375 55.54 432.672ZM57.2744 432.672C57.2744 433.547 58.3838 434.008 60.3213 434.016C62.2509 434.008 63.3369 433.547 63.3369 432.672C63.3369 431.812 62.2509 431.359 60.3213 431.359C58.3838 431.359 57.2744 431.812 57.2744 432.672ZM63.1806 429.688V421.266H64.915V424.656H66.8838V426.078H64.915V429.688H63.1806ZM79.0325 421.266V435.406H77.2825V421.266H79.0325ZM68.0325 432.078V422.422H69.7669V425.953H73.1888V422.422H74.9075V432.078H68.0325ZM69.7669 430.656H73.1888V427.312H69.7669V430.656ZM85.9863 434.125C85.3144 434.125 84.7597 433.578 84.7675 432.906C84.7597 432.25 85.3144 431.711 85.9863 431.703C86.6347 431.711 87.1894 432.25 87.1894 432.906C87.1894 433.578 86.6347 434.125 85.9863 434.125ZM84.7675 426.844C84.7597 426.188 85.3144 425.648 85.9863 425.641C86.6347 425.648 87.1894 426.188 87.1894 426.844C87.1894 427.516 86.6347 428.062 85.9863 428.062C85.3144 428.062 84.7597 427.516 84.7675 426.844ZM102.737 421.375V425H104.831V426.016H102.737V429.719H101.518V421.375H102.737ZM91.8931 428.734C95.2447 427.766 97.3853 425.836 97.6353 423.422H92.5025V422.406H98.9556C98.9478 425.945 96.4556 428.539 92.4088 429.734L91.8931 428.734ZM93.7994 432.547C93.7916 430.883 95.5806 429.867 98.3463 429.875C101.135 429.867 102.893 430.883 102.893 432.547C102.893 434.234 101.135 435.234 98.3463 435.234C95.5806 435.234 93.7916 434.234 93.7994 432.547ZM95.0181 432.547C95.0025 433.594 96.3072 434.258 98.3463 434.25C100.385 434.258 101.706 433.594 101.706 432.547C101.706 431.5 100.385 430.852 98.3463 430.859C96.3072 430.852 95.0025 431.5 95.0181 432.547ZM110.026 423.625C110.026 425.516 111.464 427.25 113.479 427.938L112.808 428.906C111.276 428.344 110.065 427.195 109.456 425.742C108.862 427.391 107.62 428.664 105.995 429.297L105.339 428.312C107.417 427.539 108.815 425.68 108.823 423.531V422.094H110.026V423.625ZM107.183 432.703C107.19 431.117 108.933 430.188 111.792 430.188C114.643 430.188 116.37 431.117 116.37 432.703C116.37 434.32 114.643 435.234 111.792 435.234C108.933 435.234 107.19 434.32 107.183 432.703ZM108.417 432.703C108.401 433.688 109.698 434.258 111.792 434.266C113.893 434.258 115.175 433.688 115.183 432.703C115.175 431.758 113.893 431.172 111.792 431.172C109.698 431.172 108.401 431.758 108.417 432.703ZM115.026 429.828V421.375H116.245V425H118.339V426.031H116.245V429.828H115.026ZM131.597 429.344V430.375H125.8V435.266H124.597V430.375H118.878V429.344H131.597ZM120.316 425C120.323 423.117 122.284 421.945 125.206 421.938C128.12 421.945 130.097 423.117 130.097 425C130.097 426.852 128.12 428.023 125.206 428.016C122.284 428.023 120.323 426.852 120.316 425ZM121.581 425C121.566 426.234 123.042 427.031 125.206 427.031C127.37 427.031 128.839 426.234 128.847 425C128.839 423.742 127.37 422.938 125.206 422.938C123.042 422.938 121.566 423.742 121.581 425ZM148.816 432.438V433.453H136.098V432.438H141.785V429.031H142.988V432.438H148.816ZM136.598 428.172C139.027 427.758 141.73 425.727 141.738 423.391V422.328H143.019V423.391C143.027 425.711 145.769 427.758 148.191 428.172L147.644 429.188C145.527 428.75 143.293 427.32 142.394 425.32C141.48 427.312 139.269 428.75 137.144 429.188L136.598 428.172ZM154.309 424.016C154.317 425.836 155.676 427.461 157.715 428.125L157.137 429.094C155.535 428.562 154.324 427.461 153.723 426.062C153.129 427.656 151.848 428.898 150.184 429.5L149.559 428.516C151.637 427.812 153.09 426.023 153.106 424.016V423.422H149.934V422.406H157.434V423.422H154.309V424.016ZM151.403 432.672C151.41 431.07 153.153 430.141 156.012 430.141C158.863 430.141 160.59 431.07 160.59 432.672C160.59 434.297 158.863 435.234 156.012 435.234C153.153 435.234 151.41 434.297 151.403 432.672ZM152.637 432.672C152.621 433.672 153.918 434.258 156.012 434.25C158.113 434.258 159.395 433.672 159.403 432.672C159.395 431.703 158.113 431.125 156.012 431.125C153.918 431.125 152.621 431.703 152.637 432.672ZM159.246 429.766V421.375H160.465V424.922H162.559V425.953H160.465V429.766H159.246ZM163.973 429.688C163.989 426.742 164.786 424.289 166.223 422.203H167.411C166.356 423.742 165.372 426.906 165.364 429.688C165.372 432.477 166.356 435.633 167.411 437.188H166.223C164.786 435.094 163.989 432.641 163.973 429.688ZM180.966 432.547V433.562H168.247V432.547H171.794V429.234H169.403V428.219H171.575V423.688H169.372V422.672H179.747V423.688H177.544V428.219H179.716V429.234H177.325V432.547H180.966ZM172.794 428.219H176.341V423.688H172.794V428.219ZM173.028 432.547H176.106V429.234H173.028V432.547ZM188.88 423.109C188.872 424.82 191.2 426.211 193.661 426.547L193.177 427.516C190.935 427.188 188.833 426.07 188.083 424.445C187.325 426.07 185.239 427.188 182.989 427.516L182.536 426.547C184.982 426.211 187.294 424.82 187.286 423.109V423.078H182.911V422.078H193.286V423.078H188.88V423.109ZM181.739 429.547V428.531H194.458V429.547H188.802V432.391H187.583V429.547H181.739ZM183.364 434.969V431H184.599V433.938H193.036V434.969H183.364ZM202.966 422.922V423.641C202.958 424.742 202.958 426.578 202.56 429.156L201.326 429.047C201.708 426.719 201.74 425.031 201.732 423.922H195.904V422.922H202.966ZM195.122 431.188C196.037 431.18 197.052 431.172 198.122 431.148V426.891H199.326V431.109C200.865 431.055 202.443 430.953 203.888 430.781L203.951 431.703C201.029 432.156 197.763 432.219 195.279 432.203L195.122 431.188ZM204.763 435.266V421.375H205.982V427.188H208.232V428.25H205.982V435.266H204.763ZM217.084 422.875V423.875H208.802V422.875H212.334V421.312H213.552V422.875H217.084ZM209.599 427.109C209.592 425.578 210.935 424.609 212.943 424.594C214.935 424.609 216.271 425.578 216.287 427.109C216.271 428.617 214.935 429.602 212.943 429.609C210.935 429.602 209.592 428.617 209.599 427.109ZM210.537 431.828V430.828H219.631V435.266H218.412V431.828H210.537ZM210.771 427.109C210.763 428.031 211.631 428.633 212.943 428.625C214.24 428.633 215.115 428.031 215.131 427.109C215.115 426.164 214.24 425.555 212.943 425.547C211.631 425.555 210.763 426.164 210.771 427.109ZM218.412 430.062V421.375H219.631V425.234H221.724V426.266H219.631V430.062H218.412ZM233.795 421.391V431.656H232.561V427.906H228.967C228.326 428.727 227.295 429.219 226.108 429.219C224.029 429.219 222.49 427.781 222.498 425.75C222.49 423.711 224.029 422.273 226.108 422.266C227.287 422.273 228.303 422.758 228.951 423.562H232.561V421.391H233.795ZM223.67 425.75C223.67 427.141 224.686 428.133 226.108 428.125C227.475 428.133 228.514 427.141 228.514 425.75C228.514 424.367 227.475 423.367 226.108 423.359C224.686 423.367 223.67 424.367 223.67 425.75ZM224.873 434.969V430.578H226.108V433.938H234.186V434.969H224.873ZM229.506 424.578C229.631 424.938 229.701 425.328 229.701 425.75C229.701 426.156 229.631 426.539 229.514 426.891H232.561V424.578H229.506ZM246.772 422.281V423.5C246.772 424.812 246.772 426.258 246.373 428.25H248.444V429.266H242.709V435.297H241.475V429.266H235.788V428.25H245.131C245.553 426.25 245.553 424.797 245.553 423.5V423.297H237.381V422.281H246.772ZM260.749 421.391V431.938H259.514V430.5H256.639V429.609H259.514V421.391H260.749ZM249.217 427.828C251.803 427.812 255.288 427.789 258.264 427.422L258.342 428.312C257.108 428.508 255.803 428.633 254.53 428.711V431.453H253.296V428.773C251.889 428.828 250.553 428.828 249.389 428.828L249.217 427.828ZM250.342 424.375C250.335 422.914 251.725 421.953 253.78 421.953C255.819 421.953 257.21 422.914 257.217 424.375C257.21 425.859 255.819 426.781 253.78 426.781C251.725 426.781 250.335 425.859 250.342 424.375ZM251.217 434.969V430.906H252.452V433.938H261.092V434.969H251.217ZM251.514 424.375C251.499 425.281 252.421 425.867 253.78 425.875C255.1 425.867 256.038 425.281 256.046 424.375C256.038 423.484 255.1 422.875 253.78 422.891C252.421 422.875 251.499 423.484 251.514 424.375ZM266.272 429.688C266.257 432.641 265.46 435.094 264.022 437.188H262.835C263.89 435.633 264.874 432.477 264.882 429.688C264.874 426.906 263.89 423.742 262.835 422.203H264.022C265.46 424.289 266.257 426.742 266.272 429.688Z" fill="#555555"/>
<path d="M73.1419 482.094C76.2122 482.102 78.1497 483.07 78.1575 484.75C78.1497 486.391 76.2122 487.375 73.1419 487.375C70.1028 487.375 68.1419 486.391 68.1419 484.75C68.1419 483.07 70.1028 482.102 73.1419 482.094ZM66.8138 481.078V479.672H71.7825V477.109H73.5013V479.672H79.6263V481.078H66.8138ZM68.2825 475.312V473.938H78.0638V475.109C78.0716 476.227 78.0716 477.414 77.6731 478.859L75.9544 478.703C76.3059 477.336 76.3294 476.336 76.3294 475.312H68.2825ZM69.8919 484.75C69.8763 485.578 71.1028 486.031 73.1419 486.031C75.1888 486.031 76.4231 485.578 76.4388 484.75C76.4231 483.891 75.1888 483.406 73.1419 483.406C71.1028 483.406 69.8763 483.891 69.8919 484.75ZM92.1188 473.266V481.656H90.3844V478.203H87.9781V476.781H90.3844V473.266H92.1188ZM80.2438 480.25C82.5172 479.469 83.7125 477.57 83.7125 475.703V475.594H80.775V474.188H88.4V475.594H85.4781V475.688C85.4781 477.406 86.6188 479.141 88.8063 479.875L87.9313 481.25C86.3609 480.719 85.2516 479.641 84.6266 478.312C84.0094 479.812 82.8297 481.031 81.15 481.625L80.2438 480.25ZM82.5406 484.703C82.525 483.008 84.3609 482.016 87.3375 482.016C90.3297 482.016 92.1578 483.008 92.1656 484.703C92.1578 486.398 90.3297 487.383 87.3375 487.391C84.3609 487.383 82.525 486.398 82.5406 484.703ZM84.2594 484.703C84.2516 485.578 85.3766 486.055 87.3375 486.047C89.3141 486.055 90.4313 485.578 90.4313 484.703C90.4313 483.82 89.3141 483.344 87.3375 483.344C85.3766 483.344 84.2516 483.82 84.2594 484.703ZM98.9944 486.125C98.3225 486.125 97.7678 485.578 97.7756 484.906C97.7678 484.25 98.3225 483.711 98.9944 483.703C99.6428 483.711 100.198 484.25 100.198 484.906C100.198 485.578 99.6428 486.125 98.9944 486.125ZM97.7756 478.844C97.7678 478.188 98.3225 477.648 98.9944 477.641C99.6428 477.648 100.198 478.188 100.198 478.844C100.198 479.516 99.6428 480.062 98.9944 480.062C98.3225 480.062 97.7678 479.516 97.7756 478.844ZM116.386 473.391V483.891H115.136V481.938H112.073V480.938H115.136V473.391H116.386ZM104.792 478.891C106.581 478.883 108.823 478.867 111.026 478.719C111.3 477.188 111.347 476.031 111.354 475.234H106.042V474.234H112.573V474.781C112.581 475.547 112.581 476.844 112.284 478.617C112.823 478.57 113.354 478.508 113.87 478.438L113.964 479.328C112.667 479.547 111.308 479.68 109.979 479.766V482.969H108.761V479.828C107.393 479.891 106.089 479.906 104.964 479.906L104.792 478.891ZM106.87 486.969V482.719H108.104V485.938H116.729V486.969H106.87ZM129.878 473.375V487.266H128.644V473.375H129.878ZM118.566 483.656C122.323 481.875 124.245 479.211 124.519 475.891H119.206V474.891H125.769C125.753 478.883 123.894 482.422 119.238 484.656L118.566 483.656ZM136.636 476.359C136.644 478.086 138.136 479.648 140.183 480.25L139.589 481.203C137.98 480.719 136.699 479.672 136.066 478.305C135.472 479.82 134.199 481.016 132.543 481.562L131.949 480.625C133.988 479.938 135.425 478.242 135.433 476.359V476.062H132.293V475.078H135.433V473.312H136.668V475.078H139.777V476.062H136.636V476.359ZM134.152 484.703C134.144 483.086 135.918 482.164 138.808 482.172C141.691 482.164 143.464 483.086 143.464 484.703C143.464 486.312 141.691 487.234 138.808 487.234C135.918 487.234 134.144 486.312 134.152 484.703ZM135.371 484.703C135.363 485.672 136.675 486.266 138.808 486.266C140.941 486.266 142.246 485.672 142.246 484.703C142.246 483.711 140.941 483.141 138.808 483.125C136.675 483.141 135.363 483.711 135.371 484.703ZM139.339 478.375V477.359H142.183V473.375H143.418V481.797H142.183V478.375H139.339ZM160.262 474.781V476.328C160.254 478.109 160.254 479.898 159.762 482.484L158.559 482.344C159.051 479.891 159.051 478.062 159.059 476.328V475.797H150.434V474.781H160.262ZM149.106 485.297V484.281H152.246V479.703H153.465V484.281H155.715V479.703H156.918V484.281H161.762V485.297H149.106ZM169.583 474.672C169.59 476.633 172.137 478.32 174.645 478.672L174.145 479.672C171.989 479.312 169.848 478.117 168.958 476.414C168.067 478.133 165.934 479.312 163.77 479.672L163.27 478.672C165.778 478.32 168.317 476.664 168.317 474.672V473.875H169.583V474.672ZM162.614 482.234V481.203H175.27V482.234H169.52V487.266H168.317V482.234H162.614ZM176.981 481.688C176.997 478.742 177.794 476.289 179.231 474.203H180.419C179.364 475.742 178.38 478.906 178.372 481.688C178.38 484.477 179.364 487.633 180.419 489.188H179.231C177.794 487.094 176.997 484.641 176.981 481.688ZM188.958 474.25V475C188.95 475.867 188.95 477.125 188.583 478.766L187.364 478.656C187.693 477.188 187.724 476.109 187.724 475.281H182.036V474.25H188.958ZM181.177 480.062C182.083 480.062 183.099 480.055 184.161 480.023V477.266H185.38V479.992C186.927 479.93 188.513 479.828 189.958 479.641L190.036 480.547C187.122 481.016 183.81 481.094 181.302 481.094L181.177 480.062ZM183.005 484.703C183.005 483.148 184.755 482.234 187.63 482.234C190.505 482.234 192.263 483.148 192.255 484.703C192.263 486.312 190.505 487.227 187.63 487.219C184.755 487.227 183.005 486.312 183.005 484.703ZM184.239 484.703C184.232 485.688 185.528 486.242 187.63 486.25C189.724 486.242 191.013 485.688 191.021 484.703C191.013 483.766 189.724 483.195 187.63 483.188C185.528 483.195 184.232 483.766 184.239 484.703ZM190.896 482.062V473.375H192.146V477.188H194.177V478.219H192.146V482.062H190.896ZM206.216 473.391V483.938H204.982V482.5H202.107V481.609H204.982V473.391H206.216ZM194.685 479.828C197.271 479.812 200.755 479.789 203.732 479.422L203.81 480.312C202.576 480.508 201.271 480.633 199.997 480.711V483.453H198.763V480.773C197.357 480.828 196.021 480.828 194.857 480.828L194.685 479.828ZM195.81 476.375C195.802 474.914 197.193 473.953 199.247 473.953C201.287 473.953 202.677 474.914 202.685 476.375C202.677 477.859 201.287 478.781 199.247 478.781C197.193 478.781 195.802 477.859 195.81 476.375ZM196.685 486.969V482.906H197.919V485.938H206.56V486.969H196.685ZM196.982 476.375C196.966 477.281 197.888 477.867 199.247 477.875C200.568 477.867 201.505 477.281 201.513 476.375C201.505 475.484 200.568 474.875 199.247 474.891C197.888 474.875 196.966 475.484 196.982 476.375ZM220.146 473.375V487.266H218.974V479.984H216.928V486.547H215.803V473.688H216.928V478.969H218.974V473.375H220.146ZM208.787 483.828V475.078H213.99V476.094H210.006V482.781C211.92 482.773 213.24 482.703 214.787 482.391L214.896 483.422C213.224 483.766 211.81 483.82 209.678 483.828H208.787ZM230.092 474.875V475.875H221.811V474.875H225.342V473.312H226.561V474.875H230.092ZM222.607 479.109C222.6 477.578 223.943 476.609 225.951 476.594C227.943 476.609 229.279 477.578 229.295 479.109C229.279 480.617 227.943 481.602 225.951 481.609C223.943 481.602 222.6 480.617 222.607 479.109ZM223.545 483.828V482.828H232.639V487.266H231.42V483.828H223.545ZM223.779 479.109C223.772 480.031 224.639 480.633 225.951 480.625C227.248 480.633 228.123 480.031 228.139 479.109C228.123 478.164 227.248 477.555 225.951 477.547C224.639 477.555 223.772 478.164 223.779 479.109ZM231.42 482.062V473.375H232.639V477.234H234.732V478.266H232.639V482.062H231.42ZM246.444 474.781V476.328C246.436 478.109 246.436 479.898 245.944 482.484L244.741 482.344C245.233 479.891 245.233 478.062 245.241 476.328V475.797H236.616V474.781H246.444ZM235.288 485.297V484.281H238.428V479.703H239.647V484.281H241.897V479.703H243.1V484.281H247.944V485.297H235.288ZM252.264 481.688C252.249 484.641 251.452 487.094 250.014 489.188H248.827C249.882 487.633 250.866 484.477 250.874 481.688C250.866 478.906 249.882 475.742 248.827 474.203H250.014C251.452 476.289 252.249 478.742 252.264 481.688Z" fill="#555555"/>
<path d="M65.6025 525.266V532.5H63.8681V528.922H61.0556V527.531H63.8681V525.266H65.6025ZM53.6963 531.188C55.9697 530.5 57.1494 528.758 57.1494 526.859V525.734H58.8994V526.859C58.8916 528.602 60.0322 530.25 62.2275 530.922L61.3056 532.266C59.7744 531.758 58.665 530.758 58.04 529.477C57.4306 530.906 56.2666 532.031 54.6025 532.578L53.6963 531.188ZM56.3056 534.469V533.109H65.6025V536.766H58.0244V537.844H66.0556V539.219H56.3213V535.469H63.8838V534.469H56.3056ZM79.47 525.266V539.391H77.8138V525.266H79.47ZM67.1419 535.172C70.0638 533.445 71.4075 531.234 71.6731 528.391H67.8919V526.984H73.3919C73.3919 527.695 73.345 528.391 73.2434 529.062H74.8919V525.609H76.5481V538.719H74.8919V534H72.6888V532.578H74.8919V530.484H72.9466C72.2747 532.828 70.8059 534.844 68.1575 536.406L67.1419 535.172ZM85.9863 538.125C85.3144 538.125 84.7597 537.578 84.7675 536.906C84.7597 536.25 85.3144 535.711 85.9863 535.703C86.6347 535.711 87.1894 536.25 87.1894 536.906C87.1894 537.578 86.6347 538.125 85.9863 538.125ZM84.7675 530.844C84.7597 530.188 85.3144 529.648 85.9863 529.641C86.6347 529.648 87.1894 530.188 87.1894 530.844C87.1894 531.516 86.6347 532.062 85.9863 532.062C85.3144 532.062 84.7597 531.516 84.7675 530.844ZM103.393 525.375V533.656H102.159V530.016H99.3619V529H102.159V525.375H103.393ZM91.94 532.547C94.0025 531.805 95.4713 529.922 95.4713 527.938V527.422H92.3306V526.391H99.815V527.422H96.7056V527.922C96.7056 529.734 98.0963 531.461 100.128 532.156L99.4869 533.141C97.9322 532.578 96.7213 531.406 96.1197 529.977C95.5259 531.602 94.2369 532.898 92.5806 533.531L91.94 532.547ZM94.1275 536.672C94.1197 535.039 95.8931 534.086 98.7838 534.094C101.667 534.086 103.44 535.039 103.44 536.672C103.44 538.312 101.667 539.25 98.7838 539.266C95.8931 539.25 94.1197 538.312 94.1275 536.672ZM95.3463 536.672C95.3384 537.68 96.6509 538.289 98.7838 538.281C100.909 538.289 102.221 537.68 102.221 536.672C102.221 535.656 100.909 535.047 98.7838 535.047C96.6509 535.047 95.3384 535.656 95.3463 536.672ZM111.714 525.734C114.683 525.742 116.604 526.805 116.604 528.516C116.604 530.219 114.683 531.273 111.714 531.266C108.745 531.273 106.8 530.219 106.808 528.516C106.8 526.805 108.745 525.742 111.714 525.734ZM105.386 533.359V532.344H118.058V533.359H114.808V536.25H113.589V533.359H111.026V536.25H109.808V533.359H105.386ZM106.948 538.969V535.078H108.183V537.938H116.745V538.969H106.948ZM108.12 528.516C108.104 529.602 109.55 530.273 111.714 530.281C113.87 530.273 115.308 529.602 115.308 528.516C115.308 527.422 113.87 526.742 111.714 526.734C109.55 526.742 108.104 527.422 108.12 528.516ZM130.894 527.438V528.453H119.519V527.438H124.613V525.609H125.816V527.438H130.894ZM118.894 537.641V536.625H124.613V534.672C122.136 534.539 120.644 533.578 120.659 532.016C120.644 530.367 122.386 529.391 125.222 529.406C128.019 529.391 129.792 530.367 129.784 532.016C129.792 533.578 128.269 534.539 125.816 534.672V536.625H131.613V537.641H118.894ZM121.894 532.016C121.878 533.07 123.152 533.68 125.222 533.688C127.269 533.68 128.542 533.07 128.534 532.016C128.542 530.984 127.269 530.375 125.222 530.375C123.152 530.375 121.878 530.984 121.894 532.016ZM147.254 526.781V528.328C147.246 530.109 147.246 531.898 146.754 534.484L145.551 534.344C146.043 531.891 146.043 530.062 146.051 528.328V527.797H137.426V526.781H147.254ZM136.098 537.297V536.281H139.238V531.703H140.457V536.281H142.707V531.703H143.91V536.281H148.754V537.297H136.098ZM156.574 526.672C156.582 528.633 159.129 530.32 161.637 530.672L161.137 531.672C158.981 531.312 156.84 530.117 155.949 528.414C155.059 530.133 152.926 531.312 150.762 531.672L150.262 530.672C152.77 530.32 155.309 528.664 155.309 526.672V525.875H156.574V526.672ZM149.606 534.234V533.203H162.262V534.234H156.512V539.266H155.309V534.234H149.606ZM163.973 533.688C163.989 530.742 164.786 528.289 166.223 526.203H167.411C166.356 527.742 165.372 530.906 165.364 533.688C165.372 536.477 166.356 539.633 167.411 541.188H166.223C164.786 539.094 163.989 536.641 163.973 533.688ZM179.106 525.391V529.969H181.2V531H179.106V535.797H177.888V525.391H179.106ZM168.278 528.094V527.094H171.809V525.391H173.028V527.094H176.559V528.094H168.278ZM169.075 531.453C169.067 529.875 170.411 528.859 172.419 528.859C174.403 528.859 175.747 529.875 175.763 531.453C175.747 533.016 174.403 534.023 172.419 534.016C170.411 534.023 169.067 533.016 169.075 531.453ZM170.247 531.453C170.239 532.43 171.106 533.062 172.419 533.047C173.716 533.062 174.591 532.43 174.606 531.453C174.591 530.461 173.716 529.82 172.419 529.828C171.106 529.82 170.239 530.461 170.247 531.453ZM170.419 538.969V534.969H171.622V537.938H179.747V538.969H170.419ZM192.802 526.062V527.062C192.802 528.094 192.802 529.344 192.458 531.016H194.474V532.016H188.693V534.578H192.896V539.266H191.661V535.594H183.068V534.578H187.474V532.016H181.755V531.016H191.224C191.591 529.32 191.591 528.094 191.583 527.062H183.364V526.062H192.802ZM206.122 525.375V529.25H208.216V530.297H206.122V534.344H204.904V525.375H206.122ZM195.294 527.938V526.969H198.826V525.266H200.044V526.969H203.576V527.938H195.294ZM196.091 531.109C196.083 529.625 197.419 528.664 199.435 528.656C201.427 528.664 202.763 529.625 202.779 531.109C202.763 532.609 201.427 533.57 199.435 533.562C197.419 533.57 196.083 532.609 196.091 531.109ZM197.185 536.844C197.177 535.328 198.896 534.445 201.732 534.438C204.56 534.445 206.279 535.328 206.279 536.844C206.279 538.352 204.56 539.234 201.732 539.234C198.896 539.234 197.177 538.352 197.185 536.844ZM197.263 531.109C197.255 532.023 198.122 532.609 199.435 532.609C200.732 532.609 201.607 532.023 201.622 531.109C201.607 530.195 200.732 529.594 199.435 529.578C198.122 529.594 197.255 530.195 197.263 531.109ZM198.404 536.844C198.388 537.742 199.654 538.289 201.732 538.281C203.802 538.289 205.068 537.742 205.06 536.844C205.068 535.922 203.802 535.406 201.732 535.406C199.654 535.406 198.388 535.922 198.404 536.844ZM215.052 534.156C218.029 534.156 219.92 535.094 219.927 536.703C219.92 538.297 218.029 539.234 215.052 539.234C212.076 539.234 210.185 538.297 210.193 536.703C210.185 535.094 212.076 534.156 215.052 534.156ZM208.787 532.859V531.859H214.021V529.172H215.224V531.859H221.427V532.859H208.787ZM210.287 527.094V526.094H219.818V527.266C219.81 528.391 219.81 529.516 219.427 530.953L218.224 530.812C218.599 529.383 218.599 528.352 218.599 527.266V527.094H210.287ZM211.412 536.703C211.404 537.672 212.842 538.266 215.052 538.266C217.271 538.266 218.693 537.672 218.709 536.703C218.693 535.711 217.271 535.102 215.052 535.094C212.842 535.102 211.404 535.711 211.412 536.703ZM234.154 525.375V539.266H232.983V531.984H230.936V538.547H229.811V525.688H230.936V530.969H232.983V525.375H234.154ZM222.795 535.828V527.078H227.998V528.094H224.014V534.781C225.928 534.773 227.248 534.703 228.795 534.391L228.904 535.422C227.233 535.766 225.818 535.82 223.686 535.828H222.795ZM244.1 526.875V527.875H235.819V526.875H239.35V525.312H240.569V526.875H244.1ZM236.616 531.109C236.608 529.578 237.952 528.609 239.959 528.594C241.952 528.609 243.288 529.578 243.303 531.109C243.288 532.617 241.952 533.602 239.959 533.609C237.952 533.602 236.608 532.617 236.616 531.109ZM237.553 535.828V534.828H246.647V539.266H245.428V535.828H237.553ZM237.788 531.109C237.78 532.031 238.647 532.633 239.959 532.625C241.256 532.633 242.131 532.031 242.147 531.109C242.131 530.164 241.256 529.555 239.959 529.547C238.647 529.555 237.78 530.164 237.788 531.109ZM245.428 534.062V525.375H246.647V529.234H248.741V530.266H246.647V534.062H245.428ZM260.452 526.781V528.328C260.444 530.109 260.444 531.898 259.952 534.484L258.749 534.344C259.241 531.891 259.241 530.062 259.249 528.328V527.797H250.624V526.781H260.452ZM249.296 537.297V536.281H252.436V531.703H253.655V536.281H255.905V531.703H257.108V536.281H261.952V537.297H249.296ZM266.272 533.688C266.257 536.641 265.46 539.094 264.022 541.188H262.835C263.89 539.633 264.874 536.477 264.882 533.688C264.874 530.906 263.89 527.742 262.835 526.203H264.022C265.46 528.289 266.257 530.742 266.272 533.688Z" fill="#555555"/>
<path d="M144.261 305.691V317.293H142.31V311.475H139.497V309.893H142.31V305.691H144.261ZM130.919 313.865C133.45 313.03 134.804 310.956 134.804 308.838V308.416H131.499V306.834H140.077V308.416H136.79V308.855C136.79 310.763 138.073 312.74 140.534 313.549L139.55 315.113C137.774 314.507 136.518 313.294 135.823 311.791C135.129 313.461 133.802 314.797 131.921 315.447L130.919 313.865ZM133.837 321.248V316.273H135.788V319.666H144.665V321.248H133.837ZM160.653 313.619V315.184H154.518V318.102H152.584V315.184H146.133V313.619H160.653ZM147.891 321.248V316.643H149.842V319.666H159.053V321.248H147.891ZM147.979 312.143V306.395H158.789V312.143H147.979ZM149.877 310.613H156.856V307.924H149.877V310.613ZM166.533 306.377C168.95 306.368 170.699 307.722 170.699 309.717C170.699 311.677 168.95 313.048 166.533 313.039C164.142 313.048 162.402 311.677 162.402 309.717C162.402 307.722 164.142 306.368 166.533 306.377ZM161.365 314.129C164.23 314.129 168.247 314.076 171.666 313.566L171.806 315.008C170.435 315.271 169.011 315.438 167.623 315.544V321.072H165.654V315.658C164.186 315.72 162.806 315.737 161.611 315.746L161.365 314.129ZM164.3 309.717C164.292 310.78 165.232 311.448 166.533 311.439C167.886 311.448 168.836 310.78 168.836 309.717C168.836 308.618 167.886 307.941 166.533 307.959C165.232 307.941 164.292 308.618 164.3 309.717ZM172.703 321.547V305.691H174.636V321.547H172.703ZM189.868 305.691V317.715H187.899V316.326H184.788V314.955H187.899V305.691H189.868ZM176.474 312.828C179.4 312.811 183.347 312.784 186.722 312.354L186.827 313.76C185.518 313.979 184.164 314.12 182.819 314.217V317.275H180.868V314.322C179.383 314.384 177.968 314.393 176.72 314.393L176.474 312.828ZM177.687 309.084C177.687 307.405 179.304 306.263 181.659 306.271C183.971 306.263 185.597 307.405 185.614 309.084C185.597 310.789 183.971 311.87 181.659 311.879C179.304 311.87 177.687 310.789 177.687 309.084ZM178.583 321.248V316.555H180.534V319.666H190.237V321.248H178.583ZM179.532 309.084C179.532 309.945 180.385 310.446 181.659 310.455C182.872 310.446 183.742 309.945 183.751 309.084C183.742 308.223 182.872 307.704 181.659 307.713C180.385 307.704 179.532 308.223 179.532 309.084Z" fill="white"/>
<path d="M135.384 170.725V172.307H120.9V170.725H127.158V169.037H129.091V170.725H135.384ZM121.586 168.316C124.873 168.097 126.745 167.007 127 165.697H122.324V164.15H127.158V162.709H129.091V164.15H133.961V165.697H129.241C129.487 167.007 131.368 168.097 134.664 168.316L134.066 169.811C131.227 169.591 129.109 168.703 128.125 167.332C127.123 168.703 125.013 169.591 122.183 169.811L121.586 168.316ZM122.588 175.875C122.588 174.135 124.644 173.194 128.125 173.186C131.588 173.194 133.618 174.135 133.627 175.875C133.618 177.606 131.588 178.547 128.125 178.547C124.644 178.547 122.588 177.606 122.588 175.875ZM124.574 175.875C124.565 176.684 125.787 177.088 128.125 177.088C130.419 177.088 131.658 176.684 131.675 175.875C131.658 175.058 130.419 174.645 128.125 174.645C125.787 174.645 124.565 175.058 124.574 175.875ZM144.974 163.447V164.309C144.974 165.231 144.974 166.603 144.604 168.316L142.706 168.105C142.952 166.822 143.014 165.812 143.031 164.994H136.87V163.447H144.974ZM135.921 169.336C136.879 169.336 137.934 169.327 139.032 169.31V166.646H140.948V169.257C142.601 169.195 144.279 169.09 145.835 168.896L145.958 170.268C142.653 170.821 138.962 170.865 136.097 170.865L135.921 169.336ZM137.978 173.221V171.779H148.77V175.717H139.946V176.93H149.315V178.406H138.013V174.328H146.784V173.221H137.978ZM146.767 171.164V162.674H148.77V166.207H150.827V167.789H148.77V171.164H146.767ZM160.109 166.242C160.109 167.921 161.129 169.582 163.132 170.268L162.254 171.744C160.795 171.208 159.793 170.206 159.221 168.984C158.668 170.32 157.657 171.419 156.154 172.008L155.24 170.566C157.253 169.775 158.246 168.044 158.263 166.242V166.119H155.644V164.59H158.263V162.85H160.109V164.59H162.693V166.119H160.109V166.242ZM157.912 174.715V173.133H168.793V178.564H166.841V174.715H157.912ZM163.554 172.342V162.955H165.4V166.77H166.929V162.691H168.793V172.412H166.929V168.352H165.4V172.342H163.554ZM183.638 162.691V171.691H181.669V162.691H183.638ZM170.683 167.244C170.683 165.003 172.511 163.456 174.972 163.447C177.424 163.456 179.252 165.003 179.243 167.244C179.252 169.433 177.424 171.006 174.972 171.006C172.511 171.006 170.683 169.433 170.683 167.244ZM172.599 167.244C172.59 168.527 173.583 169.362 174.972 169.354C176.334 169.362 177.327 168.527 177.327 167.244C177.327 165.926 176.334 165.1 174.972 165.1C173.583 165.1 172.59 165.926 172.599 167.244ZM173.091 178.371V172.465H183.638V178.371H173.091ZM175.024 176.789H181.722V174.012H175.024V176.789ZM191.293 167.191C191.285 169.644 192.761 172.438 195.266 173.607L194.176 175.154C192.383 174.311 191.056 172.605 190.344 170.619C189.623 172.799 188.235 174.662 186.407 175.541L185.264 174.012C187.795 172.808 189.333 169.837 189.342 167.191V165.855H185.879V164.238H194.616V165.855H191.293V167.191ZM196.092 178.564V162.674H198.043V168.861H200.487V170.496H198.043V178.564H196.092Z" fill="white"/>
<rect x="0.5" y="210.5" width="319" height="43" rx="21.5" fill="white" stroke="#5FB3EF"/>
<path d="M100.123 225.281C100.123 228.789 97.545 231.289 93.4512 232.375L92.9512 231.406C96.3809 230.5 98.5528 228.656 98.8184 226.281H93.6856V225.281H100.123ZM95.2325 238.078V232.906H104.264V238.078H95.2325ZM96.4356 237.078H103.061V233.891H96.4356V237.078ZM103.045 232.234V224.391H104.264V232.234H103.045ZM114.178 225.938V226.938H106.319V225.938H109.694V224.266H110.912V225.938H114.178ZM107.147 230.219C107.131 228.672 108.412 227.648 110.287 227.656C112.147 227.648 113.452 228.672 113.459 230.219C113.452 231.773 112.147 232.789 110.287 232.797C108.412 232.789 107.131 231.773 107.147 230.219ZM108.287 230.219C108.28 231.195 109.077 231.852 110.287 231.844C111.483 231.852 112.303 231.195 112.319 230.219C112.303 229.242 111.483 228.594 110.287 228.578C109.077 228.594 108.28 229.242 108.287 230.219ZM108.569 235.875C108.569 234.359 110.327 233.5 113.241 233.5C116.139 233.5 117.897 234.359 117.897 235.875C117.897 237.367 116.139 238.234 113.241 238.234C110.327 238.234 108.569 237.367 108.569 235.875ZM109.834 235.875C109.842 236.758 111.131 237.289 113.241 237.281C115.319 237.289 116.6 236.758 116.6 235.875C116.6 234.969 115.319 234.461 113.241 234.453C111.131 234.461 109.842 234.969 109.834 235.875ZM114.162 231.438V230.422H116.584V228.734H114.178V227.719H116.584V224.375H117.819V233.359H116.584V231.438H114.162ZM131.311 224.375V231.984H130.092V228.078H126.999V227.062H130.092V224.375H131.311ZM119.827 230.938C121.889 230.219 123.327 228.367 123.342 226.375V224.906H124.546V226.438C124.53 228.281 125.96 229.969 127.967 230.641L127.342 231.609C125.772 231.055 124.546 229.93 123.936 228.492C123.342 230.055 122.092 231.305 120.467 231.906L119.827 230.938ZM122.374 238.078V232.656H123.608V234.359H130.092V232.656H131.311V238.078H122.374ZM123.608 237.078H130.092V235.328H123.608V237.078ZM137.874 232.688C137.89 229.742 138.687 227.289 140.124 225.203H141.312C140.257 226.742 139.273 229.906 139.265 232.688C139.273 235.477 140.257 238.633 141.312 240.188H140.124C138.687 238.094 137.89 235.641 137.874 232.688ZM146.929 226.562C146.914 228.547 148.328 230.289 150.367 230.984L149.679 231.938C148.148 231.367 146.945 230.234 146.343 228.773C145.75 230.438 144.484 231.727 142.804 232.359L142.132 231.359C144.273 230.609 145.695 228.766 145.711 226.609V225.172H146.929V226.562ZM144.398 235.641C144.39 233.969 146.164 233.008 149.054 233.016C151.937 233.008 153.711 233.969 153.711 235.641C153.711 237.297 151.937 238.234 149.054 238.234C146.164 238.234 144.39 237.297 144.398 235.641ZM145.617 235.641C145.609 236.648 146.922 237.258 149.054 237.25C151.179 237.258 152.492 236.648 152.492 235.641C152.492 234.602 151.179 233.984 149.054 233.984C146.922 233.984 145.609 234.602 145.617 235.641ZM149.336 228.375V227.359H152.429V224.375H153.664V232.609H152.429V228.375H149.336ZM166.703 225.141V226.188C166.703 227.305 166.703 228.609 166.375 230.344H168.375V231.359H164.812V234.719H163.625V231.359H161.078V234.719H159.875V231.359H155.656V230.344H165.156C165.492 228.586 165.492 227.305 165.484 226.188V226.141H157.266V225.141H166.703ZM157.219 237.969V233.625H158.438V236.938H167.078V237.969H157.219ZM176.868 225.453V226.188C176.86 227.102 176.86 228.484 176.508 230.297L175.274 230.203C175.61 228.547 175.641 227.367 175.657 226.484H169.946V225.453H176.868ZM169.086 231.594C169.985 231.594 171 231.586 172.071 231.555V228.531H173.289V231.516C174.828 231.453 176.422 231.344 177.868 231.141L177.946 232.047C175.032 232.547 171.688 232.602 169.211 232.609L169.086 231.594ZM171.227 237.969V233.891H172.461V236.938H180.508V237.969H171.227ZM178.805 234.828V224.375H180.055V228.906H182.086V229.953H180.055V234.828H178.805ZM194.548 224.375V238.266H193.376V230.984H191.329V237.547H190.204V224.688H191.329V229.969H193.376V224.375H194.548ZM183.188 234.828V226.078H188.391V227.094H184.407V233.781C186.321 233.773 187.641 233.703 189.188 233.391L189.298 234.422C187.626 234.766 186.212 234.82 184.079 234.828H183.188ZM204.493 225.875V226.875H196.212V225.875H199.743V224.312H200.962V225.875H204.493ZM197.009 230.109C197.001 228.578 198.345 227.609 200.353 227.594C202.345 227.609 203.681 228.578 203.696 230.109C203.681 231.617 202.345 232.602 200.353 232.609C198.345 232.602 197.001 231.617 197.009 230.109ZM197.946 234.828V233.828H207.04V238.266H205.821V234.828H197.946ZM198.181 230.109C198.173 231.031 199.04 231.633 200.353 231.625C201.649 231.633 202.524 231.031 202.54 230.109C202.524 229.164 201.649 228.555 200.353 228.547C199.04 228.555 198.173 229.164 198.181 230.109ZM205.821 233.062V224.375H207.04V228.234H209.134V229.266H207.04V233.062H205.821ZM220.845 225.781V227.328C220.837 229.109 220.837 230.898 220.345 233.484L219.142 233.344C219.634 230.891 219.634 229.062 219.642 227.328V226.797H211.017V225.781H220.845ZM209.689 236.297V235.281H212.829V230.703H214.048V235.281H216.298V230.703H217.501V235.281H222.345V236.297H209.689ZM226.666 232.688C226.65 235.641 225.853 238.094 224.416 240.188H223.228C224.283 238.633 225.267 235.477 225.275 232.688C225.267 229.906 224.283 226.742 223.228 225.203H224.416C225.853 227.289 226.65 229.742 226.666 232.688Z" fill="#555555"/>
<rect x="0.5" y="584.5" width="319" height="59" rx="29.5" fill="#39A3ED" stroke="#0094EA"/>
<path d="M84.6695 609.488C84.6519 612.327 86.0757 615.192 88.5366 616.379L87.3413 617.943C85.6187 617.073 84.3794 615.395 83.7027 613.373C83.0083 615.535 81.7075 617.328 79.8882 618.242L78.6929 616.678C81.2505 615.465 82.7095 612.424 82.7183 609.488V606.957H84.6695V609.488ZM89.4859 621.564V605.674H91.437V611.896H93.8804V613.566H91.437V621.564H89.4859ZM108.69 614.674V616.256H102.362V621.547H100.429V616.256H94.1708V614.674H108.69ZM95.9462 612.811V606.482H106.915V612.811H95.9462ZM97.8622 611.281H104.964V608.047H97.8622V611.281ZM122.129 606.395V607.607C122.138 608.785 122.138 610.156 121.786 611.932H123.905V613.514H117.594V615.992H122.164V621.564H120.213V617.557H110.862V615.992H115.643V613.514H109.385V611.932H119.826C120.143 610.297 120.178 609.058 120.178 607.959H111.178V606.395H122.129ZM125.531 615.148C125.531 611.844 126.515 609.084 128.168 606.729H130.277C129.064 608.478 127.851 612.002 127.851 615.148C127.851 618.295 129.064 621.828 130.277 623.586H128.168C126.515 621.213 125.531 618.462 125.531 615.148ZM143.487 605.691V610.279H145.702V611.896H143.487V617.381H141.536V605.691H143.487ZM131.499 614.797V606.816H133.433V609.242H137.142V606.816H139.075V614.797H131.499ZM133.31 621.248V616.203H135.261V619.666H144.12V621.248H133.31ZM133.433 613.25H137.142V610.754H133.433V613.25ZM159.053 612.898V614.445H154.342V618.084H160.67V619.684H146.151V618.084H152.409V614.445H147.909V606.852H158.93V608.416H149.86V612.898H159.053ZM166.199 610.525C166.199 612.986 167.21 615.465 169.433 616.66L168.343 618.102C166.867 617.319 165.865 615.922 165.294 614.252C164.731 616.054 163.729 617.601 162.244 618.471L161.101 616.994C163.351 615.693 164.344 613.039 164.353 610.525V610.033H161.646V608.451H164.353V606.236H166.199V608.451H168.853V610.033H166.199V610.525ZM167.869 613.391V611.773H169.943V605.973H171.789V620.791H169.943V613.391H167.869ZM173.16 621.564V605.674H175.023V621.564H173.16ZM189.851 605.691V617.346H187.899V613.408H184.111C183.356 614.261 182.231 614.771 180.956 614.779C178.557 614.771 176.755 613.065 176.755 610.719C176.755 608.346 178.557 606.649 180.956 606.641C182.222 606.649 183.347 607.15 184.103 607.994H187.899V605.691H189.851ZM178.618 610.719C178.618 612.134 179.594 613.039 180.956 613.039C182.257 613.039 183.25 612.134 183.259 610.719C183.25 609.295 182.257 608.381 180.956 608.381C179.594 608.381 178.618 609.295 178.618 610.719ZM179.427 621.248V616.15H181.378V619.666H190.255V621.248H179.427ZM184.964 609.576C185.061 609.937 185.122 610.314 185.122 610.719C185.122 611.105 185.069 611.475 184.973 611.826H187.899V609.576H184.964ZM204.45 606.641V608.064C204.441 609.55 204.441 611.176 204.028 613.426H206.225V615.008H199.914V621.582H197.946V615.008H191.741V613.426H202.041C202.481 611.264 202.498 609.638 202.498 608.223H193.446V606.641H204.45ZM221.457 618.049V619.648H206.937V618.049H213.213V614.393H215.164V618.049H221.457ZM207.57 613.514C210.734 612.986 213.09 610.842 213.142 608.557H208.15V606.957H220.209V608.557H215.199C215.261 610.842 217.616 612.934 220.877 613.426L220.103 614.973C217.423 614.489 215.217 613.065 214.188 611.079C213.169 613.092 210.989 614.56 208.344 615.061L207.57 613.514ZM234.667 605.674V609.594H236.882V611.211H234.667V614.955H232.716V605.674H234.667ZM222.151 608.715V607.15H225.896V605.551H227.847V607.15H231.573V608.715H222.151ZM222.96 612.055C222.96 610.367 224.542 609.26 226.862 609.26C229.156 609.26 230.738 610.367 230.747 612.055C230.738 613.742 229.156 614.858 226.862 614.85C224.542 614.858 222.96 613.742 222.96 612.055ZM224.401 621.371V615.588H226.335V616.959H232.716V615.588H234.667V621.371H224.401ZM224.859 612.055C224.85 612.916 225.658 613.408 226.862 613.408C228.067 613.408 228.884 612.916 228.884 612.055C228.884 611.22 228.067 610.701 226.862 610.701C225.658 610.701 224.85 611.22 224.859 612.055ZM226.335 619.824H232.716V618.471H226.335V619.824ZM242.059 615.148C242.059 618.462 241.075 621.213 239.422 623.586H237.313C238.526 621.828 239.739 618.295 239.739 615.148C239.739 612.002 238.526 608.478 237.313 606.729H239.422C241.075 609.084 242.059 611.844 242.059 615.148Z" fill="white"/>
</svg>
