<svg width="282" height="152" viewBox="0 0 282 152" fill="none" xmlns="http://www.w3.org/2000/svg">
<path fill-rule="evenodd" clip-rule="evenodd" d="M164 14H118V118.171H100L141 152L182 118.171H164V14Z" fill="url(#paint0_linear_275_3930)"/>
<rect x="0.5" y="0.5" width="281" height="43" rx="21.5" fill="white" stroke="#0094EA"/>
<rect x="0.5" y="64.5" width="281" height="43" rx="21.5" fill="white" stroke="#0094EA"/>
<path d="M109.198 16.3906V26.6562H107.964V22.9062H104.37C103.729 23.7266 102.698 24.2188 101.511 24.2188C99.4325 24.2188 97.8934 22.7812 97.9012 20.75C97.8934 18.7109 99.4325 17.2734 101.511 17.2656C102.69 17.2734 103.706 17.7578 104.354 18.5625H107.964V16.3906H109.198ZM99.0731 20.75C99.0731 22.1406 100.089 23.1328 101.511 23.125C102.878 23.1328 103.917 22.1406 103.917 20.75C103.917 19.3672 102.878 18.3672 101.511 18.3594C100.089 18.3672 99.0731 19.3672 99.0731 20.75ZM100.276 29.9688V25.5781H101.511V28.9375H109.589V29.9688H100.276ZM104.909 19.5781C105.034 19.9375 105.104 20.3281 105.104 20.75C105.104 21.1562 105.034 21.5391 104.917 21.8906H107.964V19.5781H104.909ZM122.175 17.2812V18.5C122.175 19.8125 122.175 21.2578 121.777 23.25H123.847V24.2656H118.112V30.2969H116.878V24.2656H111.191V23.25H120.534C120.956 21.25 120.956 19.7969 120.956 18.5V18.2969H112.784V17.2812H122.175ZM132.402 17.9219V18.6406C132.394 19.7422 132.394 21.5781 131.996 24.1562L130.761 24.0469C131.144 21.7188 131.175 20.0312 131.167 18.9219H125.339V17.9219H132.402ZM124.558 26.1875C125.472 26.1797 126.488 26.1719 127.558 26.1484V21.8906H128.761V26.1094C130.3 26.0547 131.878 25.9531 133.324 25.7812L133.386 26.7031C130.464 27.1562 127.199 27.2188 124.714 27.2031L124.558 26.1875ZM134.199 30.2656V16.375H135.417V22.1875H137.667V23.25H135.417V30.2656H134.199ZM150.082 16.375V30.2656H148.91V16.375H150.082ZM138.035 26.5625C139.972 25.4062 141.105 22.8672 141.097 20.3438V19.0312H138.426V18.0156H144.832V19.0312H142.285V20.3438C142.285 22.7422 143.371 25.1406 145.285 26.25L144.535 27.1562C143.168 26.3359 142.199 24.8359 141.715 23.0703C141.215 24.9844 140.207 26.6172 138.816 27.4844L138.035 26.5625ZM143.769 22.3906V21.3906H146.113V16.7188H147.269V29.5469H146.113V22.3906H143.769ZM162.379 17.6719C162.387 19.6328 164.934 21.3203 167.442 21.6719L166.942 22.6719C164.786 22.3125 162.645 21.1172 161.754 19.4141C160.864 21.1328 158.731 22.3125 156.567 22.6719L156.067 21.6719C158.575 21.3203 161.114 19.6641 161.114 17.6719V16.875H162.379V17.6719ZM155.411 25.2344V24.2031H168.067V25.2344H162.317V30.2656H161.114V25.2344H155.411ZM180.716 16.375V25.1719H179.544V21.1875H177.684V24.6719H176.528V16.6562H177.684V20.1719H179.544V16.375H180.716ZM168.841 19.0312V18.0469H171.809V16.4844H173.028V18.0469H175.966V19.0312H168.841ZM169.45 22.1562C169.442 20.7031 170.669 19.7734 172.419 19.7812C174.177 19.7734 175.395 20.7031 175.403 22.1562C175.395 23.5859 174.177 24.5156 172.419 24.5156C170.669 24.5156 169.442 23.5859 169.45 22.1562ZM170.544 22.1562C170.544 23.0078 171.309 23.5938 172.419 23.5938C173.528 23.5938 174.294 23.0078 174.294 22.1562C174.294 21.2734 173.528 20.6875 172.419 20.6875C171.309 20.6875 170.544 21.2734 170.544 22.1562ZM171.466 27.8438C171.45 26.2812 173.192 25.4062 176.122 25.4062C179.044 25.4062 180.786 26.2812 180.794 27.8438C180.786 29.3672 179.044 30.2344 176.122 30.2344C173.192 30.2344 171.45 29.3672 171.466 27.8438ZM172.684 27.8438C172.669 28.7422 173.958 29.2891 176.122 29.2812C178.278 29.2891 179.559 28.7422 179.575 27.8438C179.559 26.8906 178.278 26.3594 176.122 26.375C173.958 26.3594 172.669 26.8906 172.684 27.8438Z" fill="#333333"/>
<path d="M110.546 80.3906V90.6562H109.312V86.9062H105.718C105.077 87.7266 104.046 88.2188 102.858 88.2188C100.78 88.2188 99.2412 86.7812 99.2491 84.75C99.2412 82.7109 100.78 81.2734 102.858 81.2656C104.038 81.2734 105.054 81.7578 105.702 82.5625H109.312V80.3906H110.546ZM100.421 84.75C100.421 86.1406 101.437 87.1328 102.858 87.125C104.226 87.1328 105.265 86.1406 105.265 84.75C105.265 83.3672 104.226 82.3672 102.858 82.3594C101.437 82.3672 100.421 83.3672 100.421 84.75ZM101.624 93.9688V89.5781H102.858V92.9375H110.937V93.9688H101.624ZM106.257 83.5781C106.382 83.9375 106.452 84.3281 106.452 84.75C106.452 85.1562 106.382 85.5391 106.265 85.8906H109.312V83.5781H106.257ZM123.523 81.2812V82.5C123.523 83.8125 123.523 85.2578 123.124 87.25H125.195V88.2656H119.46V94.2969H118.226V88.2656H112.538V87.25H121.882C122.304 85.25 122.304 83.7969 122.304 82.5V82.2969H114.132V81.2812H123.523ZM133.75 81.9219V82.6406C133.742 83.7422 133.742 85.5781 133.343 88.1562L132.109 88.0469C132.492 85.7188 132.523 84.0312 132.515 82.9219H126.687V81.9219H133.75ZM125.906 90.1875C126.82 90.1797 127.836 90.1719 128.906 90.1484V85.8906H130.109V90.1094C131.648 90.0547 133.226 89.9531 134.672 89.7812L134.734 90.7031C131.812 91.1562 128.547 91.2188 126.062 91.2031L125.906 90.1875ZM135.547 94.2656V80.375H136.765V86.1875H139.015V87.25H136.765V94.2656H135.547ZM151.43 80.375V94.2656H150.258V80.375H151.43ZM139.383 90.5625C141.32 89.4062 142.453 86.8672 142.445 84.3438V83.0312H139.773V82.0156H146.18V83.0312H143.633V84.3438C143.633 86.7422 144.719 89.1406 146.633 90.25L145.883 91.1562C144.516 90.3359 143.547 88.8359 143.062 87.0703C142.562 88.9844 141.555 90.6172 140.164 91.4844L139.383 90.5625ZM145.117 86.3906V85.3906H147.461V80.7188H148.617V93.5469H147.461V86.3906H145.117ZM163.68 85.3125V87.2969H169.415V88.3125H156.758V87.2969H162.477V85.3125H163.68ZM157.462 85.0312C159.883 84.7734 162.204 83.5859 162.29 82.0312H157.915V81.0312H168.29V82.0312H163.883C163.969 83.5781 166.29 84.7734 168.712 85.0312L168.258 86C165.985 85.7188 163.852 84.7266 163.087 83.1875C162.321 84.7266 160.204 85.7188 157.915 86L157.462 85.0312ZM158.29 91.8438C158.282 90.3047 160.071 89.4531 163.087 89.4531C166.071 89.4531 167.852 90.3047 167.868 91.8438C167.852 93.3906 166.071 94.2344 163.087 94.2344C160.071 94.2344 158.282 93.3906 158.29 91.8438ZM159.54 91.8438C159.524 92.7578 160.837 93.2891 163.087 93.2812C165.313 93.2891 166.626 92.7578 166.633 91.8438C166.626 90.9375 165.313 90.4141 163.087 90.4219C160.837 90.4141 159.524 90.9375 159.54 91.8438ZM182.985 91.5156V92.5469H170.267V91.5156H173.845V88.875H171.86V84.5938H180.173V82.4219H171.829V81.4062H181.376V85.6094H173.079V87.8594H181.704V88.875H179.532V91.5156H182.985ZM175.048 91.5156H178.329V88.875H175.048V91.5156Z" fill="#333333"/>
<defs>
<linearGradient id="paint0_linear_275_3930" x1="141" y1="14" x2="141" y2="152" gradientUnits="userSpaceOnUse">
<stop stop-color="#0094EA" stop-opacity="0"/>
<stop offset="1" stop-color="#0094EA"/>
</linearGradient>
</defs>
</svg>
