<svg width="277" height="216" viewBox="0 0 277 216" fill="none" xmlns="http://www.w3.org/2000/svg">
<path fill-rule="evenodd" clip-rule="evenodd" d="M160 24H114V182.171H96L137 216L178 182.171H160V24Z" fill="url(#paint0_linear_275_3929)"/>
<rect x="0.5" y="0.5" width="276" height="43" rx="21.5" fill="white" stroke="#0094EA"/>
<rect x="0.5" y="64.5" width="276" height="43" rx="21.5" fill="white" stroke="#0094EA"/>
<rect x="0.5" y="128.5" width="276" height="43" rx="21.5" fill="white" stroke="#0094EA"/>
<path d="M106.198 16.3906V26.6562H104.964V22.9062H101.37C100.729 23.7266 99.6981 24.2188 98.5106 24.2188C96.4325 24.2188 94.8934 22.7812 94.9012 20.75C94.8934 18.7109 96.4325 17.2734 98.5106 17.2656C99.6903 17.2734 100.706 17.7578 101.354 18.5625H104.964V16.3906H106.198ZM96.0731 20.75C96.0731 22.1406 97.0887 23.1328 98.5106 23.125C99.8778 23.1328 100.917 22.1406 100.917 20.75C100.917 19.3672 99.8778 18.3672 98.5106 18.3594C97.0887 18.3672 96.0731 19.3672 96.0731 20.75ZM97.2762 29.9688V25.5781H98.5106V28.9375H106.589V29.9688H97.2762ZM101.909 19.5781C102.034 19.9375 102.104 20.3281 102.104 20.75C102.104 21.1562 102.034 21.5391 101.917 21.8906H104.964V19.5781H101.909ZM119.175 17.2812V18.5C119.175 19.8125 119.175 21.2578 118.777 23.25H120.847V24.2656H115.112V30.2969H113.878V24.2656H108.191V23.25H117.534C117.956 21.25 117.956 19.7969 117.956 18.5V18.2969H109.784V17.2812H119.175ZM132.363 17.6719C132.371 19.6328 134.918 21.3203 137.426 21.6719L136.926 22.6719C134.769 22.3125 132.629 21.1172 131.738 19.4141C130.847 21.1328 128.715 22.3125 126.551 22.6719L126.051 21.6719C128.558 21.3203 131.097 19.6641 131.097 17.6719V16.875H132.363V17.6719ZM125.394 25.2344V24.2031H138.051V25.2344H132.301V30.2656H131.097V25.2344H125.394ZM150.699 16.375V25.1719H149.527V21.1875H147.668V24.6719H146.512V16.6562H147.668V20.1719H149.527V16.375H150.699ZM138.824 19.0312V18.0469H141.793V16.4844H143.012V18.0469H145.949V19.0312H138.824ZM139.434 22.1562C139.426 20.7031 140.652 19.7734 142.402 19.7812C144.16 19.7734 145.379 20.7031 145.387 22.1562C145.379 23.5859 144.16 24.5156 142.402 24.5156C140.652 24.5156 139.426 23.5859 139.434 22.1562ZM140.527 22.1562C140.527 23.0078 141.293 23.5938 142.402 23.5938C143.512 23.5938 144.277 23.0078 144.277 22.1562C144.277 21.2734 143.512 20.6875 142.402 20.6875C141.293 20.6875 140.527 21.2734 140.527 22.1562ZM141.449 27.8438C141.434 26.2812 143.176 25.4062 146.106 25.4062C149.027 25.4062 150.77 26.2812 150.777 27.8438C150.77 29.3672 149.027 30.2344 146.106 30.2344C143.176 30.2344 141.434 29.3672 141.449 27.8438ZM142.668 27.8438C142.652 28.7422 143.942 29.2891 146.106 29.2812C148.262 29.2891 149.543 28.7422 149.559 27.8438C149.543 26.8906 148.262 26.3594 146.106 26.375C143.942 26.3594 142.652 26.8906 142.668 27.8438ZM168.825 27.4844V28.5156H156.106V27.4844H161.841V24.2969H163.044V27.4844H168.825ZM156.809 23.8281C159.489 23.3984 161.809 21.7812 161.825 19.6094H157.294V18.5938H161.841V16.6719H163.044V18.5938H167.606V19.6094H163.075C163.075 21.7812 165.395 23.3984 168.059 23.8281L167.591 24.7969C165.372 24.4062 163.333 23.2812 162.442 21.5391C161.567 23.2812 159.528 24.4062 157.294 24.7969L156.809 23.8281ZM181.099 16.375V30.2656H179.864V16.375H181.099ZM169.786 26.6562C173.544 24.875 175.466 22.2109 175.739 18.8906H170.427V17.8906H176.989C176.974 21.8828 175.114 25.4219 170.458 27.6562L169.786 26.6562Z" fill="#333333"/>
<path d="M106.198 80.3906V90.6562H104.964V86.9062H101.37C100.729 87.7266 99.6981 88.2188 98.5106 88.2188C96.4325 88.2188 94.8934 86.7812 94.9012 84.75C94.8934 82.7109 96.4325 81.2734 98.5106 81.2656C99.6903 81.2734 100.706 81.7578 101.354 82.5625H104.964V80.3906H106.198ZM96.0731 84.75C96.0731 86.1406 97.0887 87.1328 98.5106 87.125C99.8778 87.1328 100.917 86.1406 100.917 84.75C100.917 83.3672 99.8778 82.3672 98.5106 82.3594C97.0887 82.3672 96.0731 83.3672 96.0731 84.75ZM97.2762 93.9688V89.5781H98.5106V92.9375H106.589V93.9688H97.2762ZM101.909 83.5781C102.034 83.9375 102.104 84.3281 102.104 84.75C102.104 85.1562 102.034 85.5391 101.917 85.8906H104.964V83.5781H101.909ZM119.175 81.2812V82.5C119.175 83.8125 119.175 85.2578 118.777 87.25H120.847V88.2656H115.112V94.2969H113.878V88.2656H108.191V87.25H117.534C117.956 85.25 117.956 83.7969 117.956 82.5V82.2969H109.784V81.2812H119.175ZM132.363 81.6719C132.371 83.6328 134.918 85.3203 137.426 85.6719L136.926 86.6719C134.769 86.3125 132.629 85.1172 131.738 83.4141C130.847 85.1328 128.715 86.3125 126.551 86.6719L126.051 85.6719C128.558 85.3203 131.097 83.6641 131.097 81.6719V80.875H132.363V81.6719ZM125.394 89.2344V88.2031H138.051V89.2344H132.301V94.2656H131.097V89.2344H125.394ZM150.699 80.375V89.1719H149.527V85.1875H147.668V88.6719H146.512V80.6562H147.668V84.1719H149.527V80.375H150.699ZM138.824 83.0312V82.0469H141.793V80.4844H143.012V82.0469H145.949V83.0312H138.824ZM139.434 86.1562C139.426 84.7031 140.652 83.7734 142.402 83.7812C144.16 83.7734 145.379 84.7031 145.387 86.1562C145.379 87.5859 144.16 88.5156 142.402 88.5156C140.652 88.5156 139.426 87.5859 139.434 86.1562ZM140.527 86.1562C140.527 87.0078 141.293 87.5938 142.402 87.5938C143.512 87.5938 144.277 87.0078 144.277 86.1562C144.277 85.2734 143.512 84.6875 142.402 84.6875C141.293 84.6875 140.527 85.2734 140.527 86.1562ZM141.449 91.8438C141.434 90.2812 143.176 89.4062 146.106 89.4062C149.027 89.4062 150.77 90.2812 150.777 91.8438C150.77 93.3672 149.027 94.2344 146.106 94.2344C143.176 94.2344 141.434 93.3672 141.449 91.8438ZM142.668 91.8438C142.652 92.7422 143.942 93.2891 146.106 93.2812C148.262 93.2891 149.543 92.7422 149.559 91.8438C149.543 90.8906 148.262 90.3594 146.106 90.375C143.942 90.3594 142.652 90.8906 142.668 91.8438ZM168.762 86.875V87.8906H163.028V89.375C165.645 89.4922 167.2 90.3438 167.216 91.8125C167.2 93.3672 165.411 94.2344 162.434 94.2344C159.419 94.2344 157.63 93.3672 157.637 91.8125C157.63 90.3438 159.177 89.4922 161.825 89.375V87.8906H156.106V86.875H168.762ZM156.825 85.0625C159.231 84.8125 161.552 83.5859 161.637 82.0312H157.262V81.0312H167.637V82.0312H163.231C163.317 83.5859 165.614 84.8125 168.059 85.0625L167.606 86.0312C165.333 85.7578 163.2 84.7344 162.434 83.1953C161.669 84.7344 159.552 85.7578 157.262 86.0312L156.825 85.0625ZM158.887 91.8125C158.872 92.7344 160.208 93.2891 162.434 93.2812C164.637 93.2891 165.973 92.7344 165.981 91.8125C165.973 90.8672 164.637 90.3281 162.434 90.3125C160.208 90.3281 158.872 90.8672 158.887 91.8125ZM181.099 80.375V94.2656H179.864V80.375H181.099ZM169.786 90.6562C173.544 88.875 175.466 86.2109 175.739 82.8906H170.427V81.8906H176.989C176.974 85.8828 175.114 89.4219 170.458 91.6562L169.786 90.6562Z" fill="#333333"/>
<path d="M121.554 144.391V154.656H120.32V150.906H116.726C116.085 151.727 115.054 152.219 113.867 152.219C111.788 152.219 110.249 150.781 110.257 148.75C110.249 146.711 111.788 145.273 113.867 145.266C115.046 145.273 116.062 145.758 116.71 146.562H120.32V144.391H121.554ZM111.429 148.75C111.429 150.141 112.445 151.133 113.867 151.125C115.234 151.133 116.273 150.141 116.273 148.75C116.273 147.367 115.234 146.367 113.867 146.359C112.445 146.367 111.429 147.367 111.429 148.75ZM112.632 157.969V153.578H113.867V156.938H121.945V157.969H112.632ZM117.265 147.578C117.39 147.938 117.46 148.328 117.46 148.75C117.46 149.156 117.39 149.539 117.273 149.891H120.32V147.578H117.265ZM134.531 145.281V146.5C134.531 147.812 134.531 149.258 134.132 151.25H136.203V152.266H130.468V158.297H129.234V152.266H123.547V151.25H132.89C133.312 149.25 133.312 147.797 133.312 146.5V146.297H125.14V145.281H134.531ZM147.672 149.312V151.297H153.407V152.312H140.75V151.297H146.469V149.312H147.672ZM141.453 149.031C143.875 148.773 146.196 147.586 146.282 146.031H141.907V145.031H152.282V146.031H147.875C147.961 147.578 150.282 148.773 152.703 149.031L152.25 150C149.977 149.719 147.844 148.727 147.078 147.188C146.313 148.727 144.196 149.719 141.907 150L141.453 149.031ZM142.282 155.844C142.274 154.305 144.063 153.453 147.078 153.453C150.063 153.453 151.844 154.305 151.86 155.844C151.844 157.391 150.063 158.234 147.078 158.234C144.063 158.234 142.274 157.391 142.282 155.844ZM143.532 155.844C143.516 156.758 144.828 157.289 147.078 157.281C149.305 157.289 150.618 156.758 150.625 155.844C150.618 154.938 149.305 154.414 147.078 154.422C144.828 154.414 143.516 154.938 143.532 155.844ZM166.977 155.516V156.547H154.258V155.516H157.837V152.875H155.852V148.594H164.165V146.422H155.821V145.406H165.368V149.609H157.071V151.859H165.696V152.875H163.524V155.516H166.977ZM159.04 155.516H162.321V152.875H159.04V155.516Z" fill="#333333"/>
<defs>
<linearGradient id="paint0_linear_275_3929" x1="137" y1="24" x2="137" y2="216" gradientUnits="userSpaceOnUse">
<stop stop-color="#0094EA" stop-opacity="0"/>
<stop offset="1" stop-color="#0094EA"/>
</linearGradient>
</defs>
</svg>
