<svg width="275" height="212" viewBox="0 0 275 212" fill="none" xmlns="http://www.w3.org/2000/svg">
<g clip-path="url(#clip0_1754_7194)">
<path d="M3.04931 292.179L2.48755 291.618L65.8065 228.303H90.4438L147.824 170.926L148.466 171.488L90.8451 229.105H66.1275L3.04931 292.179Z" fill="white" fill-opacity="0.15"/>
<path d="M148.967 172.029C149.438 171.559 149.438 170.797 148.967 170.327C148.497 169.857 147.735 169.857 147.265 170.327C146.795 170.797 146.795 171.559 147.265 172.029C147.735 172.499 148.497 172.499 148.967 172.029Z" fill="white" fill-opacity="0.15"/>
<path d="M100.556 211.531H75.5169L48.2311 184.247H28.0076L17.1736 173.414L17.7353 172.852L28.3286 183.445H48.5522L75.8379 210.729H100.235L147.824 163.142L148.466 163.704L100.556 211.531Z" fill="white" fill-opacity="0.15"/>
<path d="M148.975 164.242C149.446 163.772 149.446 163.01 148.975 162.539C148.505 162.069 147.743 162.069 147.273 162.539C146.803 163.01 146.803 163.772 147.273 164.242C147.743 164.712 148.505 164.712 148.975 164.242Z" fill="white" fill-opacity="0.15"/>
<path d="M18.3492 174.003C18.8193 173.533 18.8193 172.771 18.3492 172.301C17.8791 171.831 17.1169 171.831 16.6468 172.301C16.1767 172.771 16.1767 173.533 16.6468 174.003C17.1169 174.474 17.8791 174.474 18.3492 174.003Z" fill="white" fill-opacity="0.15"/>
<path d="M31.2981 223.408L30.7363 222.846L46.7065 206.877H56.417L68.0536 218.513H92.6107V219.315H67.7325L56.0157 207.679H47.0275L31.2981 223.408Z" fill="white" fill-opacity="0.15"/>
<path d="M98.6292 205.673H77.4427L0.962402 129.197L1.52417 128.636L77.7637 204.87H98.3082L147.824 155.358L148.466 155.92L98.6292 205.673Z" fill="white" fill-opacity="0.15"/>
<path d="M148.984 156.454C149.454 155.984 149.454 155.222 148.984 154.752C148.514 154.282 147.752 154.282 147.282 154.752C146.812 155.222 146.812 155.984 147.282 156.454C147.752 156.924 148.514 156.924 148.984 156.454Z" fill="white" fill-opacity="0.15"/>
<path d="M2.07873 129.801C2.54883 129.331 2.54883 128.569 2.07873 128.099C1.60863 127.628 0.846442 127.628 0.37634 128.099C-0.093761 128.569 -0.093761 129.331 0.37634 129.801C0.846442 130.271 1.60863 130.271 2.07873 129.801Z" fill="white" fill-opacity="0.15"/>
<path d="M96.6237 199.895H79.851L56.5779 176.704L57.2199 176.142L80.172 199.093H96.3027L147.825 147.494L148.467 148.136L96.6237 199.895Z" fill="white" fill-opacity="0.15"/>
<path d="M148.993 148.667C149.463 148.197 149.463 147.434 148.993 146.964C148.522 146.494 147.76 146.494 147.29 146.964C146.82 147.434 146.82 148.196 147.29 148.667C147.76 149.137 148.522 149.137 148.993 148.667Z" fill="white" fill-opacity="0.15"/>
<path d="M57.7433 177.24C58.2134 176.77 58.2134 176.008 57.7433 175.538C57.2732 175.068 56.511 175.068 56.0409 175.538C55.5708 176.008 55.5708 176.77 56.0409 177.24C56.511 177.71 57.2732 177.71 57.7433 177.24Z" fill="white" fill-opacity="0.15"/>
<path d="M4.97583 298.037L4.41406 297.475L67.733 234.161H92.4506L147.825 178.71L148.467 179.272L92.7716 234.963H68.054L4.97583 298.037Z" fill="white" fill-opacity="0.15"/>
<path d="M149.015 179.873C149.485 179.403 149.485 178.641 149.015 178.171C148.545 177.701 147.783 177.701 147.313 178.171C146.843 178.641 146.843 179.403 147.313 179.873C147.783 180.343 148.545 180.343 149.015 179.873Z" fill="white" fill-opacity="0.15"/>
<path d="M6.98193 303.815L6.42017 303.253L69.6588 240.019H94.3765L147.824 186.494L148.466 187.056L94.6975 240.821H70.0601L6.98193 303.815Z" fill="white" fill-opacity="0.15"/>
<path d="M149.007 187.661C149.477 187.191 149.477 186.429 149.007 185.958C148.537 185.488 147.774 185.488 147.304 185.958C146.834 186.429 146.834 187.191 147.304 187.661C147.774 188.131 148.537 188.131 149.007 187.661Z" fill="white" fill-opacity="0.15"/>
<path d="M8.90771 309.673L8.34595 309.111L71.6649 245.877H96.3023L147.824 194.278L148.466 194.84L96.6233 246.679H71.9859L8.90771 309.673Z" fill="white" fill-opacity="0.15"/>
<path d="M148.998 195.448C149.468 194.978 149.468 194.216 148.998 193.746C148.528 193.275 147.766 193.275 147.296 193.746C146.826 194.216 146.826 194.978 147.296 195.448C147.766 195.918 148.528 195.918 148.998 195.448Z" fill="white" fill-opacity="0.15"/>
<path d="M5.85815 212.414L5.29639 211.852L28.6497 188.5H45.6632V189.302H28.9708L5.85815 212.414Z" fill="white" fill-opacity="0.15"/>
<path d="M45.6633 190.105C46.3281 190.105 46.867 189.566 46.867 188.901C46.867 188.237 46.3281 187.698 45.6633 187.698C44.9984 187.698 44.4595 188.237 44.4595 188.901C44.4595 189.566 44.9984 190.105 45.6633 190.105Z" fill="white" fill-opacity="0.15"/>
<path d="M6.39928 213.041C6.86939 212.571 6.86939 211.809 6.39928 211.339C5.92918 210.869 5.167 210.869 4.6969 211.339C4.2268 211.809 4.2268 212.571 4.6969 213.041C5.167 213.511 5.92918 213.511 6.39928 213.041Z" fill="white" fill-opacity="0.15"/>
<path d="M103.124 184.328H80.5728V183.525H102.803L147.824 138.426L148.466 138.988L103.124 184.328Z" fill="white" fill-opacity="0.15"/>
<path d="M149.012 139.591C149.482 139.121 149.482 138.359 149.012 137.889C148.542 137.419 147.78 137.419 147.31 137.889C146.84 138.359 146.84 139.121 147.31 139.591C147.78 140.061 148.542 140.061 149.012 139.591Z" fill="white" fill-opacity="0.15"/>
<path d="M80.5729 185.13C81.2378 185.13 81.7767 184.591 81.7767 183.926C81.7767 183.262 81.2378 182.723 80.5729 182.723C79.9081 182.723 79.3691 183.262 79.3691 183.926C79.3691 184.591 79.9081 185.13 80.5729 185.13Z" fill="white" fill-opacity="0.15"/>
<path d="M171.017 233.519H170.214V226.457L197.179 199.494L197.741 200.056L171.017 226.778V233.519Z" fill="white" fill-opacity="0.15"/>
<path d="M198.353 200.647C198.823 200.177 198.823 199.415 198.353 198.945C197.883 198.475 197.121 198.475 196.651 198.945C196.181 199.415 196.181 200.177 196.651 200.647C197.121 201.117 197.883 201.117 198.353 200.647Z" fill="white" fill-opacity="0.15"/>
<path d="M75.9981 179.031H75.1956V172.049L130.971 116.278L131.533 116.84L75.9981 172.37V179.031Z" fill="white" fill-opacity="0.15"/>
<path d="M132.095 117.457C132.565 116.987 132.565 116.224 132.095 115.754C131.625 115.284 130.863 115.284 130.393 115.754C129.923 116.224 129.923 116.987 130.393 117.457C130.863 117.927 131.625 117.927 132.095 117.457Z" fill="white" fill-opacity="0.15"/>
<path d="M75.5968 180.235C76.2617 180.235 76.8006 179.696 76.8006 179.031C76.8006 178.366 76.2617 177.827 75.5968 177.827C74.932 177.827 74.3931 178.366 74.3931 179.031C74.3931 179.696 74.932 180.235 75.5968 180.235Z" fill="white" fill-opacity="0.15"/>
<path d="M101.759 161.136H100.957V154.074L117.328 137.704L117.89 138.266L101.759 154.395V161.136Z" fill="white" fill-opacity="0.15"/>
<path d="M118.484 138.783C118.954 138.313 118.954 137.551 118.484 137.081C118.013 136.611 117.251 136.611 116.781 137.081C116.311 137.551 116.311 138.313 116.781 138.783C117.251 139.253 118.013 139.253 118.484 138.783Z" fill="white" fill-opacity="0.15"/>
<path d="M101.358 162.34C102.023 162.34 102.562 161.801 102.562 161.136C102.562 160.471 102.023 159.932 101.358 159.932C100.693 159.932 100.154 160.471 100.154 161.136C100.154 161.801 100.693 162.34 101.358 162.34Z" fill="white" fill-opacity="0.15"/>
<path d="M82.017 158.568H64.3616V157.766H81.696L154.565 84.8213L155.127 85.383L82.017 158.568Z" fill="white" fill-opacity="0.15"/>
<path d="M155.734 85.9737C156.204 85.5036 156.204 84.7415 155.734 84.2714C155.264 83.8013 154.502 83.8013 154.032 84.2714C153.562 84.7415 153.562 85.5036 154.032 85.9737C154.502 86.4438 155.264 86.4438 155.734 85.9737Z" fill="white" fill-opacity="0.15"/>
<path d="M64.3617 159.371C65.0266 159.371 65.5655 158.832 65.5655 158.167C65.5655 157.502 65.0266 156.963 64.3617 156.963C63.6969 156.963 63.158 157.502 63.158 158.167C63.158 158.832 63.6969 159.371 64.3617 159.371Z" fill="white" fill-opacity="0.15"/>
<path d="M80.0914 152.71H72.8687L56.4973 136.259L57.0591 135.698L73.1897 151.907H79.7704L140.682 91L141.244 91.5617L80.0914 152.71Z" fill="white" fill-opacity="0.15"/>
<path d="M141.776 92.1192C142.246 91.6491 142.246 90.887 141.776 90.4169C141.305 89.9469 140.543 89.9469 140.073 90.4169C139.603 90.887 139.603 91.6491 140.073 92.1192C140.543 92.5893 141.305 92.5893 141.776 92.1192Z" fill="white" fill-opacity="0.15"/>
<path d="M57.6063 136.872C58.0764 136.402 58.0764 135.639 57.6063 135.169C57.1362 134.699 56.374 134.699 55.9039 135.169C55.4338 135.639 55.4338 136.402 55.9039 136.872C56.374 137.342 57.1362 137.342 57.6063 136.872Z" fill="white" fill-opacity="0.15"/>
<path d="M206.488 276.371H199.506V275.568H206.167L282.166 199.494L282.728 200.056L206.488 276.371Z" fill="white" fill-opacity="0.15"/>
<path d="M39.6354 206.201L20.2849 225.553L20.8525 226.12L40.2029 206.768L39.6354 206.201Z" fill="white" fill-opacity="0.15"/>
<path d="M40.7174 207.299C41.1875 206.829 41.1875 206.067 40.7174 205.597C40.2473 205.127 39.4851 205.127 39.015 205.597C38.5449 206.067 38.5449 206.829 39.015 207.299C39.4851 207.769 40.2473 207.769 40.7174 207.299Z" fill="white" fill-opacity="0.15"/>
<path d="M49.8497 192.566L49.2822 193.133L68.6327 212.483L69.2002 211.915L49.8497 192.566Z" fill="white" fill-opacity="0.15"/>
<path d="M69.7931 213.012C70.2632 212.542 70.2632 211.78 69.7931 211.31C69.323 210.84 68.5608 210.84 68.0907 211.31C67.6206 211.78 67.6206 212.542 68.0907 213.012C68.5608 213.482 69.323 213.482 69.7931 213.012Z" fill="white" fill-opacity="0.15"/>
<path d="M50.4486 193.682C50.9187 193.212 50.9187 192.449 50.4486 191.979C49.9785 191.509 49.2163 191.509 48.7462 191.979C48.2761 192.449 48.2761 193.212 48.7462 193.682C49.2163 194.152 49.9785 194.152 50.4486 193.682Z" fill="white" fill-opacity="0.15"/>
<path d="M33.9701 152.891L33.4026 153.458L52.7531 172.808L53.3205 172.24L33.9701 152.891Z" fill="white" fill-opacity="0.15"/>
<path d="M53.7999 173.337C54.27 172.867 54.27 172.105 53.7999 171.635C53.3298 171.165 52.5676 171.165 52.0975 171.635C51.6274 172.105 51.6274 172.867 52.0975 173.337C52.5676 173.808 53.3298 173.808 53.7999 173.337Z" fill="white" fill-opacity="0.15"/>
<path d="M34.5692 154.007C35.0393 153.537 35.0393 152.775 34.5692 152.305C34.0991 151.835 33.3369 151.835 32.8668 152.305C32.3967 152.775 32.3967 153.537 32.8668 154.007C33.3369 154.477 34.0991 154.477 34.5692 154.007Z" fill="white" fill-opacity="0.15"/>
<path d="M76.0785 188.34L41.0886 153.352V135.056H41.8911V153.031L76.6403 187.778L76.0785 188.34Z" fill="white" fill-opacity="0.15"/>
<path d="M77.2587 188.941C77.7288 188.471 77.7288 187.709 77.2587 187.239C76.7886 186.769 76.0264 186.769 75.5563 187.239C75.0862 187.709 75.0862 188.471 75.5563 188.941C76.0264 189.411 76.7886 189.411 77.2587 188.941Z" fill="white" fill-opacity="0.15"/>
<path d="M41.4897 136.259C42.1545 136.259 42.6935 135.721 42.6935 135.056C42.6935 134.391 42.1545 133.852 41.4897 133.852C40.8248 133.852 40.2859 134.391 40.2859 135.056C40.2859 135.721 40.8248 136.259 41.4897 136.259Z" fill="white" fill-opacity="0.15"/>
<path d="M13.0379 148.744L12.4705 149.312L23.99 160.83L24.5574 160.263L13.0379 148.744Z" fill="white" fill-opacity="0.15"/>
<path d="M25.1764 161.434C25.6465 160.964 25.6465 160.201 25.1764 159.731C24.7063 159.261 23.9441 159.261 23.474 159.731C23.0039 160.201 23.0039 160.964 23.474 161.434C23.9441 161.904 24.7063 161.904 25.1764 161.434Z" fill="white" fill-opacity="0.15"/>
<path d="M13.608 149.903C14.0781 149.433 14.0781 148.671 13.608 148.201C13.1379 147.731 12.3757 147.731 11.9056 148.201C11.4355 148.671 11.4355 149.433 11.9056 149.903C12.3757 150.373 13.1379 150.373 13.608 149.903Z" fill="white" fill-opacity="0.15"/>
<path d="M82.499 315.932L81.9373 315.371L152.639 244.753V220.679L173.826 199.494L174.388 200.056L153.442 221.081V245.074L82.499 315.932Z" fill="white" fill-opacity="0.15"/>
<path d="M174.932 200.678C175.402 200.208 175.402 199.446 174.932 198.976C174.462 198.506 173.7 198.506 173.23 198.976C172.76 199.446 172.76 200.208 173.23 200.678C173.7 201.148 174.462 201.148 174.932 200.678Z" fill="white" fill-opacity="0.15"/>
<path d="M139.317 306.704L138.756 306.142L158.417 286.402V222.685L181.61 199.494L182.172 200.056L159.22 223.006V286.803L139.317 306.704Z" fill="white" fill-opacity="0.15"/>
<path d="M182.72 200.687C183.19 200.217 183.19 199.454 182.72 198.984C182.25 198.514 181.488 198.514 181.018 198.984C180.548 199.454 180.548 200.217 181.018 200.687C181.488 201.157 182.25 201.157 182.72 200.687Z" fill="white" fill-opacity="0.15"/>
<path d="M155.046 310.636H154.244V298.439L164.275 288.408V224.611L189.394 199.494L189.956 200.056L165.078 224.932V288.729L155.046 298.84V310.636Z" fill="white" fill-opacity="0.15"/>
<path d="M190.565 200.638C191.035 200.168 191.035 199.406 190.565 198.936C190.094 198.466 189.332 198.466 188.862 198.936C188.392 199.406 188.392 200.168 188.862 200.638C189.332 201.108 190.094 201.108 190.565 200.638Z" fill="white" fill-opacity="0.15"/>
<path d="M76.7207 314.006L76.1589 313.445L146.781 242.827V218.753L166.041 199.494L166.603 200.056L147.583 219.074V243.148L76.7207 314.006Z" fill="white" fill-opacity="0.15"/>
<path d="M167.144 200.669C167.614 200.199 167.614 199.437 167.144 198.967C166.674 198.497 165.912 198.497 165.442 198.967C164.972 199.437 164.972 200.199 165.442 200.669C165.912 201.14 166.674 201.14 167.144 200.669Z" fill="white" fill-opacity="0.15"/>
<path d="M70.8623 312.081L70.3005 311.519L140.922 240.821V216.827L158.177 199.494L158.819 200.056L141.725 217.148V241.223L70.8623 312.081Z" fill="white" fill-opacity="0.15"/>
<path d="M159.356 200.661C159.826 200.191 159.826 199.429 159.356 198.958C158.886 198.488 158.124 198.488 157.654 198.958C157.184 199.429 157.184 200.191 157.654 200.661C158.124 201.131 158.886 201.131 159.356 200.661Z" fill="white" fill-opacity="0.15"/>
<path d="M65.0039 310.074L64.4421 309.513L135.064 238.895V214.902L150.392 199.494L150.954 200.056L135.867 215.223V239.216L65.0039 310.074Z" fill="white" fill-opacity="0.15"/>
<path d="M151.568 200.652C152.039 200.182 152.039 199.42 151.568 198.95C151.098 198.48 150.336 198.48 149.866 198.95C149.396 199.42 149.396 200.182 149.866 200.652C150.336 201.122 151.098 201.122 151.568 200.652Z" fill="white" fill-opacity="0.15"/>
<path d="M207.853 158.328L207.291 157.766L268.363 96.6979H293.081L364.184 25.5991L364.746 26.1608L293.402 97.5004H268.684L207.853 158.328Z" fill="white" fill-opacity="0.15"/>
<path d="M208.425 158.84C208.896 158.37 208.896 157.608 208.425 157.138C207.955 156.668 207.193 156.668 206.723 157.138C206.253 157.608 206.253 158.37 206.723 158.84C207.193 159.31 207.955 159.31 208.425 158.84Z" fill="white" fill-opacity="0.15"/>
<path d="M413.138 224.531L364.665 176.062H344.362L283.37 114.994H258.973L207.853 166.111L207.291 165.549L258.652 114.191H283.691L344.763 175.259H364.986L413.699 223.969L413.138 224.531Z" fill="white" fill-opacity="0.15"/>
<path d="M208.473 166.692C208.943 166.222 208.943 165.46 208.473 164.99C208.003 164.52 207.241 164.52 206.771 164.99C206.301 165.46 206.301 166.222 206.771 166.692C207.241 167.162 208.003 167.162 208.473 166.692Z" fill="white" fill-opacity="0.15"/>
<path d="M312.501 118.926H302.79L291.154 107.21H266.597V106.408H291.475L303.192 118.124H312.18L327.909 102.396L328.471 102.957L312.501 118.926Z" fill="white" fill-opacity="0.15"/>
<path d="M266.597 108.012C267.262 108.012 267.801 107.473 267.801 106.809C267.801 106.144 267.262 105.605 266.597 105.605C265.932 105.605 265.393 106.144 265.393 106.809C265.393 107.473 265.932 108.012 266.597 108.012Z" fill="white" fill-opacity="0.15"/>
<path d="M408.804 248.204L281.444 120.852H260.899L207.853 173.895L207.291 173.334L260.578 120.05H281.765L409.366 247.642L408.804 248.204Z" fill="white" fill-opacity="0.15"/>
<path d="M208.464 174.472C208.935 174.002 208.935 173.24 208.464 172.769C207.994 172.299 207.232 172.299 206.762 172.769C206.292 173.24 206.292 174.002 206.762 174.472C207.232 174.942 207.994 174.942 208.464 174.472Z" fill="white" fill-opacity="0.15"/>
<path d="M335.775 183.445L279.036 126.71H262.906L207.853 181.679L207.291 181.118L262.504 125.908H279.357L336.336 182.883L335.775 183.445Z" fill="white" fill-opacity="0.15"/>
<path d="M208.457 182.259C208.927 181.789 208.927 181.027 208.457 180.557C207.987 180.087 207.224 180.087 206.754 180.557C206.284 181.027 206.284 181.789 206.754 182.259C207.224 182.729 207.987 182.729 208.457 182.259Z" fill="white" fill-opacity="0.15"/>
<path d="M207.853 150.543L207.291 149.982L266.437 90.8396H291.154L394.118 -12.1172L394.68 -11.5555L291.475 91.6421H266.758L207.853 150.543Z" fill="white" fill-opacity="0.15"/>
<path d="M208.433 151.053C208.903 150.583 208.903 149.821 208.433 149.351C207.963 148.881 207.201 148.881 206.731 149.351C206.261 149.821 206.261 150.583 206.731 151.053C207.201 151.523 207.963 151.523 208.433 151.053Z" fill="white" fill-opacity="0.15"/>
<path d="M207.933 142.679L207.291 142.118L265.715 83.7782H290.352L403.186 -28.9688L403.748 -28.407L290.673 84.5806H266.036L207.933 142.679Z" fill="white" fill-opacity="0.15"/>
<path d="M208.47 143.285C208.94 142.815 208.94 142.053 208.47 141.582C208 141.112 207.238 141.112 206.768 141.582C206.298 142.053 206.298 142.815 206.768 143.285C207.238 143.755 208 143.755 208.47 143.285Z" fill="white" fill-opacity="0.15"/>
<path d="M207.933 134.895L207.291 134.334L262.504 79.1237H287.222L419.718 -53.2837L420.28 -52.722L287.543 79.9262H262.906L207.933 134.895Z" fill="white" fill-opacity="0.15"/>
<path d="M208.479 135.498C208.949 135.028 208.949 134.265 208.479 133.795C208.009 133.325 207.246 133.325 206.776 133.795C206.306 134.265 206.306 135.028 206.776 135.498C207.246 135.968 208.009 135.968 208.479 135.498Z" fill="white" fill-opacity="0.15"/>
<path d="M229.842 105.124L229.28 104.562L260.578 73.2657H285.296L381.679 -23.1108L382.24 -22.5491L285.617 74.0682H260.899L229.842 105.124Z" fill="white" fill-opacity="0.15"/>
<path d="M230.452 105.718C230.922 105.248 230.922 104.486 230.452 104.016C229.981 103.545 229.219 103.545 228.749 104.016C228.279 104.486 228.279 105.248 228.749 105.718C229.219 106.188 229.981 106.188 230.452 105.718Z" fill="white" fill-opacity="0.15"/>
<path d="M229.44 97.7408L228.878 97.1791L258.652 67.4075H283.37L329.916 20.8643L330.478 21.426L283.691 68.2099H258.973L229.44 97.7408Z" fill="white" fill-opacity="0.15"/>
<path d="M230.068 98.3238C230.539 97.8537 230.539 97.0916 230.068 96.6215C229.598 96.1514 228.836 96.1514 228.366 96.6215C227.896 97.0916 227.896 97.8537 228.366 98.3238C228.836 98.7939 229.598 98.7939 230.068 98.3238Z" fill="white" fill-opacity="0.15"/>
<path d="M229.039 90.3585L228.477 89.7967L256.726 61.6301H281.363L359.609 -16.6909L360.171 -16.0489L281.684 62.4325H257.047L229.039 90.3585Z" fill="white" fill-opacity="0.15"/>
<path d="M229.631 90.8922C230.101 90.4221 230.101 89.6599 229.631 89.1899C229.161 88.7198 228.399 88.7198 227.929 89.1899C227.458 89.6599 227.458 90.4221 227.929 90.8922C228.399 91.3622 229.161 91.3622 229.631 90.8922Z" fill="white" fill-opacity="0.15"/>
<path d="M279.759 56.5743H262.745V55.7718H279.438L348.454 -13.3208L349.016 -12.7591L279.759 56.5743Z" fill="white" fill-opacity="0.15"/>
<path d="M262.745 57.3766C263.41 57.3766 263.949 56.8377 263.949 56.1729C263.949 55.5082 263.41 54.9692 262.745 54.9692C262.08 54.9692 261.542 55.5082 261.542 56.1729C261.542 56.8377 262.08 57.3766 262.745 57.3766Z" fill="white" fill-opacity="0.15"/>
<path d="M178.882 45.0186H68.9363V44.2161H178.561L197.821 25.0371L198.383 25.5988L178.882 45.0186Z" fill="white" fill-opacity="0.15"/>
<path d="M68.9362 45.821C69.601 45.821 70.14 45.2821 70.14 44.6173C70.14 43.9525 69.601 43.4136 68.9362 43.4136C68.2714 43.4136 67.7324 43.9525 67.7324 44.6173C67.7324 45.2821 68.2714 45.821 68.9362 45.821Z" fill="white" fill-opacity="0.15"/>
<path d="M198.901 26.1456C199.371 25.6755 199.371 24.9134 198.901 24.4433C198.431 23.9732 197.669 23.9732 197.199 24.4433C196.729 24.9134 196.729 25.6755 197.199 26.1456C197.669 26.6156 198.431 26.6156 198.901 26.1456Z" fill="white" fill-opacity="0.15"/>
<path d="M176.955 39.1605H98.8701V38.358H176.634L184.178 30.895L184.74 31.4567L176.955 39.1605Z" fill="white" fill-opacity="0.15"/>
<path d="M98.87 39.9631C99.5349 39.9631 100.074 39.4242 100.074 38.7594C100.074 38.0946 99.5349 37.5557 98.87 37.5557C98.2052 37.5557 97.6663 38.0946 97.6663 38.7594C97.6663 39.4242 98.2052 39.9631 98.87 39.9631Z" fill="white" fill-opacity="0.15"/>
<path d="M185.265 31.9996C185.735 31.5295 185.735 30.7674 185.265 30.2973C184.795 29.8272 184.033 29.8272 183.563 30.2973C183.093 30.7674 183.093 31.5295 183.563 31.9996C184.033 32.4696 184.795 32.4696 185.265 31.9996Z" fill="white" fill-opacity="0.15"/>
<path d="M221.897 49.2718L221.335 48.7101L256.084 13.883V3.77184L266.758 -6.82075V-35.6294H267.56V-6.49976L256.887 4.09283V14.2039L221.897 49.2718Z" fill="white" fill-opacity="0.15"/>
<path d="M222.417 49.8233C222.887 49.3532 222.887 48.5911 222.417 48.121C221.947 47.651 221.185 47.651 220.714 48.121C220.244 48.5911 220.244 49.3532 220.714 49.8233C221.185 50.2934 221.947 50.2934 222.417 49.8233Z" fill="white" fill-opacity="0.15"/>
<path d="M235.54 27.8457L234.978 27.284L250.226 11.9568V-13H251.028V12.2778L235.54 27.8457Z" fill="white" fill-opacity="0.15"/>
<path d="M236.067 28.3892C236.537 27.9192 236.537 27.157 236.067 26.6869C235.597 26.2169 234.834 26.2169 234.364 26.6869C233.894 27.157 233.894 27.9192 234.364 28.3892C234.834 28.8593 235.597 28.8593 236.067 28.3892Z" fill="white" fill-opacity="0.15"/>
<path d="M207.853 190.827L207.291 190.266L256.084 141.476H278.635V142.278H256.405L207.853 190.827Z" fill="white" fill-opacity="0.15"/>
<path d="M208.437 191.335C208.907 190.865 208.907 190.103 208.437 189.633C207.967 189.163 207.205 189.163 206.734 189.633C206.264 190.103 206.264 190.865 206.734 191.335C207.205 191.805 207.967 191.805 208.437 191.335Z" fill="white" fill-opacity="0.15"/>
<path d="M158.417 129.84L157.855 129.278L188.191 98.9447V92.2842H188.993V99.2657L158.417 129.84Z" fill="white" fill-opacity="0.15"/>
<path d="M158.995 130.358C159.465 129.888 159.465 129.126 158.995 128.656C158.525 128.186 157.763 128.186 157.293 128.656C156.822 129.126 156.822 129.888 157.293 130.358C157.763 130.828 158.525 130.828 158.995 130.358Z" fill="white" fill-opacity="0.15"/>
<path d="M188.592 93.488C189.257 93.488 189.796 92.9491 189.796 92.2843C189.796 91.6195 189.257 91.0806 188.592 91.0806C187.928 91.0806 187.389 91.6195 187.389 92.2843C187.389 92.9491 187.928 93.488 188.592 93.488Z" fill="white" fill-opacity="0.15"/>
<path d="M227.515 210.247L226.953 209.686L283.21 153.432V146.772H284.012V153.753L227.515 210.247Z" fill="white" fill-opacity="0.15"/>
<path d="M228.105 210.757C228.575 210.287 228.575 209.525 228.105 209.055C227.635 208.585 226.873 208.585 226.403 209.055C225.933 209.525 225.933 210.287 226.403 210.757C226.873 211.227 227.635 211.227 228.105 210.757Z" fill="white" fill-opacity="0.15"/>
<path d="M233.854 196.124L233.292 195.562L257.448 171.327V164.667H258.251V171.729L233.854 196.124Z" fill="white" fill-opacity="0.15"/>
<path d="M234.362 196.673C234.832 196.203 234.832 195.441 234.362 194.971C233.892 194.501 233.129 194.501 232.659 194.971C232.189 195.441 232.189 196.203 232.659 196.673C233.129 197.143 233.892 197.143 234.362 196.673Z" fill="white" fill-opacity="0.15"/>
<path d="M257.85 165.871C258.515 165.871 259.054 165.332 259.054 164.667C259.054 164.002 258.515 163.463 257.85 163.463C257.185 163.463 256.646 164.002 256.646 164.667C256.646 165.332 257.185 165.871 257.85 165.871Z" fill="white" fill-opacity="0.15"/>
<path d="M124.471 70.7781L123.909 70.2163L138.756 55.2904V50.2349H139.558V55.6916L124.471 70.7781Z" fill="white" fill-opacity="0.15"/>
<path d="M125.071 71.2989C125.542 70.8288 125.542 70.0667 125.071 69.5966C124.601 69.1265 123.839 69.1265 123.369 69.5966C122.899 70.0667 122.899 70.8288 123.369 71.2989C123.839 71.769 124.601 71.769 125.071 71.2989Z" fill="white" fill-opacity="0.15"/>
<path d="M139.157 51.4387C139.822 51.4387 140.361 50.8997 140.361 50.235C140.361 49.5702 139.822 49.0312 139.157 49.0312C138.492 49.0312 137.953 49.5702 137.953 50.235C137.953 50.8997 138.492 51.4387 139.157 51.4387Z" fill="white" fill-opacity="0.15"/>
<path d="M249.664 195.883L249.102 195.321L277.19 167.235H294.846V168.037H277.511L249.664 195.883Z" fill="white" fill-opacity="0.15"/>
<path d="M250.223 196.501C250.693 196.031 250.693 195.269 250.223 194.799C249.753 194.329 248.991 194.329 248.521 194.799C248.051 195.269 248.051 196.031 248.521 196.501C248.991 196.971 249.753 196.971 250.223 196.501Z" fill="white" fill-opacity="0.15"/>
<path d="M227.515 225.815L226.953 225.253L279.117 173.093H286.339L302.711 189.463L302.149 190.025L286.018 173.895H279.438L227.515 225.815Z" fill="white" fill-opacity="0.15"/>
<path d="M125.193 78.0803L124.631 77.5185L152.72 49.4321H159.702V50.2346H153.041L125.193 78.0803Z" fill="white" fill-opacity="0.15"/>
<path d="M125.734 78.69C126.205 78.2199 126.205 77.4578 125.734 76.9877C125.264 76.5177 124.502 76.5177 124.032 76.9877C123.562 77.4578 123.562 78.2199 124.032 78.69C124.502 79.1601 125.264 79.1601 125.734 78.69Z" fill="white" fill-opacity="0.15"/>
<path d="M159.702 51.0373C160.367 51.0373 160.906 50.4984 160.906 49.8336C160.906 49.1688 160.367 48.6299 159.702 48.6299C159.037 48.6299 158.498 49.1688 158.498 49.8336C158.498 50.4984 159.037 51.0373 159.702 51.0373Z" fill="white" fill-opacity="0.15"/>
<path d="M111.068 99.9881L110.507 99.4263L154.645 55.2905H174.147V56.093H154.966L111.068 99.9881Z" fill="white" fill-opacity="0.15"/>
<path d="M111.624 100.61C112.094 100.14 112.094 99.3777 111.624 98.9077C111.154 98.4376 110.392 98.4376 109.922 98.9077C109.452 99.3777 109.452 100.14 109.922 100.61C110.392 101.08 111.154 101.08 111.624 100.61Z" fill="white" fill-opacity="0.15"/>
<path d="M174.147 56.8952C174.812 56.8952 175.351 56.3563 175.351 55.6915C175.351 55.0267 174.812 54.4878 174.147 54.4878C173.482 54.4878 172.943 55.0267 172.943 55.6915C172.943 56.3563 173.482 56.8952 174.147 56.8952Z" fill="white" fill-opacity="0.15"/>
<path d="M294.749 24.8571L271.199 48.4053L271.767 48.9727L295.316 25.4245L294.749 24.8571Z" fill="white" fill-opacity="0.15"/>
<path d="M272.353 49.5338C272.823 49.0637 272.823 48.3015 272.353 47.8315C271.883 47.3614 271.121 47.3614 270.651 47.8315C270.181 48.3015 270.181 49.0637 270.651 49.5338C271.121 50.0038 271.883 50.0038 272.353 49.5338Z" fill="white" fill-opacity="0.15"/>
<path d="M249.534 28.2585L207.258 70.5317L207.826 71.0992L250.102 28.8259L249.534 28.2585Z" fill="white" fill-opacity="0.15"/>
<path d="M208.365 71.6446C208.835 71.1745 208.835 70.4124 208.365 69.9423C207.895 69.4722 207.133 69.4722 206.662 69.9423C206.192 70.4124 206.192 71.1745 206.662 71.6446C207.133 72.1147 207.895 72.1147 208.365 71.6446Z" fill="white" fill-opacity="0.15"/>
<path d="M250.696 29.4092C251.166 28.9392 251.166 28.177 250.696 27.707C250.226 27.2369 249.463 27.2369 248.993 27.707C248.523 28.177 248.523 28.9392 248.993 29.4092C249.463 29.8793 250.226 29.8793 250.696 29.4092Z" fill="white" fill-opacity="0.15"/>
<path d="M188.191 86.2656V54.9693L183.777 50.636H167.084V49.8335H184.098L188.993 54.6483V86.2656H188.191Z" fill="white" fill-opacity="0.15"/>
<path d="M188.592 87.4694C189.257 87.4694 189.796 86.9305 189.796 86.2657C189.796 85.6009 189.257 85.062 188.592 85.062C187.928 85.062 187.389 85.6009 187.389 86.2657C187.389 86.9305 187.928 87.4694 188.592 87.4694Z" fill="white" fill-opacity="0.15"/>
<path d="M167.084 51.4387C167.749 51.4387 168.288 50.8997 168.288 50.235C168.288 49.5702 167.749 49.0312 167.084 49.0312C166.42 49.0312 165.881 49.5702 165.881 50.235C165.881 50.8997 166.42 51.4387 167.084 51.4387Z" fill="white" fill-opacity="0.15"/>
<path d="M181.851 129.839L181.289 129.278L205.766 104.722V80.7284L292.679 -6.25928L293.321 -5.6173L206.569 81.0494V105.043L181.851 129.839Z" fill="white" fill-opacity="0.15"/>
<path d="M182.359 130.384C182.829 129.914 182.829 129.152 182.359 128.682C181.889 128.212 181.127 128.212 180.657 128.682C180.187 129.152 180.187 129.914 180.657 130.384C181.127 130.854 181.889 130.854 182.359 130.384Z" fill="white" fill-opacity="0.15"/>
<path d="M173.986 129.84L173.425 129.278L199.988 102.796V39.0001L219.73 19.1792V-2.16652L166.443 -55.4505L167.004 -56.0122L220.533 -2.48751V19.5001L200.791 39.3211V103.117L173.986 129.84Z" fill="white" fill-opacity="0.15"/>
<path d="M174.571 130.375C175.042 129.905 175.042 129.143 174.571 128.673C174.101 128.203 173.339 128.203 172.869 128.673C172.399 129.143 172.399 129.905 172.869 130.375C173.339 130.845 174.101 130.845 174.571 130.375Z" fill="white" fill-opacity="0.15"/>
<path d="M208.735 39.0806L208.174 38.5189L225.588 21.1053V-4.49348L212.106 -17.975V-43.5737H212.908V-18.296L226.391 -4.81447V21.5065L208.735 39.0806Z" fill="white" fill-opacity="0.15"/>
<path d="M209.347 39.6802C209.817 39.2102 209.817 38.448 209.347 37.978C208.877 37.5079 208.115 37.5079 207.645 37.978C207.175 38.448 207.175 39.2102 207.645 39.6802C208.115 40.1503 208.877 40.1503 209.347 39.6802Z" fill="white" fill-opacity="0.15"/>
<path d="M166.202 129.84L165.64 129.278L194.13 100.79V37.0741L204.161 26.963V15.3272L177.758 -11.074H124.23V-11.8765H178.079L204.964 15.0062V27.284L194.932 37.3951V101.191L166.202 129.84Z" fill="white" fill-opacity="0.15"/>
<path d="M166.783 130.367C167.253 129.897 167.253 129.135 166.783 128.664C166.313 128.194 165.551 128.194 165.08 128.664C164.61 129.135 164.61 129.897 165.08 130.367C165.551 130.837 166.313 130.837 166.783 130.367Z" fill="white" fill-opacity="0.15"/>
<path d="M189.635 129.84L189.074 129.278L211.625 106.648V82.6545L314.588 -20.3022L315.15 -19.7405L212.427 82.9755V106.969L189.635 129.84Z" fill="white" fill-opacity="0.15"/>
<path d="M190.147 130.386C190.617 129.916 190.617 129.154 190.147 128.684C189.677 128.214 188.915 128.214 188.444 128.684C187.974 129.154 187.974 129.916 188.444 130.386C188.915 130.856 189.677 130.856 190.147 130.386Z" fill="white" fill-opacity="0.15"/>
<path d="M197.42 129.84L196.858 129.278L217.483 108.654V84.5803L304.396 -2.32715L304.958 -1.76542L218.285 84.9013V108.975L197.42 129.84Z" fill="white" fill-opacity="0.15"/>
<path d="M197.935 130.395C198.405 129.925 198.405 129.162 197.935 128.692C197.465 128.222 196.702 128.222 196.232 128.692C195.762 129.162 195.762 129.925 196.232 130.395C196.702 130.865 197.465 130.865 197.935 130.395Z" fill="white" fill-opacity="0.15"/>
<path d="M205.205 129.84L204.643 129.278L223.342 110.581V86.5066L326.546 -16.6909L327.108 -16.0489L224.144 86.9079V110.902L205.205 129.84Z" fill="white" fill-opacity="0.15"/>
<path d="M205.78 130.346C206.25 129.876 206.25 129.114 205.78 128.644C205.31 128.174 204.547 128.174 204.077 128.644C203.607 129.114 203.607 129.876 204.077 130.346C204.547 130.816 205.31 130.816 205.78 130.346Z" fill="white" fill-opacity="0.15"/>
<path d="M159.22 184.648L166.844 145.648H175.512L183.136 184.648H175.752L174.308 175.981H168.128L166.684 184.648H159.22ZM168.931 171.086H173.586L171.258 155.599L168.931 171.086Z" fill="white" fill-opacity="0.15"/>
<path d="M186.666 152.228V146.691H193.969V152.228H186.666ZM186.666 184.648V156.803H193.969V184.648H186.666Z" fill="white" fill-opacity="0.15"/>
</g>
<defs>
<clipPath id="clip0_1754_7194">
<rect width="284" height="212" rx="20" fill="white"/>
</clipPath>
</defs>
</svg>
