<svg width="425" height="429" viewBox="0 0 425 429" fill="none" xmlns="http://www.w3.org/2000/svg">
<path d="M94.802 132.36L95.174 133.11L96.0048 133.234C96.052 133.241 96.0964 133.26 96.1329 133.291C96.1695 133.321 96.1968 133.362 96.2116 133.407C96.2265 133.452 96.2283 133.501 96.217 133.547C96.2056 133.593 96.1815 133.635 96.1474 133.668L95.5274 134.251L95.67 135.082C95.6773 135.128 95.6717 135.176 95.6539 135.219C95.636 135.262 95.6065 135.3 95.5687 135.327C95.5308 135.355 95.4861 135.371 95.4394 135.375C95.3928 135.379 95.346 135.37 95.3042 135.349L94.5602 134.958L93.8162 135.349C93.7744 135.37 93.7276 135.379 93.681 135.375C93.6343 135.371 93.5896 135.355 93.5518 135.327C93.5139 135.3 93.4844 135.262 93.4666 135.219C93.4487 135.176 93.4431 135.128 93.4504 135.082L93.593 134.251L92.973 133.668C92.939 133.635 92.9148 133.594 92.9031 133.548C92.8915 133.502 92.8928 133.454 92.907 133.409C92.9211 133.364 92.9476 133.324 92.9833 133.293C93.0191 133.262 93.0627 133.242 93.1094 133.234L93.9402 133.11L94.3184 132.36C94.335 132.309 94.3673 132.264 94.4107 132.233C94.4542 132.201 94.5065 132.184 94.5602 132.184C94.6139 132.184 94.6662 132.201 94.7097 132.233C94.7531 132.264 94.7854 132.309 94.802 132.36Z" fill="#F5F5F5"/>
<path d="M110.519 92.8785C110.52 93.0418 110.473 93.2018 110.383 93.3383C110.293 93.4747 110.165 93.5813 110.014 93.6447C109.864 93.7081 109.698 93.7253 109.537 93.6942C109.377 93.663 109.23 93.585 109.114 93.4699C108.998 93.3549 108.919 93.2079 108.886 93.0478C108.854 92.8877 108.87 92.7216 108.932 92.5705C108.994 92.4195 109.1 92.2904 109.236 92.1995C109.371 92.1086 109.531 92.0601 109.694 92.0601C109.912 92.0601 110.121 92.1461 110.275 92.2994C110.43 92.4527 110.517 92.6608 110.519 92.8785Z" fill="#EBEBEB"/>
<path d="M99.7642 269.475V272.067C99.7642 274.803 98.0202 277.571 95.8762 278.595L96.6922 279.683C99.0602 278.483 100.852 275.395 100.852 272.067V269.475H99.7642ZM99.9882 269.475V272.067C99.9882 275.283 101.796 278.259 104.148 279.411L104.948 278.355C102.804 277.363 101.076 274.707 101.076 272.067V269.475H99.9882ZM106.452 268.211V282.707H107.78V268.211H106.452Z" fill="#525252"/>
<path d="M116.467 269.219V270.323C116.467 272.787 113.747 274.995 111.203 275.475L111.795 276.579C114.691 275.923 117.619 273.475 117.619 270.323V269.219H116.467ZM116.707 269.219V270.323C116.707 273.491 119.651 275.923 122.531 276.579L123.123 275.475C120.595 274.995 117.859 272.803 117.859 270.323V269.219H116.707ZM110.675 279.651V280.739H123.779V279.651H110.675Z" fill="#525252"/>
<path d="M131.602 271.859V272.947H134.066V271.859H131.602ZM126.05 274.979V276.051H126.962C129.266 276.051 130.626 276.003 132.29 275.667L132.162 274.611C130.562 274.931 129.218 274.979 126.962 274.979H126.05ZM126.05 269.171V275.619H127.33V270.243H131.506V269.171H126.05ZM126.93 272.003V273.059H130.93V272.003H126.93ZM136.306 268.227V276.931H137.57V268.227H136.306ZM133.522 268.467V276.787H134.77V268.467H133.522ZM128.082 277.619V282.499H137.57V277.619H128.082ZM136.29 278.675V281.427H129.378V278.675H136.29Z" fill="#525252"/>
<path d="M143.378 275.619V276.707H156.482V275.619H143.378ZM149.362 276.291V279.619H150.69V276.291H149.362ZM145.058 268.899V273.987H154.786V268.899H145.058ZM153.474 269.971V272.915H146.354V269.971H153.474ZM145.042 281.283V282.371H155.026V281.283H145.042ZM145.042 278.227V281.667H146.354V278.227H145.042Z" fill="#525252"/>
<path d="M169.104 268.227V282.691H170.384V268.227H169.104ZM163.84 273.411V274.515H166.608V273.411H163.84ZM166.208 268.563V281.955H167.456V268.563H166.208ZM161.056 270.467V272.307C161.056 274.963 159.936 277.603 157.92 278.819L158.736 279.811C160.864 278.467 162.08 275.475 162.08 272.307V270.467H161.056ZM161.328 270.467V272.307C161.328 275.331 162.496 278.179 164.608 279.459L165.424 278.483C163.44 277.331 162.352 274.819 162.352 272.307V270.467H161.328ZM158.32 269.907V271.011H164.928V269.907H158.32Z" fill="#525252"/>
<path d="M172.831 279.811V280.915H185.935V279.811H172.831ZM178.687 276.707V280.275H180.015V276.707H178.687ZM174.415 269.299V270.371H183.007V272.611H174.463V276.579H175.775V273.683H184.319V269.299H174.415ZM174.463 276.019V277.107H184.655V276.019H174.463Z" fill="#525252"/>
<path d="M198.543 271.731V272.819H201.759V271.731H198.543ZM201.391 268.227V276.083H202.719V268.227H201.391ZM193.455 276.787V282.499H202.719V276.787H201.407V278.547H194.767V276.787H193.455ZM194.767 279.619H201.407V281.411H194.767V279.619ZM194.511 269.363V270.547C194.511 272.595 193.023 274.515 190.863 275.267L191.551 276.339C193.967 275.443 195.599 273.171 195.599 270.547V269.363H194.511ZM194.767 269.363V270.531C194.767 272.963 196.319 275.139 198.671 275.987L199.343 274.947C197.247 274.211 195.839 272.403 195.839 270.531V269.363H194.767ZM191.279 269.091V270.163H199.007V269.091H191.279Z" fill="#525252"/>
<path d="M205.534 275.475V276.563H218.654V275.475H205.534ZM211.406 273.283V275.971H212.718V273.283H211.406ZM211.39 268.451V269.091C211.39 271.027 208.91 272.627 206.318 272.979L206.83 274.035C209.774 273.555 212.542 271.699 212.542 269.091V268.451H211.39ZM211.598 268.451V269.091C211.598 271.699 214.382 273.539 217.31 274.035L217.806 272.979C215.23 272.627 212.734 271.027 212.734 269.091V268.451H211.598ZM206.99 277.971V279.043H215.662V282.691H216.99V277.971H206.99Z" fill="#525252"/>
<path d="M221.405 274.451V275.539H228.813V274.451H221.405ZM224.365 275.315V278.643H225.709V275.315H224.365ZM221.405 269.587V274.835H222.733V270.675H228.733V269.587H221.405ZM230.717 268.211V282.707H232.045V268.211H230.717ZM220.525 279.571C223.261 279.587 226.717 279.523 229.885 279.043L229.773 278.051C226.717 278.419 223.165 278.451 220.333 278.467L220.525 279.571Z" fill="#525252"/>
<path d="M238.811 270.291V272.643C238.811 275.139 237.067 277.859 234.971 278.851L235.739 279.907C238.043 278.771 239.883 275.699 239.883 272.643V270.291H238.811ZM239.067 270.291V272.643C239.067 275.651 240.923 278.467 243.259 279.555L244.011 278.499C241.883 277.587 240.139 275.091 240.139 272.643V270.291H239.067ZM235.451 269.699V270.819H243.531V269.699H235.451ZM245.483 268.227V282.691H246.811V268.227H245.483Z" fill="#525252"/>
<path d="M256.971 269.043C254.827 269.043 253.243 270.419 253.243 272.387C253.243 274.355 254.827 275.731 256.971 275.731C259.131 275.731 260.715 274.355 260.715 272.387C260.715 270.419 259.131 269.043 256.971 269.043ZM256.971 270.131C258.379 270.131 259.435 271.075 259.435 272.387C259.435 273.699 258.379 274.643 256.971 274.643C255.595 274.643 254.539 273.699 254.539 272.387C254.539 271.075 255.595 270.131 256.971 270.131ZM262.875 268.227V275.427H264.203V268.227H262.875ZM263.627 271.475V272.563H266.347V271.475H263.627ZM254.491 281.219V282.307H255.179C256.171 282.307 257.499 282.243 258.891 281.795L258.667 280.723C257.435 281.139 256.043 281.219 255.179 281.219H254.491ZM254.491 276.995V281.603H255.787V276.995H254.491ZM258.363 277.091V278.083H265.627V277.091H258.363ZM262.011 278.595C260.427 278.595 259.323 279.379 259.323 280.627C259.323 281.891 260.427 282.675 262.011 282.675C263.579 282.675 264.683 281.891 264.683 280.627C264.683 279.379 263.579 278.595 262.011 278.595ZM262.011 279.539C262.875 279.539 263.499 279.971 263.499 280.627C263.499 281.299 262.875 281.731 262.011 281.731C261.115 281.731 260.507 281.299 260.507 280.627C260.507 279.971 261.115 279.539 262.011 279.539ZM261.355 275.795V277.859H262.651V275.795H261.355Z" fill="#525252"/>
<path d="M271.738 269.075C269.562 269.075 267.962 270.467 267.962 272.483C267.962 274.499 269.562 275.891 271.738 275.891C273.914 275.891 275.514 274.499 275.514 272.483C275.514 270.467 273.914 269.075 271.738 269.075ZM271.738 270.195C273.178 270.195 274.218 271.123 274.218 272.483C274.218 273.843 273.178 274.771 271.738 274.771C270.298 274.771 269.258 273.843 269.258 272.483C269.258 271.123 270.298 270.195 271.738 270.195ZM277.594 268.227V276.467H278.922V268.227H277.594ZM278.554 271.683V272.787H281.066V271.683H278.554ZM271.162 277.107V277.891C271.162 279.283 270.09 280.851 268.266 281.523L268.938 282.515C271.018 281.715 272.186 279.795 272.186 277.891V277.107H271.162ZM271.45 277.107V277.891C271.45 279.827 272.378 281.827 274.474 282.643L275.05 281.635C273.29 280.931 272.442 279.363 272.442 277.891V277.107H271.45ZM276.506 277.107V277.891C276.506 279.155 275.642 280.851 273.898 281.635L274.474 282.643C276.554 281.763 277.498 279.603 277.498 277.891V277.107H276.506ZM276.762 277.107V277.891C276.762 279.907 277.914 281.747 280.026 282.515L280.682 281.523C278.858 280.899 277.802 279.395 277.802 277.891V277.107H276.762Z" fill="#525252"/>
<path d="M284.073 276.899V282.499H293.785V276.899H292.457V278.579H285.385V276.899H284.073ZM285.385 279.603H292.457V281.427H285.385V279.603ZM282.409 274.819V275.891H295.481V274.819H282.409ZM288.281 268.387V269.027C288.281 270.851 285.769 272.403 283.161 272.755L283.641 273.795C286.617 273.347 289.417 271.539 289.417 269.027V268.387H288.281ZM288.489 268.387V269.027C288.489 271.507 291.305 273.347 294.249 273.795L294.745 272.755C292.169 272.403 289.625 270.819 289.625 269.027V268.387H288.489Z" fill="#525252"/>
<path d="M307.656 268.227V282.691H308.984V268.227H307.656ZM298.056 269.635V278.595H299.368V269.635H298.056ZM298.056 277.811V278.963H299.24C301.528 278.963 303.816 278.787 306.328 278.275L306.168 277.139C303.72 277.651 301.432 277.811 299.24 277.811H298.056Z" fill="#525252"/>
<path d="M321.638 268.211V282.707H322.982V268.211H321.638ZM322.662 273.923V275.043H325.35V273.923H322.662ZM312.47 277.987V279.107H313.606C316.326 279.107 318.23 279.027 320.454 278.611L320.31 277.491C318.15 277.891 316.278 277.987 313.606 277.987H312.47ZM312.47 269.619V278.483H313.782V270.707H319.19V269.619H312.47Z" fill="#525252"/>
<path d="M327.812 281.522C328.312 281.522 328.703 281.131 328.703 280.631C328.703 280.131 328.312 279.74 327.812 279.74C327.312 279.74 326.922 280.131 326.922 280.631C326.922 281.131 327.312 281.522 327.812 281.522Z" fill="#525252"/>
<path d="M16.0547 288.619V289.819C16.0547 291.883 14.6147 293.755 12.4387 294.507L13.1107 295.563C15.5587 294.683 17.1427 292.475 17.1427 289.819V288.619H16.0547ZM16.2947 288.619V289.803C16.2947 292.283 17.8467 294.411 20.2627 295.227L20.9027 294.171C18.7747 293.451 17.3827 291.723 17.3827 289.803V288.619H16.2947ZM12.8227 288.235V289.307H20.5667V288.235H12.8227ZM22.4067 287.227V295.739H23.7347V287.227H22.4067ZM23.3667 290.827V291.931H25.8787V290.827H23.3667ZM14.6467 296.395V301.499H23.7347V296.395H14.6467ZM22.4387 297.451V300.427H15.9427V297.451H22.4387Z" fill="#525252"/>
<path d="M31.0455 288.475V291.067C31.0455 293.803 29.3015 296.571 27.1575 297.595L27.9735 298.683C30.3415 297.483 32.1335 294.395 32.1335 291.067V288.475H31.0455ZM31.2695 288.475V291.067C31.2695 294.283 33.0775 297.259 35.4295 298.411L36.2295 297.355C34.0855 296.363 32.3575 293.707 32.3575 291.067V288.475H31.2695ZM37.7335 287.211V301.707H39.0615V287.211H37.7335Z" fill="#525252"/>
<path d="M45.9095 288.875V289.947H57.5415V288.875H45.9095ZM45.2375 296.603V297.691H58.3415V296.603H45.2375ZM51.0935 297.483V301.707H52.4215V297.483H51.0935ZM51.7655 290.779C48.8055 290.779 47.0615 291.643 47.0615 293.195C47.0615 294.731 48.8055 295.611 51.7655 295.611C54.7095 295.611 56.4535 294.731 56.4535 293.195C56.4535 291.643 54.7095 290.779 51.7655 290.779ZM51.7655 291.803C53.8775 291.803 55.0935 292.299 55.0935 293.195C55.0935 294.091 53.8775 294.587 51.7655 294.587C49.6535 294.587 48.4375 294.091 48.4375 293.195C48.4375 292.299 49.6535 291.803 51.7655 291.803ZM51.0935 287.147V289.595H52.4215V287.147H51.0935Z" fill="#525252"/>
<path d="M73.0135 287.211V301.707H74.3575V287.211H73.0135ZM74.0375 292.923V294.043H76.7255V292.923H74.0375ZM63.8455 296.987V298.107H64.9815C67.7015 298.107 69.6055 298.027 71.8295 297.611L71.6855 296.491C69.5255 296.891 67.6535 296.987 64.9815 296.987H63.8455ZM63.8455 288.619V297.483H65.1575V289.707H70.5655V288.619H63.8455Z" fill="#525252"/>
<path d="M81.7642 288.475V291.067C81.7642 293.803 80.0202 296.571 77.8762 297.595L78.6922 298.683C81.0602 297.483 82.8522 294.395 82.8522 291.067V288.475H81.7642ZM81.9882 288.475V291.067C81.9882 294.283 83.7962 297.259 86.1482 298.411L86.9482 297.355C84.8042 296.363 83.0762 293.707 83.0762 291.067V288.475H81.9882ZM88.4522 287.211V301.707H89.7802V287.211H88.4522Z" fill="#525252"/>
<path d="M106.452 287.211V301.707H107.78V287.211H106.452ZM100.148 288.331C98.0202 288.331 96.4842 290.299 96.4842 293.371C96.4842 296.459 98.0202 298.427 100.148 298.427C102.292 298.427 103.828 296.459 103.828 293.371C103.828 290.299 102.292 288.331 100.148 288.331ZM100.148 289.531C101.572 289.531 102.548 291.035 102.548 293.371C102.548 295.723 101.572 297.259 100.148 297.259C98.7402 297.259 97.7482 295.723 97.7482 293.371C97.7482 291.035 98.7402 289.531 100.148 289.531Z" fill="#525252"/>
<path d="M113.891 292.123V294.859H115.203V292.123H113.891ZM119.203 292.123V294.859H120.515V292.123H119.203ZM110.659 294.379V295.451H123.731V294.379H110.659ZM117.187 296.539C114.083 296.539 112.227 297.451 112.227 299.099C112.227 300.747 114.083 301.675 117.187 301.675C120.291 301.675 122.147 300.747 122.147 299.099C122.147 297.451 120.291 296.539 117.187 296.539ZM117.187 297.563C119.459 297.563 120.803 298.123 120.803 299.099C120.803 300.091 119.459 300.635 117.187 300.635C114.931 300.635 113.571 300.091 113.571 299.099C113.571 298.123 114.931 297.563 117.187 297.563ZM117.203 287.483C114.051 287.483 112.115 288.491 112.115 290.187C112.115 291.867 114.051 292.859 117.203 292.859C120.339 292.859 122.291 291.867 122.291 290.187C122.291 288.491 120.339 287.483 117.203 287.483ZM117.203 288.523C119.507 288.523 120.931 289.131 120.931 290.187C120.931 291.227 119.507 291.835 117.203 291.835C114.899 291.835 113.475 291.227 113.475 290.187C113.475 289.131 114.899 288.523 117.203 288.523Z" fill="#525252"/>
<path d="M128.659 295.787V296.875H141.779V295.787H128.659ZM134.515 296.299V301.691H135.827V296.299H134.515ZM130.307 287.803V294.059H140.099V287.803H138.787V289.787H131.635V287.803H130.307ZM131.635 290.859H138.787V292.987H131.635V290.859Z" fill="#525252"/>
<path d="M144.05 294.139V295.227H145.154C148.098 295.227 149.762 295.163 151.746 294.811L151.602 293.739C149.666 294.075 148.05 294.139 145.154 294.139H144.05ZM144.05 288.203V294.555H145.362V289.291H150.658V288.203H144.05ZM144.946 291.131V292.203H150.386V291.131H144.946ZM153.282 287.227V295.979H154.61V287.227H153.282ZM154.242 291.051V292.171H156.754V291.051H154.242ZM145.218 296.699V297.787H153.282V301.691H154.61V296.699H145.218Z" fill="#525252"/>
<path d="M163.042 294.155V295.243H172.978V294.155H163.042ZM161.394 298.635V299.739H174.498V298.635H161.394ZM163.042 288.555V294.635H164.37V289.659H172.834V288.555H163.042Z" fill="#525252"/>
<path d="M186.64 287.211V301.707H187.968V287.211H186.64ZM176.944 297.115V298.219H178.144C180.624 298.219 182.8 298.123 185.424 297.691L185.28 296.603C182.72 297.019 180.56 297.115 178.144 297.115H176.944ZM176.912 288.571V289.659H182.256V292.651H176.944V297.531H178.272V293.739H183.6V288.571H176.912Z" fill="#525252"/>
<path d="M197.471 290.683V291.771H201.935V290.683H197.471ZM197.471 294.667V295.771H201.935V294.667H197.471ZM191.407 288.635V298.043H197.983V288.635H191.407ZM196.671 289.707V296.971H192.703V289.707H196.671ZM201.423 287.211V301.707H202.735V287.211H201.423Z" fill="#525252"/>
<path d="M219.327 287.211V301.707H220.655V287.211H219.327ZM213.023 288.331C210.895 288.331 209.359 290.299 209.359 293.371C209.359 296.459 210.895 298.427 213.023 298.427C215.167 298.427 216.703 296.459 216.703 293.371C216.703 290.299 215.167 288.331 213.023 288.331ZM213.023 289.531C214.447 289.531 215.423 291.035 215.423 293.371C215.423 295.723 214.447 297.259 213.023 297.259C211.615 297.259 210.623 295.723 210.623 293.371C210.623 291.035 211.615 289.531 213.023 289.531Z" fill="#525252"/>
<path d="M226.766 292.123V294.859H228.078V292.123H226.766ZM232.078 292.123V294.859H233.39V292.123H232.078ZM223.534 294.379V295.451H236.606V294.379H223.534ZM230.062 296.539C226.958 296.539 225.102 297.451 225.102 299.099C225.102 300.747 226.958 301.675 230.062 301.675C233.166 301.675 235.022 300.747 235.022 299.099C235.022 297.451 233.166 296.539 230.062 296.539ZM230.062 297.563C232.334 297.563 233.678 298.123 233.678 299.099C233.678 300.091 232.334 300.635 230.062 300.635C227.806 300.635 226.446 300.091 226.446 299.099C226.446 298.123 227.806 297.563 230.062 297.563ZM230.078 287.483C226.926 287.483 224.99 288.491 224.99 290.187C224.99 291.867 226.926 292.859 230.078 292.859C233.214 292.859 235.166 291.867 235.166 290.187C235.166 288.491 233.214 287.483 230.078 287.483ZM230.078 288.523C232.382 288.523 233.806 289.131 233.806 290.187C233.806 291.227 232.382 291.835 230.078 291.835C227.774 291.835 226.35 291.227 226.35 290.187C226.35 289.131 227.774 288.523 230.078 288.523Z" fill="#525252"/>
<path d="M244.125 292.843V293.947H246.861V292.843H244.125ZM249.277 287.227V301.691H250.557V287.227H249.277ZM246.413 287.531V300.971H247.677V287.531H246.413ZM241.517 288.427C239.645 288.427 238.445 290.363 238.445 293.467C238.445 296.571 239.645 298.507 241.517 298.507C243.389 298.507 244.605 296.571 244.605 293.467C244.605 290.363 243.389 288.427 241.517 288.427ZM241.517 289.659C242.669 289.659 243.389 291.131 243.389 293.467C243.389 295.803 242.669 297.275 241.517 297.275C240.381 297.275 239.661 295.803 239.661 293.467C239.661 291.131 240.381 289.659 241.517 289.659Z" fill="#525252"/>
<path d="M262.125 294.171V296.379H263.437V294.171H262.125ZM257.997 287.451V292.219H267.629V287.451H266.301V288.795H259.309V287.451H257.997ZM259.309 289.819H266.301V291.195H259.309V289.819ZM256.253 293.403V294.475H269.325V293.403H256.253ZM257.837 295.883V296.891H266.349V298.139H257.869V300.891H259.181V299.099H267.661V295.883H257.837ZM257.869 300.507V301.531H268.093V300.507H257.869Z" fill="#525252"/>
<path d="M281.547 287.227V297.995H282.875V287.227H281.547ZM271.403 288.395V289.483H279.019V288.395H271.403ZM271.163 295.819C273.515 295.819 276.763 295.771 279.547 295.323L279.467 294.331C276.763 294.651 273.387 294.683 271.019 294.683L271.163 295.819ZM272.843 289.323V294.875H274.123V289.323H272.843ZM276.299 289.323V294.875H277.579V289.323H276.299ZM279.147 289.963V291.051H282.251V289.963H279.147ZM279.147 292.731V293.819H282.251V292.731H279.147ZM273.627 300.283V301.371H283.259V300.283H273.627ZM273.627 297.115V300.971H274.955V297.115H273.627Z" fill="#525252"/>
<path d="M292.234 287.467C289.034 287.467 287.146 288.363 287.146 289.979C287.146 291.595 289.034 292.491 292.234 292.491C295.418 292.491 297.322 291.595 297.322 289.979C297.322 288.363 295.418 287.467 292.234 287.467ZM292.234 288.475C294.586 288.475 295.946 289.019 295.946 289.979C295.946 290.939 294.586 291.483 292.234 291.483C289.866 291.483 288.506 290.939 288.506 289.979C288.506 289.019 289.866 288.475 292.234 288.475ZM285.69 293.451V294.523H298.762V293.451H285.69ZM287.274 295.755V296.779H295.786V298.059H287.306V300.779H288.618V299.019H297.098V295.755H287.274ZM287.306 300.491V301.531H297.53V300.491H287.306Z" fill="#525252"/>
<path d="M305.354 294.155V295.243H315.29V294.155H305.354ZM303.706 298.635V299.739H316.81V298.635H303.706ZM305.354 288.555V294.635H306.682V289.659H315.146V288.555H305.354Z" fill="#525252"/>
<path d="M328.985 287.211V301.707H330.313V287.211H328.985ZM326.137 290.523V291.611H329.337V290.523H326.137ZM318.953 297.227V298.347H320.025C322.313 298.347 324.169 298.267 326.441 297.915L326.313 296.811C324.105 297.163 322.265 297.227 320.025 297.227H318.953ZM318.921 288.523V289.627H323.929V292.619H318.953V297.483H320.265V293.707H325.241V288.523H318.921ZM326.041 294.475V295.563H329.241V294.475H326.041Z" fill="#525252"/>
<path d="M340.489 289.003V289.851C340.489 291.819 338.937 293.499 336.713 294.155L337.369 295.195C339.849 294.427 341.593 292.411 341.593 289.851V289.003H340.489ZM340.729 289.003V289.851C340.729 292.267 342.425 294.203 344.873 294.955L345.513 293.899C343.353 293.275 341.833 291.675 341.833 289.851V289.003H340.729ZM337.193 288.603V289.707H345.129V288.603H337.193ZM340.505 294.555V297.851H341.833V294.555H340.505ZM346.873 287.211V301.707H348.201V287.211H346.873ZM336.681 298.635C339.257 298.635 342.793 298.619 346.041 298.011L345.929 297.035C342.777 297.515 339.129 297.531 336.489 297.531L336.681 298.635Z" fill="#525252"/>
<path d="M357 292.283V294.987H358.312V292.283H357ZM356.984 287.451V288.091C356.984 290.027 354.504 291.627 351.912 291.979L352.424 293.035C355.368 292.555 358.136 290.699 358.136 288.091V287.451H356.984ZM357.192 287.451V288.091C357.192 290.699 359.976 292.539 362.904 293.035L363.4 291.979C360.824 291.627 358.328 290.027 358.328 288.091V287.451H357.192ZM351.128 294.411V295.467H364.2V294.411H351.128ZM357.656 296.667C354.552 296.667 352.696 297.563 352.696 299.163C352.696 300.779 354.552 301.659 357.656 301.659C360.76 301.659 362.616 300.779 362.616 299.163C362.616 297.563 360.76 296.667 357.656 296.667ZM357.656 297.691C359.944 297.691 361.272 298.219 361.272 299.163C361.272 300.107 359.944 300.635 357.656 300.635C355.384 300.635 354.04 300.107 354.04 299.163C354.04 298.219 355.384 297.691 357.656 297.691Z" fill="#525252"/>
<path d="M375.75 287.227V295.627H377.078V287.227H375.75ZM376.502 290.907V292.027H379.222V290.907H376.502ZM367.99 296.267V301.499H377.078V296.267H375.766V297.803H369.286V296.267H367.99ZM369.286 298.827H375.766V300.427H369.286V298.827ZM365.894 288.699V289.787H374.438V288.699H365.894ZM370.166 290.443C368.086 290.443 366.694 291.451 366.694 292.987C366.694 294.523 368.086 295.531 370.166 295.531C372.23 295.531 373.622 294.523 373.622 292.987C373.622 291.451 372.23 290.443 370.166 290.443ZM370.166 291.451C371.462 291.451 372.358 292.059 372.358 292.987C372.358 293.915 371.462 294.523 370.166 294.523C368.838 294.523 367.958 293.915 367.958 292.987C367.958 292.059 368.838 291.451 370.166 291.451ZM369.494 287.083V289.291H370.822V287.083H369.494Z" fill="#525252"/>
<path d="M391.093 287.227V301.691H392.421V287.227H391.093ZM381.493 288.635V297.595H382.805V288.635H381.493ZM381.493 296.811V297.963H382.677C384.965 297.963 387.253 297.787 389.765 297.275L389.605 296.139C387.157 296.651 384.869 296.811 382.677 296.811H381.493Z" fill="#525252"/>
<path d="M405.076 287.211V301.707H406.42V287.211H405.076ZM406.1 292.923V294.043H408.788V292.923H406.1ZM395.908 296.987V298.107H397.044C399.764 298.107 401.668 298.027 403.892 297.611L403.748 296.491C401.588 296.891 399.716 296.987 397.044 296.987H395.908ZM395.908 288.619V297.483H397.22V289.707H402.628V288.619H395.908Z" fill="#525252"/>
<path d="M411.25 300.522C411.75 300.522 412.141 300.131 412.141 299.631C412.141 299.131 411.75 298.74 411.25 298.74C410.75 298.74 410.359 299.131 410.359 299.631C410.359 300.131 410.75 300.522 411.25 300.522Z" fill="#525252"/>
<path d="M8.6115 206.541V212.373C8.6115 218.313 4.9035 224.577 0.1875 226.953L2.0235 229.329C7.1715 226.593 11.0595 219.573 11.0595 212.373V206.541H8.6115ZM9.1515 206.541V212.373C9.1515 219.357 12.9315 226.017 17.9715 228.717L19.8075 226.341C15.1995 224.037 11.5635 218.097 11.5635 212.373V206.541H9.1515ZM22.6515 203.733V236.277H25.6755V203.733H22.6515ZM24.9555 216.909V219.429H31.0035V216.909H24.9555Z" fill="black"/>
<path d="M57.3887 203.697V236.313H60.3767V203.697H57.3887ZM43.2047 206.217C38.4167 206.217 34.9607 210.645 34.9607 217.557C34.9607 224.505 38.4167 228.933 43.2047 228.933C48.0287 228.933 51.4847 224.505 51.4847 217.557C51.4847 210.645 48.0287 206.217 43.2047 206.217ZM43.2047 208.917C46.4087 208.917 48.6047 212.301 48.6047 217.557C48.6047 222.849 46.4087 226.305 43.2047 226.305C40.0367 226.305 37.8047 222.849 37.8047 217.557C37.8047 212.301 40.0367 208.917 43.2047 208.917Z" fill="black"/>
<path d="M70.6699 221.265V223.677H93.0259V221.265H70.6699ZM66.8899 229.617V232.101H96.3739V229.617H66.8899ZM70.6699 206.505V222.021H73.6939V208.953H92.6659V206.505H70.6699ZM72.7219 213.777V216.153H91.9819V213.777H72.7219Z" fill="black"/>
<path d="M113.183 216.369V218.853H119.339V216.369H113.183ZM124.775 203.733V236.277H127.655V203.733H124.775ZM118.331 204.417V234.657H121.175V204.417H118.331ZM107.315 206.433C103.103 206.433 100.403 210.789 100.403 217.773C100.403 224.757 103.103 229.113 107.315 229.113C111.527 229.113 114.263 224.757 114.263 217.773C114.263 210.789 111.527 206.433 107.315 206.433ZM107.315 209.205C109.907 209.205 111.527 212.517 111.527 217.773C111.527 223.029 109.907 226.341 107.315 226.341C104.759 226.341 103.139 223.029 103.139 217.773C103.139 212.517 104.759 209.205 107.315 209.205Z" fill="black"/>
<path d="M157.859 211.617V214.065H165.095V211.617H157.859ZM164.267 203.733V221.409H167.255V203.733H164.267ZM146.411 222.993V235.845H167.255V222.993H164.303V226.953H149.363V222.993H146.411ZM149.363 229.365H164.303V233.397H149.363V229.365ZM148.787 206.289V208.953C148.787 213.561 145.439 217.881 140.579 219.573L142.127 221.985C147.563 219.969 151.235 214.857 151.235 208.953V206.289H148.787ZM149.363 206.289V208.917C149.363 214.389 152.855 219.285 158.147 221.193L159.659 218.853C154.943 217.197 151.775 213.129 151.775 208.917V206.289H149.363ZM141.515 205.677V208.089H158.903V205.677H141.515Z" fill="black"/>
<path d="M173.588 220.041V222.489H203.108V220.041H173.588ZM186.8 215.109V221.157H189.752V215.109H186.8ZM186.764 204.237V205.677C186.764 210.033 181.184 213.633 175.352 214.425L176.504 216.801C183.128 215.721 189.356 211.545 189.356 205.677V204.237H186.764ZM187.232 204.237V205.677C187.232 211.545 193.496 215.685 200.084 216.801L201.2 214.425C195.404 213.633 189.788 210.033 189.788 205.677V204.237H187.232ZM176.864 225.657V228.069H196.376V236.277H199.364V225.657H176.864Z" fill="black"/>
<path d="M228.989 203.625V221.589H231.977V203.625H228.989ZM230.717 211.437V213.957H236.801V211.437H230.717ZM211.313 223.245V225.513H229.061V228.357H211.385V234.477H214.337V230.517H231.977V223.245H211.313ZM211.385 233.613V235.917H233.165V233.613H211.385ZM206.813 206.649V208.989H226.037V206.649H206.813ZM216.425 210.429C211.673 210.429 208.613 212.481 208.613 215.793C208.613 219.069 211.673 221.085 216.425 221.085C221.105 221.085 224.201 219.069 224.201 215.793C224.201 212.481 221.105 210.429 216.425 210.429ZM216.425 212.625C219.413 212.625 221.357 213.849 221.357 215.793C221.357 217.701 219.413 218.925 216.425 218.925C213.401 218.925 211.457 217.701 211.457 215.793C211.457 213.849 213.401 212.625 216.425 212.625ZM214.913 203.373V208.269H217.901V203.373H214.913Z" fill="black"/>
<path d="M260.381 204.885V206.685C260.381 211.329 254.657 215.217 248.717 216.117L249.905 218.529C256.673 217.377 263.009 212.913 263.009 206.685V204.885H260.381ZM260.921 204.885V206.685C260.921 212.841 267.293 217.377 273.989 218.529L275.177 216.117C269.309 215.217 263.513 211.221 263.513 206.685V204.885H260.921ZM260.381 223.893V236.277H263.333V223.893H260.381ZM247.241 222.057V224.541H276.653V222.057H247.241Z" fill="black"/>
<path d="M291.449 222.813V235.845H302.717V222.813H299.945V226.881H294.257V222.813H291.449ZM294.257 229.113H299.945V233.505H294.257V229.113ZM309.017 222.633V225.333C309.017 228.645 307.001 232.209 303.077 233.865L304.589 236.133C309.089 234.225 311.321 229.761 311.321 225.333V222.633H309.017ZM309.629 222.633V225.333C309.629 229.941 311.825 234.261 316.361 236.133L317.873 233.865C313.949 232.353 311.933 228.825 311.933 225.333V222.633H309.629ZM304.085 211.365V213.849H312.833V211.365H304.085ZM296.597 205.173C291.737 205.173 288.209 208.197 288.209 212.661C288.209 217.089 291.737 220.149 296.597 220.149C301.457 220.149 304.985 217.089 304.985 212.661C304.985 208.197 301.457 205.173 296.597 205.173ZM296.597 207.657C299.801 207.657 302.105 209.709 302.105 212.661C302.105 215.577 299.801 217.665 296.597 217.665C293.393 217.665 291.089 215.577 291.089 212.661C291.089 209.709 293.393 207.657 296.597 207.657ZM311.501 203.733V220.977H314.489V203.733H311.501Z" fill="black"/>
<path d="M324.567 223.245V235.845H346.419V223.245H343.431V227.025H327.519V223.245H324.567ZM327.519 229.329H343.431V233.433H327.519V229.329ZM320.823 218.565V220.977H350.235V218.565H320.823ZM334.035 204.093V205.533C334.035 209.637 328.383 213.129 322.515 213.921L323.595 216.261C330.291 215.253 336.591 211.185 336.591 205.533V204.093H334.035ZM334.503 204.093V205.533C334.503 211.113 340.839 215.253 347.463 216.261L348.579 213.921C342.783 213.129 337.059 209.565 337.059 205.533V204.093H334.503Z" fill="black"/>
<path d="M377.628 203.733V236.277H380.616V203.733H377.628ZM356.028 206.901V227.061H358.98V206.901H356.028ZM356.028 225.297V227.889H358.692C363.84 227.889 368.988 227.493 374.64 226.341L374.28 223.785C368.772 224.937 363.624 225.297 358.692 225.297H356.028Z" fill="black"/>
<path d="M409.089 203.697V236.313H412.113V203.697H409.089ZM411.393 216.549V219.069H417.441V216.549H411.393ZM388.461 225.693V228.213H391.017C397.137 228.213 401.421 228.033 406.425 227.097L406.101 224.577C401.241 225.477 397.029 225.693 391.017 225.693H388.461ZM388.461 206.865V226.809H391.413V209.313H403.581V206.865H388.461Z" fill="black"/>
<path d="M422.277 233.715C422.84 233.715 423.314 233.522 423.701 233.135C424.088 232.748 424.281 232.273 424.281 231.711C424.281 231.148 424.088 230.674 423.701 230.287C423.314 229.9 422.84 229.707 422.277 229.707C421.715 229.707 421.24 229.9 420.854 230.287C420.467 230.674 420.273 231.148 420.273 231.711C420.273 232.273 420.467 232.748 420.854 233.135C421.24 233.522 421.715 233.715 422.277 233.715Z" fill="black"/>
<path d="M158.085 211.617V214.065H165.321V211.617H158.085ZM164.493 203.733V221.409H167.481V203.733H164.493ZM146.637 222.993V235.845H167.481V222.993H164.529V226.953H149.589V222.993H146.637ZM149.589 229.365H164.529V233.397H149.589V229.365ZM149.013 206.289V208.953C149.013 213.561 145.665 217.881 140.805 219.573L142.353 221.985C147.789 219.969 151.461 214.857 151.461 208.953V206.289H149.013ZM149.589 206.289V208.917C149.589 214.389 153.081 219.285 158.373 221.193L159.885 218.853C155.169 217.197 152.001 213.129 152.001 208.917V206.289H149.589ZM141.741 205.677V208.089H159.129V205.677H141.741Z" fill="#1F58C2"/>
<path d="M173.815 220.041V222.489H203.335V220.041H173.815ZM187.027 215.109V221.157H189.979V215.109H187.027ZM186.991 204.237V205.677C186.991 210.033 181.411 213.633 175.579 214.425L176.731 216.801C183.355 215.721 189.583 211.545 189.583 205.677V204.237H186.991ZM187.459 204.237V205.677C187.459 211.545 193.723 215.685 200.311 216.801L201.427 214.425C195.631 213.633 190.015 210.033 190.015 205.677V204.237H187.459ZM177.091 225.657V228.069H196.603V236.277H199.591V225.657H177.091Z" fill="#1F58C2"/>
<path d="M229.216 203.625V221.589H232.204V203.625H229.216ZM230.944 211.437V213.957H237.028V211.437H230.944ZM211.54 223.245V225.513H229.288V228.357H211.612V234.477H214.564V230.517H232.204V223.245H211.54ZM211.612 233.613V235.917H233.392V233.613H211.612ZM207.04 206.649V208.989H226.264V206.649H207.04ZM216.652 210.429C211.9 210.429 208.84 212.481 208.84 215.793C208.84 219.069 211.9 221.085 216.652 221.085C221.332 221.085 224.428 219.069 224.428 215.793C224.428 212.481 221.332 210.429 216.652 210.429ZM216.652 212.625C219.64 212.625 221.584 213.849 221.584 215.793C221.584 217.701 219.64 218.925 216.652 218.925C213.628 218.925 211.684 217.701 211.684 215.793C211.684 213.849 213.628 212.625 216.652 212.625ZM215.14 203.373V208.269H218.128V203.373H215.14Z" fill="#1F58C2"/>
<path d="M260.608 204.885V206.685C260.608 211.329 254.884 215.217 248.944 216.117L250.132 218.529C256.9 217.377 263.236 212.913 263.236 206.685V204.885H260.608ZM261.148 204.885V206.685C261.148 212.841 267.52 217.377 274.216 218.529L275.404 216.117C269.536 215.217 263.74 211.221 263.74 206.685V204.885H261.148ZM260.608 223.893V236.277H263.56V223.893H260.608ZM247.468 222.057V224.541H276.88V222.057H247.468Z" fill="#1F58C2"/>
<path d="M291.676 222.813V235.845H302.944V222.813H300.172V226.881H294.484V222.813H291.676ZM294.484 229.113H300.172V233.505H294.484V229.113ZM309.244 222.633V225.333C309.244 228.645 307.228 232.209 303.304 233.865L304.816 236.133C309.316 234.225 311.548 229.761 311.548 225.333V222.633H309.244ZM309.856 222.633V225.333C309.856 229.941 312.052 234.261 316.588 236.133L318.1 233.865C314.176 232.353 312.16 228.825 312.16 225.333V222.633H309.856ZM304.312 211.365V213.849H313.06V211.365H304.312ZM296.824 205.173C291.964 205.173 288.436 208.197 288.436 212.661C288.436 217.089 291.964 220.149 296.824 220.149C301.684 220.149 305.212 217.089 305.212 212.661C305.212 208.197 301.684 205.173 296.824 205.173ZM296.824 207.657C300.028 207.657 302.332 209.709 302.332 212.661C302.332 215.577 300.028 217.665 296.824 217.665C293.62 217.665 291.316 215.577 291.316 212.661C291.316 209.709 293.62 207.657 296.824 207.657ZM311.728 203.733V220.977H314.716V203.733H311.728Z" fill="#1F58C2"/>
<path d="M324.793 223.245V235.845H346.645V223.245H343.657V227.025H327.745V223.245H324.793ZM327.745 229.329H343.657V233.433H327.745V229.329ZM321.049 218.565V220.977H350.461V218.565H321.049ZM334.261 204.093V205.533C334.261 209.637 328.609 213.129 322.741 213.921L323.821 216.261C330.517 215.253 336.817 211.185 336.817 205.533V204.093H334.261ZM334.729 204.093V205.533C334.729 211.113 341.065 215.253 347.689 216.261L348.805 213.921C343.009 213.129 337.285 209.565 337.285 205.533V204.093H334.729Z" fill="#1F58C2"/>
<path d="M377.854 203.733V236.277H380.842V203.733H377.854ZM356.254 206.901V227.061H359.206V206.901H356.254ZM356.254 225.297V227.889H358.918C364.066 227.889 369.214 227.493 374.866 226.341L374.506 223.785C368.998 224.937 363.85 225.297 358.918 225.297H356.254Z" fill="#1F58C2"/>
<path d="M409.315 203.697V236.313H412.339V203.697H409.315ZM411.619 216.549V219.069H417.667V216.549H411.619ZM388.687 225.693V228.213H391.243C397.363 228.213 401.647 228.033 406.651 227.097L406.327 224.577C401.467 225.477 397.255 225.693 391.243 225.693H388.687ZM388.687 206.865V226.809H391.639V209.313H403.807V206.865H388.687Z" fill="#1F58C2"/>
<path d="M422.504 233.715C423.066 233.715 423.541 233.522 423.928 233.135C424.314 232.748 424.508 232.273 424.508 231.711C424.508 231.148 424.314 230.674 423.928 230.287C423.541 229.9 423.066 229.707 422.504 229.707C421.941 229.707 421.467 229.9 421.08 230.287C420.693 230.674 420.5 231.148 420.5 231.711C420.5 232.273 420.693 232.748 421.08 233.135C421.467 233.522 421.941 233.715 422.504 233.715Z" fill="#1F58C2"/>
<rect x="113" y="378.886" width="200" height="50" rx="5" fill="#D9D9D9"/>
<path d="M176.946 406.314V410.442H186.818V406.314H176.946ZM185.522 407.338V409.434H178.258V407.338H185.522ZM176.034 397.354V398.394H187.666V397.354H176.034ZM181.89 398.97C178.898 398.97 177.218 399.674 177.218 401.018C177.218 402.362 178.898 403.066 181.89 403.066C184.866 403.066 186.562 402.362 186.562 401.018C186.562 399.674 184.866 398.97 181.89 398.97ZM181.89 399.898C183.97 399.898 185.138 400.298 185.138 401.018C185.138 401.738 183.97 402.138 181.89 402.138C179.794 402.138 178.626 401.738 178.626 401.018C178.626 400.298 179.794 399.898 181.89 399.898ZM181.234 395.962V398.026H182.546V395.962H181.234ZM175.346 404.17V405.21H188.418V404.17H175.346ZM181.234 402.746V404.746H182.546V402.746H181.234Z" fill="black"/>
<path d="M196.609 397.082C193.601 397.082 191.345 398.682 191.345 401.082C191.345 403.498 193.601 405.082 196.609 405.082C199.617 405.082 201.857 403.498 201.857 401.082C201.857 398.682 199.617 397.082 196.609 397.082ZM196.609 398.17C198.897 398.17 200.593 399.338 200.593 401.082C200.593 402.81 198.897 403.994 196.609 403.994C194.321 403.994 192.625 402.81 192.625 401.082C192.625 399.338 194.321 398.17 196.609 398.17ZM190.081 407.61V408.73H203.185V407.61H190.081Z" fill="black"/>
<path d="M204.8 407.754V408.858H217.904V407.754H204.8ZM210.656 404.65V408.218H211.984V404.65H210.656ZM206.384 397.242V398.314H214.976V400.554H206.432V404.522H207.744V401.626H216.288V397.242H206.384ZM206.432 403.962V405.05H216.624V403.962H206.432Z" fill="black"/>
<path d="M232.576 396.154V410.634H233.92V396.154H232.576ZM233.552 402.026V403.13H236.224V402.026H233.552ZM228.88 397.722V397.93C228.88 401.754 226.88 404.842 222.88 406.874L223.616 407.898C228.288 405.546 230.176 401.834 230.176 397.722H228.88ZM223.552 397.722V398.81H229.568V397.722H223.552Z" fill="black"/>
<path d="M248.047 396.17V410.634H249.375V396.17H248.047ZM243.807 397.722V397.946C243.807 401.786 241.871 404.858 237.695 406.874L238.399 407.946C243.231 405.578 245.119 401.914 245.119 397.722H243.807ZM238.351 397.722V398.81H244.383V397.722H238.351Z" fill="black"/>
<path d="M156.836 13.643V31.5429C158.171 29.7002 159.998 28.2703 162.107 27.4165C163.448 26.9009 164.877 26.6518 166.314 26.6831C171.826 26.6831 175.896 28.6119 178.524 32.4697C180.791 35.8009 181.925 40.5049 181.925 46.5817V64.546C181.925 70.7142 179.972 75.7728 176.066 79.7219C174.24 81.6013 172.043 83.0804 169.615 84.0655C167.187 85.0506 164.581 85.52 161.962 85.444C159.38 85.504 156.816 84.9992 154.449 83.9649C152.083 82.9305 149.971 81.3917 148.261 79.4559C144.763 75.6553 142.879 70.6444 143.006 65.4809V63.4822L155.039 62.5796L155.305 65.4406C155.622 68.7665 156.965 70.9855 159.334 72.0977C160.037 72.4504 160.813 72.6326 161.599 72.6296C166.741 72.6296 169.312 69.9431 169.312 64.5702V44.1155C169.34 42.9718 169.114 41.8361 168.651 40.7897C168.189 39.7434 167.501 38.8122 166.636 38.0629C165.638 37.2551 164.372 36.8524 163.09 36.9346C162.107 36.8765 161.127 37.0875 160.255 37.5447C159.383 38.002 158.653 38.6882 158.142 39.5297C157.266 40.9731 156.803 42.6289 156.804 44.317V46.5817H144.263V0.997803H181.062V13.643H156.836Z" fill="#1F58C2"/>
<path d="M232.36 65.4811C232.347 69.4182 231.169 73.2634 228.975 76.5325C226.781 79.8017 223.668 82.3487 220.03 83.853C216.391 85.3573 212.389 85.7517 208.527 84.9865C204.665 84.2213 201.116 82.3307 198.326 79.5527C196.449 77.7279 194.965 75.5379 193.967 73.1177C192.969 70.6975 192.478 68.0986 192.523 65.4811V19.9617C192.52 16.0134 193.689 12.1531 195.881 8.86967C198.074 5.58621 201.192 3.0273 204.84 1.51702C208.488 0.0067418 212.502 -0.386963 216.374 0.385762C220.246 1.15849 223.801 3.06288 226.59 5.85776C228.46 7.69405 229.937 9.89111 230.931 12.3156C231.926 14.7401 232.418 17.3414 232.376 19.9617L232.36 65.4811ZM219.32 19.6957C219.32 17.772 218.556 15.927 217.196 14.5668C215.836 13.2065 213.991 12.4423 212.067 12.4423C211.117 12.4267 210.174 12.6076 209.298 12.9738C208.421 13.3399 207.63 13.8834 206.973 14.57C206.297 15.2393 205.763 16.0383 205.403 16.9191C205.043 17.7999 204.864 18.7443 204.878 19.6957V65.2796C204.863 66.2312 205.041 67.1758 205.401 68.0568C205.762 68.9377 206.296 69.7366 206.973 70.4054C207.63 71.0919 208.421 71.6354 209.298 72.0015C210.174 72.3677 211.117 72.5486 212.067 72.533C213.991 72.533 215.836 71.7688 217.196 70.4085C218.556 69.0483 219.32 67.2033 219.32 65.2796V19.6957Z" fill="#1F58C2"/>
<path d="M283.07 65.4812C283.07 70.7671 280.97 75.8366 277.232 79.5744C273.495 83.3122 268.425 85.412 263.139 85.412C257.853 85.412 252.784 83.3122 249.046 79.5744C245.308 75.8366 243.208 70.7671 243.208 65.4812V19.9618C243.208 16.0136 244.378 12.1539 246.572 8.87124C248.766 5.58855 251.884 3.03037 255.532 1.52042C259.18 0.0104665 263.194 -0.383382 267.066 0.388707C270.938 1.1608 274.494 3.06413 277.283 5.85783C279.153 7.69412 280.63 9.89118 281.625 12.3157C282.62 14.7401 283.111 17.3415 283.07 19.9618V65.4812ZM270.022 19.6958C270.022 17.7721 269.258 15.9271 267.897 14.5668C266.537 13.2065 264.692 12.4423 262.769 12.4423C261.819 12.4258 260.875 12.6063 259.999 12.9725C259.122 13.3387 258.331 13.8827 257.675 14.57C256.997 15.2382 256.462 16.037 256.102 16.9181C255.742 17.7991 255.564 18.7441 255.58 19.6958V65.2797C255.563 66.2315 255.74 67.1767 256.1 68.0579C256.461 68.9391 256.996 69.7378 257.675 70.4054C258.331 71.0928 259.122 71.6368 259.999 72.003C260.875 72.3692 261.819 72.5497 262.769 72.5331C264.692 72.5331 266.537 71.7689 267.897 70.4086C269.258 69.0483 270.022 67.2034 270.022 65.2797V19.6958Z" fill="#1F58C2"/>
</svg>
