<svg width="100" height="100" viewBox="0 0 100 100" fill="none" xmlns="http://www.w3.org/2000/svg">
<g id="Frame">
<g id="XMLID_1_">
<path id="XMLID_8_" d="M64.9064 86.5402H34.6951L32.6931 82.1723V69.2506H66.9084V81.9903L64.9064 86.5402Z" stroke="white" stroke-width="2.5" stroke-miterlimit="10"/>
<path id="XMLID_7_" d="M54.5308 86.5402H44.885V92H54.5308V86.5402Z" stroke="white" stroke-width="2.5" stroke-miterlimit="10"/>
<path id="XMLID_6_" d="M74.0048 43.0431C74.0048 29.7574 63.2671 18.8376 49.7994 18.8376C36.3316 18.8376 25.7759 29.7574 25.7759 43.0431C25.7759 51.5969 30.1438 59.0588 36.8776 63.2447V69.2505H62.9031V63.2447C69.6369 59.0588 74.0048 51.5969 74.0048 43.0431Z" stroke="white" stroke-width="2.5" stroke-miterlimit="10"/>
<path id="XMLID_5_" d="M32.6931 77.9863H47.4348" stroke="white" stroke-width="2.5" stroke-miterlimit="10"/>
<g id="XMLID_3_">
<path id="XMLID_4_" d="M19.7705 63.9728C15.9486 58.3309 13.7646 51.415 13.7646 44.1352C13.7646 24.2976 29.9623 8.09998 49.7999 8.09998C69.6374 8.09998 85.8351 24.2976 85.8351 44.1352C85.8351 52.143 83.1051 59.6049 78.7372 65.6107" stroke="white" stroke-width="2.5" stroke-miterlimit="10" stroke-dasharray="1.99 1.99"/>
</g>
<path id="XMLID_2_" d="M38.6985 41.7691L46.1603 49.2309L60.72 34.4893" stroke="white" stroke-width="2.5" stroke-miterlimit="10"/>
</g>
</g>
</svg>
