<svg width="100" height="100" viewBox="0 0 100 100" fill="none" xmlns="http://www.w3.org/2000/svg">
<g id="Frame">
<g id="XMLID_1_">
<path id="XMLID_7_" d="M28.95 91.0363C41.6814 91.0363 52.0022 80.6585 52.0022 67.8568C52.0022 55.0551 41.6814 44.6772 28.95 44.6772C16.2186 44.6772 5.89771 55.0551 5.89771 67.8568C5.89771 80.6585 16.2186 91.0363 28.95 91.0363Z" stroke="white" stroke-width="2.5" stroke-miterlimit="10"/>
<g id="Group">
<path id="Vector" d="M18.6006 59.7138L23.6978 76.956L28.7951 59.4969L34.0008 76.956L39.098 59.4969" stroke="white" stroke-width="2.5" stroke-miterlimit="10" stroke-linecap="round" stroke-linejoin="round"/>
<path id="Vector_2" d="M18.167 68.3892H39.2067" stroke="white" stroke-width="2.5" stroke-miterlimit="10" stroke-linecap="round" stroke-linejoin="round"/>
</g>
<path id="XMLID_4_" d="M64.6808 46.802V33.2806H75.0543C75.4385 33.2806 75.6306 32.8943 75.2464 32.7012L51.8099 9.32847C51.6178 9.1353 51.4257 9.1353 51.2336 9.32847L27.9892 32.7012C27.7971 32.8943 27.9892 33.2806 28.1813 33.2806H38.5549V41.973" stroke="white" stroke-width="2.5" stroke-miterlimit="10"/>
<path id="XMLID_3_" d="M84.66 91.0363V68.4362H92.7283C92.9204 68.4362 93.1125 68.0499 92.9204 67.8567L74.8628 49.6994C74.6707 49.5063 74.4786 49.5063 74.4786 49.6994L69.8682 54.3353" stroke="white" stroke-width="2.5" stroke-miterlimit="10"/>
<path id="XMLID_2_" d="M64.6807 88.9115V46.802" stroke="white" stroke-width="2.5" stroke-miterlimit="10" stroke-dasharray="1.99 1.99"/>
</g>
</g>
</svg>
