<svg width="100" height="100" viewBox="0 0 100 100" fill="none" xmlns="http://www.w3.org/2000/svg">
<g id="Frame">
<g id="XMLID_1_">
<g id="XMLID_5_">
<path id="XMLID_9_" d="M32.6973 60.673V56.6866C32.6973 55.8473 33.3267 55.0081 33.9561 54.7983L44.8665 51.0216V44.937" stroke="white" stroke-width="2.5" stroke-miterlimit="10"/>
<path id="XMLID_8_" d="M67.1067 60.673V56.6866C67.1067 55.8473 66.4773 55.0081 65.8478 54.7983L54.9375 51.0216V44.937" stroke="white" stroke-width="2.5" stroke-miterlimit="10"/>
<path id="XMLID_7_" d="M58.2958 31.0893C58.2958 26.4734 54.5192 22.6968 49.9033 22.6968C45.2874 22.6968 41.5107 26.4734 41.5107 31.0893L42.35 40.9506C42.35 42.2095 43.1893 43.4683 44.4481 44.0978L48.4346 46.8254H51.1622L55.3585 44.0978C56.6173 43.4683 57.2468 42.2095 57.4566 40.9506L58.2958 31.0893Z" stroke="white" stroke-width="2.5" stroke-miterlimit="10"/>
<path id="XMLID_6_" d="M45.0771 51.0216L48.2244 54.5884H51.7912L54.9384 51.0216" stroke="white" stroke-width="2.5" stroke-miterlimit="10"/>
</g>
<path id="XMLID_4_" d="M82 41.6059C82 45.8404 78.0261 49.0163 76.5621 52.8274C75.098 56.6384 75.3072 61.7199 72.5882 64.4723C69.8693 67.2248 64.6405 67.013 61.085 68.4951C57.5294 69.9772 54.183 74 50 74C45.817 74 42.6797 69.9772 38.915 68.4951C35.1503 67.013 30.1307 67.2248 27.4118 64.4723C24.6928 61.5081 25.1111 56.4267 23.4379 52.6156C21.9739 49.0163 18 45.6287 18 41.3941C18 37.1596 21.9739 33.9837 23.4379 30.1726C24.902 26.3616 24.6928 21.2801 27.4118 18.5277C30.1307 15.7752 35.3595 15.987 38.915 14.5049C42.4706 13.0228 45.817 9 50 9C54.183 9 57.3203 13.0228 61.085 14.5049C64.8497 16.1987 69.8693 15.7752 72.5882 18.7394C75.3072 21.4919 75.098 26.785 76.5621 30.3844C78.0261 33.9837 82 37.3713 82 41.6059Z" stroke="white" stroke-width="2.5" stroke-miterlimit="10"/>
<path id="XMLID_3_" d="M63.5238 70.2001V91.8054C63.5238 92.0001 63.3291 92 63.3291 92L50.0934 85.9661L36.8577 92C36.8577 92 36.6631 92.0001 36.6631 91.8054V70.2001" stroke="white" stroke-width="2.5" stroke-miterlimit="10"/>
</g>
</g>
</svg>
