<svg width="173" height="46" viewBox="0 0 173 46" fill="none" xmlns="http://www.w3.org/2000/svg">
<g id="Group">
<path id="Vector" d="M26.6415 35.823V43.9646C26.6415 44.5752 26.3008 45.3215 25.3469 45.3215H18.8058C17.9881 45.3215 17.2386 44.8466 17.2386 43.8968V36.7729C17.2386 31.2094 15.4671 27.3422 9.26662 27.1386V44.0325C9.26662 44.7788 8.92593 45.2537 8.17643 45.2537H1.22646C0.408821 45.2537 0 44.7788 0 44.0325V1.89971C0 1.15339 0.408821 0.678467 1.22646 0.678467H8.17643C8.99407 0.678467 9.33476 1.15339 9.33476 1.96755V19.0649C15.1264 18.59 16.8298 14.8584 16.8298 9.43068V2.17109C16.8298 1.22124 17.5793 0.678467 18.397 0.678467H24.87C25.8239 0.678467 26.1646 1.49263 26.1646 2.0354V10.3127C26.1646 15.8083 23.9842 20.0148 20.3048 22.8643C24.3249 25.7139 26.6415 30.056 26.6415 35.823Z" fill="black"/>
<path id="Vector_2" d="M39.3143 27.6135C39.3143 28.4955 38.5647 28.7669 38.2241 28.7669H31.7511C31.4104 28.7669 30.729 28.5634 30.729 27.6135V22.3893C30.729 21.5752 31.2741 21.1681 31.7511 21.1681H38.2241C39.1098 21.1681 39.3143 21.8466 39.3143 22.3893V27.6135Z" fill="black"/>
<path id="Vector_3" d="M69.0225 14.4513C69.0225 15.469 68.8181 15.8761 67.9323 15.8761H61.3912C60.5735 15.8761 60.301 15.469 60.301 14.587V11.6018C60.301 9.70206 59.0064 7.73451 56.6897 7.73451C54.4412 7.73451 52.8741 9.49852 52.8741 11.5339V34.3304C52.8741 36.3658 54.3049 38.1976 56.6897 38.1976C59.2789 38.1976 60.5054 36.2979 60.5054 34.3304V30.4631C60.5054 29.5133 60.7779 29.174 61.5275 29.174H68.0686C68.8862 29.174 69.2269 29.3776 69.2269 30.3953V34.8053C69.2269 41.7935 63.6397 46 56.6216 46C49.6035 46 43.5393 41.7935 43.5393 34.8053V11.1947C43.5393 4.81711 48.9903 0 56.6216 0C65.1387 0 69.0225 5.69911 69.0225 11.3304V14.4513Z" fill="black"/>
<path id="Vector_4" d="M98.3215 0.67832C98.9347 0.67832 99.4798 0.949707 99.4798 1.89956V44.0323C99.4798 44.7786 99.1391 45.2535 98.1852 45.2535H91.3034C90.5539 45.2535 90.1451 44.7786 90.1451 44.0323V26.3243H82.4456V44.0323C82.4456 44.7786 82.1049 45.2535 81.2873 45.2535H74.2692C73.4515 45.2535 73.1108 44.7786 73.1108 44.0323V1.89956C73.1108 1.15325 73.5197 0.610474 74.2692 0.610474H81.2873C82.1049 0.610474 82.4456 1.0854 82.4456 1.89956V18.522H90.1451V1.89956C90.1451 1.22109 90.5539 0.610474 91.3034 0.610474H98.3215V0.67832Z" fill="black"/>
<path id="Vector_5" d="M113.857 44.0323C113.857 44.7786 113.517 45.2535 112.699 45.2535H105.681C104.863 45.2535 104.522 44.7786 104.522 44.0323V1.89956C104.522 1.15325 104.931 0.610474 105.681 0.610474H112.699C113.517 0.610474 113.857 1.0854 113.857 1.89956V44.0323Z" fill="black"/>
<path id="Vector_6" d="M118.968 1.89956C118.968 1.15325 119.445 0.610474 120.126 0.610474H132.527C139.75 0.610474 145.2 5.69897 145.2 12.1444V22.4571C145.2 28.9025 139.75 34.1267 132.527 34.1267H128.303V43.9645C128.303 44.7108 127.962 45.1857 127.144 45.1857H120.194C119.377 45.1857 119.036 44.7108 119.036 43.9645V1.89956H118.968ZM135.866 12.4158C135.866 10.109 134.23 8.54853 131.846 8.54853H128.371V26.46H131.914C134.367 26.46 135.934 24.8317 135.934 22.6606V12.4158H135.866Z" fill="black"/>
<path id="Vector_7" d="M163.666 11.8053C163.666 9.56637 162.371 7.73451 159.85 7.73451C158.078 7.73451 156.034 8.8879 156.034 11.8053C156.034 14.8584 158.078 16.2832 161.213 18.4543C167.754 23.1357 173 26.6637 173 34.8053C173 40.8437 167.822 46 160.054 46C151.605 46 147.381 40.5044 147.381 34.4661V32.7699C147.381 31.6844 147.585 31.2094 148.539 31.2094H154.944C155.898 31.2094 156.171 31.5487 156.171 32.4985V33.9233C156.171 37.1121 158.351 38.1976 160.191 38.1976C162.371 38.1976 164.211 36.705 164.211 34.3304C164.211 31.2094 162.371 29.7847 158.078 26.528C150.72 21.0324 147.449 18.9292 147.449 11.5339C147.449 3.18879 155.012 0 159.918 0C167.209 0 172.387 4.61357 172.387 11.7375V13.5693C172.387 14.4513 172.115 14.7906 171.024 14.7906H164.756C163.87 14.7906 163.734 14.4513 163.734 13.5693V11.8053H163.666Z" fill="black"/>
</g>
</svg>
