<svg width="16" height="13" viewBox="0 0 16 13" fill="none" xmlns="http://www.w3.org/2000/svg">
<g clip-path="url(#clip0_56_533)">
<path d="M15.9944 6.4873C15.9944 6.94434 15.5778 7.30234 15.1056 7.30234H14.2167L14.2361 11.3699C14.2361 11.4385 14.2306 11.507 14.2222 11.5756V11.9844C14.2222 12.5455 13.725 13 13.1111 13H12.6667C12.6361 13 12.6056 13 12.575 12.9975C12.5361 13 12.4972 13 12.4583 13H11.5556H10.8889C10.275 13 9.77778 12.5455 9.77778 11.9844V11.375V9.75C9.77778 9.30059 9.38056 8.9375 8.88889 8.9375H7.11111C6.61944 8.9375 6.22222 9.30059 6.22222 9.75V11.375V11.9844C6.22222 12.5455 5.725 13 5.11111 13H4.44444H3.55833C3.51667 13 3.475 12.9975 3.43333 12.9949C3.4 12.9975 3.36667 13 3.33333 13H2.88889C2.275 13 1.77778 12.5455 1.77778 11.9844V9.14062C1.77778 9.11777 1.77778 9.09238 1.78056 9.06953V7.30234H0.888889C0.388889 7.30234 0 6.94688 0 6.4873C0 6.25879 0.0833333 6.05566 0.277778 5.87793L7.4 0.203125C7.59444 0.0253906 7.81667 0 8.01111 0C8.20556 0 8.42778 0.0507812 8.59444 0.177734L15.6889 5.87793C15.9111 6.05566 16.0222 6.25879 15.9944 6.4873Z" fill="#646464"/>
</g>
<defs>
<clipPath id="clip0_56_533">
<rect width="16" height="13" fill="white"/>
</clipPath>
</defs>
</svg>
