<svg width="16" height="16" viewBox="0 0 16 16" fill="none" xmlns="http://www.w3.org/2000/svg">
<path d="M7.67991 3.26674C7.86533 3.11222 8.13467 3.11222 8.32009 3.26674L12.9391 7.11589C13.2983 7.41527 13.0866 8 12.619 8H3.38103C2.91338 8 2.70168 7.41527 3.06093 7.11589L7.67991 3.26674Z" fill="#DEDEDE"/>
<path fill-rule="evenodd" clip-rule="evenodd" d="M12 8H4V12C4 12.5523 4.44772 13 5 13H7V11C7 10.4477 7.44772 10 8 10C8.55228 10 9 10.4477 9 11V13H11C11.5523 13 12 12.5523 12 12V8Z" fill="#DEDEDE"/>
</svg>
