<svg xmlns="http://www.w3.org/2000/svg" viewBox="0 0 42.61 69.5"><defs><style>.cls-1{fill:#e6ae7e;}.cls-2{fill:#fcd751;}.cls-3{fill:#002254;}.cls-4{fill:#768296;}.cls-5{fill:#aebfce;}.cls-6{fill:#ffa229;}.cls-7{fill:#1c4670;}.cls-8{fill:#f4c297;}</style></defs><g id="레이어_2" data-name="레이어 2"><g id="Layer_1" data-name="Layer 1"><path class="cls-1" d="M5.17,36.19A36.45,36.45,0,0,0,20,39.05a36.4,36.4,0,0,0,14.78-2.86A36.57,36.57,0,0,0,20,33.34,36.62,36.62,0,0,0,5.17,36.19Z"/><path class="cls-2" d="M29.09,24.36a10.93,10.93,0,1,0-18.72,0c3,5.28,3.55,6.54,3.59,9,0,3.61,0,6.5,0,6.5H25.5s-.06-2.89,0-6.5C25.54,30.9,26.13,29.64,29.09,24.36Z"/><path class="cls-3" d="M19.73,41.46h-4.1c.61,3.3,4.1,3.3,4.1,3.3s3.49,0,4.1-3.3Z"/><path class="cls-4" d="M27.17,36.09a1.9,1.9,0,0,1-1.9,1.9H14.19a1.9,1.9,0,0,1-1.9-1.9h0a1.9,1.9,0,0,1,1.9-1.9H25.27a1.9,1.9,0,0,1,1.9,1.9Z"/><path class="cls-5" d="M26.57,35.72a1.64,1.64,0,0,1-1.74,1.52H14.63a1.65,1.65,0,0,1-1.75-1.52h0a1.65,1.65,0,0,1,1.75-1.53h10.2a1.64,1.64,0,0,1,1.74,1.53Z"/><path class="cls-4" d="M27.17,39.81a1.9,1.9,0,0,1-1.9,1.9H14.19a1.9,1.9,0,0,1-1.9-1.9h0a1.9,1.9,0,0,1,1.9-1.9H25.27a1.9,1.9,0,0,1,1.9,1.9Z"/><path class="cls-6" d="M20,0a.76.76,0,0,1,.75.75V5.11a.76.76,0,0,1-.75.75h0a.75.75,0,0,1-.75-.75V.75A.75.75,0,0,1,20,0Z"/><path class="cls-6" d="M10,2.58a.74.74,0,0,1,1,.27l2.18,3.78a.75.75,0,0,1-.28,1h0a.75.75,0,0,1-1-.27L9.76,3.6a.75.75,0,0,1,.28-1Z"/><path class="cls-6" d="M2.73,9.77a.75.75,0,0,1,1-.28l3.78,2.18a.75.75,0,0,1,.27,1h0a.75.75,0,0,1-1,.27L3,10.79a.75.75,0,0,1-.28-1Z"/><path class="cls-6" d="M0,19.65a.75.75,0,0,1,.75-.75H5.11a.75.75,0,0,1,.75.75h0a.75.75,0,0,1-.75.74H.75A.75.75,0,0,1,0,19.65Z"/><path class="cls-6" d="M2.58,29.57a.74.74,0,0,1,.27-1l3.78-2.19a.75.75,0,0,1,1,.28h0a.75.75,0,0,1-.27,1L3.6,29.84a.76.76,0,0,1-1-.27Z"/><path class="cls-6" d="M29.88,2.58a.74.74,0,0,0-1,.27L26.68,6.63a.74.74,0,0,0,.27,1h0a.76.76,0,0,0,1-.27L30.15,3.6a.74.74,0,0,0-.27-1Z"/><path class="cls-6" d="M37.18,9.77a.75.75,0,0,0-1-.28l-3.78,2.18a.76.76,0,0,0-.27,1h0a.76.76,0,0,0,1,.27l3.78-2.18a.74.74,0,0,0,.27-1Z"/><path class="cls-6" d="M39.91,19.65a.74.74,0,0,0-.75-.75H34.8a.74.74,0,0,0-.74.75h0a.74.74,0,0,0,.74.74h4.36a.74.74,0,0,0,.75-.74Z"/><path class="cls-6" d="M37.34,29.57a.75.75,0,0,0-.28-1l-3.77-2.19a.76.76,0,0,0-1,.28h0a.75.75,0,0,0,.28,1l3.78,2.18a.76.76,0,0,0,1-.27Z"/><path class="cls-5" d="M26.57,39.44A1.64,1.64,0,0,1,24.83,41H14.63a1.65,1.65,0,0,1-1.75-1.52h0a1.65,1.65,0,0,1,1.75-1.53h10.2a1.64,1.64,0,0,1,1.74,1.53Z"/><polygon class="cls-7" points="6.67 38.52 5 37.83 9.81 26.2 13.14 31.51 18.92 19.41 23.89 25.46 29.4 12.78 32.01 17.67 39.16 4.36 40.75 5.21 32.01 21.49 29.57 16.92 24.38 28.89 19.33 22.74 13.35 35.25 10.14 30.13 6.67 38.52"/><polygon class="cls-7" points="42.61 7.41 42.39 0.21 36.27 4 42.61 7.41"/><path class="cls-8" d="M34.76,48.14h-.29c.12-1,.25-2,.37-2.93a26.29,26.29,0,0,0-.13-9A36.63,36.63,0,0,1,20,39.05,36.68,36.68,0,0,1,5.2,36.21a26.29,26.29,0,0,0-.13,9c.12.94.25,1.93.37,2.93H5.15c-2.58-1.9-2.8,3.08-1.72,4.78A10.44,10.44,0,0,1,4.88,56c.4,1.14,1,1.29,1.6,1.17.07.68.13,1.27.17,1.74.24,2.62,6.53,7.86,8,9.5s3.57.94,4.28.91l1.07,0,1.06,0c.72,0,2.94.63,4.28-.91s7.72-6.88,8-9.5c0-.47.1-1.06.17-1.74.55.12,1.21,0,1.61-1.17a10.17,10.17,0,0,1,1.44-3.12C37.56,51.22,37.34,46.24,34.76,48.14Z"/></g></g></svg>