<svg xmlns="http://www.w3.org/2000/svg" width="85" height="34" viewBox="0 0 85 34" fill="none">
    <path d="M13.0898 26.4779V32.4956C13.0898 32.9469 12.9224 33.4985 12.4537 33.4985H9.23986C8.83813 33.4985 8.46987 33.1475 8.46987 32.4454V27.1799C8.46987 23.0678 7.59945 20.2094 4.55297 20.059V32.5457C4.55297 33.0973 4.38558 33.4484 4.01733 33.4484H0.602599C0.200866 33.4484 0 33.0973 0 32.5457V1.40412C0 0.852497 0.200866 0.501465 0.602599 0.501465H4.01733C4.41906 0.501465 4.58645 0.852497 4.58645 1.45427V14.0914C7.43206 13.7404 8.269 10.9823 8.269 6.97049V1.60471C8.269 0.902645 8.63726 0.501465 9.03899 0.501465H12.2194C12.6881 0.501465 12.8555 1.10323 12.8555 1.50441V7.62241C12.8555 11.6844 11.7842 14.7935 9.97637 16.8997C11.9516 19.0059 13.0898 22.2153 13.0898 26.4779Z" fill="#282829"/>
    <path d="M19.3173 20.41C19.3173 21.0619 18.9491 21.2625 18.7817 21.2625H15.6013C15.4339 21.2625 15.0991 21.1121 15.0991 20.41V16.5487C15.0991 15.9469 15.3669 15.646 15.6013 15.646H18.7817C19.2169 15.646 19.3173 16.1475 19.3173 16.5487V20.41Z" fill="#282829"/>
    <path d="M33.9133 10.6814C33.9133 11.4336 33.8128 11.7345 33.3776 11.7345H30.1637C29.762 11.7345 29.6281 11.4336 29.6281 10.7817V8.57522C29.6281 7.17109 28.992 5.71681 27.8538 5.71681C26.749 5.71681 25.979 7.02065 25.979 8.52507V25.3746C25.979 26.8791 26.6821 28.233 27.8538 28.233C29.1259 28.233 29.7285 26.8289 29.7285 25.3746V22.5162C29.7285 21.8142 29.8624 21.5634 30.2307 21.5634H33.4446C33.8463 21.5634 34.0137 21.7139 34.0137 22.4661V25.7257C34.0137 30.8909 31.2685 34 27.8203 34C24.3721 34 21.3926 30.8909 21.3926 25.7257V8.27434C21.3926 3.56047 24.0708 0 27.8203 0C32.005 0 33.9133 4.21239 33.9133 8.37463V10.6814Z" fill="#282829"/>
    <path d="M48.3086 0.501564C48.6099 0.501564 48.8778 0.702153 48.8778 1.40422V32.5458C48.8778 33.0974 48.7104 33.4485 48.2417 33.4485H44.8604C44.4922 33.4485 44.2913 33.0974 44.2913 32.5458V19.4573H40.5083V32.5458C40.5083 33.0974 40.3409 33.4485 39.9392 33.4485H36.491C36.0893 33.4485 35.9219 33.0974 35.9219 32.5458V1.40422C35.9219 0.852596 36.1227 0.451416 36.491 0.451416H39.9392C40.3409 0.451416 40.5083 0.802448 40.5083 1.40422V13.6904H44.2913V1.40422C44.2913 0.902743 44.4922 0.451416 44.8604 0.451416H48.3086V0.501564Z" fill="#282829"/>
    <path d="M55.9414 32.5458C55.9414 33.0974 55.774 33.4485 55.3723 33.4485H51.9241C51.5224 33.4485 51.355 33.0974 51.355 32.5458V1.40422C51.355 0.852596 51.5559 0.451416 51.9241 0.451416H55.3723C55.774 0.451416 55.9414 0.802448 55.9414 1.40422V32.5458Z" fill="#282829"/>
    <path d="M58.4517 1.40422C58.4517 0.852596 58.686 0.451416 59.0208 0.451416H65.1137C68.6624 0.451416 71.3406 4.21248 71.3406 8.97649V16.5989C71.3406 21.3629 68.6624 25.2243 65.1137 25.2243H63.0381V32.4957C63.0381 33.0473 62.8707 33.3983 62.469 33.3983H59.0543C58.6525 33.3983 58.4851 33.0473 58.4851 32.4957V1.40422H58.4517ZM66.7541 9.17708C66.7541 7.47206 65.9507 6.31867 64.779 6.31867H63.0716V19.5576H64.8124C66.0176 19.5576 66.7876 18.3541 66.7876 16.7493V9.17708H66.7541Z" fill="#282829"/>
    <path d="M80.4135 8.72566C80.4135 7.0708 79.7774 5.71681 78.5387 5.71681C77.6683 5.71681 76.664 6.56932 76.664 8.72566C76.664 10.9823 77.6683 12.0354 79.2083 13.6401C82.4221 17.1003 84.9999 19.708 84.9999 25.7257C84.9999 30.1888 82.4556 34 78.6392 34C74.4879 34 72.4123 29.9381 72.4123 25.4749V24.2212C72.4123 23.4189 72.5127 23.0678 72.9814 23.0678H76.1283C76.597 23.0678 76.7309 23.3186 76.7309 24.0206V25.0737C76.7309 27.4307 77.8022 28.233 78.7061 28.233C79.7774 28.233 80.6813 27.1298 80.6813 25.3746C80.6813 23.0678 79.7774 22.0147 77.6683 19.6077C74.0527 15.5457 72.4458 13.9911 72.4458 8.52507C72.4458 2.35693 76.1618 0 78.5722 0C82.1543 0 84.6986 3.41003 84.6986 8.67552V10.0295C84.6986 10.6814 84.5647 10.9322 84.0291 10.9322H80.9491C80.5139 10.9322 80.447 10.6814 80.447 10.0295V8.72566H80.4135Z" fill="#282829"/>
    </svg>