<svg xmlns="http://www.w3.org/2000/svg" viewBox="0 0 33.6 9.1"><defs><style>.cls-1{fill:#fff;}</style></defs><g id="레이어_2" data-name="레이어 2"><g id="Layer_1" data-name="Layer 1"><path class="cls-1" d="M5.1,7V8.6c0,.1-.1.3-.2.3H3.6a.27.27,0,0,1-.3-.3V7.2c0-1.1-.3-1.8-1.5-1.9V8.6c0,.2-.1.2-.2.2H.2C0,8.8,0,8.7,0,8.6V.4C0,.2.1.2.2.2H1.6c.2,0,.2.1.2.2V3.7c1.1-.1,1.5-.8,1.5-1.9V.4A.32.32,0,0,1,3.6.1H4.9c.2,0,.2.2.2.3V2A2.78,2.78,0,0,1,4,4.4,3.47,3.47,0,0,1,5.1,7Z"/><path class="cls-1" d="M7.6,5.1c0,.2-.1.2-.2.2H6.1c-.1,0-.2,0-.2-.2v-1c0-.2.1-.2.2-.2H7.4c.2,0,.2.1.2.2Z"/><path class="cls-1" d="M13.3,2.9c0,.2,0,.3-.2.3H11.8c-.2,0-.2-.1-.2-.3V2.3a.77.77,0,0,0-.7-.8.68.68,0,0,0-.7.7V6.6a.77.77,0,0,0,.7.8.71.71,0,0,0,.7-.8V5.9c0-.2,0-.2.2-.2h1.3c.2,0,.2,0,.2.2v.9A2.24,2.24,0,0,1,10.8,9,2.24,2.24,0,0,1,8.3,6.8V2.2A2.36,2.36,0,0,1,10.8,0a2.15,2.15,0,0,1,2.4,2.2v.7Z"/><path class="cls-1" d="M19,.2a.22.22,0,0,1,.2.2V8.6c0,.2-.1.2-.2.2H17.7c-.2,0-.2-.1-.2-.2V5.2H16V8.6c0,.2-.1.2-.2.2H14.3c-.2,0-.2-.1-.2-.2V.4c0-.2.1-.2.2-.2h1.4c.2,0,.2.1.2.2V3.6h1.5V.4a.22.22,0,0,1,.2-.2Z"/><path class="cls-1" d="M22,8.7c0,.2-.1.2-.2.2H20.4c-.2,0-.2-.1-.2-.2V.5c0-.2.1-.2.2-.2h1.4c.2,0,.2.1.2.2Z"/><path class="cls-1" d="M23,.5c0-.2.1-.2.2-.2h2.4a2.38,2.38,0,0,1,2.5,2.3v2a2.38,2.38,0,0,1-2.5,2.3h-.8V8.8c0,.2-.1.2-.2.2H23.2c-.2,0-.2-.1-.2-.2Zm3.3,2a.74.74,0,0,0-.8-.8h-.7V5.2h.7a.71.71,0,0,0,.8-.7Z"/><path class="cls-1" d="M31.7,2.4a.71.71,0,1,0-1.4,0c0,.6.4.9,1,1.3,1.3.9,2.3,1.6,2.3,3.2a2.3,2.3,0,0,1-2.5,2.2,2.32,2.32,0,0,1-2.5-2.3V6.5c0-.2,0-.3.2-.3H30c.2,0,.2.1.2.3v.3a.73.73,0,0,0,.8.8.77.77,0,0,0,.8-.7c0-.6-.4-.9-1.2-1.5-1.4-1.1-2.1-1.5-2.1-2.9A2.39,2.39,0,0,1,30.9.2a2.23,2.23,0,0,1,2.4,2.3v.4c0,.2,0,.2-.3.2H31.8c-.2,0-.2-.1-.2-.2V2.4Z"/></g></g></svg>