<svg width="16" height="13" viewBox="0 0 16 13" fill="none" xmlns="http://www.w3.org/2000/svg">
<g opacity="0.7">
<path opacity="0.5" fill-rule="evenodd" clip-rule="evenodd" d="M0 0.916L7.352 7.168C7.53285 7.32187 7.76255 7.40636 8 7.40636C8.23745 7.40636 8.46715 7.32187 8.648 7.168L16 0.916C16 0.673062 15.9035 0.440074 15.7317 0.26829C15.5599 0.096507 15.3269 0 15.084 0H0.916C0.673062 0 0.440073 0.096507 0.26829 0.26829C0.0965068 0.440074 0 0.673062 0 0.916ZM8.647 8.481C8.46638 8.63453 8.23705 8.71882 8 8.71882C7.76295 8.71882 7.53362 8.63453 7.353 8.481L0 2.229V12C0 12.2652 0.105357 12.5196 0.292893 12.7071C0.48043 12.8946 0.734784 13 1 13H15C15.2652 13 15.5196 12.8946 15.7071 12.7071C15.8946 12.5196 16 12.2652 16 12V2.229L8.647 8.481Z" fill="#0073E6"/>
</g>
</svg>
