<svg width="16" height="16" viewBox="0 0 16 16" fill="none" xmlns="http://www.w3.org/2000/svg">
<path opacity="0.45" fill-rule="evenodd" clip-rule="evenodd" d="M7.47501 0.148898L0.0440114 4.7359C0.0381481 4.7359 0.0323436 4.73707 0.0269391 4.73934C0.0215345 4.74161 0.0166388 4.74494 0.0125397 4.74914C0.00844054 4.75333 0.00522067 4.7583 0.0030692 4.76375C0.000917736 4.76921 -0.00012189 4.77504 1.13661e-05 4.7809V13.8239C1.13661e-05 14.3543 0.210725 14.863 0.585798 15.2381C0.960871 15.6132 1.46958 15.8239 2.00001 15.8239H14C14.5304 15.8239 15.0392 15.6132 15.4142 15.2381C15.7893 14.863 16 14.3543 16 13.8239V4.7369C15.9717 4.73672 15.9441 4.72876 15.92 4.7139L8.52401 0.148898C8.3662 0.0515523 8.18443 0 7.99901 0C7.81359 0 7.63182 0.0515523 7.47401 0.148898H7.47501ZM1.08701 5.2399L8.00001 1.0559L14.913 5.2409L8.52701 9.1989C8.36875 9.29704 8.18623 9.34903 8.00001 9.34903C7.81379 9.34903 7.63127 9.29704 7.47301 9.1989L1.08701 5.2399ZM14.984 6.4219V13.8149C14.984 14.0801 14.8787 14.3345 14.6911 14.522C14.5036 14.7095 14.2492 14.8149 13.984 14.8149H2.01601C1.75079 14.8149 1.49644 14.7095 1.3089 14.522C1.12137 14.3345 1.01601 14.0801 1.01601 13.8149V6.4229L7.36701 10.3639C7.55706 10.4819 7.77631 10.5444 8.00001 10.5444C8.22371 10.5444 8.44296 10.4819 8.63301 10.3639L14.984 6.4239V6.4219Z" fill="#6B77AC"/>
</svg>
