<svg xmlns="http://www.w3.org/2000/svg" viewBox="0 0 62.72 71.04"><defs><style>.cls-1{fill:#aebfce;}.cls-2{fill:#768296;}.cls-3{fill:#1c4670;}.cls-4{fill:#fcd751;}.cls-5{fill:#ffa229;}.cls-6{fill:#fff;}</style></defs><g id="레이어_2" data-name="레이어 2"><g id="Layer_1" data-name="Layer 1"><path class="cls-1" d="M12.08,39.45c0,.29-.2.51-.41.5l-2.05-.1a.47.47,0,0,1-.36-.55l.08-1.65c0-.29.2-.51.42-.5l2,.1c.22,0,.38.25.36.55Z"/><path class="cls-1" d="M11.26,55.51A.47.47,0,0,0,10.9,55l-2.05-.1c-.21,0-.4.21-.41.5L8.36,57c0,.29.14.53.36.54l2,.1c.21,0,.39-.21.41-.5Z"/><path class="cls-1" d="M7.85,39.6a.47.47,0,0,1-.1.65l-1.83.93a.46.46,0,0,1-.58-.29l-.75-1.47a.46.46,0,0,1,.1-.64l1.83-.94c.19-.1.45,0,.58.29Z"/><path class="cls-1" d="M15.18,53.93a.47.47,0,0,0-.58-.3l-1.83.94a.47.47,0,0,0-.11.64l.76,1.47A.46.46,0,0,0,14,57L15.83,56a.47.47,0,0,0,.1-.65Z"/><path class="cls-1" d="M4.27,41.85a.48.48,0,0,1,.24.61L3.39,44.18a.47.47,0,0,1-.65,0l-1.39-.89a.49.49,0,0,1-.23-.62L2.24,41c.11-.18.4-.19.65,0Z"/><path class="cls-1" d="M17.78,50.59a.47.47,0,0,0-.65,0L16,52.35a.46.46,0,0,0,.23.61l1.38.9a.48.48,0,0,0,.66,0L19.4,52.1a.48.48,0,0,0-.23-.61Z"/><path class="cls-1" d="M2.3,45.59c.29,0,.52.2.5.41l-.1,2c0,.21-.26.37-.54.36L.5,48.33c-.29,0-.51-.21-.5-.42l.1-2c0-.22.26-.38.55-.37Z"/><path class="cls-1" d="M18.37,46.41c-.29,0-.54.14-.55.35l-.1,2.05c0,.22.21.4.5.42l1.65.08c.29,0,.54-.15.55-.36l.1-2.05c0-.21-.22-.4-.5-.41Z"/><path class="cls-1" d="M2.46,49.81a.47.47,0,0,1,.64.11L4,51.74a.47.47,0,0,1-.29.59l-1.47.75a.47.47,0,0,1-.64-.1L.69,51.15A.48.48,0,0,1,1,50.57Z"/><path class="cls-1" d="M16.78,42.49a.46.46,0,0,0-.29.58l.93,1.82a.46.46,0,0,0,.64.11l1.48-.75a.49.49,0,0,0,.29-.59l-.94-1.82a.47.47,0,0,0-.64-.11Z"/><path class="cls-1" d="M4.7,53.39a.48.48,0,0,1,.61-.23L7,54.27a.48.48,0,0,1,0,.66l-.9,1.39a.47.47,0,0,1-.61.22L3.85,55.43a.47.47,0,0,1,0-.65Z"/><path class="cls-1" d="M13.44,39.89a.48.48,0,0,0,0,.65l1.73,1.11c.17.12.45,0,.61-.23L16.71,40a.47.47,0,0,0,0-.65L15,38.27c-.18-.12-.45,0-.61.23Z"/><path class="cls-2" d="M10.7,38.78a8.64,8.64,0,1,0,8.19,9.07A8.64,8.64,0,0,0,10.7,38.78ZM10,53.09a5.69,5.69,0,1,1,6-5.39A5.68,5.68,0,0,1,10,53.09Z"/><path class="cls-3" d="M16.78,36.37c0,.21-.14.38-.3.37L15,36.66c-.16,0-.27-.19-.26-.4l.06-1.21a.36.36,0,0,1,.3-.38l1.51.08c.16,0,.27.19.26.4Z"/><path class="cls-3" d="M16.18,48.19c0-.22-.11-.4-.26-.4l-1.51-.08c-.16,0-.29.16-.31.37L14,49.29c0,.22.11.4.27.41l1.51.07c.15,0,.29-.16.3-.37Z"/><path class="cls-3" d="M13.67,36.48a.35.35,0,0,1-.07.48l-1.35.68a.35.35,0,0,1-.43-.21l-.55-1.08a.35.35,0,0,1,.08-.48l1.34-.68c.14-.08.33,0,.43.21Z"/><path class="cls-3" d="M19.06,47a.35.35,0,0,0-.43-.22l-1.34.69a.35.35,0,0,0-.08.47l.56,1.09a.34.34,0,0,0,.43.21l1.34-.69a.34.34,0,0,0,.08-.47Z"/><path class="cls-3" d="M11,38.14a.34.34,0,0,1,.17.44l-.82,1.27a.34.34,0,0,1-.48,0l-1-.66a.36.36,0,0,1-.17-.45l.82-1.27a.35.35,0,0,1,.48,0Z"/><path class="cls-3" d="M21,44.57a.35.35,0,0,0-.48,0l-.82,1.27c-.09.13,0,.33.17.45l1,.66a.34.34,0,0,0,.48,0l.82-1.26a.35.35,0,0,0-.17-.45Z"/><path class="cls-3" d="M9.59,40.88c.21,0,.38.15.37.31l-.08,1.5a.35.35,0,0,1-.4.27L8.27,42.9c-.22,0-.38-.15-.37-.31L8,41.09a.35.35,0,0,1,.4-.27Z"/><path class="cls-3" d="M21.41,41.49c-.22,0-.4.1-.4.26l-.08,1.51c0,.15.16.29.37.3l1.22.06c.21,0,.39-.1.4-.26L23,41.85c0-.16-.16-.29-.37-.3Z"/><path class="cls-3" d="M9.7,44a.37.37,0,0,1,.48.08l.68,1.34c.08.14,0,.34-.21.43l-1.08.56a.35.35,0,0,1-.48-.08L8.41,45c-.08-.14,0-.34.21-.44Z"/><path class="cls-3" d="M20.24,38.6c-.19.1-.29.29-.21.43l.68,1.35a.35.35,0,0,0,.48.07l1.08-.55a.35.35,0,0,0,.21-.43l-.69-1.34a.34.34,0,0,0-.47-.08Z"/><path class="cls-3" d="M11.36,46.63a.34.34,0,0,1,.45-.17l1.26.82a.35.35,0,0,1,0,.48l-.66,1a.34.34,0,0,1-.45.16l-1.26-.81a.34.34,0,0,1,0-.48Z"/><path class="cls-3" d="M17.79,36.69a.34.34,0,0,0,0,.48l1.26.82a.35.35,0,0,0,.45-.17l.66-1a.34.34,0,0,0,0-.48L18.9,35.5a.35.35,0,0,0-.45.17Z"/><path class="cls-3" d="M15.77,35.87a6.36,6.36,0,1,0,6,6.67A6.35,6.35,0,0,0,15.77,35.87ZM15.23,46.4a4.19,4.19,0,1,1,4.39-4A4.18,4.18,0,0,1,15.23,46.4Z"/><path class="cls-3" d="M31.45,53.74c-.24-.74.28-.53.62-.07s2.81,3.39,4.19-.39-2.35-3.17-2.91-3-1.09-.05-.42-.46a4.87,4.87,0,0,1,4.81-.46c2.34,1.07,1.79,3.82,1.35,5S37.25,58,34.78,57.25A4.87,4.87,0,0,1,31.45,53.74Z"/><path class="cls-3" d="M59.43,64.21c.68-.41.14-.59-.41-.46s-4.35.71-2.91-3,3.85-.85,4.19-.39.86.68.62-.07a4.9,4.9,0,0,0-3.33-3.5c-2.47-.72-3.86,1.71-4.31,2.91s-1,3.94,1.35,5A4.88,4.88,0,0,0,59.43,64.21Z"/><rect class="cls-3" x="45.65" y="48.2" width="1.66" height="16.04" transform="translate(-22.44 80.12) rotate(-69.55)"/><rect class="cls-3" x="45.07" y="49.75" width="1.66" height="16.04" transform="translate(-24.28 80.57) rotate(-69.53)"/><path class="cls-3" d="M59,63.75c.55-.13,1.09,0,.41.46a4.88,4.88,0,0,1-4.8.46c-2.34-1.08-1.8-3.82-1.35-5l2.83,1.05C54.67,64.46,58.46,63.88,59,63.75Z"/><path class="cls-3" d="M34.78,57.25a4.87,4.87,0,0,1-3.33-3.51c-.24-.74.28-.53.62-.07s2.81,3.39,4.19-.39l2.83,1.06C38.63,55.54,37.25,58,34.78,57.25Z"/><rect class="cls-4" x="40.44" y="50.17" width="14.74" height="1.28" transform="translate(-16.5 77.86) rotate(-69.56)"/><rect class="cls-5" x="41.64" y="50.62" width="14.74" height="1.28" transform="translate(-16.17 79.21) rotate(-69.49)"/><path class="cls-4" d="M50.41,45.68s-2.13-1.17-1.79-2.15,2.7-3.77,3.84-3.34Z"/><path class="cls-5" d="M50.41,45.68s2.38.51,2.76-.45.44-4.61-.71-5Z"/><path class="cls-1" d="M44,69.5a2.37,2.37,0,0,1-3,1.39h0a2.36,2.36,0,0,1-1.39-3l4.11-11a2.36,2.36,0,0,1,3-1.39h0a2.36,2.36,0,0,1,1.39,3Z"/><path class="cls-2" d="M41.77,70.07a.48.48,0,0,1-.6.33h0a.48.48,0,0,1-.24-.64l4.58-12.23a.5.5,0,0,1,.6-.34h0a.5.5,0,0,1,.24.64Z"/><path class="cls-2" d="M43.3,69.93a.48.48,0,0,1-.6.33h0a.48.48,0,0,1-.23-.64L47,57.38a.48.48,0,0,1,.6-.33h0a.49.49,0,0,1,.24.64Z"/><path class="cls-2" d="M39.87,68.64a.49.49,0,0,0,.24.65h0A.47.47,0,0,0,40.7,69l4.58-12.24a.48.48,0,0,0-.24-.64h0a.48.48,0,0,0-.6.33Z"/><path class="cls-2" d="M49.3,57.65a1.17,1.17,0,0,1-1.51.69L44.09,57a1.18,1.18,0,0,1-.69-1.52h0a1.19,1.19,0,0,1,1.51-.69l3.7,1.39a1.17,1.17,0,0,1,.69,1.51Z"/><path class="cls-2" d="M49,57.23a1,1,0,0,1-1.26.5l-3.16-1.18a1,1,0,0,1-.63-1.2h0a1,1,0,0,1,1.26-.49L48.34,56A1,1,0,0,1,49,57.23Z"/><path class="cls-3" d="M38.23,30.13,33.52,22a.83.83,0,0,0-.92-.39.83.83,0,0,0-.92.39L27,30.13A.83.83,0,0,0,28.4,31l4.2-7.27L36.8,31a.83.83,0,0,0,1.43-.83Z"/><path class="cls-3" d="M33.6,31.05a1,1,0,0,1-1,1h0a1,1,0,0,1-1-1V19.69a1,1,0,0,1,1-1h0a1,1,0,0,1,1,1Z"/><path class="cls-1" d="M20.55,1.21H44.64a1.41,1.41,0,0,1,1.41,1.41v16a1.41,1.41,0,0,1-1.41,1.41H20.56a1.42,1.42,0,0,1-1.42-1.42v-16a1.41,1.41,0,0,1,1.41-1.41Z"/><rect class="cls-4" x="27.4" y="10.53" width="1.8" height="6.38"/><rect class="cls-4" x="30.51" y="7.62" width="1.8" height="9.29"/><rect class="cls-4" x="34.43" y="12.37" width="1.8" height="4.54"/><rect class="cls-4" x="37.95" y="10.53" width="1.8" height="6.38"/><polygon class="cls-6" points="38.85 6.66 37.32 7.56 37.9 7.88 35.28 11.1 31.53 4.62 27.57 9.85 27.96 10.05 31.48 5.42 35.21 11.87 38.29 8.1 38.86 8.41 38.85 6.66"/><rect class="cls-6" x="25.17" y="4.62" width="0.54" height="13.76"/><rect class="cls-6" x="23.83" y="16.91" width="17.53" height="0.49"/><path class="cls-3" d="M47,1.41a1.41,1.41,0,0,1-1.42,1.42H19.64a1.42,1.42,0,0,1-1.42-1.42h0A1.42,1.42,0,0,1,19.64,0H45.56A1.41,1.41,0,0,1,47,1.41Z"/><path class="cls-2" d="M52.69,53.69l-.59-.55a26.76,26.76,0,0,0,.8-35.56l.61-.52a27.61,27.61,0,0,1-.82,36.63Z"/><path class="cls-2" d="M5.71,34.91H4.92a27.64,27.64,0,0,1,11.6-22.48l.46.65A26.86,26.86,0,0,0,5.71,34.91Z"/><path class="cls-2" d="M32.49,62.49A27.58,27.58,0,0,1,18,58.4l.42-.68A26.83,26.83,0,0,0,38.67,61l.19.78A27.8,27.8,0,0,1,32.49,62.49Z"/><path class="cls-3" d="M43,24.86a8.16,8.16,0,1,1,5.76-2.39A8.11,8.11,0,0,1,43,24.86Zm0-13.92a5.77,5.77,0,1,0,4.08,1.69A5.73,5.73,0,0,0,43,10.94Z"/><rect class="cls-3" x="48.52" y="20.76" width="2.39" height="5.3" transform="translate(-2 42) rotate(-44.99)"/><path class="cls-5" d="M62.4,33.52a1.09,1.09,0,0,1,0,1.53l-1,1.05a1.09,1.09,0,0,1-1.53,0l-9.94-9.94a1.07,1.07,0,0,1,0-1.53l1-1.05a1.09,1.09,0,0,1,1.53,0Z"/><rect class="cls-3" x="50.33" y="25.46" width="3.65" height="0.8" transform="translate(-3.05 44.33) rotate(-44.88)"/><rect class="cls-3" x="51.22" y="26.35" width="3.65" height="0.8" transform="translate(-3.37 45.37) rotate(-45.03)"/><rect class="cls-3" x="58.3" y="33.42" width="3.65" height="0.8" transform="translate(-6.32 52.36) rotate(-44.95)"/><rect class="cls-3" x="57.4" y="32.53" width="3.65" height="0.8" transform="translate(-5.92 51.58) rotate(-45.05)"/></g></g></svg>