<svg width="100" height="100" viewBox="0 0 100 100" fill="none" xmlns="http://www.w3.org/2000/svg">
<g id="Frame">
<path id="XMLID_8_" d="M42 18H25.9C23.2 18 21 20.3495 21 23.233V40H30.3" stroke="#4D525A" stroke-width="2.5" stroke-miterlimit="10" stroke-linecap="round" stroke-linejoin="round"/>
<path id="XMLID_7_" d="M62.3077 82H77.8974C77.8974 82 78 82 78 81.8956V18.4176C78 18.2088 77.7949 18 77.5897 18H26C29.1795 18 31.0256 20.6101 31.0256 23.1158V81.6868C31.0256 81.8956 31.2308 82 31.3333 82H46.1026" stroke="#4D525A" stroke-width="2.5" stroke-miterlimit="10" stroke-linecap="round" stroke-linejoin="round"/>
<path id="XMLID_6_" d="M38 26H50" stroke="#4D525A" stroke-width="2.5" stroke-miterlimit="10" stroke-linecap="round" stroke-linejoin="round"/>
<path id="XMLID_5_" d="M38 36H70" stroke="#4D525A" stroke-width="2.5" stroke-miterlimit="10" stroke-linecap="round" stroke-linejoin="round"/>
<path id="XMLID_4_" d="M38 43H70" stroke="#4D525A" stroke-width="2.5" stroke-miterlimit="10" stroke-linecap="round" stroke-linejoin="round"/>
<path id="XMLID_3_" d="M38 50H70" stroke="#4D525A" stroke-width="2.5" stroke-miterlimit="10" stroke-linecap="round" stroke-linejoin="round"/>
<path id="XMLID_2_" d="M50 75V82.6434C50 82.8618 50.2162 83.0801 50.4324 82.971L54 81.5515L57.5676 82.971C57.7838 83.0801 58 82.8618 58 82.6434V75" stroke="#3090CF" stroke-width="2.5" stroke-miterlimit="10" stroke-linecap="round" stroke-linejoin="round"/>
<path id="XMLID_1_" d="M64 65.5C64 66.7258 62.8763 67.7473 62.4677 68.7688C61.957 69.8925 62.0591 71.4247 61.2419 72.2419C60.4247 73.0591 58.8925 72.957 57.7688 73.4677C56.7473 73.8763 55.7258 75 54.5 75C53.2742 75 52.2527 73.8763 51.2312 73.4677C50.1075 72.957 48.5753 73.0591 47.7581 72.2419C46.9409 71.4247 47.043 69.8925 46.5323 68.7688C46.1237 67.7473 45 66.7258 45 65.5C45 64.2742 46.1237 63.2527 46.5323 62.2312C47.043 61.1075 46.9409 59.5753 47.7581 58.7581C48.5753 57.9409 50.1075 58.043 51.2312 57.5323C52.2527 57.1237 53.2742 56 54.5 56C55.7258 56 56.7473 57.1237 57.7688 57.5323C58.8925 58.043 60.4247 57.9409 61.2419 58.7581C62.0591 59.5753 61.957 61.1075 62.4677 62.2312C62.8763 63.2527 64 64.2742 64 65.5Z" stroke="#3090CF" stroke-width="2.5" stroke-miterlimit="10" stroke-linecap="round" stroke-linejoin="round"/>
</g>
</svg>
