<svg width="100" height="100" viewBox="0 0 100 100" fill="none" xmlns="http://www.w3.org/2000/svg">
<g id="Frame">
<path id="Vector" d="M28.5584 76V41.6913H18L38.7107 14L58 40.9787H47.1371V58.7947" stroke="#565555" stroke-width="2.5" stroke-miterlimit="10" stroke-linecap="round" stroke-linejoin="round"/>
<path id="Vector_2" d="M57 68C63.6274 68 69 65.7614 69 63C69 60.2386 63.6274 58 57 58C50.3726 58 45 60.2386 45 63C45 65.7614 50.3726 68 57 68Z" stroke="#3090CF" stroke-width="2.5" stroke-miterlimit="10" stroke-linecap="round" stroke-linejoin="round"/>
<path id="Vector_3" d="M69 72C69 74.7778 63.5916 77 57.0563 77C50.5211 77 45 74.7778 45 72" stroke="#3090CF" stroke-width="2.5" stroke-miterlimit="10" stroke-linecap="round" stroke-linejoin="round"/>
<path id="Vector_4" d="M45 63V80.825C45 83.7 50.3832 86 57 86C63.6168 86 69 83.7 69 80.825V63" stroke="#3090CF" stroke-width="2.5" stroke-miterlimit="10" stroke-linecap="round" stroke-linejoin="round"/>
<path id="Vector_5" d="M69 54C75.6274 54 81 51.7614 81 49C81 46.2386 75.6274 44 69 44C62.3726 44 57 46.2386 57 49C57 51.7614 62.3726 54 69 54Z" stroke="#3090CF" stroke-width="2.5" stroke-miterlimit="10" stroke-linecap="round" stroke-linejoin="round"/>
<path id="Vector_6" d="M81 58C81 60.3256 77.2597 62.4186 72 63" stroke="#3090CF" stroke-width="2.5" stroke-miterlimit="10" stroke-linecap="round" stroke-linejoin="round"/>
<path id="Vector_7" d="M72 71C77.175 70.4472 81 68.4573 81 66.1357V49" stroke="#3090CF" stroke-width="2.5" stroke-miterlimit="10" stroke-linecap="round" stroke-linejoin="round"/>
<path id="Vector_8" d="M72 78C77.1585 77.4472 81 75.4573 81 73.1357V56" stroke="#3090CF" stroke-width="2.5" stroke-miterlimit="10" stroke-linecap="round" stroke-linejoin="round"/>
<path id="Vector_9" d="M57 48V56" stroke="#3090CF" stroke-width="2.5" stroke-miterlimit="10" stroke-linecap="round" stroke-linejoin="round"/>
</g>
</svg>
