<svg width="100" height="100" viewBox="0 0 100 100" fill="none" xmlns="http://www.w3.org/2000/svg">
<g id="Frame">
<path id="XMLID_3_" d="M83.403 42V69.7249C81.8358 72.1587 81 75.1217 81 77.9788V82H88V71.9471" stroke="#3090CF" stroke-width="2.5" stroke-miterlimit="10" stroke-linecap="round" stroke-linejoin="round"/>
<path id="XMLID_2_" d="M50.7181 56L89.7547 37.4093C90.0818 37.3037 90.0818 36.8812 89.7547 36.6699L50.7181 18.0792C50.609 17.9736 50.5 17.9736 50.391 18.0792L11.2453 36.6699C10.9182 36.7755 10.9182 37.1981 11.2453 37.4093L50.2819 56C50.391 56 50.609 56 50.7181 56Z" stroke="#565555" stroke-width="2.5" stroke-miterlimit="10" stroke-linecap="round" stroke-linejoin="round"/>
<path id="XMLID_1_" d="M27 46V67.0638H39.7694C43.6324 67.0638 47.2808 68.4468 50.1781 71H50.5C53.3973 68.4468 57.0457 67.0638 60.9087 67.0638H74V46" stroke="#565555" stroke-width="2.5" stroke-miterlimit="10" stroke-linecap="round" stroke-linejoin="round"/>
</g>
</svg>
