<svg width="100" height="100" viewBox="0 0 100 100" fill="none" xmlns="http://www.w3.org/2000/svg">
<path d="M55.2543 32.1H70.3233C71.8103 32.1 73 33.2919 73 34.7818V88.4182C73 89.9081 71.8103 91.1 70.3233 91.1H29.6767C28.1897 91.1 27 89.9081 27 88.4182V34.7818C27 33.2919 28.1897 32.1 29.6767 32.1H44.7457" stroke="#565555" stroke-width="2.5" stroke-miterlimit="10" stroke-linecap="round" stroke-linejoin="round"/>
<path d="M55.4027 36C56.2483 36 57 36.7059 57 37.5C57 38.2941 56.2483 39 55.4027 39H44.5973C43.7517 39 43 38.2941 43 37.5C43 36.7059 43.7517 36 44.5973 36" stroke="#565555" stroke-width="2.5" stroke-miterlimit="10"/>
<path d="M39 10.5L46.4 26.8" stroke="#565555" stroke-width="2.5" stroke-miterlimit="10" stroke-linecap="round" stroke-linejoin="round"/>
<path d="M48.2002 10.5L55.2002 26.8L63.2002 10.5" stroke="#565555" stroke-width="2.5" stroke-miterlimit="10" stroke-linecap="round" stroke-linejoin="round"/>
<path d="M54 10.5L51.5 15.4" stroke="#565555" stroke-width="2.5" stroke-miterlimit="10" stroke-linecap="round" stroke-linejoin="round"/>
<path d="M54.3 38.2001H46C45.4 38.2001 45 37.7001 45 37.2001V27.8C45 27.2 45.5 26.8 46 26.8H54.3C54.9 26.8 55.3 27.3 55.3 27.8V37.2001C55.4 37.8001 54.9 38.2001 54.3 38.2001Z" stroke="#565555" stroke-width="2.5" stroke-miterlimit="10" stroke-linecap="round" stroke-linejoin="round"/>
<path d="M37.8999 75.1H63.6999" stroke="#3090CF" stroke-width="2.5" stroke-miterlimit="10" stroke-linecap="round" stroke-linejoin="round"/>
<path d="M37.8999 81H55.1999" stroke="#3090CF" stroke-width="2.5" stroke-miterlimit="10" stroke-linecap="round" stroke-linejoin="round"/>
<path d="M49.7 57.3C52.848 57.3 55.4 54.748 55.4 51.6C55.4 48.452 52.848 45.9 49.7 45.9C46.552 45.9 44 48.452 44 51.6C44 54.748 46.552 57.3 49.7 57.3Z" stroke="#3090CF" stroke-width="2.5" stroke-miterlimit="10" stroke-linecap="round" stroke-linejoin="round"/>
<path d="M40 68.3C40 64 43.3 61.1 47.3 61.1H52.7C56.7 61.1 59.8 64 59.8 68.3" stroke="#3090CF" stroke-width="2.5" stroke-miterlimit="10" stroke-linecap="round" stroke-linejoin="round"/>
</svg>
