<svg width="100" height="100" viewBox="0 0 100 100" fill="none" xmlns="http://www.w3.org/2000/svg">
<g id="Frame">
<path id="Vector" d="M50.7123 71.8933C52.5156 72.364 54.3188 71.2344 54.8598 69.3519C55.4007 67.4693 54.3188 65.775 52.6057 64.9278L51.3435 64.2689L42.6879 58.9036C41.5158 58.1506 40.0732 57.8682 38.7208 58.0565L16 60.9745" stroke="#565555" stroke-width="2.5" stroke-miterlimit="10" stroke-linecap="round" stroke-linejoin="round"/>
<path id="Vector_2" d="M52 72L36 69" stroke="#565555" stroke-width="2.5" stroke-miterlimit="10" stroke-linecap="round" stroke-linejoin="round"/>
<path id="Vector_3" d="M16 77.742L48.0428 83.8101C50.2463 84.2563 52.6334 83.8993 54.6533 82.9177L82.2891 69.443C82.2891 69.443 84.768 67.5691 83.7581 64.5351C82.7481 61.501 78.3411 62.0364 78.3411 62.0364L55.1124 67.2121" stroke="#565555" stroke-width="2.5" stroke-miterlimit="10" stroke-linecap="round" stroke-linejoin="round"/>
<path id="Vector_4" d="M51 52C60.9411 52 69 43.9411 69 34C69 24.0589 60.9411 16 51 16C41.0589 16 33 24.0589 33 34C33 43.9411 41.0589 52 51 52Z" stroke="#565555" stroke-width="2.5" stroke-miterlimit="10" stroke-linecap="round" stroke-linejoin="round"/>
<g id="Group">
<path id="Vector_5" d="M42.708 27.0526L47.0184 41.5603L51.3288 26.8701L55.7309 41.5603L60.0413 26.8701" stroke="#3090CF" stroke-width="2.5" stroke-miterlimit="10" stroke-linecap="round" stroke-linejoin="round"/>
<path id="Vector_6" d="M42.3413 34.3521H60.1331" stroke="#3090CF" stroke-width="2.5" stroke-miterlimit="10" stroke-linecap="round" stroke-linejoin="round"/>
</g>
</g>
</svg>
