<svg width="100" height="100" viewBox="0 0 100 100" fill="none" xmlns="http://www.w3.org/2000/svg">
<g id="Frame">
<path id="XMLID_6_" d="M26.9077 55.8C27.5128 58.6 28.6222 61.2 30.135 63.5L26 69.8L31.8496 75.6L38.7077 71.9C41.1282 73.4 43.6496 74.5 46.4735 75.1L48.3897 83H56.6598L58.5761 75.1C61.4 74.5 64.0222 73.4 66.3419 71.9L73.2 75.9L79.0496 70.1L74.8137 63.6C76.3265 61.2 77.4359 58.7 78.041 55.9L85 54V45.8L78.041 43.9C77.335 41.1 76.3265 38.5 74.8137 36.2L78.9487 29.5L73.0991 23.7L66.241 27.7C63.8205 26.2 61.1983 25.1 58.4752 24.5L56.559 17H48.3897L46.4735 24.6C43.6496 25.2 41.1282 26.3 38.7077 27.8L32.1521 23.9L26.3026 29.6L30.135 36.1C28.6222 38.5 27.5128 41 26.9077 43.8" stroke="#4D525A" stroke-width="2.5" stroke-miterlimit="10" stroke-linecap="round" stroke-linejoin="round"/>
<path id="XMLID_5_" d="M36 42.7386C36.9053 40.6506 38.213 38.7614 39.8225 37.1705C41.432 35.5795 43.3432 34.2869 45.4556 33.392C47.568 32.4972 49.8817 32 52.2959 32C54.7101 32 57.0237 32.4972 59.1361 33.392C61.2485 34.2869 63.1598 35.5795 64.7692 37.1705C66.3787 38.7614 67.6864 40.6506 68.5917 42.7386C69.497 44.8267 70 47.1136 70 49.5C70 51.8864 69.497 54.1733 68.5917 56.2614C67.6864 58.3494 66.3787 60.2386 64.7692 61.8295C63.1598 63.4205 61.2485 64.7131 59.1361 65.608C57.0237 66.5028 54.7101 67 52.2959 67C49.8817 67 47.568 66.5028 45.4556 65.608C43.3432 64.7131 41.432 63.4205 39.8225 61.8295C38.213 60.2386 36.9053 58.3494 36 56.2614" stroke="#4D525A" stroke-width="2.5" stroke-miterlimit="10" stroke-linecap="round" stroke-linejoin="round"/>
<path id="XMLID_4_" d="M43 45.4085C43.4902 44.1268 44.2745 43.0423 45.2549 42.0563C46.2353 41.0704 47.3137 40.3803 48.5882 39.7887C49.8627 39.2958 51.2353 39 52.6078 39C54.0784 39 55.451 39.2958 56.6275 39.7887C57.902 40.2817 58.9804 41.0704 59.9608 42.0563C60.9412 43.0423 61.6275 44.1268 62.2157 45.4085C62.7059 46.6901 63 48.0704 63 49.4507C63 50.831 62.7059 52.3099 62.2157 53.493C61.7255 54.7746 60.9412 55.8592 59.9608 56.8451C58.9804 57.831 57.902 58.5211 56.6275 59.1127C55.451 59.7042 54.0784 60 52.6078 60C51.1373 60 49.7647 59.7042 48.5882 59.2113C47.3137 58.7183 46.2353 57.9296 45.2549 56.9437C44.2745 55.9577 43.5882 54.8732 43 53.5915" stroke="#3090CF" stroke-width="2.5" stroke-miterlimit="10" stroke-linecap="round" stroke-linejoin="round" stroke-dasharray="1 20"/>
<path id="XMLID_3_" d="M53 50H25" stroke="#3090CF" stroke-width="2.5" stroke-miterlimit="10" stroke-linecap="round" stroke-linejoin="round"/>
<path id="XMLID_2_" d="M21 45L26 50L21 55" stroke="#3090CF" stroke-width="2.5" stroke-miterlimit="10" stroke-linecap="round" stroke-linejoin="round"/>
<path id="XMLID_1_" d="M14 45L19 50L14 55" stroke="#3090CF" stroke-width="2.5" stroke-miterlimit="10" stroke-linecap="round" stroke-linejoin="round"/>
</g>
</svg>
