<svg width="100" height="100" viewBox="0 0 100 100" fill="none" xmlns="http://www.w3.org/2000/svg">
<g id="Frame">
<path id="Vector" d="M54.5798 60.7861C54.9979 58.3265 58.1331 55.9738 59.5963 53.942C61.0594 51.9102 62 49.4505 62 46.7771C62 40.0399 56.461 34.6929 49.8769 35.0137C43.9198 35.3345 39.2169 40.3607 39.0079 46.4562C38.9034 49.3436 39.844 51.9101 41.4116 54.0489C42.9793 56.0808 45.9055 58.4335 46.2191 61" stroke="#3090CF" stroke-width="2.5" stroke-miterlimit="10" stroke-linecap="round" stroke-linejoin="round"/>
<path id="Vector_2" d="M54.8148 66H46.1735C45.5334 66 45 64.875 45 63.5C45 62.125 45.5334 61 46.1735 61H54.8148C55.4549 61 55.9883 62.125 55.9883 63.5C56.095 64.875 55.4549 66 54.8148 66Z" stroke="#3090CF" stroke-width="2.5" stroke-miterlimit="10" stroke-linecap="round" stroke-linejoin="round"/>
<path id="Vector_3" d="M54.8148 70H46.1735C45.5334 70 45 69.1 45 68C45 66.9 45.5334 66 46.1735 66H54.8148C55.4549 66 55.9883 66.9 55.9883 68C56.095 69.1 55.4549 70 54.8148 70Z" stroke="#3090CF" stroke-width="2.5" stroke-miterlimit="10" stroke-linecap="round" stroke-linejoin="round"/>
<path id="Vector_4" d="M50 31V28" stroke="#3090CF" stroke-width="2.5" stroke-miterlimit="10" stroke-linecap="round" stroke-linejoin="round"/>
<path id="Vector_5" d="M40 36L37 33" stroke="#3090CF" stroke-width="2.5" stroke-miterlimit="10" stroke-linecap="round" stroke-linejoin="round"/>
<path id="Vector_6" d="M35 47H32" stroke="#3090CF" stroke-width="2.5" stroke-miterlimit="10" stroke-linecap="round" stroke-linejoin="round"/>
<path id="Vector_7" d="M40 57L37 60" stroke="#3090CF" stroke-width="2.5" stroke-miterlimit="10" stroke-linecap="round" stroke-linejoin="round"/>
<path id="Vector_8" d="M61 57L64 60" stroke="#3090CF" stroke-width="2.5" stroke-miterlimit="10" stroke-linecap="round" stroke-linejoin="round"/>
<path id="Vector_9" d="M61 36L64 33" stroke="#3090CF" stroke-width="2.5" stroke-miterlimit="10" stroke-linecap="round" stroke-linejoin="round"/>
<g id="Group">
<path id="Vector_10" d="M31 19.1882C36.5239 15.9059 42.9144 14 49.8463 14C59.1612 14 67.6096 17.3882 74 23" stroke="#565555" stroke-width="2.5" stroke-miterlimit="10" stroke-linecap="round" stroke-linejoin="round"/>
<path id="Vector_11" d="M21.5556 72C16.7778 65.8791 14 58.2279 14 49.9209C14 40.3023 17.7778 31.4488 24 25" stroke="#565555" stroke-width="2.5" stroke-miterlimit="10" stroke-linecap="round" stroke-linejoin="round"/>
<path id="Vector_12" d="M71 79.7436C65.0686 83.7436 57.951 86 50.1863 86C41.3431 86 33.2549 83.0256 27 78" stroke="#565555" stroke-width="2.5" stroke-miterlimit="10" stroke-linecap="round" stroke-linejoin="round"/>
<path id="Vector_13" d="M79.7363 30C83.6923 35.7194 86 42.7338 86 50.1799C86 59.7842 82.1538 68.5252 76 75" stroke="#565555" stroke-width="2.5" stroke-miterlimit="10" stroke-linecap="round" stroke-linejoin="round"/>
<path id="Vector_14" d="M17 25H23.2338L25 32" stroke="#565555" stroke-width="2.5" stroke-miterlimit="10" stroke-linecap="round" stroke-linejoin="round"/>
<path id="Vector_15" d="M74.0508 17L75 23.3529L68 26" stroke="#565555" stroke-width="2.5" stroke-miterlimit="10" stroke-linecap="round" stroke-linejoin="round"/>
<path id="Vector_16" d="M27.8163 84L27 77.25L32 75" stroke="#565555" stroke-width="2.5" stroke-miterlimit="10" stroke-linecap="round" stroke-linejoin="round"/>
<path id="Vector_17" d="M83 74.3L76.1646 75L74 70" stroke="#565555" stroke-width="2.5" stroke-miterlimit="10" stroke-linecap="round" stroke-linejoin="round"/>
</g>
</g>
</svg>
