<svg width="100" height="100" viewBox="0 0 100 100" fill="none" xmlns="http://www.w3.org/2000/svg">
<g id="Frame">
<g id="XMLID_1_">
<g id="XMLID_5_">
<path id="XMLID_9_" d="M35.165 56.6711V53.2203C35.165 52.4938 35.7078 51.7673 36.2505 51.5856L45.6575 48.3164V43.0493" stroke="#3090CF" stroke-width="2.5" stroke-miterlimit="10"/>
<path id="XMLID_8_" d="M64.8333 56.6711V53.2203C64.8333 52.4938 64.2906 51.7673 63.7479 51.5856L54.3408 48.3164V43.0493" stroke="#3090CF" stroke-width="2.5" stroke-miterlimit="10"/>
<path id="XMLID_7_" d="M57.2351 31.0621C57.2351 27.0663 53.9788 23.7971 49.9989 23.7971C46.019 23.7971 42.7627 27.0663 42.7627 31.0621L43.4863 39.5984C43.4863 40.6881 44.2099 41.7779 45.2954 42.3228L48.7325 44.6839H51.0843L54.7024 42.3228C55.7878 41.7779 56.3305 40.6881 56.5114 39.5984L57.2351 31.0621Z" stroke="#3090CF" stroke-width="2.5" stroke-miterlimit="10"/>
<path id="XMLID_6_" d="M45.8389 48.3164L48.5524 51.404H51.6278L54.3414 48.3164" stroke="#3090CF" stroke-width="2.5" stroke-miterlimit="10"/>
</g>
<path id="XMLID_4_" d="M80 42.0977C80 46.0065 76.2745 48.9381 74.902 52.456C73.5294 55.9739 73.7255 60.6645 71.1765 63.2052C68.6275 65.7459 63.7255 65.5505 60.3922 66.9186C57.0588 68.2866 53.9216 72 50 72C46.0784 72 43.1373 68.2866 39.6078 66.9186C36.0784 65.5505 31.3725 65.7459 28.8235 63.2052C26.2745 60.4691 26.6667 55.7785 25.098 52.2606C23.7255 48.9381 20 45.8111 20 41.9023C20 37.9935 23.7255 35.0619 25.098 31.544C26.4706 28.0261 26.2745 23.3355 28.8235 20.7948C31.3725 18.2541 36.2745 18.4495 39.6078 17.0814C42.9412 15.7134 46.0784 12 50 12C53.9216 12 56.8627 15.7134 60.3922 17.0814C63.9216 18.645 68.6275 18.2541 71.1765 20.9902C73.7255 23.5309 73.5294 28.4169 74.902 31.7394C76.2745 35.0619 80 38.1889 80 42.0977Z" stroke="#4C5159" stroke-width="2.5" stroke-miterlimit="10"/>
<path id="XMLID_3_" d="M62.6631 66.8418V87.0021C62.6631 87.1837 62.4822 87.1837 62.4822 87.1837L50.1807 81.5533L37.8791 87.1837C37.8791 87.1837 37.6982 87.1837 37.6982 87.0021V66.8418" stroke="#4C5159" stroke-width="2.5" stroke-miterlimit="10"/>
</g>
</g>
</svg>
