<svg width="100" height="100" viewBox="0 0 100 100" fill="none" xmlns="http://www.w3.org/2000/svg">
<g id="Frame">
<g id="XMLID_1_">
<g id="XMLID_6_">
<path id="XMLID_8_" d="M49.1391 56.4822V52.1737L42.3175 51.2762C41.9584 49.84 41.4199 48.5834 40.7018 47.3268L44.8307 41.9413L41.7789 38.8895L36.3934 43.0184C35.1368 42.3003 33.8802 41.7617 32.444 41.4027L31.5464 34.5811H27.238L26.1609 41.2232C24.7248 41.5822 23.4682 42.1208 22.2115 42.8388L16.826 38.71L13.7742 41.7617L17.9031 47.1473C17.1851 48.4039 16.6465 49.84 16.2875 51.2762L9.46582 52.1737V56.4822L16.2875 57.3797C16.6465 58.8159 17.1851 60.0725 17.9031 61.3291L13.7742 66.7146L16.826 69.9459L22.2115 65.8171C23.4682 66.5351 24.7248 67.0737 26.1609 67.4327L27.0585 74.2544H31.3669L32.2645 67.4327C33.7006 67.0737 34.9573 66.5351 36.2139 65.8171L41.5994 69.9459L44.6512 66.8942L40.5223 61.5086C41.2404 60.252 41.7789 58.9954 42.138 57.5593L49.1391 56.4822Z" stroke="#3090CF" stroke-width="2.5" stroke-miterlimit="10"/>
<path id="XMLID_7_" d="M29.3926 60.4318C32.7636 60.4318 35.4962 57.6991 35.4962 54.3282C35.4962 50.9573 32.7636 48.2246 29.3926 48.2246C26.0217 48.2246 23.2891 50.9573 23.2891 54.3282C23.2891 57.6991 26.0217 60.4318 29.3926 60.4318Z" stroke="#3090CF" stroke-width="2.5" stroke-miterlimit="10"/>
</g>
<path id="XMLID_5_" d="M88.6335 79.9987C88.6335 70.6638 74.9902 72.9975 74.9902 72.9975V12.5002H81.8119C85.5817 12.5002 88.6335 15.552 88.6335 19.3219V67.7915V79.9987Z" stroke="#565555" stroke-width="2.5" stroke-miterlimit="10"/>
<path id="XMLID_4_" d="M29.2124 29.9134V25.964C29.2124 24.1688 30.6485 22.7327 32.4437 22.7327H70.8604" stroke="#565555" stroke-width="2.5" stroke-miterlimit="10"/>
<path id="XMLID_3_" d="M88.6326 68.3303V79.2809C88.6326 83.5893 85.2218 87.0001 80.9134 87.0001H32.4437C30.6485 87.0001 29.2124 85.564 29.2124 83.7688V78.5628" stroke="#565555" stroke-width="2.5" stroke-miterlimit="10"/>
<path id="XMLID_2_" d="M42.498 29.9133C52.91 33.5037 60.2702 43.3771 60.2702 55.0457C60.2702 65.8168 53.8076 75.1517 44.4727 79.2806" stroke="#565555" stroke-width="2.5" stroke-miterlimit="10" stroke-dasharray="1.99 1.99"/>
</g>
</g>
</svg>
